<svg width="415" height="316" viewBox="0 0 415 316" fill="none" xmlns="http://www.w3.org/2000/svg">
<rect width="415" height="316" fill="#F3F3F3"/>
<g opacity="0.5" clip-path="url(#clip0_3654_20376)">
<path d="M115.48 117.051C120.085 101.124 108.869 84.9888 90.4286 81.012C71.9884 77.0351 53.3069 86.7223 48.7024 102.649C44.0979 118.576 55.314 134.711 73.7542 138.688C92.1945 142.664 110.876 132.977 115.48 117.051Z" fill="#282723"/>
<path d="M82.0924 133.292C97.0842 133.292 109.237 122.795 109.237 109.847C109.237 96.8986 97.0842 86.4019 82.0924 86.4019C67.1005 86.4019 54.9473 96.8986 54.9473 109.847C54.9473 122.795 67.1005 133.292 82.0924 133.292Z" fill="white"/>
<path d="M82.0917 93.6343V109.847L71.0869 115.856" stroke="#1C1E1D" stroke-width="2.44" stroke-linecap="round" stroke-linejoin="round"/>
<path d="M393 263.001H22V270.437H393V263.001Z" fill="#282723"/>
<path d="M97.8694 290H88.6777L87.8682 270.437H98.679L97.8694 290Z" fill="#282723"/>
<path d="M324.99 290H315.807L314.997 270.437H325.808L324.99 290Z" fill="#282723"/>
<path d="M98.3838 277.611H88.1633L87.8682 270.437H98.679L98.3838 277.611Z" fill="#5E5B50"/>
<path d="M325.504 277.611H315.292L314.997 270.437H325.808L325.504 277.611Z" fill="#5E5B50"/>
<path d="M86.9663 256.431C89.0829 256.431 93.9908 256.191 97.347 254.173C98.3829 253.597 99.2316 252.803 99.813 251.865C100.394 250.927 100.689 249.876 100.67 248.813C100.718 247.681 100.429 246.557 99.829 245.549C99.2294 244.541 98.3399 243.684 97.2459 243.059C93.5692 240.874 88.383 241.158 88.1553 241.165L88.5685 244.166C88.5685 244.166 92.0091 243.998 94.1595 245.295C94.7965 245.694 95.3056 246.226 95.639 246.841C95.9724 247.456 96.1191 248.135 96.0653 248.813C96.0986 249.43 95.946 250.045 95.6223 250.596C95.2986 251.148 94.815 251.617 94.2185 251.959C91.4525 253.627 86.3591 253.416 86.317 253.416L85.9375 256.416C85.9965 256.409 86.3676 256.431 86.9663 256.431Z" fill="#A7A7A7"/>
<path d="M91.4098 235.157H57.6787L62.6709 262.768H86.1562L91.4098 235.157Z" fill="#A7A7A7"/>
<path d="M74.7049 229.104C76.707 227.829 78.5047 226.33 80.0512 224.647C81.776 222.797 82.9746 220.625 83.5508 218.303C84.1358 215.586 83.5605 212.779 81.9317 210.4C80.4111 208.285 78.4016 206.462 76.0288 205.047C75.7337 204.865 75.5228 204.719 75.3204 204.581L74.6964 204.159L73.4737 203.299C72.681 202.724 71.9052 202.141 71.1884 201.558C69.9362 200.634 68.8779 199.53 68.0598 198.296C67.8659 197.902 68.0598 197.713 68.2959 198.15C68.4125 198.401 68.4809 198.667 68.4983 198.937C68.4983 199.191 68.4983 199.359 68.5574 199.381C68.6164 199.403 69.038 199.126 69.603 198.769C70.168 198.412 70.927 197.939 71.7449 197.458C73.5342 196.405 74.7659 194.782 75.1691 192.945C75.5724 191.107 75.1142 189.207 73.8953 187.662C72.6764 186.117 70.7967 185.053 68.6696 184.704C66.5426 184.356 64.3424 184.752 62.5532 185.805C62.0567 186.101 61.5986 186.443 61.1871 186.824L61.0185 186.977C60.1752 187.764 59.3319 188.601 58.3537 189.621C57.1925 190.831 56.2174 192.165 55.4528 193.591C54.3205 195.708 54.0242 198.087 54.6095 200.364C55.1592 202.216 56.2477 203.916 57.7718 205.302C58.8168 206.258 59.9789 207.113 61.2377 207.851C62.3048 208.492 63.4111 209.083 64.5518 209.621C65.6396 210.146 66.7106 210.612 67.7815 211.078L70.8932 212.316C72.3445 212.847 73.6664 213.611 74.7892 214.567C75.6756 215.369 76.1811 216.429 76.2059 217.538C76.2733 220.065 74.1146 223.481 71.5932 225.987L71.4582 226.118C71.0632 226.498 70.847 226.992 70.8521 227.503C70.8572 228.013 71.0833 228.504 71.4858 228.878C71.8884 229.252 72.4384 229.483 73.0277 229.525C73.6171 229.567 74.2033 229.416 74.6711 229.104H74.7049Z" fill="#E4E4E4"/>
<path d="M373.335 106.723H270.826V121.719H373.335V106.723Z" fill="#282723"/>
<path d="M373.335 121.711H270.826V172.09H373.335V121.711Z" fill="white"/>
<path d="M356.368 121.711V172.09" stroke="#E8EBED" stroke-width="2" stroke-miterlimit="10"/>
<path d="M339.216 121.711V172.09" stroke="#E8EBED" stroke-width="2" stroke-miterlimit="10"/>
<path d="M322.072 121.711V172.09" stroke="#E8EBED" stroke-width="2" stroke-miterlimit="10"/>
<path d="M304.92 121.711V172.09" stroke="#E8EBED" stroke-width="2" stroke-miterlimit="10"/>
<path d="M287.768 121.711V172.09" stroke="#E8EBED" stroke-width="2" stroke-miterlimit="10"/>
<path d="M270.826 133.911H373.343" stroke="#E8EBED" stroke-width="2" stroke-miterlimit="10"/>
<path d="M270.826 146.643H373.343" stroke="#E8EBED" stroke-width="2" stroke-miterlimit="10"/>
<path d="M270.826 159.366H373.343" stroke="#E8EBED" stroke-width="2" stroke-miterlimit="10"/>
<path d="M341.906 150.845C345.28 153.565 348.99 155.956 352.97 157.975C353.214 158.075 353.492 158.093 353.75 158.024C354.008 157.956 354.227 157.806 354.364 157.605C354.5 157.404 354.545 157.165 354.488 156.937C354.431 156.709 354.278 156.508 354.058 156.373C350.234 154.433 346.668 152.138 343.424 149.527C342.412 148.711 340.894 150.029 341.906 150.845Z" fill="#1C1E1D"/>
<path d="M352.962 148.128C348.438 151.771 343.701 155.211 338.769 158.434C338.529 158.564 338.355 158.768 338.283 159.005C338.211 159.242 338.246 159.493 338.381 159.709C338.526 159.922 338.762 160.077 339.039 160.14C339.316 160.203 339.61 160.168 339.857 160.044C344.943 156.727 349.826 153.185 354.488 149.432C355.508 148.616 353.982 147.298 352.97 148.114L352.962 148.128Z" fill="#1C1E1D"/>
<path d="M207.808 0V48.3103" stroke="#1C1E1D" stroke-width="2.96" stroke-miterlimit="10"/>
<path d="M216.232 43.6637H198.523V37.0067C198.535 34.9836 199.475 33.0471 201.139 31.6227C202.802 30.1982 205.052 29.4025 207.395 29.4102C209.739 29.4102 211.986 30.2144 213.644 31.6458C215.301 33.0773 216.232 35.0188 216.232 37.0431V43.6637Z" fill="#5E5B50"/>
<path d="M160.264 65.5646C160.264 65.5646 161.107 37.8442 206.442 37.8442C251.776 37.8442 255.352 65.5646 255.352 65.5646H160.264Z" fill="#A7A7A7"/>
<path d="M126.761 232.411H288.476V237.276C288.476 239.727 287.349 242.078 285.342 243.811C283.335 245.545 280.613 246.518 277.775 246.518H137.462C134.624 246.518 131.902 245.545 129.895 243.811C127.888 242.078 126.761 239.727 126.761 237.276V232.411Z" fill="#5E5B50"/>
<path d="M224.522 246.519H191.339V258.864H224.522V246.519Z" fill="#A7A7A7"/>
<path d="M134.241 151.02H280.971C282.957 151.02 284.862 151.701 286.266 152.914C287.67 154.127 288.459 155.772 288.459 157.487V232.636H126.761V157.487C126.761 155.773 127.549 154.129 128.951 152.916C130.354 151.704 132.256 151.021 134.241 151.02Z" fill="#282723"/>
<path d="M282.91 156.89H133.329V227.597H282.91V156.89Z" fill="url(#paint0_linear_3654_20376)"/>
<path d="M211.257 238.835C211.257 239.459 211.043 240.068 210.642 240.587C210.24 241.106 209.67 241.51 209.003 241.748C208.336 241.987 207.601 242.05 206.893 241.928C206.185 241.806 205.534 241.506 205.024 241.065C204.513 240.624 204.165 240.062 204.024 239.45C203.883 238.838 203.956 238.204 204.232 237.628C204.508 237.052 204.976 236.559 205.577 236.213C206.177 235.866 206.883 235.681 207.606 235.681C208.574 235.681 209.503 236.013 210.187 236.605C210.872 237.196 211.257 237.998 211.257 238.835Z" fill="white"/>
<path d="M238.722 263.001H176.556C176.556 261.905 177.059 260.854 177.956 260.078C178.852 259.302 180.068 258.866 181.337 258.864H233.899C235.169 258.864 236.387 259.3 237.285 260.075C238.184 260.851 238.688 261.904 238.688 263.001H238.722Z" fill="#5E5B50"/>
<path d="M163.502 241.151H140.835V252.695H163.502V241.151Z" fill="white"/>
<path d="M155.87 238.988H147.598V243.307H155.87V238.988Z" fill="#282723"/>
<path d="M268.768 165.521H208.103C206.496 165.521 205.193 166.646 205.193 168.033V217.975C205.193 219.363 206.496 220.488 208.103 220.488H268.768C270.375 220.488 271.677 219.363 271.677 217.975V168.033C271.677 166.646 270.375 165.521 268.768 165.521Z" fill="white"/>
<path d="M190.395 189.665H147.109C145.446 189.665 144.099 190.829 144.099 192.265V217.888C144.099 219.324 145.446 220.488 147.109 220.488H190.395C192.057 220.488 193.405 219.324 193.405 217.888V192.265C193.405 190.829 192.057 189.665 190.395 189.665Z" fill="white"/>
<path d="M186.734 209.628H150.726C150.163 209.628 149.706 210.023 149.706 210.51V210.59C149.706 211.077 150.163 211.471 150.726 211.471H186.734C187.298 211.471 187.755 211.077 187.755 210.59V210.51C187.755 210.023 187.298 209.628 186.734 209.628Z" fill="url(#paint1_linear_3654_20376)"/>
<path d="M171.252 213.962H150.726C150.163 213.962 149.706 214.356 149.706 214.843V214.923C149.706 215.41 150.163 215.805 150.726 215.805H171.252C171.815 215.805 172.272 215.41 172.272 214.923V214.843C172.272 214.356 171.815 213.962 171.252 213.962Z" fill="url(#paint2_linear_3654_20376)"/>
<path d="M160.016 203.214C162.664 200.928 162.664 197.22 160.016 194.933C157.369 192.646 153.076 192.646 150.428 194.933C147.78 197.22 147.78 200.928 150.428 203.214C153.076 205.501 157.368 205.501 160.016 203.214Z" fill="#A7A7A7"/>
<path d="M172.272 171.806H145.532C144.969 171.806 144.512 172.201 144.512 172.687V172.768C144.512 173.254 144.969 173.649 145.532 173.649H172.272C172.836 173.649 173.293 173.254 173.293 172.768V172.687C173.293 172.201 172.836 171.806 172.272 171.806Z" fill="white"/>
<path d="M183.168 183.423H145.532C144.969 183.423 144.512 183.818 144.512 184.305V184.385C144.512 184.871 144.969 185.266 145.532 185.266H183.168C183.731 185.266 184.188 184.871 184.188 184.385V184.305C184.188 183.818 183.731 183.423 183.168 183.423Z" fill="white"/>
<path d="M192.115 177.589H145.532C144.969 177.589 144.512 177.984 144.512 178.471V178.551C144.512 179.037 144.969 179.432 145.532 179.432H192.115C192.678 179.432 193.135 179.037 193.135 178.551V178.471C193.135 177.984 192.678 177.589 192.115 177.589Z" fill="white"/>
<path d="M259.358 175.448H217.733V211.398H259.358V175.448Z" fill="#A7A7A7"/>
<path d="M248.243 196.54C251.778 196.54 254.644 194.065 254.644 191.012C254.644 187.959 251.778 185.484 248.243 185.484C244.708 185.484 241.843 187.959 241.843 191.012C241.843 194.065 244.708 196.54 248.243 196.54Z" fill="#5E5B50"/>
<path d="M240.071 200.131L247.501 192.455L259.88 202.112V211.391H240.071V200.131Z" fill="url(#paint3_linear_3654_20376)"/>
<path d="M217.725 199.993L226.124 188.864L252.839 211.391H217.725V199.993Z" fill="#282723"/>
<path d="M311.261 229.854C309.4 229.854 307.616 230.493 306.3 231.629C304.984 232.766 304.245 234.307 304.245 235.914C304.245 237.521 304.984 239.063 306.3 240.199C307.616 241.336 309.4 241.974 311.261 241.974H379.718V239.112H312.425C311.939 239.112 311.457 239.029 311.008 238.868C310.559 238.708 310.151 238.472 309.807 238.175C309.463 237.878 309.191 237.526 309.005 237.138C308.819 236.75 308.723 236.334 308.723 235.914C308.723 235.494 308.819 235.079 309.005 234.691C309.191 234.303 309.463 233.95 309.807 233.653C310.151 233.356 310.559 233.121 311.008 232.96C311.457 232.8 311.939 232.717 312.425 232.717H379.718V229.854H311.261Z" fill="#7C7A73"/>
<path d="M308.723 235.914C308.723 236.762 309.113 237.575 309.807 238.175C310.501 238.775 311.443 239.112 312.425 239.112H376.564V232.717H312.425C311.938 232.716 311.456 232.798 311.007 232.958C310.557 233.119 310.148 233.354 309.804 233.651C309.46 233.948 309.188 234.301 309.002 234.689C308.817 235.078 308.722 235.494 308.723 235.914Z" fill="white"/>
<path d="M312.273 242.025C309.124 242.025 306.104 243.105 303.877 245.028C301.65 246.952 300.399 249.56 300.399 252.28C300.399 254.999 301.65 257.608 303.877 259.531C306.104 261.454 309.124 262.535 312.273 262.535H372.812V258.755H313.023C312.042 258.753 311.07 258.584 310.165 258.257C309.259 257.93 308.437 257.453 307.745 256.851C307.053 256.25 306.506 255.536 306.134 254.752C305.762 253.967 305.573 253.127 305.577 252.28C305.577 250.57 306.363 248.931 307.763 247.722C309.163 246.513 311.061 245.834 313.04 245.834H372.829V241.996L312.273 242.025Z" fill="#5E5B50"/>
<path d="M305.577 252.28C305.577 253.989 306.363 255.629 307.763 256.838C309.163 258.046 311.061 258.725 313.04 258.725H369.81V245.834H313.023C311.047 245.838 309.153 246.519 307.757 247.727C306.361 248.935 305.577 250.573 305.577 252.28Z" fill="white"/>
<path d="M316.354 250.153H323.092V256.584L319.728 254.829L316.354 256.584V250.153Z" fill="#7C7A73"/>
</g>
<defs>
<linearGradient id="paint0_linear_3654_20376" x1="281.976" y1="179.211" x2="125.287" y2="179.211" gradientUnits="userSpaceOnUse">
<stop stop-color="#DFDFDD"/>
<stop offset="1" stop-color="#D3D1C7"/>
</linearGradient>
<linearGradient id="paint1_linear_3654_20376" x1="187.517" y1="210.21" x2="147.66" y2="210.21" gradientUnits="userSpaceOnUse">
<stop stop-color="#DFDFDD"/>
<stop offset="1" stop-color="#D3D1C7"/>
</linearGradient>
<linearGradient id="paint2_linear_3654_20376" x1="172.131" y1="214.544" x2="148.493" y2="214.544" gradientUnits="userSpaceOnUse">
<stop stop-color="#DFDFDD"/>
<stop offset="1" stop-color="#D3D1C7"/>
</linearGradient>
<linearGradient id="paint3_linear_3654_20376" x1="259.756" y1="198.433" x2="239.006" y2="198.433" gradientUnits="userSpaceOnUse">
<stop stop-color="#DFDFDD"/>
<stop offset="1" stop-color="#D3D1C7"/>
</linearGradient>
<clipPath id="clip0_3654_20376">
<rect width="371" height="290" fill="white" transform="translate(22)"/>
</clipPath>
</defs>
</svg>
