<svg width="224" height="191" viewBox="0 0 224 191" fill="none" xmlns="http://www.w3.org/2000/svg">
<rect opacity="0.04" width="224" height="191" rx="12" fill="#3F3F3F"/>
<path d="M133.001 42.333H91.0013C85.8466 42.333 81.668 46.5117 81.668 51.6663V140.333C81.668 145.488 85.8466 149.666 91.0013 149.666H133.001C138.156 149.666 142.335 145.488 142.335 140.333V51.6663C142.335 46.5117 138.156 42.333 133.001 42.333Z" stroke="#F55523" stroke-width="4" stroke-linecap="round" stroke-linejoin="round"/>
<path d="M142.335 131H81.668" stroke="#F55523" stroke-width="4" stroke-linecap="round" stroke-linejoin="round"/>
<path d="M142.335 61H81.668" stroke="#F55523" stroke-width="4" stroke-linecap="round" stroke-linejoin="round"/>
<path d="M112 75V117" stroke="#F55523" stroke-width="4" stroke-linecap="round" stroke-linejoin="round"/>
<path d="M121.547 82.6372H107.229C105.457 82.6372 103.757 83.3412 102.504 84.5943C101.251 85.8474 100.547 87.5469 100.547 89.319C100.547 91.0912 101.251 92.7907 102.504 94.0438C103.757 95.2969 105.457 96.0008 107.229 96.0008H116.774C118.546 96.0008 120.246 96.7048 121.499 97.9579C122.752 99.211 123.456 100.911 123.456 102.683C123.456 104.455 122.752 106.154 121.499 107.407C120.246 108.661 118.546 109.364 116.774 109.364H100.547" stroke="#F55523" stroke-width="4" stroke-linecap="round" stroke-linejoin="round"/>
</svg>
