<svg xmlns="http://www.w3.org/2000/svg" xmlns:xlink="http://www.w3.org/1999/xlink" viewBox="0 0 207.76 239.56"><defs><style>.cls-1{fill:none;}.cls-2{clip-path:url(#clip-path);}.cls-3{fill:#020b3b;}.cls-4{isolation:isolate;}.cls-5{fill:#e49d35;}.cls-6{fill:#fff;}</style><clipPath id="clip-path" transform="translate(0.01 0)"><rect class="cls-1" width="207.75" height="207.75"/></clipPath></defs><g id="Layer_2" data-name="Layer 2"><g id="Layer_1-2" data-name="Layer 1"><g class="cls-2"><path class="cls-3" d="M103.88,0A103.88,103.88,0,1,0,207.75,103.89h0A103.88,103.88,0,0,0,103.88,0" transform="translate(0.01 0)"/></g><g class="cls-4"><path class="cls-5" d="M109.33,151.19V55.79h15.79v95.4Zm53.2-95.4h15.79v95.4H162.53l-32.1-56.44V65l32.1,56.57Z" transform="translate(0.01 0)"/></g><g class="cls-4"><path class="cls-6" d="M60.42,139,78.74,55.77h6.15V90.72l-14.26,62H50.08l-24.48-97H43.4ZM132,55.77h17.8l-26,97H103.35L90.26,93.2V55.77h6.28l17,83.24Z" transform="translate(0.01 0)"/></g><g class="cls-4"><path class="cls-3" d="M34.57,239.41l-6.08-18h2l5.69,17h-1l5.87-17h1.75l5.8,17h-.93l5.74-17h1.83l-6.08,18h-2L41.6,223.32h.51l-5.56,16.09Z" transform="translate(0.01 0)"/></g><g class="cls-4"><path class="cls-3" d="M65,239.56a10.14,10.14,0,0,1-3.77-.68,8.86,8.86,0,0,1-5-4.84,9.07,9.07,0,0,1,5-12.13,10.79,10.79,0,0,1,7.54,0,9.18,9.18,0,0,1,3,1.92,8.92,8.92,0,0,1,2,2.91,9.76,9.76,0,0,1,0,7.31,8.88,8.88,0,0,1-5,4.83A10,10,0,0,1,65,239.56Zm0-1.69a7.89,7.89,0,0,0,3-.56,7.09,7.09,0,0,0,2.4-1.57A7.19,7.19,0,0,0,72,233.37a7.56,7.56,0,0,0,.57-3,7.64,7.64,0,0,0-.57-3,7.13,7.13,0,0,0-4-3.94,8.09,8.09,0,0,0-3-.55,8.26,8.26,0,0,0-3,.55,7.28,7.28,0,0,0-2.41,1.57,7.44,7.44,0,0,0-2.17,5.35,7.48,7.48,0,0,0,2.17,5.34A7.13,7.13,0,0,0,62,237.31,8.06,8.06,0,0,0,65,237.87Z" transform="translate(0.01 0)"/></g><g class="cls-4"><path class="cls-3" d="M78,239.41v-18h6.74a9.62,9.62,0,0,1,3.94.74,5.65,5.65,0,0,1,2.54,2.11,6.05,6.05,0,0,1,.89,3.34,5.94,5.94,0,0,1-.89,3.28A5.65,5.65,0,0,1,88.69,233a9.62,9.62,0,0,1-3.94.73H79.06l.85-.87v6.59Zm1.9-6.44-.85-.9H84.7a6.24,6.24,0,0,0,4.11-1.18,4.67,4.67,0,0,0,0-6.67A6.24,6.24,0,0,0,84.7,223H79.06l.85-.9Zm10.4,6.44-4.63-6.54h2.06l4.66,6.54Z" transform="translate(0.01 0)"/></g><g class="cls-4"><path class="cls-3" d="M96.62,239.41v-18h1.9v18Zm1.64-4.48-.07-2.32,10.91-11.23h2.19l-8,8.35-1.09,1.16Zm11.31,4.48-7.78-9,1.29-1.39,8.75,10.35Z" transform="translate(0.01 0)"/></g><g class="cls-4"><path class="cls-3" d="M115.11,239.41v-18h1.57L129.11,237h-.82V221.38h1.88v18H128.6l-12.41-15.66H117v15.66Z" transform="translate(0.01 0)"/></g><g class="cls-4"><path class="cls-3" d="M143.38,239.56a10.16,10.16,0,0,1-3.78-.68,8.86,8.86,0,0,1-5-4.84,9.07,9.07,0,0,1,5-12.13,10.79,10.79,0,0,1,7.54,0,9.18,9.18,0,0,1,3,1.92,8.92,8.92,0,0,1,2,2.91,9.76,9.76,0,0,1,0,7.31,8.88,8.88,0,0,1-5,4.83A10,10,0,0,1,143.38,239.56Zm0-1.69a8,8,0,0,0,3-.56,7.15,7.15,0,0,0,4-3.94,7.56,7.56,0,0,0,.57-3,7.64,7.64,0,0,0-.57-3,7.19,7.19,0,0,0-1.58-2.37,7.3,7.3,0,0,0-2.39-1.57,8.16,8.16,0,0,0-3-.55,8.27,8.27,0,0,0-3,.55,7.28,7.28,0,0,0-2.41,1.57,7.44,7.44,0,0,0-2.17,5.35,7.48,7.48,0,0,0,2.17,5.34,7.13,7.13,0,0,0,2.41,1.57A8.07,8.07,0,0,0,143.38,237.87Z" transform="translate(0.01 0)"/></g><g class="cls-4"><path class="cls-3" d="M160.44,239.41l-6.08-18h2l5.69,17h-1l5.87-17h1.75l5.8,17h-.93l5.74-17h1.83l-6.08,18h-2l-5.54-16.09H168l-5.56,16.09Z" transform="translate(0.01 0)"/></g></g></g></svg>