<svg width="16" height="17" viewBox="0 0 16 17" fill="none" xmlns="http://www.w3.org/2000/svg">
<path d="M6.66663 13.1667L6.1363 12.6363L5.60597 13.1667L6.1363 13.697L6.66663 13.1667ZM8.80296 9.96967L6.1363 12.6363L7.19696 13.697L9.86362 11.0303L8.80296 9.96967ZM6.1363 13.697L8.80296 16.3637L9.86362 15.303L7.19696 12.6363L6.1363 13.697Z" fill="#FE7B50"/>
<path d="M12.0414 6.16667C12.451 6.87609 12.6666 7.68083 12.6666 8.5C12.6666 9.31917 12.451 10.1239 12.0414 10.8333C11.6318 11.5428 11.0427 12.1319 10.3333 12.5415C9.62387 12.951 8.81913 13.1667 7.99996 13.1667" stroke="#FE7B50" stroke-width="1.5" stroke-linecap="round"/>
<path d="M9.33337 3.83334L9.8637 4.36367L10.394 3.83334L9.8637 3.30301L9.33337 3.83334ZM7.19704 7.03034L9.8637 4.36367L8.80304 3.30301L6.13638 5.96968L7.19704 7.03034ZM9.8637 3.30301L7.19704 0.636344L6.13638 1.697L8.80304 4.36367L9.8637 3.30301Z" fill="#FE7B50"/>
<path d="M3.95859 10.8333C3.549 10.1239 3.33337 9.31918 3.33337 8.5C3.33337 7.68083 3.549 6.87609 3.95859 6.16667C4.36817 5.45725 4.95728 4.86814 5.66671 4.45855C6.37613 4.04897 7.18087 3.83334 8.00004 3.83334" stroke="#FE7B50" stroke-width="1.5" stroke-linecap="round"/>
</svg>
