<svg width="243" height="256" viewBox="0 0 243 256" fill="none" xmlns="http://www.w3.org/2000/svg">
<rect width="242" height="242" rx="121" fill="#FFF9ED"/>
<g filter="url(#filter0_f_470_3764)">
<ellipse cx="125.5" cy="203" rx="67.5" ry="3" fill="#565252"/>
</g>
<path d="M198.031 198.031H107.719V131.625L152.875 115.688L198.031 131.625V198.031Z" fill="#FFB31F"/>
<path d="M152.875 118.344L107.719 134.281V123.656L152.875 107.719V118.344Z" fill="#282723"/>
<path d="M152.875 118.344L198.031 134.281V123.656L152.875 107.719V118.344Z" fill="#282723"/>
<path d="M152.875 113.031L107.719 128.969V134.281L152.875 118.344V113.031Z" fill="#5E5B50"/>
<path d="M152.875 118.344L198.031 134.281V128.969L152.875 113.031V118.344Z" fill="#5E5B50"/>
<path d="M176.781 166.156H155.531C149.664 166.156 144.906 170.914 144.906 176.781V198.031H179.438C183.839 198.031 187.406 194.464 187.406 190.062V176.781C187.406 170.914 182.649 166.156 176.781 166.156Z" fill="#282723"/>
<path d="M171.469 182.094V183.629C166.783 181.578 163.5 176.911 163.5 171.469V166.156H155.531C149.664 166.156 144.906 170.914 144.906 176.781V198.031H179.438C183.839 198.031 187.406 194.464 187.406 190.062V176.781H176.781C173.846 176.781 171.469 179.159 171.469 182.094Z" fill="#5E5B50"/>
<path d="M166.156 174.125C163.221 174.125 160.844 171.748 160.844 168.812V160.844H171.469V168.812C171.469 171.748 169.091 174.125 166.156 174.125Z" fill="#F6B98D"/>
<path d="M176.782 182.094V187.406H166.441C163.795 187.406 161.341 189.215 160.916 191.826C160.377 195.155 162.929 198.031 166.157 198.031H179.438C183.839 198.031 187.407 194.464 187.407 190.062V182.094H176.782Z" fill="#F6B98D"/>
<path d="M160.844 168.812C160.844 170.834 161.986 172.571 163.651 173.469C163.55 172.818 163.5 172.149 163.5 171.469V168.812C166.693 168.812 169.522 167.375 171.469 165.147V160.844H160.844V168.812Z" fill="#F3A268"/>
<path d="M166.156 166.156C160.289 166.156 155.531 161.399 155.531 155.531V144.906H176.781V155.531C176.781 161.399 172.024 166.156 166.156 166.156Z" fill="#F9CDAE"/>
<path d="M166.156 134.281C160.289 134.281 155.531 139.039 155.531 144.906H176.781C176.781 139.039 172.024 134.281 166.156 134.281Z" fill="#656B76"/>
<path d="M161.104 149.377V144.906H155.531V155.531C155.531 161.399 160.289 166.156 166.156 166.156C170.799 166.156 174.704 163.16 176.149 159.011C174.8 159.633 173.31 160.002 171.726 160.002C165.859 160.002 161.104 155.244 161.104 149.377Z" fill="#F6B98D"/>
<path d="M161.104 138.752C161.104 137.527 161.354 136.366 161.736 135.272C158.081 136.951 155.531 140.622 155.531 144.906H161.104V138.752Z" fill="#545A63"/>
<path d="M176.78 182.094V184.75H182.092V187.406C182.092 190.341 179.715 192.719 176.78 192.719H168.811C166.136 192.719 163.942 190.735 163.576 188.158C162.208 188.923 161.177 190.219 160.917 191.826C160.375 195.155 162.927 198.031 166.155 198.031H179.436C183.837 198.031 187.405 194.464 187.405 190.062V182.094H176.78Z" fill="#F3A268"/>
<path d="M163.5 198.031H152.875V187.406C158.743 187.406 163.5 192.164 163.5 198.031Z" fill="#D0D8DA"/>
<path d="M155.571 187.794C154.705 187.566 153.813 187.406 152.875 187.406V198.031H163.5C163.5 197.094 163.341 196.201 163.112 195.335C159.027 195.136 155.77 191.879 155.571 187.794Z" fill="#B8BEBF"/>
<path d="M152.875 198.031H128.969C124.567 198.031 121 194.464 121 190.062V179.438C121 175.036 124.567 171.469 128.969 171.469H144.906C149.308 171.469 152.875 175.036 152.875 179.438V198.031Z" fill="#E9F1F2"/>
<path d="M147.562 187.406C138.197 187.406 130.472 180.476 129.181 171.469H128.969C124.567 171.469 121 175.036 121 179.438V190.062C121 194.464 124.567 198.031 128.969 198.031H152.875V187.406H147.562Z" fill="#D0D8DA"/>
<path d="M136.938 187.406C138.405 187.406 139.594 186.217 139.594 184.75C139.594 183.283 138.405 182.094 136.938 182.094C135.47 182.094 134.281 183.283 134.281 184.75C134.281 186.217 135.47 187.406 136.938 187.406Z" fill="#FFB31F"/>
<path d="M136.938 187.406C138.125 187.406 139.097 186.612 139.434 185.536C137.915 184.795 136.513 183.847 135.259 182.737C134.674 183.223 134.281 183.929 134.281 184.75C134.281 186.216 135.471 187.406 136.938 187.406Z" fill="#FFC857"/>
<path d="M126.312 147.562L136.938 163.5L139.594 155.531L144.906 150.219L126.312 147.562Z" fill="#F47C94"/>
<path d="M126.312 147.562L136.938 163.5L139.594 155.531L126.312 147.562Z" fill="#F15574"/>
<path d="M156.243 65.2825L135.251 67.4925C126.079 54.8673 111.238 46.625 94.4375 46.625C66.5655 46.625 43.9688 69.2217 43.9688 97.0938C43.9688 124.966 66.5655 147.562 94.4375 147.562C122.31 147.562 144.906 124.966 144.906 97.0938C144.906 91.4253 143.929 85.9933 142.205 80.9066L156.243 65.2825Z" fill="#98968D"/>
<path d="M70.5312 94.4375H91.7812C97.6489 94.4375 102.406 99.1948 102.406 105.062V126.312H67.875C63.4736 126.312 59.9062 122.745 59.9062 118.344V105.062C59.9062 99.1948 64.6636 94.4375 70.5312 94.4375Z" fill="#282723"/>
<path d="M91.7812 113.031C84.4473 113.031 78.5 107.084 78.5 99.75V94.4375H70.5312C64.6636 94.4375 59.9062 99.1948 59.9062 105.062V118.344C59.9062 122.745 63.4736 126.312 67.875 126.312H102.406V113.031H91.7812Z" fill="#5E5B50"/>
<path d="M81.1562 102.406C78.2211 102.406 75.8438 100.029 75.8438 97.0938V89.125H86.4688V97.0938C86.4688 100.029 84.0914 102.406 81.1562 102.406Z" fill="#F6B98D"/>
<path d="M75.8438 97.0938C75.8438 99.1152 76.9859 100.852 78.6514 101.75C78.5505 101.099 78.5 100.43 78.5 99.75V97.0938C81.6928 97.0938 84.5217 95.6567 86.4688 93.4281V89.125H75.8438V97.0938Z" fill="#F3A268"/>
<path d="M81.1562 94.4375C75.2886 94.4375 70.5312 89.6802 70.5312 83.8125V73.1875H91.7812V83.8125C91.7812 89.6802 87.0239 94.4375 81.1562 94.4375Z" fill="#F9CDAE"/>
<path d="M81.1562 62.5625C75.2886 62.5625 70.5312 67.3198 70.5312 73.1875H91.7812C91.7812 67.3198 87.0239 62.5625 81.1562 62.5625Z" fill="#656B76"/>
<path d="M76.1041 77.658V73.1875H70.5312V83.8125C70.5312 89.6802 75.2886 94.4375 81.1562 94.4375C85.7994 94.4375 89.7041 91.4412 91.1491 87.2922C89.7997 87.9137 88.3095 88.283 86.7264 88.283C80.8588 88.283 76.1041 83.5256 76.1041 77.658Z" fill="#F6B98D"/>
<path d="M76.1041 67.0329C76.1041 65.8084 76.3538 64.6476 76.7363 63.5532C73.0813 65.232 70.5312 68.9029 70.5312 73.1874H76.1041V67.0329Z" fill="#545A63"/>
<path d="M70.5312 110.375V115.688H80.872C83.5177 115.688 85.972 117.496 86.397 120.107C86.9362 123.436 84.3836 126.312 81.1562 126.312H67.875C63.4736 126.312 59.9062 122.745 59.9062 118.344V110.375H70.5312Z" fill="#F6B98D"/>
<path d="M70.5312 110.375V113.031H65.2188V115.688C65.2188 118.623 67.5961 121 70.5312 121H78.5C81.1748 121 83.3689 119.016 83.7355 116.439C85.1034 117.204 86.1341 118.5 86.3944 120.107C86.9363 123.436 84.3836 126.312 81.1562 126.312H67.875C63.4736 126.312 59.9062 122.745 59.9062 118.344V110.375H70.5312Z" fill="#F3A268"/>
<path d="M53.3359 126.312C62.4841 139.158 77.4653 147.562 94.4361 147.562C111.407 147.562 126.388 139.158 135.536 126.312H53.3359Z" fill="#E9F1F2"/>
<path d="M187.406 91.7812H155.531V43.9688H179.438L187.406 51.9375V91.7812Z" fill="#E9F1F2"/>
<path d="M182.094 81.1562V54.5938C182.094 51.6586 179.716 49.2812 176.781 49.2812H166.156C163.221 49.2812 160.844 46.9039 160.844 43.9688H155.531V91.7812H187.406V86.4688C184.471 86.4688 182.094 84.0914 182.094 81.1562Z" fill="#D0D8DA"/>
<path d="M187.406 81.1562H198.031V91.7812H187.406V81.1562Z" fill="#282723"/>
<path d="M187.406 70.5312H198.031V81.1562H187.406V70.5312Z" fill="#282723"/>
<path d="M187.406 59.9062H198.031V70.5312H187.406V59.9062Z" fill="#282723"/>
<path d="M155.531 54.5938H166.156V65.2188H155.531V54.5938Z" fill="#282723"/>
<path d="M166.156 54.5938H176.781V65.2188H166.156V54.5938Z" fill="#282723"/>
<path d="M155.531 65.2188H166.156V75.8438H155.531V65.2188Z" fill="#282723"/>
<path d="M166.156 65.2188H176.781V75.8438H166.156V65.2188Z" fill="#282723"/>
<path d="M198.031 70.5312H187.406V59.9062L198.031 70.5312Z" fill="#5E5B50"/>
<path d="M166.156 65.2188H155.531V54.5938L166.156 65.2188Z" fill="#5E5B50"/>
<path d="M166.156 75.8438H155.531V65.2188L166.156 75.8438Z" fill="#5E5B50"/>
<path d="M176.781 65.2188H166.156V54.5938L176.781 65.2188Z" fill="#5E5B50"/>
<path d="M176.781 75.8438H166.156V65.2188L176.781 75.8438Z" fill="#5E5B50"/>
<path d="M198.031 81.1562H187.406V70.5312L198.031 81.1562Z" fill="#5E5B50"/>
<path d="M198.031 91.7812H187.406V81.1562L198.031 91.7812Z" fill="#5E5B50"/>
<path d="M83.8125 126.312H94.4375V115.688C88.5698 115.688 83.8125 120.445 83.8125 126.312Z" fill="#D0D8DA"/>
<path d="M91.7414 116.075C92.6073 115.847 93.4998 115.688 94.4375 115.688V126.312H83.8125C83.8125 125.375 83.9719 124.482 84.2003 123.616C88.2856 123.417 91.5422 120.161 91.7414 116.075Z" fill="#B8BEBF"/>
<path d="M94.4375 126.312H118.344C122.745 126.312 126.312 122.745 126.312 118.344V107.719C126.312 103.317 122.745 99.75 118.344 99.75H102.406C98.0048 99.75 94.4375 103.317 94.4375 107.719V126.312Z" fill="#E9F1F2"/>
<path d="M121 115.688C111.634 115.688 103.91 108.757 102.619 99.75H102.406C98.0048 99.75 94.4375 103.317 94.4375 107.719V126.312H118.344C122.745 126.312 126.312 122.745 126.312 118.344V115.688H121Z" fill="#D0D8DA"/>
<path d="M110.375 115.688C111.842 115.688 113.031 114.498 113.031 113.031C113.031 111.564 111.842 110.375 110.375 110.375C108.908 110.375 107.719 111.564 107.719 113.031C107.719 114.498 108.908 115.688 110.375 115.688Z" fill="#FFB31F"/>
<path d="M129.356 76.7548C128.676 76.7548 127.996 76.4945 127.478 75.9766C123.966 72.465 119.296 70.5313 114.329 70.5313C109.365 70.5313 104.695 72.465 101.183 75.9766C100.145 77.0152 98.466 77.0152 97.4274 75.9766C96.3888 74.9406 96.3888 73.2592 97.4274 72.2206C101.94 67.705 107.946 65.2188 114.329 65.2188C120.715 65.2188 126.721 67.705 131.233 72.2206C132.272 73.2592 132.272 74.9406 131.233 75.9766C130.713 76.4972 130.033 76.7548 129.356 76.7548Z" fill="#FFB31F"/>
<path d="M121.84 84.2666C121.16 84.2666 120.48 84.0063 119.962 83.4883C116.851 80.3805 111.796 80.3858 108.691 83.4883C107.653 84.5269 105.974 84.5269 104.935 83.4883C103.897 82.4497 103.897 80.7683 104.935 79.7324C110.112 74.5527 118.541 74.558 123.718 79.7324C124.756 80.7683 124.756 82.4497 123.718 83.4883C123.2 84.0089 122.52 84.2666 121.84 84.2666Z" fill="#FFB31F"/>
<path d="M114.328 91.7812C115.795 91.7812 116.984 90.592 116.984 89.125C116.984 87.658 115.795 86.4688 114.328 86.4688C112.861 86.4688 111.672 87.658 111.672 89.125C111.672 90.592 112.861 91.7812 114.328 91.7812Z" fill="#FFB31F"/>
<path d="M108.699 111.018C108.112 111.504 107.719 112.21 107.719 113.031C107.719 114.498 108.909 115.688 110.375 115.688C111.562 115.688 112.535 114.893 112.872 113.818C111.353 113.074 109.95 112.128 108.699 111.018Z" fill="#FFC857"/>
<path d="M75.8423 136.938C69.9747 136.938 65.2173 132.18 65.2173 126.312H53.3359C62.4841 139.158 77.4653 147.562 94.4361 147.562C106.102 147.562 116.826 143.591 125.363 136.938H75.8423Z" fill="#D0D8DA"/>
<path d="M97.0938 184.75L86.4688 171.469V179.438H75.8438C69.9761 179.438 65.2188 174.68 65.2188 168.812V160.844H73.1875L59.9062 150.219L46.625 160.844H54.5938V168.812C54.5938 180.548 64.1084 190.062 75.8438 190.062H86.4688V198.031L97.0938 184.75Z" fill="#F47C94"/>
<path d="M59.9062 168.812V150.219L46.625 160.844H54.5938V168.812C54.5938 180.548 64.1084 190.062 75.8438 190.062H86.4688V198.031L97.0938 184.75H75.8438C67.0409 184.75 59.9062 177.615 59.9062 168.812Z" fill="#F15574"/>
<defs>
<filter id="filter0_f_470_3764" x="8" y="150" width="235" height="106" filterUnits="userSpaceOnUse" color-interpolation-filters="sRGB">
<feFlood flood-opacity="0" result="BackgroundImageFix"/>
<feBlend mode="normal" in="SourceGraphic" in2="BackgroundImageFix" result="shape"/>
<feGaussianBlur stdDeviation="25" result="effect1_foregroundBlur_470_3764"/>
</filter>
</defs>
</svg>
