<svg width="243" height="256" viewBox="0 0 243 256" fill="none" xmlns="http://www.w3.org/2000/svg">
<rect width="242" height="242" rx="121" fill="#FFF9ED"/>
<g filter="url(#filter0_f_470_3765)">
<ellipse cx="125.5" cy="203" rx="67.5" ry="3" fill="#565252"/>
</g>
<path d="M160.845 59.9062L161.536 60.1187L139.463 82.1922L126.367 69.0969L160.845 59.9062Z" fill="#FFB31F"/>
<path d="M108.224 178.694L86.3633 172.85L94.3852 164.855L108.224 178.694Z" fill="#FFB31F"/>
<path d="M100.016 65.2984L58.6844 106.63L43.9688 91.9141V70.5313L81.1562 59.9062L99.5109 64.7938L100.016 65.2984Z" fill="#FFB31F"/>
<path d="M47.4219 117.892L43.9688 121.345V114.439L47.4219 117.892Z" fill="#FFB31F"/>
<path d="M75.6047 146.075L43.9688 177.684V136.38L54.9391 125.409L75.6047 146.075Z" fill="#FFB31F"/>
<path d="M128.2 93.4813L86.8688 134.786L66.2031 114.12L74.5172 105.806L97.4406 82.9094L107.534 72.8157L128.2 93.4813Z" fill="#FFB31F"/>
<path d="M198.033 163.288V182.094L160.845 171.469L131.388 179.331L105.648 153.566L146.98 112.261L198.033 163.288Z" fill="#FFB31F"/>
<path d="M198.033 70.5313V140.763L158.242 100.972L190.755 68.4595L194.022 69.3892L198.033 70.5313Z" fill="#FFB31F"/>
<path d="M107.533 72.8155L66.2016 114.12L86.8672 134.786L128.198 93.4812L107.533 72.8155ZM99.5109 64.7937L121 70.5312L126.366 69.0968L139.461 82.1921L161.534 60.1187L190.753 68.4593L158.241 100.972L198.031 140.762V163.287L146.978 112.261L105.647 153.566L131.386 179.331L121 182.094L108.223 178.694L94.3844 164.855L86.3625 172.85L81.1562 171.469L43.9688 182.094V177.684L75.6047 146.075L54.9391 125.409L43.9688 136.38V121.345L47.4219 117.892L43.9688 114.439V91.914L58.6844 106.63L100.016 65.2983L99.5109 64.7937Z" fill="#FCE7BF"/>
<path d="M102.406 94.4376C102.406 105.063 86.4688 121 86.4688 121C81.9509 116.379 77.9435 111.285 74.5156 105.806L97.4391 82.9094C99.009 84.391 100.259 86.1779 101.114 88.1603C101.968 90.1428 102.408 92.2789 102.406 94.4376Z" fill="#DAC191"/>
<path d="M81.1562 73.1875C85.3831 73.1875 89.4369 74.8666 92.4258 77.8555C95.4146 80.8443 97.0938 84.8981 97.0938 89.125C97.0938 99.75 81.1562 115.688 81.1562 115.688C81.1562 115.688 65.2188 99.75 65.2188 89.125C65.2188 84.8981 66.8979 80.8443 69.8867 77.8555C72.8756 74.8666 76.9294 73.1875 81.1562 73.1875Z" fill="#FF4F4F"/>
<path d="M139.594 128.969C143.821 128.969 147.874 130.648 150.863 133.637C153.852 136.626 155.531 140.679 155.531 144.906C155.531 155.531 139.594 171.469 139.594 171.469C139.594 171.469 123.656 155.531 123.656 144.906C123.656 140.679 125.335 136.626 128.324 133.637C131.313 130.648 135.367 128.969 139.594 128.969Z" fill="#DAC191"/>
<path d="M134.281 123.656C138.508 123.656 142.562 125.335 145.551 128.324C148.54 131.313 150.219 135.367 150.219 139.594C150.219 150.219 134.281 166.156 134.281 166.156C134.281 166.156 118.344 150.219 118.344 139.594C118.344 135.367 120.023 131.313 123.012 128.324C126.001 125.335 130.054 123.656 134.281 123.656Z" fill="#FF4F4F"/>
<path d="M195.376 75.8438C195.376 86.4688 179.438 102.406 179.438 102.406C175.691 98.5598 172.279 94.401 169.238 89.9751L190.754 68.4595L194.021 69.3892C194.922 71.4213 195.384 73.6209 195.376 75.8438Z" fill="#DAC191"/>
<path d="M174.125 54.5938C178.352 54.5938 182.406 56.2729 185.395 59.2617C188.383 62.2506 190.062 66.3044 190.062 70.5312C190.062 81.1562 174.125 97.0938 174.125 97.0938C174.125 97.0938 158.188 81.1562 158.188 70.5312C158.188 66.3044 159.867 62.2506 162.855 59.2617C165.844 56.2729 169.898 54.5938 174.125 54.5938Z" fill="#FF4F4F"/>
<path d="M81.1562 94.4375C84.0903 94.4375 86.4688 92.059 86.4688 89.125C86.4688 86.191 84.0903 83.8125 81.1562 83.8125C78.2222 83.8125 75.8438 86.191 75.8438 89.125C75.8438 92.059 78.2222 94.4375 81.1562 94.4375Z" fill="#FFB31F"/>
<path d="M134.281 144.906C137.215 144.906 139.594 142.528 139.594 139.594C139.594 136.66 137.215 134.281 134.281 134.281C131.347 134.281 128.969 136.66 128.969 139.594C128.969 142.528 131.347 144.906 134.281 144.906Z" fill="#FFB31F"/>
<path d="M174.125 75.8438C177.059 75.8438 179.438 73.4653 179.438 70.5312C179.438 67.5972 177.059 65.2188 174.125 65.2188C171.191 65.2188 168.812 67.5972 168.812 70.5312C168.812 73.4653 171.191 75.8438 174.125 75.8438Z" fill="#FFB31F"/>
<defs>
<filter id="filter0_f_470_3765" x="8" y="150" width="235" height="106" filterUnits="userSpaceOnUse" color-interpolation-filters="sRGB">
<feFlood flood-opacity="0" result="BackgroundImageFix"/>
<feBlend mode="normal" in="SourceGraphic" in2="BackgroundImageFix" result="shape"/>
<feGaussianBlur stdDeviation="25" result="effect1_foregroundBlur_470_3765"/>
</filter>
</defs>
</svg>
