<svg width="242" height="242" viewBox="0 0 242 242" fill="none" xmlns="http://www.w3.org/2000/svg">
<rect width="242" height="242" rx="121" fill="#FFF9ED"/>
<g filter="url(#filter0_f_719_6681)">
<ellipse cx="125.5" cy="203" rx="67.5" ry="3" fill="#565252"/>
</g>
<path d="M157.062 185.394H121.002C119.585 185.394 118.426 186.553 118.426 187.97V198.273C118.426 199.689 119.585 200.849 121.002 200.849H157.062C158.479 200.849 159.638 199.689 159.638 198.273V187.97C159.638 186.553 158.479 185.394 157.062 185.394Z" fill="#FFB31F"/>
<path d="M157.062 169.939H121.002C119.585 169.939 118.426 171.099 118.426 172.515V182.818C118.426 184.235 119.585 185.394 121.002 185.394H157.062C158.479 185.394 159.638 184.235 159.638 182.818V172.515C159.638 171.099 158.479 169.939 157.062 169.939Z" fill="#FFB31F"/>
<path d="M198.273 200.849C199.69 200.849 200.849 199.689 200.849 198.273V187.97C200.849 186.553 199.69 185.394 198.273 185.394H162.212C160.796 185.394 159.637 186.553 159.637 187.97V198.273C159.637 199.689 160.796 200.849 162.212 200.849H198.273Z" fill="#FFB31F"/>
<path d="M198.273 169.939H162.212C160.796 169.939 159.637 171.099 159.637 172.515V182.818C159.637 184.235 160.796 185.394 162.212 185.394H198.273C199.69 185.394 200.849 184.235 200.849 182.818V172.515C200.849 171.099 199.69 169.939 198.273 169.939Z" fill="#FFB31F"/>
<path d="M157.062 154.485H121.002C119.585 154.485 118.426 155.644 118.426 157.061V167.364C118.426 168.78 119.585 169.939 121.002 169.939H157.062C158.479 169.939 159.638 168.78 159.638 167.364V157.061C159.638 155.644 158.479 154.485 157.062 154.485Z" fill="#FFB31F"/>
<path d="M198.273 154.485H162.212C160.796 154.485 159.637 155.644 159.637 157.061V167.364C159.637 168.78 160.796 169.939 162.212 169.939H198.273C199.69 169.939 200.849 168.78 200.849 167.364V157.061C200.849 155.644 199.69 154.485 198.273 154.485Z" fill="#FFB31F"/>
<path d="M157.062 139.031H121.002C119.585 139.031 118.426 140.19 118.426 141.606V151.909C118.426 153.326 119.585 154.485 121.002 154.485H157.062C158.479 154.485 159.638 153.326 159.638 151.909V141.606C159.638 140.19 158.479 139.031 157.062 139.031Z" fill="#FFB31F"/>
<path d="M198.273 139.031H162.212C160.796 139.031 159.637 140.19 159.637 141.606V151.909C159.637 153.326 160.796 154.485 162.212 154.485H198.273C199.69 154.485 200.849 153.326 200.849 151.909V141.606C200.849 140.19 199.69 139.031 198.273 139.031Z" fill="#FFB31F"/>
<path d="M157.062 123.576H121.002C119.585 123.576 118.426 124.735 118.426 126.152V136.455C118.426 137.871 119.585 139.03 121.002 139.03H157.062C158.479 139.03 159.638 137.871 159.638 136.455V126.152C159.638 124.735 158.479 123.576 157.062 123.576Z" fill="#FFB31F"/>
<path d="M190.547 84.9395V41.1516H154.487V84.9395H144.184L172.517 113.273L200.85 84.9395H190.547Z" fill="#7CB5E8"/>
<path d="M101.243 101.476H68.6339C64.1263 101.476 60.4688 105.133 60.4688 109.641C60.4688 114.149 64.1263 117.806 68.6339 117.806H101.269C105.776 117.806 109.434 114.149 109.434 109.641C109.408 105.108 105.751 101.476 101.243 101.476Z" fill="#E2E2E2"/>
<g opacity="0.3">
<path d="M101.244 101.476H74.817C74.714 102.017 74.6367 102.609 74.6367 103.202C74.6367 107.709 78.2943 111.367 82.8019 111.367H109.229C109.358 110.8 109.409 110.233 109.409 109.641C109.409 105.108 105.752 101.476 101.244 101.476Z" fill="white"/>
</g>
<path d="M91.9965 101.476H77.8813L69.4844 74.6365H100.393L91.9965 101.476Z" fill="#FF4F4F"/>
<path d="M97.7143 83.2136L91.9961 101.476H99.7491L111.984 83.2136H97.7143Z" fill="#FF4F4F"/>
<path d="M57.8945 83.2136L70.1294 101.476H77.8824L72.1642 83.2136H57.8945Z" fill="#FF4F4F"/>
<path d="M105.418 116.595C104.181 117.342 102.764 117.78 101.245 117.78H68.6357C67.116 117.78 65.6993 117.342 64.463 116.595C51.4811 130.53 41.1523 151.909 41.1523 168.214C41.1523 195.259 57.9205 200.848 84.9402 200.848C111.96 200.848 128.728 195.259 128.728 168.214C128.728 151.909 118.399 130.53 105.418 116.595Z" fill="#FF4F4F"/>
<g opacity="0.3">
<path d="M198.273 139.031H172.516V144.182C172.516 145.599 173.675 146.758 175.091 146.758H200.849V141.606C200.849 140.19 199.69 139.031 198.273 139.031Z" fill="white"/>
<path d="M198.273 154.485H172.516V159.637C172.516 161.053 173.675 162.212 175.091 162.212H200.849V157.061C200.849 155.644 199.69 154.485 198.273 154.485Z" fill="white"/>
<path d="M198.273 169.939H172.516V175.091C172.516 176.508 173.675 177.667 175.091 177.667H200.849V172.515C200.849 171.099 199.69 169.939 198.273 169.939Z" fill="white"/>
<path d="M198.273 185.394H172.516V190.546C172.516 191.962 173.675 193.121 175.091 193.121H200.849V187.97C200.849 186.553 199.69 185.394 198.273 185.394Z" fill="white"/>
<path d="M157.062 154.485H131.305V159.637C131.305 161.053 132.464 162.212 133.88 162.212H159.638V157.061C159.638 155.644 158.479 154.485 157.062 154.485Z" fill="white"/>
<path d="M157.062 139.031H131.305V144.182C131.305 145.599 132.464 146.758 133.88 146.758H159.638V141.606C159.638 140.19 158.479 139.031 157.062 139.031Z" fill="white"/>
<path d="M157.062 123.576H131.305V128.727C131.305 130.144 132.464 131.303 133.88 131.303H159.638V126.152C159.638 124.735 158.479 123.576 157.062 123.576Z" fill="white"/>
<path d="M157.062 169.939H131.305V175.091C131.305 176.508 132.464 177.667 133.88 177.667H159.638V172.515C159.638 171.099 158.479 169.939 157.062 169.939Z" fill="white"/>
<path d="M157.062 185.394H131.305V190.546C131.305 191.962 132.464 193.121 133.88 193.121H159.638V187.97C159.638 186.553 158.479 185.394 157.062 185.394Z" fill="white"/>
</g>
<g opacity="0.3">
<path d="M190.547 84.9395V41.1516H176.586V90.5804C176.586 95.7577 178.518 100.497 181.686 104.103L200.85 84.9395H190.547Z" fill="white"/>
</g>
<g opacity="0.3">
<path d="M100.394 74.6365H80.1489C79.9429 75.641 79.8398 76.6971 79.8398 77.7531C79.8398 86.1501 86.202 93.0274 94.3671 93.8774L100.394 74.6365Z" fill="#E2E2E2"/>
</g>
<path d="M84.9412 184.492C99.1667 184.492 110.699 172.96 110.699 158.735C110.699 144.509 99.1667 132.977 84.9412 132.977C70.7157 132.977 59.1836 144.509 59.1836 158.735C59.1836 172.96 70.7157 184.492 84.9412 184.492Z" fill="#FFB31F"/>
<g opacity="0.3">
<path d="M127.079 180.912C128.135 177.332 128.728 173.133 128.728 168.214C128.728 151.883 118.399 130.505 105.417 116.595C104.181 117.342 102.764 117.78 101.244 117.78H83.3943C78.0625 128.109 74.6367 139.159 74.6367 148.535C74.6367 175.555 91.4049 181.17 118.425 181.17C121.464 181.144 124.323 181.067 127.079 180.912Z" fill="#E2E2E2"/>
</g>
<path d="M84.9415 156.803C82.4688 156.803 80.4339 154.768 80.4339 152.296C80.4339 149.823 82.4688 147.788 84.9415 147.788C87.4143 147.788 89.4491 149.823 89.4491 152.296C89.4491 153.352 90.3249 154.227 91.3809 154.227C92.437 154.227 93.3127 153.352 93.3127 152.296C93.3127 148.355 90.5567 145.058 86.8733 144.182V141.426C86.8733 140.37 85.9976 139.494 84.9415 139.494C83.8855 139.494 83.0097 140.37 83.0097 141.426V144.182C79.3264 145.058 76.5703 148.355 76.5703 152.296C76.5703 156.906 80.3309 160.667 84.9415 160.667C87.4143 160.667 89.4491 162.702 89.4491 165.174C89.4491 167.647 87.4143 169.682 84.9415 169.682C82.4688 169.682 80.4339 167.647 80.4339 165.174C80.4339 164.118 79.5582 163.243 78.5021 163.243C77.4461 163.243 76.5703 164.118 76.5703 165.174C76.5703 169.115 79.3264 172.412 83.0097 173.288V176.044C83.0097 177.1 83.8855 177.976 84.9415 177.976C85.9976 177.976 86.8733 177.1 86.8733 176.044V173.288C90.5567 172.412 93.3127 169.115 93.3127 165.174C93.3127 160.538 89.5521 156.803 84.9415 156.803Z" fill="#F4F9FB"/>
<path d="M179.317 74.6365L168.473 92.6668H165.691L176.535 74.6365H179.317Z" fill="#F4F9FB"/>
<path d="M165.255 74.6365C162.473 74.6365 160.516 76.9547 160.516 80.2774C160.541 84.0637 162.86 85.7637 165.126 85.7637C167.496 85.7637 169.866 84.0122 169.866 80.0456C169.84 76.6971 168.088 74.6365 165.255 74.6365ZM165.178 83.3683C164.817 83.3683 164.56 83.2395 164.276 82.9819C163.735 82.4668 163.452 81.4107 163.478 80.2001C163.478 78.6031 163.993 77.0062 165.178 77.0062C166.697 77.0062 166.852 79.1956 166.852 80.1486C166.852 81.1274 166.697 83.3683 165.178 83.3683Z" fill="#F4F9FB"/>
<path d="M179.962 81.4106C177.154 81.4106 175.223 83.7546 175.223 87.1031C175.248 90.8637 177.567 92.5637 179.833 92.5637C182.177 92.5637 184.547 90.7864 184.547 86.8455C184.547 83.497 182.77 81.4106 179.962 81.4106ZM178.159 87.0258C178.159 85.4288 178.7 83.8319 179.885 83.8319C181.43 83.8319 181.585 86.0213 181.585 86.9743C181.585 87.9531 181.43 90.1682 179.885 90.1682C179.55 90.1682 179.292 90.0652 179.009 89.8076C178.468 89.2667 178.159 88.2364 178.159 87.0258Z" fill="#F4F9FB"/>
<defs>
<filter id="filter0_f_719_6681" x="28" y="170" width="195" height="66" filterUnits="userSpaceOnUse" color-interpolation-filters="sRGB">
<feFlood flood-opacity="0" result="BackgroundImageFix"/>
<feBlend mode="normal" in="SourceGraphic" in2="BackgroundImageFix" result="shape"/>
<feGaussianBlur stdDeviation="15" result="effect1_foregroundBlur_719_6681"/>
</filter>
</defs>
</svg>
