<svg width="242" height="242" viewBox="0 0 242 242" fill="none" xmlns="http://www.w3.org/2000/svg">
<rect width="242" height="242" rx="121" fill="#FFF9ED"/>
<path d="M206.003 142.549C206.003 143.253 205.538 143.97 204.621 144.501L122.011 192.979C120.191 194.041 117.243 194.041 115.436 192.979L67.8622 166.442L67.8356 160.837H67.8223L64.5816 158.832V148.937L39.3735 163.507C38.8555 163.799 38.4172 163.693 38.218 163.295C38.2579 163.427 38.3376 163.534 38.4437 163.6L36.4914 162.458C36.2524 162.312 36.1062 162.02 36.1062 161.608L36.0265 133.278L36 130.702C36 129.746 36.6641 128.617 37.5008 128.125L64.5816 112.493V97.5514C64.5816 95.4263 66.0559 92.8365 67.8755 91.7607L150.486 43.2834C151.402 42.7521 152.239 42.699 152.837 43.0576L155.865 44.8506C156.476 45.1959 156.861 45.9397 156.861 47.0155L156.888 52.8195L185.629 36.231C186.094 35.9653 186.518 35.9387 186.824 36.0982L189.042 37.3864C189.016 37.3731 188.989 37.3598 188.949 37.3598C189.308 37.506 189.533 37.8911 189.533 38.4888L189.547 41.3975L189.653 77.2175C189.653 78.1339 188.989 79.2761 188.179 79.7543L157.007 97.7506L157.034 108.495L157.047 108.482L204.621 136.586C205.551 137.13 205.989 137.847 205.976 138.564L206.003 142.549Z" fill="#BAC1CE"/>
<path d="M54.5206 161.573C52.8226 160.593 50.0793 160.6 48.4049 161.573C47.5641 162.062 47.1456 162.7 47.1464 163.338C47.1464 163.336 47.1455 163.334 47.1455 163.332L47.0313 191.678C47.0294 192.323 47.4562 192.968 48.3106 193.461C50.0086 194.442 52.7393 194.442 54.4264 193.461C55.2597 192.977 55.6792 192.34 55.6811 191.702L55.7953 163.356C55.795 163.444 55.7676 163.531 55.7514 163.618C55.8854 162.89 55.49 162.133 54.5206 161.573ZM47.7399 164.583C47.7848 164.628 47.8156 164.677 47.8658 164.721C47.8156 164.677 47.7849 164.628 47.7399 164.583ZM47.1914 163.612C47.2045 163.681 47.2038 163.75 47.2267 163.818C47.2038 163.75 47.2045 163.681 47.1914 163.612ZM47.3691 164.095C47.4035 164.158 47.4235 164.222 47.4666 164.283C47.4235 164.222 47.4035 164.158 47.3691 164.095ZM54.5406 165.116C54.7494 164.994 54.9321 164.863 55.0889 164.725C54.9321 164.863 54.7494 164.994 54.5406 165.116ZM55.5768 164.104C55.6264 164.012 55.685 163.923 55.7162 163.829C55.6851 163.923 55.6264 164.012 55.5768 164.104ZM55.2141 164.587C55.3096 164.49 55.4096 164.394 55.4809 164.291C55.4097 164.394 55.3096 164.49 55.2141 164.587Z" fill="#BAC1CE"/>
<path d="M64.7355 167.473C63.0374 166.493 60.2942 166.5 58.6197 167.473C57.7789 167.962 57.3604 168.6 57.3614 169.238C57.3614 169.236 57.3603 169.234 57.3603 169.232L57.2461 197.578C57.2442 198.222 57.671 198.868 58.5254 199.361C60.2234 200.342 62.9541 200.342 64.6411 199.361C65.4745 198.877 65.894 198.24 65.8958 197.602L66.01 169.256C66.0098 169.344 65.9822 169.432 65.966 169.52C66.1007 168.791 65.7054 168.033 64.7355 167.473ZM57.9364 170.463C57.9872 170.515 58.0232 170.57 58.0809 170.621C58.0232 170.57 57.9872 170.515 57.9364 170.463ZM57.4045 169.501C57.4178 169.573 57.4175 169.646 57.4417 169.718C57.4175 169.646 57.4178 169.573 57.4045 169.501ZM57.5768 169.981C57.6131 170.049 57.6353 170.118 57.6816 170.183C57.6352 170.118 57.6131 170.049 57.5768 169.981ZM64.7553 171.015C64.9642 170.894 65.147 170.763 65.3039 170.625C65.147 170.763 64.9643 170.894 64.7553 171.015ZM65.7925 170.002C65.8416 169.911 65.9001 169.822 65.931 169.729C65.9 169.822 65.8416 169.911 65.7925 170.002ZM65.4138 170.503C65.5161 170.401 65.6204 170.299 65.6957 170.191C65.6204 170.299 65.5161 170.401 65.4138 170.503Z" fill="#BAC1CE"/>
<path d="M74.962 173.377C73.264 172.397 70.5208 172.404 68.8464 173.377C68.0055 173.866 67.587 174.504 67.5879 175.143C67.5879 175.14 67.5869 175.138 67.5869 175.136L67.4727 203.482C67.4709 204.127 67.8976 204.772 68.7521 205.266C70.4501 206.246 73.1807 206.246 74.8678 205.266C75.7012 204.781 76.1207 204.144 76.1225 203.506L76.2367 175.16C76.2364 175.249 76.2088 175.337 76.1924 175.425C76.3279 174.696 75.9325 173.938 74.962 173.377ZM68.163 176.367C68.2138 176.419 68.2497 176.475 68.3075 176.525C68.2497 176.475 68.2138 176.419 68.163 176.367ZM67.6311 175.405C67.6444 175.478 67.6441 175.551 67.6683 175.622C67.6441 175.551 67.6444 175.478 67.6311 175.405ZM67.8033 175.886C67.8396 175.953 67.8619 176.022 67.9081 176.088C67.8618 176.022 67.8396 175.953 67.8033 175.886ZM74.982 176.92C75.1909 176.798 75.3737 176.667 75.5305 176.529C75.3737 176.667 75.191 176.798 74.982 176.92ZM76.0161 175.912C76.0667 175.819 76.126 175.728 76.1577 175.633C76.126 175.728 76.0667 175.819 76.0161 175.912ZM75.6397 176.408C75.7424 176.306 75.8468 176.204 75.9223 176.095C75.8469 176.204 75.7424 176.306 75.6397 176.408Z" fill="#BAC1CE"/>
<path d="M182.823 192.195L188.016 191.783L187.99 188.635L187.91 184.783L184.404 184.584L184.417 184.571L184.364 180.002L179.636 177.346L175.611 179.258C174.482 178.887 173.234 178.621 171.959 178.475L171.255 175.46L164.627 175.566L164.043 178.74C162.928 178.953 161.878 179.245 160.882 179.63L156.34 177.665L151.718 180.441L151.758 185.023L148.371 185.301L148.424 189.884L148.477 192.274L153.737 192.593L151.97 193.934L151.997 197.069L156.738 199.725L161.918 197.281C162.662 197.507 163.446 197.706 164.256 197.826L165.132 201.598L171.76 201.518L172.424 197.892C173.367 197.773 174.27 197.56 175.186 197.295L180.034 199.406L184.656 196.631L184.629 193.496L182.823 192.195ZM174.323 190.402C171.003 192.394 165.544 192.474 162.157 190.574C161.347 190.123 160.723 189.591 160.298 189.02C160.71 188.462 161.294 187.931 162.078 187.453C165.398 185.474 170.83 185.381 174.23 187.28C175.04 187.745 175.664 188.277 176.09 188.848C175.678 189.405 175.093 189.937 174.323 190.402Z" fill="#BAC1CE"/>
<path d="M199.317 171.196L203.009 170.904L202.996 168.673L202.943 165.924L200.446 165.778L200.419 162.51L197.046 160.624L194.177 161.979C193.367 161.713 192.463 161.527 191.56 161.421L191.069 159.283L186.341 159.349L185.916 161.607C185.119 161.767 184.375 161.966 183.671 162.245L180.431 160.85L177.124 162.829L177.163 166.083V166.096L174.746 166.296L174.786 169.563L174.812 171.263L178.571 171.489L177.309 172.445L177.336 174.689L180.709 176.575L184.402 174.835C184.933 174.995 185.491 175.141 186.075 175.221L186.699 177.917L191.428 177.85L191.892 175.274C192.57 175.181 193.22 175.035 193.858 174.835L197.325 176.35L200.618 174.371L200.605 172.126L199.317 171.196ZM193.247 169.935C190.883 171.356 186.992 171.396 184.574 170.054C183.99 169.722 183.565 169.35 183.259 168.952C183.552 168.54 183.963 168.168 184.521 167.823C186.885 166.415 190.763 166.349 193.181 167.703C193.765 168.035 194.203 168.407 194.509 168.819C194.217 169.217 193.805 169.603 193.247 169.935Z" fill="#BAC1CE"/>
<path d="M155.912 44.8692C155.316 44.5113 154.476 44.5527 153.555 45.1032L70.953 93.5718C69.1246 94.6455 67.6619 97.2334 67.6619 99.367L67.838 160.844L64.5938 158.838V97.5535C64.5938 95.4198 66.0565 92.832 67.8848 91.7582L150.487 43.2897C151.408 42.7528 152.248 42.6978 152.844 43.0556L155.912 44.8692Z" fill="#E4E8F4"/>
<path d="M153.555 45.0979C155.379 44.0272 156.863 44.8864 156.869 47.0173L157.04 108.49L67.8277 160.841L67.6563 99.3682C67.6503 97.2373 69.1242 94.6427 70.9487 93.5721L153.555 45.0979Z" fill="#3F434F"/>
<path d="M71.7227 99.3572C71.72 98.6985 72.4157 97.4812 72.9831 97.1485L152.817 50.3005L152.974 106.11L71.8734 153.7L71.7227 99.3572Z" fill="#FFB31F"/>
<path d="M67.832 160.842L67.8591 166.444L115.433 192.972C117.248 194.046 120.187 194.046 122.015 192.972L204.617 144.503C205.538 143.966 205.999 143.251 205.999 142.549L205.972 138.536C205.972 139.238 205.511 139.94 204.59 140.477L67.832 160.842Z" fill="#BAC1CE"/>
<path d="M67.8438 160.839L115.419 188.939C117.232 190.01 120.179 190.01 122.004 188.94L204.601 140.47C206.434 139.395 206.444 137.659 204.631 136.589L157.056 108.488L67.8438 160.839Z" fill="#E4E8F4"/>
<path d="M81.3111 170.254L81.3047 172.539L83.2607 173.687L83.267 171.402L81.3111 170.254Z" fill="#5B5E71"/>
<path d="M76.3072 167.322L76.3008 169.607L79.7775 171.647L79.7838 169.362L76.3072 167.322Z" fill="#5B5E71"/>
<path d="M72.9751 165.368L72.9688 167.652L74.9247 168.8L74.9311 166.515L72.9751 165.368Z" fill="#5B5E71"/>
<path d="M69.4986 163.324L69.4922 165.608L71.4481 166.756L71.4545 164.472L69.4986 163.324Z" fill="#5B5E71"/>
<path d="M158.99 163.229L141.155 173.771C140.185 174.34 138.991 174.34 138.058 173.771L126.678 167.097C125.633 166.49 125.633 164.973 126.678 164.366L144.476 153.862C145.446 153.293 146.64 153.255 147.61 153.824L158.952 160.498C159.997 161.105 159.997 162.622 158.99 163.229Z" fill="#BAC1CE"/>
<path d="M84.1367 150.666C84.3604 150.534 84.6655 150.554 85.0112 150.747C85.7331 151.164 86.2822 152.181 86.2822 152.994L146.364 118.317C146.364 117.504 145.815 116.487 145.103 116.08C144.758 115.877 144.442 115.867 144.219 115.999L84.1367 150.666Z" fill="#3F434F"/>
<path d="M85.0124 150.749C84.3048 150.34 83.7445 150.712 83.7422 151.525L86.2806 152.99C86.2829 152.177 85.7266 151.161 85.0124 150.749Z" fill="#363A44"/>
<path d="M185.342 127.764L101.39 176.234L76.5273 161.751L160.48 113.281L185.342 127.764Z" fill="#BAC1CE"/>
<path d="M155.418 118.766L157.732 120.11L162.787 117.191L160.474 115.847L155.418 118.766Z" fill="#5B5E71"/>
<path d="M80.9531 161.757L83.2668 163.101L88.3226 160.182L86.009 158.838L80.9531 161.757Z" fill="#5B5E71"/>
<path d="M147.953 123.075L150.267 124.419L155.343 121.489L153.029 120.144L147.953 123.075Z" fill="#5B5E71"/>
<path d="M140.508 127.373L142.821 128.718L147.897 125.787L145.583 124.443L140.508 127.373Z" fill="#5B5E71"/>
<path d="M133.062 131.671L135.376 133.015L140.452 130.085L138.138 128.74L133.062 131.671Z" fill="#5B5E71"/>
<path d="M125.621 135.969L127.935 137.313L133.01 134.383L130.697 133.038L125.621 135.969Z" fill="#5B5E71"/>
<path d="M118.18 140.267L120.493 141.611L125.569 138.681L123.255 137.336L118.18 140.267Z" fill="#5B5E71"/>
<path d="M110.734 144.564L113.048 145.909L118.124 142.979L115.81 141.634L110.734 144.564Z" fill="#5B5E71"/>
<path d="M103.281 148.863L105.595 150.207L110.671 147.277L108.357 145.932L103.281 148.863Z" fill="#5B5E71"/>
<path d="M95.8477 153.161L98.1613 154.505L103.237 151.575L100.923 150.23L95.8477 153.161Z" fill="#5B5E71"/>
<path d="M88.3945 157.459L90.7082 158.803L95.764 155.884L93.4503 154.54L88.3945 157.459Z" fill="#5B5E71"/>
<path d="M85.5039 164.4L87.7977 165.733L167.317 119.823L165.023 118.49L85.5039 164.4Z" fill="#5B5E71"/>
<path d="M90.0312 167.032L92.3452 168.377L171.865 122.466L169.551 121.121L90.0312 167.032Z" fill="#5B5E71"/>
<path d="M94.5859 169.675L96.8996 171.02L176.419 125.109L174.105 123.765L94.5859 169.675Z" fill="#5B5E71"/>
<path d="M99.1289 172.318L101.423 173.651L180.942 127.741L178.648 126.408L99.1289 172.318Z" fill="#5B5E71"/>
<path d="M140.887 66.9097L143.103 68.1988L143.205 104.016C143.205 104.484 143.368 104.809 143.632 104.972L141.415 103.683C141.151 103.52 140.988 103.195 140.988 102.727" fill="#BAC1CE"/>
<path d="M140.988 102.726L140.887 66.9087L140.988 102.726Z" fill="#E4E8F4"/>
<path d="M143.102 68.1891L189.541 41.3921L189.648 77.2119C189.65 78.1368 188.99 79.2799 188.172 79.7521L144.68 104.862C143.875 105.327 143.211 104.949 143.208 104.024L143.102 68.1891Z" fill="#D4DAE8"/>
<path d="M144.707 69.1135L187.947 44.1621L188.046 77.2165C188.047 77.5709 187.687 78.1819 187.371 78.3643L144.807 102.939L144.707 69.1135Z" fill="#E4E8F4"/>
<path d="M187.836 37.5186C188.771 36.9789 189.526 37.4094 189.529 38.4835L189.538 41.3926L143.098 68.2045L143.09 65.2954C143.087 64.2213 143.837 62.9214 144.772 62.3817L187.836 37.5186Z" fill="#F9607F"/>
<path d="M189.048 37.3918C188.742 37.2291 188.315 37.2495 187.848 37.5138L144.779 62.3828C143.844 62.9115 143.092 64.2129 143.092 65.2906L143.112 68.1985L140.895 66.9094L140.875 64.0016C140.875 62.9238 141.627 61.6427 142.563 61.0936L185.631 36.2247C186.099 35.9603 186.526 35.9399 186.831 36.1027L189.048 37.3918Z" fill="#F34858"/>
<path d="M145.019 63.716C145.594 63.384 146.051 63.658 146.053 64.3188C146.055 64.9796 145.601 65.7657 145.026 66.0977C144.451 66.4297 143.994 66.1693 143.992 65.5085C143.99 64.8477 144.444 64.048 145.019 63.716Z" fill="white"/>
<path d="M148.605 61.6411C149.18 61.309 149.637 61.583 149.639 62.2438C149.641 62.9046 149.187 63.6907 148.612 64.0227C148.037 64.3547 147.568 64.1013 147.566 63.4405C147.565 62.7797 148.03 61.9731 148.605 61.6411Z" fill="white"/>
<path d="M152.187 59.5736C152.762 59.2416 153.231 59.5087 153.233 60.1695C153.235 60.8303 152.769 61.6233 152.194 61.9553C151.631 62.2804 151.162 62.0269 151.16 61.3661C151.158 60.7053 151.624 59.8987 152.187 59.5736Z" fill="white"/>
<path d="M160.735 65.9158L160.738 66.8372L147.073 74.7267L147.07 73.8053L160.735 65.9158Z" fill="#CAD0DD"/>
<path d="M157.561 70.3684L157.564 71.2898L147.073 77.3466L147.07 76.4252L157.561 70.3684Z" fill="#CAD0DD"/>
<path d="M157.561 72.9885L157.564 73.91L147.073 79.9668L147.07 79.0453L157.561 72.9885Z" fill="#CAD0DD"/>
<path d="M160.735 63.2153L160.738 64.1368L147.073 72.0262L147.07 71.1048L160.735 63.2153Z" fill="#CAD0DD"/>
<path d="M164.956 70.5871C165.907 70.0382 166.875 69.8862 167.619 70.1561C168.811 70.5755 169.466 71.9231 169.655 73.5401C169.743 74.5641 169.704 75.6616 169.905 76.604C170.12 77.5057 170.689 78.2357 171.581 77.9975C171.756 77.9566 171.932 77.8828 172.106 77.7819C173.021 77.2539 173.902 75.9827 174.434 74.7867C175.082 73.3217 175.404 71.8495 176.023 70.4171C176.91 68.293 178.449 66.2808 180.104 65.065C180.344 64.8907 180.586 64.7332 180.828 64.5934C182.243 63.7765 183.667 63.5543 184.721 64.0441C186.523 64.86 187.14 67.4188 187.501 69.9297C187.862 72.4892 188.04 75.1712 188.048 77.9675L144.797 102.939C145.212 99.621 145.065 97.6216 148.323 92.1581C148.718 91.5066 149.156 90.8795 149.65 90.4147C149.846 90.2391 150.039 90.0989 150.23 89.9886C151.28 89.3825 152.262 89.6834 153.235 89.9901C154.198 90.2942 155.161 90.6096 156.205 90.0067C156.407 89.8905 156.611 89.7403 156.819 89.5493C158.388 88.1061 158.792 85.6094 159.112 83.5681C159.516 81.104 160.231 78.4927 161.216 75.9375C161.75 74.5378 162.384 73.0973 163.359 71.9483C163.853 71.3629 164.402 70.9074 164.956 70.5871Z" fill="#F9BB4A"/>
<path d="M36.0195 133.274L37.9796 134.414L38.0696 162.752C38.0696 163.165 38.2133 163.453 38.4471 163.597L36.487 162.457C36.2533 162.313 36.1094 162.026 36.1094 161.612" fill="#BAC1CE"/>
<path d="M36.1098 161.612L36.0195 133.274L36.1098 161.612Z" fill="#E4E8F4"/>
<path d="M37.9766 134.405L79.0398 110.711L79.1339 139.051C79.1362 139.869 78.5526 140.88 77.8294 141.297L39.3721 163.501C38.6603 163.912 38.073 163.577 38.0706 162.759L37.9766 134.405Z" fill="#D4DAE8"/>
<path d="M39.3945 135.223L77.6286 113.16L77.7158 139.055C77.7172 139.368 77.399 139.909 77.1195 140.07L39.4831 161.799L39.3945 135.223Z" fill="#E4E8F4"/>
<path d="M77.5308 107.285C78.3574 106.808 79.0254 107.189 79.0281 108.139L79.0354 110.711L37.9721 134.419L37.9649 131.846C37.9622 130.897 38.6258 129.747 39.4524 129.27L77.5308 107.285Z" fill="#748BFD"/>
<path d="M78.5994 107.173C78.3297 107.03 77.9522 107.048 77.5385 107.281L39.4563 129.271C38.6293 129.739 37.9639 130.889 37.9639 131.842L37.9819 134.414L36.0219 133.274L36.0039 130.703C36.0039 129.75 36.6692 128.617 37.4963 128.131L75.5785 106.141C75.992 105.908 76.3696 105.89 76.6393 106.034L78.5994 107.173Z" fill="#576CFB"/>
<path d="M39.6776 130.452C40.1861 130.158 40.59 130.401 40.5916 130.985C40.5933 131.569 40.192 132.264 39.6835 132.558C39.1751 132.851 38.7712 132.621 38.7695 132.037C38.7679 131.453 39.1691 130.745 39.6776 130.452Z" fill="white"/>
<path d="M42.8405 128.616C43.349 128.323 43.7529 128.565 43.7545 129.149C43.7562 129.733 43.355 130.428 42.8465 130.722C42.338 131.016 41.9235 130.792 41.9219 130.207C41.9202 129.623 42.332 128.91 42.8405 128.616Z" fill="white"/>
<path d="M46.0214 126.788C46.5298 126.494 46.9443 126.73 46.946 127.315C46.9477 127.899 46.5358 128.6 46.0273 128.894C45.5294 129.181 45.1149 128.957 45.1133 128.373C45.1116 127.788 45.5234 127.075 46.0214 126.788Z" fill="white"/>
<path d="M75.917 136.84L75.9194 137.674L41.0805 157.788L41.0781 156.954L75.917 136.84Z" fill="#CAD0DD"/>
<path d="M75.917 133.706L75.9194 134.539L41.0805 154.654L41.0781 153.82L75.917 133.706Z" fill="#CAD0DD"/>
<path d="M75.917 130.572L75.9194 131.406L41.0805 151.52L41.0781 150.687L75.917 130.572Z" fill="#CAD0DD"/>
<path d="M75.917 127.438L75.9194 128.272L41.0805 148.387L41.0781 147.553L75.917 127.438Z" fill="#CAD0DD"/>
<path d="M75.917 124.303L75.9194 125.137L41.0805 145.252L41.0781 144.418L75.917 124.303Z" fill="#CAD0DD"/>
<path d="M75.917 121.17L75.9194 122.004L41.0805 142.118L41.0781 141.284L75.917 121.17Z" fill="#CAD0DD"/>
<path d="M66.6474 123.388L66.6498 124.222L41.0805 138.984L41.0781 138.15L66.6474 123.388Z" fill="#CAD0DD"/>
<path d="M55.7875 163.356L55.6732 191.702C55.6714 192.34 55.2519 192.977 54.4185 193.461C52.7315 194.442 50.0009 194.442 48.3028 193.461C47.4484 192.968 47.0216 192.322 47.0234 191.678L47.1377 163.332C47.1359 163.977 47.5626 164.622 48.4171 165.116C50.1151 166.096 52.8458 166.096 54.5328 165.116C55.3662 164.631 55.7857 163.994 55.7875 163.356Z" fill="#F9BB4A"/>
<path d="M54.5158 161.574C56.2138 162.554 56.2102 164.143 54.5357 165.116C52.8487 166.096 50.1181 166.096 48.42 165.116C46.722 164.136 46.7131 162.554 48.4001 161.574C50.0745 160.601 52.8177 160.593 54.5158 161.574Z" fill="#FED57A"/>
<path d="M66.0101 169.257L65.8958 197.603C65.894 198.241 65.4745 198.878 64.6411 199.362C62.9541 200.343 60.2234 200.343 58.5255 199.363C57.671 198.869 57.2443 198.224 57.2461 197.579L57.3603 169.233C57.3585 169.878 57.7853 170.523 58.6397 171.017C60.3377 171.997 63.0683 171.997 64.7553 171.017C65.5888 170.532 66.0083 169.895 66.0101 169.257Z" fill="#75CA75"/>
<path d="M64.7384 167.474C66.4364 168.455 66.4327 170.044 64.7583 171.017C63.0713 171.997 60.3406 171.997 58.6427 171.017C56.9446 170.036 56.9357 168.455 58.6227 167.474C60.2972 166.501 63.0404 166.494 64.7384 167.474Z" fill="#9AD898"/>
<path d="M76.2367 175.161L76.1225 203.507C76.1207 204.145 75.7012 204.782 74.8678 205.267C73.1808 206.247 70.4501 206.247 68.7521 205.267C67.8976 204.773 67.4708 204.128 67.4727 203.483L67.5869 175.137C67.5851 175.782 68.0118 176.427 68.8663 176.921C70.5643 177.901 73.295 177.901 74.982 176.921C75.8154 176.436 76.2349 175.8 76.2367 175.161Z" fill="#FA5168"/>
<path d="M74.965 173.379C76.663 174.359 76.6594 175.948 74.9849 176.921C73.298 177.902 70.5673 177.902 68.8692 176.921C67.1712 175.941 67.1623 174.359 68.8493 173.379C70.5237 172.406 73.267 172.398 74.965 173.379Z" fill="#F9607F"/>
<path d="M184.377 179.999L184.426 184.576L181.291 186.978L181.242 182.401L184.377 179.999Z" fill="#F34858"/>
<path d="M155.56 183.182L155.608 187.759L151.767 185.017L151.719 180.44L155.56 183.182Z" fill="#F34858"/>
<path d="M176.774 186.875L176.816 190.801C176.803 189.516 175.939 188.242 174.232 187.287C170.839 185.388 165.4 185.471 162.081 187.459C160.429 188.45 159.611 189.728 159.624 190.996L159.582 187.071C159.569 185.803 160.387 184.524 162.04 183.534C165.358 181.545 170.797 181.463 174.19 183.361C175.897 184.316 176.761 185.591 176.774 186.875Z" fill="#FA5168"/>
<path d="M148.452 189.137L148.482 192.28L148.428 189.885L148.379 185.308L148.452 189.137Z" fill="#E4E8F4"/>
<path d="M187.982 188.634L188.011 191.777L182.533 192.213L182.504 189.07L187.982 188.634Z" fill="#F34858"/>
<path d="M155.001 189.524L155.03 192.667L148.483 192.279L148.453 189.136L155.001 189.524Z" fill="#F34858"/>
<path d="M156.026 190.856L156.075 195.433C155.656 195.014 155.29 194.564 155.049 194.101L155 189.524C155.241 189.987 155.607 190.437 156.026 190.856Z" fill="#FA5168"/>
<path d="M182.508 189.071L182.557 193.647C182.23 194.304 181.741 194.911 181.127 195.509L181.078 190.932C181.692 190.334 182.181 189.727 182.508 189.071Z" fill="#FA5168"/>
<path d="M164.228 194.689L164.258 197.832C163.451 197.708 162.661 197.512 161.924 197.284L161.895 194.141C162.632 194.369 163.422 194.565 164.228 194.689Z" fill="#FA5168"/>
<path d="M175.157 194.148L175.186 197.291C174.28 197.562 173.373 197.771 172.428 197.898L172.398 194.755C173.343 194.628 174.25 194.419 175.157 194.148Z" fill="#FA5168"/>
<path d="M184.629 193.492L184.658 196.635L180.029 199.409L180 196.266L184.629 193.492Z" fill="#FA5168"/>
<path d="M180 196.267L180.029 199.41L175.182 197.291L175.152 194.148L180 196.267Z" fill="#F34858"/>
<path d="M156.709 196.581L156.738 199.724L152.006 197.076L151.977 193.933L156.709 196.581Z" fill="#FA5168"/>
<path d="M161.896 194.141L161.926 197.284L156.736 199.724L156.707 196.581L161.896 194.141Z" fill="#F34858"/>
<path d="M172.39 194.754L172.419 197.897L171.756 201.518L171.727 198.376L172.39 194.754Z" fill="#F34858"/>
<path d="M165.103 198.454L165.132 201.597L164.256 197.831L164.227 194.688L165.103 198.454Z" fill="#F34858"/>
<path d="M180.003 196.266L175.156 194.148C174.25 194.419 173.342 194.628 172.398 194.754L171.734 198.375L165.106 198.454L164.23 194.688C163.424 194.565 162.633 194.368 161.896 194.14L156.707 196.581L151.975 193.933L156.026 190.856C155.607 190.437 155.241 189.987 155 189.524L148.452 189.136L148.379 185.308L154.588 184.789C154.792 184.248 155.103 183.706 155.558 183.182L151.717 180.44L156.346 177.666L160.886 179.633C161.88 179.247 162.928 178.953 164.05 178.742L164.633 175.567L171.261 175.467L171.961 178.48C173.233 178.618 174.489 178.891 175.622 179.258L179.642 177.351L184.374 179.999L181.239 182.401C181.913 183.044 182.427 183.762 182.709 184.493L187.915 184.785L187.988 188.634L182.51 189.07C182.183 189.727 181.695 190.334 181.081 190.932L184.632 193.492L180.003 196.266ZM162.159 190.572C165.551 192.47 171.006 192.396 174.325 190.407C177.643 188.419 177.583 185.259 174.19 183.361C170.797 181.463 165.358 181.545 162.039 183.534C158.721 185.523 158.766 188.673 162.159 190.572Z" fill="#F9607F"/>
<path d="M171.734 198.375L171.763 201.518L165.135 201.597L165.105 198.455L171.734 198.375Z" fill="#FA5168"/>
<path d="M200.415 162.509L200.45 165.773L198.214 167.486L198.18 164.222L200.415 162.509Z" fill="#282723"/>
<path d="M179.868 164.779L179.903 168.043L177.164 166.087L177.129 162.823L179.868 164.779Z" fill="#282723"/>
<path d="M194.999 167.413L195.029 170.212C195.019 169.296 194.403 168.387 193.185 167.706C190.766 166.352 186.887 166.411 184.521 167.829C183.342 168.536 182.759 169.447 182.768 170.352L182.738 167.552C182.729 166.648 183.312 165.736 184.491 165.03C186.857 163.612 190.736 163.553 193.156 164.907C194.373 165.588 194.989 166.497 194.999 167.413Z" fill="#282723"/>
<path d="M174.798 169.025L174.819 171.266L174.781 169.559L174.746 166.295L174.798 169.025Z" fill="#E4E8F4"/>
<path d="M202.988 168.667L203.009 170.908L199.103 171.219L199.082 168.978L202.988 168.667Z" fill="#282723"/>
<path d="M179.47 169.302L179.491 171.543L174.822 171.266L174.801 169.025L179.47 169.302Z" fill="#282723"/>
<path d="M180.204 170.252L180.239 173.516C179.94 173.217 179.679 172.896 179.507 172.566L179.473 169.302C179.645 169.632 179.906 169.953 180.204 170.252Z" fill="#282723"/>
<path d="M199.086 168.978L199.121 172.242C198.888 172.71 198.539 173.143 198.101 173.57L198.066 170.306C198.504 169.879 198.853 169.446 199.086 168.978Z" fill="#282723"/>
<path d="M186.047 172.985L186.068 175.226C185.493 175.138 184.929 174.998 184.404 174.835L184.383 172.594C184.908 172.757 185.472 172.897 186.047 172.985Z" fill="#282723"/>
<path d="M193.846 172.599L193.867 174.84C193.221 175.033 192.574 175.182 191.9 175.273L191.879 173.031C192.553 172.941 193.2 172.792 193.846 172.599Z" fill="#282723"/>
<path d="M200.602 172.131L200.623 174.373L197.322 176.351L197.301 174.11L200.602 172.131Z" fill="#282723"/>
<path d="M197.301 174.11L197.322 176.351L193.865 174.84L193.844 172.599L197.301 174.11Z" fill="#282723"/>
<path d="M180.683 174.334L180.704 176.575L177.33 174.687L177.309 172.446L180.683 174.334Z" fill="#282723"/>
<path d="M184.384 172.594L184.405 174.835L180.705 176.575L180.684 174.334L184.384 172.594Z" fill="#282723"/>
<path d="M191.875 173.032L191.896 175.273L191.423 177.855L191.402 175.614L191.875 173.032Z" fill="#282723"/>
<path d="M186.672 175.67L186.693 177.912L186.068 175.226L186.047 172.985L186.672 175.67Z" fill="#282723"/>
<path d="M197.298 174.11L193.842 172.599C193.195 172.793 192.548 172.942 191.875 173.032L191.402 175.614L186.675 175.671L186.05 172.985C185.475 172.897 184.911 172.757 184.386 172.594L180.685 174.334L177.31 172.446L180.199 170.252C179.901 169.953 179.64 169.632 179.468 169.302L174.798 169.026L174.746 166.295L179.174 165.926C179.319 165.54 179.541 165.153 179.865 164.78L177.126 162.824L180.427 160.845L183.666 162.248C184.374 161.973 185.122 161.764 185.922 161.613L186.337 159.348L191.064 159.277L191.563 161.426C192.47 161.524 193.366 161.719 194.174 161.981L197.041 160.621L200.415 162.509L198.18 164.222C198.66 164.681 199.027 165.193 199.228 165.714L202.94 165.922L202.993 168.667L199.086 168.978C198.853 169.446 198.505 169.879 198.067 170.306L200.599 172.132L197.298 174.11ZM184.573 170.049C186.992 171.403 190.882 171.35 193.249 169.932C195.615 168.514 195.572 166.261 193.153 164.907C190.733 163.553 186.854 163.612 184.488 165.03C182.121 166.448 182.153 168.695 184.573 170.049Z" fill="#5E5B50"/>
<path d="M191.406 175.614L191.427 177.855L186.701 177.911L186.68 175.67L191.406 175.614Z" fill="#282723"/>
<path d="M108.734 100.952C109.871 100.295 111.067 100.262 111.543 101.346C111.762 101.861 111.791 102.517 111.793 103.251L111.795 103.845C111.815 106.024 111.835 108.281 112.48 109.943C113.083 111.519 114.612 112.702 116.515 111.603C116.922 111.367 117.235 111.093 117.465 110.788C117.764 110.397 117.98 109.865 118.156 109.372C118.561 108.293 118.898 107.176 119.209 106.105C119.411 105.425 119.6 104.768 119.816 104.096C120.558 101.79 121.356 100.093 122.347 98.7231C123.074 97.7203 123.905 96.9445 124.697 96.4869C125.352 96.1088 125.982 95.9479 126.506 96.056C127.35 96.2254 127.829 96.9973 128.28 97.738C128.527 98.1434 128.786 98.5566 129.1 98.8603C129.469 99.2264 129.946 99.4359 130.491 99.4813C130.839 99.4974 131.151 99.426 131.421 99.2702C131.52 99.2128 131.614 99.1441 131.702 99.0639L131.908 99.7897C131.759 99.9257 131.601 100.042 131.437 100.136C131.034 100.369 130.591 100.475 130.126 100.443C129.486 100.406 128.927 100.149 128.49 99.7289C128.149 99.3941 127.875 98.9575 127.615 98.5287C127.178 97.827 126.767 97.1564 126.086 97.0178C125.669 96.9308 125.197 97.066 124.724 97.3393C124.022 97.7442 123.318 98.4522 122.784 99.1905C121.916 100.396 121.185 101.944 120.51 104.055C120.294 104.711 120.105 105.368 119.903 106.032C119.579 107.142 119.256 108.268 118.823 109.409C118.593 110.027 118.309 110.692 117.875 111.271C117.523 111.756 117.074 112.156 116.544 112.462C114.233 113.796 112.487 112.504 111.76 110.64C111.088 108.869 111.068 106.549 111.048 104.292L111.032 103.707C111.03 103.05 111.015 102.465 110.837 102.083C110.49 101.281 109.576 101.335 108.712 101.834C108.483 101.966 108.257 102.13 108.046 102.317C107.109 103.171 106.201 104.54 105.267 106.519C103.562 110.163 102.511 114.024 101.486 117.76L101.015 119.488C100.786 120.324 100.529 121.129 100.014 121.849C99.6071 122.428 99.1316 122.797 98.751 123.048C98.5608 123.173 98.3705 123.299 98.1802 123.408C95.2575 125.096 92.4505 124.338 91.5029 121.49C91.3793 121.124 91.2829 120.71 91.1864 120.312C91.0348 119.664 90.8969 119.055 90.6369 118.595C90.0142 117.447 88.6251 117.308 87.2562 118.098C86.8499 118.333 86.4454 118.649 86.0632 119.045L85.7891 118.39C86.2523 117.911 86.7426 117.528 87.2344 117.245C88.8901 116.289 90.5663 116.451 91.3155 117.828C91.6166 118.358 91.7683 119.037 91.9199 119.685C92.0027 120.075 92.0991 120.458 92.2227 120.809C93.0494 123.333 95.6179 124.022 98.1931 122.536C98.3558 122.442 98.5182 122.339 98.6806 122.228C98.966 122.032 99.3193 121.765 99.5769 121.397C99.916 120.92 100.118 120.271 100.307 119.583L100.779 117.872C101.816 114.065 102.894 110.141 104.667 106.349C105.696 104.159 106.726 102.61 107.854 101.599C108.133 101.345 108.432 101.127 108.734 100.952Z" fill="#282723"/>
<path d="M83.4625 100.878L83.5409 138.023L139.361 105.796L139.363 106.671L82.7957 139.33L82.7148 101.309L83.4625 100.878Z" fill="#282723"/>
<path d="M86.1915 117.147C85.5246 117.532 84.9549 118.518 84.957 119.285C84.9593 120.088 85.5327 120.378 86.1995 119.993C86.8982 119.59 87.4364 118.658 87.4341 117.855C87.4319 117.088 86.8901 116.743 86.1915 117.147Z" fill="#4C7891"/>
<path d="M119.543 104.568C118.876 104.953 118.306 105.94 118.309 106.707C118.311 107.509 118.884 107.8 119.551 107.415C120.25 107.011 120.788 106.079 120.786 105.276C120.783 104.51 120.242 104.165 119.543 104.568Z" fill="#5B5E71"/>
<path d="M131.621 98.0783C130.954 98.4633 130.385 99.4501 130.387 100.217C130.389 101.019 130.962 101.31 131.629 100.925C132.328 100.521 132.866 99.5892 132.864 98.7864C132.862 98.02 132.32 97.6749 131.621 98.0783Z" fill="#FA5168"/>
<path d="M99.7579 120.167C99.091 120.552 98.5213 121.539 98.5234 122.305C98.5257 123.108 99.0991 123.399 99.7659 123.014C100.465 122.61 101.003 121.678 101.001 120.875C100.998 120.109 100.457 119.764 99.7579 120.167Z" fill="#E141EF"/>
<path d="M110.891 100.079C110.224 100.464 109.654 101.451 109.656 102.218C109.659 103.02 110.232 103.311 110.899 102.926C111.597 102.522 112.136 101.59 112.133 100.787C112.131 100.021 111.589 99.6759 110.891 100.079Z" fill="#75CA75"/>
<path d="M115.186 79.7688L115.224 93.3954L113.101 94.6213L113.062 80.9947L115.186 79.7688Z" fill="#FA5168"/>
<path d="M119.771 80.6021L119.799 90.7598L117.662 91.994L117.633 81.8363L119.771 80.6021Z" fill="#748BFD"/>
<path d="M124.299 74.5061L124.338 88.1327L122.214 89.3586L122.176 75.732L124.299 74.5061Z" fill="#4C7891"/>
<path d="M128.872 75.3396L128.901 85.4973L126.763 86.7316L126.734 76.5738L128.872 75.3396Z" fill="#75CA75"/>
<path d="M133.424 69.2441L133.463 82.8707L131.339 84.0966L131.301 70.47L133.424 69.2441Z" fill="#E141EF"/>
<path d="M137.998 71.2231L138.024 80.2356L135.901 81.4615L135.875 72.449L137.998 71.2231Z" fill="#BAC1CE"/>
<g filter="url(#filter0_f_719_6601)">
<ellipse cx="125.5" cy="203" rx="67.5" ry="3" fill="#565252"/>
</g>
<defs>
<filter id="filter0_f_719_6601" x="28" y="170" width="195" height="66" filterUnits="userSpaceOnUse" color-interpolation-filters="sRGB">
<feFlood flood-opacity="0" result="BackgroundImageFix"/>
<feBlend mode="normal" in="SourceGraphic" in2="BackgroundImageFix" result="shape"/>
<feGaussianBlur stdDeviation="15" result="effect1_foregroundBlur_719_6601"/>
</filter>
</defs>
</svg>
