<svg width="426" height="1186" viewBox="0 0 426 1186" fill="none" xmlns="http://www.w3.org/2000/svg">
<mask id="mask0" mask-type="alpha" maskUnits="userSpaceOnUse" x="0" y="0" width="426" height="1186">
<rect width="426" height="1186" fill="#F55523"/>
</mask>
<g mask="url(#mask0)">
<rect width="426" height="1186" fill="#F55523"/>
<path opacity="0.12" fill-rule="evenodd" clip-rule="evenodd" d="M817 355.971V271.265L362.653 58.7407C334.146 45.7193 301.187 45.7194 272.544 58.9442L-119.996 239.932L-162.18 259.78C-174.75 265.635 -183 278.544 -183 292.424V567.524C-183 581.404 -174.75 594.312 -162.18 600.167L-129.107 615.766C-128.29 616.202 -127.521 616.619 -126.787 617.018C-124.595 618.207 -122.707 619.231 -120.742 620.128L275.573 807.492C307.358 821.915 338.035 820.4 361.772 803.378C384.016 787.327 396.585 759.453 393.872 732.257C391.069 703.072 371.876 679.109 339.888 664.686L-11.0101 498.687C-20.3466 494.211 -26.3148 484.783 -26.3148 474.475V386.332C-26.3148 375.91 -20.2342 366.37 -10.8072 362.053L306.929 215.539C313.96 212.284 322.097 212.284 329.151 215.539L754.764 414.952L817 355.971ZM817 893.489V618.503C817 604.51 808.884 591.715 796.292 585.769L763.105 570.238C759.986 568.407 757.364 567.119 754.764 565.921L358.426 378.421C326.754 364.111 296.078 365.536 272.318 382.649C250.096 398.586 237.413 426.46 240.103 453.792C243.042 482.841 262.235 506.827 294.111 521.227L645.122 687.362C654.345 691.702 660.404 701.243 660.404 711.529V799.604C660.404 810.003 654.346 819.565 644.919 823.883L327.184 970.374C320.131 973.63 312.015 973.63 304.985 970.487L-120.651 771.074L-183 829.965V914.74L271.345 1127.17C299.988 1140.31 332.949 1140.19 361.569 1126.97L754.108 946.094L796.292 926.246C808.884 920.3 817 907.483 817 893.489Z" fill="white"/>
</g>
</svg>
