<svg width="64" height="74" viewBox="0 0 64 74" fill="none" xmlns="http://www.w3.org/2000/svg">
<path d="M32.0007 1.4897e-07C25.6713 -0.000611712 19.4838 1.88361 14.2208 5.41437C8.95776 8.94514 4.85556 13.9639 2.43296 19.8359C0.0103714 25.7079 -0.623805 32.1694 0.610633 38.4034C1.84507 44.6374 4.89268 50.3637 9.36805 54.8583C13.8434 59.3529 19.5456 62.4139 25.7533 63.6541C31.9611 64.8943 38.3957 64.2581 44.2434 61.8259C50.0911 59.3937 55.0892 55.2748 58.6057 49.99C62.1223 44.7052 63.9992 38.4919 63.9992 32.1359C63.9992 23.6135 60.628 15.44 54.6272 9.41348C48.6265 3.38692 40.4875 0.00082056 32.0007 1.4897e-07Z" fill="white"/>
<path d="M50.0673 18.4021H54.9323V47.9146H50.0673L40.1779 30.4554V21.2453L50.0673 38.7445V18.4021ZM33.678 47.9146V18.4021H38.5429V47.9146H33.678Z" fill="#E49D35"/>
<path d="M18.6109 44.2903L24.2556 18.5398H26.1505V29.3502L21.7558 48.5415H15.4257L7.88608 18.5398H13.3695L18.6109 44.2903ZM40.6653 18.5398H46.1487L38.1253 48.5415H31.8355L27.8036 30.1194V18.5398H29.7389L34.9804 44.2903L40.6653 18.5398Z" fill="#020B3B"/>
<path d="M10.2286 73.8689L8.65114 68.0755H9.36102L10.5667 72.794H10.623L11.8512 68.0755H12.64L13.8682 72.794H13.9245L15.1302 68.0755H15.8401L14.2626 73.8689H13.5414L12.2681 69.2523H12.2231L10.9498 73.8689H10.2286Z" fill="white"/>
<path d="M22.2652 70.9722C22.2652 71.5833 22.1553 72.1113 21.9356 72.5564C21.7159 73.0014 21.4145 73.3447 21.0314 73.5861C20.6483 73.8274 20.2107 73.9481 19.7187 73.9481C19.2266 73.9481 18.789 73.8274 18.4059 73.5861C18.0228 73.3447 17.7214 73.0014 17.5017 72.5564C17.282 72.1113 17.1721 71.5833 17.1721 70.9722C17.1721 70.3612 17.282 69.8332 17.5017 69.3881C17.7214 68.943 18.0228 68.5998 18.4059 68.3584C18.789 68.117 19.2266 67.9963 19.7187 67.9963C20.2107 67.9963 20.6483 68.117 21.0314 68.3584C21.4145 68.5998 21.7159 68.943 21.9356 69.3881C22.1553 69.8332 22.2652 70.3612 22.2652 70.9722ZM21.5891 70.9722C21.5891 70.4706 21.5056 70.0472 21.3384 69.7021C21.1732 69.357 20.9487 69.0958 20.6652 68.9185C20.3835 68.7413 20.068 68.6526 19.7187 68.6526C19.3693 68.6526 19.0529 68.7413 18.7693 68.9185C18.4876 69.0958 18.2632 69.357 18.0961 69.7021C17.9308 70.0472 17.8482 70.4706 17.8482 70.9722C17.8482 71.4739 17.9308 71.8973 18.0961 72.2424C18.2632 72.5875 18.4876 72.8487 18.7693 73.026C19.0529 73.2032 19.3693 73.2919 19.7187 73.2919C20.068 73.2919 20.3835 73.2032 20.6652 73.026C20.9487 72.8487 21.1732 72.5875 21.3384 72.2424C21.5056 71.8973 21.5891 71.4739 21.5891 70.9722Z" fill="white"/>
<path d="M23.8239 73.8689V68.0755H25.7732C26.2239 68.0755 26.5939 68.1529 26.8831 68.3075C27.1723 68.4603 27.3864 68.6705 27.5254 68.9383C27.6644 69.2061 27.7338 69.5107 27.7338 69.852C27.7338 70.1934 27.6644 70.4961 27.5254 70.7601C27.3864 71.0241 27.1733 71.2315 26.8859 71.3824C26.5986 71.5314 26.2315 71.6059 25.7845 71.6059H24.207V70.9722H25.762C26.0699 70.9722 26.3178 70.927 26.5056 70.8365C26.6953 70.7459 26.8324 70.6177 26.9169 70.4517C27.0033 70.2839 27.0465 70.084 27.0465 69.852C27.0465 69.6201 27.0033 69.4173 26.9169 69.2438C26.8305 69.0703 26.6925 68.9364 26.5028 68.8421C26.3131 68.746 26.0624 68.6979 25.7507 68.6979H24.5225V73.8689H23.8239ZM26.5394 71.2664L27.9592 73.8689H27.1479L25.7507 71.2664H26.5394Z" fill="white"/>
<path d="M29.5557 73.8689V68.0755H30.2543V70.9496H30.3219L32.9136 68.0755H33.8263L31.4037 70.6894L33.8263 73.8689H32.9812L30.9755 71.1759L30.2543 71.9906V73.8689H29.5557Z" fill="white"/>
<path d="M39.8281 68.0755V73.8689H39.152L36.0083 69.3202H35.9519V73.8689H35.2533V68.0755H35.9294L39.0844 72.6356H39.1407V68.0755H39.8281Z" fill="white"/>
<path d="M46.4013 70.9722C46.4013 71.5833 46.2914 72.1113 46.0717 72.5564C45.852 73.0014 45.5506 73.3447 45.1675 73.5861C44.7843 73.8274 44.3468 73.9481 43.8547 73.9481C43.3627 73.9481 42.9251 73.8274 42.542 73.5861C42.1589 73.3447 41.8575 73.0014 41.6378 72.5564C41.4181 72.1113 41.3082 71.5833 41.3082 70.9722C41.3082 70.3612 41.4181 69.8332 41.6378 69.3881C41.8575 68.943 42.1589 68.5998 42.542 68.3584C42.9251 68.117 43.3627 67.9963 43.8547 67.9963C44.3468 67.9963 44.7843 68.117 45.1675 68.3584C45.5506 68.5998 45.852 68.943 46.0717 69.3881C46.2914 69.8332 46.4013 70.3612 46.4013 70.9722ZM45.7252 70.9722C45.7252 70.4706 45.6416 70.0472 45.4745 69.7021C45.3092 69.357 45.0848 69.0958 44.8013 68.9185C44.5196 68.7413 44.204 68.6526 43.8547 68.6526C43.5054 68.6526 43.189 68.7413 42.9054 68.9185C42.6237 69.0958 42.3993 69.357 42.2322 69.7021C42.0669 70.0472 41.9843 70.4706 41.9843 70.9722C41.9843 71.4739 42.0669 71.8973 42.2322 72.2424C42.3993 72.5875 42.6237 72.8487 42.9054 73.026C43.189 73.2032 43.5054 73.2919 43.8547 73.2919C44.204 73.2919 44.5196 73.2032 44.8013 73.026C45.0848 72.8487 45.3092 72.5875 45.4745 72.2424C45.6416 71.8973 45.7252 71.4739 45.7252 70.9722Z" fill="white"/>
<path d="M49.0049 73.8689L47.4273 68.0755H48.1372L49.3429 72.794H49.3992L50.6274 68.0755H51.4162L52.6444 72.794H52.7007L53.9064 68.0755H54.6163L53.0388 73.8689H52.3176L51.0443 69.2523H50.9993L49.726 73.8689H49.0049Z" fill="white"/>
</svg>
