<svg width="24" height="24" viewBox="0 0 24 24" fill="none" xmlns="http://www.w3.org/2000/svg">
<mask id="mask0_5479_30363" style="mask-type:alpha" maskUnits="userSpaceOnUse" x="2" y="14" width="16" height="8">
<path fill-rule="evenodd" clip-rule="evenodd" d="M2 14.4551H17.754V21.794H2V14.4551Z" fill="white"/>
</mask>
<g mask="url(#mask0_5479_30363)">
<path fill-rule="evenodd" clip-rule="evenodd" d="M9.877 15.9551C5.646 15.9551 3.5 16.6821 3.5 18.1141C3.5 19.5601 5.646 20.2941 9.877 20.2941C14.108 20.2941 16.254 19.5671 16.254 18.1361C16.254 16.6881 14.108 15.9551 9.877 15.9551ZM9.877 21.7941C7.929 21.7941 2 21.7941 2 18.1141C2 14.8341 6.495 14.4551 9.877 14.4551C11.825 14.4551 17.754 14.4551 17.754 18.1361C17.754 21.4151 13.259 21.7941 9.877 21.7941Z" fill="#0085FF"/>
</g>
<path fill-rule="evenodd" clip-rule="evenodd" d="M9.87563 3.5C7.77163 3.5 6.05863 5.213 6.05863 7.318C6.05463 8.337 6.44663 9.292 7.16163 10.013C7.87763 10.733 8.83163 11.132 9.84763 11.136L9.87563 11.886V11.136C11.9806 11.136 13.6936 9.423 13.6936 7.318C13.6936 5.213 11.9806 3.5 9.87563 3.5ZM9.87563 12.636H9.84463C8.42563 12.631 7.09563 12.074 6.09863 11.07C5.10063 10.065 4.55363 8.731 4.55863 7.315C4.55863 4.386 6.94363 2 9.87563 2C12.8086 2 15.1936 4.386 15.1936 7.318C15.1936 10.25 12.8086 12.636 9.87563 12.636Z" fill="#0085FF"/>
<path fill-rule="evenodd" clip-rule="evenodd" d="M19.2031 13.429C18.7891 13.429 18.4531 13.093 18.4531 12.679V8.66797C18.4531 8.25397 18.7891 7.91797 19.2031 7.91797C19.6171 7.91797 19.9531 8.25397 19.9531 8.66797V12.679C19.9531 13.093 19.6171 13.429 19.2031 13.429Z" fill="#0085FF"/>
<path fill-rule="evenodd" clip-rule="evenodd" d="M21.2502 11.4238H17.1602C16.7462 11.4238 16.4102 11.0878 16.4102 10.6738C16.4102 10.2598 16.7462 9.92383 17.1602 9.92383H21.2502C21.6642 9.92383 22.0002 10.2598 22.0002 10.6738C22.0002 11.0878 21.6642 11.4238 21.2502 11.4238Z" fill="#0085FF"/>
</svg>
