<svg width="24" height="24" viewBox="0 0 24 24" fill="none" xmlns="http://www.w3.org/2000/svg">
<path d="M20.7083 4H3.29167C2.6841 4.00075 2.10163 4.24889 1.67202 4.68999C1.2424 5.13109 1.00073 5.72913 1 6.35294L1 12.9412C1.00073 13.565 1.2424 14.163 1.67202 14.6041C2.10163 15.0452 2.6841 15.2934 3.29167 15.2941H20.7083C21.3159 15.2934 21.8984 15.0452 22.328 14.6041C22.7576 14.163 22.9993 13.565 23 12.9412V6.35294C22.9993 5.72913 22.7576 5.13109 22.328 4.68999C21.8984 4.24889 21.3159 4.00075 20.7083 4ZM5.125 14.3529V12.9412C5.125 12.8164 5.17329 12.6967 5.25924 12.6084C5.3452 12.5202 5.46178 12.4706 5.58333 12.4706H18.4167C18.5382 12.4706 18.6548 12.5202 18.7408 12.6084C18.8267 12.6967 18.875 12.8164 18.875 12.9412V14.3529H5.125ZM22.0833 12.9412C22.0833 13.3156 21.9385 13.6747 21.6806 13.9394C21.4227 14.2042 21.073 14.3529 20.7083 14.3529H19.7917V12.9412C19.7917 12.5668 19.6468 12.2077 19.3889 11.9429C19.1311 11.6782 18.7813 11.5294 18.4167 11.5294H5.58333C5.21866 11.5294 4.86892 11.6782 4.61106 11.9429C4.3532 12.2077 4.20833 12.5668 4.20833 12.9412V14.3529H3.29167C2.92699 14.3529 2.57726 14.2042 2.31939 13.9394C2.06153 13.6747 1.91667 13.3156 1.91667 12.9412V6.35294C1.91667 5.97852 2.06153 5.61943 2.31939 5.35467C2.57726 5.08992 2.92699 4.94118 3.29167 4.94118H20.7083C21.073 4.94118 21.4227 5.08992 21.6806 5.35467C21.9385 5.61943 22.0833 5.97852 22.0833 6.35294V12.9412Z" fill="#5E5B50" stroke="#5E5B50" stroke-width="0.5"/>
<path d="M5.58268 6.35303H3.74935C3.62779 6.35303 3.51121 6.40261 3.42526 6.49086C3.3393 6.57911 3.29102 6.69881 3.29102 6.82362C3.29102 6.94842 3.3393 7.06812 3.42526 7.15637C3.51121 7.24462 3.62779 7.2942 3.74935 7.2942H5.58268C5.70424 7.2942 5.82082 7.24462 5.90677 7.15637C5.99273 7.06812 6.04102 6.94842 6.04102 6.82362C6.04102 6.69881 5.99273 6.57911 5.90677 6.49086C5.82082 6.40261 5.70424 6.35303 5.58268 6.35303Z" fill="#5E5B50" stroke="#5E5B50" stroke-width="0.5"/>
<path d="M20.2493 7.2942C20.5025 7.2942 20.7077 7.08351 20.7077 6.82362C20.7077 6.56372 20.5025 6.35303 20.2493 6.35303C19.9962 6.35303 19.791 6.56372 19.791 6.82362C19.791 7.08351 19.9962 7.2942 20.2493 7.2942Z" fill="#5E5B50" stroke="#5E5B50" stroke-width="0.5"/>
<path d="M18.4154 7.2942C18.6685 7.2942 18.8737 7.08351 18.8737 6.82362C18.8737 6.56372 18.6685 6.35303 18.4154 6.35303C18.1622 6.35303 17.957 6.56372 17.957 6.82362C17.957 7.08351 18.1622 7.2942 18.4154 7.2942Z" fill="#5E5B50" stroke="#5E5B50" stroke-width="0.5"/>
<path d="M5.58138 16.2354C5.45982 16.2354 5.34324 16.2849 5.25729 16.3732C5.17134 16.4614 5.12305 16.5811 5.12305 16.7059V18.5883C5.12305 18.7131 5.17134 18.8328 5.25729 18.921C5.34324 19.0093 5.45982 19.0589 5.58138 19.0589C5.70294 19.0589 5.81952 19.0093 5.90547 18.921C5.99142 18.8328 6.03971 18.7131 6.03971 18.5883V16.7059C6.03971 16.5811 5.99142 16.4614 5.90547 16.3732C5.81952 16.2849 5.70294 16.2354 5.58138 16.2354Z" fill="#5E5B50" stroke="#5E5B50" stroke-width="0.5"/>
<path d="M7.41732 16.2354C7.29576 16.2354 7.17918 16.2849 7.09323 16.3732C7.00727 16.4614 6.95898 16.5811 6.95898 16.7059V19.5295C6.95898 19.6543 7.00727 19.774 7.09323 19.8622C7.17918 19.9505 7.29576 20.0001 7.41732 20.0001C7.53888 20.0001 7.65545 19.9505 7.74141 19.8622C7.82736 19.774 7.87565 19.6543 7.87565 19.5295V16.7059C7.87565 16.5811 7.82736 16.4614 7.74141 16.3732C7.65545 16.2849 7.53888 16.2354 7.41732 16.2354Z" fill="#5E5B50" stroke="#5E5B50" stroke-width="0.5"/>
<path d="M9.24935 16.2354C9.12779 16.2354 9.01121 16.2849 8.92526 16.3732C8.8393 16.4614 8.79102 16.5811 8.79102 16.7059V18.1177C8.79102 18.2425 8.8393 18.3622 8.92526 18.4505C9.01121 18.5387 9.12779 18.5883 9.24935 18.5883C9.37091 18.5883 9.48749 18.5387 9.57344 18.4505C9.65939 18.3622 9.70768 18.2425 9.70768 18.1177V16.7059C9.70768 16.5811 9.65939 16.4614 9.57344 16.3732C9.48749 16.2849 9.37091 16.2354 9.24935 16.2354Z" fill="#5E5B50" stroke="#5E5B50" stroke-width="0.5"/>
<path d="M14.7513 16.2354C14.6297 16.2354 14.5132 16.2849 14.4272 16.3732C14.3413 16.4614 14.293 16.5811 14.293 16.7059V18.5883C14.293 18.7131 14.3413 18.8328 14.4272 18.921C14.5132 19.0093 14.6297 19.0589 14.7513 19.0589C14.8729 19.0589 14.9894 19.0093 15.0754 18.921C15.1613 18.8328 15.2096 18.7131 15.2096 18.5883V16.7059C15.2096 16.5811 15.1613 16.4614 15.0754 16.3732C14.9894 16.2849 14.8729 16.2354 14.7513 16.2354Z" fill="#5E5B50" stroke="#5E5B50" stroke-width="0.5"/>
<path d="M16.5833 16.2354C16.4618 16.2354 16.3452 16.2849 16.2592 16.3732C16.1733 16.4614 16.125 16.5811 16.125 16.7059V19.5295C16.125 19.6543 16.1733 19.774 16.2592 19.8622C16.3452 19.9505 16.4618 20.0001 16.5833 20.0001C16.7049 20.0001 16.8215 19.9505 16.9074 19.8622C16.9934 19.774 17.0417 19.6543 17.0417 19.5295V16.7059C17.0417 16.5811 16.9934 16.4614 16.9074 16.3732C16.8215 16.2849 16.7049 16.2354 16.5833 16.2354Z" fill="#5E5B50" stroke="#5E5B50" stroke-width="0.5"/>
<path d="M18.4154 16.2354C18.2938 16.2354 18.1772 16.2849 18.0913 16.3732C18.0053 16.4614 17.957 16.5811 17.957 16.7059V18.1177C17.957 18.2425 18.0053 18.3622 18.0913 18.4505C18.1772 18.5387 18.2938 18.5883 18.4154 18.5883C18.5369 18.5883 18.6535 18.5387 18.7395 18.4505C18.8254 18.3622 18.8737 18.2425 18.8737 18.1177V16.7059C18.8737 16.5811 18.8254 16.4614 18.7395 16.3732C18.6535 16.2849 18.5369 16.2354 18.4154 16.2354Z" fill="#5E5B50" stroke="#5E5B50" stroke-width="0.5"/>
</svg>
