<svg width="20" height="18" viewBox="0 0 20 18" fill="none" xmlns="http://www.w3.org/2000/svg">
<path d="M8.59189 17.7671C8.92511 18.0886 9.45267 18.0756 9.77011 17.7381C10.0876 17.4006 10.0747 16.8663 9.74144 16.5448L2.79541 9.844H19.1667C19.6269 9.844 20 9.46612 20 9.00001C20 8.53391 19.6269 8.15602 19.1667 8.15602H2.7953L9.74144 1.45511C10.0747 1.13362 10.0874 0.599397 9.77011 0.261881C9.45267 -0.0756249 8.92511 -0.0886226 8.59189 0.23287L0.348656 8.18517C0.160956 8.36623 0.0499001 8.59715 0.0154779 8.83729C0.00532231 8.88996 0 8.94442 0 9.00001C0 9.05583 0.00534435 9.11029 0.0155332 9.16307C0.0500221 9.4031 0.161067 9.6339 0.348656 9.81486L8.59189 17.7671Z" fill="#5E5B50"/>
</svg>
