<svg width="36" height="36" viewBox="0 0 36 36" fill="none" xmlns="http://www.w3.org/2000/svg">
<path d="M11.75 13C13.8211 13 15.5 11.3211 15.5 9.25C15.5 7.17893 13.8211 5.5 11.75 5.5C9.67893 5.5 8 7.17893 8 9.25C8 11.3211 9.67893 13 11.75 13Z" fill="white"/>
<path d="M34.25 0.5H31.75C31.0591 0.5 30.5 1.05969 30.5 1.75C30.5 2.28764 30.843 2.73656 31.3194 2.91302L28 6.23242L26.3838 4.61621C25.8955 4.12793 25.1045 4.12793 24.6162 4.61621L22.0307 7.20174C20.2796 3.25986 16.3338 0.5 11.75 0.5C11.0597 0.5 10.5 1.05969 10.5 1.75C10.5 2.44031 11.0597 3 11.75 3C16.5748 3 20.5 6.92517 20.5 11.75C20.5 16.5748 16.5748 20.5 11.75 20.5C6.92517 20.5 3 16.5748 3 11.75C3 10.1032 3.46692 8.50583 4.32607 7.12682C4.48788 7.62967 4.94336 8 5.5 8C6.19031 8 6.75 7.44031 6.75 6.75V4.25C6.75 3.55969 6.19031 3 5.5 3H3C2.30969 3 1.75 3.55969 1.75 4.25C1.75 4.75598 2.05403 5.18681 2.48647 5.3835C1.20343 7.24866 0.5 9.46172 0.5 11.75C0.5 17.953 5.547 23 11.75 23C17.953 23 23 17.953 23 11.75C23 11.1286 22.9363 10.523 22.8389 9.92871L25.5 7.26758L27.1162 8.88379C27.6045 9.37207 28.3955 9.37207 28.8838 8.88379L33.0869 4.68068C33.2633 5.15683 33.712 5.5 34.25 5.5C34.9409 5.5 35.5 4.94031 35.5 4.25V1.75C35.5 1.05969 34.9409 0.5 34.25 0.5Z" fill="white"/>
<path d="M14.2482 13H11.7482H9.24823C7.4377 13 5.92326 14.2897 5.57422 15.9985C6.92828 17.9602 9.18933 19.25 11.7482 19.25C14.3071 19.25 16.5682 17.9602 17.9222 15.9985C17.5732 14.2897 16.0588 13 14.2482 13Z" fill="white"/>
<path d="M35.5 35.5H30.5V13C30.5 12.3096 31.0596 11.75 31.75 11.75H34.25C34.9404 11.75 35.5 12.3096 35.5 13V35.5Z" fill="white"/>
<path d="M29.25 35.5H24.25V18C24.25 17.3096 24.8096 16.75 25.5 16.75H28C28.6904 16.75 29.25 17.3096 29.25 18V35.5Z" fill="white"/>
<path d="M23 35.5H18V23C18 22.3096 18.5596 21.75 19.25 21.75H21.75C22.4404 21.75 23 22.3096 23 23V35.5Z" fill="white"/>
<path d="M16.75 35.5H11.75V28C11.75 27.3096 12.3096 26.75 13 26.75H15.5C16.1904 26.75 16.75 27.3096 16.75 28V35.5Z" fill="white"/>
<path d="M10.5 35.5H5.5V31.75C5.5 31.0596 6.05964 30.5 6.75 30.5H9.25C9.94036 30.5 10.5 31.0596 10.5 31.75V35.5Z" fill="white"/>
</svg>
