<svg width="36" height="40" viewBox="0 0 36 40" fill="none" xmlns="http://www.w3.org/2000/svg">
<path d="M7.62075 11.0547L11.4475 7.22574C11.4365 7.19472 11.4254 7.16371 11.4165 7.13051C11.2793 6.61676 11.5848 6.08965 12.0964 5.95238C12.6101 5.81504 13.1372 6.11847 13.2745 6.63222C13.2878 6.68535 13.2966 6.73629 13.3033 6.78949L17.2872 8.1116C17.4068 7.97871 17.5663 7.8791 17.75 7.82816C17.9538 7.77504 18.1619 7.78832 18.3436 7.85918L22.4826 3.72019C22.4715 3.68918 22.4605 3.65816 22.4516 3.62496C22.3143 3.11121 22.6199 2.5841 23.1315 2.44683C23.6452 2.30957 24.1723 2.61512 24.3096 3.12668C24.3361 3.22855 24.345 3.32824 24.3406 3.42785L28.1165 5.35012C28.2183 5.26816 28.3401 5.20394 28.4752 5.16855C28.679 5.11316 28.8849 5.12871 29.0687 5.19957L32.4615 1.80683L31.8303 1.89988C31.6154 1.9309 31.4184 1.78254 31.3874 1.56988C31.3564 1.35722 31.5025 1.15801 31.7174 1.12699L33.5134 0.863475C33.7283 0.832459 33.9253 0.980819 33.9563 1.19347C33.9629 1.23558 33.9629 1.27543 33.9563 1.31308L33.6928 3.10465C33.6618 3.31722 33.4647 3.46558 33.2499 3.43238C33.0373 3.40137 32.8911 3.20426 32.9222 2.99168L33.0129 2.35832L29.6202 5.75324C29.6335 5.78426 29.6423 5.81527 29.6512 5.84847C29.7885 6.36222 29.4851 6.88933 28.9714 7.0266C28.4598 7.16394 27.9328 6.85832 27.7954 6.34676C27.7689 6.24488 27.7578 6.14519 27.7622 6.04558L23.9864 4.12332C23.8845 4.20527 23.7649 4.2673 23.6298 4.30488C23.4261 4.35801 23.2201 4.34472 23.0363 4.27387L18.8972 8.41285C18.9083 8.44386 18.9193 8.47488 18.9283 8.50808C19.0655 9.02183 18.7622 9.54894 18.2484 9.68621C17.7347 9.82347 17.2076 9.51793 17.0703 9.00636C17.057 8.95324 17.0482 8.9023 17.0437 8.8491L13.0575 7.52699C12.9379 7.65988 12.7807 7.75949 12.5947 7.81043C12.3909 7.86355 12.185 7.84808 12.0011 7.77722L8.17216 11.6062C8.18544 11.6372 8.19653 11.6682 8.20536 11.7014C8.34263 12.2152 8.03708 12.7423 7.52552 12.8796C7.01177 13.0169 6.48466 12.7135 6.34739 12.1997C6.21013 11.686 6.51349 11.1589 7.02724 11.0216C7.23099 10.9685 7.43692 10.9839 7.62075 11.0548V11.0547ZM12.9766 26.3241C12.9598 26.5747 13.1019 26.8632 13.3386 27.0593C14.5044 28.0247 15.5147 27.5316 16.7935 26.9068C17.6738 26.4768 18.6715 25.9893 19.8261 25.9825H19.8517C21.1306 25.9825 22.1147 26.5518 23.0667 27.1026L27.6572 29.7529C27.6685 29.7594 27.6794 29.7665 27.69 29.7742C27.9356 29.9508 28.113 30.1229 28.2486 30.3156C28.2854 30.3679 28.3182 30.4218 28.3491 30.4763L32.1755 28.7059C32.0879 25.6131 30.8438 23.0268 28.4749 21.0153L27.5151 21.5491C26.0471 22.3656 24.477 22.5074 22.8488 21.9707C21.3693 21.4832 19.8208 21.763 18.1147 22.8267L13.3256 25.8126C13.1078 25.9485 12.9904 26.1206 12.9766 26.3243V26.3241ZM22.2211 16.7986H24.5014V6.8466H22.2211V16.7986ZM16.8592 16.7986H19.1395V11.6704H16.8592V16.7986ZM8.41583 14.6964H6.13552V16.7986H8.41583V14.6964ZM11.4974 16.7986H13.7777V10.104H11.4974V16.7986ZM27.5829 16.7986H29.8632V9.1073H27.5829V16.7986ZM32.9618 28.9231C32.9624 28.9883 32.9881 29.0353 33.0427 29.0711C33.0973 29.1068 33.1508 29.1116 33.2106 29.086L34.6386 28.4796C34.7875 28.4164 34.8793 28.304 34.9117 28.1457C35.5418 25.0622 34.0229 21.2657 31.3002 19.1182C31.2142 19.0504 31.1156 19.016 31.0154 19.016C30.9386 19.016 30.861 19.0362 30.7876 19.077L28.9664 20.09C28.9094 20.1215 28.8814 20.1645 28.8751 20.2291C28.8689 20.2937 28.8883 20.3413 28.9381 20.3832C31.5358 22.5702 32.9272 25.5232 32.9616 28.9231H32.9618ZM19.4561 35.9447C19.3808 35.6642 19.2022 35.4304 18.9531 35.2865C18.7044 35.1429 18.4126 35.1055 18.1317 35.1806C17.8509 35.2558 17.6172 35.4341 17.4736 35.6827L16.4137 37.5185C16.1158 38.0357 16.2937 38.6989 16.8107 38.9974C17.3279 39.296 17.9918 39.1181 18.2904 38.6009L19.3496 36.7663C19.4935 36.5171 19.5312 36.2254 19.4561 35.9448V35.9447ZM10.6317 34.18L11.6913 32.3446C11.6913 32.3446 11.6913 32.3445 11.6913 32.3444C11.9897 31.8271 11.8118 31.1636 11.2947 30.865C10.7775 30.5663 10.1137 30.7442 9.81505 31.2614L8.75575 33.0961C8.61193 33.3452 8.57411 33.6369 8.64935 33.9175C8.7245 34.1981 8.90317 34.4318 9.15232 34.5757C9.40099 34.7193 9.69255 34.757 9.97364 34.6817C10.2543 34.6065 10.4878 34.4285 10.6314 34.1803L10.6316 34.1799L10.6317 34.18ZM21.1437 37.0113L20.4354 36.6024C20.3542 36.5555 20.2979 36.4832 20.2671 36.4018C20.2425 36.665 20.1619 36.9218 20.0262 37.1569L19.4425 38.1678L19.9562 38.4567C20.4251 38.7274 20.8634 38.77 21.1941 38.5792C21.4641 38.4232 21.6386 38.1174 21.6386 37.8C21.6386 37.4757 21.4628 37.1956 21.1437 37.0114V37.0113ZM16.7968 35.2924C16.9407 35.0432 16.9785 34.7514 16.9033 34.4708C16.8281 34.1903 16.6494 33.9565 16.4003 33.8126C16.1516 33.669 15.86 33.6314 15.579 33.7067C15.2984 33.7818 15.0648 33.9599 14.9212 34.208C14.921 34.2083 14.9208 34.2087 14.9206 34.2091L13.5027 36.665C13.2057 37.182 13.3837 37.8445 13.9003 38.1428C14.1491 38.2864 14.4408 38.324 14.7217 38.2487C15.0027 38.1734 15.2365 37.995 15.3801 37.7463L15.6026 37.361L15.737 37.1282C15.7372 37.1278 15.7375 37.1274 15.7377 37.1269C15.7377 37.1269 15.7377 37.1268 15.7378 37.1268L16.7968 35.2925V35.2924ZM13.8475 32.3388C13.3307 32.0403 12.6675 32.2177 12.3686 32.734L11.2465 34.6775L10.6508 35.7094C10.5069 35.9586 10.4691 36.2503 10.5443 36.531C10.6195 36.8115 10.7982 37.0453 11.0473 37.1892C11.296 37.3329 11.5878 37.3705 11.8686 37.2951C12.1497 37.2198 12.3834 37.0414 12.527 36.7927L12.7557 36.3966L12.8272 36.2726C12.8272 36.2726 12.8272 36.2726 12.8272 36.2725L14.2443 33.8179C14.5425 33.3007 14.3646 32.6374 13.8475 32.3389L13.8475 32.3388ZM3.82153 28.7833L7.51372 30.6866C7.55388 30.7073 7.59013 30.7348 7.62083 30.7679L8.59364 31.8147L9.13857 30.8709C9.65255 29.9805 10.7951 29.6744 11.6855 30.1885C12.204 30.4879 12.5243 31.0004 12.6 31.5521C13.1157 31.3418 13.7197 31.3629 14.2383 31.6623C14.7572 31.9619 15.0776 32.475 15.1529 33.0272C15.2254 32.9978 15.3001 32.9728 15.3768 32.9522C15.8593 32.8228 16.3616 32.8883 16.791 33.1362C17.2209 33.3844 17.5288 33.7866 17.658 34.2688C17.6787 34.3459 17.6944 34.4236 17.7051 34.5014C17.7778 34.4719 17.8527 34.4467 17.9297 34.4261C18.4123 34.2968 18.9144 34.3621 19.3439 34.61C19.7737 34.8582 20.0816 35.2604 20.2109 35.7426C20.244 35.866 20.2641 35.9907 20.2718 36.115C20.2783 36.0995 20.284 36.0838 20.2926 36.0689C20.4004 35.8821 20.6393 35.8178 20.8262 35.9259L21.5344 36.3348L22.3747 36.8199C22.6068 36.9539 22.8785 36.9892 23.14 36.9191C23.4015 36.8491 23.6193 36.6826 23.7533 36.4505C23.887 36.2188 23.9221 35.9471 23.8519 35.6853C23.7818 35.4236 23.6157 35.2058 23.3841 35.0721L21.5765 34.0285C21.3897 33.9206 21.3257 33.6818 21.4336 33.4949C21.5413 33.308 21.7803 33.2439 21.9672 33.3519L23.7743 34.3953C23.7743 34.3953 23.7746 34.3954 23.7747 34.3955L24.2254 34.6557C24.7505 34.9589 25.4247 34.7784 25.7279 34.2532C26.0311 33.7279 25.8504 33.0539 25.3253 32.7507C25.3253 32.7507 25.3253 32.7507 25.3251 32.7507L23.3979 31.638C23.2111 31.5301 23.1471 31.2913 23.255 31.1044C23.3627 30.9176 23.6017 30.8534 23.7886 30.9614L26.1668 32.3346C26.4197 32.4806 26.716 32.519 27.001 32.4427C27.2859 32.3664 27.5233 32.185 27.6693 31.932C27.881 31.5653 27.8583 31.1182 27.6098 30.7652C27.5285 30.6496 27.4136 30.5393 27.2493 30.4195L22.6757 27.7789C21.7676 27.2536 20.9106 26.7585 19.8308 26.7639C18.8544 26.7696 17.9811 27.1963 17.1366 27.6089C15.7886 28.2673 14.3947 28.9483 12.8405 27.6611C12.4102 27.3047 12.1638 26.7725 12.1975 26.2718C12.2281 25.8165 12.482 25.418 12.9125 25.1496L16.8276 22.7086C15.6406 22.0518 14.5711 22.1443 13.3561 22.2497C11.8683 22.3787 10.1817 22.525 8.00911 21.3032L7.51349 21.0244C5.13177 23.0515 3.89052 25.6611 3.82169 28.7836L3.82153 28.7833ZM1.087 28.1456C1.11935 28.3039 1.2113 28.4163 1.36013 28.4795L2.7881 29.086C2.84833 29.1115 2.90161 29.1066 2.95614 29.071C3.0106 29.0353 3.0363 28.9883 3.03692 28.923C3.07138 25.5232 4.46271 22.5701 7.06044 20.3832C7.11021 20.3412 7.12958 20.2937 7.12341 20.229C7.11716 20.1643 7.08911 20.1214 7.03232 20.0899L5.21107 19.077C5.13771 19.0362 5.06005 19.016 4.98325 19.016C4.8831 19.016 4.78435 19.0504 4.69841 19.1182C1.97575 21.2657 0.456925 25.0621 1.087 28.1456Z" fill="white"/>
</svg>
