<svg width="37" height="36" viewBox="0 0 37 36" fill="none" xmlns="http://www.w3.org/2000/svg">
<path d="M22.1746 30.3867C21.4069 31.3556 20.7081 32.1973 20.1363 32.875C19.7552 33.3302 19.1887 33.5897 18.5905 33.5897C17.9975 33.5897 17.4311 33.3302 17.0498 32.875C16.4781 32.1973 15.774 31.3503 15.0116 30.3867C11.941 30.5614 7.14453 31.0644 7.14453 32.5202C7.14453 34.7173 18.1192 34.7438 18.5905 34.7438C19.0563 34.7438 30.0416 34.7173 30.0416 32.5202C30.0416 31.0644 25.2451 30.5614 22.1746 30.3867Z" fill="white"/>
<path d="M8.70243 24.0297C8.77429 24.0297 8.84667 24.0103 8.91182 23.9694C9.09794 23.8534 9.15481 23.6086 9.039 23.4225C7.90883 21.6111 6.99787 19.9229 6.33094 18.4042C6.24304 18.2031 6.00936 18.1108 5.80773 18.2002C5.60713 18.2884 5.51562 18.5226 5.60403 18.7232C6.28596 20.2768 7.21501 21.9994 8.36483 23.8428C8.44031 23.9635 8.56957 24.0297 8.70243 24.0297Z" fill="white"/>
<path d="M5.06522 14.4875C5.02696 14.2717 4.82223 14.1284 4.60457 14.1662C4.38898 14.2044 4.24525 14.4107 4.28351 14.6266C4.3502 15.0009 4.43861 15.3933 4.54718 15.7927C4.59526 15.9695 4.75502 16.0858 4.93028 16.0858C4.9644 16.0858 4.99956 16.0814 5.0342 16.0719C5.24565 16.0145 5.37077 15.7966 5.31338 15.5848C5.21153 15.2079 5.12778 14.8388 5.06522 14.4875Z" fill="white"/>
<path d="M29.5898 5.14728C29.6674 5.25249 29.7873 5.30806 29.9093 5.30806C29.991 5.30806 30.0737 5.28273 30.1451 5.23026C30.3214 5.09971 30.3586 4.85103 30.2278 4.67473C30.0996 4.50102 29.9667 4.33015 29.8302 4.16239C29.6927 3.99203 29.4414 3.96644 29.2718 4.10422C29.1018 4.24252 29.0754 4.4925 29.2139 4.66285C29.3422 4.82131 29.4678 4.98287 29.5898 5.14728Z" fill="white"/>
<path d="M31.3726 6.48623C31.2697 6.29312 31.0293 6.21842 30.8354 6.32234C30.6421 6.42548 30.5687 6.66589 30.6715 6.8595C31.6978 8.78715 32.2339 10.8777 32.2649 13.0731C32.268 13.2905 32.4454 13.4645 32.662 13.4645H32.6677C32.8869 13.4614 33.0622 13.2812 33.0591 13.0617C33.0265 10.7714 32.4433 8.49763 31.3726 6.48623Z" fill="white"/>
<path d="M18.5931 1.25781C11.9648 1.25781 6.58594 6.64195 6.58594 13.2702C6.58594 18.7708 14.8289 29.0149 17.656 32.3608C18.1483 32.9431 19.043 32.9431 19.5302 32.3608C22.3571 29.0149 30.6054 18.7708 30.6054 13.2702C30.6054 6.64195 25.2213 1.25781 18.5931 1.25781ZM18.5931 21.4284C13.9395 21.4284 10.1648 17.6484 10.1648 12.9949C10.1648 8.34135 13.9395 4.56664 18.5931 4.56664C23.2466 4.56664 27.0266 8.34135 27.0266 12.9949C27.0266 17.6484 23.2466 21.4284 18.5931 21.4284Z" fill="white"/>
<path d="M23.0133 9.7224H21.0854V8.73932C21.0854 8.26393 20.6987 7.87695 20.223 7.87695H17.2358C16.7601 7.87695 16.3734 8.26393 16.3734 8.73932V9.7224H14.4454C13.878 9.7224 13.418 10.1824 13.418 10.7498V11.5197C13.418 12.1158 13.6832 12.6453 14.096 13.0126V15.3091C14.096 16.0852 14.7278 16.7164 15.5038 16.7164H21.955C22.731 16.7164 23.3623 16.0852 23.3623 15.3091V13.013C23.7754 12.6456 24.0406 12.116 24.0406 11.5197V10.7498C24.0406 10.1824 23.5807 9.7224 23.0133 9.7224ZM17.1675 8.73931C17.1675 8.70157 17.198 8.67107 17.2358 8.67107H20.223C20.2608 8.67107 20.2913 8.70157 20.2913 8.73931V9.72239H17.1675L17.1675 8.73931ZM22.5682 15.3091C22.5682 15.6529 22.2988 15.9223 21.955 15.9223H15.5038C15.1595 15.9223 14.8901 15.6529 14.8901 15.3091V13.4445C15.0611 13.4919 15.2377 13.5254 15.4238 13.5254H16.1894V14.0166C16.1894 14.2358 16.3672 14.4137 16.5864 14.4137C16.8056 14.4137 16.9835 14.2358 16.9835 14.0166V13.5254H20.4753V14.0166C20.4753 14.2358 20.6532 14.4137 20.8724 14.4137C21.0916 14.4137 21.2695 14.2358 21.2695 14.0166V13.5254H22.0349C22.2209 13.5254 22.3973 13.492 22.5682 13.4446V15.3091Z" fill="white"/>
</svg>
