<svg width="24" height="24" viewBox="0 0 24 24" fill="none" xmlns="http://www.w3.org/2000/svg">
<g clip-path="url(#clip0_5224_30163)">
<path d="M2 22V5H0V23C0 23.2652 0.105357 23.5196 0.292893 23.7071C0.48043 23.8946 0.734784 24 1 24H24V22H2Z" fill="#FF955A"/>
<path d="M9 14C9 13.7348 8.89464 13.4804 8.70711 13.2929C8.51957 13.1054 8.26522 13 8 13H5C4.73478 13 4.48043 13.1054 4.29289 13.2929C4.10536 13.4804 4 13.7348 4 14V21H9V14Z" fill="#FF955A"/>
<path d="M16 10C16 9.73478 15.8946 9.48043 15.7071 9.29289C15.5196 9.10536 15.2652 9 15 9H12C11.7348 9 11.4804 9.10536 11.2929 9.29289C11.1054 9.48043 11 9.73478 11 10V21H16V10Z" fill="#FF955A"/>
<path d="M23 6C23 5.73478 22.8946 5.48043 22.7071 5.29289C22.5196 5.10536 22.2652 5 22 5H19C18.7348 5 18.4804 5.10536 18.2929 5.29289C18.1054 5.48043 18 5.73478 18 6V21H23V6Z" fill="#FF955A"/>
</g>
<defs>
<clipPath id="clip0_5224_30163">
<rect width="24" height="24" fill="white"/>
</clipPath>
</defs>
</svg>
