<svg width="25" height="24" viewBox="0 0 25 24" fill="none" xmlns="http://www.w3.org/2000/svg">
<path d="M21.1953 8.075C21.095 8.075 20.9989 8.11484 20.9279 8.18575C20.857 8.25666 20.8172 8.35284 20.8172 8.45312V10.7813C20.8172 10.8816 20.857 10.9778 20.9279 11.0487C20.9989 11.1196 21.095 11.1594 21.1953 11.1594C21.2956 11.1594 21.3918 11.1196 21.4627 11.0487C21.5336 10.9778 21.5734 10.8816 21.5734 10.7813V8.45312C21.5734 8.35284 21.5336 8.25666 21.4627 8.18575C21.3918 8.11484 21.2956 8.075 21.1953 8.075Z" fill="#5E5B50" stroke="#5E5B50" stroke-width="0.1"/>
<path d="M16.4393 22.6421L16.4393 22.6421C16.4949 22.7524 16.5717 22.8507 16.6652 22.9314C16.7588 23.0121 16.8673 23.0735 16.9846 23.1122C17.102 23.1509 17.2257 23.1662 17.3489 23.1571C17.4721 23.1479 17.5923 23.1146 17.7027 23.0591C17.813 23.0035 17.9113 22.9267 17.9919 22.8332C18.0726 22.7396 18.134 22.6311 18.1728 22.5138C18.2115 22.3965 18.2267 22.2727 18.2176 22.1495C18.2085 22.0263 18.1752 21.9061 18.1196 21.7958L15.8341 17.2531H23.2812C23.3815 17.2531 23.4777 17.2133 23.5486 17.1424C23.6195 17.0715 23.6594 16.9753 23.6594 16.875V15.1875C23.6594 15.0872 23.6195 14.991 23.5486 14.9201C23.4777 14.8492 23.3815 14.8094 23.2812 14.8094H22.6994V2.625C22.6994 2.52472 22.6595 2.42854 22.5886 2.35763C22.5177 2.28671 22.4215 2.24687 22.3212 2.24687H13.4406V1.21875C13.4406 1.11847 13.4008 1.02229 13.3299 0.951375C13.259 0.880463 13.1628 0.840625 13.0625 0.840625H11.9375C11.8372 0.840625 11.741 0.880463 11.6701 0.951375C11.5992 1.02229 11.5594 1.11847 11.5594 1.21875V2.24687H2.67875C2.57847 2.24687 2.48229 2.28671 2.41138 2.35763C2.34046 2.42854 2.30062 2.52471 2.30062 2.625V14.8094H1.71875C1.61847 14.8094 1.52229 14.8492 1.45138 14.9201C1.38046 14.991 1.34062 15.0872 1.34062 15.1875V16.875C1.34062 16.9753 1.38046 17.0715 1.45138 17.1424C1.52229 17.2133 1.61846 17.2531 1.71875 17.2531H9.16594L6.88021 21.7962C6.76808 22.019 6.74908 22.2773 6.82738 22.5142C6.90568 22.7511 7.07488 22.9471 7.29775 23.0593C7.52061 23.1714 7.7789 23.1904 8.01577 23.1121C8.25265 23.0338 8.44872 22.8646 8.56085 22.6417L11.2723 17.2531H13.7277L16.4393 22.6421ZM10.4256 17.2531L7.88541 22.3016C7.87451 22.3233 7.85946 22.3425 7.84112 22.3583C7.82278 22.3741 7.8015 22.3862 7.7785 22.3938C7.7555 22.4014 7.73124 22.4044 7.70709 22.4026C7.68293 22.4008 7.65937 22.3942 7.63775 22.3833C7.61612 22.3724 7.59685 22.3574 7.58104 22.3391C7.56523 22.3207 7.55318 22.2994 7.5456 22.2764C7.53801 22.2534 7.53502 22.2292 7.53681 22.205C7.5386 22.1809 7.54513 22.1573 7.55603 22.1357L7.55604 22.1357L10.0125 17.2531H10.4256ZM17.4443 22.136L17.4443 22.1361C17.4585 22.1642 17.4652 22.1954 17.4639 22.2269C17.4625 22.2583 17.4531 22.2889 17.4366 22.3157C17.4201 22.3425 17.3969 22.3646 17.3694 22.3799C17.342 22.3952 17.311 22.4032 17.2796 22.4031C17.2455 22.403 17.212 22.3934 17.1829 22.3755C17.1538 22.3576 17.1303 22.3321 17.1147 22.3017C17.1147 22.3017 17.1147 22.3016 17.1147 22.3016L14.5743 17.2531H14.9873L17.4443 22.136ZM12.3156 1.59687H12.6844V2.24687H12.3156V1.59687ZM3.05687 3.00312H21.9431V14.8094H3.05687V3.00312ZM22.9031 16.4969H2.09688V15.5656H22.9031V16.4969Z" fill="#5E5B50" stroke="#5E5B50" stroke-width="0.1"/>
</svg>
