<svg width="24" height="24" viewBox="0 0 24 24" fill="none" xmlns="http://www.w3.org/2000/svg">
<mask id="mask0_1496_6157" style="mask-type:alpha" maskUnits="userSpaceOnUse" x="3" y="2" width="18" height="20">
<path fill-rule="evenodd" clip-rule="evenodd" d="M3 2.01172H20.0527V21.8652H3V2.01172Z" fill="current"/>
</mask>
<g mask="url(#mask0_1496_6157)">
<path fill-rule="evenodd" clip-rule="evenodd" d="M7.5731 3.51172C5.9161 3.51172 4.5401 4.85372 4.5011 6.50872V17.2037C4.4641 18.9167 5.8141 20.3277 7.5101 20.3657H15.5741C17.2431 20.2967 18.5651 18.9097 18.5531 17.2097V8.33972L13.9181 3.51172H7.5851H7.5731ZM7.5851 21.8657H7.4761C4.9541 21.8087 2.9461 19.7107 3.0011 17.1877V6.49072C3.0591 4.00972 5.1081 2.01172 7.5711 2.01172H7.5881H14.2381C14.4421 2.01172 14.6371 2.09472 14.7791 2.24172L19.8441 7.51872C19.9781 7.65772 20.0531 7.84472 20.0531 8.03772V17.2037C20.0711 19.7127 18.1171 21.7627 15.6041 21.8647L7.5851 21.8657Z" fill="current"/>
</g>
<path fill-rule="evenodd" clip-rule="evenodd" d="M19.2996 8.984H16.5446C14.7146 8.979 13.2266 7.487 13.2266 5.659V2.75C13.2266 2.336 13.5626 2 13.9766 2C14.3906 2 14.7266 2.336 14.7266 2.75V5.659C14.7266 6.663 15.5436 7.481 16.5466 7.484H19.2996C19.7136 7.484 20.0496 7.82 20.0496 8.234C20.0496 8.648 19.7136 8.984 19.2996 8.984Z" fill="current"/>
<path fill-rule="evenodd" clip-rule="evenodd" d="M13.7867 16.1084H8.38672C7.97272 16.1084 7.63672 15.7724 7.63672 15.3584C7.63672 14.9444 7.97272 14.6084 8.38672 14.6084H13.7867C14.2007 14.6084 14.5367 14.9444 14.5367 15.3584C14.5367 15.7724 14.2007 16.1084 13.7867 16.1084Z" fill="current"/>
<path fill-rule="evenodd" clip-rule="evenodd" d="M11.7427 12.3564H8.38672C7.97272 12.3564 7.63672 12.0204 7.63672 11.6064C7.63672 11.1924 7.97272 10.8564 8.38672 10.8564H11.7427C12.1567 10.8564 12.4927 11.1924 12.4927 11.6064C12.4927 12.0204 12.1567 12.3564 11.7427 12.3564Z" fill="current"/>
</svg>
