<svg width="25" height="24" viewBox="0 0 25 24" fill="none" xmlns="http://www.w3.org/2000/svg">
<path d="M4.5 3H5.5C6.55382 3 7.41812 3.8164 7.49451 4.85081L7.5 5V19C7.5 20.0538 6.6836 20.9181 5.64919 20.9945L5.5 21H4.5C3.44618 21 2.58188 20.1836 2.50549 19.1492L2.5 19V5C2.5 3.94618 3.3164 3.08188 4.35081 3.00549L4.5 3H5.5H4.5ZM10.5 3H11.5C12.5538 3 13.4181 3.8164 13.4945 4.85081L13.5 5V19C13.5 20.0538 12.6836 20.9181 11.6492 20.9945L11.5 21H10.5C9.44618 21 8.58188 20.1836 8.50549 19.1492L8.5 19V5C8.5 3.94618 9.3164 3.08188 10.3508 3.00549L10.5 3H11.5H10.5ZM17.4743 5.0005C18.3138 5.0005 19.0825 5.5311 19.3643 6.34636L19.4113 6.5025L22.4263 18.2485C22.6888 19.2689 22.113 20.3094 21.1295 20.6402L20.9863 20.6825L20.0173 20.9315C19.8513 20.9735 19.6833 20.9945 19.5193 20.9945C18.6807 20.9945 17.9112 20.463 17.6302 19.6476L17.5833 19.4915L14.5673 7.7465C14.3058 6.72514 14.8807 5.68555 15.8649 5.35484L16.0083 5.3125L16.9763 5.0635C17.1423 5.0205 17.3103 5.0005 17.4743 5.0005ZM5.5 4.5H4.5C4.25467 4.5 4.05042 4.67778 4.00806 4.91043L4 5V19C4 19.2444 4.17699 19.4494 4.41016 19.4919L4.5 19.5H5.5C5.74533 19.5 5.94958 19.3222 5.99194 19.0896L6 19V5C6 4.75556 5.82301 4.55062 5.58984 4.50809L5.5 4.5ZM11.5 4.5H10.5C10.2547 4.5 10.0504 4.67778 10.0081 4.91043L10 5V19C10 19.2444 10.177 19.4494 10.4102 19.4919L10.5 19.5H11.5C11.7453 19.5 11.9496 19.3222 11.9919 19.0896L12 19V5C12 4.75556 11.823 4.55062 11.5898 4.50809L11.5 4.5ZM17.4753 6.5005L17.4119 6.50437L17.3493 6.5165L16.3813 6.7645C16.2063 6.8095 16.1143 6.9275 16.0743 6.9955C16.0431 7.0483 15.9985 7.14718 16.0049 7.27422L16.0203 7.3745L19.0363 19.1185C19.1023 19.3765 19.3333 19.4945 19.5193 19.4945L19.5818 19.4906L19.6443 19.4785L20.6133 19.2295C20.8515 19.1691 21.0052 18.9458 20.9879 18.7102L20.9733 18.6215L17.9583 6.8755C17.8913 6.6185 17.6613 6.5005 17.4753 6.5005Z" fill="#5E5B50"/>
</svg>
