<svg width="24" height="24" viewBox="0 0 24 24" fill="none" xmlns="http://www.w3.org/2000/svg">
<path d="M18.3889 2C20.3832 2 22 3.61674 22 5.61111V18.3889C22 20.3832 20.3832 22 18.3889 22H5.61111C3.61674 22 2 20.3832 2 18.3889V5.61111C2 3.61674 3.61674 2 5.61111 2H18.3889ZM20.3333 8.11111H3.66667V18.3889C3.66667 19.4628 4.53722 20.3333 5.61111 20.3333H18.3889C19.4628 20.3333 20.3333 19.4628 20.3333 18.3889V8.11111ZM7.27778 14.7778C8.04484 14.7778 8.66667 15.3996 8.66667 16.1667C8.66667 16.9338 8.04484 17.5556 7.27778 17.5556C6.51071 17.5556 5.88889 16.9338 5.88889 16.1667C5.88889 15.3996 6.51071 14.7778 7.27778 14.7778ZM12 14.7778C12.7671 14.7778 13.3889 15.3996 13.3889 16.1667C13.3889 16.9338 12.7671 17.5556 12 17.5556C11.2329 17.5556 10.6111 16.9338 10.6111 16.1667C10.6111 15.3996 11.2329 14.7778 12 14.7778ZM7.27778 10.3333C8.04484 10.3333 8.66667 10.9551 8.66667 11.7222C8.66667 12.4893 8.04484 13.1111 7.27778 13.1111C6.51071 13.1111 5.88889 12.4893 5.88889 11.7222C5.88889 10.9551 6.51071 10.3333 7.27778 10.3333ZM12 10.3333C12.7671 10.3333 13.3889 10.9551 13.3889 11.7222C13.3889 12.4893 12.7671 13.1111 12 13.1111C11.2329 13.1111 10.6111 12.4893 10.6111 11.7222C10.6111 10.9551 11.2329 10.3333 12 10.3333ZM16.7222 10.3333C17.4893 10.3333 18.1111 10.9551 18.1111 11.7222C18.1111 12.4893 17.4893 13.1111 16.7222 13.1111C15.9551 13.1111 15.3333 12.4893 15.3333 11.7222C15.3333 10.9551 15.9551 10.3333 16.7222 10.3333ZM18.3889 3.66667H5.61111C4.53722 3.66667 3.66667 4.53722 3.66667 5.61111V6.44444H20.3333V5.61111C20.3333 4.53722 19.4628 3.66667 18.3889 3.66667Z" fill="#5E5B50"/>
</svg>
