<svg width="36" height="36" viewBox="0 0 36 36" fill="none" xmlns="http://www.w3.org/2000/svg">
<path d="M26.625 4.5C29.3174 4.5 31.5 6.68261 31.5 9.375V26.625C31.5 29.3174 29.3174 31.5 26.625 31.5H9.375C6.68261 31.5 4.5 29.3174 4.5 26.625V9.375C4.5 6.68261 6.68261 4.5 9.375 4.5H26.625ZM29.25 12.75H6.75V26.625C6.75 28.0748 7.92525 29.25 9.375 29.25H26.625C28.0748 29.25 29.25 28.0748 29.25 26.625V12.75ZM11.625 21.75C12.6605 21.75 13.5 22.5894 13.5 23.625C13.5 24.6606 12.6605 25.5 11.625 25.5C10.5895 25.5 9.75 24.6606 9.75 23.625C9.75 22.5894 10.5895 21.75 11.625 21.75ZM18 21.75C19.0356 21.75 19.875 22.5894 19.875 23.625C19.875 24.6606 19.0356 25.5 18 25.5C16.9644 25.5 16.125 24.6606 16.125 23.625C16.125 22.5894 16.9644 21.75 18 21.75ZM11.625 15.75C12.6605 15.75 13.5 16.5894 13.5 17.625C13.5 18.6606 12.6605 19.5 11.625 19.5C10.5895 19.5 9.75 18.6606 9.75 17.625C9.75 16.5894 10.5895 15.75 11.625 15.75ZM18 15.75C19.0356 15.75 19.875 16.5894 19.875 17.625C19.875 18.6606 19.0356 19.5 18 19.5C16.9644 19.5 16.125 18.6606 16.125 17.625C16.125 16.5894 16.9644 15.75 18 15.75ZM24.375 15.75C25.4106 15.75 26.25 16.5894 26.25 17.625C26.25 18.6606 25.4106 19.5 24.375 19.5C23.3394 19.5 22.5 18.6606 22.5 17.625C22.5 16.5894 23.3394 15.75 24.375 15.75ZM26.625 6.75H9.375C7.92525 6.75 6.75 7.92525 6.75 9.375V10.5H29.25V9.375C29.25 7.92525 28.0748 6.75 26.625 6.75Z" fill="white"/>
</svg>
