<svg width="36" height="36" viewBox="0 0 36 36" fill="none" xmlns="http://www.w3.org/2000/svg">
<path d="M27.5459 25.3157L25.7056 27.078C24.3493 28.367 22.5892 30.0245 20.4252 32.0505C19.0727 33.3166 16.9272 33.3165 15.5751 32.0502L10.1624 26.9519C9.48216 26.3052 8.91274 25.7597 8.45406 25.3157C3.18198 20.2107 3.18198 11.9338 8.45406 6.82875C13.7261 1.72375 22.2739 1.72375 27.5459 6.82875C32.818 11.9338 32.818 20.2107 27.5459 25.3157ZM21.8764 16.4846C21.8764 14.4116 20.1408 12.731 18 12.731C15.8592 12.731 14.1236 14.4116 14.1236 16.4846C14.1236 18.5576 15.8592 20.2381 18 20.2381C20.1408 20.2381 21.8764 18.5576 21.8764 16.4846Z" fill="url(#paint0_linear_1832_10154)"/>
<defs>
<linearGradient id="paint0_linear_1832_10154" x1="18" y1="3" x2="18" y2="33" gradientUnits="userSpaceOnUse">
<stop stop-color="#00C2FF"/>
<stop offset="1" stop-color="#0057FF"/>
</linearGradient>
</defs>
</svg>
