<svg width="80" height="80" viewBox="0 0 80 80" fill="none" xmlns="http://www.w3.org/2000/svg">
<g clip-path="url(#clip0_1212_10486)">
<path d="M65.9919 14.6445C67.1309 15.2916 68.4459 15.6633 69.847 15.6633C74.1655 15.6633 77.6788 12.15 77.6788 7.83172C77.6788 3.51328 74.1655 0 69.847 0C65.5288 0 62.0155 3.51328 62.0155 7.83172C62.0155 9.03453 62.2888 10.1745 62.7753 11.1939L54.3214 17.5962C53.0719 16.7522 51.5669 16.2589 49.9488 16.2589C48.3695 16.2589 46.8991 16.7303 45.6677 17.5375L37.3792 10.7558C37.7033 9.8975 37.8819 8.96859 37.8819 7.99828C37.8819 3.68 34.3686 0.166719 30.0503 0.166719C25.732 0.166719 22.2188 3.68 22.2188 7.99828C22.2188 9.09281 22.4453 10.1353 22.8527 11.0823L12.0252 22.4728C11.4245 22.3248 10.7975 22.2447 10.1519 22.2447C5.83359 22.2447 2.32031 25.758 2.32031 30.0763C2.32031 34.3945 5.83359 37.9078 10.1519 37.9078C14.4702 37.9078 17.9834 34.3945 17.9834 30.0763C17.9834 28.138 17.2741 26.3633 16.1033 24.9942L25.9313 14.6553C27.1288 15.3991 28.5398 15.83 30.0503 15.83C31.6948 15.83 33.2217 15.3194 34.4831 14.45L42.687 21.1625C42.3208 22.0677 42.117 23.0555 42.117 24.0905C42.117 28.4088 45.6303 31.922 49.9486 31.922C54.2669 31.922 57.7802 28.4088 57.7802 24.0905C57.7802 23.0942 57.5913 22.1419 57.2505 21.2647L65.9919 14.6445ZM69.847 4.69281C71.5778 4.69281 72.9859 6.10078 72.9859 7.83172C72.9859 9.56234 71.578 10.9703 69.847 10.9703C68.1164 10.9703 66.7083 9.56234 66.7083 7.83172C66.7084 6.10094 68.1164 4.69281 69.847 4.69281ZM10.1519 33.215C8.42125 33.215 7.01313 31.807 7.01313 30.0763C7.01313 28.3455 8.42109 26.9375 10.1519 26.9375C11.8825 26.9375 13.2906 28.3455 13.2906 30.0763C13.2906 31.807 11.8825 33.215 10.1519 33.215ZM30.0503 11.137C28.3197 11.137 26.9116 9.72906 26.9116 7.99828C26.9116 6.2675 28.3195 4.85969 30.0503 4.85969C31.7811 4.85969 33.1891 6.26766 33.1891 7.99828C33.1891 9.72891 31.7809 11.137 30.0503 11.137ZM49.9488 27.2289C48.2181 27.2289 46.81 25.8209 46.81 24.0903C46.81 22.3597 48.218 20.9516 49.9488 20.9516C51.6795 20.9516 53.0875 22.3595 53.0875 24.0903C53.0875 25.8211 51.6794 27.2289 49.9488 27.2289Z" fill="#FFB31F"/>
<path d="M69.7095 30.2549C65.4888 30.2549 62.0547 33.6889 62.0547 37.9097V79.9996H77.3645V37.9097C77.3645 33.6889 73.9305 30.2549 69.7095 30.2549ZM72.6716 75.3066H66.7475V37.9097C66.7475 36.2766 68.0763 34.9479 69.7094 34.9479C71.3427 34.9479 72.6714 36.2766 72.6714 37.9097V75.3066H72.6716Z" fill="#FFB31F"/>
<path d="M49.9478 49.4287C45.727 49.4287 42.293 52.8626 42.293 57.0837V80.0001H57.6028V57.0836C57.6028 52.8626 54.1687 49.4287 49.9478 49.4287ZM52.9098 75.3071H46.9858V57.0836C46.9858 55.4503 48.3145 54.1215 49.9477 54.1215C51.5809 54.1215 52.9097 55.4503 52.9097 57.0836V75.3071H52.9098Z" fill="#FFB31F"/>
<path d="M29.9284 36.5127C25.7075 36.5127 22.2734 39.9466 22.2734 44.1677V79.9999H37.5834V44.1677C37.5834 39.9468 34.1495 36.5127 29.9284 36.5127ZM32.8906 75.3069H26.9664V44.1677C26.9664 42.5344 28.2952 41.2057 29.9284 41.2057C31.5617 41.2057 32.8905 42.5344 32.8905 44.1677V75.3069H32.8906Z" fill="#FFB31F"/>
<path d="M10.1667 56.457C5.94578 56.457 2.51172 59.8909 2.51172 64.1119V79.9997H17.8216V64.1119C17.8216 59.8909 14.3875 56.457 10.1667 56.457ZM13.1286 75.3067H7.20469V64.1119C7.20469 62.4786 8.53344 61.1498 10.1667 61.1498C11.7998 61.1498 13.1286 62.4786 13.1286 64.1119V75.3067Z" fill="#FFB31F"/>
</g>
<defs>
<clipPath id="clip0_1212_10486">
<rect width="80" height="80" fill="white"/>
</clipPath>
</defs>
</svg>
