<svg width="61" height="60" viewBox="0 0 61 60" fill="none" xmlns="http://www.w3.org/2000/svg">
<path d="M49.1067 24.764C49.9918 27.179 50.5005 29.7778 50.5005 32.5003C50.5005 44.9267 40.4267 55.0005 28.0003 55.0005C15.5739 55.0005 5.50005 44.9267 5.50005 32.5003C5.50005 20.0739 15.5739 10.0001 28.0003 10.0001C32.1203 10.0001 35.9679 11.1251 39.2891 13.0588L42.4854 9.12629C38.2779 6.51252 33.3166 5 28.0003 5C12.8126 5 0.5 17.3126 0.5 32.5003C0.5 47.6879 12.8126 60.0006 28.0003 60.0006C43.1879 60.0006 55.5006 47.6879 55.5006 32.5003C55.5006 28.144 54.4831 24.0264 52.6805 20.3652L49.1067 24.764Z" fill="#52F79D"/>
<path d="M3.00003 32.5003C3.00003 17.7951 14.5414 5.78626 29.0603 5.0375C28.7078 5.02375 28.3565 5 28.0003 5C12.8126 5 0.5 17.3126 0.5 32.5003C0.5 47.6879 12.8126 60.0006 28.0003 60.0006C28.419 60.0006 28.8353 59.9881 29.2503 59.9693C14.6426 59.3156 3.00003 47.2692 3.00003 32.5003Z" fill="#46D286"/>
<path d="M22.617 44.6552L11.1519 33.1901C9.19937 31.2376 9.19937 28.0726 11.1519 26.1201C13.1044 24.1675 16.2707 24.1675 18.2232 26.1201L25.7683 33.6651L51.6186 1.8473C53.3598 -0.296473 56.5086 -0.621476 58.6524 1.11979C60.7949 2.86106 61.1212 6.00984 59.3799 8.15361L30.0333 44.2727C28.1633 46.574 24.7133 46.7515 22.617 44.6552Z" fill="#52F79D"/>
<path d="M28.2667 33.664L54.117 1.84746C54.8208 0.982448 55.7558 0.428692 56.7595 0.172439C54.922 -0.306316 52.8932 0.27744 51.617 1.84746L26.8867 32.2853L28.2667 33.664Z" fill="#46D286"/>
<path d="M25.117 44.6553L13.6519 33.1902C11.6994 31.2377 11.6994 28.0727 13.6519 26.1202C14.3069 25.4652 15.1019 25.0502 15.9382 24.8339C14.2807 24.4064 12.4507 24.8214 11.1519 26.1202C9.19937 28.0727 9.19937 31.2377 11.1519 33.1902L22.617 44.6553C23.9358 45.9741 25.7883 46.3891 27.4471 45.9466C26.5983 45.7366 25.7858 45.3241 25.117 44.6553Z" fill="#46D286"/>
</svg>
