<svg width="24" height="24" viewBox="0 0 24 24" fill="none" xmlns="http://www.w3.org/2000/svg">
<path d="M17.3781 21.7393C17.0462 21.1281 16.7056 19.5689 16.5722 18.5742H16.9419C17.0217 18.5742 17.0982 18.5425 17.1546 18.4861C17.211 18.4297 17.2427 18.3532 17.2427 18.2734C17.2415 17.2709 16.8428 16.3098 16.1339 15.6009C15.425 14.8921 14.4639 14.4933 13.4614 14.4922H13.3325V13.7617C13.3325 13.6819 13.3008 13.6054 13.2444 13.549C13.188 13.4926 13.1115 13.4609 13.0317 13.4609H12.8169V2.63281C12.8169 2.41629 12.7309 2.20863 12.5778 2.05553C12.4247 1.90242 12.217 1.81641 12.0005 1.81641C11.7839 1.81641 11.5763 1.90242 11.4232 2.05553C11.2701 2.20863 11.1841 2.41629 11.1841 2.63281V13.4609H10.9692C10.8895 13.4609 10.8129 13.4926 10.7565 13.549C10.7001 13.6054 10.6684 13.6819 10.6684 13.7617V14.4922H10.5395C9.53703 14.4933 8.57592 14.8921 7.86704 15.6009C7.15817 16.3098 6.75942 17.2709 6.75829 18.2734C6.75829 18.3532 6.78997 18.4297 6.84638 18.4861C6.90279 18.5425 6.97929 18.5742 7.05907 18.5742H7.4286C7.2868 19.6478 6.93136 21.1671 6.62199 21.7398C6.59728 21.7856 6.58488 21.8371 6.58601 21.8892C6.58714 21.9412 6.60175 21.9921 6.62842 22.0368C6.65509 22.0815 6.69291 22.1186 6.73817 22.1443C6.78344 22.17 6.83461 22.1836 6.88668 22.1836H17.1132C17.1654 22.1836 17.2166 22.17 17.2619 22.1443C17.3072 22.1185 17.3451 22.0814 17.3717 22.0366C17.3984 21.9918 17.4129 21.9408 17.414 21.8887C17.415 21.8366 17.4025 21.7851 17.3776 21.7393H17.3781ZM11.7856 2.63281C11.7856 2.57583 11.8083 2.52119 11.8486 2.4809C11.8888 2.4406 11.9435 2.41797 12.0005 2.41797C12.0575 2.41797 12.1121 2.4406 12.1524 2.4809C12.1927 2.52119 12.2153 2.57583 12.2153 2.63281V13.4609H11.7856V2.63281ZM11.27 14.0625H12.7309V14.4922H11.27V14.0625ZM10.5395 15.0938H13.4614C14.2524 15.0948 15.0147 15.3901 15.5998 15.9223C16.185 16.4544 16.5511 17.1853 16.627 17.9727H7.37394C7.44981 17.1853 7.81597 16.4544 8.40113 15.9223C8.9863 15.3901 9.74857 15.0948 10.5395 15.0938ZM15.2618 21.582C15.0942 21.1646 14.9717 20.7305 14.8964 20.2871C14.8814 20.2096 14.8365 20.1411 14.7714 20.0963C14.7063 20.0516 14.6263 20.0342 14.5485 20.048C14.4707 20.0617 14.4015 20.1055 14.3557 20.1699C14.3099 20.2342 14.2913 20.314 14.3038 20.392C14.3752 20.7965 14.4795 21.1945 14.6156 21.582H13.6505C13.4786 21.137 13.3832 20.3789 13.3012 19.63C13.2969 19.5908 13.2849 19.5528 13.2659 19.5182C13.2469 19.4835 13.2213 19.453 13.1905 19.4283C13.1597 19.4036 13.1244 19.3852 13.0865 19.3741C13.0486 19.3631 13.0088 19.3596 12.9696 19.3639C12.9303 19.3682 12.8923 19.3802 12.8577 19.3992C12.8231 19.4182 12.7925 19.4438 12.7678 19.4746C12.7431 19.5054 12.7247 19.5407 12.7137 19.5787C12.7026 19.6166 12.6991 19.6563 12.7034 19.6955C12.755 20.332 12.8595 20.963 13.0161 21.582H10.7862C10.893 21.1842 10.9634 20.7775 10.9964 20.3669C11.0036 20.2874 10.979 20.2083 10.928 20.147C10.8769 20.0857 10.8036 20.0472 10.7241 20.04C10.6447 20.0327 10.5656 20.0573 10.5043 20.1084C10.443 20.1594 10.4045 20.2328 10.3972 20.3122C10.3638 20.7426 10.2847 21.1683 10.1614 21.582H9.09235C9.26483 20.9558 9.40288 20.3207 9.50588 19.6794C9.5122 19.6404 9.51078 19.6005 9.50169 19.5621C9.49261 19.5236 9.47605 19.4874 9.45294 19.4553C9.42984 19.4233 9.40066 19.3961 9.36705 19.3754C9.33345 19.3546 9.29608 19.3407 9.25709 19.3343C9.17834 19.3216 9.09775 19.3406 9.03304 19.3873C9.001 19.4104 8.97383 19.4396 8.95307 19.4732C8.93231 19.5068 8.91837 19.5441 8.91205 19.5831C8.80403 20.2578 8.65526 20.9253 8.46655 21.582H7.3473C7.6761 20.6048 7.90675 19.5972 8.03583 18.5742H15.9651C16.0936 19.5972 16.3239 20.6048 16.6526 21.582H15.2618Z" fill="black"/>
<path d="M13.6113 16.082H10.3887C10.3089 16.082 10.2324 16.1137 10.176 16.1701C10.1196 16.2265 10.0879 16.303 10.0879 16.3828C10.0879 16.4626 10.1196 16.5391 10.176 16.5955C10.2324 16.6519 10.3089 16.6836 10.3887 16.6836H13.6113C13.6911 16.6836 13.7676 16.6519 13.824 16.5955C13.8804 16.5391 13.9121 16.4626 13.9121 16.3828C13.9121 16.303 13.8804 16.2265 13.824 16.1701C13.7676 16.1137 13.6911 16.082 13.6113 16.082Z" fill="black"/>
</svg>
