<svg width="24" height="24" viewBox="0 0 24 24" fill="none" xmlns="http://www.w3.org/2000/svg">
<path fill-rule="evenodd" clip-rule="evenodd" d="M12 2.75C6.89421 2.75 2.75 6.89421 2.75 12C2.75 17.1058 6.89421 21.25 12 21.25C17.1058 21.25 21.25 17.1058 21.25 12C21.25 6.89421 17.1058 2.75 12 2.75ZM1.25 12C1.25 6.06579 6.06579 1.25 12 1.25C17.9342 1.25 22.75 6.06579 22.75 12C22.75 17.9342 17.9342 22.75 12 22.75C6.06579 22.75 1.25 17.9342 1.25 12Z" fill="#5E5B50"/>
<path fill-rule="evenodd" clip-rule="evenodd" d="M11.6289 6.76001C12.0431 6.76001 12.3789 7.0958 12.3789 7.51001V11.61C12.3789 11.7636 12.4375 11.9861 12.5679 12.2147C12.6983 12.4434 12.8599 12.607 12.9913 12.6848L12.9933 12.686L12.9932 12.686L16.0932 14.536C16.4489 14.7482 16.5652 15.2087 16.3529 15.5644C16.1407 15.92 15.6803 16.0363 15.3246 15.824L12.2266 13.9752C12.2262 13.975 12.2259 13.9748 12.2255 13.9746C11.8173 13.7324 11.4893 13.3513 11.2649 12.9578C11.0403 12.5639 10.8789 12.0865 10.8789 11.61V7.51001C10.8789 7.0958 11.2147 6.76001 11.6289 6.76001Z" fill="#5E5B50"/>
</svg>
