<svg width="38" height="39" viewBox="0 0 38 39" fill="none" xmlns="http://www.w3.org/2000/svg">
<g clip-path="url(#clip0_1777_10544)">
<path d="M20.4844 12.0362V19.3344C20.4844 20.1542 19.8198 20.8187 19 20.8187C18.1802 20.8187 17.5156 20.1542 17.5156 19.3344V12.0362C17.5156 11.2164 18.1802 10.5518 19 10.5518C19.8198 10.5518 20.4844 11.2164 20.4844 12.0362ZM19 23.6886C18.1802 23.6886 17.5156 24.3531 17.5156 25.1729V26.6325C17.5156 27.4523 18.1802 28.1169 19 28.1169C19.8198 28.1169 20.4844 27.4523 20.4844 26.6325V25.1729C20.4844 24.3531 19.8198 23.6886 19 23.6886ZM34.7301 15.9744C35.8873 21.4462 34.192 27.3087 29.7232 31.3175L32.7786 36.0441C33.2237 36.7326 33.0264 37.6515 32.3379 38.0965C31.6496 38.5414 30.7306 38.3443 30.2856 37.6558L27.3356 33.0924C22.222 36.2033 15.738 36.1789 10.6644 33.0924L7.71445 37.6558C7.27039 38.3428 6.35186 38.5425 5.66207 38.0965C4.97362 37.6515 4.7762 36.7326 5.22136 36.0441L8.2768 31.3175C3.87815 27.3713 2.09208 21.5438 3.26993 15.9744C1.20472 14.3165 0 11.8322 0 9.13612C0 4.29334 3.93983 0.353516 8.78253 0.353516C11.4727 0.353516 13.9523 1.55319 15.6103 3.61061C17.8928 3.12336 20.2133 3.146 22.3896 3.61061C24.0476 1.55319 26.5273 0.353516 29.2174 0.353516C34.0602 0.353516 38 4.29334 38 9.13612C38 11.8322 36.7953 14.3165 34.7301 15.9744ZM4.28584 12.8259C5.90722 9.16358 8.87656 6.22904 12.4636 4.63275C8.73978 1.57501 2.96875 4.19092 2.96875 9.13612C2.96875 10.5112 3.44286 11.8029 4.28584 12.8259ZM32.112 19.3344C32.112 12.0852 26.2069 6.22236 19 6.22236C11.7894 6.22236 5.888 12.0882 5.888 19.3344C5.888 26.5643 11.7701 32.4464 19 32.4464C26.2299 32.4464 32.112 26.5643 32.112 19.3344ZM35.0312 9.13612C35.0312 4.1855 29.2575 1.57731 25.5364 4.63275C29.1956 6.26118 32.1247 9.23564 33.7142 12.8259C34.5571 11.8029 35.0312 10.5112 35.0312 9.13612Z" fill="white"/>
</g>
<defs>
<clipPath id="clip0_1777_10544">
<rect width="38" height="38" fill="white" transform="translate(0 0.344238)"/>
</clipPath>
</defs>
</svg>
