<svg width="76" height="84" viewBox="0 0 76 84" fill="none" xmlns="http://www.w3.org/2000/svg">
<path d="M37.6538 11.0168C58.1731 11.0168 74.8075 27.2799 74.8075 47.3415C74.8075 67.4031 58.1731 83.6663 37.6538 83.6663C17.1343 83.6663 0.5 67.4031 0.5 47.3415C0.5 27.2799 17.1343 11.0168 37.6538 11.0168ZM37.6538 17.427C20.7554 17.427 7.05655 30.8202 7.05655 47.3415C7.05655 63.8629 20.7554 77.2561 37.6538 77.2561C54.5522 77.2561 68.251 63.8629 68.251 47.3415C68.251 30.8202 54.5522 17.427 37.6538 17.427ZM37.6538 23.8373C39.3134 23.8373 40.6851 25.043 40.9023 26.6075L40.932 27.0424V46.2732C40.932 48.0433 39.4642 49.4783 37.6538 49.4783C35.9941 49.4783 34.6224 48.2723 34.4052 46.7082L34.3755 46.2732V27.0424C34.3755 25.2723 35.8433 23.8373 37.6538 23.8373ZM68.8944 11.5027L69.2554 11.7584L74.3188 15.8789C75.7106 17.0113 75.8994 19.0322 74.7415 20.3927C73.6794 21.6399 71.854 21.8992 70.4854 21.0615L70.1244 20.8058L65.061 16.6854C63.6693 15.5529 63.4804 13.532 64.6383 12.1715C65.7005 10.9243 67.5258 10.665 68.8944 11.5027ZM47.4886 0.333008C49.2991 0.333008 50.7668 1.76801 50.7668 3.53814C50.7668 5.16079 49.5333 6.50177 47.9335 6.71399L47.4886 6.74326H27.8189C26.0084 6.74326 24.5407 5.30826 24.5407 3.53814C24.5407 1.91549 25.774 0.574504 27.3741 0.362281L27.8189 0.333008H47.4886Z" fill="#FFB31F"/>
</svg>
