<svg width="10" height="11" viewBox="0 0 10 11" fill="none" xmlns="http://www.w3.org/2000/svg">
<path d="M0.565272 1.1567L0.607633 1.10763C0.762957 0.952309 1.00601 0.938192 1.17728 1.06527L1.22635 1.10763L5.00033 4.88141L8.77432 1.10763C8.94518 0.936781 9.22214 0.936781 9.393 1.10763C9.56386 1.27849 9.56386 1.5555 9.393 1.72635L5.61924 5.50033L9.393 9.27432C9.54834 9.4296 9.56246 9.67268 9.43535 9.84394L9.393 9.893C9.23772 10.0483 8.99464 10.0625 8.82338 9.93535L8.77432 9.893L5.00033 6.11924L1.22635 9.893C1.0555 10.0639 0.778486 10.0639 0.607633 9.893C0.436781 9.72214 0.436781 9.44518 0.607633 9.27432L4.38141 5.50033L0.607633 1.72635C0.452309 1.57103 0.438192 1.32798 0.565272 1.1567L0.607633 1.10763L0.565272 1.1567Z" fill="#5E5B50"/>
</svg>
