<svg width="25" height="24" viewBox="0 0 25 24" fill="none" xmlns="http://www.w3.org/2000/svg">
<path d="M21.5 2H3.5C3.23503 2.00079 2.98113 2.1064 2.79377 2.29377C2.6064 2.48113 2.50079 2.73503 2.5 3V17C2.50079 17.265 2.6064 17.5189 2.79377 17.7062C2.98113 17.8936 3.23503 17.9992 3.5 18H10.1667V19.3333H8.83333C8.56836 19.3341 8.31447 19.4397 8.1271 19.6271C7.93974 19.8145 7.83413 20.0684 7.83333 20.3333V21.6667C7.83333 21.7551 7.86845 21.8399 7.93096 21.9024C7.99348 21.9649 8.07826 22 8.16667 22H16.8333C16.9217 22 17.0065 21.9649 17.069 21.9024C17.1315 21.8399 17.1667 21.7551 17.1667 21.6667V20.3333C17.1659 20.0684 17.0603 19.8145 16.8729 19.6271C16.6855 19.4397 16.4316 19.3341 16.1667 19.3333H14.8333V18H21.5C21.765 17.9992 22.0189 17.8936 22.2062 17.7062C22.3936 17.5189 22.4992 17.265 22.5 17V3C22.4992 2.73503 22.3936 2.48113 22.2062 2.29377C22.0189 2.1064 21.765 2.00079 21.5 2ZM16.8333 2.66667H17.5C17.942 2.66667 18.366 2.84226 18.6785 3.15482C18.9911 3.46738 19.1667 3.89131 19.1667 4.33333V6.89333C18.8542 6.74478 18.5127 6.66736 18.1667 6.66667V6.32333C18.3732 6.16997 18.5411 5.97044 18.6568 5.74068C18.7726 5.51091 18.833 5.25727 18.8333 5V4.33333C18.8333 4.24493 18.7982 4.16014 18.7357 4.09763C18.6732 4.03512 18.5884 4 18.5 4H18.45C18.3263 4.0006 18.2049 3.96617 18.0999 3.9007C17.9949 3.83522 17.9106 3.74137 17.8567 3.63L17.7967 3.51667C17.7727 3.46993 17.7383 3.42935 17.6961 3.39813C17.6539 3.3669 17.605 3.34587 17.5533 3.33667C17.5016 3.32785 17.4484 3.33174 17.3985 3.348C17.3486 3.36426 17.3033 3.3924 17.2667 3.43L17.08 3.61333C16.9567 3.7368 16.8101 3.83455 16.6488 3.90093C16.4874 3.9673 16.3145 4.00098 16.14 4H15.8333C15.7449 4 15.6601 4.03512 15.5976 4.09763C15.5351 4.16014 15.5 4.24493 15.5 4.33333V5C15.5003 5.25727 15.5607 5.51091 15.6765 5.74068C15.7922 5.97044 15.9601 6.16997 16.1667 6.32333V6.66667C15.8207 6.66736 15.4791 6.74478 15.1667 6.89333V4.33333C15.1667 3.89131 15.3423 3.46738 15.6548 3.15482C15.9674 2.84226 16.3913 2.66667 16.8333 2.66667ZM18.06 7.32333C17.815 7.54445 17.4967 7.66685 17.1667 7.66685C16.8366 7.66685 16.5183 7.54445 16.2733 7.32333C16.4291 7.29754 16.5708 7.21748 16.6733 7.09731C16.7758 6.97714 16.8325 6.8246 16.8333 6.66667V6.63333C17.0533 6.67778 17.28 6.67778 17.5 6.63333V6.66667C17.5009 6.8246 17.5576 6.97714 17.66 7.09731C17.7625 7.21748 17.9042 7.29754 18.06 7.32333ZM17.1667 6C16.9017 5.99921 16.6478 5.8936 16.4604 5.70623C16.2731 5.51887 16.1675 5.26497 16.1667 5V4.66667C16.6311 4.66096 17.079 4.49358 17.4333 4.19333C17.6214 4.41891 17.8795 4.57499 18.1667 4.63667V5C18.1659 5.26497 18.0603 5.51887 17.8729 5.70623C17.6855 5.8936 17.4316 5.99921 17.1667 6ZM17.1667 8.33333C17.4903 8.33471 17.8093 8.25673 18.0958 8.10622C18.3823 7.95571 18.6275 7.73726 18.81 7.47C19.0599 7.57389 19.2807 7.73719 19.4532 7.94572C19.6257 8.15425 19.7448 8.40172 19.8 8.66667H14.5333C14.5886 8.40172 14.7076 8.15425 14.8801 7.94572C15.0526 7.73719 15.2734 7.57389 15.5233 7.47C15.7058 7.73726 15.951 7.95571 16.2375 8.10622C16.524 8.25673 16.843 8.33471 17.1667 8.33333ZM12.8333 2.66667H15.2033C14.9806 2.88333 14.8036 3.14246 14.6828 3.42874C14.562 3.71501 14.4998 4.02261 14.5 4.33333V7.37C14.1556 7.72419 13.9317 8.17791 13.86 8.66667H12.8333V2.66667ZM3.16667 3C3.16667 2.91159 3.20179 2.82681 3.2643 2.7643C3.32681 2.70179 3.41159 2.66667 3.5 2.66667H12.1667V8.66667H11.1667C11.1667 8.22464 10.9911 7.80072 10.6785 7.48816C10.366 7.17559 9.94203 7 9.5 7H8.83333V6.65667C9.0399 6.5033 9.20775 6.30377 9.3235 6.07401C9.43925 5.84425 9.49969 5.59061 9.5 5.33333V4.90667C9.60103 4.84881 9.68503 4.76535 9.74355 4.6647C9.80207 4.56405 9.83303 4.44976 9.83333 4.33333V4C9.83254 3.73503 9.72693 3.48113 9.53957 3.29377C9.3522 3.1064 9.09831 3.00079 8.83333 3H6.83333C6.56836 3.00079 6.31447 3.1064 6.1271 3.29377C5.93974 3.48113 5.83412 3.73503 5.83333 4V4.33333C5.83363 4.44976 5.8646 4.56405 5.92312 4.6647C5.98164 4.76535 6.06564 4.84881 6.16667 4.90667V5.33333C6.16697 5.59061 6.22742 5.84425 6.34317 6.07401C6.45892 6.30377 6.62677 6.5033 6.83333 6.65667V7H6.16667C5.72464 7 5.30072 7.17559 4.98816 7.48816C4.67559 7.80072 4.5 8.22464 4.5 8.66667H3.16667V3ZM6.83333 5H7.17C7.20617 4.99961 7.2421 4.994 7.27667 4.98333L8.14333 4.69333L8.71667 4.96667C8.75374 4.98219 8.7932 4.99121 8.83333 4.99333V5.33333C8.83333 5.59855 8.72798 5.8529 8.54044 6.04044C8.3529 6.22798 8.09855 6.33333 7.83333 6.33333C7.56812 6.33333 7.31376 6.22798 7.12623 6.04044C6.93869 5.8529 6.83333 5.59855 6.83333 5.33333V5ZM6.5 4.33333V4C6.5 3.91159 6.53512 3.82681 6.59763 3.7643C6.66014 3.70179 6.74493 3.66667 6.83333 3.66667H8.83333C8.92174 3.66667 9.00652 3.70179 9.06904 3.7643C9.13155 3.82681 9.16667 3.91159 9.16667 4V4.33333H8.93667L8.31 4.03333C8.23181 3.99622 8.14243 3.99026 8.06 4.01667L7.11667 4.33333H6.5ZM8.39 7.49333C8.22552 7.60384 8.03199 7.66313 7.83384 7.66372C7.63569 7.66432 7.4418 7.60618 7.27667 7.49667C7.34675 7.43426 7.40287 7.35776 7.44136 7.27218C7.47984 7.18659 7.49983 7.09384 7.5 7V6.96667C7.72 7.01111 7.94667 7.01111 8.16667 6.96667V7C8.16693 7.09334 8.18697 7.18557 8.22546 7.2706C8.26396 7.35563 8.32004 7.43155 8.39 7.49333ZM7.83 8.33C8.19119 8.33054 8.54298 8.21484 8.83333 8L9.27333 7.66667H9.5C9.76497 7.66746 10.0189 7.77307 10.2062 7.96043C10.3936 8.1478 10.4992 8.40169 10.5 8.66667H5.16667C5.16746 8.40169 5.27307 8.1478 5.46043 7.96043C5.6478 7.77307 5.90169 7.66746 6.16667 7.66667H6.38333L6.83333 8.00333C7.12151 8.21709 7.4712 8.33171 7.83 8.33ZM7.83333 9.33333C8.36352 9.33413 8.87177 9.5451 9.24667 9.92C9.62157 10.2949 9.83254 10.8031 9.83333 11.3333V12.9933C9.83414 13.0379 9.84318 13.082 9.86 13.1233L10.0167 13.4967C9.74606 13.3895 9.45773 13.3341 9.16667 13.3333H8.83333V12.99C9.0399 12.8366 9.20775 12.6371 9.3235 12.4073C9.43925 12.1776 9.49969 11.9239 9.5 11.6667V11C9.5 10.9116 9.46488 10.8268 9.40237 10.7643C9.33986 10.7018 9.25507 10.6667 9.16667 10.6667H6.5C6.41159 10.6667 6.32681 10.7018 6.2643 10.7643C6.20179 10.8268 6.16667 10.9116 6.16667 11V11.6667C6.16697 11.9239 6.22742 12.1776 6.34317 12.4073C6.45892 12.6371 6.62677 12.8366 6.83333 12.99V13.3333H6.5C6.20783 13.3337 5.91834 13.3892 5.64667 13.4967L5.80667 13.1033C5.82375 13.0633 5.83281 13.0202 5.83333 12.9767V11.3333C5.83333 10.8029 6.04405 10.2942 6.41912 9.91912C6.79419 9.54405 7.3029 9.33333 7.83333 9.33333ZM7.83333 12.6667C7.56836 12.6659 7.31447 12.5603 7.1271 12.3729C6.93974 12.1855 6.83413 11.9316 6.83333 11.6667V11.3333H8.83333V11.6667C8.83254 11.9316 8.72693 12.1855 8.53957 12.3729C8.3522 12.5603 8.09831 12.6659 7.83333 12.6667ZM6.00667 14.08C6.15587 14.5763 6.45514 15.0141 6.86333 15.3333H4.86667C4.92815 15.042 5.06618 14.7722 5.26656 14.5519C5.46693 14.3316 5.7224 14.1687 6.00667 14.08ZM6.68667 14H6.83333C7.00998 13.9995 7.17925 13.9291 7.30416 13.8042C7.42907 13.6792 7.49947 13.51 7.5 13.3333V13.3C7.72 13.3444 7.94667 13.3444 8.16667 13.3V13.3333C8.16719 13.51 8.2376 13.6792 8.36251 13.8042C8.48742 13.9291 8.65668 13.9995 8.83333 14H8.98C8.74333 14.6033 8.30667 15 7.83333 15C7.36 15 6.92333 14.6033 6.68667 14ZM9.66 14.08C9.94426 14.1687 10.1997 14.3316 10.4001 14.5519C10.6005 14.7722 10.7385 15.042 10.8 15.3333H8.80333C9.21153 15.0141 9.5108 14.5763 9.66 14.08ZM10.5 12.9267V11.3333C10.5012 10.9829 10.4329 10.6357 10.299 10.3119C10.1651 9.98801 9.96832 9.69394 9.72 9.44667C9.68 9.40667 9.63667 9.37 9.59333 9.33333H12.1667V15.3333H11.4733C11.4253 14.9856 11.2975 14.6536 11.1 14.3633L10.5 12.9267ZM3.16667 9.33333H6.07667C5.79117 9.58256 5.56228 9.88995 5.40533 10.2349C5.24838 10.5798 5.167 10.9544 5.16667 11.3333V12.91L4.56667 14.3633C4.36916 14.6536 4.24139 14.9856 4.19333 15.3333H3.16667V9.33333ZM16.1667 20C16.2551 20 16.3399 20.0351 16.4024 20.0976C16.4649 20.1601 16.5 20.2449 16.5 20.3333V21.3333H8.5V20.3333C8.5 20.2449 8.53512 20.1601 8.59763 20.0976C8.66014 20.0351 8.74493 20 8.83333 20H16.1667ZM10.8333 19.3333V18H14.1667V19.3333H10.8333ZM21.8333 17C21.8333 17.0884 21.7982 17.1732 21.7357 17.2357C21.6732 17.2982 21.5884 17.3333 21.5 17.3333H3.5C3.41159 17.3333 3.32681 17.2982 3.2643 17.2357C3.20179 17.1732 3.16667 17.0884 3.16667 17V16H21.8333V17ZM18.5 11.6667C18.5 11.9319 18.3946 12.1862 18.2071 12.3738C18.0196 12.5613 17.7652 12.6667 17.5 12.6667C17.2348 12.6667 16.9804 12.5613 16.7929 12.3738C16.6054 12.1862 16.5 11.9319 16.5 11.6667H18.5ZM16.1667 11C15.99 10.9995 15.8208 10.9291 15.6958 10.8042C15.5709 10.6792 15.5005 10.51 15.5 10.3333H18.5C18.5884 10.3333 18.6732 10.3685 18.7357 10.431C18.7982 10.4935 18.8333 10.5783 18.8333 10.6667V11H16.1667ZM18.39 13.99C18.1462 14.2109 17.829 14.3333 17.5 14.3333C17.171 14.3333 16.8538 14.2109 16.61 13.99C16.7652 13.9635 16.9061 13.8831 17.0079 13.763C17.1097 13.6429 17.1659 13.4908 17.1667 13.3333V13.3C17.3867 13.3444 17.6133 13.3444 17.8333 13.3V13.3333C17.8341 13.4908 17.8903 13.6429 17.9921 13.763C18.0939 13.8831 18.2348 13.9635 18.39 13.99ZM17.5 15C17.8416 14.9994 18.1774 14.9115 18.4755 14.7447C18.7736 14.5778 19.0242 14.3375 19.2033 14.0467C19.5151 14.1174 19.8 14.2763 20.024 14.5044C20.248 14.7325 20.4017 15.0203 20.4667 15.3333H14.5333C14.5983 15.0203 14.752 14.7325 14.976 14.5044C15.2 14.2763 15.4849 14.1174 15.7967 14.0467C15.9758 14.3375 16.2264 14.5778 16.5245 14.7447C16.8226 14.9115 17.1584 14.9994 17.5 15ZM21.8333 15.3333H21.14C21.0599 14.7785 20.7827 14.271 20.3592 13.9037C19.9356 13.5365 19.3939 13.334 18.8333 13.3333H18.5V12.99C18.7066 12.8366 18.8744 12.6371 18.9902 12.4073C19.1059 12.1776 19.1664 11.9239 19.1667 11.6667V11.5733C19.2677 11.5155 19.3517 11.432 19.4102 11.3314C19.4687 11.2307 19.4997 11.1164 19.5 11V10.6667C19.4992 10.4017 19.3936 10.1478 19.2062 9.96043C19.0189 9.77307 18.765 9.66746 18.5 9.66667H15.1667C15.0783 9.66667 14.9935 9.70179 14.931 9.7643C14.8685 9.82681 14.8333 9.91159 14.8333 10V10.3333C14.8343 10.6282 14.933 10.9144 15.1139 11.1472C15.2948 11.38 15.5478 11.5463 15.8333 11.62V11.6667C15.8336 11.9239 15.8941 12.1776 16.0098 12.4073C16.1256 12.6371 16.2934 12.8366 16.5 12.99V13.3333H16.1667C16.101 13.3333 16.0353 13.3367 15.97 13.3433C15.4455 13.3888 14.9518 13.6101 14.5688 13.9713C14.1858 14.3325 13.9361 14.8124 13.86 15.3333H12.8333V9.33333H21.8333V15.3333ZM21.8333 8.66667H20.4733C20.4016 8.17791 20.1777 7.72419 19.8333 7.37V4.33333C19.8335 4.02261 19.7713 3.71501 19.6505 3.42874C19.5297 3.14246 19.3527 2.88333 19.13 2.66667H21.5C21.5884 2.66667 21.6732 2.70179 21.7357 2.7643C21.7982 2.82681 21.8333 2.91159 21.8333 3V8.66667Z" fill="#5E5B50"/>
<path d="M20.166 16.3335H19.4993C19.4109 16.3335 19.3262 16.3686 19.2636 16.4311C19.2011 16.4936 19.166 16.5784 19.166 16.6668C19.166 16.7552 19.2011 16.84 19.2636 16.9025C19.3262 16.965 19.4109 17.0002 19.4993 17.0002H20.166C20.2544 17.0002 20.3392 16.965 20.4017 16.9025C20.4642 16.84 20.4993 16.7552 20.4993 16.6668C20.4993 16.5784 20.4642 16.4936 20.4017 16.4311C20.3392 16.3686 20.2544 16.3335 20.166 16.3335Z" fill="#5E5B50"/>
<path d="M4.16732 4.00016H4.50065C4.58906 4.00016 4.67384 3.96504 4.73635 3.90253C4.79887 3.84002 4.83398 3.75523 4.83398 3.66683C4.83398 3.57842 4.79887 3.49364 4.73635 3.43113C4.67384 3.36862 4.58906 3.3335 4.50065 3.3335H4.16732C4.07891 3.3335 3.99413 3.36862 3.93162 3.43113C3.8691 3.49364 3.83398 3.57842 3.83398 3.66683C3.83398 3.75523 3.8691 3.84002 3.93162 3.90253C3.99413 3.96504 4.07891 4.00016 4.16732 4.00016Z" fill="#5E5B50"/>
</svg>
