<svg width="20" height="20" viewBox="0 0 20 20" fill="none" xmlns="http://www.w3.org/2000/svg">
<path d="M6.65654 6.14648L6.64483 10.2764L4.5293 10.9199L4.541 6.78996L6.65654 6.14648Z" fill="#90673B"/>
<path d="M4.54095 6.78906L4.52924 10.919L3.10938 11.7441L3.12108 7.6142L4.54095 6.78906Z" fill="#9E6E46"/>
<path d="M3.12154 7.61523L3.10983 11.7451L2.00586 12.9726L2.01757 8.84273L3.12154 7.61523Z" fill="#B27E4B"/>
<path d="M2.01693 8.84219L2.00522 12.9721L1.84375 12.9229L1.85546 8.79297L2.01693 8.84219Z" fill="#9E6E46"/>
<path d="M6.57079 6.05273L6.6563 6.1461L4.54077 6.78957L3.1209 7.61471L2.01694 8.84221L1.85547 8.79299L2.98276 7.5451L4.44355 6.6996L6.57079 6.05273Z" fill="#A27442"/>
<path d="M15.0863 10.9688L15.0746 15.0986L13.9473 16.3465L13.959 12.2166L15.0863 10.9688Z" fill="#B27E4B"/>
<path d="M13.9588 12.2168L13.9471 16.3467L12.4863 17.1922L12.498 13.0623L13.9588 12.2168Z" fill="#9E6E46"/>
<path d="M12.4983 13.0625L12.4866 17.1924L10.3594 17.8393L10.3711 13.7094L12.4983 13.0625Z" fill="#B27E4B"/>
<path d="M10.3707 13.7086L10.359 17.8385L10.2734 17.7451L10.2851 13.6152L10.3707 13.7086Z" fill="#9E6E46"/>
<path d="M15.086 10.9692L13.9587 12.2171L12.4979 13.0626L10.3707 13.7094L10.2852 13.616L12.4007 12.9726L13.8206 12.1474L14.9245 10.9199L15.086 10.9692Z" fill="#A27442"/>
<path d="M3.99083 14.1365C3.99083 14.1771 3.97545 14.2064 3.95307 14.219L3.80484 14.3057C3.82862 14.2917 3.8426 14.2624 3.8426 14.2218C3.8426 14.1407 3.78665 14.0428 3.71534 14.0023C3.67898 13.9813 3.64682 13.9785 3.62305 13.9925L3.77128 13.9072C3.79505 13.8932 3.82722 13.896 3.86358 13.9156C3.93489 13.9575 3.99083 14.054 3.99083 14.1365Z" fill="#354A59"/>
<path d="M3.71492 14.0022C3.64439 13.9615 3.58617 13.9926 3.58594 14.0747C3.58571 14.1557 3.64355 14.2559 3.71409 14.2966C3.78551 14.3379 3.84195 14.3037 3.84218 14.2226C3.84241 14.1405 3.78635 14.0434 3.71492 14.0022Z" fill="#2E414C"/>
<path d="M3.53125 13.0692C3.53125 13.107 3.54556 13.1343 3.56639 13.146L3.70435 13.2267C3.68222 13.2137 3.66921 13.1864 3.66921 13.1486C3.66921 13.0731 3.72127 12.982 3.78764 12.9443C3.82148 12.9248 3.85142 12.9222 3.87354 12.9352L3.73559 12.8558C3.71347 12.8428 3.68352 12.8454 3.64969 12.8636C3.58331 12.9026 3.53125 12.9924 3.53125 13.0692Z" fill="#354A59"/>
<path d="M3.78836 12.9443C3.85401 12.9064 3.90819 12.9354 3.90841 13.0118C3.90862 13.0872 3.85479 13.1805 3.78914 13.2184C3.72266 13.2567 3.67013 13.2249 3.66992 13.1495C3.6697 13.0731 3.72188 12.9827 3.78836 12.9443Z" fill="#2E414C"/>
<path d="M1.91797 14.1687L3.90534 13.0138L3.90595 12.7988L1.91858 13.9538L1.91797 14.1687Z" fill="#525566"/>
<path d="M2.63352 13.3228L1.73242 13.8463L1.91877 13.9542L2.81865 13.4307L3.71976 13.9542L3.9061 13.8463L3.005 13.3228L3.9061 12.7993L3.71976 12.6914L2.81865 13.2149L1.91877 12.6914L1.73242 12.7993L2.63352 13.3228Z" fill="#474B59"/>
<path d="M1.73303 13.8457L1.73242 14.0607L1.91872 14.1682L1.91933 13.9533L1.73303 13.8457Z" fill="#3F434F"/>
<path d="M3.72041 14.1687L1.73303 13.0138L1.73242 12.7988L3.7198 13.9538L3.72041 14.1687Z" fill="#525566"/>
<path d="M3.907 13.8457L3.9076 14.0607L3.72131 14.1682L3.7207 13.9533L3.907 13.8457Z" fill="#3F434F"/>
<path d="M2.60742 11.0078L2.62383 13.317L2.81949 13.4307L2.80308 11.1215L2.60742 11.0078Z" fill="#525566"/>
<path d="M2.80273 11.121L2.81914 13.4303L3.01526 13.317L2.99885 11.0078L2.80273 11.121Z" fill="#5B5E71"/>
<path d="M2.60742 11.0078L2.80308 11.1215L2.9992 11.0082L2.80354 10.8945L2.60742 11.0078Z" fill="#F1C40F"/>
<path d="M2.625 13.5451L2.81861 13.4316L3.01473 13.5461L2.81987 13.6465L2.625 13.5451Z" fill="#525566"/>
<path d="M2.81961 13.6465L2.81836 13.4316L3.01448 13.5461L2.81961 13.6465Z" fill="#525566"/>
<path d="M2.63383 13.3242L2.44922 13.4315L2.62543 13.5449L2.81904 13.4315L2.63383 13.3242Z" fill="#474B59"/>
<path d="M9.43164 5.79506L9.5106 5.84066L9.68735 5.73776L9.7197 5.71891L9.68761 5.70032L9.64177 5.67383L9.43164 5.79506Z" fill="#C4C6C6"/>
<path d="M9.63514 5.8525L9.84431 5.73095C9.81224 5.74958 9.76786 5.747 9.71893 5.71875L9.50977 5.84031C9.55869 5.86855 9.60307 5.87113 9.63514 5.8525Z" fill="#C4C6C6"/>
<path d="M9.67969 5.92648L9.88886 5.80493C9.93162 5.78008 9.95816 5.7273 9.95837 5.65234L9.7492 5.7739C9.74899 5.84885 9.72245 5.90163 9.67969 5.92648Z" fill="#D4D6D6"/>
<path d="M9.74805 5.7742L9.95722 5.65264L9.96103 4.51172L9.75186 4.63327L9.74805 5.7742Z" fill="#D4D6D6"/>
<path d="M9.75131 4.63383L9.96049 4.51228L9.89862 4.47656L9.68945 4.59812L9.75131 4.63383Z" fill="#ECF0F1"/>
<path d="M9.36914 5.82937L9.50948 5.91037C9.57621 5.94908 9.63683 5.95213 9.68038 5.9259L9.6814 5.92539L9.68318 5.92412C9.68624 5.92208 9.6893 5.92004 9.6921 5.91775C9.69516 5.91546 9.69821 5.91266 9.70101 5.91011C9.70152 5.90935 9.70229 5.90884 9.70305 5.90808C9.70585 5.90527 9.70866 5.90196 9.71146 5.89865C9.71426 5.89509 9.71706 5.89152 9.71961 5.88744C9.72165 5.88439 9.72368 5.88082 9.72547 5.87726C9.72674 5.87522 9.72751 5.87344 9.72852 5.8714C9.73183 5.86452 9.73489 5.85688 9.73743 5.84899C9.73845 5.84568 9.73947 5.84211 9.74049 5.83854C9.74049 5.83854 9.74074 5.83752 9.741 5.83676C9.74176 5.83345 9.74253 5.82988 9.74329 5.82632C9.74431 5.82122 9.74533 5.81587 9.74609 5.81052C9.7466 5.80568 9.74711 5.80059 9.74737 5.7955C9.74788 5.79219 9.74813 5.78887 9.74788 5.78556C9.74839 5.782 9.74839 5.77818 9.74839 5.77436L9.74864 5.73182L9.7517 4.77696L9.75195 4.73315L9.75221 4.63331L9.69032 4.59766L9.68981 4.76907L9.68955 4.81313L9.68675 5.69897L9.6865 5.73641V5.73845C9.68624 5.7927 9.6674 5.83116 9.63709 5.85026C9.63581 5.85102 9.63454 5.85153 9.63327 5.85204C9.63097 5.85357 9.62868 5.85484 9.62613 5.85561C9.6218 5.85765 9.61722 5.85943 9.61238 5.86045C9.60907 5.86121 9.60576 5.86198 9.60245 5.86223C9.57545 5.86605 9.54361 5.85892 9.50974 5.83931L9.43078 5.79372L9.36914 5.82937Z" fill="#E0E2E2"/>
<path d="M9.36719 4.80499C9.36705 4.82566 9.3807 4.84646 9.40813 4.86228C9.46245 4.89349 9.55014 4.89349 9.60405 4.86228L10.1687 4.53408C10.1956 4.5184 10.209 4.49786 10.209 4.47733L10.2091 4.43359C10.2091 4.45413 10.1957 4.47453 10.169 4.49007L9.60418 4.81827C9.55027 4.84962 9.46258 4.84962 9.4084 4.81827C9.38097 4.80246 9.36732 4.78179 9.36732 4.76112L9.36719 4.80499Z" fill="#474B59"/>
<path d="M10.1681 4.37705C10.1952 4.39269 10.2088 4.41326 10.2089 4.43378C10.209 4.45431 10.1957 4.47487 10.1687 4.49051L9.60403 4.81869C9.55012 4.85002 9.46241 4.85002 9.40815 4.81869C9.3538 4.78732 9.35351 4.73651 9.40742 4.70518L9.97214 4.377C10.0261 4.34568 10.1138 4.34568 10.1681 4.37705Z" fill="#5B5E71"/>
<path d="M11.8672 5.56194L11.9203 5.53107L11.9227 4.69336L11.8696 4.72423L11.8672 5.56194Z" fill="#31323C"/>
<path d="M11.8684 4.72373L11.9216 4.69286L11.6078 4.51172L11.5547 4.54259L11.8684 4.72373Z" fill="#4E5161"/>
<path d="M11.5551 4.54297L11.5527 5.38067L11.8665 5.56182L11.8689 4.72411L11.5551 4.54297Z" fill="#464957"/>
<path d="M11.8463 9.66581C11.8463 9.70636 11.8309 9.73573 11.8085 9.74831L11.6603 9.83501C11.6841 9.82103 11.6981 9.79167 11.6981 9.75111C11.6981 9.67 11.6421 9.57212 11.5708 9.53156C11.5345 9.51059 11.5023 9.5078 11.4785 9.52178L11.6267 9.43647C11.6505 9.42249 11.6827 9.42529 11.719 9.44486C11.7904 9.48681 11.8463 9.5833 11.8463 9.66581Z" fill="#354A59"/>
<path d="M11.5704 9.53149C11.4999 9.49077 11.4416 9.5219 11.4414 9.60397C11.4412 9.68501 11.499 9.78521 11.5696 9.82593C11.641 9.86717 11.6974 9.83296 11.6977 9.75191C11.6979 9.66984 11.6418 9.57273 11.5704 9.53149Z" fill="#2E414C"/>
<path d="M11.3867 8.59854C11.3867 8.63628 11.401 8.66361 11.4219 8.67532L11.5598 8.75601C11.5377 8.743 11.5247 8.71567 11.5247 8.67793C11.5247 8.60244 11.5767 8.51134 11.6431 8.47359C11.6769 8.45407 11.7069 8.45146 11.729 8.46448L11.5911 8.38509C11.5689 8.37208 11.539 8.37467 11.5052 8.39289C11.4388 8.43194 11.3867 8.52175 11.3867 8.59854Z" fill="#354A59"/>
<path d="M11.6438 8.47362C11.7095 8.43571 11.7637 8.46469 11.7639 8.54107C11.7641 8.6165 11.7103 8.70975 11.6446 8.74765C11.5781 8.78603 11.5256 8.75419 11.5254 8.67876C11.5252 8.60238 11.5774 8.512 11.6438 8.47362Z" fill="#2E414C"/>
<path d="M9.96534 8.59463C9.96534 8.63237 9.95102 8.65971 9.9302 8.67142L9.79224 8.75211C9.81437 8.7391 9.82738 8.71176 9.82738 8.67402C9.82738 8.59853 9.77532 8.50743 9.70895 8.46968C9.67511 8.45017 9.64517 8.44756 9.62305 8.46057L9.761 8.38118C9.78313 8.36817 9.81307 8.37077 9.84691 8.38899C9.91327 8.42804 9.96534 8.51784 9.96534 8.59463Z" fill="#354A59"/>
<path d="M9.70989 8.46971C9.64424 8.43181 9.59006 8.46078 9.58984 8.53716C9.58963 8.6126 9.64347 8.70585 9.70911 8.74375C9.77559 8.78213 9.82811 8.75029 9.82833 8.67485C9.82855 8.59847 9.77637 8.50809 9.70989 8.46971Z" fill="#2E414C"/>
<path d="M9.4707 9.73026C9.4707 9.77081 9.48608 9.80019 9.50846 9.81277L9.6567 9.89947C9.63291 9.88549 9.61893 9.85612 9.61893 9.81557C9.61893 9.73446 9.67487 9.63657 9.74618 9.59602C9.78255 9.57504 9.81471 9.57224 9.83848 9.58623L9.69025 9.50093C9.66648 9.48695 9.63431 9.48974 9.59795 9.50931C9.52664 9.55126 9.4707 9.64775 9.4707 9.73026Z" fill="#354A59"/>
<path d="M9.7464 9.59594C9.81693 9.55522 9.87515 9.58635 9.87539 9.66842C9.87562 9.74947 9.81777 9.84966 9.74724 9.89039C9.67581 9.93163 9.61937 9.89741 9.61914 9.81636C9.61891 9.73429 9.67497 9.63718 9.7464 9.59594Z" fill="#2E414C"/>
<path d="M9.77539 9.69998L11.7628 8.54505L11.7634 8.33008L9.776 9.48502L9.77539 9.69998Z" fill="#525566"/>
<path d="M10.4909 8.85404L9.58984 9.37755L9.7762 9.48544L10.6761 8.96193L11.5772 9.48544L11.7635 9.37755L10.8624 8.85404L11.7635 8.33054L11.5772 8.22266L10.6761 8.74616L9.7762 8.22266L9.58984 8.33054L10.4909 8.85404Z" fill="#474B59"/>
<path d="M9.59045 9.37695L9.58984 9.59192L9.77614 9.69948L9.77675 9.48451L9.59045 9.37695Z" fill="#3F434F"/>
<path d="M11.5778 9.69998L9.59045 8.54505L9.58984 8.33008L11.5772 9.48502L11.5778 9.69998Z" fill="#525566"/>
<path d="M11.7644 9.37695L11.765 9.59192L11.5787 9.69948L11.5781 9.48451L11.7644 9.37695Z" fill="#3F434F"/>
<path d="M10.4648 6.53906L10.4812 8.84827L10.6769 8.96198L10.6605 6.65277L10.4648 6.53906Z" fill="#525566"/>
<path d="M10.6602 6.65229L10.6766 8.9615L10.8727 8.84827L10.8563 6.53906L10.6602 6.65229Z" fill="#5B5E71"/>
<path d="M10.4648 6.53901L10.6605 6.65272L10.8566 6.53949L10.661 6.42578L10.4648 6.53901Z" fill="#F1C40F"/>
<path d="M10.4824 9.07633L10.676 8.96289L10.8722 9.07739L10.6773 9.1778L10.4824 9.07633Z" fill="#525566"/>
<path d="M10.677 9.1778L10.6758 8.96289L10.8719 9.07739L10.677 9.1778Z" fill="#525566"/>
<path d="M10.4913 8.85547L10.3066 8.96272L10.4829 9.07615L10.6765 8.96272L10.4913 8.85547Z" fill="#474B59"/>
<path d="M12.6649 5.86692L12.6632 6.13761C12.6632 6.1782 12.6361 6.21879 12.582 6.25008L10.9432 7.2031C10.8349 7.26568 10.6582 7.26568 10.5483 7.2031L8.89928 6.25008C8.84431 6.21879 8.81641 6.17736 8.81641 6.13507L8.81894 5.86523C8.81894 5.90667 8.846 5.94895 8.90097 5.98024L10.5499 6.93242C10.6599 6.99584 10.8366 6.99584 10.9457 6.93242L12.5837 5.98024C12.6378 5.94895 12.6649 5.90836 12.6649 5.86692Z" fill="#C14242"/>
<path d="M8.90055 5.97946L10.55 6.93225C10.6593 6.99588 10.8355 6.99588 10.9448 6.93225L12.5829 5.97946C12.6922 5.91746 12.6905 5.81467 12.5812 5.75104L10.9318 4.79988C10.8225 4.73625 10.6463 4.73625 10.5369 4.79825L8.89891 5.75104C8.79124 5.81467 8.79124 5.91746 8.90055 5.97946Z" fill="#D8463F"/>
<path d="M12.9831 3.18989L12.978 5.01646C12.978 5.07903 12.956 5.123 12.9205 5.1433L12.7293 5.25655C12.7649 5.23541 12.7868 5.19144 12.7868 5.12971L12.7928 3.30314C12.7928 3.17799 12.7048 3.02493 12.5949 2.96151L10.9451 2.00933C10.8901 1.97804 10.8402 1.97466 10.8047 1.9958L10.995 1.88255C11.0314 1.86141 11.0813 1.86479 11.1362 1.89608L12.7852 2.84911C12.8952 2.91168 12.9831 3.06474 12.9831 3.18989Z" fill="#D8463F"/>
<path d="M10.9442 2.00956C10.8351 1.94659 10.7458 1.9969 10.7454 2.12222L10.7402 3.94866C10.7399 4.07398 10.8287 4.22716 10.9377 4.29012L12.5872 5.24241C12.6968 5.30569 12.7856 5.25507 12.7859 5.12975L12.7911 3.30331C12.7915 3.17799 12.7032 3.02512 12.5936 2.96184L10.9442 2.00956Z" fill="#E74C3C"/>
<path d="M11.3809 6.94936L11.4598 6.99495L11.6366 6.89205L11.6689 6.8732L11.6368 6.85461L11.591 6.82812L11.3809 6.94936Z" fill="#C4C6C6"/>
<path d="M11.5844 7.0068L11.7935 6.88524C11.7615 6.90387 11.7171 6.90129 11.6682 6.87305L11.459 6.9946C11.5079 7.02285 11.5523 7.02543 11.5844 7.0068Z" fill="#C4C6C6"/>
<path d="M11.6289 7.08078L11.8381 6.95922C11.8808 6.93437 11.9074 6.88159 11.9076 6.80664L11.6984 6.9282C11.6982 7.00315 11.6717 7.05593 11.6289 7.08078Z" fill="#D4D6D6"/>
<path d="M11.6973 6.9285L11.9064 6.80694L11.9102 5.66602L11.7011 5.78757L11.6973 6.9285Z" fill="#D4D6D6"/>
<path d="M11.7005 5.78813L11.9097 5.66657L11.8478 5.63086L11.6387 5.75241L11.7005 5.78813Z" fill="#ECF0F1"/>
<path d="M11.3184 6.98367L11.4587 7.06467C11.5254 7.10338 11.586 7.10644 11.6296 7.0802L11.6306 7.07969L11.6324 7.07842C11.6355 7.07638 11.6385 7.07435 11.6413 7.07205C11.6444 7.06976 11.6474 7.06696 11.6502 7.06441C11.6507 7.06365 11.6515 7.06314 11.6523 7.06238C11.6551 7.05957 11.6579 7.05626 11.6607 7.05295C11.6635 7.04939 11.6663 7.04582 11.6688 7.04175C11.6709 7.03869 11.6729 7.03513 11.6747 7.03156C11.676 7.02952 11.6767 7.02774 11.6777 7.0257C11.681 7.01882 11.6841 7.01118 11.6866 7.00329C11.6877 6.99998 11.6887 6.99641 11.6897 6.99284C11.6897 6.99284 11.69 6.99182 11.6902 6.99106C11.691 6.98775 11.6917 6.98418 11.6925 6.98062C11.6935 6.97552 11.6945 6.97017 11.6953 6.96482C11.6958 6.95999 11.6963 6.95489 11.6966 6.9498C11.6971 6.94649 11.6973 6.94317 11.6971 6.93986C11.6976 6.9363 11.6976 6.93248 11.6976 6.92866L11.6979 6.88612L11.7009 5.93126L11.7012 5.88746L11.7014 5.78761L11.6395 5.75195L11.639 5.92337L11.6388 5.96743L11.636 6.85327L11.6357 6.89071V6.89275C11.6355 6.947 11.6166 6.98546 11.5863 7.00456C11.585 7.00532 11.5838 7.00583 11.5825 7.00634C11.5802 7.00787 11.5779 7.00914 11.5753 7.00991C11.571 7.01195 11.5664 7.01373 11.5616 7.01475C11.5583 7.01551 11.555 7.01627 11.5517 7.01653C11.5247 7.02035 11.4928 7.01322 11.459 6.99361L11.38 6.94802L11.3184 6.98367Z" fill="#E0E2E2"/>
<path d="M11.3164 5.96124C11.3163 5.98191 11.3299 6.00271 11.3573 6.01853C11.4117 6.04974 11.4994 6.04974 11.5533 6.01853L12.1179 5.69033C12.1448 5.67465 12.1582 5.65411 12.1582 5.63358L12.1583 5.58984C12.1583 5.61038 12.1449 5.63078 12.1182 5.64632L11.5534 5.97452C11.4995 6.00587 11.4118 6.00587 11.3576 5.97452C11.3302 5.95871 11.3165 5.93804 11.3165 5.91737L11.3164 5.96124Z" fill="#474B59"/>
<path d="M12.1173 5.5333C12.1444 5.54894 12.158 5.56951 12.1581 5.59003C12.1583 5.61056 12.1449 5.63112 12.118 5.64676L11.5532 5.97494C11.4993 6.00627 11.4116 6.00627 11.3574 5.97494C11.303 5.94357 11.3027 5.89276 11.3566 5.86143L11.9214 5.53325C11.9753 5.50193 12.063 5.50193 12.1173 5.5333Z" fill="#5B5E71"/>
<path d="M12.6465 7.65639L12.7254 7.70198L12.9022 7.59909L12.9345 7.58023L12.9025 7.56164L12.8566 7.53516L12.6465 7.65639Z" fill="#C4C6C6"/>
<path d="M12.85 7.71383L13.0591 7.59227C13.0271 7.61091 12.9827 7.60833 12.9338 7.58008L12.7246 7.70163C12.7735 7.72988 12.8179 7.73246 12.85 7.71383Z" fill="#C4C6C6"/>
<path d="M12.8945 7.78781L13.1037 7.66626C13.1465 7.64141 13.173 7.58862 13.1732 7.51367L12.964 7.63523C12.9638 7.71018 12.9373 7.76297 12.8945 7.78781Z" fill="#D4D6D6"/>
<path d="M12.9629 7.63553L13.1721 7.51397L13.1759 6.37305L12.9667 6.4946L12.9629 7.63553Z" fill="#D4D6D6"/>
<path d="M12.9662 6.49516L13.1753 6.3736L13.1135 6.33789L12.9043 6.45945L12.9662 6.49516Z" fill="#ECF0F1"/>
<path d="M12.584 7.69071L12.7243 7.7717C12.7911 7.81041 12.8517 7.81347 12.8952 7.78724L12.8962 7.78673L12.898 7.78545C12.9011 7.78342 12.9041 7.78138 12.9069 7.77908C12.91 7.77679 12.9131 7.77399 12.9159 7.77144C12.9164 7.77068 12.9171 7.77017 12.9179 7.76941C12.9207 7.7666 12.9235 7.76329 12.9263 7.75998C12.9291 7.75642 12.9319 7.75285 12.9344 7.74878C12.9365 7.74572 12.9385 7.74216 12.9403 7.73859C12.9416 7.73655 12.9423 7.73477 12.9434 7.73273C12.9467 7.72585 12.9497 7.71821 12.9523 7.71031C12.9533 7.707 12.9543 7.70344 12.9553 7.69987C12.9553 7.69987 12.9556 7.69885 12.9558 7.69809C12.9566 7.69478 12.9574 7.69121 12.9581 7.68764C12.9591 7.68255 12.9602 7.6772 12.9609 7.67185C12.9614 7.66701 12.962 7.66192 12.9622 7.65682C12.9627 7.65351 12.963 7.6502 12.9627 7.64689C12.9632 7.64333 12.9632 7.6395 12.9632 7.63569L12.9635 7.59315L12.9665 6.63829L12.9668 6.59448L12.967 6.49464L12.9052 6.45898L12.9046 6.6304L12.9044 6.67446L12.9016 7.5603L12.9013 7.59774V7.59978C12.9011 7.65403 12.8822 7.69249 12.8519 7.71159C12.8507 7.71235 12.8494 7.71286 12.8481 7.71337C12.8458 7.7149 12.8435 7.71617 12.841 7.71694C12.8366 7.71898 12.8321 7.72076 12.8272 7.72178C12.8239 7.72254 12.8206 7.72331 12.8173 7.72356C12.7903 7.72738 12.7585 7.72025 12.7246 7.70064L12.6456 7.65505L12.584 7.69071Z" fill="#E0E2E2"/>
<path d="M12.582 6.66631C12.5819 6.68699 12.5955 6.70779 12.623 6.7236C12.6773 6.75482 12.765 6.75482 12.8189 6.7236L13.3835 6.3954C13.4104 6.37973 13.4238 6.35919 13.4238 6.33866L13.4239 6.29492C13.4239 6.31546 13.4106 6.33586 13.3838 6.3514L12.819 6.6796C12.7651 6.71095 12.6774 6.71095 12.6232 6.6796C12.5958 6.66379 12.5822 6.64311 12.5822 6.62244L12.582 6.66631Z" fill="#474B59"/>
<path d="M13.383 6.23839C13.41 6.25402 13.4237 6.27459 13.4238 6.29511C13.4239 6.31564 13.4105 6.33621 13.3836 6.35184L12.8189 6.68002C12.765 6.71135 12.6773 6.71135 12.623 6.68002C12.5686 6.64864 12.5684 6.59784 12.6223 6.56651L13.187 6.23833C13.2409 6.20701 13.3286 6.207 13.383 6.23839Z" fill="#5B5E71"/>
<path d="M15.082 7.42327L15.1351 7.3924L15.1375 6.55469L15.0844 6.58556L15.082 7.42327Z" fill="#31323C"/>
<path d="M15.0833 6.58506L15.1364 6.55419L14.8227 6.37305L14.7695 6.40392L15.0833 6.58506Z" fill="#4E5161"/>
<path d="M14.77 6.4043L14.7676 7.242L15.0813 7.42315L15.0837 6.58544L14.77 6.4043Z" fill="#464957"/>
<path d="M15.0611 11.5271C15.0611 11.5677 15.0458 11.5971 15.0234 11.6096L14.8752 11.6963C14.8989 11.6824 14.9129 11.653 14.9129 11.6124C14.9129 11.5313 14.857 11.4334 14.7857 11.3929C14.7493 11.3719 14.7171 11.3691 14.6934 11.3831L14.8416 11.2978C14.8654 11.2838 14.8975 11.2866 14.9339 11.3062C15.0052 11.3481 15.0611 11.4446 15.0611 11.5271Z" fill="#354A59"/>
<path d="M14.7852 11.3928C14.7147 11.3521 14.6565 11.3832 14.6563 11.4653C14.656 11.5463 14.7139 11.6465 14.7844 11.6873C14.8558 11.7285 14.9123 11.6943 14.9125 11.6132C14.9127 11.5312 14.8567 11.4341 14.7852 11.3928Z" fill="#2E414C"/>
<path d="M14.6016 10.4599C14.6016 10.4976 14.6159 10.5249 14.6367 10.5366L14.7747 10.6173C14.7525 10.6043 14.7395 10.577 14.7395 10.5393C14.7395 10.4638 14.7916 10.3727 14.858 10.3349C14.8918 10.3154 14.9217 10.3128 14.9439 10.3258L14.8059 10.2464C14.7838 10.2334 14.7538 10.236 14.72 10.2542C14.6536 10.2933 14.6016 10.3831 14.6016 10.4599Z" fill="#354A59"/>
<path d="M14.8587 10.3349C14.9243 10.297 14.9785 10.326 14.9787 10.4024C14.9789 10.4778 14.9251 10.5711 14.8595 10.609C14.793 10.6474 14.7404 10.6155 14.7402 10.5401C14.74 10.4637 14.7922 10.3733 14.8587 10.3349Z" fill="#2E414C"/>
<path d="M13.1802 10.456C13.1802 10.4937 13.1659 10.521 13.145 10.5327L13.0071 10.6134C13.0292 10.6004 13.0422 10.5731 13.0422 10.5353C13.0422 10.4599 12.9902 10.3688 12.9238 10.331C12.89 10.3115 12.86 10.3089 12.8379 10.3219L12.9758 10.2425C12.998 10.2295 13.0279 10.2321 13.0617 10.2503C13.1281 10.2894 13.1802 10.3792 13.1802 10.456Z" fill="#354A59"/>
<path d="M12.9247 10.331C12.8591 10.2931 12.8049 10.3221 12.8047 10.3985C12.8045 10.4739 12.8583 10.5672 12.924 10.6051C12.9904 10.6435 13.043 10.6116 13.0432 10.5362C13.0434 10.4598 12.9912 10.3694 12.9247 10.331Z" fill="#2E414C"/>
<path d="M12.6855 11.5916C12.6855 11.6321 12.7009 11.6615 12.7233 11.6741L12.8715 11.7608C12.8478 11.7468 12.8338 11.7174 12.8338 11.6769C12.8338 11.5958 12.8897 11.4979 12.961 11.4573C12.9974 11.4364 13.0296 11.4336 13.0533 11.4476L12.9051 11.3623C12.8813 11.3483 12.8492 11.3511 12.8128 11.3706C12.7415 11.4126 12.6855 11.5091 12.6855 11.5916Z" fill="#354A59"/>
<path d="M12.9612 11.4573C13.0318 11.4165 13.09 11.4477 13.0902 11.5297C13.0905 11.6108 13.0326 11.711 12.9621 11.7517C12.8906 11.793 12.8342 11.7587 12.834 11.6777C12.8337 11.5956 12.8898 11.4985 12.9612 11.4573Z" fill="#2E414C"/>
<path d="M12.9902 11.5613L14.9776 10.4064L14.9782 10.1914L12.9908 11.3463L12.9902 11.5613Z" fill="#525566"/>
<path d="M13.7058 10.7154L12.8047 11.2389L12.991 11.3468L13.8909 10.8233L14.792 11.3468L14.9784 11.2389L14.0773 10.7154L14.9784 10.1919L14.792 10.084L13.8909 10.6075L12.991 10.084L12.8047 10.1919L13.7058 10.7154Z" fill="#474B59"/>
<path d="M12.8053 11.2383L12.8047 11.4532L12.991 11.5608L12.9916 11.3458L12.8053 11.2383Z" fill="#3F434F"/>
<path d="M14.7927 11.5613L12.8053 10.4064L12.8047 10.1914L14.7921 11.3463L14.7927 11.5613Z" fill="#525566"/>
<path d="M14.9793 11.2383L14.9799 11.4532L14.7936 11.5608L14.793 11.3458L14.9793 11.2383Z" fill="#3F434F"/>
<path d="M13.6797 8.40039L13.6961 10.7096L13.8918 10.8233L13.8754 8.5141L13.6797 8.40039Z" fill="#525566"/>
<path d="M13.875 8.51362L13.8914 10.8228L14.0875 10.7096L14.0711 8.40039L13.875 8.51362Z" fill="#5B5E71"/>
<path d="M13.6797 8.40034L13.8754 8.51405L14.0715 8.40082L13.8758 8.28711L13.6797 8.40034Z" fill="#F1C40F"/>
<path d="M13.6973 10.9376L13.8909 10.8242L14.087 10.9387L13.8921 11.0391L13.6973 10.9376Z" fill="#525566"/>
<path d="M13.8919 11.0391L13.8906 10.8242L14.0867 10.9387L13.8919 11.0391Z" fill="#525566"/>
<path d="M13.7061 10.7168L13.5215 10.824L13.6977 10.9375L13.8913 10.824L13.7061 10.7168Z" fill="#474B59"/>
<path d="M15.8797 7.72825L15.878 7.99894C15.878 8.03953 15.851 8.08012 15.7968 8.11141L14.158 9.06443C14.0498 9.12701 13.873 9.12701 13.7631 9.06443L12.1141 8.11141C12.0592 8.08012 12.0312 8.03868 12.0312 7.9964L12.0338 7.72656C12.0338 7.768 12.0608 7.81028 12.1158 7.84157L13.7648 8.79375C13.8747 8.85717 14.0515 8.85717 14.1605 8.79375L15.7985 7.84157C15.8527 7.81028 15.8797 7.76968 15.8797 7.72825Z" fill="#C14242"/>
<path d="M12.1154 7.84079L13.7648 8.79358C13.8742 8.85721 14.0504 8.85721 14.1597 8.79358L15.7977 7.84079C15.907 7.77879 15.9054 7.676 15.7961 7.61237L14.1466 6.66121C14.0373 6.59758 13.8611 6.59758 13.7518 6.65958L12.1138 7.61237C12.0061 7.67601 12.0061 7.77879 12.1154 7.84079Z" fill="#D8463F"/>
<path d="M16.1979 5.05122L16.1929 6.87778C16.1929 6.94036 16.1709 6.98433 16.1354 7.00463L15.9442 7.11788C15.9797 7.09674 16.0017 7.05277 16.0017 6.99104L16.0076 5.16447C16.0076 5.03932 15.9197 4.88626 15.8097 4.82284L14.1599 3.87066C14.1049 3.83937 14.055 3.83599 14.0195 3.85713L14.2099 3.74388C14.2462 3.72274 14.2961 3.72612 14.3511 3.75741L16.0001 4.71044C16.11 4.77301 16.1979 4.92607 16.1979 5.05122Z" fill="#D8463F"/>
<path d="M14.159 3.87089C14.05 3.80792 13.9606 3.85823 13.9603 3.98355L13.9551 5.80999C13.9547 5.93531 14.0435 6.08849 14.1526 6.15145L15.802 7.10374C15.9116 7.16702 16.0004 7.1164 16.0008 6.99108L16.006 5.16463C16.0063 5.03932 15.9181 4.88645 15.8085 4.82317L14.159 3.87089Z" fill="#E74C3C"/>
<path d="M14.5957 8.81069L14.6747 8.85628L14.8514 8.75338L14.8838 8.73454L14.8517 8.71594L14.8058 8.68945L14.5957 8.81069Z" fill="#C4C6C6"/>
<path d="M14.7992 8.86813L15.0084 8.74657C14.9763 8.7652 14.9319 8.76262 14.883 8.73438L14.6738 8.85593C14.7227 8.88418 14.7671 8.88676 14.7992 8.86813Z" fill="#C4C6C6"/>
<path d="M14.8438 8.94211L15.0529 8.82055C15.0957 8.7957 15.1222 8.74292 15.1224 8.66797L14.9133 8.78953C14.9131 8.86448 14.8865 8.91726 14.8438 8.94211Z" fill="#D4D6D6"/>
<path d="M14.9121 8.78983L15.1213 8.66827L15.1251 7.52734L14.9159 7.6489L14.9121 8.78983Z" fill="#D4D6D6"/>
<path d="M14.9154 7.64946L15.1245 7.5279L15.0627 7.49219L14.8535 7.61374L14.9154 7.64946Z" fill="#ECF0F1"/>
<path d="M14.5332 8.845L14.6735 8.92599C14.7403 8.9647 14.8009 8.96776 14.8444 8.94153L14.8455 8.94102L14.8472 8.93974C14.8503 8.93771 14.8534 8.93567 14.8562 8.93338C14.8592 8.93109 14.8623 8.92828 14.8651 8.92574C14.8656 8.92497 14.8663 8.92446 14.8671 8.9237C14.8699 8.9209 14.8727 8.91759 14.8755 8.91428C14.8783 8.91071 14.8811 8.90715 14.8837 8.90307C14.8857 8.90001 14.8877 8.89645 14.8895 8.89288C14.8908 8.89084 14.8916 8.88906 14.8926 8.88702C14.8959 8.88014 14.8989 8.8725 14.9015 8.86461C14.9025 8.8613 14.9035 8.85773 14.9045 8.85417C14.9045 8.85417 14.9048 8.85315 14.9051 8.85238C14.9058 8.84907 14.9066 8.84551 14.9074 8.84194C14.9084 8.83685 14.9094 8.8315 14.9102 8.82615C14.9107 8.82131 14.9112 8.81621 14.9114 8.81112C14.9119 8.80781 14.9122 8.8045 14.9119 8.80119C14.9124 8.79762 14.9124 8.7938 14.9124 8.78998L14.9127 8.74745L14.9158 7.79259L14.916 7.74878L14.9163 7.64894L14.8544 7.61328L14.8539 7.78469L14.8536 7.82876L14.8508 8.71459L14.8506 8.75203V8.75407C14.8503 8.80832 14.8315 8.84678 14.8011 8.86589C14.7999 8.86665 14.7986 8.86716 14.7973 8.86767C14.795 8.8692 14.7927 8.87047 14.7902 8.87123C14.7859 8.87327 14.7813 8.87505 14.7764 8.87607C14.7731 8.87684 14.7698 8.8776 14.7665 8.87786C14.7395 8.88168 14.7077 8.87455 14.6738 8.85494L14.5948 8.80934L14.5332 8.845Z" fill="#E0E2E2"/>
<path d="M14.5313 7.82256C14.5311 7.84323 14.5448 7.86404 14.5722 7.87985C14.6265 7.91107 14.7142 7.91107 14.7681 7.87985L15.3328 7.55165C15.3597 7.53598 15.373 7.51544 15.373 7.49491L15.3732 7.45117C15.3732 7.47171 15.3598 7.49211 15.333 7.50765L14.7682 7.83585C14.7143 7.8672 14.6266 7.8672 14.5725 7.83585C14.545 7.82004 14.5314 7.79936 14.5314 7.77869L14.5313 7.82256Z" fill="#474B59"/>
<path d="M15.3322 7.39464C15.3593 7.41027 15.3729 7.43084 15.373 7.45137C15.3731 7.47189 15.3597 7.49245 15.3328 7.50809L14.7681 7.83627C14.7142 7.8676 14.6265 7.8676 14.5722 7.83627C14.5179 7.8049 14.5176 7.75409 14.5715 7.72277L15.1362 7.39458C15.1901 7.36326 15.2778 7.36325 15.3322 7.39464Z" fill="#5B5E71"/>
<path d="M15.8594 9.51772L15.9383 9.56331L16.1151 9.46041L16.1474 9.44156L16.1153 9.42297L16.0695 9.39648L15.8594 9.51772Z" fill="#C4C6C6"/>
<path d="M16.0629 9.57516L16.272 9.4536C16.24 9.47223 16.1956 9.46965 16.1467 9.44141L15.9375 9.56296C15.9864 9.59121 16.0308 9.59379 16.0629 9.57516Z" fill="#C4C6C6"/>
<path d="M16.1074 9.64914L16.3166 9.52758C16.3594 9.50273 16.3859 9.44995 16.3861 9.375L16.1769 9.49656C16.1767 9.57151 16.1502 9.62429 16.1074 9.64914Z" fill="#D4D6D6"/>
<path d="M16.1758 9.49686L16.3849 9.3753L16.3888 8.23438L16.1796 8.35593L16.1758 9.49686Z" fill="#D4D6D6"/>
<path d="M16.179 8.35649L16.3882 8.23494L16.3264 8.19922L16.1172 8.32078L16.179 8.35649Z" fill="#ECF0F1"/>
<path d="M15.7969 9.55203L15.9372 9.63303C16.0039 9.67174 16.0646 9.67479 16.1081 9.64856L16.1091 9.64805L16.1109 9.64678C16.114 9.64474 16.117 9.6427 16.1198 9.64041C16.1229 9.63812 16.1259 9.63532 16.1287 9.63277C16.1293 9.63201 16.13 9.6315 16.1308 9.63074C16.1336 9.62793 16.1364 9.62462 16.1392 9.62131C16.142 9.61775 16.1448 9.61418 16.1473 9.6101C16.1494 9.60705 16.1514 9.60348 16.1532 9.59992C16.1545 9.59788 16.1552 9.5961 16.1563 9.59406C16.1596 9.58718 16.1626 9.57954 16.1652 9.57165C16.1662 9.56834 16.1672 9.56477 16.1682 9.5612C16.1682 9.5612 16.1685 9.56018 16.1687 9.55942C16.1695 9.55611 16.1703 9.55254 16.171 9.54897C16.172 9.54388 16.1731 9.53853 16.1738 9.53318C16.1743 9.52834 16.1748 9.52325 16.1751 9.51816C16.1756 9.51485 16.1759 9.51153 16.1756 9.50822C16.1761 9.50466 16.1761 9.50084 16.1761 9.49702L16.1764 9.45448L16.1794 8.49962L16.1797 8.45581L16.1799 8.35597L16.118 8.32031L16.1175 8.49172L16.1173 8.53579L16.1145 9.42163L16.1142 9.45907V9.4611C16.114 9.51536 16.0951 9.55381 16.0648 9.57292C16.0635 9.57368 16.0623 9.57419 16.061 9.5747C16.0587 9.57623 16.0564 9.5775 16.0539 9.57827C16.0495 9.5803 16.0449 9.58208 16.0401 9.5831C16.0368 9.58387 16.0335 9.58463 16.0302 9.58489C16.0032 9.58871 15.9713 9.58158 15.9375 9.56197L15.8585 9.51637L15.7969 9.55203Z" fill="#E0E2E2"/>
<path d="M15.7949 8.52764C15.7948 8.54832 15.8084 8.56912 15.8359 8.58493C15.8902 8.61614 15.9779 8.61614 16.0318 8.58493L16.5964 8.25673C16.6233 8.24106 16.6367 8.22052 16.6367 8.19998L16.6368 8.15625C16.6368 8.17679 16.6235 8.19719 16.5967 8.21273L16.0319 8.54092C15.978 8.57227 15.8903 8.57227 15.8361 8.54092C15.8087 8.52512 15.7951 8.50444 15.7951 8.48377L15.7949 8.52764Z" fill="#474B59"/>
<path d="M16.5958 8.09971C16.6229 8.11535 16.6365 8.13592 16.6367 8.15644C16.6368 8.17696 16.6234 8.19753 16.5965 8.21317L16.0318 8.54135C15.9779 8.57268 15.8901 8.57268 15.8359 8.54135C15.7815 8.50997 15.7812 8.45917 15.8352 8.42784L16.3999 8.09966C16.4538 8.06833 16.5415 8.06833 16.5958 8.09971Z" fill="#5B5E71"/>
<path d="M18.2949 9.28459L18.348 9.25372L18.3504 8.41602L18.2973 8.44689L18.2949 9.28459Z" fill="#31323C"/>
<path d="M18.2962 8.44639L18.3493 8.41552L18.0355 8.23438L17.9824 8.26525L18.2962 8.44639Z" fill="#4E5161"/>
<path d="M17.9828 8.26562L17.9805 9.10333L18.2942 9.28447L18.2966 8.44677L17.9828 8.26562Z" fill="#464957"/>
<path d="M18.274 13.3885C18.274 13.429 18.2586 13.4584 18.2363 13.471L18.088 13.5577C18.1118 13.5437 18.1258 13.5143 18.1258 13.4738C18.1258 13.3927 18.0699 13.2948 17.9985 13.2542C17.9622 13.2332 17.93 13.2304 17.9062 13.2444L18.0545 13.1591C18.0783 13.1451 18.1104 13.1479 18.1468 13.1675C18.2181 13.2095 18.274 13.306 18.274 13.3885Z" fill="#354A59"/>
<path d="M17.9981 13.2541C17.9276 13.2134 17.8694 13.2446 17.8691 13.3266C17.8689 13.4077 17.9268 13.5079 17.9973 13.5486C18.0687 13.5898 18.1252 13.5556 18.1254 13.4746C18.1256 13.3925 18.0696 13.2954 17.9981 13.2541Z" fill="#2E414C"/>
<path d="M17.8145 12.3212C17.8145 12.3589 17.8288 12.3863 17.8496 12.398L17.9876 12.4787C17.9654 12.4657 17.9524 12.4383 17.9524 12.4006C17.9524 12.3251 18.0045 12.234 18.0708 12.1962C18.1047 12.1767 18.1346 12.1741 18.1567 12.1871L18.0188 12.1077C17.9967 12.0947 17.9667 12.0973 17.9329 12.1156C17.8665 12.1546 17.8145 12.2444 17.8145 12.3212Z" fill="#354A59"/>
<path d="M18.0716 12.1963C18.1372 12.1584 18.1914 12.1873 18.1916 12.2637C18.1918 12.3392 18.138 12.4324 18.0723 12.4703C18.0059 12.5087 17.9533 12.4768 17.9531 12.4014C17.9529 12.325 18.0051 12.2347 18.0716 12.1963Z" fill="#2E414C"/>
<path d="M16.3931 12.3173C16.3931 12.355 16.3788 12.3824 16.3579 12.3941L16.22 12.4748C16.2421 12.4617 16.2551 12.4344 16.2551 12.3967C16.2551 12.3212 16.2031 12.2301 16.1367 12.1923C16.1028 12.1728 16.0729 12.1702 16.0508 12.1832L16.1887 12.1038C16.2109 12.0908 16.2408 12.0934 16.2746 12.1116C16.341 12.1507 16.3931 12.2405 16.3931 12.3173Z" fill="#354A59"/>
<path d="M16.1376 12.1924C16.072 12.1545 16.0178 12.1834 16.0176 12.2598C16.0174 12.3353 16.0712 12.4285 16.1368 12.4664C16.2033 12.5048 16.2558 12.4729 16.2561 12.3975C16.2563 12.3211 16.2041 12.2307 16.1376 12.1924Z" fill="#2E414C"/>
<path d="M15.8984 13.4529C15.8984 13.4935 15.9138 13.5228 15.9362 13.5354L16.0844 13.6221C16.0607 13.6081 16.0467 13.5788 16.0467 13.5382C16.0467 13.4571 16.1026 13.3592 16.1739 13.3187C16.2103 13.2977 16.2424 13.2949 16.2662 13.3089L16.118 13.2236C16.0942 13.2096 16.062 13.2124 16.0257 13.232C15.9544 13.2739 15.8984 13.3704 15.8984 13.4529Z" fill="#354A59"/>
<path d="M16.1741 13.3186C16.2447 13.2779 16.3029 13.309 16.3031 13.3911C16.3033 13.4721 16.2455 13.5723 16.175 13.613C16.1035 13.6543 16.0471 13.6201 16.0469 13.539C16.0466 13.4569 16.1027 13.3598 16.1741 13.3186Z" fill="#2E414C"/>
<path d="M16.2031 13.4226L18.1905 12.2677L18.1911 12.0527L16.2037 13.2077L16.2031 13.4226Z" fill="#525566"/>
<path d="M16.9187 12.5767L16.0176 13.1002L16.2039 13.2081L17.1038 12.6846L18.0049 13.2081L18.1913 13.1002L17.2902 12.5767L18.1913 12.0532L18.0049 11.9453L17.1038 12.4688L16.2039 11.9453L16.0176 12.0532L16.9187 12.5767Z" fill="#474B59"/>
<path d="M16.0182 13.0996L16.0176 13.3146L16.2039 13.4221L16.2045 13.2072L16.0182 13.0996Z" fill="#3F434F"/>
<path d="M18.0056 13.4226L16.0182 12.2677L16.0176 12.0527L18.005 13.2077L18.0056 13.4226Z" fill="#525566"/>
<path d="M18.1922 13.0996L18.1928 13.3146L18.0065 13.4221L18.0059 13.2072L18.1922 13.0996Z" fill="#3F434F"/>
<path d="M16.8926 10.2617L16.909 12.5709L17.1046 12.6846L17.0882 10.3754L16.8926 10.2617Z" fill="#525566"/>
<path d="M17.0879 10.375L17.1043 12.6842L17.3004 12.5709L17.284 10.2617L17.0879 10.375Z" fill="#5B5E71"/>
<path d="M16.8926 10.2617L17.0882 10.3754L17.2844 10.2621L17.0887 10.1484L16.8926 10.2617Z" fill="#F1C40F"/>
<path d="M16.9102 12.799L17.1038 12.6855L17.2999 12.8L17.105 12.9005L16.9102 12.799Z" fill="#525566"/>
<path d="M17.1048 12.9005L17.1035 12.6855L17.2996 12.8L17.1048 12.9005Z" fill="#525566"/>
<path d="M16.919 12.5781L16.7344 12.6854L16.9106 12.7988L17.1042 12.6854L16.919 12.5781Z" fill="#474B59"/>
<path d="M19.0926 9.58958L19.0909 9.86027C19.0909 9.90085 19.0639 9.94144 19.0097 9.97273L17.3709 10.9258C17.2627 10.9883 17.0859 10.9883 16.976 10.9258L15.327 9.97273C15.272 9.94145 15.2441 9.90001 15.2441 9.85773L15.2467 9.58789C15.2467 9.62933 15.2737 9.67161 15.3287 9.70289L16.9777 10.6551C17.0876 10.7185 17.2643 10.7185 17.3734 10.6551L19.0114 9.70289C19.0656 9.6716 19.0926 9.63101 19.0926 9.58958Z" fill="#C14242"/>
<path d="M15.3283 9.70212L16.9777 10.6549C17.087 10.7185 17.2632 10.7185 17.3726 10.6549L19.0106 9.70212C19.1199 9.64012 19.1183 9.53733 19.009 9.4737L17.3595 8.52254C17.2502 8.45891 17.074 8.45891 16.9647 8.52091L15.3267 9.4737C15.219 9.53733 15.219 9.64012 15.3283 9.70212Z" fill="#D8463F"/>
<path d="M19.4108 6.91255L19.4058 8.73912C19.4058 8.80169 19.3838 8.84566 19.3483 8.86596L19.1571 8.97921C19.1926 8.95807 19.2146 8.9141 19.2146 8.85237L19.2205 7.0258C19.2205 6.90065 19.1326 6.74759 19.0226 6.68417L17.3728 5.73199C17.3178 5.7007 17.2679 5.69732 17.2324 5.71846L17.4228 5.60521C17.4591 5.58407 17.509 5.58745 17.564 5.61874L19.213 6.57176C19.3229 6.63434 19.4108 6.7874 19.4108 6.91255Z" fill="#D8463F"/>
<path d="M17.3719 5.73221C17.2629 5.66925 17.1735 5.71956 17.1731 5.84488L17.168 7.67132C17.1676 7.79664 17.2564 7.94981 17.3655 8.01278L19.0149 8.96507C19.1245 9.02835 19.2133 8.97773 19.2137 8.85241L19.2189 7.02596C19.2192 6.90064 19.131 6.74778 19.0214 6.6845L17.3719 5.73221Z" fill="#E74C3C"/>
<path d="M17.8086 10.672L17.8876 10.7176L18.0643 10.6147L18.0967 10.5959L18.0646 10.5773L18.0187 10.5508L17.8086 10.672Z" fill="#C4C6C6"/>
<path d="M18.0121 10.7295L18.2213 10.6079C18.1892 10.6265 18.1448 10.624 18.0959 10.5957L17.8867 10.7173C17.9356 10.7455 17.98 10.7481 18.0121 10.7295Z" fill="#C4C6C6"/>
<path d="M18.0566 10.8034L18.2658 10.6819C18.3086 10.657 18.3351 10.6042 18.3353 10.5293L18.1262 10.6509C18.1259 10.7258 18.0994 10.7786 18.0566 10.8034Z" fill="#D4D6D6"/>
<path d="M18.125 10.6512L18.3342 10.5296L18.338 9.38867L18.1288 9.51023L18.125 10.6512Z" fill="#D4D6D6"/>
<path d="M18.1283 9.51079L18.3374 9.38923L18.2756 9.35352L18.0664 9.47507L18.1283 9.51079Z" fill="#ECF0F1"/>
<path d="M17.7461 10.7063L17.8864 10.7873C17.9532 10.826 18.0138 10.8291 18.0573 10.8029L18.0584 10.8023L18.0601 10.8011C18.0632 10.799 18.0663 10.797 18.0691 10.7947C18.0721 10.7924 18.0752 10.7896 18.078 10.7871C18.0785 10.7863 18.0792 10.7858 18.08 10.785C18.0828 10.7822 18.0856 10.7789 18.0884 10.7756C18.0912 10.772 18.094 10.7685 18.0966 10.7644C18.0986 10.7613 18.1006 10.7578 18.1024 10.7542C18.1037 10.7522 18.1045 10.7504 18.1055 10.7483C18.1088 10.7415 18.1118 10.7338 18.1144 10.7259C18.1154 10.7226 18.1164 10.7191 18.1174 10.7155C18.1174 10.7155 18.1177 10.7145 18.1179 10.7137C18.1187 10.7104 18.1195 10.7068 18.1202 10.7033C18.1213 10.6982 18.1223 10.6928 18.123 10.6875C18.1236 10.6826 18.1241 10.6775 18.1243 10.6724C18.1248 10.6691 18.1251 10.6658 18.1248 10.6625C18.1253 10.6589 18.1253 10.6551 18.1253 10.6513L18.1256 10.6088L18.1286 9.65391L18.1289 9.6101L18.1292 9.51026L18.0673 9.47461L18.0668 9.64602L18.0665 9.69008L18.0637 10.5759L18.0634 10.6134V10.6154C18.0632 10.6697 18.0443 10.7081 18.014 10.7272C18.0128 10.728 18.0115 10.7285 18.0102 10.729C18.0079 10.7305 18.0056 10.7318 18.0031 10.7326C17.9988 10.7346 17.9942 10.7364 17.9893 10.7374C17.986 10.7382 17.9827 10.7389 17.9794 10.7392C17.9524 10.743 17.9206 10.7359 17.8867 10.7163L17.8077 10.6707L17.7461 10.7063Z" fill="#E0E2E2"/>
<path d="M17.7441 9.68194C17.744 9.70261 17.7577 9.72342 17.7851 9.73923C17.8394 9.77044 17.9271 9.77044 17.981 9.73923L18.5457 9.41103C18.5725 9.39535 18.5859 9.37482 18.5859 9.35428L18.5861 9.31055C18.5861 9.33108 18.5727 9.35149 18.5459 9.36702L17.9811 9.69522C17.9272 9.72657 17.8395 9.72657 17.7854 9.69522C17.7579 9.67941 17.7443 9.65874 17.7443 9.63807L17.7441 9.68194Z" fill="#474B59"/>
<path d="M18.5451 9.25401C18.5722 9.26965 18.5858 9.29021 18.5859 9.31074C18.586 9.33126 18.5726 9.35183 18.5457 9.36747L17.981 9.69565C17.9271 9.72698 17.8394 9.72698 17.7851 9.69565C17.7308 9.66427 17.7305 9.61347 17.7844 9.58214L18.3491 9.25396C18.403 9.22263 18.4907 9.22263 18.5451 9.25401Z" fill="#5B5E71"/>
<path d="M8.05159 12.2126L8.04991 12.4833C8.04991 12.5239 8.02284 12.5645 7.96872 12.5958L6.32989 13.5488C6.22165 13.6114 6.04491 13.6114 5.93498 13.5488L4.286 12.5958C4.23103 12.5645 4.20312 12.5231 4.20312 12.4808L4.20566 12.2109C4.20566 12.2524 4.23272 12.2947 4.28769 12.3259L5.93667 13.2781C6.0466 13.3415 6.22333 13.3415 6.33242 13.2781L7.97041 12.3259C8.02454 12.2947 8.05159 12.2541 8.05159 12.2126Z" fill="#C14242"/>
<path d="M4.28728 12.3252L5.93672 13.278C6.04603 13.3416 6.22224 13.3416 6.33154 13.278L7.96958 12.3252C8.07888 12.2632 8.07725 12.1604 7.96794 12.0967L6.31849 11.1456C6.20918 11.082 6.03298 11.082 5.92366 11.144L4.28564 12.0967C4.17795 12.1604 4.17795 12.2632 4.28728 12.3252Z" fill="#D8463F"/>
<path d="M2.10792 13.0634C2.10792 13.1011 2.0936 13.1285 2.07277 13.1402L1.93482 13.2209C1.95695 13.2078 1.96996 13.1805 1.96996 13.1428C1.96996 13.0673 1.9179 12.9762 1.85153 12.9384C1.81769 12.9189 1.78775 12.9163 1.76562 12.9293L1.90358 12.8499C1.9257 12.8369 1.95564 12.8395 1.98948 12.8577C2.05585 12.8968 2.10792 12.9866 2.10792 13.0634Z" fill="#354A59"/>
<path d="M1.85247 12.9385C1.78682 12.9006 1.73264 12.9295 1.73242 13.0059C1.73221 13.0813 1.78605 13.1746 1.85169 13.2125C1.91817 13.2509 1.97069 13.219 1.97091 13.1436C1.97113 13.0672 1.91895 12.9768 1.85247 12.9385Z" fill="#2E414C"/>
<path d="M1.61328 14.201C1.61328 14.2415 1.62866 14.2709 1.65104 14.2835L1.79927 14.3702C1.77549 14.3562 1.76151 14.3268 1.76151 14.2863C1.76151 14.2052 1.81745 14.1073 1.88876 14.0667C1.92512 14.0457 1.95729 14.0429 1.98106 14.0569L1.83283 13.9716C1.80906 13.9576 1.77689 13.9604 1.74053 13.98C1.66922 14.022 1.61328 14.1185 1.61328 14.201Z" fill="#354A59"/>
<path d="M1.88898 14.0666C1.95951 14.0259 2.01773 14.0571 2.01796 14.1391C2.01819 14.2202 1.96035 14.3204 1.88981 14.3611C1.81839 14.4023 1.76195 14.3681 1.76172 14.2871C1.76149 14.205 1.81755 14.1079 1.88898 14.0666Z" fill="#2E414C"/>
<path d="M4.8094 10.3435L4.80772 10.6142C4.80772 10.6548 4.78066 10.6953 4.72653 10.7266L3.0877 11.6797C2.97946 11.7422 2.80272 11.7422 2.69279 11.6797L1.04381 10.7266C0.988839 10.6954 0.960938 10.6539 0.960938 10.6116L0.963471 10.3418C0.963471 10.3832 0.990534 10.4255 1.0455 10.4568L2.69448 11.409C2.80441 11.4724 2.98115 11.4724 3.09023 11.409L4.72822 10.4568C4.78235 10.4255 4.8094 10.3849 4.8094 10.3435Z" fill="#C14242"/>
<path d="M1.04508 10.458L2.69453 11.4108C2.80384 11.4744 2.98005 11.4744 3.08935 11.4108L4.72739 10.458C4.8367 10.396 4.83506 10.2932 4.72576 10.2296L3.07631 9.2784C2.96699 9.21477 2.79079 9.21477 2.68148 9.27677L1.04345 10.2296C0.935767 10.2932 0.935767 10.396 1.04508 10.458Z" fill="#D8463F"/>
<path d="M11.2918 14.0974L11.2901 14.3681C11.2901 14.4087 11.2631 14.4493 11.209 14.4805L9.57012 15.4336C9.46188 15.4961 9.28514 15.4961 9.17521 15.4336L7.52623 14.4805C7.47126 14.4493 7.44336 14.4078 7.44336 14.3655L7.44589 14.0957C7.44589 14.1371 7.47295 14.1794 7.52792 14.2107L9.1769 15.1629C9.28683 15.2263 9.46357 15.2263 9.57265 15.1629L11.2106 14.2107C11.2648 14.1794 11.2918 14.1388 11.2918 14.0974Z" fill="#C14242"/>
<path d="M10.4615 17.8885C10.4615 17.929 10.4462 17.9584 10.4238 17.971L10.2755 18.0577C10.2993 18.0437 10.3133 18.0143 10.3133 17.9738C10.3133 17.8927 10.2574 17.7948 10.186 17.7542C10.1497 17.7332 10.1175 17.7304 10.0938 17.7444L10.242 17.6591C10.2658 17.6451 10.2979 17.6479 10.3343 17.6675C10.4056 17.7095 10.4615 17.806 10.4615 17.8885Z" fill="#354A59"/>
<path d="M10.1856 17.7541C10.1151 17.7134 10.0569 17.7446 10.0566 17.8266C10.0564 17.9077 10.1143 18.0079 10.1848 18.0486C10.2562 18.0898 10.3127 18.0556 10.3129 17.9746C10.3131 17.8925 10.257 17.7954 10.1856 17.7541Z" fill="#2E414C"/>
<path d="M10.002 16.8212C10.002 16.8589 10.0163 16.8863 10.0371 16.898L10.1751 16.9787C10.1529 16.9657 10.1399 16.9383 10.1399 16.9006C10.1399 16.8251 10.192 16.734 10.2583 16.6962C10.2922 16.6767 10.3221 16.6741 10.3442 16.6871L10.2063 16.6077C10.1842 16.5947 10.1542 16.5973 10.1204 16.6155C10.054 16.6546 10.002 16.7444 10.002 16.8212Z" fill="#354A59"/>
<path d="M10.2591 16.6963C10.3247 16.6584 10.3789 16.6873 10.3791 16.7637C10.3793 16.8392 10.3255 16.9324 10.2598 16.9703C10.1934 17.0087 10.1408 16.9768 10.1406 16.9014C10.1404 16.825 10.1926 16.7347 10.2591 16.6963Z" fill="#2E414C"/>
<path d="M8.58252 16.8173C8.58252 16.855 8.56821 16.8824 8.54738 16.8941L8.40943 16.9748C8.43156 16.9617 8.44457 16.9344 8.44457 16.8967C8.44457 16.8212 8.3925 16.7301 8.32614 16.6923C8.2923 16.6728 8.26236 16.6702 8.24023 16.6832L8.37819 16.6038C8.40031 16.5908 8.43025 16.5934 8.46409 16.6116C8.53046 16.6507 8.58252 16.7405 8.58252 16.8173Z" fill="#354A59"/>
<path d="M8.32513 16.6924C8.25948 16.6545 8.2053 16.6834 8.20508 16.7598C8.20486 16.8353 8.2587 16.9285 8.32435 16.9664C8.39082 17.0048 8.44335 16.9729 8.44356 16.8975C8.44378 16.8211 8.3916 16.7307 8.32513 16.6924Z" fill="#2E414C"/>
<path d="M8.08594 17.9529C8.08594 17.9935 8.10132 18.0228 8.1237 18.0354L8.27193 18.1221C8.24815 18.1081 8.23417 18.0788 8.23417 18.0382C8.23417 17.9571 8.29011 17.8592 8.36142 17.8187C8.39778 17.7977 8.42995 17.7949 8.45372 17.8089L8.30549 17.7236C8.28171 17.7096 8.24955 17.7124 8.21319 17.732C8.14187 17.7739 8.08594 17.8704 8.08594 17.9529Z" fill="#354A59"/>
<path d="M8.36163 17.8186C8.43217 17.7779 8.49039 17.809 8.49062 17.8911C8.49085 17.9721 8.433 18.0723 8.36247 18.113C8.29104 18.1543 8.23461 18.1201 8.23438 18.039C8.23414 17.9569 8.29021 17.8598 8.36163 17.8186Z" fill="#2E414C"/>
<path d="M8.39062 17.9226L10.378 16.7677L10.3786 16.5527L8.39123 17.7077L8.39062 17.9226Z" fill="#525566"/>
<path d="M9.10618 17.0767L8.20508 17.6002L8.39143 17.7081L9.29131 17.1846L10.1924 17.7081L10.3788 17.6002L9.47766 17.0767L10.3788 16.5532L10.1924 16.4453L9.29131 16.9688L8.39143 16.4453L8.20508 16.5532L9.10618 17.0767Z" fill="#474B59"/>
<path d="M8.20569 17.5996L8.20508 17.8146L8.39138 17.9221L8.39198 17.7072L8.20569 17.5996Z" fill="#3F434F"/>
<path d="M10.1931 17.9226L8.20569 16.7677L8.20508 16.5527L10.1925 17.7077L10.1931 17.9226Z" fill="#525566"/>
<path d="M10.3797 17.5996L10.3803 17.8146L10.194 17.9221L10.1934 17.7072L10.3797 17.5996Z" fill="#3F434F"/>
<path d="M9.08008 14.7617L9.09649 17.0709L9.29215 17.1846L9.27574 14.8754L9.08008 14.7617Z" fill="#525566"/>
<path d="M9.27539 14.875L9.29179 17.1842L9.48791 17.0709L9.47151 14.7617L9.27539 14.875Z" fill="#5B5E71"/>
<path d="M9.08008 14.7617L9.27574 14.8754L9.47186 14.7621L9.2762 14.6484L9.08008 14.7617Z" fill="#F1C40F"/>
<path d="M9.09766 17.299L9.29127 17.1855L9.48739 17.3L9.29252 17.4004L9.09766 17.299Z" fill="#525566"/>
<path d="M9.29227 17.4004L9.29102 17.1855L9.48713 17.3L9.29227 17.4004Z" fill="#525566"/>
<path d="M9.10649 17.0781L8.92188 17.1854L9.09809 17.2988L9.2917 17.1854L9.10649 17.0781Z" fill="#474B59"/>
<path d="M10.4615 17.8885C10.4615 17.929 10.4462 17.9584 10.4238 17.971L10.2755 18.0577C10.2993 18.0437 10.3133 18.0143 10.3133 17.9738C10.3133 17.8927 10.2574 17.7948 10.186 17.7542C10.1497 17.7332 10.1175 17.7304 10.0938 17.7444L10.242 17.6591C10.2658 17.6451 10.2979 17.6479 10.3343 17.6675C10.4056 17.7095 10.4615 17.806 10.4615 17.8885Z" fill="#354A59"/>
<path d="M10.1856 17.7541C10.1151 17.7134 10.0569 17.7446 10.0566 17.8266C10.0564 17.9077 10.1143 18.0079 10.1848 18.0486C10.2562 18.0898 10.3127 18.0556 10.3129 17.9746C10.3131 17.8925 10.257 17.7954 10.1856 17.7541Z" fill="#2E414C"/>
<path d="M10.002 16.8212C10.002 16.8589 10.0163 16.8863 10.0371 16.898L10.1751 16.9787C10.1529 16.9657 10.1399 16.9383 10.1399 16.9006C10.1399 16.8251 10.192 16.734 10.2583 16.6962C10.2922 16.6767 10.3221 16.6741 10.3442 16.6871L10.2063 16.6077C10.1842 16.5947 10.1542 16.5973 10.1204 16.6155C10.054 16.6546 10.002 16.7444 10.002 16.8212Z" fill="#354A59"/>
<path d="M10.2591 16.6963C10.3247 16.6584 10.3789 16.6873 10.3791 16.7637C10.3793 16.8392 10.3255 16.9324 10.2598 16.9703C10.1934 17.0087 10.1408 16.9768 10.1406 16.9014C10.1404 16.825 10.1926 16.7347 10.2591 16.6963Z" fill="#2E414C"/>
<path d="M8.39062 17.9226L10.378 16.7677L10.3786 16.5527L8.39123 17.7077L8.39062 17.9226Z" fill="#525566"/>
<path d="M9.10618 17.0767L8.20508 17.6002L8.39143 17.7081L9.29131 17.1846L10.1924 17.7081L10.3788 17.6002L9.47766 17.0767L10.3788 16.5532L10.1924 16.4453L9.29131 16.9688L8.39143 16.4453L8.20508 16.5532L9.10618 17.0767Z" fill="#474B59"/>
<path d="M8.20569 17.5996L8.20508 17.8146L8.39138 17.9221L8.39198 17.7072L8.20569 17.5996Z" fill="#3F434F"/>
<path d="M10.1931 17.9226L8.20569 16.7677L8.20508 16.5527L10.1925 17.7077L10.1931 17.9226Z" fill="#525566"/>
<path d="M10.3797 17.5996L10.3803 17.8146L10.194 17.9221L10.1934 17.7072L10.3797 17.5996Z" fill="#3F434F"/>
<path d="M9.08008 14.7617L9.09649 17.0709L9.29215 17.1846L9.27574 14.8754L9.08008 14.7617Z" fill="#525566"/>
<path d="M9.27539 14.875L9.29179 17.1842L9.48791 17.0709L9.47151 14.7617L9.27539 14.875Z" fill="#5B5E71"/>
<path d="M9.08008 14.7617L9.27574 14.8754L9.47186 14.7621L9.2762 14.6484L9.08008 14.7617Z" fill="#F1C40F"/>
<path d="M9.09766 17.299L9.29127 17.1855L9.48739 17.3L9.29252 17.4004L9.09766 17.299Z" fill="#525566"/>
<path d="M9.29227 17.4004L9.29102 17.1855L9.48713 17.3L9.29227 17.4004Z" fill="#525566"/>
<path d="M9.10649 17.0781L8.92188 17.1854L9.09809 17.2988L9.2917 17.1854L9.10649 17.0781Z" fill="#474B59"/>
<path d="M8.58057 16.8173C8.58057 16.855 8.56626 16.8824 8.54543 16.8941L8.40747 16.9748C8.4296 16.9617 8.44261 16.9344 8.44261 16.8967C8.44261 16.8212 8.39055 16.7301 8.32418 16.6923C8.29034 16.6728 8.2604 16.6702 8.23828 16.6832L8.37624 16.6038C8.39836 16.5908 8.4283 16.5934 8.46214 16.6116C8.5285 16.6507 8.58057 16.7405 8.58057 16.8173Z" fill="#354A59"/>
<path d="M8.32513 16.6924C8.25948 16.6545 8.2053 16.6834 8.20508 16.7598C8.20486 16.8353 8.2587 16.9285 8.32435 16.9664C8.39082 17.0048 8.44335 16.9729 8.44356 16.8975C8.44378 16.8211 8.3916 16.7307 8.32513 16.6924Z" fill="#2E414C"/>
<path d="M8.08594 17.9529C8.08594 17.9935 8.10132 18.0228 8.1237 18.0354L8.27193 18.1221C8.24815 18.1081 8.23417 18.0788 8.23417 18.0382C8.23417 17.9571 8.29011 17.8592 8.36142 17.8187C8.39778 17.7977 8.42995 17.7949 8.45372 17.8089L8.30549 17.7236C8.28171 17.7096 8.24955 17.7124 8.21319 17.732C8.14187 17.7739 8.08594 17.8704 8.08594 17.9529Z" fill="#354A59"/>
<path d="M8.36163 17.8186C8.43217 17.7779 8.49039 17.809 8.49062 17.8911C8.49085 17.9721 8.433 18.0723 8.36247 18.113C8.29104 18.1543 8.23461 18.1201 8.23438 18.039C8.23414 17.9569 8.29021 17.8598 8.36163 17.8186Z" fill="#2E414C"/>
<path d="M7.52946 14.2099L9.17891 15.1627C9.28822 15.2263 9.46442 15.2263 9.57373 15.1627L11.2118 14.2099C11.3211 14.1479 11.3194 14.0451 11.2101 13.9815L9.56068 13.0304C9.45137 12.9667 9.27517 12.9667 9.16585 13.0287L7.52782 13.9815C7.42014 14.0451 7.42014 14.1479 7.52946 14.2099Z" fill="#D8463F"/>
<path d="M16.3437 11.5595V11.9816C16.3437 12.0176 16.3334 12.0536 16.3128 12.0845C15.5099 13.4638 13.6469 14.5445 11.2743 15.0129C11.0582 15.0592 10.8163 15.0231 10.6516 14.9253L0.770301 9.22302C0.65194 9.15611 0.584971 9.06348 0.59012 8.96569V8.54883C0.59012 8.64146 0.657026 8.73925 0.77545 8.80615L10.6516 14.5085C10.8163 14.6011 11.0582 14.6371 11.2743 14.596C13.6469 14.1276 15.5099 13.0417 16.3128 11.6676C16.3334 11.6316 16.3437 11.5956 16.3437 11.5595Z" fill="#9E6E46"/>
<path d="M16.1608 11.3071C16.3251 11.4019 16.3848 11.5423 16.3135 11.6675C15.509 13.0448 13.6482 14.1262 11.2731 14.5967C11.0571 14.6384 10.8146 14.6043 10.6503 14.5094L0.772945 8.80676C0.608624 8.71189 0.545608 8.56961 0.616957 8.4444C1.42145 7.06709 3.28223 5.98572 5.65738 5.51523C5.87331 5.47349 6.11914 5.50953 6.28346 5.6044L16.1608 11.3071Z" fill="#CC9C71"/>
<path d="M11.0856 14.0597C11.0158 14.0597 10.9549 14.0441 10.9278 14.0298L1.26953 8.45308L1.31326 8.39503C2.136 7.30616 3.75886 6.45402 5.7647 6.05672C5.84863 6.04039 5.96623 6.06074 6.00494 6.08135L15.6612 11.6563L15.6175 11.7144C14.7942 12.8032 13.1714 13.6554 11.1655 14.0527C11.1419 14.0575 11.1138 14.0597 11.0856 14.0597ZM1.46052 8.41488L10.9906 13.9172C10.9962 13.9195 11.0776 13.9386 11.1404 13.9265C13.0804 13.5423 14.6525 12.7309 15.4702 11.6945L5.94261 6.19393C5.93809 6.19192 5.89839 6.1786 5.84159 6.1786C5.8235 6.1786 5.8049 6.17986 5.78983 6.18287C3.84983 6.56711 2.27773 7.37854 1.46052 8.41488Z" fill="#9E6E46"/>
<path d="M1.57617 10.2638L1.65513 10.3094L1.83189 10.2065L1.86423 10.1877L1.83214 10.1691L1.7863 10.1426L1.57617 10.2638Z" fill="#C4C6C6"/>
<path d="M1.77967 10.3213L1.98883 10.1997C1.95678 10.2183 1.91239 10.2157 1.86347 10.1875L1.6543 10.3091C1.70322 10.3373 1.74761 10.3399 1.77967 10.3213Z" fill="#C4C6C6"/>
<path d="M1.82422 10.3952L2.03339 10.2737C2.07615 10.2488 2.10269 10.196 2.10291 10.1211L1.89374 10.2427C1.89352 10.3176 1.86698 10.3704 1.82422 10.3952Z" fill="#D4D6D6"/>
<path d="M1.89258 10.243L2.10175 10.1214L2.10556 8.98047L1.89639 9.10203L1.89258 10.243Z" fill="#D4D6D6"/>
<path d="M1.89585 9.10258L2.10502 8.98103L2.04315 8.94531L1.83398 9.06687L1.89585 9.10258Z" fill="#ECF0F1"/>
<path d="M1.51367 10.2981L1.65401 10.3791C1.72074 10.4178 1.78136 10.4209 1.82491 10.3947L1.82593 10.3941L1.82772 10.3929C1.83077 10.3908 1.83383 10.3888 1.83663 10.3865C1.83968 10.3842 1.84274 10.3814 1.84554 10.3789C1.84605 10.3781 1.84682 10.3776 1.84758 10.3768C1.85038 10.374 1.85319 10.3707 1.85599 10.3674C1.85879 10.3638 1.86159 10.3603 1.86413 10.3562C1.86617 10.3531 1.86821 10.3496 1.86999 10.346C1.87127 10.344 1.87203 10.3422 1.87305 10.3401C1.87636 10.3333 1.87942 10.3256 1.88196 10.3177C1.88298 10.3144 1.884 10.3109 1.88502 10.3073C1.88502 10.3073 1.88527 10.3063 1.88553 10.3055C1.88629 10.3022 1.88706 10.2986 1.88782 10.2951C1.88884 10.29 1.88986 10.2846 1.89062 10.2793C1.89113 10.2744 1.89164 10.2693 1.8919 10.2642C1.89241 10.2609 1.89266 10.2576 1.89241 10.2543C1.89292 10.2507 1.89292 10.2469 1.89292 10.2431L1.89317 10.2006L1.89622 9.24571L1.89648 9.2019L1.89673 9.10206L1.83484 9.06641L1.83433 9.23782L1.83408 9.28188L1.83128 10.1677L1.83102 10.2052V10.2072C1.83077 10.2614 1.81192 10.2999 1.78161 10.319C1.78034 10.3198 1.77907 10.3203 1.77779 10.3208C1.7755 10.3223 1.77321 10.3236 1.77066 10.3244C1.76633 10.3264 1.76175 10.3282 1.75691 10.3292C1.7536 10.33 1.75028 10.3307 1.74697 10.331C1.71998 10.3348 1.68814 10.3277 1.65426 10.3081L1.57531 10.2625L1.51367 10.2981Z" fill="#E0E2E2"/>
<path d="M1.51172 9.27374C1.51159 9.29441 1.52523 9.31521 1.55266 9.33103C1.60698 9.36224 1.69467 9.36224 1.74858 9.33103L2.31323 9.00283C2.34012 8.98715 2.3535 8.96661 2.3535 8.94608L2.35363 8.90234C2.35363 8.92288 2.34025 8.94328 2.3135 8.95882L1.74871 9.28702C1.6948 9.31837 1.60711 9.31837 1.55293 9.28702C1.5255 9.27121 1.51185 9.25054 1.51185 9.22987L1.51172 9.27374Z" fill="#474B59"/>
<path d="M2.31264 8.84581C2.33973 8.86145 2.35334 8.88202 2.35346 8.90254C2.35357 8.92306 2.34019 8.94363 2.31328 8.95927L1.74856 9.28745C1.69465 9.31878 1.60694 9.31878 1.55268 9.28745C1.49833 9.25607 1.49804 9.20527 1.55195 9.17394L2.11668 8.84576C2.17059 8.81443 2.25829 8.81443 2.31264 8.84581Z" fill="#5B5E71"/>
<path d="M1.86523 11.269L1.91835 11.2381L1.92073 10.4004L1.86761 10.4313L1.86523 11.269Z" fill="#31323C"/>
<path d="M1.86648 10.4308L1.9196 10.3999L1.60586 10.2188L1.55273 10.2496L1.86648 10.4308Z" fill="#4E5161"/>
<path d="M1.55316 10.25L1.55078 11.0877L1.86453 11.2689L1.8669 10.4311L1.55316 10.25Z" fill="#464957"/>
<path d="M2.98115 8.89692L2.97607 10.7235C2.97607 10.7861 2.95408 10.83 2.91857 10.8503L2.72739 10.9636C2.7629 10.9424 2.78489 10.8985 2.78489 10.8367L2.79081 9.01017C2.79081 8.88502 2.70287 8.73196 2.59294 8.66854L0.943111 7.71636C0.888142 7.68508 0.838252 7.6817 0.802734 7.70283L0.993068 7.58958C1.02944 7.56844 1.07932 7.57182 1.13429 7.60311L2.78327 8.55614C2.8932 8.61871 2.98115 8.77177 2.98115 8.89692Z" fill="#D8463F"/>
<path d="M0.9442 7.71659C0.835137 7.65362 0.745765 7.70393 0.745412 7.82925L0.740235 9.65569C0.739879 9.78101 0.828675 9.93419 0.937737 9.99715L2.58715 10.9494C2.69675 11.0127 2.78559 10.9621 2.78594 10.8368L2.79112 9.01034C2.79147 8.88502 2.70322 8.73216 2.59362 8.66888L0.9442 7.71659Z" fill="#E74C3C"/>
<path d="M3.52344 11.4201L3.60239 11.4657L3.77915 11.3628L3.8115 11.3439L3.77941 11.3253L3.73356 11.2988L3.52344 11.4201Z" fill="#C4C6C6"/>
<path d="M3.72693 11.4775L3.9361 11.3559C3.90404 11.3746 3.85965 11.372 3.81073 11.3438L3.60156 11.4653C3.65048 11.4936 3.69487 11.4961 3.72693 11.4775Z" fill="#C4C6C6"/>
<path d="M3.77148 11.5515L3.98065 11.4299C4.02341 11.4051 4.04996 11.3523 4.05017 11.2773L3.841 11.3989C3.84079 11.4739 3.81425 11.5266 3.77148 11.5515Z" fill="#D4D6D6"/>
<path d="M3.83984 11.3992L4.04902 11.2776L4.05283 10.1367L3.84366 10.2583L3.83984 11.3992Z" fill="#D4D6D6"/>
<path d="M3.84311 10.2588L4.05228 10.1373L3.99042 10.1016L3.78125 10.2231L3.84311 10.2588Z" fill="#ECF0F1"/>
<path d="M3.46094 11.4544L3.60127 11.5354C3.66801 11.5741 3.72862 11.5771 3.77218 11.5509L3.7732 11.5504L3.77498 11.5491C3.77804 11.5471 3.78109 11.5451 3.78389 11.5428C3.78695 11.5405 3.79001 11.5377 3.79281 11.5351C3.79332 11.5344 3.79408 11.5338 3.79485 11.5331C3.79765 11.5303 3.80045 11.527 3.80325 11.5237C3.80605 11.5201 3.80885 11.5165 3.8114 11.5125C3.81344 11.5094 3.81547 11.5058 3.81726 11.5023C3.81853 11.5002 3.8193 11.4984 3.82031 11.4964C3.82362 11.4895 3.82668 11.4819 3.82923 11.474C3.83025 11.4707 3.83127 11.4671 3.83228 11.4635C3.83228 11.4635 3.83254 11.4625 3.83279 11.4618C3.83356 11.4585 3.83432 11.4549 3.83509 11.4513C3.83611 11.4462 3.83712 11.4409 3.83789 11.4355C3.8384 11.4307 3.83891 11.4256 3.83916 11.4205C3.83967 11.4172 3.83993 11.4139 3.83967 11.4106C3.84018 11.407 3.84018 11.4032 3.84018 11.3994L3.84044 11.3568L3.84349 10.402L3.84375 10.3582L3.844 10.2583L3.78211 10.2227L3.7816 10.3941L3.78135 10.4381L3.77855 11.324L3.77829 11.3614V11.3635C3.77804 11.4177 3.75919 11.4562 3.72888 11.4753C3.7276 11.476 3.72633 11.4765 3.72506 11.4771C3.72276 11.4786 3.72047 11.4799 3.71793 11.4806C3.7136 11.4827 3.70901 11.4844 3.70417 11.4855C3.70086 11.4862 3.69755 11.487 3.69424 11.4872C3.66724 11.4911 3.6354 11.4839 3.60153 11.4643L3.52257 11.4187L3.46094 11.4544Z" fill="#E0E2E2"/>
<path d="M3.45899 10.43C3.45885 10.4507 3.4725 10.4715 3.49993 10.4873C3.55424 10.5185 3.64193 10.5185 3.69584 10.4873L4.2605 10.1591C4.28738 10.1434 4.30076 10.1229 4.30076 10.1023L4.3009 10.0586C4.3009 10.0791 4.28752 10.0995 4.26077 10.1151L3.69598 10.4433C3.64207 10.4746 3.55437 10.4746 3.50019 10.4433C3.47277 10.4275 3.45912 10.4068 3.45912 10.3861L3.45899 10.43Z" fill="#474B59"/>
<path d="M4.26186 10.0021C4.28895 10.0177 4.30256 10.0383 4.30268 10.0588C4.30279 10.0793 4.28941 10.0999 4.2625 10.1155L3.69778 10.4437C3.64387 10.475 3.55616 10.475 3.5019 10.4437C3.44755 10.4123 3.44726 10.3615 3.50117 10.3302L4.06589 10.002C4.1198 9.97068 4.20751 9.97068 4.26186 10.0021Z" fill="#5B5E71"/>
<path d="M7.23106 16.0115C7.23106 16.0521 7.21568 16.0814 7.1933 16.094L7.04507 16.1807C7.06885 16.1667 7.08283 16.1374 7.08283 16.0968C7.08283 16.0157 7.02689 15.9178 6.95558 15.8773C6.91922 15.8563 6.88705 15.8535 6.86328 15.8675L7.01151 15.7822C7.03528 15.7682 7.06745 15.771 7.10381 15.7906C7.17512 15.8325 7.23106 15.929 7.23106 16.0115Z" fill="#354A59"/>
<path d="M6.95516 15.8772C6.88462 15.8365 6.8264 15.8676 6.82617 15.9497C6.82594 16.0307 6.88379 16.1309 6.95432 16.1716C7.02575 16.2129 7.08218 16.1787 7.08242 16.0976C7.08265 16.0155 7.02658 15.9184 6.95516 15.8772Z" fill="#2E414C"/>
<path d="M6.77148 14.9442C6.77148 14.982 6.7858 15.0093 6.80663 15.021L6.94458 15.1017C6.92245 15.0887 6.90944 15.0614 6.90944 15.0236C6.90944 14.9481 6.9615 14.857 7.02787 14.8193C7.06171 14.7998 7.09165 14.7972 7.11377 14.8102L6.97582 14.7308C6.9537 14.7178 6.92375 14.7204 6.88992 14.7386C6.82355 14.7776 6.77148 14.8674 6.77148 14.9442Z" fill="#354A59"/>
<path d="M7.02859 14.8193C7.09424 14.7814 7.14842 14.8104 7.14864 14.8868C7.14885 14.9622 7.09502 15.0555 7.02937 15.0934C6.96289 15.1317 6.91037 15.0999 6.91016 15.0245C6.90994 14.9481 6.96211 14.8577 7.02859 14.8193Z" fill="#2E414C"/>
<path d="M5.35206 14.9403C5.35206 14.9781 5.33774 15.0054 5.31691 15.0171L5.17896 15.0978C5.20109 15.0848 5.2141 15.0575 5.2141 15.0197C5.2141 14.9442 5.16204 14.8531 5.09567 14.8154C5.06183 14.7959 5.03189 14.7933 5.00977 14.8063L5.14772 14.7269C5.16984 14.7139 5.19979 14.7165 5.23362 14.7347C5.29999 14.7737 5.35206 14.8635 5.35206 14.9403Z" fill="#354A59"/>
<path d="M5.09466 14.8154C5.02901 14.7775 4.97483 14.8065 4.97461 14.8829C4.97439 14.9583 5.02823 15.0515 5.09388 15.0895C5.16036 15.1278 5.21288 15.096 5.2131 15.0206C5.21331 14.9442 5.16113 14.8538 5.09466 14.8154Z" fill="#2E414C"/>
<path d="M4.85547 16.076C4.85547 16.1165 4.87085 16.1459 4.89323 16.1585L5.04146 16.2452C5.01768 16.2312 5.0037 16.2018 5.0037 16.1613C5.0037 16.0802 5.05964 15.9823 5.13095 15.9417C5.16731 15.9207 5.19948 15.9179 5.22325 15.9319L5.07502 15.8466C5.05125 15.8326 5.01908 15.8354 4.98272 15.855C4.91141 15.897 4.85547 15.9935 4.85547 16.076Z" fill="#354A59"/>
<path d="M5.13117 15.9416C5.2017 15.9009 5.25992 15.9321 5.26015 16.0141C5.26038 16.0952 5.20253 16.1954 5.132 16.2361C5.06057 16.2773 5.00414 16.2431 5.00391 16.1621C5.00368 16.08 5.05974 15.9829 5.13117 15.9416Z" fill="#2E414C"/>
<path d="M5.16016 16.0457L7.14753 14.8907L7.14814 14.6758L5.16077 15.8307L5.16016 16.0457Z" fill="#525566"/>
<path d="M5.87571 15.1997L4.97461 15.7232L5.16096 15.8311L6.06084 15.3076L6.96195 15.8311L7.1483 15.7232L6.24719 15.1997L7.1483 14.6762L6.96195 14.5684L6.06084 15.0919L5.16096 14.5684L4.97461 14.6762L5.87571 15.1997Z" fill="#474B59"/>
<path d="M4.97522 15.7227L4.97461 15.9376L5.1609 16.0452L5.16151 15.8302L4.97522 15.7227Z" fill="#3F434F"/>
<path d="M6.96259 16.0457L4.97522 14.8907L4.97461 14.6758L6.96198 15.8307L6.96259 16.0457Z" fill="#525566"/>
<path d="M7.14919 15.7227L7.1498 15.9376L6.9635 16.0452L6.96289 15.8302L7.14919 15.7227Z" fill="#3F434F"/>
<path d="M5.84961 12.8848L5.86601 15.194L6.06168 15.3077L6.04527 12.9985L5.84961 12.8848Z" fill="#525566"/>
<path d="M6.04492 12.998L6.06133 15.3072L6.25745 15.194L6.24104 12.8848L6.04492 12.998Z" fill="#5B5E71"/>
<path d="M5.84961 12.8847L6.04527 12.9984L6.24139 12.8852L6.04573 12.7715L5.84961 12.8847Z" fill="#F1C40F"/>
<path d="M5.86719 15.422L6.0608 15.3086L6.25692 15.4231L6.06205 15.5235L5.86719 15.422Z" fill="#525566"/>
<path d="M6.0618 15.5235L6.06055 15.3086L6.25667 15.4231L6.0618 15.5235Z" fill="#525566"/>
<path d="M5.87602 15.2012L5.69141 15.3084L5.86762 15.4219L6.06123 15.3084L5.87602 15.2012Z" fill="#474B59"/>
<path d="M7.23106 16.0115C7.23106 16.0521 7.21568 16.0814 7.1933 16.094L7.04507 16.1807C7.06885 16.1667 7.08283 16.1374 7.08283 16.0968C7.08283 16.0157 7.02689 15.9178 6.95558 15.8773C6.91922 15.8563 6.88705 15.8535 6.86328 15.8675L7.01151 15.7822C7.03528 15.7682 7.06745 15.771 7.10381 15.7906C7.17512 15.8325 7.23106 15.929 7.23106 16.0115Z" fill="#354A59"/>
<path d="M6.95516 15.8772C6.88462 15.8365 6.8264 15.8676 6.82617 15.9497C6.82594 16.0307 6.88379 16.1309 6.95432 16.1716C7.02575 16.2129 7.08218 16.1787 7.08242 16.0976C7.08265 16.0155 7.02658 15.9184 6.95516 15.8772Z" fill="#2E414C"/>
<path d="M6.77148 14.9442C6.77148 14.982 6.7858 15.0093 6.80663 15.021L6.94458 15.1017C6.92245 15.0887 6.90944 15.0614 6.90944 15.0236C6.90944 14.9481 6.9615 14.857 7.02787 14.8193C7.06171 14.7998 7.09165 14.7972 7.11377 14.8102L6.97582 14.7308C6.9537 14.7178 6.92375 14.7204 6.88992 14.7386C6.82355 14.7776 6.77148 14.8674 6.77148 14.9442Z" fill="#354A59"/>
<path d="M7.02859 14.8193C7.09424 14.7814 7.14842 14.8104 7.14864 14.8868C7.14885 14.9622 7.09502 15.0555 7.02937 15.0934C6.96289 15.1317 6.91037 15.0999 6.91016 15.0245C6.90994 14.9481 6.96211 14.8577 7.02859 14.8193Z" fill="#2E414C"/>
<path d="M5.16016 16.0457L7.14753 14.8907L7.14814 14.6758L5.16077 15.8307L5.16016 16.0457Z" fill="#525566"/>
<path d="M5.87571 15.1997L4.97461 15.7232L5.16096 15.8311L6.06084 15.3076L6.96195 15.8311L7.1483 15.7232L6.24719 15.1997L7.1483 14.6762L6.96195 14.5684L6.06084 15.0919L5.16096 14.5684L4.97461 14.6762L5.87571 15.1997Z" fill="#474B59"/>
<path d="M4.97522 15.7227L4.97461 15.9376L5.1609 16.0452L5.16151 15.8302L4.97522 15.7227Z" fill="#3F434F"/>
<path d="M6.96259 16.0457L4.97522 14.8907L4.97461 14.6758L6.96198 15.8307L6.96259 16.0457Z" fill="#525566"/>
<path d="M7.14919 15.7227L7.1498 15.9376L6.9635 16.0452L6.96289 15.8302L7.14919 15.7227Z" fill="#3F434F"/>
<path d="M5.84961 12.8848L5.86601 15.194L6.06168 15.3077L6.04527 12.9985L5.84961 12.8848Z" fill="#525566"/>
<path d="M6.04492 12.998L6.06133 15.3072L6.25745 15.194L6.24104 12.8848L6.04492 12.998Z" fill="#5B5E71"/>
<path d="M5.84961 12.8847L6.04527 12.9984L6.24139 12.8852L6.04573 12.7715L5.84961 12.8847Z" fill="#F1C40F"/>
<path d="M5.86719 15.422L6.0608 15.3086L6.25692 15.4231L6.06205 15.5235L5.86719 15.422Z" fill="#525566"/>
<path d="M6.0618 15.5235L6.06055 15.3086L6.25667 15.4231L6.0618 15.5235Z" fill="#525566"/>
<path d="M5.87602 15.2012L5.69141 15.3084L5.86762 15.4219L6.06123 15.3084L5.87602 15.2012Z" fill="#474B59"/>
<path d="M5.3501 14.9403C5.3501 14.9781 5.33579 15.0054 5.31496 15.0171L5.177 15.0978C5.19913 15.0848 5.21215 15.0575 5.21215 15.0197C5.21215 14.9442 5.16008 14.8531 5.09371 14.8154C5.05988 14.7959 5.02993 14.7933 5.00781 14.8063L5.14577 14.7269C5.16789 14.7139 5.19783 14.7165 5.23167 14.7347C5.29804 14.7737 5.3501 14.8635 5.3501 14.9403Z" fill="#354A59"/>
<path d="M5.09466 14.8154C5.02901 14.7775 4.97483 14.8065 4.97461 14.8829C4.97439 14.9583 5.02823 15.0515 5.09388 15.0895C5.16036 15.1278 5.21288 15.096 5.2131 15.0206C5.21331 14.9442 5.16113 14.8538 5.09466 14.8154Z" fill="#2E414C"/>
<path d="M4.85547 16.076C4.85547 16.1165 4.87085 16.1459 4.89323 16.1585L5.04146 16.2452C5.01768 16.2312 5.0037 16.2018 5.0037 16.1613C5.0037 16.0802 5.05964 15.9823 5.13095 15.9417C5.16731 15.9207 5.19948 15.9179 5.22325 15.9319L5.07502 15.8466C5.05125 15.8326 5.01908 15.8354 4.98272 15.855C4.91141 15.897 4.85547 15.9935 4.85547 16.076Z" fill="#354A59"/>
<path d="M5.13117 15.9416C5.2017 15.9009 5.25992 15.9321 5.26015 16.0141C5.26038 16.0952 5.20253 16.1954 5.132 16.2361C5.06057 16.2773 5.00414 16.2431 5.00391 16.1621C5.00368 16.08 5.05974 15.9829 5.13117 15.9416Z" fill="#2E414C"/>
<path d="M8.04964 12.2204L8.04795 12.4911C8.04795 12.5317 8.02089 12.5723 7.96677 12.6036L6.32793 13.5566C6.21969 13.6192 6.04296 13.6192 5.93302 13.5566L4.28404 12.6036C4.22907 12.5723 4.20117 12.5309 4.20117 12.4886L4.20371 12.2188C4.20371 12.2602 4.23077 12.3025 4.28573 12.3338L5.93471 13.2859C6.04464 13.3494 6.22138 13.3494 6.33047 13.2859L7.96846 12.3338C8.02258 12.3025 8.04964 12.2619 8.04964 12.2204Z" fill="#C14242"/>
<path d="M4.28727 12.333L5.93672 13.2858C6.04603 13.3494 6.22223 13.3494 6.33154 13.2858L7.96958 12.333C8.07888 12.271 8.07725 12.1682 7.96794 12.1046L6.31849 11.1534C6.20917 11.0898 6.03298 11.0898 5.92366 11.1518L4.28563 12.1046C4.17795 12.1682 4.17795 12.271 4.28727 12.333Z" fill="#D8463F"/>
<path d="M4.81836 12.1388L4.89732 12.1844L5.07407 12.0815L5.10642 12.0627L5.07433 12.0441L5.02848 12.0176L4.81836 12.1388Z" fill="#C4C6C6"/>
<path d="M5.02186 12.1963L5.23103 12.0747C5.19897 12.0933 5.15458 12.0907 5.10565 12.0625L4.89648 12.1841C4.94541 12.2123 4.98979 12.2149 5.02186 12.1963Z" fill="#C4C6C6"/>
<path d="M5.06641 12.2702L5.27557 12.1487C5.31834 12.1238 5.34488 12.071 5.34509 11.9961L5.13592 12.1177C5.13571 12.1926 5.10917 12.2454 5.06641 12.2702Z" fill="#D4D6D6"/>
<path d="M5.13477 12.118L5.34393 11.9964L5.34775 10.8555L5.13858 10.977L5.13477 12.118Z" fill="#D4D6D6"/>
<path d="M5.13803 10.9776L5.3472 10.856L5.28534 10.8203L5.07617 10.9419L5.13803 10.9776Z" fill="#ECF0F1"/>
<path d="M4.75586 12.1731L4.8962 12.2541C4.96293 12.2928 5.02355 12.2959 5.0671 12.2697L5.06812 12.2691L5.0699 12.2679C5.07296 12.2658 5.07602 12.2638 5.07882 12.2615C5.08187 12.2592 5.08493 12.2564 5.08773 12.2539C5.08824 12.2531 5.089 12.2526 5.08977 12.2518C5.09257 12.249 5.09537 12.2457 5.09817 12.2424C5.10097 12.2388 5.10378 12.2353 5.10632 12.2312C5.10836 12.2281 5.1104 12.2246 5.11218 12.221C5.11346 12.219 5.11422 12.2172 5.11524 12.2152C5.11855 12.2083 5.1216 12.2006 5.12415 12.1927C5.12517 12.1894 5.12619 12.1859 5.1272 12.1823C5.1272 12.1823 5.12746 12.1813 5.12771 12.1805C5.12848 12.1772 5.12924 12.1736 5.13001 12.1701C5.13103 12.165 5.13204 12.1596 5.13281 12.1543C5.13332 12.1494 5.13383 12.1443 5.13408 12.1392C5.13459 12.1359 5.13485 12.1326 5.13459 12.1293C5.1351 12.1258 5.1351 12.1219 5.1351 12.1181L5.13536 12.0756L5.13841 11.1207L5.13867 11.0769L5.13892 10.9771L5.07703 10.9414L5.07652 11.1128L5.07627 11.1569L5.07347 12.0427L5.07321 12.0802V12.0822C5.07296 12.1364 5.05411 12.1749 5.0238 12.194C5.02253 12.1948 5.02126 12.1953 5.01998 12.1958C5.01769 12.1973 5.0154 12.1986 5.01285 12.1994C5.00852 12.2014 5.00393 12.2032 4.99909 12.2042C4.99578 12.205 4.99247 12.2057 4.98916 12.206C4.96217 12.2098 4.93033 12.2027 4.89645 12.1831L4.81749 12.1375L4.75586 12.1731Z" fill="#E0E2E2"/>
<path d="M4.75391 11.1507C4.75377 11.1714 4.76742 11.1922 4.79485 11.208C4.84917 11.2392 4.93686 11.2392 4.99077 11.208L5.55542 10.8798C5.5823 10.8641 5.59568 10.8436 5.59568 10.823L5.59582 10.7793C5.59582 10.7998 5.58244 10.8202 5.55569 10.8358L4.9909 11.164C4.93699 11.1953 4.8493 11.1953 4.79511 11.164C4.76769 11.1482 4.75404 11.1275 4.75404 11.1068L4.75391 11.1507Z" fill="#474B59"/>
<path d="M5.55483 10.7228C5.58191 10.7384 5.59553 10.759 5.59565 10.7795C5.59576 10.8 5.58238 10.8206 5.55547 10.8362L4.99075 11.1644C4.93684 11.1957 4.84913 11.1957 4.79487 11.1644C4.74052 11.133 4.74023 11.0822 4.79414 11.0509L5.35886 10.7227C5.41277 10.6914 5.50048 10.6914 5.55483 10.7228Z" fill="#5B5E71"/>
<path d="M5.10742 13.1459L5.16054 13.1151L5.16292 12.2773L5.1098 12.3082L5.10742 13.1459Z" fill="#31323C"/>
<path d="M5.10867 12.3077L5.16179 12.2768L4.84804 12.0957L4.79492 12.1266L5.10867 12.3077Z" fill="#4E5161"/>
<path d="M4.79534 12.127L4.79297 12.9647L5.10671 13.1458L5.10909 12.3081L4.79534 12.127Z" fill="#464957"/>
<path d="M6.22333 10.7739L6.21826 12.6004C6.21826 12.663 6.19627 12.707 6.16076 12.7273L5.96958 12.8405C6.00509 12.8194 6.02708 12.7754 6.02708 12.7137L6.033 10.8871C6.033 10.762 5.94506 10.6089 5.83513 10.5455L4.1853 9.59332C4.13033 9.56203 4.08044 9.55865 4.04492 9.57979L4.23526 9.46654C4.27162 9.44539 4.32151 9.44877 4.37648 9.48006L6.02546 10.4331C6.13539 10.4957 6.22333 10.6487 6.22333 10.7739Z" fill="#D8463F"/>
<path d="M4.18639 9.59354C4.07733 9.53058 3.98795 9.58089 3.9876 9.7062L3.98242 11.5326C3.98207 11.658 4.07086 11.8111 4.17992 11.8741L5.82934 12.8264C5.93894 12.8897 6.02778 12.8391 6.02813 12.7137L6.03331 10.8873C6.03366 10.762 5.9454 10.6091 5.8358 10.5458L4.18639 9.59354Z" fill="#E74C3C"/>
<path d="M6.76562 13.2951L6.84458 13.3407L7.02134 13.2378L7.05369 13.2189L7.02159 13.2003L6.97575 13.1738L6.76562 13.2951Z" fill="#C4C6C6"/>
<path d="M6.96912 13.3525L7.17829 13.2309C7.14623 13.2496 7.10184 13.247 7.05292 13.2188L6.84375 13.3403C6.89267 13.3686 6.93706 13.3711 6.96912 13.3525Z" fill="#C4C6C6"/>
<path d="M7.01367 13.4265L7.22284 13.3049C7.2656 13.2801 7.29215 13.2273 7.29236 13.1523L7.08319 13.2739C7.08298 13.3489 7.05643 13.4016 7.01367 13.4265Z" fill="#D4D6D6"/>
<path d="M7.08203 13.2742L7.2912 13.1526L7.29501 12.0117L7.08584 12.1333L7.08203 13.2742Z" fill="#D4D6D6"/>
<path d="M7.0853 12.1338L7.29447 12.0123L7.23261 11.9766L7.02344 12.0981L7.0853 12.1338Z" fill="#ECF0F1"/>
<path d="M6.70312 13.3294L6.84346 13.4104C6.9102 13.4491 6.97081 13.4521 7.01436 13.4259L7.01538 13.4254L7.01717 13.4241C7.02022 13.4221 7.02328 13.42 7.02608 13.4178C7.02914 13.4155 7.0322 13.4127 7.035 13.4101C7.03551 13.4094 7.03627 13.4088 7.03704 13.4081C7.03984 13.4053 7.04264 13.402 7.04544 13.3987C7.04824 13.3951 7.05104 13.3915 7.05359 13.3874C7.05563 13.3844 7.05767 13.3808 7.05945 13.3773C7.06072 13.3752 7.06149 13.3734 7.0625 13.3714C7.06581 13.3645 7.06887 13.3569 7.07142 13.349C7.07243 13.3457 7.07345 13.3421 7.07447 13.3385C7.07447 13.3385 7.07473 13.3375 7.07498 13.3368C7.07574 13.3334 7.07651 13.3299 7.07727 13.3263C7.07829 13.3212 7.07931 13.3159 7.08007 13.3105C7.08058 13.3057 7.08109 13.3006 7.08135 13.2955C7.08186 13.2922 7.08211 13.2889 7.08186 13.2856C7.08237 13.282 7.08237 13.2782 7.08237 13.2744L7.08262 13.2318L7.08568 12.277L7.08593 12.2332L7.08619 12.1333L7.0243 12.0977L7.02379 12.2691L7.02353 12.3131L7.02073 13.199L7.02048 13.2364V13.2384C7.02022 13.2927 7.00138 13.3312 6.97107 13.3503C6.96979 13.351 6.96852 13.3515 6.96725 13.352C6.96495 13.3536 6.96266 13.3548 6.96011 13.3556C6.95578 13.3576 6.9512 13.3594 6.94636 13.3604C6.94305 13.3612 6.93974 13.362 6.93643 13.3622C6.90943 13.3661 6.87759 13.3589 6.84372 13.3393L6.76476 13.2937L6.70312 13.3294Z" fill="#E0E2E2"/>
<path d="M6.70117 12.3069C6.70104 12.3276 6.71468 12.3484 6.74211 12.3642C6.79643 12.3954 6.88412 12.3954 6.93803 12.3642L7.50268 12.036C7.52957 12.0204 7.54295 11.9998 7.54295 11.9793L7.54308 11.9355C7.54308 11.9561 7.52971 11.9765 7.50295 11.992L6.93817 12.3202C6.88426 12.3516 6.79656 12.3516 6.74238 12.3202C6.71495 12.3044 6.70131 12.2837 6.70131 12.2631L6.70117 12.3069Z" fill="#474B59"/>
<path d="M7.50209 11.879C7.52918 11.8946 7.5428 11.9152 7.54291 11.9357C7.54303 11.9563 7.52965 11.9768 7.50273 11.9925L6.93801 12.3206C6.8841 12.352 6.7964 12.352 6.74213 12.3206C6.68778 12.2893 6.6875 12.2385 6.74141 12.2071L7.30613 11.879C7.36004 11.8476 7.44774 11.8476 7.50209 11.879Z" fill="#5B5E71"/>
<path d="M8.05859 14.0158L8.13755 14.0614L8.31431 13.9585L8.34666 13.9396L8.31457 13.921L8.26872 13.8945L8.05859 14.0158Z" fill="#C4C6C6"/>
<path d="M8.26209 14.0732L8.47126 13.9516C8.4392 13.9703 8.39481 13.9677 8.34589 13.9395L8.13672 14.061C8.18564 14.0893 8.23003 14.0918 8.26209 14.0732Z" fill="#C4C6C6"/>
<path d="M8.30664 14.1472L8.51581 14.0256C8.55857 14.0008 8.58512 13.948 8.58533 13.873L8.37616 13.9946C8.37594 14.0696 8.3494 14.1223 8.30664 14.1472Z" fill="#D4D6D6"/>
<path d="M8.375 13.9949L8.58417 13.8733L8.58798 12.7324L8.37882 12.854L8.375 13.9949Z" fill="#D4D6D6"/>
<path d="M8.37827 12.8545L8.58744 12.733L8.52558 12.6973L8.31641 12.8188L8.37827 12.8545Z" fill="#ECF0F1"/>
<path d="M7.99609 14.0501L8.13643 14.1311C8.20316 14.1698 8.26378 14.1728 8.30733 14.1466L8.30835 14.1461L8.31014 14.1448C8.31319 14.1428 8.31625 14.1408 8.31905 14.1385C8.32211 14.1362 8.32516 14.1334 8.32796 14.1308C8.32847 14.1301 8.32924 14.1295 8.33 14.1288C8.3328 14.126 8.33561 14.1227 8.33841 14.1194C8.34121 14.1158 8.34401 14.1122 8.34656 14.1082C8.3486 14.1051 8.35063 14.1015 8.35241 14.098C8.35369 14.0959 8.35445 14.0941 8.35547 14.0921C8.35878 14.0852 8.36184 14.0776 8.36438 14.0697C8.3654 14.0664 8.36642 14.0628 8.36744 14.0592C8.36744 14.0592 8.36769 14.0582 8.36795 14.0575C8.36871 14.0542 8.36948 14.0506 8.37024 14.047C8.37126 14.0419 8.37228 14.0366 8.37304 14.0312C8.37355 14.0264 8.37406 14.0213 8.37432 14.0162C8.37483 14.0129 8.37508 14.0096 8.37483 14.0063C8.37534 14.0027 8.37534 13.9989 8.37534 13.9951L8.37559 13.9525L8.37865 12.9977L8.3789 12.9539L8.37916 12.854L8.31727 12.8184L8.31676 12.9898L8.3165 13.0338L8.3137 13.9197L8.31345 13.9571V13.9592C8.31319 14.0134 8.29434 14.0519 8.26403 14.071C8.26276 14.0717 8.26149 14.0722 8.26022 14.0727C8.25792 14.0743 8.25563 14.0755 8.25308 14.0763C8.24875 14.0784 8.24417 14.0801 8.23933 14.0812C8.23602 14.0819 8.23271 14.0827 8.2294 14.0829C8.2024 14.0868 8.17056 14.0796 8.13669 14.06L8.05773 14.0144L7.99609 14.0501Z" fill="#E0E2E2"/>
<path d="M7.99609 13.0257C7.99596 13.0464 8.0096 13.0672 8.03704 13.083C8.09135 13.1142 8.17904 13.1142 8.23295 13.083L8.7976 12.7548C8.82449 12.7391 8.83787 12.7186 8.83787 12.698L8.838 12.6543C8.838 12.6748 8.82463 12.6952 8.79788 12.7108L8.23309 13.039C8.17918 13.0703 8.09148 13.0703 8.0373 13.039C8.00988 13.0232 7.99623 13.0025 7.99623 12.9818L7.99609 13.0257Z" fill="#474B59"/>
<path d="M8.79702 12.5978C8.8241 12.6134 8.83772 12.634 8.83783 12.6545C8.83795 12.675 8.82456 12.6956 8.79765 12.7112L8.23293 13.0394C8.17902 13.0707 8.09132 13.0707 8.03705 13.0394C7.98271 13.008 7.98242 12.9572 8.03633 12.9259L8.60105 12.5977C8.65496 12.5664 8.74267 12.5664 8.79702 12.5978Z" fill="#5B5E71"/>
<path d="M8.34961 15.0209L8.40273 14.99L8.4051 14.1523L8.35198 14.1832L8.34961 15.0209Z" fill="#31323C"/>
<path d="M8.35085 14.1827L8.40398 14.1518L8.09023 13.9707L8.03711 14.0016L8.35085 14.1827Z" fill="#4E5161"/>
<path d="M8.03753 14.002L8.03516 14.8397L8.3489 15.0208L8.35128 14.1831L8.03753 14.002Z" fill="#464957"/>
<path d="M10.0078 15.172L10.0868 15.2176L10.2635 15.1147L10.2959 15.0959L10.2638 15.0773L10.2179 15.0508L10.0078 15.172Z" fill="#C4C6C6"/>
<path d="M10.2113 15.2295L10.4205 15.1079C10.3884 15.1265 10.344 15.124 10.2951 15.0957L10.0859 15.2173C10.1349 15.2455 10.1792 15.2481 10.2113 15.2295Z" fill="#C4C6C6"/>
<path d="M10.2559 15.3034L10.465 15.1819C10.5078 15.157 10.5343 15.1042 10.5345 15.0293L10.3254 15.1509C10.3252 15.2258 10.2986 15.2786 10.2559 15.3034Z" fill="#D4D6D6"/>
<path d="M10.3242 15.1512L10.5334 15.0296L10.5372 13.8887L10.328 14.0102L10.3242 15.1512Z" fill="#D4D6D6"/>
<path d="M10.3275 14.0108L10.5367 13.8892L10.4748 13.8535L10.2656 13.9751L10.3275 14.0108Z" fill="#ECF0F1"/>
<path d="M9.94531 15.2063L10.0856 15.2873C10.1524 15.326 10.213 15.3291 10.2566 15.3029L10.2576 15.3024L10.2594 15.3011C10.2624 15.299 10.2655 15.297 10.2683 15.2947C10.2713 15.2924 10.2744 15.2896 10.2772 15.2871C10.2777 15.2863 10.2785 15.2858 10.2792 15.285C10.282 15.2822 10.2848 15.2789 10.2876 15.2756C10.2904 15.272 10.2932 15.2685 10.2958 15.2644C10.2978 15.2613 10.2999 15.2578 10.3016 15.2542C10.3029 15.2522 10.3037 15.2504 10.3047 15.2484C10.308 15.2415 10.3111 15.2338 10.3136 15.2259C10.3146 15.2226 10.3156 15.2191 10.3167 15.2155C10.3167 15.2155 10.3169 15.2145 10.3172 15.2137C10.3179 15.2104 10.3187 15.2068 10.3195 15.2033C10.3205 15.1982 10.3215 15.1928 10.3223 15.1875C10.3228 15.1826 10.3233 15.1775 10.3235 15.1725C10.324 15.1691 10.3243 15.1658 10.324 15.1625C10.3246 15.159 10.3246 15.1551 10.3246 15.1513L10.3248 15.1088L10.3279 14.1539L10.3281 14.1101L10.3284 14.0103L10.2665 13.9746L10.266 14.146L10.2657 14.1901L10.2629 15.0759L10.2627 15.1134V15.1154C10.2624 15.1697 10.2436 15.2081 10.2133 15.2272C10.212 15.228 10.2107 15.2285 10.2094 15.229C10.2071 15.2305 10.2049 15.2318 10.2023 15.2326C10.198 15.2346 10.1934 15.2364 10.1885 15.2374C10.1852 15.2382 10.1819 15.2389 10.1786 15.2392C10.1516 15.243 10.1198 15.2359 10.0859 15.2163L10.0069 15.1707L9.94531 15.2063Z" fill="#E0E2E2"/>
<path d="M9.94336 14.1819C9.94322 14.2026 9.95687 14.2234 9.9843 14.2392C10.0386 14.2704 10.1263 14.2704 10.1802 14.2392L10.7449 13.911C10.7718 13.8954 10.7851 13.8748 10.7851 13.8543L10.7853 13.8105C10.7853 13.8311 10.7719 13.8515 10.7451 13.867L10.1804 14.1952C10.1264 14.2266 10.0387 14.2266 9.98457 14.1952C9.95714 14.1794 9.94349 14.1587 9.94349 14.1381L9.94336 14.1819Z" fill="#474B59"/>
<path d="M10.7443 13.754C10.7714 13.7696 10.785 13.7902 10.7851 13.8107C10.7852 13.8313 10.7718 13.8518 10.7449 13.8675L10.1802 14.1956C10.1263 14.227 10.0386 14.227 9.98432 14.1956C9.92997 14.1643 9.92968 14.1135 9.98359 14.0821L10.5483 13.754C10.6022 13.7226 10.6899 13.7226 10.7443 13.754Z" fill="#5B5E71"/>
<path d="M4.81836 12.1388L4.89732 12.1844L5.07407 12.0815L5.10642 12.0627L5.07433 12.0441L5.02848 12.0176L4.81836 12.1388Z" fill="#C4C6C6"/>
<path d="M5.02186 12.1963L5.23103 12.0747C5.19897 12.0933 5.15458 12.0907 5.10565 12.0625L4.89648 12.1841C4.94541 12.2123 4.98979 12.2149 5.02186 12.1963Z" fill="#C4C6C6"/>
<path d="M5.06641 12.2702L5.27557 12.1487C5.31834 12.1238 5.34488 12.071 5.34509 11.9961L5.13592 12.1177C5.13571 12.1926 5.10917 12.2454 5.06641 12.2702Z" fill="#D4D6D6"/>
<path d="M5.13477 12.118L5.34393 11.9964L5.34775 10.8555L5.13858 10.977L5.13477 12.118Z" fill="#D4D6D6"/>
<path d="M5.13803 10.9776L5.3472 10.856L5.28534 10.8203L5.07617 10.9419L5.13803 10.9776Z" fill="#ECF0F1"/>
<path d="M4.75586 12.1731L4.8962 12.2541C4.96293 12.2928 5.02355 12.2959 5.0671 12.2697L5.06812 12.2691L5.0699 12.2679C5.07296 12.2658 5.07602 12.2638 5.07882 12.2615C5.08187 12.2592 5.08493 12.2564 5.08773 12.2539C5.08824 12.2531 5.089 12.2526 5.08977 12.2518C5.09257 12.249 5.09537 12.2457 5.09817 12.2424C5.10097 12.2388 5.10378 12.2353 5.10632 12.2312C5.10836 12.2281 5.1104 12.2246 5.11218 12.221C5.11346 12.219 5.11422 12.2172 5.11524 12.2152C5.11855 12.2083 5.1216 12.2006 5.12415 12.1927C5.12517 12.1894 5.12619 12.1859 5.1272 12.1823C5.1272 12.1823 5.12746 12.1813 5.12771 12.1805C5.12848 12.1772 5.12924 12.1736 5.13001 12.1701C5.13103 12.165 5.13204 12.1596 5.13281 12.1543C5.13332 12.1494 5.13383 12.1443 5.13408 12.1392C5.13459 12.1359 5.13485 12.1326 5.13459 12.1293C5.1351 12.1258 5.1351 12.1219 5.1351 12.1181L5.13536 12.0756L5.13841 11.1207L5.13867 11.0769L5.13892 10.9771L5.07703 10.9414L5.07652 11.1128L5.07627 11.1569L5.07347 12.0427L5.07321 12.0802V12.0822C5.07296 12.1364 5.05411 12.1749 5.0238 12.194C5.02253 12.1948 5.02126 12.1953 5.01998 12.1958C5.01769 12.1973 5.0154 12.1986 5.01285 12.1994C5.00852 12.2014 5.00393 12.2032 4.99909 12.2042C4.99578 12.205 4.99247 12.2057 4.98916 12.206C4.96217 12.2098 4.93033 12.2027 4.89645 12.1831L4.81749 12.1375L4.75586 12.1731Z" fill="#E0E2E2"/>
<path d="M4.75391 11.1507C4.75377 11.1714 4.76742 11.1922 4.79485 11.208C4.84917 11.2392 4.93686 11.2392 4.99077 11.208L5.55542 10.8798C5.5823 10.8641 5.59568 10.8436 5.59568 10.823L5.59582 10.7793C5.59582 10.7998 5.58244 10.8202 5.55569 10.8358L4.9909 11.164C4.93699 11.1953 4.8493 11.1953 4.79511 11.164C4.76769 11.1482 4.75404 11.1275 4.75404 11.1068L4.75391 11.1507Z" fill="#474B59"/>
<path d="M5.55483 10.7228C5.58191 10.7384 5.59553 10.759 5.59565 10.7795C5.59576 10.8 5.58238 10.8206 5.55547 10.8362L4.99075 11.1644C4.93684 11.1957 4.84913 11.1957 4.79487 11.1644C4.74052 11.133 4.74023 11.0822 4.79414 11.0509L5.35886 10.7227C5.41277 10.6914 5.50048 10.6914 5.55483 10.7228Z" fill="#5B5E71"/>
<path d="M6.76562 13.2951L6.84458 13.3407L7.02134 13.2378L7.05369 13.2189L7.02159 13.2003L6.97575 13.1738L6.76562 13.2951Z" fill="#C4C6C6"/>
<path d="M6.96912 13.3525L7.17829 13.2309C7.14623 13.2496 7.10184 13.247 7.05292 13.2188L6.84375 13.3403C6.89267 13.3686 6.93706 13.3711 6.96912 13.3525Z" fill="#C4C6C6"/>
<path d="M7.01367 13.4284L7.22284 13.3069C7.2656 13.282 7.29215 13.2292 7.29236 13.1543L7.08319 13.2759C7.08298 13.3508 7.05643 13.4036 7.01367 13.4284Z" fill="#D4D6D6"/>
<path d="M7.08203 13.2762L7.2912 13.1546L7.29501 12.0137L7.08584 12.1352L7.08203 13.2762Z" fill="#D4D6D6"/>
<path d="M7.0853 12.1338L7.29447 12.0123L7.23261 11.9766L7.02344 12.0981L7.0853 12.1338Z" fill="#ECF0F1"/>
<path d="M6.70312 13.3313L6.84346 13.4123C6.9102 13.451 6.97081 13.4541 7.01436 13.4279L7.01538 13.4274L7.01717 13.4261C7.02022 13.424 7.02328 13.422 7.02608 13.4197C7.02914 13.4174 7.0322 13.4146 7.035 13.4121C7.03551 13.4113 7.03627 13.4108 7.03704 13.41C7.03984 13.4072 7.04264 13.4039 7.04544 13.4006C7.04824 13.397 7.05104 13.3935 7.05359 13.3894C7.05563 13.3863 7.05767 13.3828 7.05945 13.3792C7.06072 13.3772 7.06149 13.3754 7.0625 13.3734C7.06581 13.3665 7.06887 13.3588 7.07142 13.3509C7.07243 13.3476 7.07345 13.3441 7.07447 13.3405C7.07447 13.3405 7.07473 13.3395 7.07498 13.3387C7.07574 13.3354 7.07651 13.3318 7.07727 13.3283C7.07829 13.3232 7.07931 13.3178 7.08007 13.3125C7.08058 13.3076 7.08109 13.3025 7.08135 13.2974C7.08186 13.2941 7.08211 13.2908 7.08186 13.2875C7.08237 13.284 7.08237 13.2801 7.08237 13.2763L7.08262 13.2338L7.08568 12.2789L7.08593 12.2351L7.08619 12.1353L7.0243 12.0996L7.02379 12.271L7.02353 12.3151L7.02073 13.2009L7.02048 13.2384V13.2404C7.02022 13.2947 7.00138 13.3331 6.97107 13.3522C6.96979 13.353 6.96852 13.3535 6.96725 13.354C6.96495 13.3555 6.96266 13.3568 6.96011 13.3576C6.95578 13.3596 6.9512 13.3614 6.94636 13.3624C6.94305 13.3632 6.93974 13.3639 6.93643 13.3642C6.90943 13.368 6.87759 13.3609 6.84372 13.3413L6.76476 13.2957L6.70312 13.3313Z" fill="#E0E2E2"/>
<path d="M6.70117 12.3069C6.70104 12.3276 6.71468 12.3484 6.74211 12.3642C6.79643 12.3954 6.88412 12.3954 6.93803 12.3642L7.50268 12.036C7.52957 12.0204 7.54295 11.9998 7.54295 11.9793L7.54308 11.9355C7.54308 11.9561 7.52971 11.9765 7.50295 11.992L6.93817 12.3202C6.88426 12.3516 6.79656 12.3516 6.74238 12.3202C6.71495 12.3044 6.70131 12.2837 6.70131 12.2631L6.70117 12.3069Z" fill="#474B59"/>
<path d="M7.50209 11.879C7.52918 11.8946 7.5428 11.9152 7.54291 11.9357C7.54303 11.9563 7.52965 11.9768 7.50273 11.9925L6.93801 12.3206C6.8841 12.352 6.7964 12.352 6.74213 12.3206C6.68778 12.2893 6.6875 12.2385 6.74141 12.2071L7.30613 11.879C7.36004 11.8476 7.44774 11.8476 7.50209 11.879Z" fill="#5B5E71"/>
<path d="M5.10742 13.144L5.16054 13.1131L5.16292 12.2754L5.1098 12.3063L5.10742 13.144Z" fill="#31323C"/>
<path d="M5.10867 12.3077L5.16179 12.2768L4.84804 12.0957L4.79492 12.1266L5.10867 12.3077Z" fill="#4E5161"/>
<path d="M4.79534 12.125L4.79297 12.9627L5.10671 13.1439L5.10909 12.3061L4.79534 12.125Z" fill="#464957"/>
<path d="M6.22333 10.7739L6.21826 12.6004C6.21826 12.663 6.19627 12.707 6.16076 12.7273L5.96958 12.8405C6.00509 12.8194 6.02708 12.7754 6.02708 12.7137L6.033 10.8871C6.033 10.762 5.94506 10.6089 5.83513 10.5455L4.1853 9.59332C4.13033 9.56203 4.08044 9.55865 4.04492 9.57979L4.23526 9.46654C4.27162 9.44539 4.32151 9.44877 4.37648 9.48006L6.02546 10.4331C6.13539 10.4957 6.22333 10.6487 6.22333 10.7739Z" fill="#D8463F"/>
<path d="M4.18639 9.59354C4.07733 9.53058 3.98795 9.58089 3.9876 9.7062L3.98242 11.5326C3.98207 11.658 4.07086 11.8111 4.17992 11.8741L5.82934 12.8264C5.93894 12.8897 6.02778 12.8391 6.02813 12.7137L6.03331 10.8873C6.03366 10.762 5.9454 10.6091 5.8358 10.5458L4.18639 9.59354Z" fill="#E74C3C"/>
<path d="M9.46552 12.6508L9.46045 14.4774C9.46045 14.54 9.43846 14.5839 9.40294 14.6042L9.21176 14.7175C9.24728 14.6964 9.26927 14.6524 9.26927 14.5907L9.27519 12.7641C9.27519 12.6389 9.18724 12.4859 9.07731 12.4224L7.42749 11.4703C7.37252 11.439 7.32263 11.4356 7.28711 11.4567L7.47744 11.3435C7.51381 11.3223 7.5637 11.3257 7.61867 11.357L9.26765 12.31C9.37758 12.3726 9.46552 12.5257 9.46552 12.6508Z" fill="#D8463F"/>
<path d="M7.42662 11.4705C7.31756 11.4075 7.22819 11.4578 7.22783 11.5832L7.22266 13.4096C7.2223 13.5349 7.3111 13.6881 7.42016 13.7511L9.06958 14.7033C9.17918 14.7666 9.26801 14.716 9.26836 14.5907L9.27354 12.7642C9.2739 12.6389 9.18564 12.4861 9.07604 12.4228L7.42662 11.4705Z" fill="#E74C3C"/>
</svg>
