<svg width="14" height="14" viewBox="0 0 14 14" fill="none" xmlns="http://www.w3.org/2000/svg">
<path d="M11.8125 12.25H10.9375V11.5502C10.9375 9.69336 10.0728 8.17705 8.68036 7.59259C8.56233 7.54483 8.46124 7.46291 8.39007 7.35733C8.3189 7.25175 8.28087 7.12732 8.28087 7C8.28087 6.87267 8.3189 6.74824 8.39007 6.64266C8.46124 6.53708 8.56233 6.45516 8.68036 6.4074C10.0728 5.82294 10.9375 4.30664 10.9375 2.44983V1.75H11.8125C11.9285 1.75 12.0398 1.70391 12.1219 1.62186C12.2039 1.53981 12.25 1.42853 12.25 1.3125C12.25 1.19647 12.2039 1.08519 12.1219 1.00314C12.0398 0.921094 11.9285 0.875 11.8125 0.875H2.1875C2.07147 0.875 1.96019 0.921094 1.87814 1.00314C1.79609 1.08519 1.75 1.19647 1.75 1.3125C1.75 1.42853 1.79609 1.53981 1.87814 1.62186C1.96019 1.70391 2.07147 1.75 2.1875 1.75H3.0625V2.44983C3.0625 4.30664 3.92724 5.82295 5.31964 6.40741C5.43767 6.45517 5.53876 6.53709 5.60993 6.64267C5.6811 6.74825 5.71913 6.87268 5.71913 7C5.71913 7.12733 5.6811 7.25176 5.60993 7.35734C5.53876 7.46292 5.43767 7.54484 5.31964 7.5926C3.92724 8.17706 3.0625 9.69336 3.0625 11.5502V12.25H2.1875C2.07147 12.25 1.96019 12.2961 1.87814 12.3781C1.79609 12.4602 1.75 12.5715 1.75 12.6875C1.75 12.8035 1.79609 12.9148 1.87814 12.9969C1.96019 13.0789 2.07147 13.125 2.1875 13.125H11.8125C11.9285 13.125 12.0398 13.0789 12.1219 12.9969C12.2039 12.9148 12.25 12.8035 12.25 12.6875C12.25 12.5715 12.2039 12.4602 12.1219 12.3781C12.0398 12.2961 11.9285 12.25 11.8125 12.25ZM3.9375 12.25V11.5502C3.9375 10.0522 4.59674 8.84485 5.65802 8.39923C5.93504 8.28486 6.17187 8.09084 6.33851 7.84174C6.50516 7.59265 6.59412 7.2997 6.59412 7C6.59412 6.7003 6.50516 6.40735 6.33851 6.15826C6.17187 5.90916 5.93504 5.71514 5.65802 5.60077C4.59674 5.15515 3.9375 3.94775 3.9375 2.44983V1.75H10.0625V2.44983C10.0625 3.94775 9.40326 5.15515 8.34198 5.60077C8.06496 5.71514 7.82813 5.90916 7.66149 6.15826C7.49484 6.40735 7.40588 6.7003 7.40588 7C7.40588 7.2997 7.49484 7.59265 7.66149 7.84174C7.82813 8.09084 8.06496 8.28486 8.34198 8.39923C9.40326 8.84485 10.0625 10.0522 10.0625 11.5502V12.25H3.9375ZM9.625 11.375C9.625 11.491 9.57891 11.6023 9.49686 11.6844C9.41481 11.7664 9.30353 11.8125 9.1875 11.8125H4.8125C4.69647 11.8125 4.58519 11.7664 4.50314 11.6844C4.42109 11.6023 4.375 11.491 4.375 11.375C4.375 10.6788 4.65156 10.0111 5.14384 9.51884C5.63613 9.02656 6.30381 8.75 7 8.75C7.69619 8.75 8.36387 9.02656 8.85616 9.51884C9.34844 10.0111 9.625 10.6788 9.625 11.375V11.375Z" fill="#0075FF"/>
</svg>
