<svg width="20" height="20" viewBox="0 0 20 20" fill="none" xmlns="http://www.w3.org/2000/svg">
<g clip-path="url(#clip0_4175_24163)">
<path d="M0 10.9921C0 11.1025 0.0895431 11.1921 0.2 11.1921H0.971875C1.08233 11.1921 1.17188 11.2816 1.17188 11.3921V19.3759C1.17188 19.4863 1.26142 19.5759 1.37188 19.5759H2.14375C2.25421 19.5759 2.34375 19.4863 2.34375 19.3759V11.3921C2.34375 11.2816 2.43329 11.1921 2.54375 11.1921H17.4562C17.5667 11.1921 17.6562 11.2816 17.6562 11.3921V19.3759C17.6562 19.4863 17.7458 19.5759 17.8563 19.5759H18.6281C18.7386 19.5759 18.8281 19.4863 18.8281 19.3759V11.3921C18.8281 11.2816 18.9177 11.1921 19.0281 11.1921H19.8C19.9105 11.1921 20 11.1025 20 10.9921V9.40605C20 9.2956 19.9105 9.20605 19.8 9.20605H0.200001C0.0895441 9.20605 0 9.2956 0 9.40605V10.9921Z" fill="#5E5B50"/>
<path d="M19.9994 2.31883C19.9994 1.27391 19.1493 0.423828 18.1044 0.423828C17.5982 0.423828 17.1223 0.620937 16.7644 0.978867L16.5806 1.16266C16.5025 1.24078 16.3759 1.24078 16.2978 1.16267L15.8681 0.732993C15.7989 0.663797 15.6898 0.654832 15.6102 0.711805L13.0941 2.51357C12.9937 2.58547 12.9818 2.73028 13.0691 2.8176L15.8596 5.6081C15.9469 5.69543 16.0918 5.68353 16.1637 5.58312L17.9654 3.06694C18.0224 2.98738 18.0134 2.87827 17.9442 2.80908L17.4093 2.27416C17.3312 2.19605 17.3312 2.06942 17.4093 1.99131L17.593 1.80754C17.7296 1.67094 17.9113 1.59574 18.1044 1.59574C18.5031 1.59574 18.8275 1.92012 18.8275 2.31887V7.81801C18.8275 7.92847 18.917 8.01801 19.0275 8.01801H19.7994C19.9098 8.01801 19.9994 7.92847 19.9994 7.81801V2.31883Z" fill="#5E5B50"/>
<path d="M4.84055 4.09539C4.84055 3.98493 4.751 3.89539 4.64055 3.89539H4.54172C4.38085 3.89539 4.28581 3.71511 4.37671 3.58238L5.01566 2.64943C5.07807 2.55829 5.05479 2.43382 4.96366 2.3714L4.3268 1.93527C4.23567 1.87286 4.1112 1.89614 4.04879 1.98727L3.50255 2.78483C3.39146 2.94702 3.13754 2.86841 3.13754 2.67181V2.04367C3.13754 1.93321 3.048 1.84367 2.93754 1.84367H2.16566C2.05521 1.84367 1.96566 1.93321 1.96566 2.04367V3.69539C1.96566 3.80585 1.87612 3.89539 1.76566 3.89539H1.33281C1.22236 3.89539 1.13281 3.98493 1.13281 4.09539V7.81789C1.13281 7.92835 1.22236 8.01789 1.33281 8.01789H4.64055C4.751 8.01789 4.84055 7.92835 4.84055 7.81789V4.09539Z" fill="#5E5B50"/>
</g>
<defs>
<clipPath id="clip0_4175_24163">
<rect width="20" height="20" fill="white"/>
</clipPath>
</defs>
</svg>
