<svg id="Capa_1" enable-background="new 0 0 510 510" height="512" viewBox="0 0 510 510" width="512" xmlns="http://www.w3.org/2000/svg" xmlns:xlink="http://www.w3.org/1999/xlink"><linearGradient id="lg1"><stop offset="0" stop-color="#9b62cd"/><stop offset=".3003" stop-color="#985dcb"/><stop offset=".6716" stop-color="#8f4ec7"/><stop offset="1" stop-color="#833ac1"/></linearGradient><linearGradient id="SVGID_1_" gradientTransform="matrix(.707 .707 -.707 .707 437.238 -402.931)" gradientUnits="userSpaceOnUse" x1="394.347" x2="306.765" xlink:href="#lg1" y1="898.573" y2="807.432"/><linearGradient id="lg2"><stop offset="0" stop-color="#ffd945"/><stop offset=".3043" stop-color="#ffcd3e"/><stop offset=".8558" stop-color="#ffad2b"/><stop offset="1" stop-color="#ffa325"/></linearGradient><linearGradient id="SVGID_2_" gradientTransform="matrix(.707 -.707 .707 .707 -359.819 1769.32)" gradientUnits="userSpaceOnUse" x1="1378.509" x2="1368.301" xlink:href="#lg2" y1="-688.008" y2="-549.011"/><linearGradient id="lg3"><stop offset="0" stop-color="#f8f6fb"/><stop offset="1" stop-color="#efdcfb"/></linearGradient><linearGradient id="SVGID_3_" gradientUnits="userSpaceOnUse" x1="95.639" x2="120.724" xlink:href="#lg3" y1="401.789" y2="440.201"/><linearGradient id="SVGID_4_" gradientUnits="userSpaceOnUse" x1="143.723" x2="168.809" xlink:href="#lg3" y1="370.387" y2="408.799"/><linearGradient id="SVGID_5_" gradientUnits="userSpaceOnUse" x1="191.293" x2="216.378" xlink:href="#lg3" y1="339.321" y2="377.733"/><linearGradient id="SVGID_6_" gradientUnits="userSpaceOnUse" x1="238.017" x2="263.102" xlink:href="#lg3" y1="308.807" y2="347.219"/><linearGradient id="SVGID_7_" gradientUnits="userSpaceOnUse" x1="270.07" x2="295.156" xlink:href="#lg3" y1="287.874" y2="326.286"/><linearGradient id="lg4"><stop offset="0" stop-color="#ff7044"/><stop offset="1" stop-color="#f82814"/></linearGradient><linearGradient id="SVGID_8_" gradientTransform="matrix(.707 -.707 .707 .707 -359.819 1769.32)" gradientUnits="userSpaceOnUse" x1="1586.815" x2="1494.802" xlink:href="#lg4" y1="-620.654" y2="-620.654"/><linearGradient id="lg5"><stop offset="0" stop-color="#92f37f"/><stop offset="1" stop-color="#4ab272"/></linearGradient><linearGradient id="SVGID_9_" gradientUnits="userSpaceOnUse" x1="68.285" x2="85.082" xlink:href="#lg5" y1="453.027" y2="469.824"/><linearGradient id="SVGID_10_" gradientTransform="matrix(.707 .707 -.707 .707 350.837 -538.172)" gradientUnits="userSpaceOnUse" x1="460.464" x2="432.668" xlink:href="#lg1" y1="452.718" y2="482.909"/><linearGradient id="lg6"><stop offset="0" stop-color="#ff819c"/><stop offset=".2594" stop-color="#ff7e9a"/><stop offset=".4757" stop-color="#fe7396"/><stop offset=".6765" stop-color="#fc628e"/><stop offset=".8668" stop-color="#fa4a83"/><stop offset="1" stop-color="#f83479"/></linearGradient><linearGradient id="SVGID_11_" gradientTransform="matrix(.707 .707 -.707 .707 350.837 -538.172)" gradientUnits="userSpaceOnUse" x1="448.2" x2="426.635" xlink:href="#lg6" y1="517.761" y2="558.016"/><linearGradient id="SVGID_12_" gradientTransform="matrix(.707 .707 -.707 .707 350.837 -538.172)" gradientUnits="userSpaceOnUse" x1="458.752" x2="432.874" xlink:href="#lg6" y1="393.121" y2="429.782"/><linearGradient id="SVGID_13_" gradientTransform="matrix(-.002 1 -1 -.002 953.066 -657.633)" gradientUnits="userSpaceOnUse" x1="882.89" x2="915.535" xlink:href="#lg2" y1="468.724" y2="512.251"/><linearGradient id="SVGID_14_" gradientTransform="matrix(1 .002 -.002 1 75.885 43.98)" gradientUnits="userSpaceOnUse" x1="132.051" x2="153.619" xlink:href="#lg2" y1="8.726" y2="37.483"/><linearGradient id="lg7"><stop offset="0" stop-color="#00adfb"/><stop offset="1" stop-color="#3f3ced"/></linearGradient><linearGradient id="SVGID_15_" gradientTransform="matrix(1 .002 -.002 1 184.529 130.945)" gradientUnits="userSpaceOnUse" x1="92.673" x2="123.4" xlink:href="#lg7" y1="-114.542" y2="-73.572"/><linearGradient id="SVGID_16_" gradientTransform="matrix(-.002 1 -1 -.002 953.066 -657.633)" gradientUnits="userSpaceOnUse" x1="957.968" x2="979.536" xlink:href="#lg4" y1="469.143" y2="497.9"/><linearGradient id="SVGID_17_" gradientUnits="userSpaceOnUse" x1="464.318" x2="494.546" xlink:href="#lg5" y1="76.814" y2="49.184"/><linearGradient id="SVGID_18_" gradientUnits="userSpaceOnUse" x1="345.826" x2="373.193" xlink:href="#lg5" y1="182.388" y2="157.373"/><linearGradient id="SVGID_19_" gradientTransform="matrix(0 1 1 0 4244.555 -251.403)" gradientUnits="userSpaceOnUse" x1="372.494" x2="407.15" xlink:href="#lg5" y1="-4027.281" y2="-4058.959"/><linearGradient id="SVGID_20_" gradientTransform="matrix(0 1 1 0 720.164 -691.153)" gradientUnits="userSpaceOnUse" x1="924.005" x2="963.559" xlink:href="#lg7" y1="-380.662" y2="-264.562"/><linearGradient id="lg8"><stop offset="0" stop-color="#3f3ced" stop-opacity="0"/><stop offset="1" stop-color="#2f43bb"/></linearGradient><linearGradient id="SVGID_21_" gradientTransform="matrix(0 1 1 0 720.164 -691.153)" gradientUnits="userSpaceOnUse" x1="973.399" x2="938.728" xlink:href="#lg8" y1="-346.062" y2="-350.701"/><linearGradient id="SVGID_22_" gradientTransform="matrix(0 1 1 0 720.164 -691.153)" gradientUnits="userSpaceOnUse" x1="902.385" x2="940.719" xlink:href="#lg8" y1="-316.716" y2="-325.506"/><linearGradient id="SVGID_23_" gradientTransform="matrix(.707 .707 -.707 .707 350.837 -538.172)" gradientUnits="userSpaceOnUse" x1="532.519" x2="564.225" xlink:href="#lg4" y1="369.761" y2="462.824"/><linearGradient id="lg9"><stop offset="0" stop-color="#f82814" stop-opacity="0"/><stop offset="1" stop-color="#c0272d"/></linearGradient><linearGradient id="SVGID_24_" gradientTransform="matrix(.707 .707 -.707 .707 350.837 -538.172)" gradientUnits="userSpaceOnUse" x1="528.496" x2="547.155" xlink:href="#lg9" y1="423.937" y2="426.319"/><linearGradient id="SVGID_25_" gradientTransform="matrix(.707 .707 -.707 .707 350.837 -538.172)" gradientUnits="userSpaceOnUse" x1="582.698" x2="569.333" xlink:href="#lg9" y1="400.747" y2="407.364"/><g><path d="m11.337 508.299c-.744-.743-1.294-1.698-1.546-2.799-.714-3.118 1.235-6.224 4.353-6.938l10.128-2.32c20.12-4.609 35.592-21.436 38.498-41.872 3.043-21.399 17.312-39.893 37.238-48.266l46.221-19.424c2.949-1.24 6.344.146 7.583 3.095s-.147 6.344-3.095 7.583l-46.221 19.423c-16.191 6.804-27.785 21.831-30.258 39.218-3.577 25.151-22.618 45.86-47.38 51.532l-10.128 2.32c-2.018.463-4.03-.189-5.393-1.552z" fill="url(#SVGID_1_)"/><g><g><g><path d="m58.541 461.071c4.794-14.591 12.636-37.298 23.424-64.805 2.411-6.147 5.969-8.535 8.673-15.125 2.473-6.026 4.067-16.221 6.783-22.558 4.705-10.979 9.774-22.381 15.202-34.06 2.424-5.215 7.919-7.485 10.486-12.798 3.015-6.24 3.128-15.538 6.338-21.872 5.124-10.111 10.497-20.316 16.116-30.528 2.739-4.979 7.537-6.96 10.393-11.932 3.167-5.513 4.405-14.017 7.714-19.496 5.491-9.092 11.178-18.118 17.058-27.017 5.992-9.068 13.185-17.002 19.577-25.738l157.316 157.318c-13.011 9.521-26.464 18.6-40.14 27.231-4.295 2.711-8.612 2.377-12.945 4.999-3.588 2.171-7.186 7.312-10.791 9.423-7.312 4.28-14.651 8.435-21.986 12.463-3.864 2.122-9.727 2.209-13.583 4.26-4.266 2.269-6.524 6.495-10.769 8.677-7.493 3.852-14.943 7.569-22.315 11.149-4.245 2.061-8.465 1.078-12.652 3.048-4.087 1.924-8.143 6.804-12.162 8.641-7.717 3.527-15.299 6.894-22.7 10.099-4.255 1.842-8.45.631-12.577 2.367-4.251 1.787-8.43 6.518-12.528 8.191-8.018 3.274-15.727 6.328-23.057 9.161-4.453 1.721-8.765.36-12.923 1.917-4.365 1.635-8.559 6.179-12.566 7.632-13.408 4.863-24.706 8.706-33.233 11.507-7.505 2.464-14.618-4.649-12.153-12.154z" fill="url(#SVGID_2_)"/><g><path d="m129.437 452.162c-9.14 3.528-17.685 6.718-25.517 9.556l-21.965-65.442c4.711-12.01 9.987-24.929 15.804-38.49z" fill="url(#SVGID_3_)"/><path d="m177.601 432.439c-8.662 3.755-17.074 7.283-25.172 10.583l-39.784-118.544c5.315-11.437 10.975-23.141 16.988-34.971z" fill="url(#SVGID_4_)"/><path d="m225.083 410.661c-8.388 4.076-16.674 7.972-24.803 11.688l-54.718-163.024c5.793-10.52 11.845-21.056 18.156-31.498z" fill="url(#SVGID_5_)"/><path d="m271.781 386.564c-8.145 4.476-16.29 8.796-24.38 12.943l-66.665-198.622c5.981-9.07 12.182-18.007 18.571-26.739l1.772 1.772z" fill="url(#SVGID_6_)"/><path d="m317.538 359.652c-7.894 4.986-15.859 9.823-23.863 14.495l-53.361-158.994 43.233 43.233z" fill="url(#SVGID_7_)"/></g><path d="m357.621 332.46c9.281-9.281-18.635-52.245-62.353-95.963s-86.682-71.634-95.963-62.353 18.635 52.245 62.353 95.963 86.682 71.634 95.963 62.353z" fill="url(#SVGID_8_)"/></g></g><path d="m83.629 448.136c5.918 5.918 12.423 10.623 19.056 14.026-12.87 4.655-23.727 8.349-31.992 11.059-7.505 2.464-14.613-4.644-12.149-12.149 2.71-8.265 6.404-19.123 11.059-31.992 3.403 6.634 8.108 13.138 14.026 19.056z" fill="url(#SVGID_9_)"/></g><g><path d="m341.573 141.989-41.931-14.604c-15.109-5.262-19.517-24.511-8.204-35.824l12.189-12.189c4.86-4.86 12.072-6.512 18.563-4.251l41.931 14.604c15.109 5.262 19.517 24.511 8.204 35.824l-12.189 12.189c-4.86 4.86-12.072 6.511-18.563 4.251z" fill="url(#SVGID_10_)"/><path d="m274.938 212.355-12.889-59.046c-3.613-16.552 1.446-33.806 13.426-45.785l28.152-28.152c-4.212 4.212-5.99 10.277-4.72 16.096l12.746 58.393c3.613 16.552-1.446 33.806-13.426 45.785l-15.107 15.107c-2.717 2.717-7.362 1.355-8.182-2.398z" fill="url(#SVGID_11_)"/><path d="m389.754 3.826 12.889 59.046c3.613 16.552-1.446 33.806-13.426 45.785l-28.152 28.152c4.212-4.212 5.99-10.277 4.72-16.096l-12.747-58.393c-3.613-16.552 1.446-33.806 13.426-45.785l15.107-15.107c2.717-2.718 7.363-1.355 8.183 2.398z" fill="url(#SVGID_12_)"/></g><path d="m466.06 263.49c-6.744-10.348-15.626-19.177-26.017-25.864-2.337-1.504-2.33-4.974.012-6.469 10.415-6.648 19.33-15.445 26.111-25.769 1.505-2.291 4.928-2.285 6.425.012 6.744 10.348 15.626 19.177 26.017 25.863 2.337 1.504 2.33 4.974-.012 6.469-10.415 6.649-19.33 15.446-26.111 25.769-1.505 2.292-4.928 2.286-6.425-.011z" fill="url(#SVGID_13_)"/><path d="m233.738 63.972c-6.837 4.455-12.67 10.324-17.088 17.189-.993 1.544-3.286 1.54-4.274-.008-4.392-6.881-10.204-12.771-17.025-17.251-1.514-.994-1.51-3.256.008-4.245 6.837-4.455 12.67-10.324 17.087-17.189.993-1.544 3.286-1.54 4.274.008 4.393 6.881 10.205 12.771 17.025 17.251 1.514.994 1.51 3.256-.007 4.245z" fill="url(#SVGID_14_)"/><path d="m314.19 32.281c-9.74 6.347-18.051 14.708-24.345 24.489-1.415 2.199-4.682 2.193-6.089-.011-6.258-9.804-14.538-18.194-24.255-24.577-2.157-1.417-2.151-4.638.011-6.047 9.74-6.347 18.051-14.708 24.344-24.489 1.415-2.199 4.681-2.193 6.089.011 6.258 9.804 14.538 18.194 24.255 24.577 2.158 1.417 2.152 4.638-.01 6.047z" fill="url(#SVGID_15_)"/><path d="m471.171 325.309c-4.455-6.837-10.324-12.67-17.189-17.088-1.544-.993-1.54-3.286.008-4.274 6.881-4.392 12.771-10.204 17.251-17.025.995-1.514 3.256-1.51 4.245.008 4.455 6.837 10.324 12.67 17.189 17.087 1.544.993 1.54 3.286-.008 4.274-6.881 4.393-12.771 10.205-17.251 17.025-.995 1.514-3.256 1.51-4.245-.007z" fill="url(#SVGID_16_)"/><path d="m446.299 49.023v16.965c0 3.031 1.894 5.712 4.722 6.805 8.299 3.208 14.939 9.769 18.256 18.014 1.115 2.772 3.774 4.612 6.762 4.612h17.032c4.765 0 8.28-4.518 7.03-9.116-5.875-21.625-23.038-38.649-44.743-44.325-4.585-1.2-9.059 2.305-9.059 7.045z" fill="url(#SVGID_17_)"/><path d="m329.513 157.227v15.359c0 2.744 1.715 5.171 4.275 6.161 7.513 2.905 13.525 8.844 16.529 16.309 1.01 2.51 3.417 4.175 6.122 4.175h15.42c4.314 0 7.496-4.091 6.365-8.253-5.319-19.578-20.857-34.991-40.508-40.129-4.153-1.087-8.203 2.087-8.203 6.378z" fill="url(#SVGID_18_)"/><path d="m185.411 100.433h19.45c3.476 0 6.549 2.172 7.802 5.413 3.678 9.515 11.2 17.128 20.653 20.931 3.178 1.279 5.287 4.327 5.287 7.753v19.527c0 5.463-5.18 9.493-10.452 8.06-24.793-6.736-44.311-26.413-50.819-51.299-1.374-5.256 2.644-10.385 8.079-10.385z" fill="url(#SVGID_19_)"/><g><path d="m436.889 301.503c-7.365 10.603-18.942 17.56-31.761 19.085-12.82 1.526-25.706-2.519-35.357-11.101l-1.105-.983c-11.468-10.198-16.746-25.062-15.207-39.498-1.574.788-3.121 1.637-4.638 2.548-1.435.861-3.288.458-4.21-.938l-14.745-22.334c-.966-1.463-.534-3.442.959-4.361 13.187-8.123 27.985-13.099 43.176-14.715l28.4-41.593c1.363-1.996 4.086-2.509 6.082-1.146l19.993 13.651c1.996 1.363 2.509 4.086 1.146 6.082l-17.758 26.007c13.854 3.841 25.076 14.056 30.179 27.554 1.958 5.179 2.92 10.588 2.92 15.973-.001 9.084-2.744 18.095-8.074 25.769zm-48.456-34.983c-3.743 5.481-2.824 12.942 2.138 17.354l1.105.983c3.571 3.175 7.52 3.243 9.557 3 2.036-.242 5.859-1.235 8.585-5.158 3.307-4.761 2.076-9.476 1.393-11.284-.683-1.806-2.879-6.157-8.509-7.539l-1.185-.291c-3.281-.805-6.599-1.366-9.928-1.685z" fill="url(#SVGID_20_)"/><path d="m369.77 309.486-1.105-.983c-11.468-10.198-16.746-25.062-15.207-39.498 14.589-10.162 38.13-7.107 38.13-7.107l-3.155 4.621c-3.743 5.481-2.824 12.942 2.138 17.354l1.017.905v35.359c-8.027-1.484-15.596-5.118-21.818-10.651z" fill="url(#SVGID_21_)"/><path d="m402.399 187.61c1.363-1.996 4.086-2.509 6.082-1.146l19.993 13.651c1.996 1.363 2.509 4.086 1.146 6.082l-17.758 26.007c-19.665-5.211-37.864-3.001-37.864-3.001z" fill="url(#SVGID_22_)"/></g><g><path d="m474.286 141.848c5.682-10.027 6.249-22.182 1.493-32.721-1.83-4.042-4.346-7.658-7.4-10.712-5.148-5.148-11.813-8.702-19.179-10.027-10.19-1.836-20.695.786-28.824 7.186-3.868 3.049-7.035 6.822-9.348 11.055-.202.359-.387.724-.573 1.089-.18.359-.359.73-.533 1.095-.691 1.477-1.275 3.004-1.752 4.581-.247.775-.46 1.572-.646 2.375-.095.399-.18.797-.264 1.196v.011c-.073.387-.14.769-.208 1.151-.022.157-.05.309-.073.466-.107.691-.185 1.376-.253 2.072-.039.41-.073.825-.096 1.241l-.073 1.185c-.724 12.279 4.716 23.693 13.766 31.003-1.336.449-2.695.842-4.07 1.185-1.302.326-2.122 1.606-1.853 2.919l4.295 21.015c.286 1.376 1.651 2.257 3.021 1.931 12.077-2.869 23.283-8.438 32.81-16.136l16.065 3.03c2.036.384 4.13-.263 5.595-1.728l16.672-16.672c1.531-1.531.722-4.151-1.406-4.552zm-41.35-17.219.062-1.084.006-.095c.23-3.823 2.425-6.097 3.717-7.119 1.291-1.011 4.02-2.616 7.793-1.943 4.57.831 6.541 4.194 7.181 5.609.634 1.409 1.864 5.12-.55 9.095l-.505.831c-1.404 2.324-2.97 4.52-4.671 6.591l-4.407-.837c-5.23-.981-8.935-5.731-8.626-11.048z" fill="url(#SVGID_23_)"/><path d="m406.629 121.905-.069 1.183c-.72 12.28 4.713 23.696 13.768 31.006 14.029-2.509 25.639-17.584 25.639-17.584l-4.407-.831c-5.228-.985-8.936-5.734-8.624-11.048l.064-1.089-20.041-20.041c-3.709 5.392-5.94 11.742-6.33 18.404z" fill="url(#SVGID_24_)"/><path d="m492.861 149.638-16.672 16.672c-1.465 1.465-3.559 2.111-5.595 1.728l-16.065-3.03s11.566-9.062 19.757-23.159l17.17 3.238c2.127.4 2.936 3.02 1.405 4.551z" fill="url(#SVGID_25_)"/></g></g></svg>