<svg width="18" height="18" viewBox="0 0 18 18" fill="none" xmlns="http://www.w3.org/2000/svg">
<path d="M0.400587 17.9403C0.374328 17.9141 0.354917 17.8804 0.346023 17.8415C0.320823 17.7315 0.389611 17.6218 0.499658 17.5966L0.857117 17.5148C1.56723 17.3521 2.11331 16.7582 2.21587 16.0369C2.32327 15.2817 2.82688 14.6289 3.53015 14.3334L5.16148 13.6479C5.26556 13.6041 5.38539 13.653 5.42912 13.7571C5.47285 13.8612 5.42393 13.981 5.31988 14.0247L3.68855 14.7103C3.11711 14.9504 2.70791 15.4808 2.62062 16.0944C2.49438 16.9821 1.82234 17.713 0.948387 17.9132L0.590928 17.9951C0.519705 18.0114 0.448693 17.9884 0.400587 17.9403Z" fill="url(#paint0_linear_416_7382)"/>
<path d="M2.06638 16.2723C2.23558 15.7573 2.51236 14.9559 2.89311 13.985C2.97821 13.7681 3.10379 13.6838 3.19922 13.4512C3.2865 13.2385 3.34276 12.8787 3.43862 12.6551C3.60468 12.2676 3.78359 11.8651 3.97516 11.4529C4.06071 11.2689 4.25466 11.1888 4.34526 11.0012C4.45167 10.781 4.45566 10.4528 4.56895 10.2293C4.7498 9.87243 4.93943 9.51225 5.13775 9.15183C5.23442 8.9761 5.40376 8.90618 5.50456 8.7307C5.61634 8.53612 5.66003 8.23598 5.77682 8.04261C5.97062 7.72171 6.17134 7.40315 6.37887 7.08906C6.59035 6.76902 6.84422 6.48899 7.06982 6.18066L12.6222 11.7331C12.1629 12.0691 11.6881 12.3895 11.2054 12.6942C11.0539 12.7898 10.9015 12.7781 10.7486 12.8706C10.6219 12.9472 10.4949 13.1287 10.3677 13.2032C10.1096 13.3542 9.85061 13.5009 9.59173 13.643C9.45535 13.7179 9.24842 13.721 9.11233 13.7934C8.96176 13.8735 8.88207 14.0226 8.73224 14.0996C8.46778 14.2356 8.20484 14.3668 7.94466 14.4931C7.79483 14.5659 7.64589 14.5312 7.49811 14.6007C7.35387 14.6686 7.21071 14.8409 7.06887 14.9057C6.7965 15.0302 6.5289 15.149 6.26769 15.2621C6.11751 15.3271 5.96946 15.2844 5.8238 15.3457C5.67376 15.4087 5.52627 15.5757 5.38163 15.6348C5.09864 15.7503 4.82656 15.8581 4.56786 15.9581C4.41069 16.0188 4.2585 15.9708 4.11175 16.0257C3.95769 16.0835 3.80967 16.2438 3.66824 16.2951C3.19502 16.4667 2.79627 16.6024 2.49531 16.7012C2.23043 16.7882 1.97938 16.5372 2.06638 16.2723Z" fill="url(#paint1_linear_416_7382)"/>
<path d="M4.56841 15.9579C4.24583 16.0824 3.94424 16.195 3.66781 16.2951L2.89258 13.9854C3.05885 13.5615 3.24506 13.1056 3.45037 12.627L4.56841 15.9579Z" fill="url(#paint2_linear_416_7382)"/>
<path d="M6.26815 15.2615C5.96243 15.394 5.66554 15.5185 5.37973 15.635L3.97559 11.4511C4.16317 11.0474 4.36294 10.6343 4.57516 10.2168L6.26815 15.2615Z" fill="url(#paint3_linear_416_7382)"/>
<path d="M7.94432 14.493C7.64827 14.6369 7.35582 14.7744 7.06892 14.9055L5.1377 9.15173C5.34215 8.78044 5.55575 8.40858 5.7785 8.04004L7.94432 14.493Z" fill="url(#paint4_linear_416_7382)"/>
<path d="M9.59226 13.6426C9.30479 13.8006 9.01732 13.9531 8.73179 14.0994L6.37891 7.08924C6.59 6.76912 6.80886 6.4537 7.03435 6.14551L7.09689 6.20805L9.59226 13.6426Z" fill="url(#paint5_linear_416_7382)"/>
<path d="M11.207 12.6927C10.9284 12.8687 10.6473 13.0394 10.3648 13.2043L8.48145 7.59277L10.0073 9.11864L11.207 12.6927Z" fill="url(#paint6_linear_416_7382)"/>
<path d="M12.6222 11.7335C12.9497 11.4059 11.9644 9.88954 10.4215 8.34655C8.87847 6.80356 7.36209 5.81829 7.03453 6.14586C6.70696 6.47342 7.69223 7.9898 9.23522 9.53279C10.7782 11.0758 12.2946 12.061 12.6222 11.7335Z" fill="url(#paint7_linear_416_7382)"/>
<path d="M2.95173 15.8161C3.1606 16.025 3.39019 16.191 3.6243 16.3112C3.17006 16.4754 2.78688 16.6058 2.49517 16.7015C2.23029 16.7884 1.97942 16.5376 2.06638 16.2727C2.16203 15.981 2.2924 15.5978 2.4567 15.1436C2.5768 15.3777 2.74286 15.6072 2.95173 15.8161Z" fill="url(#paint8_linear_416_7382)"/>
<path d="M12.0565 5.01146L10.5766 4.49603C10.0433 4.31031 9.88777 3.63094 10.2871 3.23165L10.7173 2.80145C10.8888 2.62992 11.1433 2.57162 11.3724 2.65142L12.8523 3.16685C13.3856 3.35257 13.5412 4.03195 13.1419 4.43123L12.7117 4.86143C12.5402 5.03296 12.2856 5.09123 12.0565 5.01146Z" fill="url(#paint9_linear_416_7382)"/>
<path d="M9.70431 7.49528L9.24941 5.4113C9.12189 4.82711 9.30044 4.21815 9.72327 3.79536L10.7169 2.80176C10.5682 2.95042 10.5055 3.16448 10.5503 3.36985L11.0001 5.43078C11.1277 6.01497 10.9491 6.62393 10.5263 7.04672L9.99309 7.57991C9.89719 7.67581 9.73325 7.62773 9.70431 7.49528Z" fill="url(#paint10_linear_416_7382)"/>
<path d="M13.7562 0.135023L14.2111 2.219C14.3386 2.80319 14.1601 3.41215 13.7373 3.83494L12.7437 4.82854C12.8923 4.67988 12.9551 4.46582 12.9102 4.26045L12.4603 2.19952C12.3328 1.61533 12.5114 1.00636 12.9342 0.583576L13.4674 0.0503874C13.5633 -0.045542 13.7273 0.00256386 13.7562 0.135023Z" fill="url(#paint11_linear_416_7382)"/>
<path d="M16.4497 9.29965C16.2117 8.93442 15.8982 8.62281 15.5314 8.3868C15.449 8.33372 15.4492 8.21125 15.5319 8.15848C15.8995 7.92385 16.2141 7.61337 16.4534 7.24899C16.5065 7.16813 16.6274 7.16834 16.6802 7.24941C16.9182 7.61464 17.2317 7.92625 17.5984 8.16222C17.6809 8.21531 17.6807 8.33778 17.598 8.39054C17.2304 8.62521 16.9158 8.93569 16.6765 9.30004C16.6233 9.38093 16.5025 9.38072 16.4497 9.29965Z" fill="url(#paint12_linear_416_7382)"/>
<path d="M8.25029 2.25775C8.00899 2.41499 7.80312 2.62213 7.64719 2.86443C7.61214 2.91892 7.53121 2.91878 7.49634 2.86414C7.34133 2.62128 7.1362 2.4134 6.89546 2.25528C6.84202 2.2202 6.84216 2.14037 6.89574 2.10546C7.13705 1.94823 7.34292 1.74108 7.49881 1.49879C7.53386 1.4443 7.61479 1.44444 7.64966 1.49907C7.8047 1.74193 8.00983 1.94981 8.25054 2.10793C8.30397 2.14301 8.30383 2.22285 8.25029 2.25775Z" fill="url(#paint13_linear_416_7382)"/>
<path d="M11.0897 1.13932C10.7459 1.36333 10.4526 1.65842 10.2305 2.00363C10.1805 2.08125 10.0652 2.08103 10.0156 2.00325C9.7947 1.65722 9.50246 1.3611 9.15951 1.13582C9.08338 1.08581 9.08359 0.972128 9.1599 0.922399C9.50366 0.698387 9.79699 0.403293 10.0191 0.0580811C10.069 -0.0195307 10.1843 -0.0193189 10.234 0.0584693C10.4549 0.404493 10.7471 0.700611 11.0901 0.925893C11.1662 0.975905 11.166 1.08959 11.0897 1.13932Z" fill="url(#paint14_linear_416_7382)"/>
<path d="M16.6299 11.4817C16.4726 11.2404 16.2655 11.0346 16.0232 10.8786C15.9687 10.8436 15.9689 10.7627 16.0235 10.7278C16.2663 10.5728 16.4742 10.3676 16.6323 10.1269C16.6675 10.0735 16.7473 10.0736 16.7822 10.1272C16.9394 10.3685 17.1465 10.5744 17.3888 10.7303C17.4433 10.7653 17.4432 10.8462 17.3886 10.8811C17.1457 11.0361 16.9378 11.2413 16.7797 11.482C16.7446 11.5354 16.6648 11.5353 16.6299 11.4817Z" fill="url(#paint15_linear_416_7382)"/>
<path d="M15.752 1.73066V2.32942C15.752 2.4364 15.8188 2.53102 15.9186 2.5696C16.2115 2.68282 16.4459 2.91438 16.5629 3.20538C16.6023 3.30322 16.6961 3.36816 16.8016 3.36816H17.4027C17.5709 3.36816 17.695 3.2087 17.6508 3.04642C17.4435 2.28318 16.8377 1.68234 16.0717 1.48201C15.9099 1.43966 15.752 1.56336 15.752 1.73066Z" fill="url(#paint16_linear_416_7382)"/>
<path d="M11.6299 5.5491V6.09118C11.6299 6.18803 11.6904 6.27369 11.7808 6.30863C12.0459 6.41116 12.2581 6.62077 12.3641 6.88424C12.3998 6.97283 12.4847 7.03159 12.5802 7.03159H13.1244C13.2767 7.03159 13.389 6.88721 13.3491 6.74031C13.1614 6.04932 12.613 5.50534 11.9194 5.32399C11.7728 5.28563 11.6299 5.39765 11.6299 5.5491Z" fill="url(#paint17_linear_416_7382)"/>
<path d="M6.54472 3.54492H7.23119C7.35387 3.54492 7.46233 3.62158 7.50656 3.73597C7.63637 4.07179 7.90185 4.34049 8.23549 4.47471C8.34765 4.51985 8.42209 4.62743 8.42209 4.74835V5.43753C8.42209 5.63035 8.23926 5.77258 8.05319 5.722C7.17815 5.48426 6.48927 4.78978 6.25958 3.91145C6.21109 3.72595 6.3529 3.54492 6.54472 3.54492Z" fill="url(#paint18_linear_416_7382)"/>
<path d="M15.4205 10.6407C15.1605 11.0149 14.7519 11.2605 14.2995 11.3143C13.847 11.3682 13.3922 11.2254 13.0516 10.9225L13.0126 10.8878C12.6079 10.5279 12.4216 10.0033 12.4759 9.49377C12.4203 9.52158 12.3657 9.55155 12.3122 9.5837C12.2615 9.61409 12.1961 9.59987 12.1636 9.55059L11.6432 8.76234C11.6091 8.7107 11.6243 8.64085 11.677 8.60842C12.1425 8.32172 12.6647 8.1461 13.2009 8.08907L14.2033 6.62108C14.2514 6.55063 14.3475 6.53252 14.4179 6.58063L15.1235 7.06243C15.194 7.11054 15.2121 7.20664 15.164 7.27709L14.5372 8.19498C15.0262 8.33055 15.4223 8.69108 15.6024 9.16748C15.6715 9.35027 15.7054 9.54117 15.7054 9.73123C15.7054 10.0518 15.6086 10.3699 15.4205 10.6407ZM13.7103 9.40603C13.5782 9.59948 13.6106 9.86281 13.7857 10.0185L13.8247 10.0532C13.9508 10.1653 14.0901 10.1677 14.162 10.1591C14.2339 10.1506 14.3688 10.1155 14.465 9.97705C14.5817 9.80902 14.5383 9.64261 14.5142 9.5788C14.4901 9.51505 14.4126 9.36149 14.2139 9.31271L14.1721 9.30244C14.0563 9.27403 13.9391 9.25423 13.8217 9.24297L13.7103 9.40603Z" fill="url(#paint19_linear_416_7382)"/>
<path d="M13.0517 10.9223L13.0127 10.8876C12.608 10.5277 12.4217 10.0031 12.476 9.49358C12.9909 9.13492 13.8218 9.24274 13.8218 9.24274L13.7104 9.40584C13.5783 9.59928 13.6108 9.86261 13.7859 10.0183L13.8218 10.0503V11.2982C13.5385 11.2459 13.2713 11.1176 13.0517 10.9223Z" fill="url(#paint20_linear_416_7382)"/>
<path d="M14.2036 6.62108C14.2517 6.55063 14.3478 6.53252 14.4182 6.58063L15.1239 7.06243C15.1943 7.11054 15.2124 7.20664 15.1643 7.27709L14.5375 8.19498C13.8435 8.01107 13.2012 8.08907 13.2012 8.08907L14.2036 6.62108Z" fill="url(#paint21_linear_416_7382)"/>
<path d="M16.7404 5.00666C16.9409 4.65277 16.9609 4.22377 16.7931 3.8518C16.7285 3.70915 16.6397 3.58152 16.5319 3.47373C16.3502 3.29204 16.1149 3.1666 15.855 3.11984C15.4953 3.05504 15.1246 3.14758 14.8377 3.37346C14.7011 3.48107 14.5894 3.61424 14.5077 3.76364C14.5006 3.77631 14.4941 3.78919 14.4875 3.80208C14.4811 3.81475 14.4748 3.82784 14.4687 3.84072C14.4443 3.89285 14.4237 3.94675 14.4069 4.0024C14.3981 4.02976 14.3906 4.05789 14.3841 4.08623C14.3807 4.10031 14.3777 4.11436 14.3747 4.12844V4.12883C14.3722 4.14249 14.3698 4.15597 14.3674 4.16945C14.3666 4.17499 14.3656 4.18036 14.3648 4.1859C14.361 4.21029 14.3583 4.23446 14.3559 4.25903C14.3545 4.2735 14.3533 4.28815 14.3525 4.30283L14.3499 4.34465C14.3244 4.77803 14.5164 5.18087 14.8358 5.43887C14.7886 5.45472 14.7407 5.46859 14.6921 5.4807C14.6462 5.4922 14.6172 5.53738 14.6267 5.58372L14.7783 6.32543C14.7884 6.37399 14.8366 6.40509 14.8849 6.39358C15.3112 6.29232 15.7067 6.09577 16.0429 5.82407L16.6099 5.93102C16.6818 5.94457 16.7557 5.92173 16.8074 5.87003L17.3958 5.2816C17.4499 5.22757 17.4213 5.1351 17.3462 5.12095L16.7404 5.00666ZM15.2809 4.39893L15.2831 4.36067L15.2833 4.35732C15.2915 4.22239 15.3689 4.14213 15.4145 4.10606C15.4601 4.07038 15.5564 4.01373 15.6896 4.03749C15.8509 4.06682 15.9204 4.18551 15.943 4.23545C15.9654 4.28518 16.0088 4.41616 15.9236 4.55645L15.9058 4.58578C15.8562 4.6678 15.801 4.74531 15.7409 4.8184L15.5854 4.78886C15.4008 4.75424 15.27 4.58659 15.2809 4.39893Z" fill="url(#paint22_linear_416_7382)"/>
<path d="M14.3523 4.30287L14.3499 4.34463C14.3245 4.77804 14.5162 5.18096 14.8358 5.43896C15.331 5.3504 15.7407 4.81834 15.7407 4.81834L15.5852 4.78901C15.4007 4.75425 15.2698 4.58664 15.2808 4.39908L15.2831 4.36065L14.5758 3.65332C14.4448 3.84363 14.3661 4.06774 14.3523 4.30287Z" fill="url(#paint23_linear_416_7382)"/>
<path d="M17.3959 5.28174L16.8074 5.87017C16.7557 5.92187 16.6818 5.94467 16.61 5.93115L16.043 5.82421C16.043 5.82421 16.4512 5.50438 16.7403 5.00684L17.3463 5.12112C17.4213 5.13524 17.4499 5.22771 17.3959 5.28174Z" fill="url(#paint24_linear_416_7382)"/>
<defs>
<linearGradient id="paint0_linear_416_7382" x1="2.85047" y1="18.0414" x2="2.93927" y2="13.5817" gradientUnits="userSpaceOnUse">
<stop stop-color="#9B62CD"/>
<stop offset="0.3003" stop-color="#985DCB"/>
<stop offset="0.6716" stop-color="#8F4EC7"/>
<stop offset="1" stop-color="#833AC1"/>
</linearGradient>
<linearGradient id="paint1_linear_416_7382" x1="4.53077" y1="10.8801" x2="7.74443" y2="14.6032" gradientUnits="userSpaceOnUse">
<stop stop-color="#FFD945"/>
<stop offset="0.3043" stop-color="#FFCD3E"/>
<stop offset="0.8558" stop-color="#FFAD2B"/>
<stop offset="1" stop-color="#FFA325"/>
</linearGradient>
<linearGradient id="paint2_linear_416_7382" x1="3.37554" y1="14.18" x2="4.2609" y2="15.5357" gradientUnits="userSpaceOnUse">
<stop stop-color="#F8F6FB"/>
<stop offset="1" stop-color="#EFDCFB"/>
</linearGradient>
<linearGradient id="paint3_linear_416_7382" x1="5.07246" y1="13.0714" x2="5.95785" y2="14.4271" gradientUnits="userSpaceOnUse">
<stop stop-color="#F8F6FB"/>
<stop offset="1" stop-color="#EFDCFB"/>
</linearGradient>
<linearGradient id="paint4_linear_416_7382" x1="6.75173" y1="11.9751" x2="7.63708" y2="13.3308" gradientUnits="userSpaceOnUse">
<stop stop-color="#F8F6FB"/>
<stop offset="1" stop-color="#EFDCFB"/>
</linearGradient>
<linearGradient id="paint5_linear_416_7382" x1="8.40059" y1="10.8982" x2="9.28594" y2="12.254" gradientUnits="userSpaceOnUse">
<stop stop-color="#F8F6FB"/>
<stop offset="1" stop-color="#EFDCFB"/>
</linearGradient>
<linearGradient id="paint6_linear_416_7382" x1="9.53166" y1="10.1594" x2="10.417" y2="11.5151" gradientUnits="userSpaceOnUse">
<stop stop-color="#F8F6FB"/>
<stop offset="1" stop-color="#EFDCFB"/>
</linearGradient>
<linearGradient id="paint7_linear_416_7382" x1="11.4093" y1="7.36334" x2="9.1133" y2="9.65934" gradientUnits="userSpaceOnUse">
<stop stop-color="#FF7044"/>
<stop offset="1" stop-color="#F82814"/>
</linearGradient>
<linearGradient id="paint8_linear_416_7382" x1="2.41018" y1="15.9887" x2="3.00302" y2="16.5816" gradientUnits="userSpaceOnUse">
<stop stop-color="#92F37F"/>
<stop offset="1" stop-color="#4AB272"/>
</linearGradient>
<linearGradient id="paint9_linear_416_7382" x1="12.5768" y1="3.79236" x2="11.1298" y2="3.85212" gradientUnits="userSpaceOnUse">
<stop stop-color="#9B62CD"/>
<stop offset="0.3003" stop-color="#985DCB"/>
<stop offset="0.6716" stop-color="#8F4EC7"/>
<stop offset="1" stop-color="#833AC1"/>
</linearGradient>
<linearGradient id="paint10_linear_416_7382" x1="10.6473" y1="5.10966" x2="9.10476" y2="5.57603" gradientUnits="userSpaceOnUse">
<stop stop-color="#FF819C"/>
<stop offset="0.2594" stop-color="#FF7E9A"/>
<stop offset="0.4757" stop-color="#FE7396"/>
<stop offset="0.6765" stop-color="#FC628E"/>
<stop offset="0.8668" stop-color="#FA4A83"/>
<stop offset="1" stop-color="#F83479"/>
</linearGradient>
<linearGradient id="paint11_linear_416_7382" x1="14.0203" y1="2.26242" x2="12.4598" y2="2.53149" gradientUnits="userSpaceOnUse">
<stop stop-color="#FF819C"/>
<stop offset="0.2594" stop-color="#FF7E9A"/>
<stop offset="0.4757" stop-color="#FE7396"/>
<stop offset="0.6765" stop-color="#FC628E"/>
<stop offset="0.8668" stop-color="#FA4A83"/>
<stop offset="1" stop-color="#F83479"/>
</linearGradient>
<linearGradient id="paint12_linear_416_7382" x1="17.0326" y1="7.91716" x2="15.4941" y2="9.06627" gradientUnits="userSpaceOnUse">
<stop stop-color="#FFD945"/>
<stop offset="0.3043" stop-color="#FFCD3E"/>
<stop offset="0.8558" stop-color="#FFAD2B"/>
<stop offset="1" stop-color="#FFA325"/>
</linearGradient>
<linearGradient id="paint13_linear_416_7382" x1="7.33902" y1="1.86945" x2="8.09821" y2="2.88593" gradientUnits="userSpaceOnUse">
<stop stop-color="#FFD945"/>
<stop offset="0.3043" stop-color="#FFCD3E"/>
<stop offset="0.8558" stop-color="#FFAD2B"/>
<stop offset="1" stop-color="#FFA325"/>
</linearGradient>
<linearGradient id="paint14_linear_416_7382" x1="9.79234" y1="0.585458" x2="10.8739" y2="2.03363" gradientUnits="userSpaceOnUse">
<stop stop-color="#00ADFB"/>
<stop offset="1" stop-color="#3F3CED"/>
</linearGradient>
<linearGradient id="paint15_linear_416_7382" x1="17.0123" y1="10.5672" x2="15.9958" y2="11.3264" gradientUnits="userSpaceOnUse">
<stop stop-color="#FF7044"/>
<stop offset="1" stop-color="#F82814"/>
</linearGradient>
<linearGradient id="paint16_linear_416_7382" x1="16.3879" y1="2.71151" x2="17.4548" y2="1.73634" gradientUnits="userSpaceOnUse">
<stop stop-color="#92F37F"/>
<stop offset="1" stop-color="#4AB272"/>
</linearGradient>
<linearGradient id="paint17_linear_416_7382" x1="12.2056" y1="6.43714" x2="13.1715" y2="5.55425" gradientUnits="userSpaceOnUse">
<stop stop-color="#92F37F"/>
<stop offset="1" stop-color="#4AB272"/>
</linearGradient>
<linearGradient id="paint18_linear_416_7382" x1="7.6693" y1="4.27403" x2="6.55125" y2="5.49718" gradientUnits="userSpaceOnUse">
<stop stop-color="#92F37F"/>
<stop offset="1" stop-color="#4AB272"/>
</linearGradient>
<linearGradient id="paint19_linear_416_7382" x1="11.9833" y1="8.21775" x2="16.0809" y2="9.61377" gradientUnits="userSpaceOnUse">
<stop stop-color="#00ADFB"/>
<stop offset="1" stop-color="#3F3CED"/>
</linearGradient>
<linearGradient id="paint20_linear_416_7382" x1="13.2046" y1="9.96091" x2="13.0409" y2="8.73722" gradientUnits="userSpaceOnUse">
<stop stop-color="#3F3CED" stop-opacity="0"/>
<stop offset="1" stop-color="#2F43BB"/>
</linearGradient>
<linearGradient id="paint21_linear_416_7382" x1="14.2406" y1="7.45479" x2="13.9303" y2="8.80776" gradientUnits="userSpaceOnUse">
<stop stop-color="#3F3CED" stop-opacity="0"/>
<stop offset="1" stop-color="#2F43BB"/>
</linearGradient>
<linearGradient id="paint22_linear_416_7382" x1="16.4446" y1="3.5205" x2="14.9136" y2="6.63385" gradientUnits="userSpaceOnUse">
<stop stop-color="#FF7044"/>
<stop offset="1" stop-color="#F82814"/>
</linearGradient>
<linearGradient id="paint23_linear_416_7382" x1="14.9923" y1="4.77204" x2="15.3984" y2="5.29708" gradientUnits="userSpaceOnUse">
<stop stop-color="#F82814" stop-opacity="0"/>
<stop offset="1" stop-color="#C0272D"/>
</linearGradient>
<linearGradient id="paint24_linear_416_7382" x1="16.9235" y1="5.54594" x2="16.4249" y2="5.37756" gradientUnits="userSpaceOnUse">
<stop stop-color="#F82814" stop-opacity="0"/>
<stop offset="1" stop-color="#C0272D"/>
</linearGradient>
</defs>
</svg>
