<svg width="25" height="24" viewBox="0 0 25 24" fill="none" xmlns="http://www.w3.org/2000/svg">
<path d="M13.1254 13.9984C13.254 14.9068 13.7113 15.7439 14.4208 16.3444C16.008 17.6877 18.3836 17.4901 19.727 15.903C20.7984 14.6372 21.3235 13.3414 21.3235 12C21.3235 7.12691 17.3731 3.17648 12.5 3.17648C7.62691 3.17648 3.67648 7.12691 3.67648 12C3.67648 16.8731 7.62691 20.8235 12.5 20.8235C12.8249 20.8235 13.0882 21.0869 13.0882 21.4118C13.0882 21.7366 12.8249 22 12.5 22C6.97715 22 2.5 17.5229 2.5 12C2.5 6.47715 6.97715 2 12.5 2C18.0229 2 22.5 6.47715 22.5 12C22.5 13.635 21.868 15.1945 20.625 16.663C18.8619 18.7461 15.7439 19.0055 13.6608 17.2423C12.69 16.4207 12.0788 15.2615 11.9414 14.0108C10.4208 13.7461 9.26473 12.4198 9.26473 10.8235V10.5294C8.93984 10.5294 8.67648 10.2661 8.67648 9.94117C8.67648 9.61629 8.93984 9.35293 9.26473 9.35293H10.4412V7.58824C10.4412 7.26336 10.7046 7 11.0295 7C11.3543 7 11.6177 7.26336 11.6177 7.58824V9.35293H13.3824V7.58824C13.3824 7.26336 13.6457 7 13.9706 7C14.2955 7 14.5589 7.26336 14.5589 7.58824V9.35293H15.7354C16.0602 9.35293 16.3236 9.61629 16.3236 9.94117C16.3236 10.2661 16.0602 10.5294 15.7354 10.5294V10.8235C15.7353 12.3964 14.6129 13.7071 13.1254 13.9984ZM10.4412 10.5294V10.8235C10.4412 11.9605 11.3629 12.8823 12.5 12.8823C13.6371 12.8823 14.5588 11.9606 14.5588 10.8235V10.5294H10.4412Z" fill="#5E5B50"/>
</svg>
