<svg width="24" height="24" viewBox="0 0 24 24" fill="none" xmlns="http://www.w3.org/2000/svg">
<path fill-rule="evenodd" clip-rule="evenodd" d="M17.886 12.1465C17.518 12.1465 17.197 11.8755 17.144 11.5005C17.087 11.0895 17.372 10.7105 17.783 10.6535C18.823 10.5075 19.608 9.60551 19.61 8.55351C19.61 7.51051 18.862 6.62851 17.831 6.45951C17.423 6.39251 17.146 6.00651 17.213 5.59751C17.281 5.18851 17.664 4.91451 18.075 4.97951C19.833 5.26851 21.11 6.77251 21.11 8.55551C21.106 10.3505 19.765 11.8905 17.99 12.1395C17.955 12.1445 17.92 12.1465 17.886 12.1465Z" fill="current"/>
<mask id="mask0_1603_6050" style="mask-type:alpha" maskUnits="userSpaceOnUse" x="18" y="14" width="5" height="5">
<path fill-rule="evenodd" clip-rule="evenodd" d="M18.9766 14.0017H22.7705V18.5313H18.9766V14.0017Z" fill="current"/>
</mask>
<g mask="url(#mask0_1603_6050)">
<path fill-rule="evenodd" clip-rule="evenodd" d="M20.8598 18.5313C20.5578 18.5313 20.2728 18.3473 20.1588 18.0483C20.0108 17.6613 20.2058 17.2273 20.5928 17.0803C21.2708 16.8223 21.2708 16.5373 21.2708 16.4003C21.2708 15.9623 20.7138 15.6563 19.6158 15.4923C19.2068 15.4303 18.9238 15.0493 18.9848 14.6383C19.0458 14.2283 19.4258 13.9553 19.8388 14.0083C22.2618 14.3713 22.7708 15.5093 22.7708 16.4003C22.7708 16.9443 22.5568 17.9373 21.1268 18.4823C21.0388 18.5153 20.9488 18.5313 20.8598 18.5313Z" fill="current"/>
</g>
<path fill-rule="evenodd" clip-rule="evenodd" d="M11.8848 15.9141C9.50878 15.9141 6.67578 16.2061 6.67578 17.5961C6.67578 18.9971 9.50878 19.2911 11.8848 19.2911C14.2608 19.2911 17.0928 19.0001 17.0928 17.6131C17.0928 16.2091 14.2608 15.9141 11.8848 15.9141ZM11.8848 20.7911C10.2258 20.7911 5.17578 20.7911 5.17578 17.5961C5.17578 14.4141 10.2258 14.4141 11.8848 14.4141C13.5438 14.4141 18.5928 14.4141 18.5928 17.6131C18.5928 20.7911 13.7198 20.7911 11.8848 20.7911Z" fill="current"/>
<path fill-rule="evenodd" clip-rule="evenodd" d="M11.8884 5.5C10.1964 5.5 8.82035 6.877 8.82035 8.569C8.81735 9.389 9.13135 10.156 9.70635 10.735C10.2814 11.314 11.0474 11.635 11.8634 11.638L11.8884 12.388V11.638C13.5804 11.638 14.9574 10.262 14.9574 8.569C14.9574 6.877 13.5804 5.5 11.8884 5.5ZM11.8884 13.138H11.8614C10.6414 13.134 9.49835 12.656 8.64235 11.792C7.78435 10.929 7.31535 9.783 7.32035 8.566C7.32035 6.05 9.36935 4 11.8884 4C14.4084 4 16.4574 6.05 16.4574 8.569C16.4574 11.088 14.4084 13.138 11.8884 13.138Z" fill="current"/>
<path fill-rule="evenodd" clip-rule="evenodd" d="M5.88706 12.1465C5.85306 12.1465 5.81806 12.1445 5.78306 12.1395C4.00806 11.8905 2.66806 10.3505 2.66406 8.55745C2.66406 6.77245 3.94106 5.26845 5.69906 4.97945C6.12006 4.91345 6.49306 5.19045 6.56106 5.59745C6.62806 6.00645 6.35106 6.39245 5.94306 6.45945C4.91206 6.62845 4.16406 7.51045 4.16406 8.55545C4.16606 9.60545 4.95106 10.5085 5.99006 10.6535C6.40106 10.7105 6.68606 11.0894 6.62906 11.5005C6.57606 11.8755 6.25506 12.1465 5.88706 12.1465Z" fill="current"/>
<path fill-rule="evenodd" clip-rule="evenodd" d="M2.912 18.5313C2.823 18.5313 2.733 18.5153 2.645 18.4823C1.214 17.9363 1 16.9433 1 16.4003C1 15.5103 1.509 14.3713 3.933 14.0083C4.346 13.9563 4.724 14.2283 4.786 14.6383C4.847 15.0493 4.564 15.4303 4.155 15.4923C3.057 15.6563 2.5 15.9623 2.5 16.4003C2.5 16.5373 2.5 16.8213 3.179 17.0803C3.566 17.2273 3.761 17.6613 3.613 18.0483C3.499 18.3473 3.214 18.5313 2.912 18.5313Z" fill="current"/>
</svg>
