<svg width="20" height="20" viewBox="0 0 20 20" fill="none" xmlns="http://www.w3.org/2000/svg">
<g clip-path="url(#clip0_5627_42029)">
<path d="M19.0951 13.2734L19.0935 14.333L10.0293 19.6005L10.0309 18.541L19.0951 13.2734Z" fill="#C17E47"/>
<path d="M10.0313 18.5408L10.0297 19.6004L0.90625 14.3329L0.90781 13.2734L10.0313 18.5408Z" fill="#D89C60"/>
<path d="M19.0958 13.2733L10.0317 18.5408L0.908203 13.2734L9.9724 8.00586L19.0958 13.2733Z" fill="#E5AE70"/>
<path d="M9.81836 17.6565L9.81984 17.7526C9.81996 17.7979 9.84972 17.8432 9.9092 17.8778C10.0292 17.9475 10.2251 17.9475 10.3459 17.8778C10.4067 17.8427 10.437 17.7965 10.4369 17.7504L10.4354 17.6543C10.4356 17.7004 10.4052 17.7466 10.3444 17.7817C10.2236 17.8514 10.0277 17.8514 9.90772 17.7817C9.8482 17.7471 9.81848 17.7018 9.81836 17.6565Z" fill="#929393"/>
<path d="M9.9096 17.529C9.7888 17.5987 9.78772 17.712 9.90772 17.7817C10.0277 17.8514 10.2236 17.8515 10.3444 17.7817C10.4652 17.712 10.4658 17.5985 10.3459 17.5288C10.2258 17.459 10.0304 17.4592 9.9096 17.529Z" fill="#D7D7D7"/>
<path d="M10.0176 15.5723L10.0259 17.641L10.1318 17.7025L10.1235 15.6338L10.0176 15.5723Z" fill="#3D3D3D"/>
<path d="M10.123 15.6335L10.1314 17.7022L10.2375 17.641L10.2292 15.5723L10.123 15.6335Z" fill="#686868"/>
<path d="M10.0176 15.573L10.1235 15.6345L10.2296 15.5732L10.1237 15.5117L10.0176 15.573Z" fill="#929393"/>
<path d="M11.1592 15.457L11.1589 15.546L10.2285 16.0867L10.2288 15.9977L11.1592 15.457Z" fill="#A6A6A6"/>
<path d="M10.2296 15.9977L10.2294 16.0867L9.29297 15.546L9.29321 15.457L10.2296 15.9977Z" fill="#747575"/>
<path d="M11.1598 15.4567L10.2294 15.9974L9.29297 15.4567L10.2233 14.916L11.1598 15.4567Z" fill="#B9B9BA"/>
<path d="M11.0303 15.2465L11.0297 15.4689C11.0296 15.4883 11.0169 15.5076 10.9915 15.5223C10.9403 15.5521 10.8577 15.5521 10.8061 15.5223C10.7804 15.5075 10.7675 15.488 10.7676 15.4685L10.7682 15.2461C10.7682 15.2656 10.781 15.2851 10.8067 15.2999C10.8583 15.3297 10.9409 15.3297 10.9922 15.2999C11.0175 15.2852 11.0302 15.2659 11.0303 15.2465Z" fill="#787677"/>
<path d="M10.991 15.192C11.0425 15.2218 11.0424 15.2698 10.9916 15.2994C10.9403 15.3292 10.8577 15.3292 10.8061 15.2994C10.7549 15.2698 10.7546 15.222 10.8059 15.1922C10.8567 15.1626 10.9397 15.1624 10.991 15.192Z" fill="#686868"/>
<path d="M10.3606 14.8581L10.3599 15.0805C10.3599 15.0999 10.3471 15.1192 10.3218 15.1339C10.2706 15.1637 10.1879 15.1637 10.1364 15.1339C10.1106 15.119 10.0976 15.0994 10.0977 15.0798L10.0983 14.8574C10.0983 14.877 10.1112 14.8966 10.137 14.9115C10.1886 14.9413 10.2713 14.9413 10.3225 14.9115C10.3478 14.8968 10.3605 14.8775 10.3606 14.8581Z" fill="#4F4D4D"/>
<path d="M10.3212 14.8034C10.3728 14.8332 10.3727 14.8813 10.3218 14.9108C10.2706 14.9406 10.1879 14.9406 10.1364 14.9108C10.0852 14.8813 10.0846 14.8332 10.1358 14.8034C10.1866 14.7739 10.27 14.7739 10.3212 14.8034Z" fill="#686868"/>
<path d="M10.3779 15.6254L10.3772 15.8478C10.3772 15.8672 10.3644 15.8865 10.3391 15.9012C10.2882 15.9308 10.2052 15.931 10.1537 15.9012C10.128 15.8864 10.1152 15.8669 10.1152 15.8474L10.1159 15.625C10.1158 15.6445 10.1286 15.664 10.1543 15.6788C10.2059 15.7086 10.2888 15.7084 10.3398 15.6788C10.3651 15.6641 10.3778 15.6448 10.3779 15.6254Z" fill="#787677"/>
<path d="M10.3385 15.5709C10.3901 15.6007 10.39 15.6487 10.3391 15.6783C10.2882 15.7079 10.2052 15.7081 10.1537 15.6783C10.1025 15.6487 10.1025 15.6007 10.1534 15.5711C10.2043 15.5415 10.2873 15.5413 10.3385 15.5709Z" fill="#686868"/>
<path d="M9.70616 15.237L9.70552 15.4594C9.70548 15.4788 9.69272 15.4981 9.6674 15.5128C9.61652 15.5424 9.53352 15.5426 9.48196 15.5128C9.4562 15.4979 9.44332 15.4783 9.44336 15.4587L9.444 15.2363C9.44396 15.2559 9.4568 15.2755 9.4826 15.2904C9.53416 15.3202 9.61712 15.32 9.66804 15.2904C9.69336 15.2757 9.70608 15.2564 9.70616 15.237Z" fill="#787677"/>
<path d="M9.66678 15.1823C9.71834 15.2121 9.71826 15.2602 9.66738 15.2897C9.6165 15.3193 9.5335 15.3195 9.48194 15.2897C9.43074 15.2602 9.43046 15.2119 9.48134 15.1823C9.53222 15.1528 9.61554 15.1528 9.66678 15.1823Z" fill="#686868"/>
<path d="M11.1631 13.5176L11.1628 15.2307L10.2324 15.7713L10.2327 14.0583L11.1631 13.5176Z" fill="#3D3D3D"/>
<path d="M10.2336 14.0582L10.2333 15.7713L9.29688 15.2306L9.29711 13.5176L10.2336 14.0582Z" fill="#4F4D4D"/>
<path d="M11.1637 13.5172L10.2334 14.0579L9.29688 13.5172L10.2273 12.9766L11.1637 13.5172Z" fill="#686868"/>
<path d="M10.2002 14.5651C10.1998 14.6929 10.1548 14.7824 10.0824 14.8247L10.0189 14.8616C10.0914 14.8193 10.1363 14.7298 10.1368 14.602C10.1377 14.3451 9.95683 14.032 9.73323 13.9029C9.62075 13.8381 9.51867 13.8318 9.44531 13.8746L9.50875 13.8381C9.58207 13.7949 9.68419 13.8012 9.79667 13.866C10.0202 13.9952 10.2011 14.3082 10.2002 14.5651Z" fill="#686868"/>
<path d="M9.73441 13.9032C9.95785 14.0322 10.1385 14.3451 10.1378 14.6022C10.137 14.859 9.95521 14.9626 9.73177 14.8336C9.50805 14.7044 9.32737 14.3915 9.32813 14.1348C9.32885 13.8777 9.51065 13.7741 9.73441 13.9032Z" fill="#FDE34B"/>
<path d="M9.91326 14.8245C9.86866 14.8245 9.81706 14.8083 9.76394 14.7777C9.56198 14.6611 9.39186 14.3667 9.39258 14.1349C9.39294 13.9954 9.45274 13.9121 9.55254 13.9121C9.59722 13.9121 9.64886 13.9283 9.7021 13.9591C9.90394 14.0756 10.0739 14.37 10.0732 14.602C10.0728 14.7413 10.013 14.8245 9.91326 14.8245Z" fill="white"/>
<path d="M9.90871 14.405C9.85483 14.3739 9.80943 14.2953 9.80963 14.2335C9.80967 14.2146 9.81387 14.1997 9.82143 14.1895C9.80019 14.1939 9.78719 14.2141 9.78711 14.247C9.78691 14.3089 9.83231 14.3874 9.88619 14.4185C9.90035 14.4267 9.91411 14.431 9.92603 14.431C9.93915 14.431 9.94959 14.4255 9.95691 14.4156C9.95411 14.4162 9.95167 14.4175 9.94855 14.4175C9.93667 14.4175 9.92291 14.4131 9.90871 14.405Z" fill="#EBB41F"/>
<path d="M9.96963 14.3716C9.96983 14.3097 9.92447 14.2311 9.87063 14.2C9.85643 14.1918 9.84263 14.1875 9.83071 14.1875C9.82759 14.1875 9.82515 14.1888 9.82235 14.1894C9.81479 14.1996 9.81059 14.2145 9.81055 14.2335C9.81035 14.2953 9.85575 14.3739 9.90963 14.4049C9.92379 14.4131 9.93755 14.4175 9.94947 14.4175C9.95259 14.4175 9.95503 14.4162 9.95783 14.4156C9.96539 14.4053 9.96955 14.3904 9.96963 14.3716Z" fill="#F8C814"/>
<path d="M9.96978 15.2841C9.96954 15.353 9.94526 15.4013 9.90618 15.4241L9.87194 15.444C9.91102 15.4212 9.9353 15.3729 9.93554 15.3039C9.93602 15.1653 9.83846 14.9964 9.71782 14.9268C9.65714 14.8918 9.60206 14.8884 9.5625 14.9115L9.59674 14.8918C9.6363 14.8685 9.69138 14.8719 9.75206 14.9069C9.8727 14.9765 9.9703 15.1455 9.96978 15.2841Z" fill="#686868"/>
<path d="M9.71725 14.9265C9.83781 14.9961 9.93529 15.1649 9.93489 15.3036C9.93449 15.4421 9.83641 15.498 9.71585 15.4284C9.59513 15.3587 9.49769 15.1899 9.49805 15.0514C9.49841 14.9127 9.59653 14.8568 9.71725 14.9265Z" fill="#787677"/>
<path d="M9.81374 15.3938C9.7949 15.3938 9.77218 15.3865 9.74802 15.3725C9.64714 15.3143 9.56218 15.1673 9.5625 15.0515C9.56258 15.0177 9.57006 14.9609 9.61914 14.9609C9.63798 14.9609 9.66078 14.9683 9.68498 14.9823C9.78578 15.0405 9.87062 15.1875 9.87034 15.3034C9.87026 15.3372 9.86274 15.3938 9.81374 15.3938Z" fill="#FDE34B"/>
<path d="M9.77625 15.3089C9.76477 15.3089 9.75089 15.3044 9.73617 15.2959C9.67465 15.2604 9.62285 15.1708 9.62305 15.1002C9.62309 15.0795 9.62765 15.0449 9.65757 15.0449C9.66905 15.0449 9.68297 15.0494 9.69773 15.0579C9.75921 15.0934 9.81093 15.1831 9.81077 15.2537C9.81069 15.2744 9.80613 15.3089 9.77625 15.3089Z" fill="#787677"/>
<path d="M2.06641 13.2229L2.06789 13.319C2.06801 13.3643 2.09777 13.4096 2.15725 13.4442C2.27725 13.5139 2.47317 13.5139 2.59397 13.4442C2.65477 13.4091 2.68509 13.3629 2.68497 13.3168L2.68349 13.2207C2.68361 13.2668 2.65325 13.313 2.59249 13.3481C2.47169 13.4178 2.27577 13.4178 2.15577 13.3481C2.09625 13.3135 2.06653 13.2682 2.06641 13.2229Z" fill="#929393"/>
<path d="M2.15765 13.0954C2.03685 13.1651 2.03577 13.2784 2.15577 13.3481C2.27577 13.4178 2.47169 13.4179 2.59249 13.3481C2.71329 13.2784 2.71389 13.1649 2.59393 13.0952C2.47393 13.0254 2.27845 13.0257 2.15765 13.0954Z" fill="#D7D7D7"/>
<path d="M2.26562 11.1387L2.27395 13.2074L2.37983 13.2689L2.3715 11.2002L2.26562 11.1387Z" fill="#3D3D3D"/>
<path d="M2.37109 11.2L2.37941 13.2686L2.48549 13.2074L2.47717 11.1387L2.37109 11.2Z" fill="#686868"/>
<path d="M2.26562 11.1394L2.3715 11.2009L2.47759 11.1396L2.37171 11.0781L2.26562 11.1394Z" fill="#929393"/>
<path d="M3.40916 11.0234L3.40892 11.1124L2.47852 11.6531L2.4788 11.5641L3.40916 11.0234Z" fill="#A6A6A6"/>
<path d="M2.47969 11.5641L2.47941 11.6531L1.54297 11.1124L1.54321 11.0234L2.47969 11.5641Z" fill="#747575"/>
<path d="M3.40981 11.0231L2.47945 11.5638L1.54297 11.0231L2.47337 10.4824L3.40981 11.0231Z" fill="#B9B9BA"/>
<path d="M3.2803 10.8129L3.27966 11.0353C3.27962 11.0547 3.26686 11.074 3.24154 11.0887C3.1903 11.1185 3.10766 11.1185 3.0561 11.0887C3.03038 11.0739 3.0175 11.0544 3.01758 11.0349L3.01822 10.8125C3.01818 10.832 3.03102 10.8515 3.05674 10.8663C3.1083 10.8961 3.19094 10.8961 3.24218 10.8663C3.2675 10.8516 3.28026 10.8323 3.2803 10.8129Z" fill="#787677"/>
<path d="M3.24095 10.7584C3.29251 10.7882 3.29243 10.8363 3.24155 10.8658C3.19031 10.8956 3.10767 10.8956 3.05611 10.8658C3.00491 10.8363 3.00463 10.7884 3.05587 10.7586C3.10675 10.7291 3.18975 10.7288 3.24095 10.7584Z" fill="#686868"/>
<path d="M2.60862 10.4245L2.60798 10.6469C2.60794 10.6663 2.59518 10.6856 2.56986 10.7003C2.51862 10.7301 2.43598 10.7301 2.38442 10.7003C2.35862 10.6854 2.34566 10.6658 2.3457 10.6462L2.34634 10.4238C2.3463 10.4434 2.35926 10.463 2.38506 10.4779C2.43662 10.5077 2.51926 10.5077 2.5705 10.4779C2.59586 10.4632 2.60858 10.4439 2.60862 10.4245Z" fill="#4F4D4D"/>
<path d="M2.56924 10.3698C2.6208 10.3996 2.62072 10.4477 2.56984 10.4772C2.5186 10.507 2.43596 10.507 2.3844 10.4772C2.3332 10.4477 2.3326 10.3996 2.3838 10.3698C2.43468 10.3403 2.51804 10.3402 2.56924 10.3698Z" fill="#686868"/>
<path d="M2.62783 11.1918L2.62719 11.4142C2.62715 11.4336 2.61439 11.4529 2.58907 11.4676C2.53819 11.4972 2.45519 11.4974 2.40363 11.4676C2.37795 11.4528 2.36515 11.4333 2.36523 11.4138L2.36587 11.1914C2.36583 11.2109 2.37859 11.2304 2.40427 11.2452C2.45583 11.275 2.53879 11.2748 2.58971 11.2452C2.61503 11.2305 2.62775 11.2112 2.62783 11.1918Z" fill="#787677"/>
<path d="M2.58849 11.1373C2.64005 11.1671 2.63997 11.2151 2.58909 11.2447C2.53821 11.2743 2.45521 11.2745 2.40365 11.2447C2.35245 11.2151 2.35249 11.1671 2.40337 11.1375C2.45429 11.1079 2.53725 11.1077 2.58849 11.1373Z" fill="#686868"/>
<path d="M1.95612 10.8035L1.95548 11.0259C1.95544 11.0452 1.94272 11.0645 1.9174 11.0792C1.86652 11.1088 1.78352 11.109 1.73196 11.0792C1.7062 11.0643 1.69332 11.0447 1.69336 11.0251L1.694 10.8027C1.69396 10.8223 1.7068 10.8419 1.7326 10.8568C1.78416 10.8866 1.86712 10.8864 1.91804 10.8568C1.94332 10.8421 1.95608 10.8228 1.95612 10.8035Z" fill="#787677"/>
<path d="M1.91678 10.7487C1.96834 10.7785 1.96826 10.8266 1.91738 10.8561C1.8665 10.8857 1.7835 10.8859 1.73194 10.8561C1.68074 10.8266 1.68046 10.7783 1.73134 10.7487C1.78222 10.7192 1.86558 10.7192 1.91678 10.7487Z" fill="#686868"/>
<path d="M3.41302 9.08398L3.41278 10.7971L2.48242 11.3377L2.48266 9.62466L3.41302 9.08398Z" fill="#3D3D3D"/>
<path d="M2.48359 9.62466L2.48335 11.3377L1.54688 10.7971L1.54711 9.08398L2.48359 9.62466Z" fill="#4F4D4D"/>
<path d="M3.41372 9.08365L2.48335 9.62433L1.54688 9.08365L2.47728 8.54297L3.41372 9.08365Z" fill="#686868"/>
<path d="M2.45211 10.1315C2.45167 10.2593 2.40667 10.3488 2.33427 10.3911L2.27083 10.428C2.34327 10.3857 2.38823 10.2962 2.38871 10.1684C2.38963 9.91152 2.20879 9.59844 1.98519 9.46932C1.87271 9.40452 1.77063 9.39824 1.69727 9.44096L1.76071 9.40452C1.83403 9.36132 1.93615 9.36764 2.04863 9.4324C2.27219 9.56156 2.45303 9.87468 2.45211 10.1315Z" fill="#686868"/>
<path d="M1.98441 9.46967C2.20785 9.59867 2.38849 9.91155 2.38777 10.1687C2.38705 10.4254 2.20521 10.5291 1.98177 10.4C1.75805 10.2709 1.57741 9.95795 1.57813 9.70119C1.57885 9.44407 1.76069 9.34047 1.98441 9.46967Z" fill="#FDE34B"/>
<path d="M2.16326 10.3909C2.11866 10.3909 2.06706 10.3747 2.01394 10.3441C1.81198 10.2275 1.64186 9.93312 1.64258 9.70132C1.64294 9.5618 1.70274 9.47852 1.80254 9.47852C1.84722 9.47852 1.89886 9.49476 1.9521 9.52548C2.15394 9.642 2.32386 9.9364 2.32318 10.1684C2.32274 10.3077 2.26298 10.3909 2.16326 10.3909Z" fill="white"/>
<path d="M2.15875 9.97138C2.10483 9.9403 2.05947 9.86174 2.05963 9.7999C2.05967 9.78102 2.06387 9.76606 2.07143 9.75586C2.05019 9.76034 2.03719 9.78054 2.03711 9.81342C2.03691 9.87526 2.08231 9.95382 2.13619 9.9849C2.15035 9.9931 2.16411 9.99742 2.17603 9.99742C2.18915 9.99742 2.19959 9.99194 2.20691 9.98202C2.20411 9.98262 2.20167 9.9839 2.19855 9.9839C2.18667 9.9839 2.17291 9.97958 2.15875 9.97138Z" fill="#EBB41F"/>
<path d="M2.21963 9.93799C2.21983 9.87611 2.17447 9.79755 2.12063 9.76643C2.10643 9.75823 2.09263 9.75391 2.08071 9.75391C2.07759 9.75391 2.07515 9.75523 2.07235 9.75583C2.06479 9.76603 2.06059 9.78095 2.06055 9.79987C2.06035 9.86171 2.10575 9.94027 2.15963 9.97135C2.17379 9.97955 2.18755 9.98387 2.19947 9.98387C2.20259 9.98387 2.20503 9.98259 2.20783 9.98199C2.21539 9.97175 2.21959 9.95687 2.21963 9.93799Z" fill="#F8C814"/>
<path d="M2.21978 10.8505C2.21954 10.9194 2.19526 10.9677 2.15618 10.9905L2.12194 11.0104C2.16102 10.9876 2.1853 10.9393 2.18554 10.8703C2.18602 10.7317 2.08846 10.5628 1.96782 10.4932C1.90714 10.4582 1.85206 10.4548 1.8125 10.4779L1.84674 10.4582C1.8863 10.4349 1.94138 10.4383 2.00206 10.4733C2.1227 10.5429 2.22026 10.7119 2.21978 10.8505Z" fill="#686868"/>
<path d="M1.96725 10.4929C2.08781 10.5625 2.18529 10.7313 2.18489 10.87C2.18449 11.0085 2.08641 11.0644 1.96585 10.9948C1.84513 10.9252 1.74769 10.7563 1.74805 10.6178C1.74845 10.4791 1.84653 10.4232 1.96725 10.4929Z" fill="#787677"/>
<path d="M2.06374 10.9602C2.0449 10.9602 2.02218 10.9529 1.99802 10.9389C1.89714 10.8807 1.81218 10.7337 1.8125 10.6179C1.81258 10.5841 1.82006 10.5273 1.86914 10.5273C1.88798 10.5273 1.91078 10.5347 1.93498 10.5487C2.03578 10.6069 2.12062 10.7539 2.12034 10.8698C2.12026 10.9035 2.11278 10.9602 2.06374 10.9602Z" fill="#FDE34B"/>
<path d="M2.02625 10.8753C2.01477 10.8753 2.00089 10.8708 1.98617 10.8623C1.92465 10.8268 1.87285 10.7372 1.87305 10.6666C1.87309 10.6459 1.87765 10.6113 1.90757 10.6113C1.91905 10.6113 1.93297 10.6158 1.94773 10.6243C2.00921 10.6598 2.06093 10.7495 2.06077 10.8201C2.06069 10.8408 2.05613 10.8753 2.02625 10.8753Z" fill="#787677"/>
<path d="M9.80943 1.05078L9.79883 8.86218L9.40039 9.09374L9.41099 1.28234L9.80943 1.05078Z" fill="#3D3D3D"/>
<path d="M9.411 1.28389L9.4004 9.09529L9 8.86414L9.0106 1.05273L9.411 1.28389Z" fill="#4F4D4D"/>
<path d="M9.80861 1.05147L9.41017 1.28303L9.00977 1.05187L9.40821 0.820312L9.80861 1.05147Z" fill="#686868"/>
<path d="M17.5893 5.80498L17.5677 13.4644V13.4717L15.0121 11.9954V11.9917L14.9832 11.9747L14.7558 11.8413H14.7522L14.5212 11.7077H14.5176L14.2866 11.5741L14.283 11.5705L14.052 11.4369L14.0484 11.4332L13.8174 11.3033L13.8138 11.2998L13.5828 11.1662L13.5792 11.1625L13.3482 11.0291H13.3446L13.1136 10.8955L13.11 10.8917L12.879 10.7583H12.8754L12.7491 10.6825C12.7078 10.6591 10.5177 9.41506 12.1752 10.3565L11.973 10.2373H11.9694L11.7384 10.1037L11.7348 10.1002L11.5038 9.96662H11.5002L11.2692 9.83302L11.2656 9.8295L11.0346 9.69962L11.031 9.6959L10.8 9.5623H10.7964V9.55878L10.5651 9.42902L10.5615 9.4253L10.3305 9.2917H10.3269V9.28818L10.0959 9.1583L10.0923 9.15458L9.86129 9.02098H9.85769V9.01746L9.62305 8.88386L9.64469 1.2207L9.87933 1.35782H9.88293L10.1139 1.49142L10.1175 1.49494L10.3485 1.62502V1.62854H10.3521L10.5831 1.76214L10.5867 1.76566L10.8177 1.89574V1.89926H10.8213L11.0523 2.03286L11.0559 2.03638L11.2869 2.16646V2.16998H11.2905L11.5215 2.30358L11.5251 2.3071L11.5432 2.3145L11.7561 2.43718V2.4407L11.9907 2.5743L12.2254 2.7079V2.71142L12.46 2.84502L12.6946 2.97862V2.98214L12.9256 3.11222V3.11574H12.9292L13.1602 3.24934L13.1638 3.25286L13.3948 3.38294V3.38646H13.3984L13.6294 3.52006L13.633 3.52358L13.864 3.65366V3.65718H13.8676L14.0986 3.79078H14.1022V3.7943L14.3335 3.92438V3.9279H14.3371L14.5681 4.0615H14.5717V4.06502L14.8027 4.1951V4.19862H14.8063L15.0373 4.33222H15.0409V4.33574L15.2719 4.46582V4.46934H15.2755L15.5065 4.60294H15.5101V4.60646L15.7411 4.74006H15.7447L15.9757 4.87366H15.9793V4.87718L16.2103 5.01078H16.2139L16.4449 5.14438H16.4485V5.1479L16.6795 5.2815H16.6831L16.9141 5.4151H16.9177V5.41862L17.1487 5.55222H17.1523L17.3833 5.68582H17.3869V5.68934L17.5893 5.80498Z" fill="#EE4541"/>
<path d="M9.88244 1.35774L9.86236 9.02182L9.625 8.88478L9.64504 1.2207L9.88244 1.35774Z" fill="url(#paint0_linear_5627_42029)"/>
<path d="M10.1168 1.49251L10.0967 9.15659L9.85938 9.01955L9.87945 1.35547L10.1168 1.49251Z" fill="url(#paint1_linear_5627_42029)"/>
<path d="M10.3512 1.62923L10.3311 9.29331L10.0938 9.15627L10.1138 1.49219L10.3512 1.62923Z" fill="url(#paint2_linear_5627_42029)"/>
<path d="M10.5856 1.76399L10.5655 9.42811L10.3281 9.29103L10.3482 1.62695L10.5856 1.76399Z" fill="url(#paint3_linear_5627_42029)"/>
<path d="M10.82 1.8988L10.7999 9.56288L10.5625 9.42584L10.5826 1.76172L10.82 1.8988Z" fill="url(#paint4_linear_5627_42029)"/>
<path d="M11.0543 2.03352L11.0342 9.6976L10.7969 9.56056L10.8169 1.89648L11.0543 2.03352Z" fill="url(#paint5_linear_5627_42029)"/>
<path d="M11.2887 2.16829L11.2686 9.83237L11.0312 9.69533L11.0513 2.03125L11.2887 2.16829Z" fill="url(#paint6_linear_5627_42029)"/>
<path d="M11.5231 2.30501L11.503 9.96909L11.2656 9.83205L11.2857 2.16797L11.5231 2.30501Z" fill="url(#paint7_linear_5627_42029)"/>
<path d="M11.7574 2.43981L11.7374 10.1039L11.5 9.96681L11.5201 2.30273L11.7574 2.43981Z" fill="url(#paint8_linear_5627_42029)"/>
<path d="M11.9919 2.57454L11.9718 10.2386L11.7344 10.1016L11.7545 2.4375L11.9919 2.57454Z" fill="url(#paint9_linear_5627_42029)"/>
<path d="M12.2262 2.70931L12.2061 10.3734L11.9688 10.2363L11.9888 2.57227L12.2262 2.70931Z" fill="url(#paint10_linear_5627_42029)"/>
<path d="M12.4623 2.84407L12.4132 10.4931L12.1758 10.3561L12.2249 2.70703L12.4623 2.84407Z" fill="url(#paint11_linear_5627_42029)"/>
<path d="M13.164 3.25201C13.0898 13.7204 13.1154 10.1099 13.1099 10.891L12.8789 10.7575C12.8837 9.97609 12.8615 13.5884 12.9258 3.11489V3.11133L12.9294 3.11485L13.1604 3.24845L13.164 3.25201Z" fill="url(#paint12_linear_5627_42029)"/>
<path d="M12.9277 3.1172C12.8535 13.5856 12.8791 9.97508 12.8736 10.7562L12.6426 10.6227C12.6474 9.84128 12.6252 13.4536 12.6895 2.98008V2.97656L12.6931 2.98008L12.9241 3.11368L12.9277 3.1172Z" fill="url(#paint13_linear_5627_42029)"/>
<path d="M12.6894 2.98244C12.6152 13.4509 12.6408 9.84032 12.6353 10.6214L12.4043 10.488C12.4091 9.70652 12.3869 13.3188 12.4512 2.84532V2.8418L12.4548 2.84532L12.6858 2.97892L12.6894 2.98244Z" fill="url(#paint14_linear_5627_42029)"/>
<path d="M13.3985 3.38712C13.3243 13.8606 13.3499 10.2483 13.3443 11.0298L13.1133 10.8962C13.1181 10.1144 13.0959 13.7283 13.1602 3.25L13.1638 3.25352L13.3948 3.3836V3.38712H13.3985Z" fill="url(#paint15_linear_5627_42029)"/>
<path d="M13.6328 3.52349C13.5586 13.9919 13.5842 10.3814 13.5787 11.1625L13.3477 11.029C13.3525 10.2476 13.3303 13.8599 13.3946 3.38637V3.38281L13.3982 3.38633L13.6292 3.51993L13.6328 3.52349Z" fill="url(#paint16_linear_5627_42029)"/>
<path d="M13.8672 3.65665C13.793 14.1302 13.8186 10.5179 13.813 11.2993L13.582 11.1657C13.5868 10.3839 13.5646 13.9979 13.629 3.51953L13.6326 3.52305L13.8636 3.65313L13.8672 3.65665Z" fill="url(#paint17_linear_5627_42029)"/>
<path d="M14.1016 3.79146V3.79498C14.0274 14.2634 14.053 10.6529 14.0474 11.4339L13.8164 11.3041C13.8212 10.5223 13.7991 14.1362 13.8633 3.6579V3.6543L13.8669 3.65782L14.0979 3.7877V3.79142L14.1016 3.79146Z" fill="url(#paint18_linear_5627_42029)"/>
<path d="M14.3379 3.92795C14.2637 14.4015 14.2893 10.7891 14.2838 11.5706L14.0528 11.437C14.0576 10.6552 14.0354 14.2691 14.0997 3.79083V3.78711L14.1033 3.79083L14.3343 3.92443L14.3379 3.92795Z" fill="url(#paint19_linear_5627_42029)"/>
<path d="M14.5723 4.06099V4.06451C14.4981 14.538 14.5237 10.9257 14.5181 11.7071L14.2871 11.5735C14.2919 10.7917 14.2697 14.4057 14.334 3.92739V3.92383L14.3376 3.92735L14.5686 4.05723V4.06095L14.5723 4.06099Z" fill="url(#paint20_linear_5627_42029)"/>
<path d="M14.8067 4.19943C14.7325 14.673 14.7581 11.0606 14.7525 11.8421L14.5215 11.7085C14.5263 10.9267 14.5041 14.5406 14.5684 4.06231V4.05859L14.572 4.06231L14.803 4.19591L14.8067 4.19943Z" fill="url(#paint21_linear_5627_42029)"/>
<path d="M15.041 4.33243V4.33595L15.0194 11.9919V11.9956L15.0122 11.9919L14.9833 11.9749L14.7559 11.8415C14.7607 11.06 14.7385 14.6724 14.8028 4.19883V4.19531L14.8064 4.19883L15.0374 4.32871V4.33243H15.041Z" fill="url(#paint22_linear_5627_42029)"/>
<path d="M15.275 4.46712L15.255 12.1312L15.0176 11.9942L15.0377 4.33008L15.275 4.46712Z" fill="url(#paint23_linear_5627_42029)"/>
<path d="M15.5094 4.60188L15.4894 12.266L15.252 12.1289L15.272 4.46484L15.5094 4.60188Z" fill="url(#paint24_linear_5627_42029)"/>
<path d="M15.7438 4.73665L15.7237 12.4007L15.4863 12.2637L15.5064 4.59961L15.7438 4.73665Z" fill="url(#paint25_linear_5627_42029)"/>
<path d="M15.9781 4.87141L15.9581 12.5355L15.7207 12.3985L15.7408 4.73438L15.9781 4.87141Z" fill="url(#paint26_linear_5627_42029)"/>
<path d="M16.2125 5.00622L16.1924 12.6703L15.9551 12.5333L15.9752 4.86914L16.2125 5.00622Z" fill="url(#paint27_linear_5627_42029)"/>
<path d="M16.4469 5.14095L16.4269 12.805L16.1895 12.668L16.2095 5.00391L16.4469 5.14095Z" fill="url(#paint28_linear_5627_42029)"/>
<path d="M16.6813 5.27766L16.6612 12.9417L16.4238 12.8047L16.4439 5.14062L16.6813 5.27766Z" fill="url(#paint29_linear_5627_42029)"/>
<path d="M16.9176 5.41243L16.8975 13.0766L16.6602 12.9395L16.6802 5.27539L16.9176 5.41243Z" fill="url(#paint30_linear_5627_42029)"/>
<path d="M17.152 5.54724L17.1319 13.2113L16.8945 13.0743L16.9146 5.41016L17.152 5.54724Z" fill="url(#paint31_linear_5627_42029)"/>
<path d="M17.3863 5.68196L17.3663 13.346L17.1289 13.209L17.149 5.54492L17.3863 5.68196Z" fill="url(#paint32_linear_5627_42029)"/>
<path d="M17.6207 5.81673L17.6007 13.4808L17.3633 13.3438L17.3834 5.67969L17.6207 5.81673Z" fill="url(#paint33_linear_5627_42029)"/>
<path d="M18.1961 5.80469L18.1855 13.6161L17.7871 13.8476L17.7977 6.03625L18.1961 5.80469Z" fill="#3D3D3D"/>
<path d="M17.7977 6.03784L17.7871 13.8492L17.3867 13.618L17.3973 5.80664L17.7977 6.03784Z" fill="#4F4D4D"/>
<path d="M18.1953 5.80538L17.7968 6.03694L17.3965 5.80574L17.7949 5.57422L18.1953 5.80538Z" fill="#686868"/>
<path d="M18.621 5.59375L18.6206 5.74819L17.6953 6.28587L17.6958 6.13147L18.621 5.59375Z" fill="#4F4D4D"/>
<path d="M17.6959 6.13154L17.6955 6.28594L8.69922 1.09194L8.69966 0.9375L17.6959 6.13154Z" fill="#686868"/>
<path d="M18.6207 5.59439L17.6955 6.13211L8.69922 0.938071L9.62446 0.400391L18.6207 5.59439Z" fill="#787677"/>
</g>
<defs>
<linearGradient id="paint0_linear_5627_42029" x1="9.62504" y1="5.1211" x2="9.88264" y2="5.1211" gradientUnits="userSpaceOnUse">
<stop stop-color="#CF2027"/>
<stop offset="1" stop-color="#E02426"/>
</linearGradient>
<linearGradient id="paint1_linear_5627_42029" x1="9.85933" y1="5.25595" x2="10.1169" y2="5.25595" gradientUnits="userSpaceOnUse">
<stop stop-color="#CF2027"/>
<stop offset="1" stop-color="#E02426"/>
</linearGradient>
<linearGradient id="paint2_linear_5627_42029" x1="10.0936" y1="5.39275" x2="10.3512" y2="5.39275" gradientUnits="userSpaceOnUse">
<stop stop-color="#CF2027"/>
<stop offset="1" stop-color="#E02426"/>
</linearGradient>
<linearGradient id="paint3_linear_5627_42029" x1="10.3283" y1="5.52759" x2="10.5855" y2="5.52759" gradientUnits="userSpaceOnUse">
<stop stop-color="#CF2027"/>
<stop offset="1" stop-color="#E02426"/>
</linearGradient>
<linearGradient id="paint4_linear_5627_42029" x1="10.5626" y1="5.66244" x2="10.8198" y2="5.66244" gradientUnits="userSpaceOnUse">
<stop stop-color="#CF2027"/>
<stop offset="1" stop-color="#E02426"/>
</linearGradient>
<linearGradient id="paint5_linear_5627_42029" x1="10.7969" y1="5.79724" x2="11.0545" y2="5.79724" gradientUnits="userSpaceOnUse">
<stop stop-color="#CF2027"/>
<stop offset="1" stop-color="#E02426"/>
</linearGradient>
<linearGradient id="paint6_linear_5627_42029" x1="11.0312" y1="5.93169" x2="11.2888" y2="5.93169" gradientUnits="userSpaceOnUse">
<stop stop-color="#CF2027"/>
<stop offset="1" stop-color="#E02426"/>
</linearGradient>
<linearGradient id="paint7_linear_5627_42029" x1="11.2655" y1="6.06849" x2="11.5231" y2="6.06849" gradientUnits="userSpaceOnUse">
<stop stop-color="#CF2027"/>
<stop offset="1" stop-color="#E02426"/>
</linearGradient>
<linearGradient id="paint8_linear_5627_42029" x1="11.5002" y1="6.20333" x2="11.7574" y2="6.20333" gradientUnits="userSpaceOnUse">
<stop stop-color="#CF2027"/>
<stop offset="1" stop-color="#E02426"/>
</linearGradient>
<linearGradient id="paint9_linear_5627_42029" x1="11.7345" y1="6.33814" x2="11.9921" y2="6.33814" gradientUnits="userSpaceOnUse">
<stop stop-color="#CF2027"/>
<stop offset="1" stop-color="#E02426"/>
</linearGradient>
<linearGradient id="paint10_linear_5627_42029" x1="11.9687" y1="6.47299" x2="12.2263" y2="6.47299" gradientUnits="userSpaceOnUse">
<stop stop-color="#CF2027"/>
<stop offset="1" stop-color="#E02426"/>
</linearGradient>
<linearGradient id="paint11_linear_5627_42029" x1="12.1759" y1="6.60023" x2="12.4623" y2="6.60023" gradientUnits="userSpaceOnUse">
<stop stop-color="#CF2027"/>
<stop offset="1" stop-color="#E02426"/>
</linearGradient>
<linearGradient id="paint12_linear_5627_42029" x1="12.8788" y1="7.00229" x2="13.164" y2="7.00229" gradientUnits="userSpaceOnUse">
<stop stop-color="#CF2027"/>
<stop offset="1" stop-color="#E02426"/>
</linearGradient>
<linearGradient id="paint13_linear_5627_42029" x1="12.6428" y1="6.8676" x2="12.9276" y2="6.8676" gradientUnits="userSpaceOnUse">
<stop stop-color="#CF2027"/>
<stop offset="1" stop-color="#E02426"/>
</linearGradient>
<linearGradient id="paint14_linear_5627_42029" x1="12.4044" y1="6.73292" x2="12.6896" y2="6.73292" gradientUnits="userSpaceOnUse">
<stop stop-color="#CF2027"/>
<stop offset="1" stop-color="#E02426"/>
</linearGradient>
<linearGradient id="paint15_linear_5627_42029" x1="13.1133" y1="7.141" x2="13.3985" y2="7.141" gradientUnits="userSpaceOnUse">
<stop stop-color="#CF2027"/>
<stop offset="1" stop-color="#E02426"/>
</linearGradient>
<linearGradient id="paint16_linear_5627_42029" x1="13.3475" y1="7.27385" x2="13.6327" y2="7.27385" gradientUnits="userSpaceOnUse">
<stop stop-color="#CF2027"/>
<stop offset="1" stop-color="#E02426"/>
</linearGradient>
<linearGradient id="paint17_linear_5627_42029" x1="13.582" y1="7.41061" x2="13.8672" y2="7.41061" gradientUnits="userSpaceOnUse">
<stop stop-color="#CF2027"/>
<stop offset="1" stop-color="#E02426"/>
</linearGradient>
<linearGradient id="paint18_linear_5627_42029" x1="13.8166" y1="7.54542" x2="14.1018" y2="7.54542" gradientUnits="userSpaceOnUse">
<stop stop-color="#CF2027"/>
<stop offset="1" stop-color="#E02426"/>
</linearGradient>
<linearGradient id="paint19_linear_5627_42029" x1="14.0527" y1="7.67999" x2="14.3379" y2="7.67999" gradientUnits="userSpaceOnUse">
<stop stop-color="#CF2027"/>
<stop offset="1" stop-color="#E02426"/>
</linearGradient>
<linearGradient id="paint20_linear_5627_42029" x1="14.2872" y1="7.81663" x2="14.5724" y2="7.81663" gradientUnits="userSpaceOnUse">
<stop stop-color="#CF2027"/>
<stop offset="1" stop-color="#E02426"/>
</linearGradient>
<linearGradient id="paint21_linear_5627_42029" x1="14.5214" y1="7.95155" x2="14.8066" y2="7.95155" gradientUnits="userSpaceOnUse">
<stop stop-color="#CF2027"/>
<stop offset="1" stop-color="#E02426"/>
</linearGradient>
<linearGradient id="paint22_linear_5627_42029" x1="14.756" y1="8.09539" x2="15.0412" y2="8.09539" gradientUnits="userSpaceOnUse">
<stop stop-color="#CF2027"/>
<stop offset="1" stop-color="#E02426"/>
</linearGradient>
<linearGradient id="paint23_linear_5627_42029" x1="15.0176" y1="8.23052" x2="15.2752" y2="8.23052" gradientUnits="userSpaceOnUse">
<stop stop-color="#CF2027"/>
<stop offset="1" stop-color="#E02426"/>
</linearGradient>
<linearGradient id="paint24_linear_5627_42029" x1="15.2519" y1="8.36536" x2="15.5095" y2="8.36536" gradientUnits="userSpaceOnUse">
<stop stop-color="#CF2027"/>
<stop offset="1" stop-color="#E02426"/>
</linearGradient>
<linearGradient id="paint25_linear_5627_42029" x1="15.4862" y1="8.50021" x2="15.7438" y2="8.50021" gradientUnits="userSpaceOnUse">
<stop stop-color="#CF2027"/>
<stop offset="1" stop-color="#E02426"/>
</linearGradient>
<linearGradient id="paint26_linear_5627_42029" x1="15.7209" y1="8.63505" x2="15.9781" y2="8.63505" gradientUnits="userSpaceOnUse">
<stop stop-color="#CF2027"/>
<stop offset="1" stop-color="#E02426"/>
</linearGradient>
<linearGradient id="paint27_linear_5627_42029" x1="15.9552" y1="8.7699" x2="16.2124" y2="8.7699" gradientUnits="userSpaceOnUse">
<stop stop-color="#CF2027"/>
<stop offset="1" stop-color="#E02426"/>
</linearGradient>
<linearGradient id="paint28_linear_5627_42029" x1="16.1895" y1="8.90431" x2="16.4471" y2="8.90431" gradientUnits="userSpaceOnUse">
<stop stop-color="#CF2027"/>
<stop offset="1" stop-color="#E02426"/>
</linearGradient>
<linearGradient id="paint29_linear_5627_42029" x1="16.4237" y1="9.0411" x2="16.6813" y2="9.0411" gradientUnits="userSpaceOnUse">
<stop stop-color="#CF2027"/>
<stop offset="1" stop-color="#E02426"/>
</linearGradient>
<linearGradient id="paint30_linear_5627_42029" x1="16.6604" y1="9.17595" x2="16.9176" y2="9.17595" gradientUnits="userSpaceOnUse">
<stop stop-color="#CF2027"/>
<stop offset="1" stop-color="#E02426"/>
</linearGradient>
<linearGradient id="paint31_linear_5627_42029" x1="16.8947" y1="9.3108" x2="17.1519" y2="9.3108" gradientUnits="userSpaceOnUse">
<stop stop-color="#CF2027"/>
<stop offset="1" stop-color="#E02426"/>
</linearGradient>
<linearGradient id="paint32_linear_5627_42029" x1="17.1289" y1="9.4456" x2="17.3865" y2="9.4456" gradientUnits="userSpaceOnUse">
<stop stop-color="#CF2027"/>
<stop offset="1" stop-color="#E02426"/>
</linearGradient>
<linearGradient id="paint33_linear_5627_42029" x1="17.3632" y1="9.58045" x2="17.6208" y2="9.58045" gradientUnits="userSpaceOnUse">
<stop stop-color="#CF2027"/>
<stop offset="1" stop-color="#E02426"/>
</linearGradient>
<clipPath id="clip0_5627_42029">
<rect width="20" height="20" fill="white"/>
</clipPath>
</defs>
</svg>
