<svg width="20" height="20" viewBox="0 0 20 20" fill="none" xmlns="http://www.w3.org/2000/svg">
<path d="M17.0484 11.3789C17.0592 11.0798 16.871 10.7766 16.474 10.5508C15.7042 10.1055 14.4589 10.1055 13.6966 10.5508C13.3155 10.7696 13.123 11.0602 13.123 11.3508V11.9659C13.123 12.2602 13.3155 12.5508 13.7042 12.7772C14.474 13.2187 15.7193 13.2187 16.4815 12.7734C16.8627 12.5545 17.0513 12.264 17.0513 11.9772V11.3583C17.0513 11.3655 17.0486 11.3719 17.0484 11.3789ZM13.2061 11.6753C13.2438 11.747 13.2891 11.8149 13.3495 11.8828C13.2891 11.8149 13.24 11.747 13.2061 11.6753Z" fill="#1D2943"/>
<path d="M17.0525 11.3602L17.0525 11.9767C17.0517 12.2662 16.8615 12.5552 16.4819 12.7758C15.7173 13.2202 14.4723 13.2206 13.7026 12.7763C13.3155 12.5528 13.1222 12.2592 13.1231 11.9661L13.123 11.3496C13.1222 11.6427 13.3155 11.9363 13.7026 12.1598C14.4723 12.6041 15.7173 12.6037 16.4819 12.1593C16.8615 11.9387 17.0517 11.6497 17.0525 11.3602Z" fill="#1D2943"/>
<path d="M16.4729 10.5499C17.2425 10.9943 17.2459 11.7154 16.4819 12.1594C15.7173 12.6038 14.4723 12.6042 13.7026 12.1598C12.9329 11.7155 12.9296 10.9943 13.6943 10.5499C14.4582 10.106 15.7032 10.1055 16.4729 10.5499Z" fill="#4C5C75"/>
<path d="M14.1777 4.55299L14.689 4.25586L15.9111 4.96139L15.3998 5.25853L14.1777 4.55299Z" fill="#A56C4E"/>
<path d="M15.911 4.96224L15.8921 11.6792L15.3789 11.9773L14.1562 11.2717L14.1789 4.55469L15.4015 5.26035L15.911 4.96224Z" fill="#B0B8CF"/>
<path d="M15.3993 5.25807L15.9106 4.96094L15.8902 11.6783L15.3789 11.9755L15.3993 5.25807Z" fill="#E3E7F0"/>
<path d="M15.3987 5.25827L15.3783 11.9757L14.1562 11.2701L14.1767 4.55273L15.3987 5.25827Z" fill="#B0B8CF"/>
<path d="M11.543 15.8388C11.5902 15.8115 11.6566 15.8156 11.7295 15.8579C11.8746 15.9408 11.9907 16.1431 11.9907 16.3106C11.9898 16.3927 11.9608 16.4507 11.9144 16.478L12.1482 16.3421C12.1946 16.3147 12.2236 16.2567 12.2236 16.1746C12.2245 16.0071 12.1076 15.8048 11.9633 15.7219C11.8904 15.6796 11.824 15.6755 11.7768 15.7029L11.543 15.8388Z" fill="#C9CEE2"/>
<path d="M11.2554 17.8983C11.3045 17.9248 11.3347 17.9814 11.3347 18.0644C11.3347 18.2304 11.2177 18.4342 11.0705 18.5172C10.995 18.5587 10.9309 18.5625 10.8818 18.5323L10.6516 18.4002C10.6064 18.3738 10.5762 18.3135 10.5762 18.2342C10.5762 18.0644 10.6932 17.8644 10.8366 17.7814C10.9082 17.7399 10.9762 17.7323 11.0215 17.7625L11.2252 17.8833C11.229 17.887 11.2328 17.887 11.2365 17.887C11.2403 17.887 11.2403 17.8908 11.2403 17.8908C11.2441 17.8946 11.2516 17.8946 11.2554 17.8983Z" fill="#9EA9C9"/>
<path d="M10.7572 17.1502L10.5271 17.2823C10.478 17.3125 10.4139 17.3087 10.3384 17.2672C10.1912 17.1842 10.0742 16.9842 10.0742 16.8182C10.0742 16.7314 10.1044 16.6748 10.1535 16.6483C10.1572 16.6446 10.1648 16.6446 10.1686 16.6408L10.3874 16.5125C10.4327 16.4823 10.5006 16.4899 10.5723 16.5314C10.7157 16.6144 10.8327 16.8144 10.8327 16.9842C10.8327 17.0672 10.8025 17.1238 10.7572 17.1502Z" fill="#9EA9C9"/>
<path d="M11.9913 16.313C11.9876 16.479 11.8706 16.5432 11.7272 16.4601C11.5838 16.3771 11.4668 16.1733 11.4668 16.0073C11.4668 15.8413 11.5838 15.7733 11.731 15.8601C11.8744 15.9432 11.9913 16.1432 11.9913 16.313Z" fill="#9EA9C9"/>
<path d="M13.8096 16.7765L13.5794 16.6444C13.5341 16.618 13.5039 16.5614 13.5039 16.4783C13.5039 16.3085 13.6209 16.1085 13.7643 16.0255C13.836 15.984 13.9039 15.9765 13.9492 16.0066L14.1643 16.1312L14.1831 16.1425C14.1807 16.1413 14.1764 16.1404 14.1733 16.1388C14.2272 16.1618 14.2624 16.2204 14.2624 16.3123C14.2624 16.4783 14.1454 16.6783 13.9982 16.7614C13.9228 16.8029 13.8586 16.8066 13.8096 16.7765Z" fill="#9EA9C9"/>
<path d="M14.6394 17.5881C14.6394 17.6711 14.6092 17.7277 14.5639 17.7541L14.3299 17.89C14.2846 17.9201 14.2167 17.9164 14.145 17.8749C13.9978 17.7881 13.8809 17.5881 13.8809 17.422C13.8846 17.3352 13.9186 17.2749 13.9714 17.2484L14.1941 17.1164C14.2393 17.0899 14.3073 17.0937 14.379 17.1352C14.5224 17.2183 14.6394 17.422 14.6394 17.5881Z" fill="#9EA9C9"/>
<path d="M13.3387 18.4873C13.3387 18.5665 13.3123 18.6269 13.2632 18.6533L13.033 18.7892C12.9878 18.8156 12.9198 18.8118 12.8444 18.7703C12.701 18.6873 12.584 18.4835 12.584 18.3175C12.584 18.2345 12.6142 18.1779 12.6595 18.1515C12.6632 18.1477 12.6708 18.1477 12.6745 18.1439C12.6783 18.1401 12.6783 18.1401 12.6821 18.1401L12.8934 18.0156C12.9425 17.9854 13.0066 17.9892 13.0783 18.0345C13.2255 18.1175 13.3425 18.3175 13.3387 18.4873Z" fill="#9EA9C9"/>
<path d="M12.6582 18.1474C12.7055 18.1201 12.7718 18.1242 12.8447 18.1665C12.9898 18.2494 13.1059 18.4517 13.1059 18.6192C13.1051 18.7012 13.0761 18.7593 13.0296 18.7866L13.2634 18.6507C13.3099 18.6233 13.3389 18.5653 13.3389 18.4832C13.3397 18.3157 13.2228 18.1134 13.0785 18.0305C13.0056 17.9882 12.9393 17.9841 12.892 18.0115L12.6582 18.1474Z" fill="#C9CEE2"/>
<path d="M12.8454 18.1671C12.6999 18.0831 12.5825 18.15 12.582 18.3172C12.5816 18.4833 12.6982 18.6853 12.8437 18.7693C12.9882 18.8527 13.1056 18.7858 13.1061 18.6198C13.1066 18.4525 12.9899 18.2506 12.8454 18.1671Z" fill="#E3E7F0"/>
<path d="M12.917 18.6474C12.9554 18.6474 12.9784 18.615 12.9785 18.5608C12.9788 18.4671 12.9129 18.3527 12.8317 18.3058C12.8105 18.2936 12.7901 18.2871 12.7726 18.2871C12.7341 18.2871 12.7111 18.3197 12.7109 18.3743C12.7107 18.4676 12.7769 18.5819 12.8584 18.629C12.8793 18.6411 12.8996 18.6474 12.917 18.6474Z" fill="#9EA9C9"/>
<path d="M11.2568 17.8955C11.2096 17.8681 11.1433 17.8723 11.0703 17.9145C10.9252 17.9974 10.8091 18.1997 10.8091 18.3672C10.81 18.4493 10.839 18.5073 10.8854 18.5347L10.6516 18.3987C10.6052 18.3714 10.5762 18.3133 10.5762 18.2312C10.5753 18.0638 10.6922 17.8615 10.8365 17.7786C10.9095 17.7363 10.9758 17.7321 11.0231 17.7595L11.2568 17.8955Z" fill="#C9CEE2"/>
<path d="M11.0692 17.9152C11.2148 17.8311 11.3322 17.898 11.3326 18.0653C11.3331 18.2313 11.2165 18.4333 11.0709 18.5173C10.9264 18.6008 10.8091 18.5339 10.8086 18.3678C10.8081 18.2006 10.9247 17.9986 11.0692 17.9152Z" fill="#E3E7F0"/>
<path d="M10.9991 18.3955C10.9607 18.3955 10.9376 18.3631 10.9375 18.3088C10.9372 18.2151 11.0031 18.1007 11.0844 18.0538C11.1055 18.0416 11.1259 18.0352 11.1435 18.0352C11.1819 18.0352 11.2049 18.0678 11.2051 18.1224C11.2053 18.2157 11.1392 18.3299 11.0576 18.377C11.0367 18.3891 11.0165 18.3955 10.9991 18.3955Z" fill="#9EA9C9"/>
<path d="M13.959 17.2529C14.0062 17.2255 14.0726 17.2297 14.1455 17.272C14.2906 17.3549 14.4067 17.5572 14.4067 17.7246C14.4059 17.8067 14.3768 17.8647 14.3304 17.8921L14.5642 17.7561C14.6106 17.7288 14.6397 17.6707 14.6397 17.5887C14.6405 17.4212 14.5236 17.2189 14.3793 17.136C14.3064 17.0937 14.24 17.0896 14.1928 17.1169L13.959 17.2529Z" fill="#C9CEE2"/>
<path d="M14.1462 17.2726C14.0007 17.1886 13.8833 17.2554 13.8828 17.4227C13.8823 17.5888 13.9989 17.7907 14.1445 17.8748C14.289 17.9582 14.4064 17.8913 14.4069 17.7253C14.4073 17.558 14.2907 17.356 14.1462 17.2726Z" fill="#E3E7F0"/>
<path d="M14.2178 17.7529C14.2562 17.7529 14.2792 17.7205 14.2793 17.6663C14.2796 17.5726 14.2137 17.4581 14.1325 17.4112C14.1113 17.399 14.0909 17.3926 14.0733 17.3926C14.0349 17.3926 14.0119 17.4252 14.0117 17.4798C14.0115 17.5731 14.0776 17.6874 14.1592 17.7345C14.1801 17.7465 14.2003 17.7529 14.2178 17.7529Z" fill="#9EA9C9"/>
<path d="M10.1523 16.6474C10.1996 16.6201 10.2659 16.6242 10.3389 16.6665C10.484 16.7494 10.6 16.9517 10.6 17.1192C10.5992 17.2012 10.5702 17.2593 10.5238 17.2866L10.7576 17.1507C10.804 17.1233 10.833 17.0653 10.833 16.9832C10.8338 16.8157 10.7169 16.6134 10.5727 16.5305C10.4997 16.4882 10.4334 16.4841 10.3861 16.5115L10.1523 16.6474Z" fill="#C9CEE2"/>
<path d="M10.3396 16.6671C10.194 16.5831 10.0766 16.65 10.0762 16.8172C10.0757 16.9833 10.1923 17.1853 10.3379 17.2693C10.4824 17.3527 10.5997 17.2859 10.6002 17.1198C10.6007 16.9525 10.4841 16.7506 10.3396 16.6671Z" fill="#E3E7F0"/>
<path d="M10.4111 17.1474C10.4495 17.1474 10.4725 17.115 10.4727 17.0608C10.473 16.9671 10.4071 16.8527 10.3258 16.8058C10.3047 16.7936 10.2843 16.7871 10.2667 16.7871C10.2283 16.7871 10.2052 16.8197 10.2051 16.8743C10.2048 16.9676 10.271 17.0819 10.3526 17.129C10.3735 17.1411 10.3937 17.1474 10.4111 17.1474Z" fill="#9EA9C9"/>
<path d="M14.1846 16.1416C14.1373 16.1142 14.071 16.1183 13.998 16.1606C13.853 16.2435 13.7369 16.4458 13.7369 16.6133C13.7377 16.6954 13.7667 16.7534 13.8132 16.7808L13.5794 16.6448C13.5329 16.6175 13.5039 16.5594 13.5039 16.4773C13.5031 16.3099 13.62 16.1076 13.7642 16.0247C13.8372 15.9824 13.9035 15.9782 13.9508 16.0056L14.1846 16.1416Z" fill="#C9CEE2"/>
<path d="M13.997 16.1613C14.1425 16.0772 14.2599 16.1441 14.2604 16.3114C14.2608 16.4774 14.1442 16.6794 13.9987 16.7634C13.8542 16.8469 13.7368 16.78 13.7363 16.6139C13.7359 16.4467 13.8525 16.2447 13.997 16.1613Z" fill="#E3E7F0"/>
<path d="M13.9268 16.6416C13.8884 16.6416 13.8654 16.6092 13.8652 16.5549C13.865 16.4612 13.9309 16.3468 14.0121 16.2999C14.0332 16.2877 14.0537 16.2812 14.0712 16.2812C14.1096 16.2812 14.1327 16.3139 14.1328 16.3685C14.1331 16.4618 14.0669 16.576 13.9853 16.6231C13.9645 16.6352 13.9442 16.6416 13.9268 16.6416Z" fill="#9EA9C9"/>
<path d="M11.7283 15.8585C11.5827 15.7745 11.4653 15.8414 11.4648 16.0086C11.4644 16.1747 11.581 16.3767 11.7265 16.4607C11.8711 16.5441 11.9884 16.4773 11.9889 16.3112C11.9894 16.1439 11.8728 15.942 11.7283 15.8585Z" fill="#E3E7F0"/>
<path d="M11.7998 16.3388C11.8382 16.3388 11.8612 16.3064 11.8614 16.2522C11.8616 16.1585 11.7957 16.0441 11.7145 15.9972C11.6934 15.985 11.6729 15.9785 11.6554 15.9785C11.617 15.9785 11.5939 16.0111 11.5938 16.0657C11.5935 16.159 11.6597 16.2733 11.7413 16.3204C11.7621 16.3325 11.7824 16.3388 11.7998 16.3388Z" fill="#9EA9C9"/>
<path d="M14.818 17.0027V17.3574L14.6746 17.6707L13.0029 17.4103L13.3274 18.1046V18.4556L12.7802 18.5386L12.2784 17.4669L10.9274 18.2518L10.5312 18.0216V17.6707L11.4067 17.1612L10.0293 16.9499V16.5952L10.1727 16.282L11.8444 16.5424L11.5199 15.8518L11.5236 15.4971L12.0633 15.4141L12.5689 16.4857L13.9199 15.7008L14.3161 15.931V16.282L13.4444 16.7876L14.818 17.0027Z" fill="#1D2943"/>
<path d="M12.0266 16.5694L12.0256 16.9213L11.5215 15.8499L11.5225 15.498L12.0266 16.5694Z" fill="#111D33"/>
<path d="M14.3166 15.9297L14.3156 16.2816L12.9648 17.0666L12.9658 16.7147L14.3166 15.9297Z" fill="#1D2943"/>
<path d="M11.8815 16.8851L11.8805 17.237L10.0273 16.9495L10.0283 16.5977L11.8815 16.8851Z" fill="#111D33"/>
<path d="M14.8177 17.0039L14.8167 17.3558L14.6738 17.6708L14.6748 17.319L14.8177 17.0039Z" fill="#1D2943"/>
<path d="M14.6746 17.3198L14.6736 17.6717L12.8223 17.3831L12.8233 17.0312L14.6746 17.3198Z" fill="#111D33"/>
<path d="M12.2795 17.1152L12.2785 17.4671L10.9277 18.2521L10.9287 17.9002L12.2795 17.1152Z" fill="#1D2943"/>
<path d="M10.929 17.9001L10.928 18.252L10.5293 18.0218L10.5303 17.6699L10.929 17.9001Z" fill="#111D33"/>
<path d="M13.3257 18.1035L13.3247 18.4554L12.7812 18.5392L12.7822 18.1873L13.3257 18.1035Z" fill="#1D2943"/>
<path d="M12.7826 18.1877L12.7816 18.5396L12.2793 17.4671L12.2803 17.1152L12.7826 18.1877Z" fill="#111D33"/>
<path d="M14.3183 15.9307L12.9675 16.7157L14.8188 17.0042L14.6759 17.3192L12.8246 17.0307L13.3269 18.1032L12.7835 18.187L12.2811 17.1145L10.9303 17.8995L10.5316 17.6693L11.8824 16.8843L10.0293 16.5969L10.174 16.2829L12.0272 16.5703L11.523 15.4989L12.0646 15.4141L12.5688 16.4855L13.9196 15.7005L14.3183 15.9307Z" fill="#4C5C75"/>
<path d="M13.0022 16.3908V16.821C13.0022 16.9078 12.9456 16.9946 12.8287 17.0588C12.6022 17.1908 12.24 17.1908 12.0136 17.0588C11.9004 16.9946 11.8438 16.9078 11.8438 16.8248V16.3946C11.8438 16.3116 11.9004 16.2248 12.0136 16.1606C12.0249 16.1531 12.0362 16.1493 12.0475 16.1418L12.0551 10.8965C12.0551 10.9493 12.0928 11.0059 12.1645 11.0474C12.3117 11.1342 12.5456 11.1342 12.689 11.0474C12.7607 11.0059 12.7985 10.9531 12.7985 10.8965L12.7909 16.138C12.806 16.1455 12.8211 16.1531 12.8362 16.1606C12.9456 16.2248 13.0022 16.304 13.0022 16.3908Z" fill="#B0B8CF"/>
<path d="M12.0135 16.1592C11.7871 16.2899 11.7872 16.5017 12.0135 16.6332C12.2385 16.7639 12.6028 16.7639 12.8292 16.6332C13.057 16.5017 13.0595 16.2899 12.8346 16.1592C12.6083 16.0277 12.2412 16.0277 12.0135 16.1592Z" fill="#E3E7F0"/>
<path d="M12.798 10.8983L12.7913 16.3921C12.7911 16.4469 12.755 16.5016 12.683 16.5434C12.5378 16.6278 12.3027 16.628 12.157 16.5439C12.0834 16.5014 12.0467 16.4458 12.0469 16.3903L12.0536 10.8965C12.0535 10.952 12.0902 11.0077 12.1637 11.0501C12.3094 11.1342 12.5446 11.134 12.6897 11.0497C12.7618 11.0078 12.7978 10.9531 12.798 10.8983Z" fill="#B0B8CF"/>
<path d="M11.8438 16.3978L11.8438 16.8255C11.844 16.911 11.9006 16.9967 12.0135 17.0623C12.2385 17.193 12.6028 17.193 12.8292 17.0623C12.9443 16.9958 13.0019 16.9088 13.0017 16.8222L13.0017 16.3945C13.0019 16.4812 12.9443 16.5682 12.8292 16.6346C12.6028 16.7654 12.2385 16.7654 12.0135 16.6346C11.9006 16.569 11.844 16.4834 11.8438 16.3978Z" fill="#C9CEE2"/>
<path d="M14.2883 13.604V14.0304C14.2846 14.5247 13.9336 14.7285 13.4997 14.4757L12.9902 14.1851L12.994 13.8266L13.8318 13.3398L13.9752 13.4229L14.2883 13.604Z" fill="#111D33"/>
<path d="M14.6778 13.6601L14.2891 13.8865V13.6035L14.3381 13.6299C14.4702 13.7054 14.591 13.713 14.6778 13.6601Z" fill="#111D33"/>
<path d="M14.2973 6.55027L14.2898 13.6031L13.9766 13.422L13.9841 6.36914L14.2973 6.55027Z" fill="#111D33"/>
<path d="M14.676 13.6611L13.8358 14.1509C13.7507 14.1985 13.6317 14.1917 13.499 14.1169L12.9922 13.8243L13.8324 13.3379L14.3392 13.6304C14.4685 13.7053 14.591 13.7121 14.676 13.6611Z" fill="#4C5C75"/>
<path d="M14.2951 6.54971L14.287 14.0291C14.2856 14.5257 13.9326 14.7269 13.4982 14.4761L12.9922 14.1839L12.9932 13.8245L13.4992 14.1167C13.7599 14.2672 13.9734 14.148 13.9742 13.8485L13.9824 6.36914L14.2951 6.54971Z" fill="#111D33"/>
<path d="M16.7339 11.0105C16.7339 10.9237 16.6772 10.8331 16.5603 10.7689L13.432 8.9501C13.2055 8.81801 12.8282 8.81423 12.5942 8.9501L8.28479 11.4407C8.16403 11.5086 8.10742 11.5991 8.10742 11.6859L8.1112 12.6935C8.1112 12.7803 8.16781 12.8633 8.28479 12.9312L11.4131 14.7501C11.6433 14.8859 12.0169 14.8859 12.2508 14.7501L16.5603 12.2595C16.6772 12.1916 16.7376 12.1048 16.7376 12.0142L16.7339 11.0105ZM8.11875 11.7501C8.13384 11.7916 8.16403 11.8331 8.20554 11.8708C8.16026 11.8331 8.13009 11.7916 8.11875 11.7501Z" fill="#497BFE"/>
<path d="M16.7372 12.0167C16.7372 12.1062 16.6785 12.1927 16.5611 12.2607L12.2493 14.7502C12.0177 14.8861 11.644 14.8861 11.4123 14.7502L8.28348 12.934C8.1692 12.8661 8.11051 12.7796 8.11051 12.6931L8.10742 11.6862C8.10742 11.7727 8.16611 11.8592 8.28039 11.9271L11.4092 13.7432C11.6409 13.8791 12.0146 13.8791 12.2462 13.7432L16.558 11.2538C16.6754 11.1858 16.7341 11.0993 16.7341 11.0098L16.7372 12.0167Z" fill="#497BFE"/>
<path d="M8.28396 11.4399C8.05126 11.5743 8.05201 11.7918 8.28123 11.925L11.4101 13.7432C11.6413 13.8776 12.0147 13.8776 12.2474 13.7432L16.5602 11.2533C16.7929 11.1189 16.7941 10.9026 16.563 10.7682L13.4341 8.94995C13.2049 8.81674 12.8295 8.81559 12.5968 8.94994L8.28396 11.4399Z" fill="#5094FF"/>
<path d="M11.3718 12.4871L8.83596 11.0192C8.7869 10.9928 8.74537 10.989 8.7152 11.0079L8.5001 11.1324C8.46991 11.1513 8.45104 11.189 8.45104 11.2418L8.44727 12.6871C8.44727 12.7966 8.52274 12.9249 8.6133 12.9777L11.1492 14.4456C11.1982 14.4758 11.2397 14.4758 11.2699 14.4569L11.485 14.3324C11.5152 14.3135 11.5341 14.2758 11.5341 14.223L11.5378 12.7777C11.5378 12.672 11.4624 12.54 11.3718 12.4871ZM8.6133 12.8645C8.60575 12.8569 8.59822 12.8494 8.59066 12.8419C8.59822 12.8494 8.60575 12.8569 8.6133 12.8607V12.8645ZM11.2171 14.1173L8.83218 12.7362C8.79443 12.7173 8.76426 12.6645 8.76426 12.6192L8.76801 11.3475L11.1529 12.7286C11.1907 12.7513 11.2208 12.8041 11.2208 12.8456L11.2171 14.1173Z" fill="#DEDFFB"/>
<path d="M11.415 14.207L11.1988 14.3328C11.1864 14.3399 11.1705 14.3399 11.151 14.3293L8.61604 12.8613C8.57889 12.8401 8.54883 12.7871 8.54883 12.7464L8.5506 11.2991C8.55237 11.2779 8.55944 11.2637 8.57182 11.2566L8.78803 11.1309C8.77565 11.1379 8.76858 11.1521 8.76858 11.1733L8.76504 12.6188C8.76504 12.6613 8.7951 12.7143 8.83225 12.7355L11.3673 14.2035C11.3867 14.2141 11.4026 14.2141 11.415 14.207Z" fill="#F3F1FC"/>
<path d="M11.1542 12.6138C11.2465 12.6671 11.3212 12.7975 11.3209 12.9035L11.3185 14.3504C11.3182 14.4574 11.2431 14.5002 11.1508 14.447L8.61481 12.979C8.52254 12.9257 8.44696 12.7959 8.44727 12.6888L8.44958 11.2419C8.44988 11.1359 8.52596 11.0926 8.61822 11.1458L11.1542 12.6138ZM11.2171 14.2918L11.2195 12.8449C11.2196 12.8029 11.1904 12.7514 11.1539 12.7303L8.61789 11.2623C8.58135 11.2412 8.55111 11.2585 8.55099 11.3005L8.54867 12.7474C8.54855 12.7894 8.5786 12.8414 8.61514 12.8625L11.1511 14.3305C11.1877 14.3516 11.217 14.3338 11.2171 14.2918Z" fill="#DEDFFB"/>
<path d="M11.5358 12.7763L11.534 14.2236C11.534 14.2766 11.5145 14.3138 11.4845 14.3314L11.2683 14.4572C11.2983 14.4395 11.3178 14.4024 11.3178 14.3494L11.3196 12.902C11.3196 12.796 11.2453 12.6669 11.1533 12.6138L8.61654 11.1459C8.57056 11.1176 8.52811 11.1158 8.49805 11.1335L8.71425 11.0077C8.74432 10.99 8.78677 10.9918 8.83451 11.0183L11.3695 12.4863C11.4615 12.5393 11.5358 12.6702 11.5358 12.7763Z" fill="#E9E7FC"/>
<path d="M6.87053 17.418C6.8592 17.4859 6.8328 17.5576 6.79883 17.6293C6.8328 17.5576 6.85544 17.4859 6.87053 17.418Z" fill="#1D2943"/>
<path d="M6.29644 16.498C5.52664 16.0527 4.28136 16.0527 3.51909 16.498C3.1228 16.7292 2.93741 17.0318 2.95155 17.3328C2.95118 17.3237 2.94927 17.3147 2.94927 17.3056V17.9131C2.94549 18.2075 3.14173 18.5018 3.52664 18.7244C4.29644 19.1697 5.54172 19.1659 6.30777 18.7244C6.68513 18.5018 6.87759 18.215 6.87759 17.9244V17.3093C6.87759 17.015 6.68513 16.7207 6.29644 16.498ZM6.79833 17.6301C6.83231 17.5584 6.85495 17.4867 6.87003 17.4188C6.8587 17.4867 6.83231 17.5584 6.79833 17.6301Z" fill="#1D2943"/>
<path d="M6.87053 17.418C6.8592 17.4859 6.8328 17.5576 6.79883 17.6293C6.8328 17.5576 6.85544 17.4859 6.87053 17.418Z" fill="#1D2943"/>
<path d="M6.87673 17.3074L6.87674 17.9239C6.87591 18.2134 6.68576 18.5025 6.30616 18.7231C5.54149 19.1675 4.29649 19.1679 3.52682 18.7235C3.1397 18.5 2.94644 18.2065 2.94727 17.9134L2.94727 17.2969C2.94644 17.59 3.13969 17.8835 3.52682 18.107C4.29648 18.5514 5.54149 18.551 6.30615 18.1066C6.68576 17.886 6.87591 17.5969 6.87673 17.3074Z" fill="#1D2943"/>
<path d="M6.29709 16.4972C7.06676 16.9415 7.07009 17.6627 6.30615 18.1067C5.54149 18.551 4.29648 18.5515 3.52682 18.1071C2.75715 17.6627 2.75382 16.9416 3.51848 16.4972C4.28242 16.0532 5.52743 16.0528 6.29709 16.4972Z" fill="#4C5C75"/>
<path d="M4.00195 10.0178L4.51325 9.7207L5.73527 10.4262L5.22397 10.7234L4.00195 10.0178Z" fill="#A56C4E"/>
<path d="M5.73532 10.4271L5.71646 17.6271L5.20704 17.9252L3.98438 17.2195L4.00326 10.0195L5.2259 10.7252L5.73532 10.4271Z" fill="#B0B8CF"/>
<path d="M5.22549 10.7229L5.73679 10.4258L5.71638 17.6268L5.20508 17.9239L5.22549 10.7229Z" fill="#E3E7F0"/>
<path d="M5.22486 10.7231L5.20444 17.9241L3.98242 17.2186L4.00284 10.0176L5.22486 10.7231Z" fill="#B0B8CF"/>
<path d="M18.5529 6.28988V7.27481C18.5492 7.39179 18.4737 7.50877 18.3227 7.59555L7.49256 13.9239C7.18312 14.105 6.68123 14.105 6.37179 13.9239L1.67745 11.2182C1.52274 11.1276 1.44727 11.0069 1.44727 10.8899V9.90498C1.44727 9.788 1.52652 9.67102 1.67745 9.58046L12.5076 3.25215C12.8171 3.0748 13.319 3.0748 13.6284 3.25215L18.319 5.96158C18.4775 6.05215 18.5529 6.16915 18.5529 6.28988Z" fill="#BF7D5A"/>
<path d="M18.5539 6.28906L18.5514 7.27448C18.5502 7.39176 18.4741 7.50783 18.3205 7.5961L7.49077 13.9251C7.18245 14.1041 6.68068 14.1041 6.36994 13.9251L1.67867 11.2168C1.5227 11.1261 1.44531 11.0076 1.44531 10.8891L1.44773 9.90369C1.44773 10.0222 1.52511 10.1407 1.6823 10.2313L6.37357 12.9397C6.6831 13.1187 7.18487 13.1187 7.49319 12.9397L18.3241 6.61069C18.4765 6.52242 18.5539 6.40514 18.5539 6.28906Z" fill="#BF7D5A"/>
<path d="M18.3194 5.96199C18.6297 6.14116 18.6313 6.43176 18.323 6.61093L7.49264 12.9391C7.18432 13.1182 6.68264 13.1182 6.37231 12.9391L1.68109 10.2306C1.37076 10.0514 1.36912 9.76083 1.67743 9.58166L12.5078 3.25352C12.8161 3.07435 13.3178 3.07435 13.6281 3.25351L18.3194 5.96199Z" fill="#DBA660"/>
<path d="M12.4881 9.00786V9.2456C12.4881 9.27202 12.473 9.29844 12.4353 9.32108L9.35226 11.1022C9.28056 11.1437 9.16358 11.1437 9.09188 11.1022L7.86924 10.389C7.83149 10.3701 7.81641 10.3437 7.81641 10.3135V10.0758C7.81641 10.0494 7.83527 10.0192 7.86924 10.0003L10.9523 8.2192C11.024 8.17767 11.1409 8.18145 11.2089 8.2192L12.4353 8.93239C12.4692 8.95503 12.4881 8.98145 12.4881 9.00786Z" fill="#C9CEE2"/>
<path d="M12.4891 9.24632C12.4891 9.27359 12.4718 9.29996 12.4355 9.32087L9.35086 11.1018C9.27994 11.1427 9.16448 11.1436 9.09358 11.1018L7.86809 10.39C7.83264 10.37 7.81536 10.3427 7.81536 10.3154L7.81445 10.0769C7.81445 10.1042 7.83173 10.1315 7.86718 10.1515L9.09267 10.8633C9.16357 10.9051 9.27903 10.9042 9.34995 10.8633L12.4346 9.08236C12.4709 9.06145 12.4882 9.03508 12.4882 9.00781L12.4891 9.24632Z" fill="#C9CEE2"/>
<path d="M7.86825 10.001C7.79685 10.0422 7.79648 10.1092 7.8674 10.1505L9.09282 10.8626C9.16375 10.9038 9.27888 10.9035 9.35027 10.8623L12.4347 9.08146C12.5061 9.04024 12.5065 8.97389 12.4356 8.93267L11.2101 8.22054C11.1392 8.17932 11.0241 8.17898 10.9527 8.2202L7.86825 10.001Z" fill="white"/>
<path d="M9.07262 9.80536L9.23864 9.90347C9.24619 9.90725 9.25375 9.91481 9.25375 9.92234V9.96764C9.25375 9.97517 9.24997 9.98273 9.23864 9.9865L9.0462 10.0997C9.02732 10.111 9.00092 10.111 8.98203 10.0997L8.816 10.0016C8.80846 9.99781 8.80469 9.99028 8.80469 9.98273V9.93745C8.80469 9.93814 8.80648 9.93929 8.80674 9.94019C8.80393 9.93226 8.80365 9.92165 8.816 9.91858L9.00845 9.80536C9.02732 9.79405 9.05373 9.79405 9.07262 9.80536Z" fill="#9EA9C9"/>
<path d="M9.15571 10.196C9.14816 10.1923 9.14062 10.1847 9.14062 10.1809V10.1319C9.14062 10.1243 9.14816 10.1168 9.15571 10.113L9.34817 9.99981C9.36703 9.99225 9.39345 9.99225 9.41231 9.99981L9.57835 10.0979C9.58779 10.1042 9.58885 10.1115 9.58779 10.1199C9.588 10.1191 9.58968 10.1168 9.58968 10.1168V10.1281L9.59344 10.1658C9.59344 10.1696 9.58591 10.1772 9.57835 10.1809L9.38589 10.2942C9.36703 10.3055 9.34061 10.3055 9.32175 10.2942L9.15571 10.196Z" fill="#9EA9C9"/>
<path d="M9.1527 10.427L8.96024 10.5402C8.94138 10.5516 8.91496 10.5516 8.8961 10.5402L8.73006 10.4421C8.7225 10.4384 8.71875 10.4308 8.71875 10.427V10.378C8.71875 10.3704 8.7225 10.3667 8.73006 10.3591L8.92252 10.2459C8.94138 10.2383 8.97157 10.2383 8.98666 10.2459L9.1527 10.344C9.16403 10.3515 9.16781 10.3553 9.16781 10.3629V10.4119C9.16781 10.4157 9.16403 10.4232 9.1527 10.427Z" fill="#9EA9C9"/>
<path d="M10.1715 9.80478L10.0055 9.70669C9.99792 9.70291 9.99414 9.69535 9.99414 9.6878V9.63874C9.99414 9.63121 9.99792 9.62743 10.0055 9.62365L10.2017 9.51045C10.2168 9.49912 10.247 9.49912 10.2621 9.51045L10.4281 9.60857C10.4394 9.61235 10.4432 9.61988 10.4432 9.62743V9.67271C10.4432 9.68027 10.4394 9.6878 10.4281 9.69158L10.2357 9.80478C10.2206 9.81611 10.1904 9.81611 10.1715 9.80478Z" fill="#9EA9C9"/>
<path d="M10.0952 9.17847L10.2876 9.06905C10.3027 9.05771 10.3329 9.05771 10.348 9.06905L10.514 9.16339C10.5216 9.16714 10.5291 9.17469 10.5291 9.18225V9.23131C10.5291 9.23884 10.5254 9.24639 10.514 9.25017L10.3216 9.36337C10.3065 9.37093 10.2763 9.37093 10.2612 9.36337L10.0952 9.26526C10.0839 9.26148 10.0801 9.25395 10.0801 9.24639V9.19733C10.0801 9.1898 10.0839 9.18603 10.0952 9.17847Z" fill="#9EA9C9"/>
<path d="M10.357 8.72128C10.3495 8.71375 10.3457 8.70619 10.3457 8.70242V8.65336C10.3457 8.64583 10.3495 8.63827 10.357 8.63449L10.5532 8.52129C10.5683 8.51374 10.5985 8.51374 10.6136 8.52129L10.7834 8.61941C10.791 8.62319 10.7948 8.63072 10.7948 8.63827V8.68733C10.7948 8.69486 10.791 8.69864 10.7834 8.70619L10.5872 8.81562C10.5721 8.82695 10.5419 8.82695 10.5231 8.81562L10.357 8.72128Z" fill="#9EA9C9"/>
<path d="M8.81663 10.2306L8.62042 10.3438C8.60531 10.3552 8.57514 10.3552 8.56003 10.3438L8.39399 10.2457C8.38268 10.242 8.37891 10.2344 8.37891 10.2306V10.1816C8.37891 10.174 8.38268 10.1665 8.39399 10.1627L8.58645 10.0495C8.60156 10.0382 8.63173 10.0382 8.65059 10.0495L8.81663 10.1476C8.82419 10.1514 8.82796 10.1589 8.82796 10.1665V10.2118C8.82796 10.2193 8.82419 10.2269 8.81663 10.2306Z" fill="#9EA9C9"/>
<path d="M10.5973 9.55869L10.4313 9.46057C10.4237 9.4568 10.4199 9.44924 10.4199 9.44171V9.39265C10.4199 9.3944 10.4221 9.3953 10.4225 9.39701C10.4207 9.38844 10.4196 9.37959 10.4313 9.37379L10.6237 9.26434C10.6426 9.25303 10.669 9.25303 10.6879 9.26434L10.8539 9.36246C10.8614 9.36624 10.869 9.37379 10.869 9.37757V9.4266C10.869 9.43416 10.8652 9.44171 10.8539 9.44549L10.6614 9.55869C10.6426 9.56625 10.6162 9.56625 10.5973 9.55869Z" fill="#9EA9C9"/>
<path d="M11.203 9.58176C11.2032 9.58093 11.2049 9.5786 11.2049 9.5786V9.62766C11.2087 9.63144 11.2011 9.63897 11.1936 9.64275L11.0012 9.75597C10.9823 9.76728 10.9559 9.76728 10.937 9.75597L10.771 9.65786C10.7634 9.65408 10.7559 9.64653 10.7559 9.63897V9.59369C10.7559 9.58616 10.7596 9.5786 10.771 9.57483L10.9634 9.46162C10.9823 9.45029 11.0087 9.45029 11.0276 9.46162L11.1936 9.55974C11.2062 9.56603 11.2062 9.5746 11.203 9.58176Z" fill="#9EA9C9"/>
<path d="M8.47681 10.0353L8.28435 10.1485C8.26549 10.1561 8.2353 10.1561 8.22021 10.1485L8.05417 10.0504C8.04284 10.0466 8.03906 10.0391 8.03906 10.0316V9.9825C8.03906 9.97872 8.04662 9.97116 8.05417 9.96741L8.24663 9.85418C8.26171 9.84288 8.29191 9.84288 8.31077 9.85418L8.47681 9.9523C8.48434 9.95608 8.48812 9.96363 8.48812 9.96741V10.0164C8.48812 10.024 8.48434 10.0316 8.47681 10.0353Z" fill="#9EA9C9"/>
<path d="M9.74753 10.0489L9.58149 9.9508C9.57016 9.94703 9.56641 9.93949 9.56641 9.93194V9.88666C9.56641 9.8791 9.57016 9.87157 9.58149 9.8678L9.77395 9.75459C9.79281 9.74326 9.81923 9.74326 9.83809 9.75459L10.0041 9.85269C10.0117 9.86024 10.0155 9.86402 10.0155 9.87157V9.91685C10.0155 9.92439 10.0117 9.93194 10.0041 9.93572L9.81168 10.0489C9.79281 10.0603 9.76262 10.0603 9.74753 10.0489Z" fill="#9EA9C9"/>
<path d="M9.66938 9.5094C9.65807 9.50563 9.6543 9.49807 9.6543 9.49054V9.44148C9.6543 9.43393 9.66185 9.43015 9.66938 9.42262L9.86184 9.31317C9.8807 9.30186 9.90712 9.30186 9.92598 9.31317L10.092 9.41129C10.0996 9.41506 10.1034 9.41884 10.1034 9.42637V9.47543C10.1034 9.48299 10.0996 9.49054 10.092 9.49432L9.89957 9.60752C9.8807 9.61505 9.85053 9.61505 9.83542 9.60752L9.66938 9.5094Z" fill="#9EA9C9"/>
<path d="M10.9251 9.01195C10.9062 9.02328 10.8798 9.02328 10.861 9.01195L10.6949 8.91761C10.6874 8.91005 10.6836 8.9063 10.6836 8.89874V8.84968C10.6836 8.84213 10.6874 8.83835 10.6949 8.83082L10.8874 8.72137C10.9062 8.71006 10.9364 8.71006 10.9515 8.72137L11.1176 8.81571C11.1251 8.81949 11.1327 8.82704 11.1327 8.8346V8.88363C11.1327 8.89119 11.1289 8.89497 11.1176 8.90252L10.9251 9.01195Z" fill="#9EA9C9"/>
<path d="M9.49244 10.5413C9.50375 10.5488 9.50752 10.5526 9.50752 10.5601V10.6092C9.50752 10.6167 9.50375 10.6205 9.49244 10.6281L9.29998 10.7375C9.28112 10.7488 9.2547 10.7488 9.23584 10.7375L9.0698 10.6432C9.06224 10.6356 9.05846 10.6318 9.05846 10.6243L9.05469 10.5752C9.05469 10.5677 9.05846 10.5639 9.0698 10.5564L9.26225 10.4431C9.28112 10.4356 9.30753 10.4356 9.3264 10.4431L9.49244 10.5413Z" fill="#9EA9C9"/>
<path d="M9.75534 9.06801C9.74401 9.06046 9.74023 9.05668 9.74023 9.04913V9.00009C9.74023 8.99254 9.74401 8.98498 9.75534 8.98121L9.94778 8.87178C9.96289 8.86045 9.99306 8.86045 10.0119 8.87178L10.178 8.96612C10.1855 8.9699 10.1893 8.97743 10.1893 8.98498V9.03404C10.1893 9.0416 10.1855 9.04913 10.178 9.0529L9.98553 9.16235C9.96666 9.17366 9.93647 9.17366 9.92138 9.16235L9.75534 9.06801Z" fill="#9EA9C9"/>
<path d="M10.7673 9.80446C10.7786 9.80824 10.7824 9.8158 10.7824 9.82335V9.87241C10.7824 9.87616 10.7786 9.88372 10.7673 9.89127L9.72576 10.4913C9.7069 10.5026 9.6767 10.5026 9.66162 10.4913L9.49558 10.3969C9.48425 10.3894 9.48047 10.3818 9.48047 10.3781V10.329C9.48047 10.3215 9.48802 10.3139 9.49558 10.3101L10.5371 9.70637C10.556 9.69504 10.5861 9.69882 10.6012 9.70637L10.7673 9.80446Z" fill="#9EA9C9"/>
<path d="M8.90391 9.56018C8.89636 9.55641 8.89258 9.54885 8.89258 9.54132V9.49226C8.89258 9.48471 8.89636 9.47715 8.90391 9.4734L9.09637 9.36395C9.11523 9.35264 9.1454 9.35264 9.16051 9.36395L9.32655 9.45829C9.33786 9.46207 9.34164 9.46962 9.34164 9.47715V9.52621C9.34164 9.53377 9.33786 9.54132 9.32655 9.54508L9.13409 9.6583C9.11523 9.66583 9.08881 9.66583 9.06995 9.6583L8.90391 9.56018Z" fill="#9EA9C9"/>
<path d="M9.5002 9.55928L9.66624 9.6574C9.6755 9.66048 9.67633 9.66894 9.6755 9.67591C9.67575 9.67456 9.67757 9.67386 9.67757 9.67248V9.68381L9.68135 9.72154C9.68135 9.7291 9.6738 9.73663 9.66624 9.7404L9.47381 9.85361C9.45492 9.86494 9.4285 9.86116 9.40964 9.85361L9.2436 9.75551C9.23607 9.75174 9.22852 9.74418 9.22852 9.73663V9.68757C9.22852 9.68381 9.23229 9.67626 9.2436 9.67248L9.43606 9.55928C9.45492 9.54795 9.48134 9.54795 9.5002 9.55928Z" fill="#9EA9C9"/>
<path d="M9.32956 9.31408C9.32201 9.31031 9.31445 9.30278 9.31445 9.29522V9.24616C9.31445 9.23861 9.32201 9.23485 9.32956 9.2273L9.522 9.11787C9.54088 9.10654 9.5673 9.10654 9.58616 9.11787L9.7522 9.21221C9.76162 9.2185 9.7627 9.22573 9.76162 9.23421C9.76183 9.23297 9.76351 9.23232 9.76351 9.23108V9.24239L9.76729 9.28014C9.76729 9.28767 9.75973 9.29522 9.7522 9.299L9.55975 9.4122C9.54088 9.41976 9.51446 9.41976 9.4956 9.4122L9.32956 9.31408Z" fill="#9EA9C9"/>
<path d="M8.47618 9.80432C8.46862 9.80056 8.46484 9.79301 8.46484 9.78546V9.7364C8.46484 9.73262 8.46862 9.72509 8.47618 9.71753L8.66863 9.60811C8.6875 9.59678 8.71769 9.59678 8.73278 9.60811L8.90259 9.70623C8.91012 9.70998 8.9139 9.71753 8.9139 9.72131V9.77037C8.9139 9.77792 8.91012 9.78546 8.90259 9.78923L8.70636 9.90244C8.69127 9.90999 8.66108 9.90999 8.64599 9.90244L8.47618 9.80432Z" fill="#9EA9C9"/>
<path d="M11.4573 9.09976L11.2648 9.21299C11.2459 9.22052 11.2195 9.22052 11.2007 9.21299L11.0346 9.11487C11.0271 9.11109 11.0195 9.10354 11.0195 9.09601V9.04695C11.0195 9.0394 11.0271 9.03184 11.0346 9.02806L11.2271 8.91864C11.2459 8.90733 11.2724 8.90733 11.2912 8.91864L11.4573 9.01298C11.4667 9.01927 11.4678 9.02652 11.4667 9.035C11.4669 9.03375 11.4686 9.03311 11.4686 9.03184V9.04317L11.4724 9.0809C11.4724 9.08845 11.4648 9.09601 11.4573 9.09976Z" fill="#9EA9C9"/>
<path d="M11.7971 9.21208C11.8047 9.21584 11.8084 9.22339 11.8084 9.22717V9.27623C11.8084 9.28378 11.8047 9.29132 11.7971 9.29509L11.6046 9.4083C11.5858 9.41585 11.5556 9.41585 11.5405 9.4083L11.3745 9.31018C11.3631 9.30642 11.3594 9.29887 11.3594 9.29132V9.24226C11.3594 9.23473 11.3669 9.22717 11.3745 9.22339L11.5669 9.11397C11.582 9.10264 11.6122 9.10264 11.6311 9.11397L11.7971 9.21208Z" fill="#9EA9C9"/>
<path d="M10.7827 8.4762C10.7714 8.46865 10.7676 8.46487 10.7676 8.45734V8.40828C10.7676 8.40072 10.7714 8.39695 10.7827 8.38939L10.9751 8.27997C10.9902 8.26866 11.0204 8.26866 11.0393 8.27997L11.2053 8.37431C11.2129 8.38186 11.2166 8.38564 11.2166 8.39317V8.44223C11.2166 8.44978 11.2129 8.45734 11.2053 8.46109L11.0128 8.57054C10.994 8.58185 10.9638 8.58185 10.9487 8.57054L10.7827 8.4762Z" fill="#9EA9C9"/>
<path d="M11.1188 8.58472L11.315 8.4753C11.3301 8.46396 11.3603 8.46396 11.3754 8.4753L11.5414 8.56964C11.5489 8.57717 11.5565 8.58094 11.5565 8.5885V8.63756C11.5565 8.64511 11.5527 8.65264 11.5414 8.65642L11.3489 8.76962C11.3339 8.77718 11.3037 8.77718 11.2848 8.76962L11.1188 8.67151C11.1112 8.66775 11.1074 8.6602 11.1074 8.65264V8.60358C11.1074 8.59605 11.1112 8.59228 11.1188 8.58472Z" fill="#9EA9C9"/>
<path d="M11.4586 8.78199L11.651 8.67254C11.6699 8.66124 11.6963 8.66124 11.7152 8.67254L11.8812 8.77066C11.8888 8.77444 11.8925 8.77822 11.8963 8.78577V8.83483C11.8963 8.84236 11.8925 8.84991 11.8812 8.85369L11.6888 8.96689C11.6699 8.97445 11.6435 8.97445 11.6246 8.96689L11.4586 8.86878C11.451 8.865 11.4473 8.85747 11.4473 8.84991V8.80086C11.4473 8.80261 11.4495 8.8035 11.4499 8.80521C11.4481 8.79666 11.447 8.78777 11.4586 8.78199Z" fill="#9EA9C9"/>
<path d="M12.2362 8.98106V9.03012C12.2362 9.03767 12.2324 9.04523 12.2249 9.04898L12.0286 9.16221C12.0135 9.16974 11.9833 9.16974 11.9645 9.16221L11.7984 9.06409C11.7909 9.06031 11.7871 9.05276 11.7871 9.04523V8.99617C11.7871 8.98861 11.7909 8.98484 11.7984 8.97728L11.9947 8.86786C12.0098 8.85655 12.04 8.85655 12.055 8.86786L12.2249 8.9622C12.2324 8.96975 12.2362 8.97728 12.2362 8.98106Z" fill="#9EA9C9"/>
<path d="M9.75357 8.98208C9.73558 8.99247 9.73607 9.00889 9.75337 9.01894L9.92002 9.11579C9.93732 9.12585 9.96567 9.12618 9.98366 9.11579L10.1764 9.00453C10.1938 8.99448 10.1939 8.97773 10.1766 8.96767L10.0099 8.87082C9.99262 8.86077 9.96369 8.86077 9.94628 8.87082L9.75357 8.98208Z" fill="#E3E7F0"/>
<path d="M9.32779 9.2283C9.3098 9.23869 9.31028 9.25511 9.32758 9.26516L9.49424 9.36201C9.51154 9.37207 9.53989 9.3724 9.55788 9.36201L9.75059 9.25075C9.76858 9.24037 9.76809 9.22395 9.75079 9.21389L9.58414 9.11704C9.56684 9.10699 9.53849 9.10665 9.5205 9.11704L9.32779 9.2283Z" fill="#E3E7F0"/>
<path d="M8.90396 9.47439C8.88597 9.48478 8.88646 9.5012 8.90376 9.51126L9.07041 9.60811C9.08771 9.61816 9.11606 9.6185 9.13405 9.60811L9.32676 9.49685C9.34475 9.48646 9.34427 9.47004 9.32697 9.45999L9.16031 9.36314C9.14301 9.35308 9.11466 9.35275 9.09667 9.36313L8.90396 9.47439Z" fill="#E3E7F0"/>
<path d="M8.47818 9.72049C8.46019 9.73088 8.46068 9.7473 8.47798 9.75735L8.64463 9.8542C8.66193 9.86425 8.69028 9.86459 8.70827 9.8542L8.90098 9.74294C8.91897 9.73255 8.91848 9.71613 8.90118 9.70608L8.73453 9.60923C8.71723 9.59918 8.68888 9.59884 8.67089 9.60923L8.47818 9.72049Z" fill="#E3E7F0"/>
<path d="M8.05218 9.96484C8.03477 9.97489 8.03468 9.99165 8.05198 10.0017L8.21863 10.0985C8.23593 10.1086 8.26486 10.1086 8.28227 10.0986L8.47556 9.98696C8.49297 9.9769 8.49307 9.96015 8.47577 9.95009L8.30911 9.85324C8.29181 9.84319 8.26288 9.84319 8.24547 9.85324L8.05218 9.96484Z" fill="#E3E7F0"/>
<path d="M10.0936 9.17947C10.0756 9.18986 10.0755 9.20595 10.0934 9.21633L10.2595 9.31285C10.2768 9.3229 10.3052 9.32324 10.3231 9.31285L10.5159 9.20159C10.5333 9.19154 10.5334 9.17478 10.5161 9.16473L10.35 9.06821C10.3321 9.05782 10.3038 9.05816 10.2863 9.06821L10.0936 9.17947Z" fill="#E3E7F0"/>
<path d="M9.66785 9.42569C9.64986 9.43608 9.64977 9.45216 9.66764 9.46255L9.83372 9.55907C9.85102 9.56912 9.87937 9.56946 9.89736 9.55907L10.0901 9.44781C10.1081 9.43742 10.1076 9.421 10.0903 9.41095L9.9242 9.31443C9.90632 9.30404 9.87855 9.30404 9.86056 9.31443L9.66785 9.42569Z" fill="#E3E7F0"/>
<path d="M9.24207 9.67178C9.22408 9.68217 9.22399 9.69826 9.24186 9.70865L9.40794 9.80516C9.42524 9.81522 9.45359 9.81555 9.47158 9.80516L9.66429 9.6939C9.68228 9.68352 9.6818 9.66709 9.6645 9.65704L9.49842 9.56053C9.48054 9.55014 9.45277 9.55014 9.43478 9.56053L9.24207 9.67178Z" fill="#E3E7F0"/>
<path d="M8.81629 9.91592C8.7983 9.92631 8.79821 9.9424 8.81608 9.95279L8.98216 10.0493C8.99946 10.0594 9.02781 10.0597 9.0458 10.0493L9.23851 9.93804C9.2565 9.92766 9.25601 9.91123 9.23871 9.90118L9.07263 9.80467C9.05476 9.79428 9.02699 9.79428 9.00899 9.80467L8.81629 9.91592Z" fill="#E3E7F0"/>
<path d="M8.39029 10.1622C8.37288 10.1723 8.37221 10.1887 8.39008 10.1991L8.55616 10.2956C8.57346 10.3057 8.60239 10.3057 8.6198 10.2956L8.81309 10.184C8.8305 10.174 8.8306 10.1572 8.8133 10.1471L8.64722 10.0506C8.62934 10.0402 8.60099 10.0406 8.58358 10.0506L8.39029 10.1622Z" fill="#E3E7F0"/>
<path d="M10.4315 9.37674C10.4135 9.38713 10.4134 9.40321 10.4313 9.4136L10.5974 9.51012C10.6153 9.5205 10.643 9.5205 10.661 9.51012L10.8537 9.39886C10.8712 9.3888 10.8718 9.37238 10.8539 9.36199L10.6879 9.26548C10.67 9.25509 10.6416 9.25543 10.6242 9.26548L10.4315 9.37674Z" fill="#E3E7F0"/>
<path d="M10.0057 9.62296C9.98775 9.63334 9.98766 9.64943 10.0055 9.65982L10.1716 9.75633C10.1895 9.76672 10.2173 9.76672 10.2353 9.75633L10.428 9.64507C10.446 9.63469 10.446 9.6186 10.4282 9.60821L10.2621 9.5117C10.2442 9.50131 10.2164 9.50131 10.1984 9.5117L10.0057 9.62296Z" fill="#E3E7F0"/>
<path d="M9.57996 9.8671C9.56197 9.87748 9.56188 9.89357 9.57975 9.90396L9.74583 10.0005C9.76371 10.0109 9.79148 10.0109 9.80947 10.0005L10.0022 9.88922C10.0202 9.87883 10.0203 9.86274 10.0024 9.85235L9.83631 9.75584C9.81843 9.74545 9.79066 9.74545 9.77267 9.75584L9.57996 9.8671Z" fill="#E3E7F0"/>
<path d="M9.15613 10.1132C9.13814 10.1236 9.13805 10.1397 9.15593 10.1501L9.32201 10.2466C9.33988 10.257 9.36765 10.257 9.38565 10.2466L9.57835 10.1353C9.59634 10.1249 9.59644 10.1088 9.57856 10.0984L9.41248 10.0019C9.3946 9.99154 9.36683 9.99154 9.34884 10.0019L9.15613 10.1132Z" fill="#E3E7F0"/>
<path d="M8.73014 10.3595C8.71272 10.3695 8.71205 10.386 8.72993 10.3964L8.89601 10.4929C8.91389 10.5033 8.94224 10.5029 8.95965 10.4929L9.15293 10.3813C9.17035 10.3712 9.17102 10.3548 9.15314 10.3444L8.98706 10.2479C8.96919 10.2375 8.94084 10.2378 8.92342 10.2479L8.73014 10.3595Z" fill="#E3E7F0"/>
<path d="M10.7692 9.57388C10.7512 9.58427 10.7517 9.60069 10.769 9.61074L10.9356 9.70759C10.9529 9.71764 10.9813 9.71798 10.9993 9.70759L11.192 9.59633C11.2094 9.58628 11.2095 9.56952 11.1922 9.55947L11.0255 9.46262C11.0082 9.45257 10.9793 9.45256 10.9619 9.46262L10.7692 9.57388Z" fill="#E3E7F0"/>
<path d="M9.49381 10.3094C9.47581 10.3198 9.4763 10.3362 9.4936 10.3463L9.66026 10.4431C9.67756 10.4532 9.7059 10.4535 9.7239 10.4431L10.7675 9.8406C10.7855 9.83021 10.785 9.81379 10.7677 9.80374L10.6011 9.70688C10.5838 9.69683 10.5554 9.6965 10.5374 9.70688L9.49381 10.3094Z" fill="#E3E7F0"/>
<path d="M9.06781 10.5566C9.0504 10.5667 9.0503 10.5834 9.0676 10.5935L9.23426 10.6903C9.25156 10.7004 9.28049 10.7004 9.2979 10.6903L9.49118 10.5788C9.5086 10.5687 9.50869 10.5519 9.49139 10.5419L9.32473 10.445C9.30744 10.435 9.27851 10.435 9.26109 10.445L9.06781 10.5566Z" fill="#E3E7F0"/>
<path d="M10.7809 8.39041C10.7629 8.4008 10.7634 8.41722 10.7807 8.42727L10.9474 8.52412C10.9647 8.53418 10.993 8.53451 11.011 8.52412L11.2037 8.41286C11.2217 8.40248 11.2212 8.38605 11.2039 8.376L11.0373 8.27915C11.02 8.2691 10.9916 8.26876 10.9736 8.27915L10.7809 8.39041Z" fill="#E3E7F0"/>
<path d="M10.3569 8.63476C10.3395 8.64481 10.3394 8.66157 10.3567 8.67162L10.5233 8.76847C10.5406 8.77852 10.5695 8.77852 10.587 8.76847L10.7802 8.65688C10.7977 8.64682 10.7978 8.63007 10.7805 8.62002L10.6138 8.52317C10.5965 8.51311 10.5676 8.51311 10.5502 8.52316L10.3569 8.63476Z" fill="#E3E7F0"/>
<path d="M11.119 8.5878C11.101 8.59819 11.1009 8.61427 11.1188 8.62466L11.2849 8.72118C11.3022 8.73123 11.3305 8.73157 11.3485 8.72118L11.5412 8.60992C11.5592 8.59953 11.5587 8.58311 11.5414 8.57306L11.3754 8.47654C11.3575 8.46615 11.3297 8.46615 11.3117 8.47654L11.119 8.5878Z" fill="#E3E7F0"/>
<path d="M10.695 8.83215C10.6776 8.8422 10.6769 8.85862 10.6948 8.86901L10.8609 8.96553C10.8782 8.97558 10.9071 8.97558 10.9245 8.96553L11.1178 8.85393C11.1352 8.84388 11.1353 8.82713 11.118 8.81707L10.9519 8.72056C10.934 8.71017 10.9057 8.7105 10.8883 8.72056L10.695 8.83215Z" fill="#E3E7F0"/>
<path d="M11.4569 8.78506C11.4389 8.79545 11.4388 8.81154 11.4567 8.82193L11.6228 8.91844C11.6407 8.92883 11.6684 8.92883 11.6864 8.91844L11.8791 8.80718C11.8971 8.7968 11.8972 8.78071 11.8793 8.77032L11.7133 8.67381C11.6954 8.66342 11.6676 8.66342 11.6496 8.67381L11.4569 8.78506Z" fill="#E3E7F0"/>
<path d="M11.0348 9.02942C11.0174 9.03947 11.0167 9.05589 11.0346 9.06628L11.2007 9.16279C11.2186 9.17318 11.2469 9.17285 11.2643 9.16279L11.4576 9.0512C11.475 9.04115 11.4757 9.02473 11.4578 9.01434L11.2918 8.91782C11.2739 8.90743 11.2455 8.90777 11.2281 8.91782L11.0348 9.02942Z" fill="#E3E7F0"/>
<path d="M11.7983 8.98046C11.7809 8.99052 11.7808 9.00727 11.7981 9.01732L11.9647 9.11417C11.982 9.12423 12.011 9.12423 12.0284 9.11418L12.2217 9.00258C12.2391 8.99253 12.2392 8.97577 12.2219 8.96572L12.0552 8.86887C12.0379 8.85881 12.009 8.85881 11.9916 8.86887L11.7983 8.98046Z" fill="#E3E7F0"/>
<path d="M9.75362 9.06786L9.92028 9.1647C9.93758 9.17476 9.96593 9.17509 9.98391 9.1647L10.1766 9.05345C10.1854 9.04839 10.1898 9.04163 10.1897 9.03489L10.1895 8.98633C10.1895 8.99308 10.1851 8.99983 10.1764 9.00489L9.98366 9.11615C9.96567 9.12653 9.93732 9.1262 9.92003 9.11615L9.75337 9.0193C9.7447 9.01426 9.74026 9.00763 9.74023 9.00095L9.74049 9.04951C9.74051 9.05618 9.74496 9.06282 9.75362 9.06786Z" fill="#9EA9C9"/>
<path d="M9.32784 9.31391L9.49449 9.41076C9.51179 9.42081 9.54014 9.42115 9.55813 9.41076L9.75084 9.2995C9.75982 9.29432 9.7642 9.28763 9.76418 9.28098L9.76393 9.23242C9.76394 9.23907 9.75956 9.24576 9.75059 9.25094L9.55788 9.3622C9.53989 9.37259 9.51154 9.37226 9.49424 9.3622L9.32759 9.26535C9.31892 9.26032 9.31447 9.25368 9.31445 9.24701L9.31471 9.29557C9.31472 9.30224 9.31917 9.30887 9.32784 9.31391Z" fill="#9EA9C9"/>
<path d="M8.90401 9.56L9.07066 9.65685C9.08796 9.6669 9.11631 9.66724 9.13431 9.65685L9.32701 9.54559C9.33599 9.54041 9.34036 9.53372 9.34035 9.52707L9.3401 9.47852C9.34012 9.48516 9.33574 9.49185 9.32676 9.49703L9.13405 9.60829C9.11606 9.61868 9.08771 9.61835 9.07041 9.60829L8.90375 9.51144C8.89509 9.50641 8.89064 9.49977 8.89062 9.4931L8.89087 9.54166C8.8909 9.54833 8.89534 9.55496 8.90401 9.56Z" fill="#9EA9C9"/>
<path d="M8.47823 9.80609L8.64489 9.90294C8.66219 9.913 8.69053 9.91333 8.70852 9.90294L8.90123 9.79168C8.91021 9.7865 8.91459 9.77981 8.91457 9.77317L8.91432 9.72461C8.91433 9.73126 8.90996 9.73794 8.90098 9.74313L8.70827 9.85439C8.69028 9.86478 8.66193 9.86444 8.64464 9.85439L8.47798 9.75754C8.46931 9.7525 8.46487 9.74587 8.46484 9.7392L8.4651 9.78775C8.46512 9.79442 8.46957 9.80106 8.47823 9.80609Z" fill="#9EA9C9"/>
<path d="M8.48894 10.0173L8.48868 9.96875C8.4887 9.9755 8.48432 9.98225 8.47556 9.98731L8.28227 10.0989C8.26486 10.109 8.23593 10.109 8.21863 10.0989L8.05198 10.0021C8.04338 9.99706 8.03908 9.99041 8.03906 9.98375L8.03932 10.0323C8.03933 10.039 8.04363 10.0456 8.05223 10.0506L8.21889 10.1475C8.23618 10.1575 8.26511 10.1575 8.28253 10.1475L8.47581 10.0359C8.48457 10.0308 8.48895 10.024 8.48894 10.0173Z" fill="#9EA9C9"/>
<path d="M10.0801 9.19859L10.0803 9.24715C10.0804 9.25373 10.0848 9.26029 10.0937 9.26545L10.2598 9.36197C10.2771 9.37202 10.3054 9.37236 10.3234 9.36197L10.5161 9.25071C10.5249 9.24565 10.5292 9.23889 10.5292 9.23215L10.529 9.18359C10.529 9.19034 10.5246 9.19709 10.5159 9.20215L10.3231 9.31341C10.3052 9.3238 10.2768 9.32347 10.2595 9.31341L10.0934 9.2169C10.0845 9.21174 10.0801 9.20517 10.0801 9.19859Z" fill="#9EA9C9"/>
<path d="M9.6679 9.5115L9.83397 9.60802C9.85127 9.61807 9.87962 9.61841 9.89762 9.60802L10.0903 9.49676C10.0993 9.49158 10.1037 9.48489 10.1037 9.47824L10.1034 9.42969C10.1034 9.43633 10.099 9.44302 10.0901 9.4482L9.89736 9.55946C9.87937 9.56986 9.85102 9.56952 9.83372 9.55946L9.66764 9.46295C9.65876 9.45779 9.65431 9.45122 9.6543 9.44464L9.65455 9.4932C9.65457 9.49977 9.65901 9.50634 9.6679 9.5115Z" fill="#9EA9C9"/>
<path d="M9.40795 9.80556L9.24187 9.70905C9.23298 9.70388 9.22854 9.69732 9.22852 9.69074L9.22877 9.73929C9.22879 9.74587 9.23324 9.75244 9.24212 9.7576L9.4082 9.85411C9.4255 9.86417 9.45385 9.8645 9.47184 9.85411L9.66454 9.74286C9.67352 9.73767 9.6779 9.73099 9.67788 9.72434L9.67763 9.67578C9.67765 9.68243 9.67327 9.68912 9.66429 9.6943L9.47159 9.80556C9.45359 9.81595 9.42525 9.81561 9.40795 9.80556Z" fill="#9EA9C9"/>
<path d="M8.98216 10.0497L8.81608 9.95319C8.8072 9.94802 8.80275 9.94146 8.80273 9.93488L8.80299 9.98343C8.80301 9.99001 8.80745 9.99658 8.81633 10.0017L8.98241 10.0983C8.99972 10.1083 9.02806 10.1086 9.04605 10.0983L9.23876 9.987C9.24774 9.98181 9.25212 9.97513 9.2521 9.96848L9.25185 9.91992C9.25186 9.92657 9.24749 9.93326 9.23851 9.93844L9.0458 10.0497C9.02781 10.0601 8.99946 10.0598 8.98216 10.0497Z" fill="#9EA9C9"/>
<path d="M8.82646 10.2146L8.82621 10.166C8.82623 10.1728 8.82185 10.1795 8.81309 10.1846L8.6198 10.2962C8.60239 10.3062 8.57346 10.3062 8.55616 10.2962L8.39008 10.1997C8.38128 10.1945 8.37697 10.188 8.37695 10.1814L8.3772 10.2299C8.37722 10.2365 8.38153 10.2431 8.39034 10.2482L8.55641 10.3447C8.57371 10.3548 8.60264 10.3548 8.62006 10.3447L8.81334 10.2331C8.8221 10.2281 8.82648 10.2213 8.82646 10.2146Z" fill="#9EA9C9"/>
<path d="M10.6613 9.55927L10.854 9.44801C10.8628 9.44291 10.8674 9.43618 10.8673 9.42942L10.8671 9.38086C10.8671 9.38762 10.8626 9.39435 10.8537 9.39945L10.661 9.51071C10.643 9.5211 10.6153 9.5211 10.5974 9.51071L10.4313 9.4142C10.4224 9.40904 10.418 9.40247 10.418 9.39589L10.4182 9.44445C10.4182 9.45102 10.4227 9.45759 10.4316 9.46275L10.5976 9.55927C10.6155 9.56966 10.6433 9.56966 10.6613 9.55927Z" fill="#9EA9C9"/>
<path d="M10.2355 9.80532L10.4282 9.69406C10.4373 9.68883 10.4418 9.68216 10.4418 9.6755L10.4415 9.62695C10.4415 9.63361 10.437 9.64028 10.428 9.6455L10.2353 9.75676C10.2173 9.76715 10.1895 9.76715 10.1716 9.75676L10.0055 9.66025C9.99665 9.65509 9.9922 9.64852 9.99219 9.64194L9.99244 9.6905C9.99245 9.69707 9.9969 9.70364 10.0058 9.7088L10.1719 9.80532C10.1897 9.81571 10.2175 9.81571 10.2355 9.80532Z" fill="#9EA9C9"/>
<path d="M9.80973 10.0495L10.0024 9.9382C10.0115 9.93297 10.016 9.92631 10.016 9.91965L10.0157 9.87109C10.0158 9.87775 10.0112 9.88442 10.0022 9.88965L9.80948 10.0009C9.79148 10.0113 9.76371 10.0113 9.74584 10.0009L9.57976 9.90439C9.57087 9.89923 9.56643 9.89266 9.56641 9.88608L9.56666 9.93464C9.56668 9.94121 9.57112 9.94778 9.58001 9.95294L9.74609 10.0495C9.76397 10.0599 9.79173 10.0599 9.80973 10.0495Z" fill="#9EA9C9"/>
<path d="M9.15618 10.199L9.32226 10.2956C9.34013 10.3059 9.3679 10.3059 9.3859 10.2956L9.5786 10.1843C9.58766 10.1791 9.59217 10.1724 9.59216 10.1657L9.59191 10.1172C9.59192 10.1238 9.5874 10.1305 9.57835 10.1357L9.38564 10.247C9.36765 10.2574 9.33988 10.2574 9.322 10.247L9.15592 10.1505C9.14704 10.1453 9.14259 10.1388 9.14258 10.1322L9.14283 10.1807C9.14285 10.1873 9.14729 10.1939 9.15618 10.199Z" fill="#9EA9C9"/>
<path d="M9.16653 10.4118L9.16628 10.3633C9.16629 10.37 9.16177 10.3768 9.15294 10.3819L8.95965 10.4935C8.94224 10.5035 8.91389 10.5039 8.89601 10.4935L8.72993 10.397C8.72112 10.3918 8.71682 10.3853 8.7168 10.3787L8.71705 10.4272C8.71707 10.4338 8.72137 10.4404 8.73018 10.4455L8.89626 10.542C8.91414 10.5524 8.94249 10.5521 8.9599 10.542L9.15319 10.4304C9.16202 10.4253 9.16655 10.4186 9.16653 10.4118Z" fill="#9EA9C9"/>
<path d="M11.192 9.59669L10.9993 9.70794C10.9813 9.71833 10.9529 9.718 10.9356 9.70794L10.769 9.61109C10.7603 9.60606 10.7559 9.59942 10.7559 9.59275L10.7561 9.64131C10.7561 9.64798 10.7606 9.65461 10.7692 9.65965L10.9359 9.7565C10.9532 9.76655 10.9815 9.76689 10.9995 9.7565L11.1922 9.64524C11.201 9.64018 11.2054 9.63342 11.2054 9.62668L11.2051 9.57812C11.2051 9.58487 11.2008 9.59162 11.192 9.59669Z" fill="#9EA9C9"/>
<path d="M10.7675 9.84079L9.72389 10.4433C9.7059 10.4537 9.67756 10.4534 9.66025 10.4433L9.4936 10.3465C9.48493 10.3414 9.48049 10.3348 9.48047 10.3281L9.48072 10.3767C9.48074 10.3834 9.48519 10.39 9.49385 10.395L9.6605 10.4919C9.67781 10.5019 9.70615 10.5023 9.72415 10.4919L10.7678 9.88935C10.7768 9.88416 10.7811 9.87747 10.7811 9.87082L10.7809 9.82227C10.7809 9.82891 10.7765 9.83561 10.7675 9.84079Z" fill="#9EA9C9"/>
<path d="M9.49119 10.5791L9.2979 10.6907C9.28049 10.7008 9.25156 10.7008 9.23426 10.6907L9.06761 10.5939C9.05901 10.5889 9.05471 10.5822 9.05469 10.5756L9.05494 10.6241C9.05496 10.6308 9.05926 10.6374 9.06786 10.6424L9.23451 10.7393C9.25181 10.7493 9.28074 10.7493 9.29815 10.7393L9.49144 10.6277C9.5002 10.6226 9.50458 10.6158 9.50456 10.6091L9.50431 10.5605C9.50433 10.5673 9.49995 10.574 9.49119 10.5791Z" fill="#9EA9C9"/>
<path d="M10.781 8.47602L10.9476 8.57286C10.9649 8.58292 10.9933 8.58326 11.0113 8.57287L11.204 8.46161C11.2129 8.45642 11.2173 8.44974 11.2173 8.44309L11.2171 8.39453C11.2171 8.40118 11.2127 8.40786 11.2037 8.41305L11.011 8.52431C10.993 8.5347 10.9647 8.53437 10.9474 8.52431L10.7807 8.42746C10.772 8.42242 10.7676 8.41579 10.7676 8.40912L10.7678 8.45768C10.7678 8.46435 10.7723 8.47098 10.781 8.47602Z" fill="#9EA9C9"/>
<path d="M10.3569 8.72053L10.5236 8.81738C10.5409 8.82744 10.5698 8.82744 10.5872 8.81738L10.7805 8.70579C10.7893 8.70073 10.7936 8.69398 10.7936 8.68723L10.7934 8.63867C10.7934 8.64542 10.789 8.65218 10.7802 8.65723L10.587 8.76883C10.5695 8.77888 10.5406 8.77888 10.5233 8.76883L10.3567 8.67198C10.3481 8.66698 10.3438 8.66033 10.3438 8.65368L10.344 8.70223C10.344 8.70889 10.3483 8.71554 10.3569 8.72053Z" fill="#9EA9C9"/>
<path d="M11.1055 8.60676L11.1057 8.65531C11.1057 8.66189 11.1102 8.66845 11.1191 8.67362L11.2851 8.77013C11.3025 8.78018 11.3308 8.78052 11.3488 8.77013L11.5415 8.65888C11.5505 8.65369 11.5549 8.647 11.5548 8.64035L11.5546 8.5918C11.5546 8.59844 11.5502 8.60514 11.5412 8.61032L11.3485 8.72158C11.3305 8.73196 11.3022 8.73163 11.2849 8.72158L11.1188 8.62506C11.1099 8.6199 11.1055 8.61333 11.1055 8.60676Z" fill="#9EA9C9"/>
<path d="M10.9247 9.01465L11.118 8.90306C11.1268 8.898 11.1312 8.89124 11.1312 8.88449L11.1309 8.83594C11.1309 8.84269 11.1265 8.84944 11.1178 8.8545L10.9245 8.9661C10.9071 8.97615 10.8782 8.97615 10.8609 8.9661L10.6948 8.86958C10.686 8.86446 10.6817 8.85788 10.6816 8.85131L10.6819 8.89987C10.6819 8.90644 10.6862 8.91302 10.695 8.91814L10.8611 9.01465C10.8784 9.0247 10.9073 9.0247 10.9247 9.01465Z" fill="#9EA9C9"/>
<path d="M11.4434 8.8021L11.4436 8.85066C11.4436 8.85724 11.4481 8.8638 11.457 8.86896L11.623 8.96548C11.6409 8.97587 11.6687 8.97587 11.6867 8.96548L11.8794 8.85422C11.8884 8.84899 11.893 8.84233 11.8929 8.83567L11.8927 8.78711C11.8927 8.79377 11.8882 8.80044 11.8791 8.80566L11.6864 8.91692C11.6684 8.92731 11.6407 8.92731 11.6228 8.91692L11.4567 8.82041C11.4478 8.81525 11.4434 8.80868 11.4434 8.8021Z" fill="#9EA9C9"/>
<path d="M11.4712 9.07981L11.471 9.03125C11.471 9.03801 11.4665 9.04474 11.4576 9.04985L11.2643 9.16144C11.2469 9.1715 11.2186 9.17183 11.2007 9.16144L11.0346 9.06493C11.0258 9.05981 11.0215 9.05322 11.0215 9.04666L11.0217 9.09522C11.0218 9.10178 11.0261 9.10836 11.0349 9.11348L11.2009 9.21C11.2188 9.22039 11.2472 9.22005 11.2646 9.21L11.4579 9.0984C11.4667 9.0933 11.4712 9.08657 11.4712 9.07981Z" fill="#9EA9C9"/>
<path d="M12.2348 8.98438C12.2348 8.99112 12.2304 8.99788 12.2217 9.00294L12.0284 9.11453C12.011 9.12458 11.982 9.12458 11.9647 9.11453L11.7981 9.01768C11.7895 9.01269 11.7852 9.00604 11.7852 8.99938L11.7854 9.04794C11.7854 9.05459 11.7897 9.06124 11.7983 9.06624L11.965 9.16308C11.9823 9.17314 12.0112 9.17314 12.0286 9.16308L12.2219 9.05149C12.2307 9.04643 12.235 9.03967 12.235 9.03293L12.2348 8.98438Z" fill="#9EA9C9"/>
<path d="M11.7959 9.24708L11.6026 9.35867C11.5852 9.36872 11.5562 9.36872 11.5389 9.35867L11.3723 9.26182C11.3637 9.25683 11.3594 9.25018 11.3594 9.24352L11.3596 9.29208C11.3596 9.29874 11.3639 9.30538 11.3725 9.31038L11.5392 9.40722C11.5565 9.41728 11.5854 9.41728 11.6028 9.40722L11.7961 9.29563C11.8049 9.29057 11.8093 9.28381 11.8092 9.27707L11.809 9.22852C11.809 9.23526 11.8046 9.24202 11.7959 9.24708Z" fill="#9EA9C9"/>
<path d="M11.3725 9.22655C11.3551 9.23661 11.355 9.25336 11.3723 9.26342L11.5389 9.36027C11.5562 9.37032 11.5852 9.37032 11.6026 9.36027L11.7959 9.24868C11.8133 9.23862 11.8134 9.22187 11.7961 9.21181L11.6294 9.11496C11.6121 9.10491 11.5832 9.10491 11.5658 9.11496L11.3725 9.22655Z" fill="#E3E7F0"/>
<path d="M12.0999 7.63477L12.3334 7.71548L12.2516 7.77176L12.002 7.69351L12.0999 7.63477Z" fill="#FFD06C"/>
<path d="M11.8335 7.72355C11.9373 7.62723 12.0925 7.59634 12.292 7.62182C12.4686 7.63577 12.6448 7.70598 12.8206 7.81381C12.9912 7.93257 13.1301 8.0683 13.2283 8.22574C13.3601 8.42418 13.2562 8.52948 13.0735 8.60327C12.8843 8.68311 12.7258 8.69288 12.6057 8.61473C12.503 8.55417 12.4154 8.44364 12.3349 8.30955C12.2688 8.20128 12.1422 8.13663 11.9624 8.1104C11.8344 8.1104 11.757 8.15242 11.7246 8.10681C11.6609 8.01088 11.6763 7.87112 11.8335 7.72355Z" fill="#4C5C75"/>
<path d="M13.2875 8.46179C13.2519 8.5379 13.1984 8.59498 13.1248 8.63086C13.0225 8.67258 12.9109 8.69172 12.7914 8.69103C12.6236 8.67751 12.4937 8.6367 12.4056 8.56587L12.161 8.40448C11.9906 8.32642 11.8171 8.2526 11.7646 8.21432C11.6951 8.17592 11.682 8.09443 11.6893 7.99023C11.6893 8.03345 11.702 8.07276 11.7245 8.10669C11.7569 8.15231 11.8343 8.11024 11.9623 8.11024C12.1422 8.13649 12.2687 8.20114 12.3349 8.30946C12.4153 8.44345 12.5029 8.55406 12.6057 8.61458C12.7257 8.69275 12.8842 8.68301 13.0735 8.60312C13.1968 8.55326 13.2843 8.48907 13.2874 8.39141C13.2907 8.4101 13.2907 8.43359 13.2875 8.46179Z" fill="#1D2943"/>
<path d="M12.6986 7.74572C12.6919 7.74228 12.6851 7.73884 12.6782 7.73563C12.6026 7.74812 12.515 7.77208 12.4563 7.80555C12.3408 7.87467 12.245 7.97129 12.1637 8.10082C12.0686 8.06425 11.9638 8.0458 11.8515 8.0458C11.8236 8.0458 11.7952 8.04694 11.7663 8.04924C11.7441 8.02895 11.7327 7.99754 11.734 7.96006C11.7356 7.91673 11.7585 7.80222 11.9377 7.67511L12.0033 7.63281C11.992 7.63579 11.981 7.63923 11.9703 7.6429C11.9448 7.65172 11.9208 7.6625 11.8986 7.67545C11.7822 7.76509 11.7144 7.86733 11.7111 7.95926C11.7094 8.00591 11.725 8.04522 11.7552 8.06987C11.7575 8.07182 11.7605 8.07273 11.7633 8.0725C11.9103 8.06024 12.0451 8.07812 12.1642 8.12557C12.1655 8.12615 12.167 8.12638 12.1684 8.12638C12.1723 8.12638 12.1761 8.12443 12.1781 8.12087C12.2585 7.99055 12.3533 7.89381 12.4679 7.82538C12.5243 7.79305 12.6213 7.76509 12.7138 7.75362C12.7087 7.75087 12.7037 7.74824 12.6986 7.74572Z" fill="#1D2943"/>
<path d="M12.45 7.82772C12.3209 7.73894 12.1397 7.64853 12.0781 7.72958L12.0861 7.707C12.1521 7.62614 12.3303 7.71754 12.463 7.80883L12.45 7.82772Z" fill="#1D2943"/>
<path d="M12.3736 7.71464L12.3323 7.75137L12.2967 7.7835L12.2761 7.80301C12.2164 7.7617 12.1475 7.73989 12.0706 7.73531C12.0637 7.73416 12.0569 7.73416 12.0488 7.73416L12.0683 7.71694V7.71579L12.1337 7.65612H12.1349L12.1464 7.64464C12.1946 7.64349 12.2405 7.65152 12.2841 7.66874C12.3151 7.67907 12.3449 7.69513 12.3736 7.71464Z" fill="#111D33"/>
<path d="M12.3315 7.74915V7.75144L12.296 7.78358C12.2914 7.76407 12.281 7.74341 12.2661 7.7262C12.2604 7.71931 12.2546 7.71358 12.2477 7.70783C12.2237 7.68374 12.1927 7.66652 12.1617 7.65964C12.1514 7.65734 12.1422 7.6562 12.1341 7.6562H12.133C12.1135 7.6562 12.0974 7.66193 12.0859 7.67341L12.1146 7.63783C12.1295 7.61832 12.1594 7.61029 12.1938 7.61832C12.2259 7.62636 12.2581 7.64472 12.2833 7.66882C12.3074 7.69177 12.3258 7.72046 12.3315 7.74915Z" fill="#F45170"/>
<path d="M12.2669 7.72625C12.2818 7.74346 12.2921 7.76413 12.2967 7.78363L12.2761 7.80314C12.2164 7.76183 12.1475 7.74002 12.0706 7.73544C12.0695 7.72969 12.0684 7.72281 12.0684 7.71707V7.71592C12.0684 7.69756 12.0752 7.68264 12.0867 7.67346C12.0982 7.66199 12.1143 7.65625 12.1338 7.65625H12.1349C12.1429 7.65625 12.1521 7.65739 12.1625 7.65969C12.1934 7.66657 12.2244 7.68379 12.2485 7.70789C12.2554 7.71363 12.2612 7.71937 12.2669 7.72625Z" fill="#DF3260"/>
<path d="M16.6015 7.64203C16.6015 7.92128 16.4053 8.26091 16.16 8.40053L13.0166 10.2194C12.892 10.2911 12.7826 10.2949 12.7034 10.2496L11.7901 9.71751C11.7109 9.67222 11.6619 9.57411 11.6619 9.43826L11.6543 7.49864C11.6543 7.21939 11.8505 6.87976 12.0958 6.74014L15.2392 4.92127C15.3637 4.85335 15.4732 4.84582 15.5562 4.89488L16.4505 5.41563L16.4543 5.41939C16.4581 5.41939 16.4618 5.41939 16.4656 5.42316C16.5449 5.46844 16.5939 5.56656 16.5939 5.70618L16.6015 7.64203Z" fill="#5094FF"/>
<path d="M16.1519 5.45333C16.3958 5.31248 16.5929 5.42477 16.5937 5.7051L16.5992 7.64126C16.6 7.91921 16.4042 8.26067 16.1602 8.40151L13.0156 10.217C12.7717 10.3579 12.5746 10.2432 12.5739 9.96528L12.5684 8.02912C12.5676 7.74879 12.7633 7.4097 13.0073 7.26886L16.1519 5.45333Z" fill="#5094FF"/>
<path d="M16.4649 5.4205C16.3872 5.37517 16.2771 5.38165 16.154 5.45288L13.0066 7.26949C12.7637 7.40873 12.5694 7.74873 12.5694 8.03045L12.5759 9.96361C12.5759 10.1029 12.6245 10.2 12.7022 10.2486L11.789 9.71753C11.7113 9.67219 11.6627 9.57181 11.6627 9.43581L11.6562 7.49939C11.6562 7.21767 11.8506 6.87767 12.0967 6.73843L15.2409 4.92184C15.3639 4.85059 15.474 4.84411 15.555 4.89269L16.4649 5.4205Z" fill="#57B3FE"/>
<path d="M15.1328 7.33542L15.1252 13.543C15.1252 13.7882 15.0346 13.9618 14.895 14.0411L14.0686 14.5241C14.0724 14.5166 14.0761 14.5166 14.0799 14.5128C13.9931 14.5694 13.8837 14.592 13.7629 14.5732C13.7328 14.4373 13.6799 14.3015 13.6309 14.1694C13.8271 14.2147 13.9705 14.0939 13.9743 13.8486L13.9818 7.64108L14.8195 7.1543L15.1328 7.33542Z" fill="#111D33"/>
<path d="M13.9824 7.64389L14.8215 7.15625L15.1343 7.33682L14.2952 7.82445L13.9824 7.64389Z" fill="#4C5C75"/>
<path d="M15.135 7.33594L15.1247 13.5433C15.1247 13.7882 15.0363 13.9617 14.8968 14.0433L14.0566 14.5331C14.1995 14.4515 14.2845 14.278 14.288 14.0297L14.2948 7.82577L15.135 7.33594Z" fill="#1D2943"/>
<path d="M13.9818 7.64258L13.9737 13.848C13.973 14.0944 13.8273 14.2159 13.6309 14.1683C13.682 14.3004 13.7328 14.4359 13.7633 14.5723C14.0666 14.6219 14.2853 14.4181 14.2865 14.0285L14.2946 7.82314L13.9818 7.64258Z" fill="#111D33"/>
<path d="M14.9446 2.21901C14.922 2.20771 14.8956 2.20771 14.8616 2.22657L13.5559 2.98129C13.4918 3.01901 13.4427 3.1058 13.4427 3.18127L13.4503 6.04166C13.4503 6.07938 13.4654 6.1058 13.4842 6.11713L11.2993 4.84921C11.2805 4.83788 11.2691 4.81147 11.2691 4.77374L11.2578 1.91335C11.2578 1.83788 11.3106 1.75109 11.3748 1.71334L12.6805 0.958626C12.7106 0.939763 12.7408 0.939763 12.7597 0.951095L14.9446 2.21901Z" fill="#111D33"/>
<path d="M13.4846 6.11787L11.3012 4.84851C11.2809 4.83713 11.2679 4.81114 11.2679 4.77459L11.2598 1.91211L13.4432 3.18066L13.4513 6.04314C13.4513 6.07969 13.4643 6.10568 13.4846 6.11787Z" fill="#111D33"/>
<path d="M14.9438 2.21972C14.9227 2.20753 14.8935 2.20916 14.861 2.22784L13.5565 2.98082L11.373 1.71227L12.6784 0.959288C12.7101 0.940602 12.7393 0.938981 12.7604 0.951162L14.9438 2.21972Z" fill="#4C5C75"/>
<path d="M13.4429 3.18038L11.2598 1.91166C11.2596 1.83895 11.3107 1.74972 11.3745 1.71289L13.5576 2.98161C13.4938 3.01844 13.4427 3.10767 13.4429 3.18038Z" fill="#1D2943"/>
<path d="M14.9865 5.15544C14.9865 5.23089 14.9337 5.3177 14.8696 5.35542L13.5677 6.11014C13.5337 6.129 13.5073 6.13278 13.4846 6.1177L13.145 5.91768C13.1224 5.90638 13.111 5.87996 13.111 5.84599L13.1035 2.98185C13.1035 2.91015 13.1526 2.81959 13.2167 2.78561L14.5224 2.0309C14.5526 2.01203 14.5828 2.01203 14.6054 2.02334L14.9375 2.2158C14.9639 2.23091 14.979 2.2573 14.979 2.29505L14.9865 5.15544Z" fill="#B0B8CF"/>
<path d="M13.4838 6.11763L13.143 5.91882C13.1227 5.90745 13.1097 5.88145 13.1097 5.8449L13.1016 2.98242L13.4423 3.18041L13.4505 6.0429C13.4505 6.07945 13.4635 6.10544 13.4838 6.11763Z" fill="#9EA9C9"/>
<path d="M14.945 2.21947C14.9238 2.20728 14.8946 2.20891 14.8621 2.22759L13.5576 2.98058L13.2168 2.78258L14.5221 2.0296C14.5538 2.01091 14.5831 2.00929 14.6042 2.02147L14.945 2.21947Z" fill="#E3E7F0"/>
<path d="M13.442 3.18013L13.1016 2.98197C13.1014 2.90927 13.1525 2.82003 13.2163 2.7832L13.5568 2.98136C13.493 3.01819 13.4418 3.10743 13.442 3.18013Z" fill="#C9CEE2"/>
<path d="M14.861 2.22873C14.9248 2.1919 14.9768 2.22155 14.977 2.29426L14.9851 5.15709C14.9853 5.23039 14.9337 5.31933 14.8699 5.35616L13.565 6.1095C13.5012 6.14633 13.4497 6.11698 13.4495 6.04368L13.4414 3.18084C13.4412 3.10814 13.4924 3.01891 13.5562 2.98208L14.861 2.22873Z" fill="#B0B8CF"/>
<path d="M14.8702 5.22297L13.5653 5.97639L13.5566 3.11278L14.8616 2.35938L14.8702 5.22297Z" fill="white"/>
<path d="M16.4649 5.4205C16.3872 5.37517 16.2771 5.38165 16.154 5.45288L13.0066 7.26949C12.7637 7.40873 12.5694 7.74873 12.5694 8.03045L12.5759 9.96361C12.5759 10.1029 12.6245 10.2 12.7022 10.2486L11.789 9.71753C11.7113 9.67219 11.6627 9.57181 11.6627 9.43581L11.6562 7.49939C11.6562 7.21767 11.8506 6.87767 12.0967 6.73843L15.2409 4.92184C15.3639 4.85059 15.474 4.84411 15.555 4.89269L16.4649 5.4205Z" fill="#57B3FE"/>
<path d="M14.4649 5.03088C14.4649 5.18936 14.3555 5.37804 14.2158 5.45729C14.08 5.53652 13.9706 5.47238 13.9668 5.31767C13.9668 5.15917 14.08 4.96673 14.2158 4.88748C14.3517 4.80823 14.4649 4.87239 14.4649 5.03088Z" fill="#1D2943"/>
<path d="M14.2165 4.88919C14.3526 4.81061 14.464 4.87409 14.4645 5.03049C14.4649 5.18854 14.3543 5.3786 14.2181 5.45718C14.0806 5.53659 13.9692 5.47475 13.9688 5.31671C13.9683 5.1603 14.079 4.9686 14.2165 4.88919Z" fill="#4C5C75"/>
<path d="M14.2155 4.98869C14.3039 4.93768 14.3762 4.97889 14.3765 5.08041C14.3768 5.18301 14.3049 5.30638 14.2166 5.35739C14.1273 5.40894 14.055 5.3688 14.0547 5.2662C14.0544 5.16467 14.1262 5.04024 14.2155 4.98869Z" fill="#1D2943"/>
<path d="M14.2138 4.56818C14.2682 4.53674 14.3128 4.56214 14.313 4.6247C14.3131 4.68726 14.2689 4.76312 14.2144 4.79455C14.16 4.82598 14.1154 4.80141 14.1152 4.73885C14.1151 4.67629 14.1593 4.59961 14.2138 4.56818Z" fill="#F45170"/>
<path d="M13.6776 4.05313L13.6738 3.68333L14.7493 3.06445V3.43428L13.6776 4.05313Z" fill="#4C5C75"/>
<path d="M14.7532 3.57031V3.93634L13.6777 4.55899V4.18919L14.7532 3.57031Z" fill="#4C5C75"/>
<path d="M14.7493 2.9284L13.6738 3.54727V3.18122L14.7493 2.55859V2.9284Z" fill="#4C5C75"/>
<path d="M14.7484 2.56055L14.7494 2.92943L13.6749 3.54983L13.6738 3.18095L14.7484 2.56055Z" fill="#4C5C75"/>
<path d="M13.9805 3.14315L14.6515 2.76172L14.6517 2.83192L13.9806 3.21336L13.9805 3.14315Z" fill="#57B3FE"/>
<path d="M13.8428 3.17578C13.8822 3.15303 13.9145 3.17141 13.9146 3.2167C13.9148 3.26199 13.8827 3.31691 13.8433 3.33966C13.8039 3.36242 13.7716 3.34463 13.7715 3.29934C13.7714 3.25405 13.8034 3.19854 13.8428 3.17578Z" fill="#E3E7F0"/>
<path d="M14.7484 3.06445L14.7494 3.43333L13.6749 4.05373L13.6738 3.68485L14.7484 3.06445Z" fill="#4C5C75"/>
<path d="M13.9805 3.65097L14.6515 3.26953L14.6517 3.33973L13.9806 3.72117L13.9805 3.65097Z" fill="#57B3FE"/>
<path d="M13.8428 3.68359C13.8822 3.66084 13.9145 3.67922 13.9146 3.72451C13.9148 3.7698 13.8827 3.82472 13.8433 3.84747C13.8039 3.87023 13.7716 3.85244 13.7715 3.80715C13.7714 3.76186 13.8034 3.70635 13.8428 3.68359Z" fill="#E3E7F0"/>
<path d="M14.7503 3.56836L14.7514 3.93724L13.6768 4.55764L13.6758 4.18876L14.7503 3.56836Z" fill="#4C5C75"/>
<path d="M13.9805 4.16073L14.6515 3.7793L14.6517 3.8495L13.9806 4.23093L13.9805 4.16073Z" fill="#57B3FE"/>
<path d="M13.8428 4.19336C13.8822 4.1706 13.9145 4.18899 13.9146 4.23428C13.9148 4.27957 13.8827 4.33448 13.8433 4.35724C13.8039 4.38 13.7716 4.36221 13.7715 4.31692C13.7714 4.27163 13.8034 4.21612 13.8428 4.19336Z" fill="#E3E7F0"/>
<path d="M10.1601 7.76213V8.11307C10.1601 8.15082 10.1375 8.18477 10.0922 8.21118L8.80544 8.96212C8.7111 9.01496 8.55637 9.01496 8.46203 8.96212L7.62053 8.47534C7.57147 8.44514 7.54883 8.41117 7.54883 8.37345V8.0225C7.54883 7.98853 7.57147 7.95081 7.62053 7.92061L8.90356 7.17723C8.9979 7.12061 9.1526 7.12061 9.24694 7.17723L10.0884 7.66023C10.1375 7.68665 10.1601 7.7244 10.1601 7.76213Z" fill="#1D2943"/>
<path d="M10.1587 7.76172L10.1588 8.11444C10.1588 8.15079 10.1358 8.18594 10.0897 8.21259L8.80416 8.96017C8.71086 9.01469 8.55577 9.01469 8.46126 8.96017L7.62039 8.4743C7.57193 8.44644 7.5489 8.41009 7.5489 8.37374L7.54883 8.021C7.54883 8.05735 7.57184 8.09249 7.62031 8.12036L8.46119 8.60623C8.55569 8.66076 8.70958 8.66076 8.80407 8.60623L10.0884 7.85985C10.1357 7.8332 10.1587 7.79685 10.1587 7.76172Z" fill="#1D2943"/>
<path d="M10.0882 7.66174C10.1826 7.71623 10.1831 7.80555 10.0893 7.86004L8.80425 8.60681C8.71049 8.6613 8.55628 8.6613 8.4619 8.60681L7.62023 8.12089C7.52508 8.06594 7.52535 7.97707 7.61912 7.92258L8.90416 7.1758C8.99791 7.12131 9.15136 7.12087 9.24651 7.1758L10.0882 7.66174Z" fill="#4C5C75"/>
<path d="M8.6336 8.57198C8.58261 8.57198 8.53397 8.56078 8.50017 8.54129L7.65845 8.05533C7.63391 8.04116 7.625 8.02738 7.625 8.02153C7.625 8.01582 7.63368 8.00225 7.65748 7.98838L8.94252 7.24163C8.97618 7.22213 9.02466 7.21094 9.07544 7.21094C9.12624 7.21094 9.17485 7.22213 9.20881 7.24179L10.0505 7.72765C10.0748 7.74166 10.0836 7.7556 10.0836 7.76154C10.0836 7.76724 10.0751 7.78081 10.0514 7.79461L8.76638 8.54143C8.73294 8.56085 8.68454 8.57198 8.6336 8.57198Z" fill="#1D2943"/>
<path d="M9.27963 5.87303L9.27386 7.90524C9.27367 7.97514 9.22773 8.04485 9.13604 8.09815C8.95042 8.206 8.64899 8.20649 8.46218 8.09864C8.36858 8.0446 8.32206 7.97393 8.32227 7.9033L8.32801 5.87109C8.32782 5.94172 8.37435 6.0124 8.46793 6.06643C8.65476 6.17428 8.95619 6.17379 9.14179 6.06594C9.23349 6.01264 9.27943 5.94293 9.27963 5.87303Z" fill="#F3F1FC"/>
<path d="M9.13887 5.67642C9.32569 5.78428 9.32667 5.9584 9.1419 6.06578C8.9563 6.17363 8.65487 6.17412 8.46804 6.06627C8.28123 5.9584 8.28191 5.78428 8.46753 5.67642C8.6523 5.56904 8.95206 5.56855 9.13887 5.67642Z" fill="#E9E7FC"/>
<path d="M10.9608 5.75458C10.9608 5.92817 10.8401 6.13571 10.6891 6.2225L6.97217 8.37722C6.88688 8.42253 6.81419 8.4205 6.76479 8.38077C6.76937 8.3848 6.77105 8.39261 6.77593 8.39609L6.37216 8.15835C6.3231 8.13193 6.2929 8.07156 6.2929 7.98478L6.28915 4.85646C6.28537 4.68665 6.40613 4.47533 6.55706 4.38854L10.2741 2.23759C10.3495 2.19231 10.4175 2.18854 10.4703 2.21873L10.859 2.44514C10.8552 2.44138 10.8476 2.44138 10.8401 2.44138C10.7948 2.42627 10.742 2.4376 10.6816 2.47155C10.742 2.4376 10.7948 2.43005 10.8401 2.44138C10.8514 2.44138 10.859 2.44514 10.8665 2.44891C10.9193 2.47533 10.9533 2.53948 10.9533 2.62628L10.9608 5.75458Z" fill="#111D33"/>
<path d="M10.8401 2.44211C10.7949 2.43078 10.742 2.43834 10.6816 2.47229C10.742 2.43834 10.7949 2.42701 10.8401 2.44211Z" fill="#111D33"/>
<path d="M10.8663 2.44894C10.8587 2.44516 10.8512 2.44141 10.8398 2.44141C10.8474 2.44141 10.8549 2.44141 10.8587 2.44516C10.8625 2.44894 10.8625 2.44894 10.8663 2.44894Z" fill="#111D33"/>
<path d="M10.8401 2.44211C10.7949 2.43078 10.742 2.43834 10.6816 2.47229C10.742 2.43834 10.7949 2.42701 10.8401 2.44211Z" fill="#111D33"/>
<path d="M10.8663 2.44894C10.8587 2.44516 10.8512 2.44141 10.8398 2.44141C10.8474 2.44141 10.8549 2.44141 10.8587 2.44516C10.8625 2.44894 10.8625 2.44894 10.8663 2.44894Z" fill="#111D33"/>
<path d="M6.28712 4.85723C6.28615 4.68501 6.40766 4.47547 6.55693 4.38841L10.2754 2.23675C10.351 2.19273 10.419 2.1889 10.4687 2.21759L10.8735 2.45298C10.8237 2.42428 10.7558 2.42809 10.6802 2.47116L6.96166 4.62377C6.81239 4.70988 6.69088 4.92038 6.69183 5.09261L6.69758 8.21959C6.69853 8.30572 6.7282 8.36504 6.77699 8.39375L6.37226 8.15837C6.32346 8.13062 6.29379 8.07034 6.29379 7.98518L6.28712 4.85723Z" fill="#4C5C75"/>
<path d="M10.6801 2.47267C10.8298 2.38626 10.9517 2.45576 10.9522 2.62844L10.9587 5.75552C10.9592 5.9275 10.838 6.13737 10.6883 6.22378L6.96997 8.37598C6.8203 8.46239 6.69833 8.39289 6.69784 8.22092L6.69141 5.09384C6.69092 4.92116 6.81209 4.71127 6.96176 4.62486L10.6801 2.47267Z" fill="#111D33"/>
<path d="M10.9609 5.41211V5.7555C10.9609 5.92909 10.8402 6.13663 10.6892 6.22342L6.97223 8.37814C6.87412 8.43098 6.79108 8.42342 6.74203 8.36306C6.74958 8.37436 6.76091 8.3857 6.776 8.39323L6.376 8.16304C6.32694 8.13285 6.29297 8.06871 6.29297 7.9857V7.63851L6.69675 7.87625L10.9609 5.41211Z" fill="#9EA9C9"/>
<path d="M10.9588 5.41016V5.75516C10.9593 5.92714 10.8381 6.13701 10.6884 6.22342L6.9701 8.37563C6.82043 8.46204 6.69846 8.39254 6.69797 8.22056L6.69727 7.87432L10.9588 5.41016Z" fill="#C9CEE2"/>
<path d="M6.69693 8.21629L6.69732 7.87394L6.29297 7.63867L6.29371 7.98297C6.29149 8.06882 6.32575 8.13203 6.37421 8.15959L6.7758 8.39312C6.72734 8.36461 6.69788 8.30181 6.69693 8.21629Z" fill="#9EA9C9"/>
<path d="M8.82763 6.75155C8.90442 6.7072 8.96647 6.74255 8.96672 6.83081C8.96698 6.91906 8.90534 7.02583 8.82852 7.07016C8.75173 7.1145 8.6897 7.07916 8.68945 6.9909C8.68919 6.90265 8.75083 6.79588 8.82763 6.75155Z" fill="#1D2943"/>
<path d="M10.8251 5.34482L6.8282 7.658L6.82423 5.09399C6.82291 4.96863 6.91925 4.80237 7.02744 4.73904L10.746 2.58683C10.7763 2.56968 10.7948 2.56836 10.8014 2.56836C10.8093 2.57101 10.8199 2.58815 10.8199 2.62907L10.8251 5.34482Z" fill="white"/>
<path d="M7.13005 10.1136V10.5287C7.13005 10.5514 7.11496 10.574 7.08477 10.5891L5.41307 11.5551C5.35646 11.5891 5.26212 11.5891 5.20553 11.5551L2.93005 10.2306C2.89985 10.2155 2.88477 10.1929 2.88477 10.1702V9.75516C2.88477 9.7325 2.89985 9.70986 2.92627 9.69477L4.59796 8.73251C4.65835 8.69854 4.74892 8.69854 4.80928 8.73251L7.08477 10.057C7.12627 10.0797 7.1376 10.1174 7.11496 10.1476C7.12627 10.1401 7.13005 10.125 7.13005 10.1136Z" fill="#DEDFFB"/>
<path d="M2.88477 9.75586L2.8855 10.1711C2.8855 10.1932 2.90019 10.2145 2.92884 10.2314L5.20686 11.5551C5.26343 11.5882 5.35746 11.5882 5.41402 11.5551L7.086 10.5899C7.11538 10.573 7.12934 10.5517 7.12934 10.5296L7.1286 10.1143C7.1286 10.1357 7.11464 10.1577 7.08526 10.1746L5.41402 11.1399C5.35672 11.1729 5.2627 11.1729 5.20613 11.1399L2.92811 9.81609C2.89945 9.7992 2.8855 9.77716 2.88477 9.75586Z" fill="#DEDFFB"/>
<path d="M2.92782 9.69512C2.8706 9.72816 2.8703 9.78232 2.92761 9.81562L5.20576 11.1395C5.26261 11.1726 5.35611 11.1726 5.41333 11.1395L7.08493 10.1744C7.14309 10.1409 7.14245 10.0872 7.0856 10.0542L4.80745 8.7303C4.75014 8.69699 4.65758 8.69645 4.59942 8.73003L2.92782 9.69512Z" fill="#F3F1FC"/>
<path d="M5.30879 11.0941C5.28231 11.0941 5.2565 11.0883 5.23992 11.0787C5.23992 11.0787 3.42283 10.0227 3.03399 9.79671C3.00152 9.77784 3.00177 9.73113 3.03429 9.71235C3.35623 9.5265 4.63353 8.78909 4.63353 8.78909C4.6507 8.77911 4.67583 8.77344 4.7024 8.77344C4.72888 8.77344 4.75494 8.77936 4.77195 8.78926L6.9772 10.0708C7.00967 10.0897 7.00968 10.1365 6.97716 10.1553C6.65524 10.3412 5.378 11.0786 5.378 11.0786C5.36125 11.0883 5.33536 11.0941 5.30879 11.0941Z" fill="white"/>
<path d="M3.33008 9.83381L3.37898 9.86223L4.69801 9.10069L4.64911 9.07227L3.33008 9.83381Z" fill="#DEDFFB"/>
<path d="M5.90536 9.61384C5.88558 9.62526 5.88592 9.64327 5.90513 9.65444C5.90682 9.65542 5.90862 9.65628 5.91048 9.65709C5.92005 9.66129 5.93162 9.66322 5.94308 9.66283C5.95469 9.66243 5.96615 9.65968 5.97522 9.65444C5.99456 9.64328 5.99466 9.62501 5.97545 9.61384C5.95624 9.60268 5.9247 9.60268 5.90536 9.61384Z" fill="#F45170"/>
<path d="M6.03427 9.7408C6.01449 9.75221 6.01483 9.77023 6.03404 9.78139C6.04332 9.78679 6.05537 9.78961 6.06759 9.78982C6.07906 9.79002 6.09066 9.78793 6.10025 9.78342C6.10158 9.78279 6.10288 9.78212 6.10413 9.78139C6.12346 9.77023 6.12357 9.75196 6.10435 9.7408C6.08514 9.72963 6.0536 9.72963 6.03427 9.7408Z" fill="#FEBC1F"/>
<path d="M6.30949 9.82097C6.29016 9.83213 6.29005 9.8504 6.30926 9.86157C6.31478 9.86477 6.32125 9.86705 6.32811 9.86846C6.33935 9.87077 6.35165 9.8707 6.36271 9.86823C6.36894 9.86684 6.37478 9.86471 6.37979 9.86182C6.39957 9.8504 6.39923 9.83239 6.37958 9.82097C6.36037 9.8098 6.32927 9.80955 6.30949 9.82097Z" fill="#F45170"/>
<path d="M5.41301 9.92244C5.39367 9.9336 5.39357 9.95187 5.41278 9.96303C5.41708 9.96553 5.42201 9.96744 5.42727 9.96882C5.43808 9.97166 5.45032 9.97216 5.46164 9.97027C5.46942 9.96897 5.47675 9.96656 5.48287 9.96303C5.48774 9.96022 5.49139 9.95695 5.49382 9.95346C5.49819 9.94718 5.49856 9.94019 5.49499 9.93378C5.49268 9.92963 5.48875 9.92572 5.4831 9.92244C5.46388 9.91127 5.43234 9.91127 5.41301 9.92244Z" fill="#F45170"/>
<path d="M5.73718 9.93022C5.7319 9.93326 5.72811 9.93684 5.7257 9.94066C5.72165 9.94706 5.72164 9.95413 5.72568 9.96053C5.72805 9.96428 5.73178 9.96781 5.73695 9.97082C5.75616 9.98198 5.7877 9.98198 5.80704 9.97082C5.82637 9.95965 5.82648 9.94138 5.80727 9.93022L5.80566 9.92938C5.79673 9.92462 5.78546 9.92213 5.77404 9.92189C5.76075 9.92162 5.7473 9.92438 5.73718 9.93022Z" fill="#78E75A"/>
<path d="M5.40125 10.1685C5.39636 10.1713 5.39271 10.1746 5.39028 10.1781C5.38587 10.1845 5.38557 10.1916 5.3893 10.198C5.39163 10.2021 5.3955 10.2059 5.40103 10.2091C5.42024 10.2203 5.45178 10.2203 5.47111 10.2091C5.49045 10.1979 5.49055 10.1797 5.47134 10.1685C5.46645 10.1657 5.46076 10.1636 5.45467 10.1622C5.44369 10.1596 5.43144 10.1595 5.42026 10.1617C5.41332 10.1631 5.40678 10.1653 5.40125 10.1685Z" fill="#78E75A"/>
<path d="M4.99699 10.1629C4.97765 10.1741 4.97755 10.1923 4.99676 10.2035C5.0008 10.2058 5.00541 10.2077 5.01031 10.209C5.02084 10.2119 5.03281 10.2126 5.04401 10.211C5.05238 10.2097 5.06032 10.2073 5.06685 10.2035C5.07272 10.2001 5.07681 10.1961 5.07922 10.1919C5.08297 10.1853 5.08259 10.1782 5.0781 10.1719C5.07572 10.1685 5.0722 10.1654 5.06752 10.1626C5.04831 10.1515 5.01677 10.1515 4.99699 10.1629Z" fill="#F45170"/>
<path d="M3.96094 10.202L4.00984 10.2304L5.30008 9.48545L5.25118 9.45703L3.96094 10.202Z" fill="#DEDFFB"/>
<path d="M6.03996 10.1802C6.02062 10.1914 6.02052 10.2097 6.03973 10.2208C6.04395 10.2233 6.04878 10.2252 6.05393 10.2266C6.06486 10.2295 6.07728 10.23 6.08875 10.2281C6.09647 10.2268 6.10375 10.2244 6.10982 10.2208C6.1191 10.2155 6.1239 10.2085 6.12431 10.2014C6.12471 10.1947 6.12107 10.1879 6.11331 10.1823C6.11229 10.1816 6.11121 10.1809 6.11005 10.1802C6.09084 10.1691 6.0593 10.1691 6.03996 10.1802Z" fill="#78E75A"/>
<path d="M5.83504 10.2115C5.8264 10.2165 5.82161 10.2227 5.82054 10.2291C5.81942 10.2358 5.82246 10.2426 5.82945 10.2483C5.83105 10.2496 5.8328 10.2509 5.83481 10.2521C5.85446 10.2635 5.88512 10.2635 5.9049 10.2521C5.92424 10.2409 5.92478 10.2229 5.90513 10.2115C5.9036 10.2106 5.90196 10.2098 5.90028 10.209C5.89051 10.2047 5.87851 10.2027 5.86671 10.2032C5.85517 10.2036 5.84384 10.2064 5.83504 10.2115Z" fill="#BF7D5A"/>
<path d="M4.08594 10.2735L4.13484 10.3019L5.63351 9.43662L5.5846 9.4082L4.08594 10.2735Z" fill="#DEDFFB"/>
<path d="M5.42668 10.2603C5.40734 10.2715 5.40724 10.2898 5.42645 10.3009C5.42775 10.3017 5.42913 10.3024 5.43053 10.303C5.44004 10.3074 5.45178 10.3095 5.4634 10.3092C5.47545 10.309 5.48737 10.3062 5.49654 10.3009C5.50528 10.2959 5.51005 10.2894 5.51093 10.2827C5.51181 10.276 5.50861 10.2691 5.50133 10.2634C5.49994 10.2624 5.49845 10.2613 5.49677 10.2603C5.47756 10.2492 5.44602 10.2492 5.42668 10.2603Z" fill="#FEBC1F"/>
<path d="M6.05594 10.3442C6.0513 10.3468 6.04779 10.3499 6.04531 10.3532C6.04045 10.3595 6.03971 10.3667 6.04311 10.3732C6.04537 10.3775 6.04941 10.3816 6.05527 10.385C6.07492 10.3964 6.10646 10.3964 6.12624 10.385C6.14557 10.3739 6.14524 10.3558 6.12559 10.3444C6.1208 10.3416 6.11528 10.3395 6.10938 10.3381C6.09829 10.3354 6.0859 10.3352 6.0746 10.3375C6.06781 10.3388 6.0614 10.341 6.05594 10.3442Z" fill="#F45170"/>
<path d="M5.70832 10.3129C5.68854 10.3244 5.68844 10.3426 5.70765 10.3538C5.71207 10.3564 5.71717 10.3583 5.72262 10.3597C5.73327 10.3624 5.74528 10.3628 5.75647 10.361C5.76438 10.3596 5.77188 10.3572 5.77818 10.3535C5.78182 10.3514 5.78476 10.3491 5.78701 10.3466C5.79257 10.3404 5.79385 10.3333 5.79106 10.3267C5.78897 10.3218 5.78463 10.3171 5.77796 10.3132C5.75875 10.302 5.72765 10.3018 5.70832 10.3129Z" fill="#78E75A"/>
<path d="M4.21289 10.3477L4.26179 10.3761L5.76046 9.51084L5.71156 9.48242L4.21289 10.3477Z" fill="#DEDFFB"/>
<path d="M4.94813 10.3834C4.93988 10.3881 4.93516 10.3942 4.93392 10.4004C4.93259 10.4071 4.9353 10.414 4.94206 10.4198C4.94376 10.4213 4.94569 10.4227 4.9479 10.4239C4.96711 10.4351 4.99866 10.4351 5.01799 10.4239C5.03733 10.4128 5.03743 10.3945 5.01822 10.3834C5.01659 10.3824 5.01484 10.3816 5.01305 10.3808C5.00324 10.3765 4.99124 10.3746 4.97946 10.3751C4.96803 10.3756 4.95684 10.3783 4.94813 10.3834Z" fill="#78E75A"/>
<path d="M4.6552 10.4068C4.63586 10.418 4.63575 10.4362 4.65497 10.4474C4.66726 10.4546 4.68404 10.4571 4.69962 10.4553C4.70893 10.4542 4.71782 10.4516 4.72506 10.4474C4.7265 10.4466 4.7278 10.4457 4.72904 10.4448C4.73353 10.4415 4.7366 10.4378 4.73827 10.4339C4.74108 10.4273 4.73989 10.4204 4.73449 10.4142C4.73218 10.4115 4.72913 10.409 4.72528 10.4068C4.70607 10.3956 4.67453 10.3956 4.6552 10.4068Z" fill="#F45170"/>
<path d="M5.3075 10.4908C5.30056 10.4948 5.29614 10.4997 5.29416 10.5049C5.29162 10.5115 5.29314 10.5186 5.29878 10.5247C5.30099 10.5271 5.3038 10.5293 5.30727 10.5314C5.32648 10.5425 5.35802 10.5425 5.37736 10.5314C5.3967 10.5202 5.3968 10.5019 5.37759 10.4908C5.37727 10.4906 5.37692 10.4904 5.3766 10.4902C5.36763 10.4853 5.3562 10.4827 5.3446 10.4824C5.33124 10.4821 5.31768 10.4849 5.3075 10.4908Z" fill="#BF7D5A"/>
<path d="M4.90162 10.5065C4.88184 10.5179 4.88174 10.5357 4.90139 10.5471C4.91153 10.553 4.92498 10.5558 4.93833 10.5555C4.94968 10.5553 4.96093 10.5527 4.97003 10.5479L4.97148 10.5471C4.97733 10.5437 4.98139 10.5397 4.98372 10.5354C4.98727 10.5289 4.9867 10.5218 4.98203 10.5154C4.97965 10.5122 4.97623 10.5091 4.97171 10.5065C4.95206 10.4951 4.92096 10.4954 4.90162 10.5065Z" fill="#FEBC1F"/>
<path d="M5.70205 10.5651C5.69601 10.5686 5.69185 10.5727 5.68957 10.5772C5.68618 10.5838 5.68697 10.5909 5.69182 10.5972C5.69419 10.6003 5.69749 10.6032 5.70182 10.6057C5.72103 10.6168 5.75257 10.6168 5.77191 10.6057C5.79168 10.5943 5.79135 10.5762 5.77214 10.5651C5.76818 10.5628 5.7637 10.561 5.75894 10.5596C5.74837 10.5566 5.73635 10.5559 5.72504 10.5575C5.71668 10.5587 5.70872 10.5612 5.70205 10.5651Z" fill="#78E75A"/>
<path d="M5.49325 10.571C5.47391 10.5821 5.47337 10.6001 5.49302 10.6116C5.49597 10.6133 5.49924 10.6147 5.50269 10.6159C5.51296 10.6194 5.525 10.6206 5.53651 10.6195C5.54626 10.6185 5.55561 10.6159 5.56311 10.6116C5.57017 10.6075 5.57463 10.6025 5.57656 10.5972C5.57903 10.5904 5.57728 10.5833 5.57134 10.5771C5.5692 10.5749 5.56657 10.5728 5.56334 10.571C5.54369 10.5596 5.51259 10.5598 5.49325 10.571Z" fill="#F45170"/>
<path d="M5.46572 10.7056C5.46276 10.7073 5.4603 10.7092 5.45824 10.7112C5.45198 10.7173 5.44986 10.7244 5.45196 10.7312C5.45368 10.7367 5.45817 10.742 5.46549 10.7462C5.4847 10.7574 5.51624 10.7574 5.53558 10.7462C5.55492 10.7351 5.55502 10.7168 5.53581 10.7056C5.53279 10.7039 5.52945 10.7024 5.52592 10.7012C5.51552 10.6977 5.50334 10.6965 5.49174 10.6977C5.4822 10.6988 5.47308 10.7014 5.46572 10.7056Z" fill="#78E75A"/>
<path d="M5.21965 10.6803C5.20031 10.6915 5.20021 10.7098 5.21942 10.7209C5.22417 10.7237 5.22967 10.7258 5.23555 10.7272C5.24659 10.7298 5.25896 10.73 5.27024 10.7278C5.27728 10.7264 5.28391 10.7242 5.28951 10.7209C5.29425 10.7182 5.29781 10.7151 5.30025 10.7118C5.30511 10.7052 5.30545 10.6979 5.30145 10.6912C5.29906 10.6872 5.29519 10.6835 5.28974 10.6803C5.27052 10.6692 5.23942 10.6689 5.21965 10.6803Z" fill="#F45170"/>
<path d="M4.33203 10.4548L5.26335 10.9961L6.8112 10.1024L6.77278 10.0801L5.2793 10.9423L5.26404 10.9511L5.24495 10.9401L5.14952 10.8846L4.37115 10.4323L4.33203 10.4548Z" fill="#4C5C75"/>
<path d="M3.83398 10.128L3.88289 10.1564L5.41034 9.27451L5.36144 9.24609L3.83398 10.128Z" fill="#DEDFFB"/>
<path d="M3.70898 10.0538L3.75789 10.0822L5.28534 9.20029L5.23644 9.17188L3.70898 10.0538Z" fill="#DEDFFB"/>
<path d="M3.58203 9.98029L3.63093 10.0087L4.94996 9.24717L4.90106 9.21875L3.58203 9.98029Z" fill="#DEDFFB"/>
<path d="M3.45508 9.90727L3.50398 9.93569L5.03143 9.05381L4.98253 9.02539L3.45508 9.90727Z" fill="#DEDFFB"/>
<path d="M3.20312 9.76078L3.25203 9.7892L4.77948 8.90732L4.73058 8.87891L3.20312 9.76078Z" fill="#DEDFFB"/>
<path d="M5.90715 9.97525C5.88781 9.98641 5.88771 10.0047 5.90692 10.0158C5.90832 10.0167 5.90982 10.0174 5.91134 10.0181C5.92106 10.0225 5.93304 10.0245 5.94485 10.0241C5.95656 10.0237 5.96808 10.021 5.97701 10.0158C5.98959 10.0086 5.994 9.99864 5.99061 9.9895C5.98868 9.98428 5.98422 9.97931 5.97724 9.97525C5.9755 9.97424 5.97364 9.97335 5.97172 9.97252C5.95247 9.96416 5.92514 9.96486 5.90715 9.97525Z" fill="#FEBC1F"/>
<path d="M6.13382 9.90104C6.12234 9.90766 6.11754 9.91671 6.11961 9.92535C6.12102 9.93126 6.12561 9.937 6.13359 9.94163C6.13444 9.94213 6.13535 9.94257 6.13625 9.94303C6.15561 9.95275 6.1852 9.9523 6.20368 9.94163C6.22302 9.93047 6.22312 9.9122 6.20391 9.90104C6.19542 9.8961 6.18479 9.89336 6.17389 9.89272C6.16226 9.89204 6.15035 9.89379 6.14039 9.89787C6.1381 9.89881 6.13588 9.89985 6.13382 9.90104Z" fill="#BF7D5A"/>
<path d="M5.94493 9.66198C5.93347 9.66238 5.9219 9.66044 5.91232 9.65625L5.77539 9.92108C5.78681 9.92131 5.79808 9.92381 5.80701 9.92856L5.94493 9.66198Z" fill="#DEDFFB"/>
<path d="M5.72639 9.95941C5.72235 9.95301 5.72236 9.94594 5.72642 9.93954L5.49532 9.93359C5.49888 9.94 5.49851 9.94699 5.49414 9.95327L5.72639 9.95941Z" fill="#DEDFFB"/>
<path d="M5.41992 10.1609C5.4311 10.1587 5.44334 10.1589 5.45433 10.1614L5.46188 9.9702C5.45056 9.97209 5.43832 9.97159 5.42751 9.96875L5.41992 10.1609Z" fill="#DEDFFB"/>
<path d="M5.38892 10.1975C5.38519 10.191 5.38549 10.184 5.3899 10.1776L5.07812 10.1719C5.08262 10.1782 5.08299 10.1853 5.07925 10.1919L5.38892 10.1975Z" fill="#DEDFFB"/>
<path d="M5.94377 10.0236C5.93196 10.024 5.91998 10.022 5.91026 10.0176L5.86719 10.2039C5.87899 10.2035 5.89099 10.2054 5.90077 10.2098L5.94377 10.0236Z" fill="#DEDFFB"/>
<path d="M5.50195 10.2629C5.50924 10.2686 5.51244 10.2755 5.51155 10.2822L5.83156 10.2497C5.82457 10.244 5.82153 10.2372 5.82265 10.2305L5.50195 10.2629Z" fill="#DEDFFB"/>
<path d="M6.08951 10.2281C6.07804 10.23 6.06562 10.2295 6.05469 10.2266L6.07555 10.3372C6.08684 10.335 6.09923 10.3352 6.11032 10.3379L6.08951 10.2281Z" fill="#DEDFFB"/>
<path d="M5.79311 10.3281C5.7959 10.3348 5.79462 10.3418 5.78906 10.348L6.04386 10.3746C6.04046 10.3681 6.0412 10.3609 6.04606 10.3546L5.79311 10.3281Z" fill="#DEDFFB"/>
<path d="M4.97852 10.3753C4.9903 10.3748 5.0023 10.3767 5.01211 10.381L5.04363 10.2109C5.03244 10.2125 5.02047 10.2119 5.00994 10.209L4.97852 10.3753Z" fill="#DEDFFB"/>
<path d="M4.9422 10.4198C4.93544 10.414 4.93273 10.4071 4.93406 10.4004L4.73438 10.4143C4.73977 10.4204 4.74097 10.4274 4.73816 10.434L4.9422 10.4198Z" fill="#DEDFFB"/>
<path d="M5.46251 10.3089C5.45088 10.3092 5.43915 10.3072 5.42964 10.3027L5.34375 10.4829C5.35535 10.4831 5.36678 10.4857 5.37574 10.4907L5.46251 10.3089Z" fill="#DEDFFB"/>
<path d="M4.98242 10.5149C4.98709 10.5213 4.98766 10.5284 4.98411 10.5349L5.29901 10.5237C5.29338 10.5176 5.29185 10.5106 5.29439 10.5039L4.98242 10.5149Z" fill="#DEDFFB"/>
<path d="M5.75847 10.3606C5.74727 10.3625 5.73526 10.3621 5.72461 10.3594L5.72618 10.557C5.7375 10.5553 5.74952 10.5561 5.76008 10.5591L5.75847 10.3606Z" fill="#DEDFFB"/>
<path d="M5.57227 10.5762C5.57821 10.5823 5.57996 10.5895 5.57749 10.5962L5.69293 10.5973C5.68807 10.591 5.68729 10.5839 5.69067 10.5773L5.57227 10.5762Z" fill="#DEDFFB"/>
<path d="M5.53735 10.6188C5.52584 10.62 5.5138 10.6188 5.50352 10.6152L5.49219 10.6974C5.50379 10.6962 5.51597 10.6974 5.52637 10.7009L5.53735 10.6188Z" fill="#DEDFFB"/>
<path d="M5.24459 10.9215L5.24536 10.9396L5.26445 10.9507L5.27971 10.9419L5.27102 10.7272C5.25973 10.7294 5.24736 10.7292 5.23633 10.7266L5.24459 10.9215Z" fill="#DEDFFB"/>
<path d="M5.30198 10.6914C5.30598 10.6981 5.30564 10.7054 5.30078 10.712L5.45202 10.7317C5.44992 10.7249 5.45204 10.7178 5.45831 10.7118L5.30198 10.6914Z" fill="#DEDFFB"/>
<path d="M4.69922 10.4558L5.14961 10.8843L5.24504 10.9397L5.24427 10.9216L4.97015 10.5484C4.96104 10.5533 4.94979 10.5558 4.93844 10.5561L5.15431 10.8504L4.72864 10.4453C4.7274 10.4462 4.7261 10.4471 4.72466 10.4479C4.71742 10.4521 4.70853 10.4548 4.69922 10.4558Z" fill="#DEDFFB"/>
<path d="M6.10102 9.7832C6.09144 9.78772 6.07983 9.78981 6.06836 9.78961L6.14146 9.89778C6.15142 9.8937 6.16333 9.89195 6.17496 9.89263L6.10102 9.7832Z" fill="#DEDFFB"/>
<path d="M5.9707 9.97207C5.97262 9.9729 5.97448 9.97378 5.97622 9.97479C5.9832 9.97885 5.98766 9.98382 5.98959 9.98905L6.13632 9.94346C6.13542 9.943 6.13451 9.94256 6.13366 9.94206C6.12568 9.93743 6.12109 9.93169 6.11968 9.92578L5.9707 9.97207Z" fill="#DEDFFB"/>
<path d="M6.33661 10.1599L6.11328 10.1835C6.12104 10.189 6.12468 10.1958 6.12428 10.2026L6.37156 10.1766L6.36282 9.86914C6.35176 9.87161 6.33947 9.87168 6.32823 9.86937L6.33661 10.1599Z" fill="#DEDFFB"/>
<path d="M7.47835 5.44727L7.48226 6.82721L7.19727 6.99175L7.19336 5.6118L7.47835 5.44727Z" fill="#8FABFE"/>
<path d="M7.98226 4.57812L7.9878 6.53481L7.70281 6.69935L7.69727 4.74266L7.98226 4.57812Z" fill="#F45170"/>
<path d="M8.49006 4.86328L8.49398 6.24323L8.20899 6.40776L8.20508 5.02782L8.49006 4.86328Z" fill="#78E75A"/>
<path d="M8.99202 4.18164L8.99703 5.95097L8.71205 6.1155L8.70703 4.34618L8.99202 4.18164Z" fill="#DBA660"/>
<path d="M9.50179 4.87891L9.504 5.6593L9.21901 5.82384L9.2168 5.04345L9.50179 4.87891Z" fill="#78E75A"/>
<path d="M10.0057 3.98828L10.0096 5.36823L9.72461 5.53276L9.7207 4.15282L10.0057 3.98828Z" fill="#FEBC1F"/>
<path d="M10.5116 4.00977L10.5146 5.0769L10.2296 5.24144L10.2266 4.17431L10.5116 4.00977Z" fill="#F45170"/>
</svg>
