<svg width="20" height="20" viewBox="0 0 20 20" fill="none" xmlns="http://www.w3.org/2000/svg">
<path d="M2.65409 15.8031L2.65234 16.4213L3.29492 16.7924L3.82998 16.4814L3.83175 15.8632L3.18918 15.4922L2.65409 15.8031Z" fill="#111D33"/>
<path d="M6.31418 17.2969L5.77912 17.6078L5.77734 18.226L6.41994 18.597L6.955 18.2861L6.95675 17.6679L6.31418 17.2969Z" fill="#111D33"/>
<path d="M2.6543 15.8031L3.18936 15.4922L3.83193 15.8632L3.29687 16.1741L2.6543 15.8031Z" fill="#4C5C75"/>
<path d="M3.29667 16.1742L3.83174 15.8633L3.82998 16.4815L3.29492 16.7925L3.29667 16.1742Z" fill="#1D2943"/>
<path d="M3.29667 16.1737L3.29492 16.792L2.65234 16.421L2.6541 15.8027L3.29667 16.1737Z" fill="#111D33"/>
<path d="M5.7793 17.6078L6.31436 17.2969L6.95693 17.6679L6.42187 17.9788L5.7793 17.6078Z" fill="#4C5C75"/>
<path d="M6.42167 17.9789L6.95674 17.668L6.95498 18.2862L6.41992 18.5971L6.42167 17.9789Z" fill="#1D2943"/>
<path d="M6.42167 17.9784L6.41992 18.5966L5.77734 18.2257L5.7791 17.6074L6.42167 17.9784Z" fill="#111D33"/>
<path d="M10.9746 14.5609L11.5097 14.25L12.1522 14.621L11.6172 14.9319L10.9746 14.5609Z" fill="#4C5C75"/>
<path d="M11.617 14.9315L11.6152 15.5498L10.9727 15.1788L10.9744 14.5605L11.617 14.9315Z" fill="#111D33"/>
<path d="M5.33362 9.60168L4.90543 9.85052L4.47425 9.60156L4.45974 16.3501L3.78895 15.9629L3.36078 16.2117L3.35938 16.7064L6.40899 18.4671L6.4104 17.9724L6.83856 17.7236L5.31805 16.8457L5.33362 9.60168Z" fill="#9EA9C9"/>
<path d="M10.529 6.5548L10.1008 6.80364L9.66956 6.55469L9.65507 13.3033L8.98428 12.916L8.55609 13.1648L8.55469 13.6596L11.6043 15.4203L11.6057 14.9255L12.0339 14.6767L10.5134 13.7988L10.529 6.5548Z" fill="#9EA9C9"/>
<path d="M15.7087 10.7539L15.7242 3.50988L15.2961 3.75872L14.8649 3.50977L14.8504 10.2583L14.1796 9.87108L13.7514 10.1199L13.75 10.6147L16.7996 12.3753L16.801 11.8806L17.2292 11.6318L15.7087 10.7539Z" fill="#9EA9C9"/>
<path d="M3.36133 16.2117L3.78951 15.9629L4.88741 16.5968L4.45923 16.8456L3.36133 16.2117Z" fill="#9EA9C9"/>
<path d="M4.89062 17.0945L5.31881 16.8457L6.83932 17.7236L6.41114 17.9724L4.89062 17.0945Z" fill="#9EA9C9"/>
<path d="M4.90619 9.8504L5.33437 9.60156L5.31881 16.8456L4.89062 17.0944L4.90619 9.8504Z" fill="#E3E7F0"/>
<path d="M4.90544 9.85052L4.88988 17.0945L6.4104 17.9724L6.40899 18.4671L3.35938 16.7064L3.36078 16.2117L4.45868 16.8456L4.47424 9.60156L4.90544 9.85052Z" fill="#B0B8CF"/>
<path d="M5.7793 17.6078L6.31436 17.2969L6.95693 17.6679L6.42187 17.9788L5.7793 17.6078Z" fill="#4C5C75"/>
<path d="M6.42167 17.9784L6.41992 18.5966L5.77734 18.2257L5.7791 17.6074L6.42167 17.9784Z" fill="#111D33"/>
<path d="M8.55664 13.1648L8.98482 12.916L10.0827 13.5499L9.65454 13.7987L8.55664 13.1648Z" fill="#9EA9C9"/>
<path d="M10.0859 14.0477L10.5141 13.7988L12.0346 14.6767L11.6065 14.9255L10.0859 14.0477Z" fill="#9EA9C9"/>
<path d="M10.1015 6.80352L10.5297 6.55469L10.5141 13.7987L10.0859 14.0475L10.1015 6.80352Z" fill="#E3E7F0"/>
<path d="M10.1008 6.80364L10.0852 14.0477L11.6057 14.9255L11.6043 15.4203L8.55469 13.6596L8.55609 13.1648L9.65399 13.7987L9.66955 6.55469L10.1008 6.80364Z" fill="#B0B8CF"/>
<path d="M11.6153 15.5506L10.9727 15.1797L11.6153 15.5506Z" fill="#111D33"/>
<path d="M13.7539 10.1199L14.1821 9.87109L15.28 10.505L14.8518 10.7538L13.7539 10.1199Z" fill="#9EA9C9"/>
<path d="M15.2832 11.0027L15.7114 10.7539L17.2319 11.6318L16.8037 11.8806L15.2832 11.0027Z" fill="#9EA9C9"/>
<path d="M15.2988 3.7586L15.7269 3.50977L15.7114 10.7538L15.2832 11.0026L15.2988 3.7586Z" fill="#E3E7F0"/>
<path d="M15.298 3.75872L15.2825 11.0027L16.803 11.8806L16.8016 12.3753L13.752 10.6147L13.7534 10.1199L14.8513 10.7538L14.8668 3.50977L15.298 3.75872Z" fill="#B0B8CF"/>
<path d="M7.84941 12.7562L7.84766 13.3745L8.49023 13.7455L9.02529 13.4345L9.02704 12.8163L8.38447 12.4453L7.84941 12.7562Z" fill="#1D2943"/>
<path d="M13.0447 9.71132L13.043 10.3296L13.6856 10.7006L14.2206 10.3896L14.2224 9.77137L13.5798 9.40039L13.0447 9.71132Z" fill="#1D2943"/>
<path d="M12.152 14.6218V15.2406L11.6161 15.5501L10.9746 15.1802V14.5614L11.5105 14.252L12.152 14.6218Z" fill="#1D2943"/>
<path d="M16.7048 11.2051L16.1697 11.516L16.168 12.1342L16.8105 12.5052L17.3456 12.1943L17.3474 11.5761L16.7048 11.2051Z" fill="#1D2943"/>
<path d="M7.84961 12.7563L8.38467 12.4453L9.02725 12.8163L8.49218 13.1272L7.84961 12.7563Z" fill="#4C5C75"/>
<path d="M8.49199 13.1274L9.02705 12.8164L9.0253 13.4346L8.49023 13.7456L8.49199 13.1274Z" fill="#1D2943"/>
<path d="M8.55664 13.1648L8.98482 12.916L10.0827 13.5499L9.65454 13.7987L8.55664 13.1648Z" fill="#9EA9C9"/>
<path d="M10.1008 6.80364L10.0852 14.0477L11.6057 14.9255L11.6043 15.4203L8.55469 13.6596L8.55609 13.1648L9.65399 13.7987L9.66955 6.55469L10.1008 6.80364Z" fill="#B0B8CF"/>
<path d="M8.49198 13.1269L8.49023 13.7451L7.84766 13.3741L7.84941 12.7559L8.49198 13.1269Z" fill="#111D33"/>
<path d="M11.617 14.932L12.152 14.6211L12.1503 15.2393L11.6152 15.5503L11.617 14.932Z" fill="#1D2943"/>
<path d="M13.0449 9.71133L13.58 9.40039L14.2226 9.77138L13.6875 10.0823L13.0449 9.71133Z" fill="#4C5C75"/>
<path d="M13.6873 10.0824L14.2224 9.77148L14.2206 10.3897L13.6855 10.7007L13.6873 10.0824Z" fill="#1D2943"/>
<path d="M13.752 10.1199L14.1801 9.87109L15.278 10.505L14.8499 10.7538L13.752 10.1199Z" fill="#9EA9C9"/>
<path d="M15.2961 3.75872L15.2805 11.0027L16.801 11.8806L16.7996 12.3753L13.75 10.6147L13.7514 10.1199L14.8493 10.7538L14.8649 3.50977L15.2961 3.75872Z" fill="#B0B8CF"/>
<path d="M13.6873 10.0819L13.6855 10.7002L13.043 10.3292L13.0447 9.71094L13.6873 10.0819Z" fill="#111D33"/>
<path d="M11.617 14.9315L11.6152 15.5498L10.9727 15.1788L10.9744 14.5605L11.617 14.9315Z" fill="#111D33"/>
<path d="M10.9746 14.5609L11.5097 14.25L12.1522 14.621L11.6172 14.9319L10.9746 14.5609Z" fill="#4C5C75"/>
<path d="M16.1699 11.516L16.705 11.2051L17.3476 11.5761L16.8125 11.887L16.1699 11.516Z" fill="#4C5C75"/>
<path d="M16.8123 11.8871L17.3474 11.5762L17.3456 12.1944L16.8105 12.5053L16.8123 11.8871Z" fill="#1D2943"/>
<path d="M16.8123 11.8866L16.8105 12.5048L16.168 12.1339L16.1697 11.5156L16.8123 11.8866Z" fill="#111D33"/>
<path d="M19.0567 4.33443L19.0529 5.29669C19.0529 5.41369 18.9774 5.53067 18.819 5.62501L6.585 12.7948C6.26045 12.9835 5.74725 12.9722 5.44159 12.7986C5.385 12.7646 5.33216 12.7231 5.29441 12.6778C4.85291 12.1759 4.30951 11.7382 3.65669 11.3608C3.00762 10.9873 2.24915 10.674 1.38876 10.4212C1.30576 10.3986 1.23781 10.3684 1.17744 10.3344C1.02274 10.2439 0.939706 10.1231 0.943483 10.0024V9.0401C0.943483 8.92312 1.02274 8.80236 1.18122 8.7118L13.4114 1.53821C13.7359 1.35331 14.2491 1.36084 14.551 1.53821C14.6076 1.56841 14.6529 1.60613 14.6944 1.64764C15.151 2.1382 15.7095 2.57595 16.3661 2.9533C17.0227 3.33444 17.7774 3.65519 18.6341 3.91934C18.702 3.94198 18.7661 3.9684 18.819 3.9986C18.9737 4.08916 19.0567 4.20992 19.0567 4.33443Z" fill="#AA6256"/>
<path d="M19.0562 4.33398L19.0545 5.29607C19.0528 5.41422 18.9768 5.53237 18.8182 5.6252L6.58591 12.796C6.26014 12.9851 5.74704 12.9732 5.44322 12.7977C5.38415 12.7639 5.33351 12.7234 5.293 12.6779C3.7499 10.9211 1.50668 10.5275 1.17969 10.3351C1.02441 10.2456 0.941705 10.1241 0.943384 10.0026L0.945074 9.03884C0.945074 9.16036 1.0261 9.28189 1.18138 9.37134C1.24045 9.4051 1.30966 9.43548 1.38898 9.45742C2.84422 9.88376 4.29148 10.5701 5.29638 11.7141C5.33689 11.7597 5.38752 11.8002 5.44491 11.8339C5.75042 12.0095 6.26352 12.0213 6.58759 11.8322L18.8215 4.66143C18.9802 4.57029 19.0562 4.45045 19.0562 4.33398Z" fill="#AA6256"/>
<path d="M18.8206 4.00057C19.1254 4.17653 19.1443 4.47383 18.8213 4.66152L6.58767 11.8328C6.26345 12.0212 5.7498 12.0095 5.44533 11.8337C5.38685 11.8 5.33613 11.7602 5.29589 11.7146C4.29312 10.571 2.84948 9.88484 1.38943 9.45796C1.3099 9.43476 1.24044 9.40532 1.18162 9.37136C0.877594 9.19583 0.856219 8.89891 1.18006 8.71072L13.4126 1.54005C13.7361 1.35208 14.2486 1.36172 14.5529 1.5374C14.87 1.72045 15.6549 2.99718 18.6324 3.91988C18.7038 3.94213 18.7667 3.96945 18.8206 4.00057Z" fill="#DBA660"/>
<path d="M5.70743 9.19436C5.71834 9.18806 5.7184 9.17756 5.70756 9.17125L5.5756 9.09457C5.56476 9.08827 5.54662 9.08827 5.5357 9.09457L5.39379 9.1765C5.38197 9.18333 5.38191 9.19384 5.39275 9.20014L5.52471 9.27682C5.53555 9.28312 5.55369 9.28313 5.56551 9.2763L5.70743 9.19436Z" fill="#4C5C75"/>
<path d="M8.59311 8.33423V8.62856C8.59311 8.64367 8.58177 8.66253 8.55913 8.67384L5.63083 10.3644C5.58555 10.3908 5.51385 10.3908 5.46857 10.3644L3.60819 9.2814C3.58555 9.27007 3.57422 9.25499 3.57422 9.2361V8.94555C3.57422 8.92669 3.58555 8.9078 3.60819 8.89649L6.5365 7.20593C6.58178 7.18327 6.65348 7.17951 6.69876 7.20593L8.55913 8.28895C8.58177 8.30404 8.59311 8.31912 8.59311 8.33423Z" fill="#E9E7FC"/>
<path d="M8.59177 8.6275C8.59177 8.64575 8.58037 8.66286 8.55756 8.6754L5.62998 10.3656C5.5855 10.3918 5.51251 10.3918 5.46917 10.3656L3.60565 9.28327C3.58398 9.27072 3.57258 9.25362 3.57258 9.23765L3.57227 8.94608C3.57227 8.96205 3.58367 8.97916 3.60534 8.99171L5.46886 10.074C5.51334 10.1002 5.58519 10.1002 5.62967 10.074L8.55725 8.38383C8.58006 8.37129 8.59147 8.35304 8.59147 8.33594L8.59177 8.6275Z" fill="#E9E7FC"/>
<path d="M3.606 8.89768C3.56159 8.92332 3.56063 8.96494 3.60548 8.99101L5.46828 10.0735C5.51241 10.0992 5.58499 10.0992 5.62941 10.0735L8.5573 8.38313C8.60244 8.35707 8.60268 8.31503 8.55855 8.28938L6.69575 7.20684C6.6509 7.18078 6.57904 7.18119 6.5339 7.20726L3.606 8.89768Z" fill="#F8F9FE"/>
<path d="M6.37225 8.10993C6.38249 8.10402 6.38339 8.09466 6.37238 8.08826L5.81018 7.75682C5.79916 7.75042 5.78216 7.75042 5.77192 7.75633L4.67047 8.39225C4.65937 8.39866 4.65932 8.40851 4.67034 8.41491L5.23253 8.74635C5.24354 8.75275 5.25971 8.75226 5.2708 8.74586L6.37225 8.10993Z" fill="#E9E7FC"/>
<path d="M7.03394 8.99554C7.04577 8.98871 7.04492 8.97873 7.03317 8.9719L6.90212 8.89575C6.89037 8.88892 6.87405 8.88892 6.86223 8.89575L6.72031 8.97768C6.70849 8.98451 6.70752 8.99449 6.71927 9.00131L6.85032 9.07747C6.86207 9.0843 6.8802 9.0843 6.89203 9.07747L7.03394 8.99554Z" fill="#4C5C75"/>
<path d="M7.35782 7.92086C7.36873 7.91456 7.36969 7.90458 7.35795 7.89775L7.22689 7.82159C7.21514 7.81477 7.19701 7.81477 7.1861 7.82107L7.04327 7.90353C7.03236 7.90983 7.03229 7.92033 7.04404 7.92716L7.1751 8.00332C7.18684 8.01015 7.20408 8.00963 7.21499 8.00332L7.35782 7.92086Z" fill="#4C5C75"/>
<path d="M5.4341 9.32718C5.44501 9.32087 5.44507 9.31037 5.43423 9.30407L5.30227 9.22738C5.29143 9.22108 5.27329 9.22108 5.26237 9.22738L5.11955 9.30984C5.10864 9.31614 5.10858 9.32665 5.11942 9.33295L5.25138 9.40963C5.26222 9.41594 5.28036 9.41594 5.29127 9.40963L5.4341 9.32718Z" fill="#4C5C75"/>
<path d="M4.90664 9.33493C4.91756 9.32862 4.91852 9.31864 4.90677 9.31182L4.77572 9.23566C4.76397 9.22883 4.74584 9.22883 4.73492 9.23513L4.5921 9.31759C4.58119 9.32389 4.58112 9.3344 4.59287 9.34122L4.72392 9.41739C4.73567 9.42421 4.75291 9.42369 4.76382 9.41738L4.90664 9.33493Z" fill="#4C5C75"/>
<path d="M5.17813 9.17868C5.18904 9.17237 5.19 9.16239 5.17826 9.15557L5.0472 9.07941C5.03545 9.07258 5.01732 9.07258 5.00641 9.07888L4.86359 9.16134C4.85267 9.16764 4.85261 9.17815 4.86436 9.18497L4.99541 9.26113C5.00715 9.26796 5.02439 9.26744 5.03531 9.26113L5.17813 9.17868Z" fill="#4C5C75"/>
<path d="M5.67272 9.7805C5.68363 9.77419 5.68369 9.76369 5.67195 9.75686L5.5409 9.68071C5.52915 9.67388 5.51192 9.6744 5.501 9.68071L5.35818 9.76317C5.34726 9.76947 5.3463 9.77945 5.35805 9.78628L5.4891 9.86243C5.50085 9.86926 5.51898 9.86926 5.5299 9.86296L5.67272 9.7805Z" fill="#4C5C75"/>
<path d="M5.9442 9.62425C5.95512 9.61794 5.95518 9.60744 5.94343 9.60061L5.81238 9.52446C5.80063 9.51763 5.7834 9.51815 5.77248 9.52446L5.62966 9.60692C5.61875 9.61322 5.61778 9.6232 5.62953 9.63002L5.76058 9.70618C5.77233 9.71301 5.79046 9.71301 5.80138 9.70671L5.9442 9.62425Z" fill="#4C5C75"/>
<path d="M5.68947 9.47561C5.70039 9.46931 5.70135 9.45933 5.6896 9.4525L5.55765 9.37582C5.54681 9.36952 5.52867 9.36952 5.51776 9.37582L5.26577 9.52131L5.03079 9.38475C5.01994 9.37844 5.00181 9.37844 4.99089 9.38475L4.84807 9.4672C4.83715 9.47351 4.8371 9.48401 4.84794 9.49031L5.23476 9.71511C5.24651 9.72194 5.26374 9.72141 5.27465 9.71511L5.68947 9.47561Z" fill="#4C5C75"/>
<path d="M6.21754 9.468C6.22845 9.46169 6.22851 9.45119 6.21676 9.44436L6.08572 9.36821C6.07397 9.36138 6.05674 9.3619 6.04582 9.36821L5.90391 9.45014C5.89208 9.45697 5.89112 9.46695 5.90287 9.47378L6.03392 9.54993C6.04567 9.55676 6.0638 9.55676 6.07562 9.54993L6.21754 9.468Z" fill="#4C5C75"/>
<path d="M5.96133 9.31936C5.97224 9.31306 5.97231 9.30256 5.96146 9.29625L5.82951 9.21957C5.81866 9.21327 5.80053 9.21327 5.78961 9.21957L5.6477 9.3015C5.63587 9.30833 5.63581 9.31883 5.64666 9.32514L5.77861 9.40182C5.78946 9.40812 5.80759 9.40812 5.81942 9.4013L5.96133 9.31936Z" fill="#4C5C75"/>
<path d="M6.48912 9.30979C6.50004 9.30349 6.5001 9.29299 6.48835 9.28616L6.3573 9.21C6.34555 9.20318 6.32832 9.2037 6.31741 9.21L6.17458 9.29246C6.16367 9.29877 6.16271 9.30874 6.17445 9.31557L6.3055 9.39173C6.31725 9.39856 6.33539 9.39855 6.3463 9.39225L6.48912 9.30979Z" fill="#4C5C75"/>
<path d="M6.23487 9.16116C6.24579 9.15486 6.24585 9.14435 6.235 9.13805L6.10305 9.06137C6.09221 9.05506 6.07408 9.05507 6.06316 9.06137L5.92034 9.14383C5.90942 9.15013 5.90936 9.16063 5.92021 9.16694L6.05215 9.24362C6.063 9.24992 6.08114 9.24992 6.09205 9.24362L6.23487 9.16116Z" fill="#4C5C75"/>
<path d="M6.76256 9.15159C6.77348 9.14529 6.77354 9.13479 6.76179 9.12796L6.63074 9.0518C6.61899 9.04497 6.60176 9.0455 6.59084 9.0518L6.44802 9.13426C6.43711 9.14056 6.43614 9.15054 6.44789 9.15737L6.57894 9.23353C6.59069 9.24035 6.60882 9.24035 6.61974 9.23405L6.76256 9.15159Z" fill="#4C5C75"/>
<path d="M5.97902 9.01272C5.98993 9.00642 5.98999 8.99591 5.97915 8.98961L5.84719 8.91293C5.83635 8.90663 5.81821 8.90663 5.8073 8.91293L5.66447 8.99539C5.65356 9.00169 5.6535 9.0122 5.66434 9.0185L5.7963 9.09518C5.80714 9.10148 5.82528 9.10148 5.8362 9.09518L5.97902 9.01272Z" fill="#4C5C75"/>
<path d="M6.50636 9.00295C6.51727 8.99665 6.51734 8.98615 6.50649 8.97985L6.37454 8.90317C6.36369 8.89686 6.34556 8.89686 6.33464 8.90317L6.19182 8.98562C6.1809 8.99193 6.18084 9.00243 6.19169 9.00873L6.32364 9.08541C6.33449 9.09172 6.35262 9.09172 6.36354 9.08541L6.50636 9.00295Z" fill="#4C5C75"/>
<path d="M6.2505 8.85647C6.26142 8.85017 6.26147 8.83966 6.25063 8.83336L6.11868 8.75668C6.10783 8.75038 6.0897 8.75038 6.07878 8.75668L5.93596 8.83914C5.92504 8.84544 5.92499 8.85595 5.93583 8.86225L6.06778 8.93893C6.07863 8.94523 6.09676 8.94523 6.10768 8.93893L6.2505 8.85647Z" fill="#4C5C75"/>
<path d="M6.77773 8.8469C6.78956 8.84008 6.78871 8.8301 6.77786 8.82379L6.64592 8.74711C6.63507 8.74081 6.61784 8.74029 6.60602 8.74711L6.46411 8.82905C6.45228 8.83588 6.45222 8.84638 6.46307 8.85268L6.59502 8.92936C6.60586 8.93567 6.62399 8.93567 6.63582 8.92884L6.77773 8.8469Z" fill="#4C5C75"/>
<path d="M6.52383 8.69847C6.53566 8.69164 6.5348 8.68166 6.52396 8.67536L6.39201 8.59868C6.38116 8.59237 6.36394 8.59185 6.35211 8.59868L6.2102 8.68061C6.19837 8.68744 6.19832 8.69794 6.20916 8.70424L6.34111 8.78093C6.35196 8.78723 6.37009 8.78723 6.38192 8.7804L6.52383 8.69847Z" fill="#4C5C75"/>
<path d="M7.05128 8.6885C7.0622 8.6822 7.06226 8.6717 7.05141 8.66539L6.91946 8.58871C6.90861 8.58241 6.89048 8.58241 6.87956 8.58871L6.73674 8.67117C6.72583 8.67747 6.72576 8.68798 6.73661 8.69428L6.86856 8.77096C6.87941 8.77727 6.89754 8.77726 6.90846 8.77096L7.05128 8.6885Z" fill="#4C5C75"/>
<path d="M6.79542 8.54202C6.80634 8.53572 6.8064 8.52521 6.79555 8.51891L6.6636 8.44223C6.65276 8.43593 6.63462 8.43592 6.6237 8.44223L6.48088 8.52469C6.46997 8.53099 6.46991 8.54149 6.48075 8.54779L6.61271 8.62448C6.62355 8.63078 6.64169 8.63078 6.6526 8.62448L6.79542 8.54202Z" fill="#4C5C75"/>
<path d="M7.85035 8.52315C7.86217 8.51632 7.86224 8.50582 7.85049 8.49899L7.71944 8.42283C7.70769 8.41601 7.69046 8.41653 7.67863 8.42336L7.53672 8.50529C7.52489 8.51212 7.52393 8.5221 7.53568 8.52893L7.66673 8.60508C7.67848 8.61191 7.69661 8.61191 7.70844 8.60508L7.85035 8.52315Z" fill="#4C5C75"/>
<path d="M8.12389 8.36643C8.13481 8.36013 8.13487 8.34963 8.12312 8.3428L7.99207 8.26665C7.98032 8.25982 7.96309 8.26034 7.95217 8.26664L7.80935 8.3491C7.79843 8.35541 7.79747 8.36538 7.80922 8.37221L7.94027 8.44837C7.95202 8.4552 7.97015 8.4552 7.98107 8.44889L8.12389 8.36643Z" fill="#4C5C75"/>
<path d="M6.81326 8.23532C6.82418 8.22901 6.82513 8.21903 6.81339 8.21221L6.68234 8.13605C6.67059 8.12922 6.65246 8.12922 6.64154 8.13552L5.13782 9.0037C5.12599 9.01053 5.12593 9.02103 5.13768 9.02786L5.26873 9.10402C5.28048 9.11084 5.29771 9.11032 5.30954 9.10349L6.81326 8.23532Z" fill="#4C5C75"/>
<path d="M7.86705 8.2178C7.87796 8.2115 7.87803 8.20099 7.86718 8.19469L7.73523 8.11801C7.72438 8.1117 7.70625 8.11171 7.69533 8.11801L7.28051 8.35751C7.26869 8.36433 7.26862 8.37484 7.27947 8.38114L7.41142 8.45782C7.42227 8.46413 7.4404 8.46412 7.45223 8.4573L7.86705 8.2178Z" fill="#4C5C75"/>
<path d="M7.61377 8.06936C7.62468 8.06306 7.62474 8.05255 7.6139 8.04625L7.48194 7.96957C7.4711 7.96327 7.45296 7.96327 7.44205 7.96957L6.75432 8.36663C6.7434 8.37293 6.74335 8.38344 6.75419 8.38974L6.88614 8.46642C6.89699 8.47273 6.91512 8.47273 6.92604 8.46642L7.61377 8.06936Z" fill="#4C5C75"/>
<path d="M7.30748 8.83714C7.3184 8.83084 7.31846 8.82033 7.30671 8.8135L7.17566 8.73735C7.16391 8.73052 7.14668 8.73104 7.13577 8.73735L6.99294 8.81981C6.98203 8.82611 6.98106 8.83609 6.99281 8.84292L7.12386 8.91907C7.13561 8.9259 7.15374 8.9259 7.16466 8.9196L7.30748 8.83714Z" fill="#4C5C75"/>
<path d="M7.32276 8.53225C7.33368 8.52595 7.33374 8.51545 7.32289 8.50914L7.19094 8.43246C7.1801 8.42616 7.16197 8.42616 7.15105 8.43246L7.00823 8.51492C6.99731 8.52122 6.99725 8.53172 7.0081 8.53803L7.14005 8.61471C7.15089 8.62101 7.16903 8.62101 7.17994 8.61471L7.32276 8.53225Z" fill="#4C5C75"/>
<path d="M7.57897 8.68089C7.58988 8.67459 7.58994 8.66408 7.57819 8.65726L7.44715 8.5811C7.4354 8.57427 7.41817 8.5748 7.40725 8.5811L7.26443 8.66356C7.25351 8.66986 7.25255 8.67984 7.2643 8.68667L7.39535 8.76282C7.4071 8.76965 7.42523 8.76965 7.43614 8.76335L7.57897 8.68089Z" fill="#4C5C75"/>
<path d="M7.08426 8.07757C7.09609 8.07074 7.09705 8.06076 7.0853 8.05394L6.95425 7.97778C6.9425 7.97095 6.92437 7.97095 6.91254 7.97778L6.77063 8.05971C6.7588 8.06654 6.75874 8.07704 6.77049 8.08387L6.90154 8.16003C6.91329 8.16685 6.93052 8.16633 6.94235 8.1595L7.08426 8.07757Z" fill="#4C5C75"/>
<path d="M5.7729 10.2711L5.75781 10.2598C5.76159 10.2635 5.76159 10.2635 5.76534 10.2635C5.76534 10.2673 5.76912 10.2711 5.7729 10.2711Z" fill="#1D2943"/>
<path d="M8.83753 8.43676C8.83753 8.48582 8.80358 8.54998 8.7583 8.57638L5.83 10.2632C5.80358 10.2783 5.78094 10.2783 5.76583 10.2632C5.76207 10.2632 5.76207 10.2632 5.7583 10.2594L5.52434 10.1273C5.50923 10.1198 5.5017 10.1009 5.5017 10.0745L5.49414 7.91978C5.49414 7.86697 5.52809 7.80658 5.57715 7.78016L8.50168 6.0896C8.52432 6.07827 8.54696 6.07451 8.56207 6.08205L8.7998 6.22544C8.81867 6.22922 8.83375 6.24808 8.83375 6.27828L8.83753 8.43676Z" fill="#1D2943"/>
<path d="M8.80786 6.22734C8.79418 6.21936 8.77365 6.2205 8.75084 6.23305L5.82326 7.92322C5.77764 7.94946 5.74114 8.01218 5.74228 8.0635L5.74798 10.219C5.74798 10.2441 5.75711 10.2623 5.77194 10.2703L5.52379 10.1261C5.50897 10.1182 5.49984 10.0999 5.49984 10.0748L5.49414 7.91934C5.49414 7.86802 5.52949 7.8053 5.57512 7.77906L8.5027 6.08889C8.52551 6.07634 8.54603 6.0752 8.56086 6.08319L8.80786 6.22734Z" fill="#1D2943"/>
<path d="M8.75137 6.23364C8.79578 6.208 8.83231 6.22881 8.83246 6.27985L8.83857 8.43519C8.83871 8.48623 8.80242 8.54908 8.758 8.57473L5.83011 10.2651C5.78497 10.2912 5.74844 10.2704 5.7483 10.2194L5.74219 8.06402C5.74204 8.01298 5.77833 7.95012 5.82348 7.92406L8.75137 6.23364Z" fill="#4C5C75"/>
<path d="M7.28876 7.94119C7.43678 7.85573 7.55851 7.9237 7.55899 8.0938C7.55947 8.26389 7.43853 8.47197 7.29051 8.55743C7.14248 8.64289 7.02197 8.57422 7.02149 8.40412C7.021 8.23403 7.14073 8.02665 7.28876 7.94119Z" fill="#1D2943"/>
<path d="M12.9574 5.00296C12.9683 4.99665 12.9684 4.98615 12.9576 4.97985L12.8256 4.90316C12.8148 4.89686 12.7966 4.89686 12.7857 4.90316L12.6438 4.9851C12.632 4.99193 12.6319 5.00243 12.6428 5.00873L12.7747 5.08542C12.7855 5.09172 12.8037 5.09172 12.8155 5.08489L12.9574 5.00296Z" fill="#4C5C75"/>
<path d="M15.8411 4.14242V4.43677C15.8411 4.45185 15.8298 4.47074 15.8072 4.48205L12.8789 6.17261C12.8374 6.19903 12.7619 6.19903 12.7204 6.17261L10.8562 5.08959C10.8336 5.07828 10.8223 5.06317 10.8223 5.04431V4.75376C10.8223 4.73865 10.8336 4.71979 10.8562 4.7047L13.7845 3.0179C13.8298 2.99148 13.9015 2.9877 13.9468 3.01412L15.8109 4.09714C15.8298 4.10847 15.8411 4.12733 15.8411 4.14242Z" fill="#E9E7FC"/>
<path d="M15.8418 4.4361C15.8418 4.45434 15.8304 4.47145 15.8076 4.48399L12.88 6.17417C12.8355 6.2004 12.7625 6.2004 12.7192 6.17417L10.8556 5.09187C10.834 5.07932 10.8226 5.06221 10.8226 5.04624L10.8223 4.75468C10.8223 4.77065 10.8337 4.78776 10.8553 4.8003L12.7189 5.8826C12.7633 5.90883 12.8352 5.90883 12.8797 5.8826L15.8072 4.19243C15.8301 4.17989 15.8415 4.16163 15.8415 4.14453L15.8418 4.4361Z" fill="#E9E7FC"/>
<path d="M10.856 4.70627C10.8116 4.73192 10.8106 4.77354 10.8555 4.7996L12.7183 5.88214C12.7624 5.90779 12.835 5.90779 12.8794 5.88214L15.8073 4.19172C15.8524 4.16566 15.8527 4.12362 15.8085 4.09797L13.9457 3.01543C13.9009 2.98937 13.829 2.98979 13.7839 3.01585L10.856 4.70627Z" fill="#F8F9FE"/>
<path d="M13.6223 3.91852C13.6325 3.91261 13.6334 3.90325 13.6224 3.89685L13.0602 3.56541C13.0492 3.55901 13.0322 3.55901 13.0219 3.56492L11.9205 4.20085C11.9094 4.20725 11.9093 4.2171 11.9203 4.2235L12.4825 4.55494C12.4935 4.56134 12.5097 4.56086 12.5208 4.55445L13.6223 3.91852Z" fill="#E9E7FC"/>
<path d="M14.2859 4.80413C14.2977 4.7973 14.2969 4.78732 14.2851 4.7805L14.1541 4.70434C14.1423 4.69751 14.126 4.69751 14.1142 4.70434L13.9723 4.78627C13.9604 4.7931 13.9595 4.80308 13.9712 4.80991L14.1023 4.88606C14.114 4.89289 14.1322 4.89289 14.144 4.88606L14.2859 4.80413Z" fill="#4C5C75"/>
<path d="M14.6098 3.72946C14.6207 3.72316 14.6216 3.71317 14.6099 3.70635L14.4788 3.63019C14.4671 3.62336 14.449 3.62336 14.438 3.62966L14.2952 3.71212C14.2843 3.71843 14.2842 3.72893 14.296 3.73576L14.4271 3.81192C14.4388 3.81874 14.456 3.81822 14.4669 3.81192L14.6098 3.72946Z" fill="#4C5C75"/>
<path d="M12.686 5.13577C12.697 5.12947 12.697 5.11896 12.6862 5.11266L12.5542 5.03598C12.5434 5.02968 12.5252 5.02967 12.5143 5.03598L12.3715 5.11843C12.3606 5.12474 12.3605 5.13524 12.3714 5.14154L12.5033 5.21823C12.5142 5.22453 12.5323 5.22453 12.5432 5.21823L12.686 5.13577Z" fill="#4C5C75"/>
<path d="M12.1586 5.14352C12.1695 5.13722 12.1705 5.12724 12.1587 5.12041L12.0277 5.04425C12.0159 5.03742 11.9978 5.03742 11.9869 5.04373L11.8441 5.12618C11.8331 5.13249 11.8331 5.14299 11.8448 5.14982L11.9759 5.22598C11.9876 5.2328 12.0049 5.23228 12.0158 5.22598L12.1586 5.14352Z" fill="#4C5C75"/>
<path d="M12.4301 4.98727C12.441 4.98097 12.442 4.97099 12.4302 4.96416L12.2992 4.888C12.2874 4.88117 12.2693 4.88117 12.2584 4.88748L12.1155 4.96993C12.1046 4.97624 12.1046 4.98674 12.1163 4.99357L12.2474 5.06973C12.2591 5.07655 12.2763 5.07603 12.2873 5.06973L12.4301 4.98727Z" fill="#4C5C75"/>
<path d="M12.9247 5.58909C12.9356 5.58279 12.9356 5.57229 12.9239 5.56546L12.7929 5.4893C12.7811 5.48247 12.7639 5.483 12.753 5.4893L12.6101 5.57176C12.5992 5.57806 12.5983 5.58804 12.61 5.59487L12.741 5.67103C12.7528 5.67785 12.7709 5.67785 12.7818 5.67155L12.9247 5.58909Z" fill="#4C5C75"/>
<path d="M13.1962 5.43284C13.2071 5.42654 13.2071 5.41604 13.1954 5.40921L13.0643 5.33305C13.0526 5.32622 13.0354 5.32675 13.0244 5.33305L12.8816 5.41551C12.8707 5.42181 12.8697 5.43179 12.8815 5.43862L13.0125 5.51478C13.0243 5.5216 13.0424 5.5216 13.0533 5.5153L13.1962 5.43284Z" fill="#4C5C75"/>
<path d="M12.9414 5.28421C12.9523 5.2779 12.9533 5.26792 12.9416 5.2611L12.8096 5.18442C12.7988 5.17811 12.7806 5.17811 12.7697 5.18442L12.5177 5.3299L12.2827 5.19334C12.2719 5.18704 12.2538 5.18704 12.2428 5.19334L12.1 5.2758C12.0891 5.2821 12.089 5.29261 12.0999 5.29891L12.4867 5.5237C12.4985 5.53053 12.5157 5.53 12.5266 5.5237L12.9414 5.28421Z" fill="#4C5C75"/>
<path d="M13.4695 5.27659C13.4804 5.27029 13.4805 5.25979 13.4687 5.25296L13.3377 5.1768C13.3259 5.16997 13.3087 5.1705 13.2978 5.1768L13.1559 5.25873C13.144 5.26556 13.1431 5.27554 13.1548 5.28237L13.2859 5.35853C13.2976 5.36535 13.3157 5.36535 13.3276 5.35852L13.4695 5.27659Z" fill="#4C5C75"/>
<path d="M13.2133 5.12796C13.2242 5.12165 13.2243 5.11115 13.2134 5.10485L13.0815 5.02817C13.0706 5.02186 13.0525 5.02186 13.0416 5.02817L12.8997 5.1101C12.8878 5.11693 12.8878 5.12743 12.8986 5.13373L13.0306 5.21041C13.0414 5.21672 13.0595 5.21672 13.0714 5.20989L13.2133 5.12796Z" fill="#4C5C75"/>
<path d="M13.7411 5.11839C13.752 5.11209 13.7521 5.10158 13.7403 5.09475L13.6093 5.0186C13.5975 5.01177 13.5803 5.0123 13.5694 5.0186L13.4265 5.10106C13.4156 5.10736 13.4147 5.11734 13.4264 5.12417L13.5575 5.20032C13.5692 5.20715 13.5873 5.20715 13.5983 5.20085L13.7411 5.11839Z" fill="#4C5C75"/>
<path d="M13.4868 4.96975C13.4977 4.96345 13.4978 4.95295 13.487 4.94664L13.355 4.86996C13.3442 4.86366 13.326 4.86366 13.3151 4.86996L13.1723 4.95242C13.1614 4.95872 13.1613 4.96923 13.1722 4.97553L13.3041 5.05221C13.315 5.05852 13.3331 5.05851 13.344 5.05221L13.4868 4.96975Z" fill="#4C5C75"/>
<path d="M14.0145 4.96018C14.0254 4.95388 14.0255 4.94338 14.0137 4.93655L13.8827 4.86039C13.8709 4.85357 13.8537 4.85409 13.8428 4.86039L13.7 4.94285C13.6891 4.94916 13.6881 4.95913 13.6998 4.96596L13.8309 5.04212C13.8426 5.04895 13.8608 5.04895 13.8717 5.04264L14.0145 4.96018Z" fill="#4C5C75"/>
<path d="M13.231 4.82132C13.2419 4.81501 13.2419 4.80451 13.2311 4.79821L13.0991 4.72152C13.0883 4.71522 13.0702 4.71522 13.0593 4.72152L12.9164 4.80398C12.9055 4.81028 12.9055 4.82079 12.9163 4.82709L13.0483 4.90378C13.0591 4.91008 13.0772 4.91008 13.0881 4.90378L13.231 4.82132Z" fill="#4C5C75"/>
<path d="M13.7583 4.81155C13.7692 4.80525 13.7693 4.79474 13.7584 4.78844L13.6265 4.71176C13.6156 4.70545 13.5975 4.70546 13.5866 4.71176L13.4438 4.79422C13.4329 4.80052 13.4328 4.81102 13.4436 4.81733L13.5756 4.89401C13.5864 4.90031 13.6046 4.90031 13.6155 4.89401L13.7583 4.81155Z" fill="#4C5C75"/>
<path d="M13.5025 4.66507C13.5134 4.65876 13.5134 4.64826 13.5026 4.64196L13.3706 4.56527C13.3598 4.55897 13.3416 4.55897 13.3307 4.56527L13.1879 4.64773C13.177 4.65403 13.1769 4.66454 13.1878 4.67084L13.3197 4.74752C13.3306 4.75383 13.3487 4.75383 13.3596 4.74752L13.5025 4.66507Z" fill="#4C5C75"/>
<path d="M14.0297 4.6555C14.0415 4.64867 14.0407 4.63869 14.0298 4.63239L13.8979 4.55571C13.887 4.5494 13.8698 4.54888 13.858 4.55571L13.7161 4.63764C13.7042 4.64447 13.7042 4.65497 13.715 4.66128L13.847 4.73796C13.8578 4.74426 13.8759 4.74426 13.8878 4.73743L14.0297 4.6555Z" fill="#4C5C75"/>
<path d="M13.7758 4.50706C13.7876 4.50024 13.7868 4.49025 13.7759 4.48395L13.644 4.40727C13.6331 4.40097 13.6159 4.40044 13.6041 4.40727L13.4622 4.4892C13.4503 4.49603 13.4503 4.50654 13.4611 4.51284L13.5931 4.58952C13.6039 4.59582 13.622 4.59582 13.6339 4.589L13.7758 4.50706Z" fill="#4C5C75"/>
<path d="M14.3032 4.4971C14.3142 4.49079 14.3142 4.48029 14.3034 4.47399L14.1714 4.39731C14.1606 4.391 14.1424 4.391 14.1315 4.39731L13.9887 4.47976C13.9778 4.48607 13.9777 4.49657 13.9886 4.50287L14.1205 4.57955C14.1314 4.58586 14.1495 4.58586 14.1604 4.57955L14.3032 4.4971Z" fill="#4C5C75"/>
<path d="M14.0474 4.35061C14.0583 4.34431 14.0584 4.33381 14.0475 4.3275L13.9156 4.25082C13.9047 4.24452 13.8866 4.24452 13.8757 4.25082L13.7328 4.33328C13.7219 4.33958 13.7219 4.35009 13.7327 4.35639L13.8647 4.43307C13.8755 4.43937 13.8936 4.43937 13.9046 4.43307L14.0474 4.35061Z" fill="#4C5C75"/>
<path d="M15.1023 4.33174C15.1141 4.32492 15.1142 4.31441 15.1024 4.30759L14.9714 4.23143C14.9596 4.2246 14.9424 4.22513 14.9306 4.23195L14.7887 4.31389C14.7768 4.32071 14.7759 4.33069 14.7876 4.33752L14.9187 4.41368C14.9304 4.42051 14.9486 4.4205 14.9604 4.41368L15.1023 4.33174Z" fill="#4C5C75"/>
<path d="M15.3758 4.17503C15.3868 4.16873 15.3868 4.15822 15.3751 4.1514L15.244 4.07524C15.2323 4.06841 15.215 4.06894 15.2041 4.07524L15.0613 4.1577C15.0504 4.164 15.0494 4.17398 15.0612 4.18081L15.1922 4.25696C15.204 4.26379 15.2221 4.26379 15.233 4.25749L15.3758 4.17503Z" fill="#4C5C75"/>
<path d="M14.0652 4.04391C14.0761 4.03761 14.0771 4.02763 14.0653 4.0208L13.9343 3.94464C13.9225 3.93781 13.9044 3.93781 13.8935 3.94412L12.3898 4.81229C12.3779 4.81912 12.3779 4.82962 12.3896 4.83645L12.5207 4.91261C12.5324 4.91944 12.5497 4.91892 12.5615 4.91209L14.0652 4.04391Z" fill="#4C5C75"/>
<path d="M15.119 4.02639C15.1299 4.02009 15.13 4.00959 15.1191 4.00328L14.9872 3.9266C14.9763 3.9203 14.9582 3.9203 14.9473 3.9266L14.5325 4.1661C14.5206 4.17293 14.5206 4.18343 14.5314 4.18973L14.6634 4.26642C14.6742 4.27272 14.6924 4.27272 14.7042 4.26589L15.119 4.02639Z" fill="#4C5C75"/>
<path d="M14.8657 3.87796C14.8766 3.87165 14.8767 3.86115 14.8659 3.85485L14.7339 3.77816C14.7231 3.77186 14.7049 3.77186 14.694 3.77816L14.0063 4.17522C13.9954 4.18153 13.9953 4.19203 14.0061 4.19833L14.1381 4.27502C14.1489 4.28132 14.1671 4.28132 14.178 4.27502L14.8657 3.87796Z" fill="#4C5C75"/>
<path d="M14.5594 4.64573C14.5704 4.63943 14.5704 4.62893 14.5587 4.6221L14.4276 4.54594C14.4159 4.53911 14.3986 4.53964 14.3877 4.54594L14.2449 4.6284C14.234 4.6347 14.233 4.64468 14.2448 4.65151L14.3758 4.72767C14.3876 4.73449 14.4057 4.73449 14.4166 4.72819L14.5594 4.64573Z" fill="#4C5C75"/>
<path d="M14.5747 4.34085C14.5856 4.33454 14.5857 4.32404 14.5748 4.31774L14.4429 4.24106C14.432 4.23475 14.4139 4.23475 14.403 4.24106L14.2602 4.32351C14.2493 4.32982 14.2492 4.34032 14.26 4.34662L14.392 4.4233C14.4028 4.42961 14.421 4.42961 14.4319 4.4233L14.5747 4.34085Z" fill="#4C5C75"/>
<path d="M14.8309 4.48948C14.8418 4.48318 14.8419 4.47268 14.8301 4.46585L14.6991 4.38969C14.6874 4.38286 14.6701 4.38339 14.6592 4.38969L14.5164 4.47215C14.5055 4.47845 14.5045 4.48843 14.5163 4.49526L14.6473 4.57142C14.659 4.57824 14.6772 4.57824 14.6881 4.57194L14.8309 4.48948Z" fill="#4C5C75"/>
<path d="M14.3362 3.88617C14.348 3.87934 14.349 3.86936 14.3373 3.86253L14.2062 3.78637C14.1945 3.77954 14.1763 3.77954 14.1645 3.78637L14.0226 3.8683C14.0108 3.87513 14.0107 3.88563 14.0224 3.89246L14.1535 3.96862C14.1652 3.97545 14.1825 3.97493 14.1943 3.9681L14.3362 3.88617Z" fill="#4C5C75"/>
<path d="M16.0591 2.03556C16.0478 2.03178 16.0364 2.028 16.0176 2.03556C16.0289 2.028 16.0402 2.028 16.0515 2.03178C16.0515 2.03178 16.0553 2.03178 16.0591 2.03556Z" fill="#1D2943"/>
<path d="M16.0894 4.24341C16.0894 4.29247 16.0516 4.35661 16.0063 4.38303L13.078 6.07361C13.0516 6.0887 13.029 6.08492 13.0139 6.06606C13.0139 6.07361 13.0177 6.07361 13.0214 6.07737L12.7724 5.93397C12.7573 5.92644 12.7497 5.90757 12.7497 5.88115L12.7422 3.72643C12.7422 3.67359 12.7799 3.61323 12.8252 3.58681L15.7535 1.89625C15.7761 1.88492 15.795 1.88114 15.8101 1.8887L16.0516 2.03209C16.0403 2.02832 16.029 2.02832 16.0177 2.03587C16.0365 2.02832 16.0478 2.03209 16.0592 2.03587C16.0742 2.0434 16.0818 2.06229 16.0818 2.08493L16.0894 4.24341Z" fill="#1D2943"/>
<path d="M16.0591 2.03556C16.0478 2.03178 16.0364 2.028 16.0176 2.03556C16.0289 2.028 16.0402 2.028 16.0515 2.03178C16.0515 2.03178 16.0553 2.03178 16.0591 2.03556Z" fill="#1D2943"/>
<path d="M16.0579 2.03399C16.0442 2.026 16.0236 2.02714 16.0008 2.03969L13.0733 3.72986C13.0276 3.7561 12.9911 3.81882 12.9923 3.87014L12.998 6.02562C12.998 6.05072 13.0071 6.06896 13.0219 6.07695L12.7738 5.93279C12.759 5.9248 12.7498 5.90656 12.7498 5.88146L12.7441 3.72599C12.7441 3.67466 12.7795 3.61194 12.8251 3.5857L15.7527 1.89554C15.7755 1.88299 15.796 1.88184 15.8109 1.88983L16.0579 2.03399Z" fill="#1D2943"/>
<path d="M16.0014 2.04028C16.0458 2.01464 16.0823 2.03545 16.0825 2.08649L16.0886 4.24183C16.0887 4.29287 16.0524 4.35572 16.008 4.38137L13.0801 6.07179C13.035 6.09785 12.9984 6.07703 12.9983 6.02599L12.9922 3.87066C12.992 3.81962 13.0283 3.75676 13.0735 3.7307L16.0014 2.04028Z" fill="#4C5C75"/>
<path d="M14.5388 3.74783C14.6868 3.66237 14.8085 3.73034 14.809 3.90044C14.8095 4.07053 14.6885 4.27861 14.5405 4.36407C14.3925 4.44953 14.272 4.38086 14.2715 4.21076C14.271 4.04067 14.3907 3.83329 14.5388 3.74783Z" fill="#1D2943"/>
<path d="M11.6449 6.9951L10.6751 7.59889V7.60266L10.5656 7.66681L10.5619 7.67059V7.66681L8.98828 6.75738V6.28569L10.0524 5.68945L11.6411 6.61399V6.68944L11.4977 6.76492V6.84039L11.6411 6.92342L11.6449 6.9951Z" fill="#DF3260"/>
<path d="M11.6405 6.92433L10.6757 7.5295L10.6254 7.56032L10.5969 7.5432L10.5638 7.52492V7.52378L10.5318 7.50552C9.94041 7.16249 9.63454 6.9843 9.67087 7.0054C9.72646 6.97328 9.40045 7.16163 10.7282 6.39453L11.3619 6.76334H11.363L11.3904 6.77932L11.427 6.79987L11.4966 6.84098L11.6405 6.92433Z" fill="#F45170"/>
<path d="M11.6424 6.61395L11.3626 6.76238H11.3615L10.6753 7.12434L10.5622 7.18371L8.98828 6.28467L10.0514 5.6875L11.6424 6.61395Z" fill="#F45170"/>
<path d="M11.4958 6.7168L11.4965 6.95945L10.5321 7.584L10.5312 7.27369L11.4958 6.7168Z" fill="#F3F1FC"/>
<path d="M10.5625 7.1837L11.6427 6.61328L11.6404 6.68625L10.6249 7.2225L10.6259 7.55942L11.641 6.92331L11.6438 6.99336L10.5639 7.67007L10.5625 7.1837Z" fill="#E93565"/>
<path d="M10.5634 7.52331V7.67061L8.98947 6.75502L8.98828 6.28516L10.5622 7.18419V7.25613L10.5634 7.52331Z" fill="#DF3260"/>
<path d="M9.49848 6.94448L9.49805 6.67773L10.4731 7.23485L10.4744 7.51667L9.49848 6.94448Z" fill="#F3F1FC"/>
<path d="M9.55286 6.91395L9.55273 6.76953L10.421 7.26588L10.4218 7.42343L9.55286 6.91395Z" fill="#DEDFFB"/>
<path d="M10.6763 7.52727L10.6259 7.55887L10.6249 7.22195L10.6763 7.19482V7.12305L10.5625 7.18315L10.5639 7.66952L10.6763 7.59906V7.52727Z" fill="#E93565"/>
<path d="M9.20666 6.5042C9.27814 6.54547 9.33626 6.64581 9.33602 6.72827C9.33579 6.81072 9.2773 6.84341 9.20582 6.80215C9.13406 6.76071 9.07594 6.6607 9.07617 6.57824C9.07641 6.49578 9.1349 6.46277 9.20666 6.5042Z" fill="#E3E7F0"/>
<path d="M9.20646 6.54091C9.26071 6.57223 9.30481 6.64838 9.30464 6.71096C9.30446 6.77354 9.26006 6.79835 9.20582 6.76703C9.15135 6.73559 9.10725 6.65968 9.10742 6.5971C9.1076 6.53452 9.15199 6.50947 9.20646 6.54091Z" fill="#4C5C75"/>
<path d="M11.7504 6.25866L10.6711 6.93413L9.09375 6.01715V5.54923L10.1579 4.94922L11.7466 5.87753V5.94923L11.6032 6.0247V6.10393L11.7466 6.18697L11.7504 6.25866Z" fill="#497BFE"/>
<path d="M11.7462 6.188L10.7814 6.79317L10.7311 6.82399L10.7026 6.80687L10.6695 6.7886V6.78745L10.6375 6.76919C10.0431 6.42466 9.73872 6.247 9.77659 6.26907C10.3427 5.94181 10.3145 5.95831 10.8339 5.6582L11.4676 6.02701H11.4688L11.4962 6.04299L11.5327 6.06355L11.6024 6.10465L11.7462 6.188Z" fill="#57B3FE"/>
<path d="M11.7478 5.87762L11.4681 6.02605H11.467L10.7807 6.38801L10.6677 6.44739L9.09375 5.54835L10.1568 4.95117L11.7478 5.87762Z" fill="#57B3FE"/>
<path d="M11.6013 5.98047L11.6019 6.22312L10.6376 6.84767L10.6367 6.53736L11.6013 5.98047Z" fill="#F3F1FC"/>
<path d="M10.668 6.44737L11.7482 5.87695L11.7458 5.94992L10.7304 6.48617L10.7314 6.82309L11.7465 6.18698L11.7492 6.25703L10.6693 6.93375L10.668 6.44737Z" fill="#5094FF"/>
<path d="M10.6688 6.78698V6.93428L9.09494 6.01869L9.09375 5.54883L10.6677 6.44787V6.5198L10.6688 6.78698Z" fill="#497BFE"/>
<path d="M9.60395 6.20815L9.60352 5.94141L10.5786 6.49853L10.5799 6.78034L9.60395 6.20815Z" fill="#F3F1FC"/>
<path d="M9.65833 6.17762L9.6582 6.0332L10.5265 6.52955L10.5273 6.6871L9.65833 6.17762Z" fill="#DEDFFB"/>
<path d="M10.7818 6.79095L10.7314 6.82254L10.7304 6.48562L10.7818 6.45849V6.38672L10.668 6.44682L10.6693 6.93319L10.7818 6.86274V6.79095Z" fill="#5094FF"/>
<path d="M9.31213 5.76787C9.38361 5.80914 9.44173 5.90948 9.44149 5.99194C9.44126 6.0744 9.38277 6.10709 9.31129 6.06582C9.23952 6.02439 9.18141 5.92437 9.18164 5.84191C9.18188 5.75946 9.24037 5.72644 9.31213 5.76787Z" fill="#E3E7F0"/>
<path d="M9.31193 5.80458C9.36617 5.8359 9.41028 5.91205 9.4101 5.97463C9.40993 6.03721 9.36553 6.06202 9.31128 6.0307C9.25682 5.99926 9.21271 5.92335 9.21289 5.86077C9.21307 5.79819 9.25746 5.77314 9.31193 5.80458Z" fill="#4C5C75"/>
</svg>
