<svg width="52" height="52" viewBox="0 0 52 52" fill="none" xmlns="http://www.w3.org/2000/svg">
<g filter="url(#filter0_d_1981_11006)">
<rect x="6" y="3" width="40" height="40" rx="20" fill="white" shape-rendering="crispEdges"/>
<path d="M21 13H20C17 13 16 14.79 16 17V32C16 32.83 16.94 33.3 17.6 32.8L19.31 31.52C19.71 31.22 20.27 31.26 20.63 31.62L22.29 33.29C22.68 33.68 23.32 33.68 23.71 33.29L25.39 31.61C25.74 31.26 26.3 31.22 26.69 31.52L28.4 32.8C29.06 33.29 30 32.82 30 32V15C30 13.9 30.9 13 32 13H21ZM25.25 24.75H20.75C20.34 24.75 20 24.41 20 24C20 23.59 20.34 23.25 20.75 23.25H25.25C25.66 23.25 26 23.59 26 24C26 24.41 25.66 24.75 25.25 24.75ZM26 20.75H20C19.59 20.75 19.25 20.41 19.25 20C19.25 19.59 19.59 19.25 20 19.25H26C26.41 19.25 26.75 19.59 26.75 20C26.75 20.41 26.41 20.75 26 20.75Z" fill="#A7A7A7"/>
<path d="M32.01 13V14.5C32.67 14.5 33.3 14.77 33.76 15.22C34.24 15.71 34.5 16.34 34.5 17V19.42C34.5 20.16 34.17 20.5 33.42 20.5H31.5V15.01C31.5 14.73 31.73 14.5 32.01 14.5V13ZM32.01 13C30.9 13 30 13.9 30 15.01V22H33.42C35 22 36 21 36 19.42V17C36 15.9 35.55 14.9 34.83 14.17C34.079 13.4265 33.0668 13.0066 32.01 13C32.01 13 32.02 13 32.01 13Z" fill="#A7A7A7"/>
</g>
<defs>
<filter id="filter0_d_1981_11006" x="0" y="0" width="52" height="52" filterUnits="userSpaceOnUse" color-interpolation-filters="sRGB">
<feFlood flood-opacity="0" result="BackgroundImageFix"/>
<feColorMatrix in="SourceAlpha" type="matrix" values="0 0 0 0 0 0 0 0 0 0 0 0 0 0 0 0 0 0 127 0" result="hardAlpha"/>
<feOffset dy="3"/>
<feGaussianBlur stdDeviation="3"/>
<feComposite in2="hardAlpha" operator="out"/>
<feColorMatrix type="matrix" values="0 0 0 0 0 0 0 0 0 0 0 0 0 0 0 0 0 0 0.02 0"/>
<feBlend mode="normal" in2="BackgroundImageFix" result="effect1_dropShadow_1981_11006"/>
<feBlend mode="normal" in="SourceGraphic" in2="effect1_dropShadow_1981_11006" result="shape"/>
</filter>
</defs>
</svg>
