<svg width="20" height="18" viewBox="0 0 20 18" fill="none" xmlns="http://www.w3.org/2000/svg">
<path d="M10.8177 1.64178L9.99712 2.49792L9.17398 1.641C7.0753 -0.543892 3.67268 -0.543892 1.57401 1.641C-0.524669 3.82591 -0.524669 7.36837 1.57401 9.55321L9.46792 17.7715C9.76077 18.0763 10.2355 18.0763 10.5283 17.7715L18.4283 9.55175C20.5223 7.35953 20.5259 3.82708 18.4268 1.64178C16.3243 -0.547098 12.9202 -0.547098 10.8177 1.64178ZM17.3649 8.45069L9.99812 16.1154L2.63447 8.44924C1.12147 6.87406 1.12147 4.32021 2.63447 2.74503C4.14746 1.16987 6.60052 1.16987 8.11348 2.74503L9.47072 4.15799C9.76846 4.46803 10.2531 4.462 10.5437 4.14462L11.8781 2.74582C13.3949 1.16668 15.8496 1.16667 17.3664 2.74582C18.8797 4.32135 18.8771 6.8676 17.3649 8.45069Z" fill="#FF1F00"/>
</svg>
