<svg width="49" height="48" viewBox="0 0 49 48" fill="none" xmlns="http://www.w3.org/2000/svg">
<rect x="3.5293" y="3" width="42.0239" height="42" rx="6" fill="url(#paint0_radial_197_2458)"/>
<rect x="3.5293" y="3" width="42.0239" height="42" rx="6" fill="url(#paint1_radial_197_2458)"/>
<rect x="3.5293" y="3" width="42.0239" height="42" rx="6" fill="url(#paint2_radial_197_2458)"/>
<path d="M35.0468 15.75C35.0468 16.9926 34.0388 18 32.7955 18C31.5521 18 30.5442 16.9926 30.5442 15.75C30.5442 14.5074 31.5521 13.5 32.7955 13.5C34.0388 13.5 35.0468 14.5074 35.0468 15.75Z" fill="white"/>
<path fill-rule="evenodd" clip-rule="evenodd" d="M24.5408 31.5C28.6853 31.5 32.045 28.1421 32.045 24C32.045 19.8579 28.6853 16.5 24.5408 16.5C20.3963 16.5 17.0365 19.8579 17.0365 24C17.0365 28.1421 20.3963 31.5 24.5408 31.5ZM24.5408 28.5C27.0275 28.5 29.0433 26.4853 29.0433 24C29.0433 21.5147 27.0275 19.5 24.5408 19.5C22.0541 19.5 20.0382 21.5147 20.0382 24C20.0382 26.4853 22.0541 28.5 24.5408 28.5Z" fill="white"/>
<path fill-rule="evenodd" clip-rule="evenodd" d="M9.53223 23.4C9.53223 18.3595 9.53223 15.8393 10.5137 13.9141C11.3771 12.2206 12.7547 10.8438 14.4491 9.98094C16.3754 9 18.8971 9 23.9404 9H25.1411C30.1845 9 32.7061 9 34.6324 9.98094C36.3269 10.8438 37.7045 12.2206 38.5678 13.9141C39.5493 15.8393 39.5493 18.3595 39.5493 23.4V24.6C39.5493 29.6405 39.5493 32.1607 38.5678 34.0859C37.7045 35.7794 36.3269 37.1562 34.6324 38.0191C32.7061 39 30.1845 39 25.1411 39H23.9404C18.8971 39 16.3754 39 14.4491 38.0191C12.7547 37.1562 11.3771 35.7794 10.5137 34.0859C9.53223 32.1607 9.53223 29.6405 9.53223 24.6V23.4ZM23.9404 12H25.1411C27.7123 12 29.4602 12.0023 30.8112 12.1127C32.1272 12.2201 32.8002 12.4149 33.2697 12.654C34.3993 13.2292 35.3177 14.1471 35.8933 15.2761C36.1325 15.7453 36.3274 16.4179 36.4349 17.7331C36.5453 19.0834 36.5476 20.8303 36.5476 23.4V24.6C36.5476 27.1697 36.5453 28.9166 36.4349 30.2669C36.3274 31.5821 36.1325 32.2547 35.8933 32.7239C35.3177 33.8529 34.3993 34.7708 33.2697 35.346C32.8002 35.5851 32.1272 35.7799 30.8112 35.8873C29.4602 35.9977 27.7123 36 25.1411 36H23.9404C21.3692 36 19.6214 35.9977 18.2703 35.8873C16.9543 35.7799 16.2813 35.5851 15.8119 35.346C14.6822 34.7708 13.7638 33.8529 13.1883 32.7239C12.9491 32.2547 12.7542 31.5821 12.6467 30.2669C12.5363 28.9166 12.5339 27.1697 12.5339 24.6V23.4C12.5339 20.8303 12.5363 19.0834 12.6467 17.7331C12.7542 16.4179 12.9491 15.7453 13.1883 15.2761C13.7638 14.1471 14.6822 13.2292 15.8119 12.654C16.2813 12.4149 16.9543 12.2201 18.2703 12.1127C19.6214 12.0023 21.3692 12 23.9404 12Z" fill="white"/>
<defs>
<radialGradient id="paint0_radial_197_2458" cx="0" cy="0" r="1" gradientUnits="userSpaceOnUse" gradientTransform="translate(18.5378 34.5) rotate(-55.3606) scale(38.2864 38.2942)">
<stop stop-color="#B13589"/>
<stop offset="0.79309" stop-color="#C62F94"/>
<stop offset="1" stop-color="#8A3AC8"/>
</radialGradient>
<radialGradient id="paint1_radial_197_2458" cx="0" cy="0" r="1" gradientUnits="userSpaceOnUse" gradientTransform="translate(17.037 46.5) rotate(-65.1238) scale(33.8948 33.9073)">
<stop stop-color="#E0E8B7"/>
<stop offset="0.444662" stop-color="#FB8A2E"/>
<stop offset="0.71474" stop-color="#E2425C"/>
<stop offset="1" stop-color="#E2425C" stop-opacity="0"/>
</radialGradient>
<radialGradient id="paint2_radial_197_2458" cx="0" cy="0" r="1" gradientUnits="userSpaceOnUse" gradientTransform="translate(1.27802 4.5) rotate(-8.12553) scale(58.3689 12.4777)">
<stop offset="0.156701" stop-color="#406ADC"/>
<stop offset="0.467799" stop-color="#6A45BE"/>
<stop offset="1" stop-color="#6A45BE" stop-opacity="0"/>
</radialGradient>
</defs>
</svg>
