<svg width="130" height="98" viewBox="0 0 130 98" fill="none" xmlns="http://www.w3.org/2000/svg">
<rect width="129.905" height="98" rx="16" fill="white" fill-opacity="0.5"/>
<path d="M30.3511 19.2734C30.3511 20.1536 30.2391 20.9557 30.0151 21.6797C29.7964 22.3984 29.4657 23.0182 29.0229 23.5391C28.5802 24.0547 28.0256 24.4531 27.3589 24.7344C26.6922 25.0156 25.911 25.1562 25.0151 25.1562C24.1037 25.1562 23.312 25.0156 22.6401 24.7344C21.9735 24.4531 21.4188 24.0521 20.9761 23.5312C20.5386 23.0104 20.2104 22.388 19.9917 21.6641C19.7729 20.9401 19.6636 20.138 19.6636 19.2578C19.6636 18.0807 19.8563 17.0547 20.2417 16.1797C20.6323 15.2995 21.2235 14.6172 22.0151 14.1328C22.812 13.6432 23.8172 13.3984 25.0308 13.3984C26.2183 13.3984 27.2052 13.6406 27.9917 14.125C28.7782 14.6094 29.3667 15.2917 29.7573 16.1719C30.1532 17.0469 30.3511 18.0807 30.3511 19.2734ZM21.6323 19.2734C21.6323 20.1536 21.7521 20.9167 21.9917 21.5625C22.2313 22.2031 22.5985 22.6979 23.0933 23.0469C23.5933 23.3906 24.2339 23.5625 25.0151 23.5625C25.8016 23.5625 26.4422 23.3906 26.937 23.0469C27.4318 22.6979 27.7964 22.2031 28.0308 21.5625C28.2651 20.9167 28.3823 20.1536 28.3823 19.2734C28.3823 17.9349 28.1141 16.888 27.5776 16.1328C27.0464 15.3724 26.1974 14.9922 25.0308 14.9922C24.2495 14.9922 23.6063 15.1641 23.1011 15.5078C22.6011 15.8516 22.2313 16.3438 21.9917 16.9844C21.7521 17.6198 21.6323 18.3828 21.6323 19.2734ZM40.1558 16.3516V25H38.7104L38.4604 23.8359H38.3589C38.1766 24.1328 37.9448 24.3802 37.6636 24.5781C37.3823 24.7708 37.0698 24.9141 36.7261 25.0078C36.3823 25.1068 36.0203 25.1562 35.6401 25.1562C34.9891 25.1562 34.4318 25.0469 33.9683 24.8281C33.5099 24.6042 33.1584 24.2604 32.9136 23.7969C32.6688 23.3333 32.5464 22.7344 32.5464 22V16.3516H34.3901V21.6562C34.3901 22.3281 34.5256 22.8307 34.7964 23.1641C35.0724 23.4974 35.4995 23.6641 36.0776 23.6641C36.6349 23.6641 37.0776 23.5495 37.4058 23.3203C37.7339 23.0911 37.9657 22.7526 38.1011 22.3047C38.2417 21.8568 38.312 21.3073 38.312 20.6562V16.3516H40.1558ZM47.1714 16.1875C47.3172 16.1875 47.4761 16.1953 47.6479 16.2109C47.8198 16.2266 47.9683 16.2474 48.0933 16.2734L47.9214 17.9922C47.812 17.9609 47.6766 17.9375 47.5151 17.9219C47.3589 17.9062 47.2183 17.8984 47.0933 17.8984C46.7651 17.8984 46.4526 17.9531 46.1558 18.0625C45.8589 18.1667 45.5959 18.3281 45.3667 18.5469C45.1375 18.7604 44.9578 19.0286 44.8276 19.3516C44.6974 19.6745 44.6323 20.0495 44.6323 20.4766V25H42.7886V16.3516H44.2261L44.4761 17.875H44.562C44.7339 17.5677 44.9474 17.2865 45.2026 17.0312C45.4578 16.776 45.7495 16.5729 46.0776 16.4219C46.411 16.2656 46.7756 16.1875 47.1714 16.1875ZM57.3589 13.5781C58.8328 13.5781 59.9084 13.8802 60.5854 14.4844C61.2625 15.0885 61.6011 15.9349 61.6011 17.0234C61.6011 17.5182 61.5229 17.9896 61.3667 18.4375C61.2157 18.8802 60.9657 19.2734 60.6167 19.6172C60.2677 19.9557 59.8068 20.224 59.2339 20.4219C58.6662 20.6198 57.9657 20.7188 57.1323 20.7188H55.9136V25H54.0386V13.5781H57.3589ZM57.2339 15.1328H55.9136V19.1562H56.937C57.5256 19.1562 58.0256 19.0885 58.437 18.9531C58.8485 18.8125 59.161 18.5911 59.3745 18.2891C59.5881 17.987 59.6948 17.5885 59.6948 17.0938C59.6948 16.4323 59.4943 15.9401 59.0933 15.6172C58.6974 15.2943 58.0776 15.1328 57.2339 15.1328ZM67.0854 16.1875C68.1792 16.1875 69.0047 16.4297 69.562 16.9141C70.1245 17.3984 70.4058 18.1536 70.4058 19.1797V25H69.1011L68.7495 23.7734H68.687C68.4422 24.0859 68.1896 24.3438 67.9292 24.5469C67.6688 24.75 67.3667 24.901 67.0229 25C66.6844 25.1042 66.2703 25.1562 65.7808 25.1562C65.2651 25.1562 64.8042 25.0625 64.3979 24.875C63.9917 24.6823 63.6714 24.3906 63.437 24C63.2026 23.6094 63.0854 23.1146 63.0854 22.5156C63.0854 21.625 63.4162 20.9557 64.0776 20.5078C64.7443 20.0599 65.7495 19.8125 67.0933 19.7656L68.5933 19.7109V19.2578C68.5933 18.6589 68.4526 18.2318 68.1714 17.9766C67.8953 17.7214 67.5047 17.5938 66.9995 17.5938C66.5672 17.5938 66.1479 17.6562 65.7417 17.7812C65.3354 17.9062 64.9396 18.0599 64.5542 18.2422L63.9604 16.9453C64.3823 16.7214 64.8615 16.5391 65.3979 16.3984C65.9396 16.2578 66.5021 16.1875 67.0854 16.1875ZM68.5854 20.8672L67.4683 20.9062C66.5516 20.9375 65.9084 21.0938 65.5386 21.375C65.1688 21.6562 64.9839 22.0417 64.9839 22.5312C64.9839 22.9583 65.1115 23.2708 65.3667 23.4688C65.6219 23.6615 65.9578 23.7578 66.3745 23.7578C67.0099 23.7578 67.536 23.5781 67.9526 23.2188C68.3745 22.8542 68.5854 22.3203 68.5854 21.6172V20.8672ZM77.3589 16.1875C77.5047 16.1875 77.6636 16.1953 77.8354 16.2109C78.0073 16.2266 78.1558 16.2474 78.2808 16.2734L78.1089 17.9922C77.9995 17.9609 77.8641 17.9375 77.7026 17.9219C77.5464 17.9062 77.4058 17.8984 77.2808 17.8984C76.9526 17.8984 76.6401 17.9531 76.3433 18.0625C76.0464 18.1667 75.7834 18.3281 75.5542 18.5469C75.325 18.7604 75.1453 19.0286 75.0151 19.3516C74.8849 19.6745 74.8198 20.0495 74.8198 20.4766V25H72.9761V16.3516H74.4136L74.6636 17.875H74.7495C74.9214 17.5677 75.1349 17.2865 75.3901 17.0312C75.6453 16.776 75.937 16.5729 76.2651 16.4219C76.5985 16.2656 76.9631 16.1875 77.3589 16.1875ZM83.1011 23.6719C83.3407 23.6719 83.5776 23.651 83.812 23.6094C84.0464 23.5625 84.2599 23.5078 84.4526 23.4453V24.8359C84.2495 24.9245 83.9865 25 83.6636 25.0625C83.3407 25.125 83.0047 25.1562 82.6558 25.1562C82.1662 25.1562 81.7261 25.0755 81.3354 24.9141C80.9448 24.7474 80.6349 24.4635 80.4058 24.0625C80.1766 23.6615 80.062 23.1068 80.062 22.3984V17.75H78.8823V16.9297L80.1479 16.2812L80.7495 14.4297H81.9058V16.3516H84.3823V17.75H81.9058V22.375C81.9058 22.8125 82.0151 23.138 82.2339 23.3516C82.4526 23.5651 82.7417 23.6719 83.1011 23.6719ZM90.7183 16.1875C91.6922 16.1875 92.45 16.4401 92.9917 16.9453C93.5386 17.4453 93.812 18.25 93.812 19.3594V25H91.9761V19.7031C91.9761 19.0312 91.8381 18.5286 91.562 18.1953C91.286 17.8568 90.8589 17.6875 90.2808 17.6875C89.4422 17.6875 88.8589 17.9453 88.5308 18.4609C88.2078 18.9766 88.0464 19.724 88.0464 20.7031V25H86.2104V16.3516H87.6401L87.8979 17.5234H87.9995C88.187 17.2214 88.4188 16.974 88.6948 16.7812C88.9761 16.5833 89.2886 16.4349 89.6323 16.3359C89.9813 16.237 90.3433 16.1875 90.7183 16.1875ZM99.8276 16.1875C100.598 16.1875 101.26 16.3464 101.812 16.6641C102.364 16.9818 102.789 17.4323 103.085 18.0156C103.382 18.599 103.531 19.2969 103.531 20.1094V21.0938H97.7573C97.7782 21.9323 98.0021 22.5781 98.4292 23.0312C98.8615 23.4844 99.4657 23.7109 100.242 23.7109C100.794 23.7109 101.289 23.6589 101.726 23.5547C102.169 23.4453 102.625 23.2865 103.093 23.0781V24.5703C102.661 24.7734 102.221 24.9219 101.773 25.0156C101.325 25.1094 100.789 25.1562 100.164 25.1562C99.3146 25.1562 98.5672 24.9922 97.9214 24.6641C97.2808 24.3307 96.7782 23.8359 96.4136 23.1797C96.0542 22.5234 95.8745 21.7083 95.8745 20.7344C95.8745 19.7656 96.0386 18.9427 96.3667 18.2656C96.6948 17.5885 97.1558 17.0729 97.7495 16.7188C98.3433 16.3646 99.036 16.1875 99.8276 16.1875ZM99.8276 17.5703C99.2495 17.5703 98.7808 17.7578 98.4214 18.1328C98.0672 18.5078 97.8589 19.0573 97.7964 19.7812H101.734C101.729 19.349 101.656 18.9661 101.515 18.6328C101.38 18.2995 101.171 18.0391 100.89 17.8516C100.614 17.6641 100.26 17.5703 99.8276 17.5703ZM109.984 16.1875C110.13 16.1875 110.289 16.1953 110.46 16.2109C110.632 16.2266 110.781 16.2474 110.906 16.2734L110.734 17.9922C110.625 17.9609 110.489 17.9375 110.328 17.9219C110.171 17.9062 110.031 17.8984 109.906 17.8984C109.578 17.8984 109.265 17.9531 108.968 18.0625C108.671 18.1667 108.408 18.3281 108.179 18.5469C107.95 18.7604 107.77 19.0286 107.64 19.3516C107.51 19.6745 107.445 20.0495 107.445 20.4766V25H105.601V16.3516H107.039L107.289 17.875H107.375C107.546 17.5677 107.76 17.2865 108.015 17.0312C108.27 16.776 108.562 16.5729 108.89 16.4219C109.223 16.2656 109.588 16.1875 109.984 16.1875Z" fill="#282723"/>
<g clip-path="url(#clip0_5720_36614)">
<path d="M21.968 52.9312L35.8825 42.8379H28.7334L16.9175 51.6549V42.8379H12V64.0425H16.9175V54.7244L29.6574 64.0425H36.1331H37.2763L21.968 52.9312Z" fill="#3A5629"/>
<path d="M67.5014 64.0425H61.9575L59.5145 59.3991L57.087 54.881L52.8195 46.9567L48.4972 54.881L46.0228 59.3991L43.5249 64.0425H40.0795H38.5996L50.5957 42.8379H55.3644L67.5014 64.0425Z" fill="#3A5629"/>
<path d="M74.5488 42.8379H69.6313V64.0425H74.5488V42.8379Z" fill="#3A5629"/>
<path d="M27.6842 81.9582H30.2369C31.2214 82.0032 32.2052 81.8569 33.1341 81.5275C33.4552 81.398 33.7469 81.205 33.9918 80.9601C34.2367 80.7153 34.4296 80.4235 34.5592 80.1024C34.7306 79.7507 34.8393 79.3718 34.8803 78.9827C34.9571 78.4276 34.9833 77.8668 34.9586 77.307V73.4388C34.9977 72.5341 34.8866 71.6292 34.6297 70.7608C34.4124 70.1712 33.9936 69.6775 33.4473 69.367C33.0463 69.1309 32.606 68.9691 32.1475 68.8894C31.5203 68.7962 30.8865 68.7543 30.2525 68.7641H12V90.0156H16.9253V81.9582H21.3416L30.0646 90.0156H37.1119L27.6842 81.9582ZM17.0036 77.4871V73.5171H27.9661C28.5087 73.4762 29.0518 73.5903 29.5321 73.846C29.7031 73.9866 29.8364 74.1676 29.9198 74.3727C30.0032 74.5778 30.0341 74.8005 30.0098 75.0205V75.921C30.0346 76.1446 30.004 76.3708 29.9207 76.5797C29.8374 76.7887 29.704 76.9739 29.5321 77.1191C29.0618 77.404 28.5145 77.5354 27.9661 77.4949L17.0036 77.4871Z" fill="#3A5629"/>
<path d="M64.9331 71.2231C64.8131 70.6764 64.5418 70.1744 64.15 69.7745C63.7381 69.3995 63.2408 69.1307 62.7014 68.9915C61.9824 68.8104 61.2424 68.7261 60.5011 68.7409H44.5977C42.875 68.7409 41.6769 69.0933 40.98 69.7902C40.2831 70.4871 39.9543 71.6851 39.9543 73.4156V85.3177C39.9405 86.0573 40.0141 86.7958 40.1735 87.5181C40.2942 88.0645 40.5655 88.5663 40.9565 88.9667C41.3541 89.3448 41.8421 89.6144 42.3738 89.7497C43.0872 89.9179 43.8178 90.0019 44.5507 90.0003H60.4619C61.2033 90.015 61.9432 89.9308 62.6623 89.7497C63.209 89.6298 63.711 89.3584 64.1109 88.9667C64.4859 88.5548 64.7547 88.0575 64.8939 87.5181C65.0635 86.797 65.1476 86.0585 65.1445 85.3177V73.4156C65.1721 72.6786 65.101 71.9413 64.9331 71.2231ZM60.2349 85.2629H44.8717V73.4861H60.2583L60.2349 85.2629Z" fill="#3A5629"/>
<path d="M117.115 62.9539C115.549 63.0635 113.92 63.1575 112.276 63.2436C110.631 63.3297 108.956 63.4002 107.264 63.4628C103.881 63.5725 100.42 63.6429 96.9986 63.549H96.3252V62.9147C96.4348 59.5712 96.6697 56.2276 96.7245 52.8841C96.7245 51.2162 96.7245 49.5405 96.7245 47.8726C96.7245 46.2048 96.6149 44.5291 96.5679 42.8534V42.4462H97.0064C98.6821 42.3836 100.35 42.2818 102.026 42.2504C103.701 42.2191 105.369 42.1565 107.037 42.133L112.056 42.0547C113.724 42.0547 115.4 42.0547 117.068 42.0547H117.913V42.8847C117.913 46.3301 117.796 49.7754 117.647 53.1503L117.404 58.1539L117.115 62.9539ZM117.005 62.8442L116.488 52.6648C116.34 49.3526 116.261 46.1186 116.222 42.869L117.06 43.7069C115.392 43.7069 113.716 43.7069 112.049 43.7069L107.053 43.5738C105.385 43.5738 103.709 43.5111 102.041 43.4642C100.373 43.4172 98.6978 43.331 97.0221 43.2684L97.4528 42.8377C97.398 44.5134 97.3118 46.1813 97.2883 47.857C97.2648 49.5327 97.2883 51.2005 97.2883 52.8684C97.3431 56.2119 97.5702 59.5555 97.6877 62.8991L97.0299 62.2491C100.295 62.1552 103.529 62.2491 106.834 62.3353C108.478 62.3979 110.148 62.471 111.845 62.5545L117.005 62.8442Z" fill="#3A5629"/>
<path d="M108.063 78.9048C106.058 79.0692 103.967 79.2101 101.837 79.3354C99.7076 79.4607 97.5465 79.5782 95.3461 79.6643C93.1458 79.7504 90.9377 79.8052 88.706 79.8444C86.4744 79.8835 84.2427 79.8444 82.0267 79.7974H81.0166V78.85C81.0949 76.6888 81.2202 74.5276 81.3455 72.3664C81.4708 70.2053 81.5647 68.0362 81.6117 65.8751C81.6587 63.7139 81.6117 61.5527 81.6117 59.3915C81.6117 57.2304 81.4708 55.0614 81.369 52.9002V52.2894H82.0424C84.2035 52.1876 86.3647 52.0623 88.5259 51.9919C90.6871 51.9214 92.8561 51.8666 95.0173 51.8196L101.501 51.7021C103.67 51.7021 105.831 51.7021 107.992 51.7021H109.268V52.955C109.229 55.1945 109.214 57.434 109.135 59.6578C109.057 61.8816 108.979 64.0976 108.869 66.2822C108.76 68.4669 108.642 70.6359 108.509 72.7579L108.063 78.9048ZM107.89 78.7403L107.475 71.9984L107.123 65.4914C107.013 63.3563 106.925 61.2395 106.857 59.141C106.778 57.0424 106.763 54.9596 106.724 52.8767L107.976 54.1296C105.815 54.1296 103.654 54.1296 101.485 54.1296L95.0016 54.0121C92.8404 53.9651 90.6793 53.926 88.5102 53.8398C86.3412 53.7537 84.1879 53.6441 82.0267 53.5423L82.6688 52.9002C82.567 55.0614 82.4652 57.2225 82.4261 59.3915C82.3869 61.5605 82.3713 63.7139 82.4261 65.8751C82.4809 68.0362 82.5592 70.1974 82.6923 72.3664C82.8254 74.5354 82.9429 76.6888 83.0212 78.85L81.9954 77.8398C84.1018 77.7694 86.1846 77.7537 88.2597 77.8398C90.3347 77.926 92.4567 77.926 94.5866 78.0199C96.7164 78.1139 98.8698 78.2079 101.078 78.341C103.286 78.4741 105.573 78.5681 107.89 78.7403Z" fill="#E1B424"/>
<path d="M92.8876 79.5311C92.7677 78.9843 92.4963 78.4823 92.1046 78.0825C91.6898 77.7071 91.19 77.4384 90.6481 77.2995C89.9318 77.1184 89.1944 77.0341 88.4556 77.0489H74.8465V73.5252H87.8918V75.9213L92.8093 74.8956V73.4469C92.8202 72.7149 92.744 71.9841 92.5822 71.2701C92.4623 70.7233 92.1909 70.2213 91.7992 69.8215C91.3841 69.4509 90.8879 69.1828 90.3506 69.0385C89.6316 68.8569 88.8916 68.7727 88.1502 68.7879H74.5959C72.8732 68.7879 71.6752 69.1402 70.9783 69.8371C70.2814 70.534 69.929 71.7399 69.929 73.4626V76.8845C69.9104 77.626 69.9947 78.3665 70.1796 79.0848C70.3188 79.6242 70.5876 80.1215 70.9626 80.5334C71.357 80.92 71.85 81.1909 72.3877 81.3164C73.1051 81.4898 73.8425 81.5662 74.5802 81.5435H88.1502V85.3177H74.3218V82.765L69.4044 83.7517V85.3177C69.3857 86.0592 69.4701 86.7997 69.655 87.5181C69.7829 88.061 70.0582 88.5582 70.4506 88.9547C70.843 89.3512 71.3372 89.6318 71.8788 89.7654C72.5895 89.9336 73.3175 90.0177 74.0478 90.0159H88.44C89.1787 90.0308 89.9161 89.9465 90.6324 89.7654C91.1826 89.6428 91.6866 89.3665 92.0859 88.9687C92.4851 88.5708 92.7631 88.0678 92.8876 87.5181C93.0549 86.7967 93.1364 86.0582 93.1303 85.3177V81.7236C93.1533 80.985 93.0716 80.2468 92.8876 79.5311Z" fill="#3A5629"/>
</g>
<defs>
<clipPath id="clip0_5720_36614">
<rect width="105.905" height="48" fill="white" transform="translate(12 42)"/>
</clipPath>
</defs>
</svg>
