<svg width="24" height="25" viewBox="0 0 24 25" fill="none" xmlns="http://www.w3.org/2000/svg">
<path fill-rule="evenodd" clip-rule="evenodd" d="M20.2803 20.0303C20.5732 19.7374 20.5732 19.2626 20.2803 18.9697L13.8107 12.5L20.2803 6.03033C20.5732 5.73744 20.5732 5.26256 20.2803 4.96967C19.9874 4.67678 19.5126 4.67678 19.2197 4.96967L12.2197 11.9697C11.9268 12.2626 11.9268 12.7374 12.2197 13.0303L19.2197 20.0303C19.5126 20.3232 19.9874 20.3232 20.2803 20.0303Z" fill="#98968D"/>
<path fill-rule="evenodd" clip-rule="evenodd" d="M11.7803 20.0303C12.0732 19.7374 12.0732 19.2626 11.7803 18.9697L5.31066 12.5L11.7803 6.03033C12.0732 5.73744 12.0732 5.26256 11.7803 4.96967C11.4874 4.67678 11.0126 4.67678 10.7197 4.96967L3.71967 11.9697C3.42678 12.2626 3.42678 12.7374 3.71967 13.0303L10.7197 20.0303C11.0126 20.3232 11.4874 20.3232 11.7803 20.0303Z" fill="#98968D"/>
</svg>
