<svg id="Layer_1" enable-background="new 0 0 66 66" height="512" viewBox="0 0 66 66" width="512" xmlns="http://www.w3.org/2000/svg" xmlns:xlink="http://www.w3.org/1999/xlink"><linearGradient id="lg1"><stop offset="0" stop-color="#ffc63a"/><stop offset="1" stop-color="#ed971f"/></linearGradient><linearGradient id="SVGID_1_" gradientTransform="matrix(1 0 0 -1 0 564)" gradientUnits="userSpaceOnUse" x1="33.005" x2="33.005" xlink:href="#lg1" y1="562.321" y2="547.341"/><linearGradient id="SVGID_2_" gradientTransform="matrix(1 0 0 -1 0 564)" gradientUnits="userSpaceOnUse" x1="50.947" x2="50.947" xlink:href="#lg1" y1="558.25" y2="547.326"/><linearGradient id="SVGID_3_" gradientTransform="matrix(1 0 0 -1 0 564)" gradientUnits="userSpaceOnUse" x1="15.071" x2="15.071" xlink:href="#lg1" y1="558.25" y2="547.326"/><linearGradient id="SVGID_4_" gradientTransform="matrix(1 0 0 -1 0 564)" gradientUnits="userSpaceOnUse" x1="33" x2="33" y1="526.913" y2="499.679"><stop offset="0" stop-color="#7394c1"/><stop offset="1" stop-color="#3d65ab"/></linearGradient><linearGradient id="SVGID_5_" gradientTransform="matrix(1 0 0 -1 0 564)" gradientUnits="userSpaceOnUse" x1="33" x2="33" y1="543.254" y2="499.679"><stop offset="0" stop-color="#5d51c3"/><stop offset="1" stop-color="#0e272d"/></linearGradient><linearGradient id="lg2"><stop offset="0" stop-color="#d5eef6"/><stop offset="1" stop-color="#9dc7de"/></linearGradient><linearGradient id="SVGID_6_" gradientTransform="matrix(1 0 0 -1 0 564)" gradientUnits="userSpaceOnUse" x1="9.851" x2="9.851" xlink:href="#lg2" y1="521.466" y2="516.02"/><linearGradient id="SVGID_7_" gradientTransform="matrix(1 0 0 -1 0 564)" gradientUnits="userSpaceOnUse" x1="9.851" x2="9.851" xlink:href="#lg2" y1="510.573" y2="505.126"/><linearGradient id="SVGID_8_" gradientTransform="matrix(1 0 0 -1 0 564)" gradientUnits="userSpaceOnUse" x1="24.83" x2="24.83" xlink:href="#lg2" y1="537.807" y2="532.36"/><linearGradient id="SVGID_9_" gradientTransform="matrix(1 0 0 -1 0 564)" gradientUnits="userSpaceOnUse" x1="24.83" x2="24.83" xlink:href="#lg2" y1="528.275" y2="522.828"/><linearGradient id="SVGID_10_" gradientTransform="matrix(1 0 0 -1 0 564)" gradientUnits="userSpaceOnUse" x1="33" x2="33" xlink:href="#lg2" y1="537.807" y2="532.36"/><linearGradient id="SVGID_11_" gradientTransform="matrix(1 0 0 -1 0 564)" gradientUnits="userSpaceOnUse" x1="33" x2="33" xlink:href="#lg2" y1="528.275" y2="522.828"/><linearGradient id="SVGID_12_" gradientTransform="matrix(1 0 0 -1 0 564)" gradientUnits="userSpaceOnUse" x1="41.17" x2="41.17" xlink:href="#lg2" y1="537.807" y2="532.36"/><linearGradient id="SVGID_13_" gradientTransform="matrix(1 0 0 -1 0 564)" gradientUnits="userSpaceOnUse" x1="41.17" x2="41.17" xlink:href="#lg2" y1="528.275" y2="522.828"/><linearGradient id="SVGID_14_" gradientTransform="matrix(1 0 0 -1 0 564)" gradientUnits="userSpaceOnUse" x1="56.149" x2="56.149" xlink:href="#lg2" y1="521.466" y2="516.02"/><linearGradient id="SVGID_15_" gradientTransform="matrix(1 0 0 -1 0 564)" gradientUnits="userSpaceOnUse" x1="56.149" x2="56.149" xlink:href="#lg2" y1="510.573" y2="505.126"/><linearGradient id="SVGID_16_" gradientTransform="matrix(1 0 0 -1 0 564)" gradientUnits="userSpaceOnUse" x1="33" x2="33" xlink:href="#lg1" y1="516.02" y2="499.679"/><g><path d="m39.63 6.37-3.73-.55-1.66-3.38c-.5-1.02-1.96-1.02-2.46 0l-1.66 3.38-3.73.54c-1.13.16-1.58 1.55-.76 2.34l2.7 2.63-.64 3.72c-.19 1.12.98 1.97 1.99 1.44l3.32-1.75 3.34 1.76c1.01.53 2.18-.33 1.99-1.44l-.64-3.72 2.7-2.63c.82-.79.37-2.18-.76-2.34z" fill="url(#SVGID_1_)"/><path d="m55.77 9.17-2.71-.39-1.21-2.46c-.37-.75-1.43-.75-1.8 0l-1.21 2.46-2.71.39c-.82.12-1.14 1.13-.56 1.7l1.96 1.92-.46 2.71c-.14.82.72 1.44 1.46 1.05l2.42-1.28 2.42 1.28c.74.38 1.59-.23 1.46-1.05l-.46-2.71 1.96-1.92c.58-.57.25-1.58-.56-1.7z" fill="url(#SVGID_2_)"/><path d="m19.89 9.17-2.71-.39-1.21-2.46c-.37-.75-1.43-.75-1.8 0l-1.21 2.46-2.71.39c-.82.12-1.14 1.13-.56 1.7l1.96 1.92-.46 2.71c-.14.82.72 1.44 1.46 1.05l2.42-1.28 2.42 1.28c.74.38 1.59-.23 1.46-1.05l-.46-2.71 1.96-1.92c.59-.57.27-1.58-.56-1.7z" fill="url(#SVGID_3_)"/><path d="m62.96 37.09h-9.53-40.86-9.53c-.75 0-1.36.61-1.36 1.36v24.51c0 .75.61 1.36 1.36 1.36h59.91c.75 0 1.36-.61 1.36-1.36v-24.51c.01-.75-.6-1.36-1.35-1.36z" fill="url(#SVGID_4_)"/><path d="m45.26 20.75h-24.52c-1.5 0-2.72 1.23-2.72 2.72v40.85h29.96v-40.85c0-1.5-1.23-2.72-2.72-2.72z" fill="url(#SVGID_5_)"/><path d="m11.21 42.53h-2.72c-.75 0-1.36.61-1.36 1.36v2.72c0 .75.61 1.36 1.36 1.36h2.72c.75 0 1.36-.61 1.36-1.36v-2.71c0-.75-.61-1.37-1.36-1.37z" fill="url(#SVGID_6_)"/><path d="m11.21 53.43h-2.72c-.75 0-1.36.61-1.36 1.36v2.72c0 .75.61 1.36 1.36 1.36h2.72c.75 0 1.36-.61 1.36-1.36v-2.72c0-.75-.61-1.36-1.36-1.36z" fill="url(#SVGID_7_)"/><path d="m26.19 26.19h-2.72c-.75 0-1.36.61-1.36 1.36v2.72c0 .75.61 1.36 1.36 1.36h2.72c.75 0 1.36-.61 1.36-1.36v-2.72c0-.74-.61-1.36-1.36-1.36z" fill="url(#SVGID_8_)"/><path d="m26.19 35.73h-2.72c-.75 0-1.36.61-1.36 1.36v2.72c0 .75.61 1.36 1.36 1.36h2.72c.75 0 1.36-.61 1.36-1.36v-2.72c0-.75-.61-1.36-1.36-1.36z" fill="url(#SVGID_9_)"/><path d="m34.36 26.19h-2.72c-.75 0-1.36.61-1.36 1.36v2.72c0 .75.61 1.36 1.36 1.36h2.72c.75 0 1.36-.61 1.36-1.36v-2.72c0-.74-.61-1.36-1.36-1.36z" fill="url(#SVGID_10_)"/><path d="m34.36 35.73h-2.72c-.75 0-1.36.61-1.36 1.36v2.72c0 .75.61 1.36 1.36 1.36h2.72c.75 0 1.36-.61 1.36-1.36v-2.72c0-.75-.61-1.36-1.36-1.36z" fill="url(#SVGID_11_)"/><path d="m42.53 26.19h-2.72c-.75 0-1.36.61-1.36 1.36v2.72c0 .75.61 1.36 1.36 1.36h2.72c.75 0 1.36-.61 1.36-1.36v-2.72c0-.74-.61-1.36-1.36-1.36z" fill="url(#SVGID_12_)"/><path d="m42.53 35.73h-2.72c-.75 0-1.36.61-1.36 1.36v2.72c0 .75.61 1.36 1.36 1.36h2.72c.75 0 1.36-.61 1.36-1.36v-2.72c0-.75-.61-1.36-1.36-1.36z" fill="url(#SVGID_13_)"/><path d="m57.51 42.53h-2.72c-.75 0-1.36.61-1.36 1.36v2.72c0 .75.61 1.36 1.36 1.36h2.72c.75 0 1.36-.61 1.36-1.36v-2.71c0-.75-.61-1.37-1.36-1.37z" fill="url(#SVGID_14_)"/><path d="m57.51 53.43h-2.72c-.75 0-1.36.61-1.36 1.36v2.72c0 .75.61 1.36 1.36 1.36h2.72c.75 0 1.36-.61 1.36-1.36v-2.72c0-.75-.61-1.36-1.36-1.36z" fill="url(#SVGID_15_)"/><path d="m37.08 47.98h-8.17c-.75 0-1.36.61-1.36 1.36v14.98h10.89v-14.98c.01-.75-.61-1.36-1.36-1.36z" fill="url(#SVGID_16_)"/></g></svg>