<svg width="24" height="24" viewBox="0 0 24 24" fill="none" xmlns="http://www.w3.org/2000/svg">
<path d="M18.1572 16.882L16.9702 18.0559C16.0954 18.9145 14.9602 20.0185 13.5644 21.368C12.6921 22.2114 11.3083 22.2113 10.4362 21.3678L6.94515 17.9719C6.50639 17.5411 6.13912 17.1778 5.84328 16.882C2.44287 13.4816 2.44287 7.96842 5.84328 4.56801C9.24369 1.1676 14.7568 1.1676 18.1572 4.56801C21.5576 7.96842 21.5576 13.4816 18.1572 16.882ZM14.5004 10.9997C14.5004 9.61887 13.381 8.49949 12.0002 8.49949C10.6194 8.49949 9.50007 9.61887 9.50007 10.9997C9.50007 12.3805 10.6194 13.4999 12.0002 13.4999C13.381 13.4999 14.5004 12.3805 14.5004 10.9997Z" fill="#00C2FF"/>
</svg>
