<svg width="24" height="24" viewBox="0 0 24 24" fill="none" xmlns="http://www.w3.org/2000/svg">
<path d="M14.1532 19.5926C16.3691 16.428 19.5 11.4 19.5 8.25C19.5 6.26088 18.7098 4.35322 17.3033 2.9467C15.8968 1.54018 13.9891 0.75 12 0.75C10.0109 0.75 8.10322 1.54018 6.6967 2.9467C5.29018 4.35322 4.5 6.26088 4.5 8.25C4.5 11.4 7.63087 16.428 9.84675 19.5926C10.0889 19.9391 10.4111 20.2221 10.7859 20.4175C11.1608 20.6128 11.5773 20.7148 12 20.7148C12.4227 20.7148 12.8392 20.6128 13.2141 20.4175C13.5889 20.2221 13.9111 19.9391 14.1532 19.5926ZM8.25 11.25V7.5C8.25 7.30109 8.32902 7.11032 8.46967 6.96967C8.61032 6.82902 8.80109 6.75 9 6.75H10.125V6.375C10.125 6.07663 10.2435 5.79048 10.4545 5.5795C10.6655 5.36853 10.9516 5.25 11.25 5.25H12.75C13.0484 5.25 13.3345 5.36853 13.5455 5.5795C13.7565 5.79048 13.875 6.07663 13.875 6.375V6.75H15C15.1989 6.75 15.3897 6.82902 15.5303 6.96967C15.671 7.11032 15.75 7.30109 15.75 7.5V11.25C15.75 11.4489 15.671 11.6397 15.5303 11.7803C15.3897 11.921 15.1989 12 15 12H9C8.80109 12 8.61032 11.921 8.46967 11.7803C8.32902 11.6397 8.25 11.4489 8.25 11.25ZM13.125 6.375V6.75H10.875V6.375C10.875 6.27554 10.9145 6.18016 10.9848 6.10983C11.0552 6.03951 11.1505 6 11.25 6H12.75C12.8495 6 12.9448 6.03951 13.0152 6.10983C13.0855 6.18016 13.125 6.27554 13.125 6.375ZM19.875 20.625C19.875 23.0606 13.8476 23.25 12 23.25C10.1524 23.25 4.125 23.0625 4.125 20.625C4.125 19.6241 5.1375 18.8906 7.13437 18.4455C7.32856 18.4022 7.53198 18.4379 7.69989 18.5446C7.86779 18.6513 7.98642 18.8204 8.02969 19.0146C8.07295 19.2088 8.0373 19.4122 7.93058 19.5801C7.82386 19.748 7.65481 19.8666 7.46063 19.9099C6.20513 20.1896 5.78325 20.5054 5.66063 20.6287C5.99625 20.982 7.84613 21.75 12 21.75C16.1539 21.75 18.0038 20.982 18.3401 20.6287C18.2168 20.5054 17.7945 20.1896 16.5401 19.9099C16.4403 19.8923 16.3451 19.8547 16.2602 19.7993C16.1753 19.744 16.1025 19.6719 16.0462 19.5876C15.9899 19.5033 15.9513 19.4085 15.9327 19.3089C15.9141 19.2092 15.9159 19.1068 15.9379 19.0079C15.96 18.909 16.0019 18.8155 16.0611 18.7333C16.1203 18.651 16.1955 18.5815 16.2823 18.5291C16.3691 18.4768 16.4656 18.4425 16.566 18.4284C16.6664 18.4144 16.7685 18.4208 16.8664 18.4474C18.8625 18.8906 19.875 19.6241 19.875 20.625Z" fill="#282723"/>
</svg>
