<svg width="96" height="113" viewBox="0 0 96 113" fill="none" xmlns="http://www.w3.org/2000/svg">
<g clip-path="url(#clip0_2486_7142)">
<path d="M48.0069 2.21127e-07C38.6116 -0.00090801 29.4271 2.79598 21.6148 8.03696C13.8025 13.2779 7.71327 20.7276 4.11723 29.4439C0.521193 38.1602 -0.420163 47.7515 1.41221 57.0051C3.24458 66.2586 7.76837 74.7586 14.4115 81.4303C21.0546 88.102 29.5187 92.6456 38.7334 94.4865C47.9481 96.3275 57.4994 95.3831 66.1796 91.7728C74.8598 88.1625 82.2789 82.0485 87.4987 74.2039C92.7185 66.3593 95.5046 57.1364 95.5046 47.7017C95.5046 35.0512 90.5005 22.9188 81.5931 13.9731C72.6857 5.02746 60.6045 0.00121802 48.0069 2.21127e-07Z" fill="white"/>
<path d="M74.8244 27.3156H82.0459V71.1232H74.8244L60.1448 45.2072V31.5359L74.8244 57.5114V27.3156ZM50.4966 71.1232V27.3156H57.718V71.1232H50.4966Z" fill="#E49D35"/>
<path d="M28.1314 65.7434L36.5101 27.52H39.323V43.5666L32.7995 72.0539H23.4033L12.2117 27.52H20.3511L28.1314 65.7434ZM60.8684 27.52H69.0078L57.098 72.0539H47.7616L41.7768 44.7085V27.52H44.6495L52.4298 65.7434L60.8684 27.52Z" fill="#020B3B"/>
<path d="M15.6889 109.649L13.3473 101.05H14.4011L16.1907 108.054H16.2743L18.0975 101.05H19.2683L21.0914 108.054H21.175L22.9647 101.05H24.0184L21.6768 109.649H20.6063L18.7163 102.796H18.6494L16.7594 109.649H15.6889Z" fill="white"/>
<path d="M33.5557 105.349C33.5557 106.256 33.3926 107.04 33.0665 107.701C32.7403 108.362 32.2929 108.871 31.7242 109.229C31.1556 109.588 30.506 109.767 29.7757 109.767C29.0453 109.767 28.3958 109.588 27.8271 109.229C27.2584 108.871 26.811 108.362 26.4849 107.701C26.1587 107.04 25.9956 106.256 25.9956 105.349C25.9956 104.442 26.1587 103.659 26.4849 102.998C26.811 102.337 27.2584 101.828 27.8271 101.47C28.3958 101.111 29.0453 100.932 29.7757 100.932C30.506 100.932 31.1556 101.111 31.7242 101.47C32.2929 101.828 32.7403 102.337 33.0665 102.998C33.3926 103.659 33.5557 104.442 33.5557 105.349ZM32.5522 105.349C32.5522 104.605 32.4281 103.976 32.18 103.464C31.9347 102.952 31.6016 102.564 31.1806 102.301C30.7625 102.038 30.2942 101.906 29.7757 101.906C29.2572 101.906 28.7875 102.038 28.3665 102.301C27.9484 102.564 27.6153 102.952 27.3672 103.464C27.1218 103.976 26.9992 104.605 26.9992 105.349C26.9992 106.094 27.1218 106.722 27.3672 107.235C27.6153 107.747 27.9484 108.135 28.3665 108.398C28.7875 108.661 29.2572 108.793 29.7757 108.793C30.2942 108.793 30.7625 108.661 31.1806 108.398C31.6016 108.135 31.9347 107.747 32.18 107.235C32.4281 106.722 32.5522 106.094 32.5522 105.349Z" fill="white"/>
<path d="M35.8694 109.649V101.05H38.7629C39.432 101.05 39.9811 101.164 40.4104 101.394C40.8397 101.621 41.1575 101.933 41.3638 102.33C41.5701 102.728 41.6732 103.18 41.6732 103.687C41.6732 104.193 41.5701 104.643 41.3638 105.034C41.1575 105.426 40.8411 105.734 40.4146 105.958C39.9881 106.179 39.4431 106.29 38.7797 106.29H36.438V105.349H38.7462C39.2034 105.349 39.5713 105.282 39.8501 105.148C40.1317 105.014 40.3352 104.823 40.4606 104.577C40.5888 104.328 40.6529 104.031 40.6529 103.687C40.6529 103.342 40.5888 103.041 40.4606 102.784C40.3324 102.526 40.1275 102.328 39.8459 102.188C39.5644 102.045 39.1922 101.973 38.7295 101.973H36.9064V109.649H35.8694ZM39.9003 105.786L42.0077 109.649H40.8035L38.7295 105.786H39.9003Z" fill="white"/>
<path d="M44.3776 109.649V101.05H45.4146V105.316H45.5149L49.3619 101.05H50.7167L47.1206 104.93L50.7167 109.649H49.4622L46.485 105.652L45.4146 106.861V109.649H44.3776Z" fill="white"/>
<path d="M59.6256 101.05V109.649H58.6221L53.9556 102.897H53.8719V109.649H52.8349V101.05H53.8385L58.5217 107.818H58.6053V101.05H59.6256Z" fill="white"/>
<path d="M69.3827 105.349C69.3827 106.256 69.2196 107.04 68.8935 107.701C68.5673 108.362 68.1199 108.871 67.5512 109.229C66.9826 109.588 66.333 109.767 65.6027 109.767C64.8723 109.767 64.2228 109.588 63.6541 109.229C63.0854 108.871 62.638 108.362 62.3119 107.701C61.9857 107.04 61.8226 106.256 61.8226 105.349C61.8226 104.442 61.9857 103.659 62.3119 102.998C62.638 102.337 63.0854 101.828 63.6541 101.47C64.2228 101.111 64.8723 100.932 65.6027 100.932C66.333 100.932 66.9826 101.111 67.5512 101.47C68.1199 101.828 68.5673 102.337 68.8935 102.998C69.2196 103.659 69.3827 104.442 69.3827 105.349ZM68.3792 105.349C68.3792 104.605 68.2551 103.976 68.007 103.464C67.7617 102.952 67.4286 102.564 67.0076 102.301C66.5895 102.038 66.1212 101.906 65.6027 101.906C65.0842 101.906 64.6145 102.038 64.1935 102.301C63.7754 102.564 63.4423 102.952 63.1942 103.464C62.9488 103.976 62.8262 104.605 62.8262 105.349C62.8262 106.094 62.9488 106.722 63.1942 107.235C63.4423 107.747 63.7754 108.135 64.1935 108.398C64.6145 108.661 65.0842 108.793 65.6027 108.793C66.1212 108.793 66.5895 108.661 67.0076 108.398C67.4286 108.135 67.7617 107.747 68.007 107.235C68.2551 106.722 68.3792 106.094 68.3792 105.349Z" fill="white"/>
<path d="M73.2474 109.649L70.9058 101.05H71.9595L73.7492 108.054H73.8328L75.6559 101.05H76.8267L78.6498 108.054H78.7334L80.5231 101.05H81.5768L79.2352 109.649H78.1648L76.2747 102.796H76.2078L74.3178 109.649H73.2474Z" fill="white"/>
</g>
<defs>
<clipPath id="clip0_2486_7142">
<rect width="95" height="113" fill="white" transform="translate(0.5)"/>
</clipPath>
</defs>
</svg>
