<svg width="20" height="20" viewBox="0 0 20 20" fill="none" xmlns="http://www.w3.org/2000/svg">
<path fill-rule="evenodd" clip-rule="evenodd" d="M2.10938 14.7656C2.10938 16.4915 3.50849 17.8906 5.23437 17.8906H18.613C19.0445 17.8906 19.3943 17.5408 19.3943 17.1094C19.3943 16.6779 19.0445 16.3281 18.613 16.3281H5.23437C4.37143 16.3281 3.67187 15.6286 3.67187 14.7656V1.75781C3.67187 1.32634 3.3221 0.976562 2.89062 0.976562C2.45915 0.976562 2.10938 1.32634 2.10938 1.75781V14.7656Z" fill="#5E5B50"/>
<path fill-rule="evenodd" clip-rule="evenodd" d="M0.225091 2.97054C0.528113 3.2777 1.02276 3.28106 1.32992 2.97803L2.64972 1.676C2.80312 1.52466 3.05624 1.52465 3.20963 1.67598L4.52946 2.97803C4.83661 3.28106 5.33126 3.2777 5.63428 2.97054C5.93731 2.66339 5.93395 2.16874 5.62679 1.86572L4.30701 0.563703C4.307 0.563697 4.30701 0.563709 4.30701 0.563703C3.54517 -0.187902 2.31422 -0.187921 1.55238 0.563685C1.55238 0.563691 1.55239 0.563679 1.55238 0.563685L0.23258 1.86572C-0.0745779 2.16874 -0.0779311 2.66339 0.225091 2.97054Z" fill="#5E5B50"/>
<path fill-rule="evenodd" clip-rule="evenodd" d="M16.9832 19.7677C17.2864 20.0747 17.781 20.0778 18.088 19.7746L19.4245 18.4548C19.4256 18.4537 19.4268 18.4525 19.4279 18.4514C20.1907 17.6886 20.1907 16.452 19.4279 15.6893C19.4271 15.6885 19.4263 15.6877 19.4256 15.6869C19.4252 15.6865 19.4248 15.6862 19.4245 15.6858L18.088 14.366C17.781 14.0628 17.2864 14.0659 16.9832 14.3729C16.68 14.6799 16.6831 15.1746 16.9901 15.4778L18.3244 16.7954C18.4752 16.9476 18.4752 17.193 18.3244 17.3452L16.9901 18.6629C16.6831 18.9661 16.68 19.4607 16.9832 19.7677Z" fill="#5E5B50"/>
<path d="M18.4375 2.34374V12.5C18.4375 12.9303 18.7856 13.2796 19.2159 13.2812H19.2159C19.6485 13.2828 20 12.9326 20 12.5V2.34374C20 1.04933 18.9507 -5.72205e-06 17.6563 -5.72205e-06H7.53907C7.10649 -5.72205e-06 6.75622 0.351518 6.75782 0.784096C6.75942 1.21449 7.10872 1.56249 7.53907 1.56249H17.6563C18.0877 1.56249 18.4375 1.91226 18.4375 2.34374Z" fill="#5E5B50"/>
<path fill-rule="evenodd" clip-rule="evenodd" d="M8.75 13.3984C9.18147 13.3984 9.53125 13.0487 9.53125 12.6172V9.13574C9.53125 7.94919 8.56936 6.9873 7.38281 6.9873C6.19626 6.9873 5.23438 7.94919 5.23438 9.13574C5.23438 9.56721 5.58415 9.91699 6.01562 9.91699C6.4471 9.91699 6.79687 9.56721 6.79687 9.13574C6.79687 8.81214 7.05921 8.54981 7.38281 8.54981C7.70642 8.54981 7.96875 8.81214 7.96875 9.13574V12.6172C7.96875 13.0487 8.31853 13.3984 8.75 13.3984Z" fill="#5E5B50"/>
<path fill-rule="evenodd" clip-rule="evenodd" d="M6.01562 13.3984C6.4471 13.3984 6.79687 13.0487 6.79687 12.6172V7.73438C6.79687 7.3029 6.4471 6.95312 6.01562 6.95312C5.58415 6.95312 5.23438 7.3029 5.23438 7.73438V12.6172C5.23438 13.0487 5.58415 13.3984 6.01562 13.3984Z" fill="#5E5B50"/>
<path fill-rule="evenodd" clip-rule="evenodd" d="M11.4844 13.394C11.9158 13.394 12.2656 13.0443 12.2656 12.6128V9.13561C12.2656 7.94906 11.3037 6.98717 10.1172 6.98717C8.93064 6.98717 7.96875 7.94906 7.96875 9.13561C7.96875 9.56708 8.31853 9.91686 8.75 9.91686C9.18147 9.91686 9.53125 9.56708 9.53125 9.13561C9.53125 8.812 9.79358 8.54967 10.1172 8.54967C10.4408 8.54967 10.7031 8.812 10.7031 9.13561V12.6128C10.7031 13.0443 11.0529 13.394 11.4844 13.394Z" fill="#5E5B50"/>
<path fill-rule="evenodd" clip-rule="evenodd" d="M13.2556 9.03145C13.3719 9.33264 13.6615 9.53125 13.9844 9.53125H16.0938C16.5253 9.53125 16.875 9.18147 16.875 8.75C16.875 8.31853 16.5253 7.96875 16.0938 7.96875H15.8248C16.0228 7.73515 16.2182 7.48458 16.3807 7.23649C16.4931 7.06487 16.5996 6.87959 16.6801 6.69031C16.7575 6.50827 16.8312 6.27588 16.8312 6.02273C16.8312 5.03026 16.0236 4.21875 15.0293 4.21875C14.5978 4.21875 14.248 4.56853 14.248 5C14.248 5.43147 14.5978 5.78125 15.0293 5.78125C15.1525 5.78125 15.2597 5.88164 15.2681 6.00689C15.2654 6.01714 15.2585 6.04057 15.2422 6.07893C15.2097 6.15531 15.1549 6.25634 15.0736 6.38035C14.9109 6.62879 14.682 6.9098 14.4358 7.18411C14.1925 7.4551 13.9471 7.70331 13.7613 7.88477C13.6688 7.9751 13.592 8.04796 13.5389 8.09774C13.5124 8.12262 13.4918 8.14168 13.4782 8.15422C13.4714 8.1605 13.4663 8.16513 13.4631 8.16805L13.4593 8.17154C13.4593 8.17157 13.4592 8.1716 13.4592 8.17164C13.4592 8.17159 13.4593 8.17154 13.9844 8.75M13.2556 9.03145C13.1393 8.73031 13.2202 8.38865 13.4592 8.17164L13.2556 9.03145Z" fill="#5E5B50"/>
<path fill-rule="evenodd" clip-rule="evenodd" d="M13.9844 6.8042C14.4158 6.8042 14.7656 6.45442 14.7656 6.02295C14.7656 5.89045 14.8767 5.78147 15.005 5.78147C15.4365 5.78147 15.7863 5.43169 15.7863 5.00022C15.7863 4.56874 15.4365 4.21897 15.005 4.21897C14.0107 4.21897 13.2031 5.03053 13.2031 6.02295C13.2031 6.45442 13.5529 6.8042 13.9844 6.8042Z" fill="#5E5B50"/>
</svg>
