<svg width="80" height="60" viewBox="0 0 80 60" fill="none" xmlns="http://www.w3.org/2000/svg">
<path d="M39.9978 34.9998C39.4428 34.9998 38.8878 34.8148 38.4328 34.4498L2.63281 5.69981L5.76281 1.7998L39.9978 29.2948L74.2328 1.7998L77.3628 5.6948L41.5628 34.4448C41.1078 34.8148 40.5528 34.9998 39.9978 34.9998Z" fill="#CFCEC8"/>
<path d="M62.5013 60.0002C61.8613 60.0002 61.2212 59.7552 60.7312 59.2702L53.2312 51.7702C52.2563 50.7952 52.2563 49.2102 53.2312 48.2352C54.2062 47.2602 55.7912 47.2602 56.7662 48.2352L62.4962 53.9652L75.7263 40.7352C76.7013 39.7602 78.2863 39.7602 79.2612 40.7352C80.2362 41.7102 80.2362 43.2952 79.2612 44.2702L64.2613 59.2702C63.7813 59.7552 63.1413 60.0002 62.5013 60.0002Z" fill="#6DBA31"/>
<path d="M47.5 60H7.5C3.365 60 0 56.635 0 52.5V7.5C0 3.365 3.365 0 7.5 0H72.5C76.635 0 80 3.365 80 7.5V32.5C80 33.88 78.88 35 77.5 35C76.12 35 75 33.88 75 32.5V7.5C75 6.12 73.88 5 72.5 5H7.5C6.12 5 5 6.12 5 7.5V52.5C5 53.88 6.12 55 7.5 55H47.5C48.88 55 50 56.12 50 57.5C50 58.88 48.88 60 47.5 60Z" fill="#CFCEC8"/>
</svg>
