<svg width="36" height="36" viewBox="0 0 36 36" fill="none" xmlns="http://www.w3.org/2000/svg">
<path d="M31.5007 11.2669C32.8534 12.1333 33.75 13.6494 33.75 15.375V24.375C33.75 28.7243 30.2243 32.25 25.875 32.25H12.375C10.6494 32.25 9.13328 31.3534 8.26689 30.0007L25.875 30C28.9816 30 31.5 27.4816 31.5 24.375L31.5007 11.2669ZM7.875 6H25.125C27.7245 6 29.8488 8.03467 29.9923 10.5984L30 10.875V23.625C30 26.2245 27.9653 28.3488 25.4016 28.4923L25.125 28.5H7.875C5.27545 28.5 3.15113 26.4653 3.00771 23.9016L3 23.625V10.875C3 8.27545 5.03467 6.15112 7.59837 6.00771L7.875 6ZM27.75 13.3485L17.024 18.9956C16.7429 19.1434 16.4147 19.1646 16.1202 19.059L15.976 18.9956L5.25 13.35V23.625C5.25 25.0023 6.31067 26.1318 7.65971 26.2413L7.875 26.25H25.125C26.5023 26.25 27.6318 25.1894 27.7413 23.8403L27.75 23.625V13.3485ZM25.125 8.25H7.875C6.49775 8.25 5.36822 9.31067 5.2587 10.6597L5.253 10.809L16.5 16.7288L27.7491 10.8072C27.7132 9.38882 26.5521 8.25 25.125 8.25Z" fill="#5E5B50"/>
</svg>
