<svg width="20" height="20" viewBox="0 0 20 20" fill="none" xmlns="http://www.w3.org/2000/svg">
<path d="M18.6315 15.137V15.4276C18.6315 15.5672 18.5409 15.7031 18.3598 15.8087C17.9937 16.02 17.4013 16.02 17.0352 15.8087C16.8503 15.7031 16.7598 15.5634 16.7598 15.4238V15.1295C16.7598 14.9898 16.8503 14.854 17.0315 14.7483C17.3937 14.537 17.99 14.537 18.356 14.7483C18.5409 14.854 18.6315 14.9974 18.6315 15.137Z" fill="#AA6256"/>
<path d="M18.6324 15.1362V15.4285C18.632 15.5663 18.5413 15.704 18.3602 15.8093C17.9956 16.0211 17.4031 16.0211 17.0361 15.8093C16.8516 15.7027 16.7594 15.5628 16.7598 15.4231L16.7598 15.1309C16.7594 15.2706 16.8516 15.4105 17.0361 15.517C17.4031 15.7289 17.9956 15.7289 18.3602 15.517C18.5413 15.4118 18.632 15.2741 18.6324 15.1362Z" fill="#AA6256"/>
<path d="M18.6358 15.1372C18.6367 14.8377 18.2183 14.5937 17.7012 14.5921C17.1841 14.5906 16.7642 14.8321 16.7633 15.1316C16.7624 15.431 17.1809 15.6751 17.6979 15.6766C18.215 15.6782 18.6349 15.4367 18.6358 15.1372Z" fill="#BF7D5A"/>
<path d="M18.2629 14.0802V15.0651C18.2629 15.1481 18.2063 15.2311 18.0969 15.2953C17.878 15.4236 17.5195 15.4236 17.2969 15.2953C17.1875 15.2311 17.1309 15.1481 17.1309 15.0613V14.0764C17.1309 13.9934 17.1837 13.9104 17.2931 13.8462C17.5158 13.7179 17.8743 13.7179 18.0969 13.8462C18.2063 13.9104 18.2629 13.9934 18.2629 14.0802Z" fill="#DEDFFB"/>
<path d="M18.261 14.0814L18.2611 15.066C18.2609 15.1493 18.2061 15.2326 18.0966 15.2962C17.8761 15.4243 17.5179 15.4243 17.296 15.2962C17.1845 15.2318 17.1287 15.1472 17.129 15.0627L17.1289 14.0781C17.1287 14.1626 17.1844 14.2472 17.296 14.3116C17.5179 14.4397 17.8761 14.4397 18.0965 14.3116C18.206 14.248 18.2608 14.1647 18.261 14.0814Z" fill="#DEDFFB"/>
<path d="M18.2639 14.0837C18.2645 13.9026 18.0115 13.755 17.6989 13.7541C17.3863 13.7531 17.1324 13.8992 17.1318 14.0803C17.1313 14.2614 17.3843 14.409 17.6969 14.4099C18.0095 14.4108 18.2634 14.2648 18.2639 14.0837Z" fill="#F3F1FC"/>
<path d="M18.3175 9.47461L18.3166 9.80792L15.7676 11.2892L15.7685 10.9559L18.3175 9.47461Z" fill="#1D2943"/>
<path d="M18.0767 10.3935V14.0463C18.0767 14.103 18.039 14.1595 17.9673 14.2048C17.8163 14.2879 17.5748 14.2879 17.4277 14.2048C17.3522 14.1595 17.3145 14.103 17.3145 14.0463V10.3897C17.3145 10.3331 17.3522 10.2765 17.4239 10.235C17.5711 10.1482 17.8163 10.1482 17.9635 10.235C18.039 10.2803 18.0767 10.3369 18.0767 10.3935Z" fill="#BF7D5A"/>
<path d="M18.078 10.3909L18.078 14.0476C18.0778 14.1038 18.0409 14.1599 17.967 14.2028C17.8184 14.2892 17.5768 14.2892 17.4272 14.2029C17.3519 14.1594 17.3143 14.1024 17.3145 14.0454L17.3145 10.3887C17.3143 10.4456 17.3519 10.5027 17.4271 10.5461C17.5768 10.6325 17.8183 10.6325 17.967 10.5461C18.0408 10.5032 18.0778 10.4471 18.078 10.3909Z" fill="#BF7D5A"/>
<path d="M18.0808 10.3925C18.0812 10.2704 17.9105 10.1708 17.6996 10.1702C17.4887 10.1696 17.3174 10.2681 17.3171 10.3902C17.3167 10.5123 17.4874 10.6118 17.6983 10.6125C17.9092 10.6131 18.0805 10.5146 18.0808 10.3925Z" fill="#DBA660"/>
<path d="M13.3991 18.1566V18.4471C13.3991 18.5867 13.3085 18.7226 13.1273 18.8282C12.7613 19.0396 12.1689 19.0396 11.8028 18.8282C11.6179 18.7226 11.5273 18.583 11.5273 18.4434V18.149C11.5273 18.0094 11.6179 17.8735 11.799 17.7679C12.1613 17.5565 12.7575 17.5565 13.1236 17.7679C13.3085 17.8735 13.3991 18.0169 13.3991 18.1566Z" fill="#AA6256"/>
<path d="M13.4 18.1538V18.446C13.3996 18.5839 13.3089 18.7216 13.1278 18.8269C12.7632 19.0387 12.1707 19.0387 11.8037 18.8269C11.6192 18.7203 11.5269 18.5804 11.5273 18.4407L11.5273 18.1484C11.5269 18.2882 11.6192 18.4281 11.8037 18.5346C12.1707 18.7465 12.7632 18.7465 13.1278 18.5346C13.3089 18.4293 13.3996 18.2917 13.4 18.1538Z" fill="#AA6256"/>
<path d="M13.4014 18.1567C13.4023 17.8572 12.9839 17.6132 12.4668 17.6116C11.9498 17.6101 11.5299 17.8516 11.529 18.1511C11.5281 18.4506 11.9465 18.6946 12.4636 18.6962C12.9806 18.6977 13.4005 18.4562 13.4014 18.1567Z" fill="#BF7D5A"/>
<path d="M13.0305 17.0997V18.0846C13.0305 18.1676 12.9739 18.2507 12.8645 18.3148C12.6456 18.4431 12.2871 18.4431 12.0645 18.3148C11.9551 18.2507 11.8984 18.1676 11.8984 18.0809V17.096C11.8984 17.0129 11.9513 16.9299 12.0607 16.8657C12.2834 16.7375 12.6418 16.7375 12.8645 16.8657C12.9739 16.9299 13.0305 17.0129 13.0305 17.0997Z" fill="#DEDFFB"/>
<path d="M13.0286 17.1009L13.0287 18.0855C13.0284 18.1689 12.9736 18.2521 12.8641 18.3157C12.6437 18.4438 12.2855 18.4438 12.0636 18.3157C11.9521 18.2513 11.8963 18.1667 11.8965 18.0823L11.8965 17.0977C11.8962 17.1821 11.952 17.2667 12.0636 17.3311C12.2854 17.4592 12.6437 17.4592 12.8641 17.3311C12.9736 17.2675 13.0284 17.1843 13.0286 17.1009Z" fill="#DEDFFB"/>
<path d="M13.0315 17.1032C13.032 16.9221 12.7791 16.7745 12.4664 16.7736C12.1538 16.7726 11.9 16.9187 11.8994 17.0998C11.8989 17.2809 12.1519 17.4285 12.4645 17.4294C12.7771 17.4304 13.031 17.2843 13.0315 17.1032Z" fill="#F3F1FC"/>
<path d="M12.8463 13.413V17.0659C12.8463 17.1225 12.8085 17.1791 12.7368 17.2244C12.5859 17.3074 12.3444 17.3074 12.1972 17.2244C12.1217 17.1791 12.084 17.1225 12.084 17.0659V13.4093C12.084 13.3527 12.1217 13.2961 12.1934 13.2546C12.3406 13.1678 12.5859 13.1678 12.7331 13.2546C12.8085 13.2998 12.8463 13.3564 12.8463 13.413Z" fill="#BF7D5A"/>
<path d="M12.8455 13.4104L12.8456 17.0671C12.8454 17.1233 12.8084 17.1795 12.7346 17.2224C12.586 17.3088 12.3444 17.3088 12.1947 17.2224C12.1195 17.1789 12.0819 17.1219 12.0821 17.0649L12.082 13.4082C12.0819 13.4652 12.1195 13.5222 12.1947 13.5657C12.3443 13.652 12.5859 13.652 12.7346 13.5656C12.8084 13.5227 12.8454 13.4666 12.8455 13.4104Z" fill="#BF7D5A"/>
<path d="M12.8484 13.414C12.8488 13.2918 12.6781 13.1923 12.4672 13.1917C12.2563 13.1911 12.085 13.2896 12.0846 13.4117C12.0843 13.5338 12.255 13.6333 12.4659 13.634C12.6768 13.6346 12.8481 13.5361 12.8484 13.414Z" fill="#DBA660"/>
<path d="M3.40882 12.3456V12.6362C3.40882 12.7758 3.31825 12.9116 3.13711 13.0173C2.77108 13.2286 2.17862 13.2286 1.8126 13.0173C1.62767 12.9116 1.53711 12.772 1.53711 12.6324V12.3418C1.53711 12.2022 1.62767 12.0664 1.80882 11.9607C2.17107 11.7456 2.76352 11.7494 3.13335 11.9607C3.31825 12.0664 3.40882 12.206 3.40882 12.3456Z" fill="#AA6256"/>
<path d="M3.40972 12.3472V12.6394C3.40933 12.7773 3.31867 12.915 3.13755 13.0202C2.77297 13.2321 2.18045 13.2321 1.81348 13.0202C1.62894 12.9137 1.53672 12.7738 1.53711 12.634L1.53711 12.3418C1.53671 12.4815 1.62894 12.6214 1.81348 12.728C2.18045 12.9398 2.77297 12.9398 3.13755 12.728C3.31867 12.6227 3.40933 12.485 3.40972 12.3472Z" fill="#AA6256"/>
<path d="M3.40924 12.3481C3.41013 12.0486 2.9917 11.8046 2.47464 11.803C1.95757 11.8015 1.53768 12.043 1.53678 12.3425C1.53588 12.642 1.95432 12.886 2.47138 12.8876C2.98845 12.8891 3.40834 12.6476 3.40924 12.3481Z" fill="#BF7D5A"/>
<path d="M3.04028 11.2931V12.2742C3.04028 12.361 2.98367 12.444 2.87424 12.5044C2.65537 12.6327 2.29687 12.6327 2.07424 12.5044C1.96102 12.4402 1.9082 12.3572 1.9082 12.2742V11.2893C1.9082 11.2063 1.96102 11.1233 2.07046 11.0591C2.29309 10.9308 2.65159 10.9308 2.87046 11.0591C3.01386 11.1421 3.06292 11.2553 3.02139 11.361C3.03272 11.3384 3.04028 11.3157 3.04028 11.2931Z" fill="#E3E7F0"/>
<path d="M3.03839 11.2904L3.03845 12.275C3.03821 12.3583 2.9834 12.4415 2.8739 12.5052C2.65348 12.6333 2.29525 12.6333 2.07339 12.5052C1.96183 12.4408 1.90607 12.3562 1.90631 12.2717L1.90625 11.2871C1.90601 11.3716 1.96177 11.4562 2.07334 11.5206C2.2952 11.6487 2.65342 11.6487 2.87384 11.5206C2.98334 11.4569 3.03816 11.3737 3.03839 11.2904Z" fill="#E9E7FC"/>
<path d="M3.03931 11.2927C3.03985 11.1116 2.78687 10.964 2.47426 10.963C2.16164 10.9621 1.90778 11.1082 1.90723 11.2893C1.90669 11.4704 2.15967 11.6179 2.47229 11.6189C2.7849 11.6198 3.03877 11.4738 3.03931 11.2927Z" fill="#E3E7F0"/>
<path d="M2.8543 7.6025V11.2591C2.8543 11.3157 2.81658 11.3685 2.7411 11.4138C2.59395 11.5006 2.35243 11.5006 2.20148 11.4138C2.126 11.3685 2.08828 11.3119 2.09206 11.2553V7.60627C2.08828 7.54966 2.126 7.48929 2.20148 7.44401C2.34866 7.3572 2.59017 7.3572 2.7411 7.44401C2.81658 7.48929 2.8543 7.54588 2.8543 7.6025Z" fill="#BF7D5A"/>
<path d="M2.85334 7.6018L2.85338 11.2585C2.85322 11.3147 2.81626 11.3709 2.74241 11.4138C2.59376 11.5002 2.35218 11.5002 2.20256 11.4138C2.12732 11.3704 2.08972 11.3133 2.08988 11.2563L2.08984 7.59961C2.08968 7.65657 2.12729 7.71362 2.20253 7.75706C2.35214 7.84344 2.59373 7.84344 2.74237 7.75706C2.81622 7.71414 2.85318 7.65801 2.85334 7.6018Z" fill="#BF7D5A"/>
<path d="M2.85428 7.60147C2.85465 7.47934 2.68397 7.37983 2.47306 7.37919C2.26215 7.37856 2.09087 7.47705 2.09051 7.59918C2.09014 7.72131 2.26082 7.82083 2.47173 7.82146C2.68264 7.82209 2.85391 7.7236 2.85428 7.60147Z" fill="#DBA660"/>
<path d="M8.64121 9.32843V9.619C8.64121 9.75862 8.55065 9.89447 8.36953 10.0001C8.00348 10.2115 7.41102 10.2115 7.045 10.0001C6.86009 9.89447 6.76953 9.75485 6.76953 9.61523V9.32088C6.76953 9.18125 6.86009 9.04541 7.04122 8.93974C7.40727 8.72842 7.9997 8.72842 8.36575 8.93974C8.55065 9.04541 8.64499 9.18881 8.64121 9.32843Z" fill="#AA6256"/>
<path d="M8.64019 9.32567V9.61792C8.6398 9.7558 8.54914 9.89347 8.36802 9.99873C8.00343 10.2106 7.41092 10.2106 7.04395 9.99873C6.85941 9.89219 6.76718 9.75228 6.76758 9.61256L6.76758 9.32031C6.76718 9.46003 6.85941 9.59994 7.04395 9.70648C7.41091 9.91835 8.00343 9.91835 8.36802 9.70648C8.54914 9.60122 8.6398 9.46355 8.64019 9.32567Z" fill="#AA6256"/>
<path d="M8.64166 9.32663C8.64256 9.02715 8.22412 8.78311 7.70706 8.78156C7.18999 8.78001 6.7701 9.02153 6.7692 9.32102C6.76831 9.6205 7.18674 9.86454 7.7038 9.86609C8.22087 9.86764 8.64076 9.62612 8.64166 9.32663Z" fill="#BF7D5A"/>
<path d="M8.27075 8.2716V9.2565C8.27075 9.33951 8.21413 9.42254 8.10471 9.48668C7.88583 9.615 7.52734 9.615 7.30471 9.48668C7.19526 9.42254 7.13867 9.33951 7.13867 9.25272V8.26782C7.13867 8.18479 7.19151 8.10178 7.30093 8.03764C7.52358 7.90933 7.88206 7.90933 8.10471 8.03764C8.21413 8.10178 8.27075 8.18479 8.27075 8.2716Z" fill="#E3E7F0"/>
<path d="M8.27082 8.27277L8.27087 9.25737C8.27063 9.34073 8.21582 9.42396 8.10632 9.4876C7.8859 9.61569 7.52767 9.61569 7.30581 9.4876C7.19425 9.42319 7.13849 9.3386 7.13873 9.25413L7.13867 8.26953C7.13843 8.354 7.19419 8.43859 7.30576 8.503C7.52762 8.63109 7.88584 8.63109 8.10626 8.503C8.21576 8.43936 8.27058 8.35613 8.27082 8.27277Z" fill="#C9CEE2"/>
<path d="M8.27173 8.27313C8.27227 8.09202 8.01929 7.94444 7.70668 7.9435C7.39406 7.94257 7.1402 8.08862 7.13966 8.26973C7.13911 8.45084 7.3921 8.59842 7.70471 8.59935C8.01732 8.60029 8.27119 8.45424 8.27173 8.27313Z" fill="#E3E7F0"/>
<path d="M8.08649 4.58492V8.23775C8.08649 8.29436 8.04874 8.35095 7.97704 8.39623C7.82611 8.47926 7.5846 8.47926 7.43742 8.39623C7.36195 8.35095 7.32422 8.29436 7.32422 8.23775V4.58114C7.32422 4.52455 7.36195 4.46794 7.43364 4.42643C7.5846 4.33963 7.82611 4.33963 7.97329 4.42643C8.04874 4.47172 8.08649 4.52831 8.08649 4.58492Z" fill="#BF7D5A"/>
<path d="M8.08577 4.58226L8.0858 8.239C8.08564 8.29521 8.04868 8.35134 7.97483 8.39426C7.82618 8.48064 7.5846 8.48064 7.43498 8.39426C7.35974 8.35082 7.32214 8.29377 7.3223 8.23681L7.32227 4.58008C7.3221 4.63704 7.35971 4.69409 7.43495 4.73753C7.58457 4.82391 7.82615 4.82391 7.97479 4.73753C8.04864 4.69461 8.08561 4.63848 8.08577 4.58226Z" fill="#BF7D5A"/>
<path d="M8.0867 4.58194C8.08707 4.45981 7.91639 4.3603 7.70548 4.35966C7.49457 4.35903 7.3233 4.45752 7.32293 4.57965C7.32256 4.70178 7.49324 4.80129 7.70415 4.80193C7.91506 4.80256 8.08634 4.70407 8.0867 4.58194Z" fill="#DBA660"/>
<path d="M9.85722 10.3995C9.90627 10.4259 9.93645 10.4825 9.93645 10.5655C9.93645 10.7316 9.81947 10.9316 9.67607 11.0146C9.60061 11.0561 9.53645 11.0599 9.48739 11.0335L9.48363 11.0297L9.25721 10.8976C9.20815 10.8712 9.18173 10.8146 9.18173 10.7316C9.17795 10.5655 9.29496 10.3655 9.43833 10.2825C9.51381 10.2372 9.57797 10.2335 9.62701 10.2636L9.82702 10.3844C9.8308 10.3882 9.83458 10.3882 9.83833 10.3882L9.84211 10.392C9.84588 10.3957 9.85344 10.3957 9.85722 10.3995Z" fill="#C9CEE2"/>
<path d="M10.0223 9.27556C10.0223 9.35859 9.99588 9.41518 9.94682 9.4416L9.72039 9.57369L9.71664 9.57744C9.66758 9.60386 9.60341 9.60008 9.52796 9.55858C9.38456 9.47557 9.26758 9.27556 9.26758 9.10952C9.26758 9.02651 9.29775 8.9699 9.34681 8.9397C9.35059 8.93595 9.35436 8.93595 9.35814 8.93595L9.57701 8.80386C9.62605 8.77744 9.69022 8.78122 9.76569 8.82272C9.90907 8.90575 10.026 9.10952 10.0223 9.27556Z" fill="#C9CEE2"/>
<path d="M12.3563 10.7316C12.3563 10.8146 12.3299 10.8712 12.2808 10.8976L12.0544 11.0297C12.0053 11.0599 11.9374 11.0561 11.8619 11.0146C11.7185 10.9316 11.6016 10.7316 11.6016 10.5655C11.6016 10.4825 11.6317 10.4259 11.6808 10.3995C11.6846 10.3957 11.6921 10.3957 11.6959 10.392C11.6959 10.3882 11.6997 10.3882 11.6997 10.3882C11.7034 10.3882 11.7072 10.3882 11.711 10.3844L11.911 10.2636C11.9601 10.2335 12.0242 10.2372 12.0997 10.2825C12.2431 10.3655 12.3563 10.5655 12.3563 10.7316Z" fill="#C9CEE2"/>
<path d="M11.8116 9.71025L11.5776 9.57441C11.5324 9.54799 11.5059 9.4876 11.5059 9.40837C11.5022 9.23855 11.6192 9.03854 11.7625 8.95554C11.838 8.91403 11.9022 8.91025 11.9512 8.93667L12.1663 9.06496C12.1701 9.06874 12.1776 9.06874 12.1814 9.07252C12.2267 9.09893 12.2569 9.15552 12.2569 9.24233C12.2607 9.40459 12.1437 9.60836 11.9965 9.69139C11.9022 9.7442 11.8229 9.73667 11.7776 9.67628C11.7852 9.69139 11.7965 9.7027 11.8116 9.71025Z" fill="#C9CEE2"/>
<path d="M11.6777 10.3988C11.7248 10.3715 11.7909 10.3757 11.8636 10.4178C12.0081 10.5004 12.1238 10.702 12.1238 10.8688C12.123 10.9506 12.094 11.0084 12.0478 11.0357L12.2807 10.9002C12.327 10.8729 12.3559 10.8151 12.3559 10.7333C12.3567 10.5665 12.2403 10.3649 12.0965 10.2823C12.0238 10.2402 11.9578 10.2361 11.9107 10.2633L11.6777 10.3988Z" fill="#C9CEE2"/>
<path d="M11.864 10.417C11.719 10.3333 11.602 10.3999 11.6016 10.5666C11.6011 10.732 11.7173 10.9332 11.8623 11.0169C12.0063 11.1001 12.1232 11.0334 12.1237 10.868C12.1241 10.7013 12.008 10.5001 11.864 10.417Z" fill="#E3E7F0"/>
<path d="M11.9338 10.8961C11.9721 10.8961 11.995 10.8638 11.9951 10.8098C11.9954 10.7164 11.9298 10.6024 11.8488 10.5557C11.8278 10.5436 11.8074 10.5371 11.7899 10.5371C11.7516 10.5371 11.7287 10.5696 11.7285 10.624C11.7283 10.717 11.7942 10.8308 11.8755 10.8777C11.8963 10.8898 11.9164 10.8961 11.9338 10.8961Z" fill="#9EA9C9"/>
<path d="M9.67179 10.417C9.81682 10.3333 9.93375 10.3999 9.93422 10.5666C9.93469 10.732 9.81852 10.9332 9.67349 11.0169C9.52951 11.1001 9.41258 11.0334 9.41211 10.868C9.41164 10.7013 9.52781 10.5001 9.67179 10.417Z" fill="#E3E7F0"/>
<path d="M9.60041 10.8961C9.56213 10.8961 9.5392 10.8638 9.53906 10.8098C9.53879 10.7164 9.60444 10.6024 9.68538 10.5557C9.70644 10.5436 9.7268 10.5371 9.74428 10.5371C9.78256 10.5371 9.80552 10.5696 9.80568 10.624C9.80592 10.717 9.74001 10.8308 9.65871 10.8777C9.63792 10.8898 9.61776 10.8961 9.60041 10.8961Z" fill="#9EA9C9"/>
<path d="M11.996 9.09083C12.141 9.0071 12.258 9.07373 12.2584 9.24038C12.2589 9.40582 12.1427 9.60704 11.9977 9.69077C11.8537 9.7739 11.7368 9.70726 11.7363 9.54182C11.7359 9.37517 11.852 9.17395 11.996 9.09083Z" fill="#E3E7F0"/>
<path d="M11.9246 9.56992C11.8863 9.56992 11.8634 9.53765 11.8633 9.48362C11.863 9.39025 11.9287 9.27626 12.0096 9.22953C12.0307 9.21738 12.051 9.21094 12.0685 9.21094C12.1068 9.21094 12.1297 9.24342 12.1299 9.29783C12.1301 9.39079 12.0642 9.50462 11.9829 9.55156C11.9621 9.56358 11.942 9.56992 11.9246 9.56992Z" fill="#9EA9C9"/>
<path d="M9.53197 8.95997C9.38694 8.87624 9.27 8.94287 9.26953 9.10952C9.26906 9.27496 9.38524 9.47618 9.53027 9.55991C9.67424 9.64304 9.79118 9.57641 9.79165 9.41096C9.79212 9.24431 9.67594 9.04309 9.53197 8.95997Z" fill="#E3E7F0"/>
<path d="M9.60176 9.43906C9.64004 9.43906 9.66297 9.40679 9.6631 9.35276C9.66337 9.25939 9.59773 9.1454 9.51679 9.09868C9.49573 9.08652 9.47537 9.08008 9.45788 9.08008C9.4196 9.08008 9.39665 9.11256 9.39649 9.16697C9.39624 9.25993 9.46216 9.37377 9.54345 9.42071C9.56424 9.43272 9.58441 9.43906 9.60176 9.43906Z" fill="#9EA9C9"/>
<path d="M9.85786 10.3988C9.81077 10.3715 9.74469 10.3757 9.672 10.4178C9.52745 10.5004 9.4118 10.702 9.4118 10.8688C9.41263 10.9506 9.44154 11.0084 9.4878 11.0357L9.25486 10.9002C9.20861 10.8729 9.17969 10.8151 9.17969 10.7333C9.17886 10.5665 9.29534 10.3649 9.43906 10.2823C9.51175 10.2402 9.57783 10.2361 9.62492 10.2633L9.85786 10.3988Z" fill="#C9CEE2"/>
<path d="M9.3457 8.94178C9.39279 8.91452 9.45887 8.91865 9.53156 8.96078C9.67611 9.04338 9.79176 9.24493 9.79176 9.41178C9.79093 9.49356 9.76202 9.55138 9.71576 9.57864L9.9487 9.44317C9.99495 9.41591 10.0239 9.35809 10.0239 9.27632C10.0247 9.10946 9.90822 8.90791 9.7645 8.82531C9.69181 8.78318 9.62572 8.77905 9.57864 8.80631L9.3457 8.94178Z" fill="#C9CEE2"/>
<path d="M12.1821 9.07264C12.135 9.04538 12.0689 9.04951 11.9962 9.09163C11.8517 9.17424 11.736 9.37579 11.736 9.54264C11.7368 9.62442 11.7658 9.68224 11.812 9.7095L11.5791 9.57403C11.5328 9.54677 11.5039 9.48895 11.5039 9.40718C11.5031 9.24032 11.6196 9.03877 11.7633 8.95617C11.836 8.91404 11.9021 8.90991 11.9491 8.93717L12.1821 9.07264Z" fill="#C9CEE2"/>
<path d="M12.3241 9.13221L11.4034 9.66052L12.3166 10.1926V10.4869L11.9355 10.7058L10.7657 10.0303L9.59207 10.7058L9.21094 10.4869V10.1926L10.1355 9.66052L9.21849 9.13221V8.83789L9.60338 8.61523L10.7694 9.29448L11.943 8.61523L12.3241 8.83789V9.13221Z" fill="#111D33"/>
<path d="M9.21875 8.83789L9.21958 9.13095L10.3866 9.80916L10.3858 9.51609L9.21875 8.83789Z" fill="#111D33"/>
<path d="M11.1484 9.51575L11.1493 9.80881L12.3234 9.13095L12.3225 8.83789L11.1484 9.51575Z" fill="#1D2943"/>
<path d="M9.58984 10.4145L9.59068 10.7076L10.7653 10.0294L10.7645 9.73633L9.58984 10.4145Z" fill="#1D2943"/>
<path d="M9.21094 10.1953L9.21177 10.4884L9.59147 10.709L9.59064 10.416L9.21094 10.1953Z" fill="#111D33"/>
<path d="M11.9316 10.4143L11.9325 10.7074L12.3152 10.4864L12.3144 10.1934L11.9316 10.4143Z" fill="#1D2943"/>
<path d="M10.7656 9.73633L10.7665 10.0294L11.9335 10.7076L11.9327 10.4145L10.7656 9.73633Z" fill="#111D33"/>
<path d="M9.21857 8.83817L10.3856 9.51637L9.21094 10.1946L9.59064 10.4152L10.7653 9.73703L11.9323 10.4152L12.3151 10.1942L11.148 9.51605L12.3221 8.83819L11.9424 8.61753L10.7684 9.29539L9.60132 8.61719L9.21857 8.83817Z" fill="#4C5C75"/>
<path d="M10.4883 5.89784L10.4934 9.50075C10.4935 9.54196 10.5206 9.58313 10.5748 9.6146C10.6839 9.67804 10.8608 9.6782 10.9704 9.61493C11.0257 9.58301 11.0533 9.54117 11.0531 9.4994L11.0481 5.89648C11.0482 5.93826 11.0206 5.98009 10.9653 6.01201C10.8557 6.07529 10.6789 6.07512 10.5697 6.01169C10.5155 5.98022 10.4884 5.93905 10.4883 5.89784Z" fill="#E3E7F0"/>
<path d="M13.1641 3.53564L13.1565 6.55451L13.0131 6.63752L12.5527 6.37336L12.5603 3.35449L12.7037 3.27148L13.1641 3.53564Z" fill="#C9CEE2"/>
<path d="M11.0961 2.33984L11.5565 2.60778L11.5489 5.62664L11.4055 5.70965L10.9414 5.44552L10.9527 2.42665L11.0961 2.33984Z" fill="#C9CEE2"/>
<path d="M13.0137 6.63767L13.1575 6.55411L13.166 3.53516L13.0222 3.61872L13.0137 6.63767Z" fill="#C9CEE2"/>
<path d="M13.0217 3.61931L13.1654 3.53575L12.7043 3.26953L12.5605 3.35309L13.0217 3.61931Z" fill="#C9CEE2"/>
<path d="M12.5613 3.35352L12.5527 6.37247L13.0138 6.63869L13.0224 3.61974L12.5613 3.35352Z" fill="#C9CEE2"/>
<path d="M11.4043 5.70994L11.5481 5.62638L11.5566 2.60742L11.4129 2.69098L11.4043 5.70994Z" fill="#C9CEE2"/>
<path d="M11.4123 2.69158L11.5561 2.60802L11.095 2.3418L10.9512 2.42536L11.4123 2.69158Z" fill="#C9CEE2"/>
<path d="M10.9519 2.42578L10.9434 5.44474L11.4045 5.71096L11.413 2.692L10.9519 2.42578Z" fill="#C9CEE2"/>
<path d="M13.7872 2.73247L13.7796 4.99285L13.4928 5.15888L10.5117 3.43813L10.5193 1.18151L10.806 1.01172L13.7872 2.73247Z" fill="#111D33"/>
<path d="M13.4922 5.16007L13.7804 4.9926L13.7868 2.73438L13.4986 2.90185L13.4922 5.16007Z" fill="#111D33"/>
<path d="M13.4978 2.90179L13.786 2.73431L10.8058 1.01367L10.5176 1.18114L13.4978 2.90179Z" fill="#4C5C75"/>
<path d="M10.5181 1.18164L10.5117 3.43986L13.492 5.1605L13.4984 2.90228L10.5181 1.18164Z" fill="#1D2943"/>
<path d="M13.689 6.77688V7.11273L11.1381 8.59197L7.84375 6.69009V6.35802L10.3947 4.875L13.689 6.77688Z" fill="#1D2943"/>
<path d="M13.6906 6.7793L13.6896 7.1126L11.1406 8.59392L11.1416 8.26062L13.6906 6.7793Z" fill="#1D2943"/>
<path d="M11.1407 8.26035L11.1397 8.59366L7.84375 6.69073L7.8447 6.35742L11.1407 8.26035Z" fill="#111D33"/>
<path d="M13.6887 6.77988L11.1397 8.2612L7.84375 6.35827L10.3928 4.87695L13.6887 6.77988Z" fill="#4C5C75"/>
<path d="M16.4365 12.3999L16.2063 12.2678C16.161 12.2413 16.1309 12.1848 16.1309 12.1017C16.1309 11.9357 16.2478 11.7319 16.3912 11.6489C16.4629 11.6074 16.5309 11.6036 16.5761 11.63L16.7988 11.7621C16.8516 11.7885 16.8856 11.8489 16.8856 11.9357C16.8856 12.1017 16.7686 12.3017 16.6252 12.3847C16.5535 12.4263 16.4893 12.43 16.4403 12.4036L16.4365 12.3999Z" fill="#C9CEE2"/>
<path d="M16.9832 13.4261C16.9832 13.5091 16.9531 13.5657 16.9078 13.5959L16.6738 13.7317C16.6776 13.728 16.6776 13.728 16.6776 13.7242C16.6323 13.7544 16.5644 13.7582 16.4889 13.7129C16.3455 13.6261 16.2285 13.4261 16.2285 13.26C16.2285 13.177 16.2587 13.1204 16.304 13.094L16.3191 13.0865L16.538 12.9582C16.5832 12.9317 16.6512 12.9355 16.7229 12.977C16.8663 13.0601 16.9832 13.26 16.9832 13.4261Z" fill="#C9CEE2"/>
<path d="M14.6512 11.9699C14.6512 12.0529 14.621 12.1095 14.5757 12.1359L14.3455 12.268L14.3418 12.2717C14.2927 12.2982 14.2286 12.2944 14.1569 12.2529C14.0135 12.1698 13.8965 11.9699 13.8965 11.8038C13.8965 11.717 13.9305 11.6566 13.9833 11.6302L14.2059 11.5019C14.2512 11.4717 14.3191 11.4755 14.3908 11.5208C14.5342 11.6001 14.6512 11.8038 14.6512 11.9699Z" fill="#C9CEE2"/>
<path d="M14.4859 13.094C14.5312 13.1204 14.5614 13.177 14.5614 13.26C14.5614 13.4261 14.4482 13.6261 14.301 13.7129C14.2066 13.7657 14.1274 13.7582 14.0821 13.6978C14.0897 13.7129 14.101 13.7242 14.1161 13.7317L13.8821 13.5959C13.8368 13.5657 13.8066 13.5091 13.8066 13.4261C13.8066 13.26 13.9236 13.0601 14.067 12.977C14.1387 12.9355 14.2066 12.9317 14.2519 12.9582L14.4708 13.0865C14.4746 13.0902 14.4821 13.0902 14.4859 13.094Z" fill="#C9CEE2"/>
<path d="M16.3047 13.0941C16.3518 13.0669 16.4179 13.071 16.4905 13.1131C16.6351 13.1957 16.7507 13.3973 16.7507 13.5641C16.7499 13.6459 16.721 13.7037 16.6747 13.731L16.9077 13.5955C16.9539 13.5683 16.9829 13.5104 16.9829 13.4287C16.9837 13.2618 16.8672 13.0603 16.7235 12.9777C16.6508 12.9355 16.5847 12.9314 16.5376 12.9587L16.3047 13.0941Z" fill="#C9CEE2"/>
<path d="M16.491 13.1123C16.3459 13.0286 16.229 13.0952 16.2285 13.2619C16.228 13.4273 16.3442 13.6285 16.4893 13.7123C16.6332 13.7954 16.7502 13.7287 16.7506 13.5633C16.7511 13.3967 16.6349 13.1954 16.491 13.1123Z" fill="#E3E7F0"/>
<path d="M16.5627 13.5914C16.601 13.5914 16.6239 13.5591 16.624 13.5051C16.6243 13.4117 16.5587 13.2977 16.4777 13.251C16.4567 13.2389 16.4363 13.2324 16.4188 13.2324C16.3805 13.2324 16.3576 13.2649 16.3574 13.3193C16.3572 13.4123 16.4231 13.5261 16.5044 13.573C16.5252 13.5851 16.5453 13.5914 16.5627 13.5914Z" fill="#9EA9C9"/>
<path d="M14.3007 13.1123C14.4457 13.0286 14.5627 13.0952 14.5631 13.2619C14.5636 13.4273 14.4474 13.6285 14.3024 13.7123C14.1584 13.7954 14.0415 13.7287 14.041 13.5633C14.0405 13.3967 14.1567 13.1954 14.3007 13.1123Z" fill="#E3E7F0"/>
<path d="M14.2293 13.5914C14.191 13.5914 14.1681 13.5591 14.168 13.5051C14.1677 13.4117 14.2333 13.2977 14.3143 13.251C14.3353 13.2389 14.3557 13.2324 14.3732 13.2324C14.4115 13.2324 14.4344 13.2649 14.4346 13.3193C14.4348 13.4123 14.3689 13.5261 14.2876 13.573C14.2668 13.5851 14.2467 13.5914 14.2293 13.5914Z" fill="#9EA9C9"/>
<path d="M16.6249 11.7861C16.7699 11.7024 16.8869 11.769 16.8873 11.9357C16.8878 12.1011 16.7716 12.3024 16.6266 12.3861C16.4826 12.4692 16.3657 12.4026 16.3652 12.2371C16.3648 12.0705 16.4809 11.8693 16.6249 11.7861Z" fill="#E3E7F0"/>
<path d="M16.5535 12.2652C16.5153 12.2652 16.4923 12.233 16.4922 12.1789C16.4919 12.0856 16.5576 11.9716 16.6385 11.9248C16.6596 11.9127 16.6799 11.9062 16.6974 11.9062C16.7357 11.9062 16.7586 11.9387 16.7588 11.9931C16.759 12.0861 16.6931 12.1999 16.6118 12.2469C16.591 12.2589 16.5709 12.2652 16.5535 12.2652Z" fill="#9EA9C9"/>
<path d="M14.1589 11.6553C14.0139 11.5715 13.897 11.6382 13.8965 11.8048C13.896 11.9703 14.0122 12.1715 14.1572 12.2552C14.3012 12.3384 14.4181 12.2717 14.4186 12.1063C14.4191 11.9396 14.3029 11.7384 14.1589 11.6553Z" fill="#E3E7F0"/>
<path d="M14.2307 12.1344C14.2689 12.1344 14.2919 12.1021 14.292 12.0481C14.2923 11.9547 14.2266 11.8407 14.1457 11.794C14.1246 11.7818 14.1043 11.7754 14.0868 11.7754C14.0485 11.7754 14.0256 11.8079 14.0254 11.8623C14.0251 11.9552 14.0911 12.0691 14.1724 12.116C14.1931 12.128 14.2133 12.1344 14.2307 12.1344Z" fill="#9EA9C9"/>
<path d="M14.4868 13.0941C14.4397 13.0669 14.3736 13.071 14.3009 13.1131C14.1564 13.1957 14.0407 13.3973 14.0407 13.5641C14.0415 13.6459 14.0705 13.7037 14.1167 13.731L13.8838 13.5955C13.8375 13.5683 13.8086 13.5104 13.8086 13.4287C13.8078 13.2618 13.9242 13.0603 14.068 12.9777C14.1407 12.9355 14.2067 12.9314 14.2538 12.9587L14.4868 13.0941Z" fill="#C9CEE2"/>
<path d="M13.9746 11.6371C14.0217 11.6098 14.0878 11.614 14.1605 11.6561C14.305 11.7387 14.4207 11.9402 14.4207 12.1071C14.4198 12.1889 14.3909 12.2467 14.3447 12.274L14.5776 12.1385C14.6239 12.1112 14.6528 12.0534 14.6528 11.9716C14.6536 11.8048 14.5371 11.6032 14.3934 11.5206C14.3207 11.4785 14.2546 11.4744 14.2075 11.5016L13.9746 11.6371Z" fill="#C9CEE2"/>
<path d="M16.811 11.7679C16.7639 11.7407 16.6978 11.7448 16.6251 11.7869C16.4806 11.8695 16.3649 12.0711 16.3649 12.238C16.3658 12.3197 16.3947 12.3776 16.4409 12.4048L16.208 12.2693C16.1617 12.2421 16.1328 12.1843 16.1328 12.1025C16.132 11.9356 16.2485 11.7341 16.3922 11.6515C16.4649 11.6094 16.531 11.6052 16.578 11.6325L16.811 11.7679Z" fill="#C9CEE2"/>
<path d="M16.9493 11.8277L16.0285 12.3597L16.9417 12.888L16.9455 13.1824L16.5606 13.405L15.3946 12.7258L14.221 13.405L13.8398 13.1824V12.8918L14.7644 12.356L13.8474 11.8277V11.5333L14.2285 11.3145L15.3983 11.9899L16.5719 11.3145L16.9493 11.5333V11.8277Z" fill="#111D33"/>
<path d="M13.8477 11.5332L13.8485 11.8263L15.0155 12.5045L15.0147 12.2114L13.8477 11.5332Z" fill="#111D33"/>
<path d="M15.7773 12.2111L15.7782 12.5041L16.9523 11.8263L16.9514 11.5332L15.7773 12.2111Z" fill="#1D2943"/>
<path d="M14.2188 13.1098L14.2196 13.4029L15.3942 12.7247L15.3934 12.4316L14.2188 13.1098Z" fill="#1D2943"/>
<path d="M13.8398 12.8906L13.8407 13.1837L14.2204 13.4043L14.2195 13.1113L13.8398 12.8906Z" fill="#111D33"/>
<path d="M16.5605 13.1097L16.5614 13.4027L16.9441 13.1817L16.9433 12.8887L16.5605 13.1097Z" fill="#1D2943"/>
<path d="M15.3945 12.4316L15.3954 12.7247L16.5624 13.4029L16.5616 13.1098L15.3945 12.4316Z" fill="#111D33"/>
<path d="M13.8475 11.5335L15.0145 12.2117L13.8398 12.8899L14.2195 13.1105L15.3942 12.4323L16.5612 13.1105L16.944 12.8896L15.777 12.2114L16.951 11.5335L16.5713 11.3128L15.3973 11.9907L14.2302 11.3125L13.8475 11.5335Z" fill="#4C5C75"/>
<path d="M15.1152 8.59315L15.1203 12.1961C15.1204 12.2373 15.1476 12.2784 15.2017 12.3099C15.3109 12.3733 15.4877 12.3735 15.5973 12.3102C15.6526 12.2783 15.6802 12.2365 15.6801 12.1947L15.675 8.5918C15.6751 8.63357 15.6475 8.67541 15.5922 8.70733C15.4827 8.7706 15.3058 8.77044 15.1967 8.707C15.1425 8.67553 15.1154 8.63436 15.1152 8.59315Z" fill="#E3E7F0"/>
<path d="M15.7232 5.03906L16.1874 5.30322L16.1761 8.32209L16.0327 8.40509L15.5723 8.14094L15.5798 5.12207L15.7232 5.03906Z" fill="#E3E7F0"/>
<path d="M17.7948 6.23093L17.7872 9.2498L17.6401 9.33661L17.1797 9.06867L17.191 6.0498L17.3344 5.9668L17.7948 6.23093Z" fill="#E3E7F0"/>
<path d="M17.6426 9.33299L17.7864 9.24942L17.7949 6.23047L17.6511 6.31403L17.6426 9.33299Z" fill="#E3E7F0"/>
<path d="M17.6506 6.31463L17.7944 6.23107L17.3332 5.96484L17.1895 6.04841L17.6506 6.31463Z" fill="#4C5C75"/>
<path d="M17.1902 6.04883L17.1816 9.06778L17.6428 9.33401L17.6513 6.31505L17.1902 6.04883Z" fill="#C9CEE2"/>
<path d="M16.0332 8.40525L16.177 8.32169L16.1856 5.30273L16.0418 5.3863L16.0332 8.40525Z" fill="#E3E7F0"/>
<path d="M16.0412 5.38689L16.185 5.30333L15.7239 5.03711L15.5801 5.12067L16.0412 5.38689Z" fill="#4C5C75"/>
<path d="M15.5808 5.12109L15.5723 8.14005L16.0334 8.40627L16.0419 5.38732L15.5808 5.12109Z" fill="#C9CEE2"/>
<path d="M18.4123 5.377L18.4085 7.63362L18.118 7.79966L15.1406 6.07888L15.1444 3.82229L15.435 3.65625L18.4123 5.377Z" fill="#111D33"/>
<path d="M18.1191 7.80069L18.4073 7.63322L18.4137 5.375L18.1255 5.54247L18.1191 7.80069Z" fill="#111D33"/>
<path d="M18.1248 5.54241L18.413 5.37494L15.4327 3.6543L15.1445 3.82177L18.1248 5.54241Z" fill="#4C5C75"/>
<path d="M15.1451 3.82227L15.1387 6.08049L18.1189 7.80113L18.1253 5.54291L15.1451 3.82227Z" fill="#1D2943"/>
<path d="M15.7696 10.9557L15.7686 11.289L12.4727 9.38604L12.4736 9.05273L15.7696 10.9557Z" fill="#111D33"/>
<path d="M18.3176 9.47519L15.7686 10.9565L12.4727 9.05359L15.0217 7.57227L18.3176 9.47519Z" fill="#4C5C75"/>
<path d="M4.07308 14.0568C4.07308 14.1398 4.04666 14.1964 3.9976 14.2228L3.76742 14.3587C3.7825 14.3511 3.79383 14.3398 3.80137 14.3247C3.75609 14.3851 3.67685 14.3927 3.58251 14.3398C3.43534 14.2568 3.31836 14.0568 3.31836 13.8908C3.32214 13.804 3.35609 13.7436 3.40892 13.7172L3.6278 13.5851C3.67685 13.5587 3.741 13.5625 3.81648 13.604C3.95987 13.687 4.07685 13.8908 4.07308 14.0568Z" fill="#C9CEE2"/>
<path d="M3.90791 15.177C3.95697 15.2072 3.98714 15.2638 3.98714 15.3468C3.98714 15.5128 3.87016 15.7128 3.72678 15.7958C3.65131 15.8373 3.58714 15.8411 3.5381 15.8147L3.53433 15.8109L3.3079 15.6789C3.25884 15.6524 3.23242 15.5958 3.23242 15.5128C3.23242 15.3468 3.34565 15.1468 3.48905 15.0638C3.5645 15.0185 3.62867 15.0147 3.67773 15.0449L3.89658 15.1732C3.90035 15.1732 3.90413 15.1732 3.90791 15.177Z" fill="#C9CEE2"/>
<path d="M5.86239 14.4915L5.63221 14.3557C5.58315 14.3292 5.55673 14.2689 5.55673 14.1896C5.55295 14.0198 5.66993 13.8198 5.81333 13.7368C5.88881 13.6953 5.95295 13.6915 6.00201 13.7179L6.21711 13.8462C6.22088 13.85 6.22842 13.85 6.23219 13.8538C6.28125 13.8802 6.30767 13.9368 6.31145 14.0236C6.31145 14.1858 6.19447 14.3896 6.04729 14.4726C5.95295 14.5255 5.8737 14.5179 5.82842 14.4576C5.83597 14.4726 5.8473 14.4839 5.86239 14.4915Z" fill="#C9CEE2"/>
<path d="M6.40511 15.5128C6.40511 15.5958 6.37869 15.6524 6.32963 15.6789L6.10323 15.8109C6.05417 15.8411 5.98625 15.8373 5.91077 15.7958C5.76737 15.7128 5.65039 15.5128 5.65039 15.3468C5.65039 15.2562 5.68434 15.1958 5.74095 15.1732L5.95983 15.0449C6.00889 15.0147 6.07303 15.0185 6.14851 15.0638C6.2919 15.1468 6.40889 15.3468 6.40511 15.5128Z" fill="#C9CEE2"/>
<path d="M5.72852 15.1801C5.7756 15.1528 5.84168 15.1569 5.91437 15.1991C6.05892 15.2817 6.17457 15.4832 6.17457 15.6501C6.17374 15.7318 6.14483 15.7897 6.09857 15.8169L6.33151 15.6815C6.37777 15.6542 6.40668 15.5964 6.40668 15.5146C6.40751 15.3477 6.29104 15.1462 6.14731 15.0636C6.07462 15.0215 6.00854 15.0173 5.96145 15.0446L5.72852 15.1801Z" fill="#C9CEE2"/>
<path d="M5.91673 15.1983C5.7717 15.1145 5.65477 15.1812 5.6543 15.3478C5.65383 15.5132 5.77 15.7145 5.91503 15.7982C6.05901 15.8813 6.17594 15.8147 6.17641 15.6492C6.17688 15.4826 6.06071 15.2814 5.91673 15.1983Z" fill="#E3E7F0"/>
<path d="M5.98653 15.6773C6.0248 15.6773 6.04773 15.6451 6.04787 15.591C6.04814 15.4977 5.98249 15.3837 5.90155 15.337C5.88049 15.3248 5.86013 15.3184 5.84265 15.3184C5.80437 15.3184 5.78141 15.3508 5.78125 15.4053C5.78101 15.4982 5.84692 15.612 5.92822 15.659C5.94901 15.671 5.96917 15.6773 5.98653 15.6773Z" fill="#9EA9C9"/>
<path d="M3.72452 15.1983C3.86955 15.1145 3.98649 15.1812 3.98696 15.3478C3.98743 15.5132 3.87125 15.7145 3.72622 15.7982C3.58225 15.8813 3.46531 15.8147 3.46485 15.6492C3.46437 15.4826 3.58055 15.2814 3.72452 15.1983Z" fill="#E3E7F0"/>
<path d="M3.65314 15.6773C3.61486 15.6773 3.59193 15.6451 3.5918 15.591C3.59153 15.4977 3.65717 15.3837 3.73811 15.337C3.75917 15.3248 3.77953 15.3184 3.79702 15.3184C3.8353 15.3184 3.85825 15.3508 3.85841 15.4053C3.85866 15.4982 3.79274 15.612 3.71145 15.659C3.69066 15.671 3.67049 15.6773 3.65314 15.6773Z" fill="#9EA9C9"/>
<path d="M6.04874 13.8721C6.19377 13.7883 6.3107 13.855 6.31118 14.0216C6.31165 14.1871 6.19547 14.3883 6.05044 14.472C5.90647 14.5551 5.78953 14.4885 5.78906 14.3231C5.78859 14.1564 5.90477 13.9552 6.04874 13.8721Z" fill="#E3E7F0"/>
<path d="M5.97736 14.3512C5.93908 14.3512 5.91615 14.3189 5.91602 14.2649C5.91575 14.1715 5.98139 14.0575 6.06233 14.0108C6.08339 13.9986 6.10375 13.9922 6.12124 13.9922C6.15951 13.9922 6.18247 14.0247 6.18263 14.0791C6.18288 14.172 6.11696 14.2859 6.03567 14.3328C6.01488 14.3448 5.99471 14.3512 5.97736 14.3512Z" fill="#9EA9C9"/>
<path d="M3.5847 13.7412C3.43967 13.6575 3.32274 13.7241 3.32227 13.8908C3.3218 14.0562 3.43797 14.2574 3.583 14.3412C3.72698 14.4243 3.84391 14.3577 3.84438 14.1922C3.84485 14.0256 3.72868 13.8243 3.5847 13.7412Z" fill="#E3E7F0"/>
<path d="M3.65449 14.2203C3.69277 14.2203 3.7157 14.188 3.71584 14.134C3.71611 14.0406 3.65046 13.9266 3.56952 13.8799C3.54846 13.8678 3.5281 13.8613 3.51062 13.8613C3.47234 13.8613 3.44938 13.8938 3.44922 13.9482C3.44898 14.0412 3.51489 14.155 3.59618 14.202C3.61697 14.214 3.63714 14.2203 3.65449 14.2203Z" fill="#9EA9C9"/>
<path d="M3.91059 15.1801C3.86351 15.1528 3.79743 15.1569 3.72474 15.1991C3.58018 15.2817 3.46454 15.4832 3.46454 15.6501C3.46536 15.7318 3.49428 15.7897 3.54054 15.8169L3.3076 15.6815C3.26134 15.6542 3.23243 15.5964 3.23243 15.5146C3.2316 15.3477 3.34807 15.1462 3.4918 15.0636C3.56449 15.0215 3.63057 15.0173 3.67765 15.0446L3.91059 15.1801Z" fill="#C9CEE2"/>
<path d="M3.39844 13.723C3.44552 13.6958 3.5116 13.6999 3.58429 13.742C3.72885 13.8246 3.84449 14.0262 3.84449 14.193C3.84366 14.2748 3.81475 14.3326 3.76849 14.3599L4.00143 14.2244C4.04769 14.1972 4.0766 14.1393 4.0766 14.0576C4.07743 13.8907 3.96096 13.6892 3.81723 13.6066C3.74454 13.5644 3.67846 13.5603 3.63138 13.5876L3.39844 13.723Z" fill="#C9CEE2"/>
<path d="M6.23481 13.8539C6.18773 13.8266 6.12165 13.8308 6.04896 13.8729C5.9044 13.9555 5.78876 14.157 5.78876 14.3239C5.78958 14.4057 5.8185 14.4635 5.86475 14.4908L5.63182 14.3553C5.58556 14.328 5.55665 14.2702 5.55665 14.1884C5.55582 14.0216 5.67229 13.82 5.81602 13.7374C5.88871 13.6953 5.95479 13.6912 6.00187 13.7184L6.23481 13.8539Z" fill="#C9CEE2"/>
<path d="M6.37688 13.9097L5.45612 14.4418L6.36935 14.9739V15.2682L5.98821 15.4871L4.81839 14.8116L3.64481 15.4871L3.26367 15.2682V14.9739L4.1882 14.4418L3.27123 13.9097V13.6191L3.65614 13.3965L4.82216 14.0757L5.99574 13.3965L6.37688 13.6191V13.9097Z" fill="#1D2943"/>
<path d="M3.27148 13.6191L3.27231 13.9122L4.43934 14.5904L4.43851 14.2973L3.27148 13.6191Z" fill="#111D33"/>
<path d="M5.20117 14.297L5.202 14.5901L6.37609 13.9122L6.37526 13.6191L5.20117 14.297Z" fill="#1D2943"/>
<path d="M3.64258 15.1958L3.64341 15.4888L4.81807 14.8106L4.81724 14.5176L3.64258 15.1958Z" fill="#1D2943"/>
<path d="M3.26367 14.9766L3.2645 15.2696L3.6442 15.4903L3.64337 15.1972L3.26367 14.9766Z" fill="#111D33"/>
<path d="M5.98438 15.1956L5.98521 15.4887L6.36796 15.2677L6.36713 14.9746L5.98438 15.1956Z" fill="#1D2943"/>
<path d="M4.81836 14.5176L4.81919 14.8106L5.98622 15.4888L5.98538 15.1958L4.81836 14.5176Z" fill="#111D33"/>
<path d="M3.27131 13.6194L4.43833 14.2976L3.26367 14.9758L3.64337 15.1965L4.81803 14.5183L5.98506 15.1965L6.36781 14.9755L5.20078 14.2973L6.37487 13.6194L5.99517 13.3988L4.82108 14.0766L3.65406 13.3984L3.27131 13.6194Z" fill="#4C5C75"/>
<path d="M4.54102 10.6791L4.54609 14.282C4.54621 14.3232 4.57335 14.3644 4.62751 14.3959C4.73667 14.4593 4.91351 14.4594 5.0231 14.3962C5.07839 14.3643 5.106 14.3224 5.10588 14.2806L5.10081 10.6777C5.10093 10.7195 5.07331 10.7613 5.01803 10.7933C4.90844 10.8565 4.73159 10.8564 4.62244 10.7929C4.56828 10.7615 4.54113 10.7203 4.54102 10.6791Z" fill="#F3F1FC"/>
<path d="M7.74176 11.5932V11.9252L5.19082 13.4045L1.89648 11.5026V11.1705L4.44743 9.6875L7.74176 11.5932Z" fill="#111D33"/>
<path d="M7.74331 11.5898L7.74236 11.9232L5.19336 13.4045L5.1943 13.0712L7.74331 11.5898Z" fill="#111D33"/>
<path d="M5.1934 13.0709L5.19245 13.4042L1.89648 11.5013L1.89743 11.168L5.1934 13.0709Z" fill="#1D2943"/>
<path d="M7.74146 11.5904L5.19245 13.0717L1.89648 11.1688L4.44549 9.6875L7.74146 11.5904Z" fill="#4C5C75"/>
<path d="M8.56208 17.885C8.60736 17.9114 8.63753 17.968 8.63753 18.0511C8.64131 18.2171 8.52433 18.4209 8.37715 18.5039C8.28281 18.5567 8.20358 18.5492 8.1583 18.4888C8.16583 18.5039 8.17716 18.5152 8.19225 18.5228L7.95829 18.3869C7.91301 18.3567 7.88281 18.3001 7.88281 18.2171C7.88281 18.0511 7.99979 17.8511 8.14319 17.768C8.21489 17.7265 8.28281 17.7228 8.32809 17.7492L8.54697 17.8775C8.55074 17.8812 8.5583 17.8812 8.56208 17.885Z" fill="#C9CEE2"/>
<path d="M8.72737 16.7597C8.72737 16.8427 8.69718 16.8993 8.6519 16.9258L8.42169 17.0578L8.41794 17.0616C8.36888 17.0918 8.30471 17.088 8.23301 17.0427C8.08964 16.9597 7.97266 16.7597 7.97266 16.5937C7.97266 16.5107 8.00283 16.4541 8.04811 16.4276C8.05189 16.4239 8.05944 16.4239 8.06322 16.4201C8.067 16.4201 8.067 16.4201 8.07075 16.4163L8.28207 16.2918C8.33113 16.2616 8.3953 16.2692 8.46699 16.3107C8.61037 16.3937 8.72737 16.5937 8.72737 16.7597Z" fill="#C9CEE2"/>
<path d="M11.0594 18.2171C11.0594 18.3001 11.0292 18.3567 10.9839 18.3869L10.75 18.5228C10.7542 18.5201 10.7551 18.5131 10.759 18.51C10.7112 18.5456 10.6425 18.5489 10.5651 18.5039C10.4217 18.4209 10.3047 18.2171 10.3047 18.0511C10.3047 17.968 10.3349 17.9114 10.3801 17.885L10.3952 17.8775L10.6141 17.7492C10.6594 17.7228 10.7273 17.7265 10.799 17.768C10.9424 17.8511 11.0594 18.0511 11.0594 18.2171Z" fill="#C9CEE2"/>
<path d="M10.5127 17.1906L10.2825 17.0585C10.2372 17.0321 10.207 16.9755 10.207 16.8925C10.207 16.7264 10.324 16.5227 10.4674 16.4434C10.5391 16.3981 10.607 16.3944 10.6523 16.4208L10.8749 16.5529C10.9278 16.5793 10.9617 16.6397 10.9617 16.7264C10.9617 16.8925 10.8485 17.0925 10.7014 17.1755C10.6297 17.217 10.5655 17.2208 10.5165 17.1944L10.5127 17.1906Z" fill="#C9CEE2"/>
<path d="M10.3828 17.8832C10.4299 17.8559 10.496 17.8601 10.5687 17.9022C10.7132 17.9848 10.8289 18.1863 10.8289 18.3532C10.828 18.435 10.7991 18.4928 10.7529 18.52L10.9858 18.3846C11.0321 18.3573 11.061 18.2995 11.061 18.2177C11.0618 18.0509 10.9453 17.8493 10.8016 17.7667C10.7289 17.7246 10.6628 17.7205 10.6158 17.7477L10.3828 17.8832Z" fill="#C9CEE2"/>
<path d="M10.5671 17.9014C10.4221 17.8176 10.3052 17.8843 10.3047 18.0509C10.3042 18.2164 10.4204 18.4176 10.5654 18.5013C10.7094 18.5844 10.8263 18.5178 10.8268 18.3524C10.8273 18.1857 10.7111 17.9845 10.5671 17.9014Z" fill="#E3E7F0"/>
<path d="M10.6389 18.3805C10.6771 18.3805 10.7001 18.3482 10.7002 18.2942C10.7005 18.2008 10.6348 18.0868 10.5539 18.0401C10.5328 18.0279 10.5125 18.0215 10.495 18.0215C10.4567 18.0215 10.4338 18.054 10.4336 18.1084C10.4334 18.2013 10.4993 18.3152 10.5806 18.3621C10.6014 18.3741 10.6215 18.3805 10.6389 18.3805Z" fill="#9EA9C9"/>
<path d="M8.37687 17.9014C8.5219 17.8176 8.63883 17.8843 8.6393 18.0509C8.63977 18.2164 8.5236 18.4176 8.37857 18.5013C8.23459 18.5844 8.11766 18.5178 8.11719 18.3524C8.11672 18.1857 8.23289 17.9845 8.37687 17.9014Z" fill="#E3E7F0"/>
<path d="M8.30548 18.3805C8.26721 18.3805 8.24428 18.3482 8.24414 18.2942C8.24387 18.2008 8.30952 18.0868 8.39046 18.0401C8.41152 18.0279 8.43187 18.0215 8.44936 18.0215C8.48764 18.0215 8.5106 18.054 8.51076 18.1084C8.511 18.2013 8.44508 18.3152 8.36379 18.3621C8.343 18.3741 8.32284 18.3805 8.30548 18.3805Z" fill="#9EA9C9"/>
<path d="M10.7011 16.5752C10.8461 16.4915 10.963 16.5581 10.9635 16.7248C10.964 16.8902 10.8478 17.0914 10.7028 17.1751C10.5588 17.2583 10.4419 17.1916 10.4414 17.0262C10.4409 16.8595 10.5571 16.6583 10.7011 16.5752Z" fill="#E3E7F0"/>
<path d="M10.6297 17.0543C10.5914 17.0543 10.5685 17.022 10.5684 16.968C10.5681 16.8746 10.6337 16.7606 10.7147 16.7139C10.7357 16.7018 10.7561 16.6953 10.7736 16.6953C10.8119 16.6953 10.8348 16.7278 10.835 16.7822C10.8352 16.8752 10.7693 16.989 10.688 17.0359C10.6672 17.048 10.6471 17.0543 10.6297 17.0543Z" fill="#9EA9C9"/>
<path d="M8.23705 16.4443C8.09202 16.3606 7.97508 16.4272 7.97461 16.5939C7.97414 16.7593 8.09032 16.9606 8.23535 17.0443C8.37932 17.1274 8.49625 17.0608 8.49672 16.8953C8.4972 16.7287 8.38102 16.5275 8.23705 16.4443Z" fill="#E3E7F0"/>
<path d="M8.30684 16.9234C8.34512 16.9234 8.36804 16.8912 8.36818 16.8371C8.36845 16.7438 8.30281 16.6298 8.22186 16.5831C8.2008 16.5709 8.18045 16.5645 8.16296 16.5645C8.12468 16.5645 8.10173 16.5969 8.10156 16.6513C8.10132 16.7443 8.16724 16.8581 8.24853 16.9051C8.26932 16.9171 8.28949 16.9234 8.30684 16.9234Z" fill="#9EA9C9"/>
<path d="M8.56293 17.8832C8.51585 17.8559 8.44977 17.8601 8.37708 17.9022C8.23253 17.9848 8.11688 18.1863 8.11688 18.3532C8.11771 18.435 8.14662 18.4928 8.19288 18.52L7.95994 18.3846C7.91368 18.3573 7.88477 18.2995 7.88477 18.2177C7.88394 18.0509 8.00042 17.8493 8.14414 17.7667C8.21683 17.7246 8.28291 17.7205 8.33 17.7477L8.56293 17.8832Z" fill="#C9CEE2"/>
<path d="M8.05078 16.4262C8.09786 16.3989 8.16395 16.403 8.23664 16.4452C8.38119 16.5278 8.49683 16.7293 8.49683 16.8962C8.49601 16.9779 8.46709 17.0358 8.42084 17.063L8.65378 16.9275C8.70003 16.9003 8.72895 16.8425 8.72895 16.7607C8.72977 16.5938 8.6133 16.3923 8.46957 16.3097C8.39688 16.2676 8.3308 16.2634 8.28372 16.2907L8.05078 16.4262Z" fill="#C9CEE2"/>
<path d="M10.8872 16.557C10.8401 16.5298 10.774 16.5339 10.7013 16.576C10.5567 16.6586 10.4411 16.8602 10.4411 17.027C10.4419 17.1088 10.4708 17.1666 10.5171 17.1939L10.2842 17.0584C10.2379 17.0311 10.209 16.9733 10.209 16.8916C10.2082 16.7247 10.3246 16.5231 10.4684 16.4405C10.5411 16.3984 10.6071 16.3943 10.6542 16.4215L10.8872 16.557Z" fill="#C9CEE2"/>
<path d="M11.0179 17.6789L11.0217 17.9695L10.6368 18.1921L9.47073 17.5129L8.29715 18.1921L7.91602 17.9695V17.6789L8.83677 17.1468L7.92357 16.6148V16.3204L8.30468 16.1016L9.47451 16.777L10.6481 16.1016L11.0254 16.3204L11.0292 16.6148L10.1047 17.1468L11.0179 17.6789Z" fill="#1D2943"/>
<path d="M7.92383 16.3223L7.92466 16.6153L9.09169 17.2935L9.09085 17.0005L7.92383 16.3223Z" fill="#111D33"/>
<path d="M9.85352 17.0001L9.85435 17.2932L11.0284 16.6153L11.0276 16.3223L9.85352 17.0001Z" fill="#1D2943"/>
<path d="M8.29492 17.8989L8.29575 18.192L9.47041 17.5138L9.46958 17.2207L8.29492 17.8989Z" fill="#1D2943"/>
<path d="M7.91602 17.6797L7.91685 17.9727L8.29654 18.1934L8.29571 17.9003L7.91602 17.6797Z" fill="#111D33"/>
<path d="M10.6367 17.8987L10.6375 18.1918L11.0203 17.9708L11.0195 17.6777L10.6367 17.8987Z" fill="#1D2943"/>
<path d="M9.4707 17.2207L9.47153 17.5138L10.6386 18.192L10.6377 17.8989L9.4707 17.2207Z" fill="#111D33"/>
<path d="M7.92365 16.3225L9.09068 17.0007L7.91602 17.6789L8.29571 17.8996L9.47037 17.2214L10.6374 17.8996L11.0202 17.6786L9.85313 17.0004L11.0272 16.3226L10.6475 16.1019L9.47343 16.7798L8.3064 16.1016L7.92365 16.3225Z" fill="#4C5C75"/>
<path d="M9.19336 13.3822L9.19843 16.9851C9.19855 17.0263 9.22569 17.0675 9.27985 17.099C9.38901 17.1624 9.56585 17.1626 9.67544 17.0993C9.73073 17.0674 9.75834 17.0255 9.75822 16.9838L9.75315 13.3809C9.75327 13.4226 9.72566 13.4645 9.67037 13.4964C9.56078 13.5597 9.38394 13.5595 9.27478 13.4961C9.22062 13.4646 9.19348 13.4234 9.19336 13.3822Z" fill="#F3F1FC"/>
<path d="M12.3961 14.2945V14.6265L9.84511 16.1096L6.55078 14.2077V13.8718L9.09795 12.3926L12.3961 14.2945Z" fill="#111D33"/>
<path d="M12.3957 14.2949L12.3947 14.6282L9.8457 16.1095L9.84665 15.7762L12.3957 14.2949Z" fill="#1D2943"/>
<path d="M9.84574 15.776L9.8448 16.1093L6.54883 14.2064L6.54977 13.873L9.84574 15.776Z" fill="#111D33"/>
<path d="M12.3938 14.2955L9.8448 15.7768L6.54883 13.8739L9.09783 12.3926L12.3938 14.2955Z" fill="#4C5C75"/>
<g opacity="0.6">
<path d="M0.943359 7.66992L0.944857 8.19817L12.3371 14.8195L12.3356 14.2912L0.943359 7.66992Z" fill="#497BFE"/>
</g>
<g opacity="0.6">
<path d="M12.3359 14.2902L12.3374 14.8185L19.0547 10.9404L19.0532 10.4121L12.3359 14.2902Z" fill="#5094FF"/>
</g>
<g opacity="0.6">
<path d="M0.943359 7.66982L6.51141 10.9049L8.1555 11.8602L9.43615 12.6044L10.1976 13.0474L11.4195 13.7569L12.3367 14.29L13.0635 13.8712L19.0537 10.4131L10.0303 5.17281L7.66043 3.79297L0.943359 7.66982Z" fill="#57B3FE"/>
</g>
<g opacity="0.3">
<path d="M7.66074 3.79297L6.51172 10.9049L8.15581 11.8602L8.74994 4.4252L8.43149 4.24174L7.66074 3.79297Z" fill="white"/>
<path d="M10.0297 5.17188L9.43555 12.6034L10.197 13.0465L10.7912 5.61146L10.0297 5.17188Z" fill="white"/>
<path d="M12.014 6.32227L11.4199 13.7573L12.3371 14.2903L13.064 13.8715L13.6581 7.27757L12.014 6.32227Z" fill="white"/>
</g>
<path d="M4.62484 10.0532L4.61731 13.0721L4.47013 13.1589L4.00977 12.891L4.02107 9.87209L4.16447 9.78906L4.62484 10.0532Z" fill="#C9CEE2"/>
<path d="M2.55327 8.86133L3.01744 9.12548L3.00611 12.1444L2.86271 12.2274L2.40234 11.9632L2.40988 8.94434L2.55327 8.86133Z" fill="#C9CEE2"/>
<path d="M4.47266 13.1553L4.61645 13.0717L4.625 10.0527L4.48122 10.1363L4.47266 13.1553Z" fill="#E3E7F0"/>
<path d="M4.48064 10.1369L4.62443 10.0533L4.16332 9.78711L4.01953 9.87067L4.48064 10.1369Z" fill="#4C5C75"/>
<path d="M4.02028 9.87109L4.01172 12.8901L4.47283 13.1563L4.48139 10.1373L4.02028 9.87109Z" fill="#C9CEE2"/>
<path d="M2.86328 12.2275L3.00707 12.144L3.01563 9.125L2.87184 9.20856L2.86328 12.2275Z" fill="#E3E7F0"/>
<path d="M2.87127 9.20916L3.01506 9.1256L2.55395 8.85938L2.41016 8.94294L2.87127 9.20916Z" fill="#4C5C75"/>
<path d="M2.4109 8.94336L2.40234 11.9623L2.86345 12.2285L2.87201 9.20958L2.4109 8.94336Z" fill="#C9CEE2"/>
<path d="M5.24435 9.252L5.24057 11.5086L4.95002 11.6784L1.97266 9.95766L1.97643 7.69729L2.26698 7.53125L5.24435 9.252Z" fill="#111D33"/>
<path d="M4.95117 11.6776L5.23935 11.5102L5.24575 9.25195L4.95757 9.41942L4.95117 11.6776Z" fill="#111D33"/>
<path d="M4.9568 9.41936L5.24498 9.25189L2.26474 7.53125L1.97656 7.69872L4.9568 9.41936Z" fill="#4C5C75"/>
<path d="M1.97711 7.69922L1.9707 9.95744L4.95094 11.6781L4.95735 9.41986L1.97711 7.69922Z" fill="#1D2943"/>
<path d="M9.27343 12.7582L9.2659 15.777L9.1225 15.86L8.66211 15.5921L8.66966 12.5732L8.81306 12.4902L9.27343 12.7582Z" fill="#C9CEE2"/>
<path d="M7.20564 11.5625L7.66601 11.8304L7.65847 14.8493L7.51508 14.9323L7.05469 14.6644L7.06224 11.6455L7.20564 11.5625Z" fill="#C9CEE2"/>
<path d="M9.125 15.8584L9.26879 15.7748L9.27735 12.7559L9.13356 12.8394L9.125 15.8584Z" fill="#E3E7F0"/>
<path d="M9.13299 12.84L9.27678 12.7565L8.81566 12.4902L8.67188 12.5738L9.13299 12.84Z" fill="#4C5C75"/>
<path d="M8.67262 12.5742L8.66406 15.5932L9.12517 15.8594L9.13373 12.8404L8.67262 12.5742Z" fill="#C9CEE2"/>
<path d="M7.51562 14.9306L7.65941 14.8471L7.66797 11.8281L7.52418 11.9117L7.51562 14.9306Z" fill="#E3E7F0"/>
<path d="M7.52361 11.9123L7.6674 11.8287L7.20629 11.5625L7.0625 11.6461L7.52361 11.9123Z" fill="#4C5C75"/>
<path d="M7.06325 11.6465L7.05469 14.6654L7.5158 14.9317L7.52436 11.9127L7.06325 11.6465Z" fill="#C9CEE2"/>
<path d="M9.89656 11.9551L9.88901 14.2155L9.60221 14.3815L6.62109 12.6608L6.62863 10.4004L6.91542 10.2344L9.89656 11.9551Z" fill="#111D33"/>
<path d="M9.60156 14.3808L9.88974 14.2133L9.89614 11.9551L9.60796 12.1225L9.60156 14.3808Z" fill="#111D33"/>
<path d="M9.60719 12.1225L9.89537 11.955L6.91513 10.2344L6.62695 10.4018L9.60719 12.1225Z" fill="#4C5C75"/>
<path d="M6.6275 10.4023L6.62109 12.6606L9.60133 14.3812L9.60774 12.123L6.6275 10.4023Z" fill="#1D2943"/>
<path d="M8.97686 7.1223L8.958 7.13739L6.89761 8.33738L6.73913 8.42795L5.04102 7.44682V7.31473L5.18064 7.23173V7.04305L5.04102 6.96379V6.83173L7.25989 5.54492L8.96178 6.52607L8.98064 6.56379C9.09384 6.81664 9.09384 7.00907 8.97686 7.1223Z" fill="#5EC363"/>
<path d="M6.68144 8.263L8.90016 6.97362L7.25778 6.02539L5.03906 7.31477L6.68144 8.263Z" fill="#78E75A"/>
<path d="M6.74287 7.81491L8.96159 6.52554L7.25973 5.54297L5.04102 6.83235L6.74287 7.81491Z" fill="#78E75A"/>
<path d="M8.34093 6.52661L7.25943 5.90234L5.66016 6.83169L6.74166 7.4561L8.34093 6.52661Z" fill="#72D561"/>
<path d="M5.18089 6.92188L5.17969 7.34614L6.89508 8.33653L6.89629 7.91226L5.18089 6.92188Z" fill="#F3F1FC"/>
<path d="M5.0408 6.83203L5.04043 6.96306L6.6824 7.91105C6.74851 8.07055 6.74819 8.1832 6.68181 8.26243L5.03943 7.31421L5.03906 7.44524L6.7401 8.42733L6.7574 8.41041C6.87359 8.29715 6.87454 8.10413 6.7594 7.85212L6.74266 7.8146L5.0408 6.83203Z" fill="#72D561"/>
<path d="M6.74023 8.428L8.95896 7.13835L8.97573 7.12158C9.09229 7.00838 9.09312 6.81552 8.97825 6.56313L8.96148 6.52539L6.74275 7.81504L6.75952 7.85277C6.8744 8.10517 6.87356 8.29803 6.75701 8.41122L6.74023 8.428Z" fill="#5EC363"/>
<path d="M14.7386 10.4699L14.7235 10.4888L12.6593 11.6888L12.5046 11.7794L10.8027 10.7945V10.6661L10.9461 10.5831V10.3982L10.8027 10.3152L10.8065 10.1831L13.0254 8.89258L14.7235 9.87748H14.7272L14.7423 9.91143C14.8593 10.1643 14.8556 10.3567 14.7386 10.4699Z" fill="#E93565"/>
<path d="M12.4451 11.6126L14.6638 10.3232L13.0214 9.375L10.8027 10.6644L12.4451 11.6126Z" fill="#F45170"/>
<path d="M12.5065 11.1645L14.7253 9.87515L13.0234 8.89258L10.8047 10.182L12.5065 11.1645Z" fill="#F45170"/>
<path d="M14.1046 9.87622L13.0231 9.25195L11.4238 10.1813L12.5053 10.8057L14.1046 9.87622Z" fill="#DF3260"/>
<path d="M10.9446 10.2715L10.9434 10.6958L12.6588 11.6861L12.66 11.2619L10.9446 10.2715Z" fill="#F3F1FC"/>
<path d="M10.8045 10.1816L10.8041 10.3127L12.4461 11.2607C12.5122 11.4202 12.5119 11.5328 12.4455 11.612L10.8031 10.6638L10.8027 10.7948L12.5038 11.7769L12.5211 11.76C12.6373 11.6468 12.6382 11.4537 12.5231 11.2017L12.5063 11.1642L10.8045 10.1816Z" fill="#DF3260"/>
<path d="M12.5039 11.7776L14.7226 10.488L14.7394 10.4712C14.856 10.358 14.8568 10.1651 14.7419 9.91273L14.7251 9.875L12.5064 11.1646L12.5232 11.2024C12.6381 11.4548 12.6372 11.6476 12.5207 11.7608L12.5039 11.7776Z" fill="#E93565"/>
</svg>
