<svg width="46" height="80" viewBox="0 0 46 80" fill="none" xmlns="http://www.w3.org/2000/svg">
<path d="M26.5367 35.0013V17.2257C30.3393 17.8671 33.9248 19.4274 36.9901 21.7706C37.6012 22.1896 38.3182 22.417 39.0606 22.427C41.4391 22.427 43.3783 20.513 43.4035 18.1346C43.4085 17.1146 43.0095 16.1349 42.2925 15.4077C37.8637 11.6151 32.3088 9.37809 26.4863 9.04481V3.08584C26.4863 1.38395 25.1077 0.00534308 23.4058 0.00534308C23.3704 0.000343028 23.335 0.000343028 23.2997 0.000343028C21.5726 -0.0249697 20.1485 1.35379 20.1232 3.08584V8.84277C8.76093 9.65075 1.0346 16.6702 1.0346 26.0125C1.0346 37.4757 10.7809 40.6573 20.1232 43.1822V63.3819C15.1944 62.7203 10.5486 60.6751 6.74091 57.4736C6.02387 56.9029 5.13495 56.5848 4.21588 56.5646C1.88789 56.7262 0.0952184 58.6754 0.125375 61.0086C0.120375 62.0286 0.519284 63.0083 1.23632 63.7355C6.45294 68.4319 13.1593 71.1337 20.1735 71.3609V76.9158C20.1735 76.9511 20.1785 76.9866 20.1785 77.0219C20.2593 78.7489 21.7289 80.0821 23.4559 79.9963C25.1578 79.9963 26.5364 78.6177 26.5364 76.9158V71.2599C40.3226 70.351 45.8775 61.9681 45.8775 53.0802C45.8779 41.1623 35.8792 37.5263 26.5367 35.0013ZM20.1738 33.3854C14.6694 31.7694 10.377 30.103 10.377 25.4065C10.377 20.7101 14.2655 17.3266 20.1738 16.8722V33.3854ZM26.5367 63.4828V45.1012C32.2432 46.7172 36.687 48.8886 36.6365 54.191C36.6365 58.029 34.0105 62.5739 26.5367 63.4828Z" fill="#FFB31F"/>
</svg>
