<svg width="25" height="24" viewBox="0 0 25 24" fill="none" xmlns="http://www.w3.org/2000/svg">
<g clip-path="url(#clip0_1643_9573)">
<path d="M14.2871 5.87107C13.8626 5.64144 13.368 5.66211 12.964 5.92645L9.08811 8.46264H6.68891C6.03118 8.46264 5.49609 8.97736 5.49609 9.61008V14.3891C5.49609 15.0219 6.03118 15.5366 6.68891 15.5366H9.08317L12.9645 18.0738C13.182 18.216 13.4255 18.2876 13.6704 18.2876C13.8804 18.2876 14.0913 18.2349 14.2873 18.1289C14.7117 17.8993 14.9651 17.4741 14.9651 16.9916V7.00845C14.9651 6.52582 14.7116 6.10056 14.2871 5.87107ZM13.8479 16.9916C13.8479 17.0631 13.8186 17.1123 13.7557 17.1463C13.6928 17.1803 13.6356 17.1779 13.5758 17.1388L9.55514 14.5105C9.46426 14.4511 9.35804 14.4194 9.2495 14.4194H6.68891C6.64177 14.4194 6.6162 14.394 6.61328 14.3892L6.61259 9.61403C6.61616 9.60527 6.64181 9.57987 6.68886 9.57987H9.25457C9.3632 9.57987 9.4695 9.5482 9.56042 9.48869L13.5757 6.86132C13.6356 6.82214 13.6927 6.81982 13.7556 6.8538C13.8185 6.88779 13.8478 6.93699 13.8478 7.00849V16.9916H13.8479ZM19.3403 11.2593L18.5995 12L19.3403 12.7407C19.5584 12.9589 19.5584 13.3126 19.3403 13.5307C19.2312 13.6398 19.0883 13.6943 18.9453 13.6943C18.8024 13.6943 18.6594 13.6398 18.5503 13.5307L17.8096 12.79L17.0689 13.5307C16.9598 13.6398 16.8169 13.6943 16.6739 13.6943C16.5309 13.6943 16.388 13.6398 16.2789 13.5307C16.0608 13.3126 16.0608 12.9589 16.2789 12.7407L17.0196 12L16.2789 11.2593C16.0607 11.0411 16.0607 10.6874 16.2789 10.4693C16.497 10.2512 16.8508 10.2512 17.0689 10.4693L17.8096 11.21L18.5503 10.4693C18.7685 10.2512 19.1222 10.2512 19.3403 10.4693C19.5585 10.6874 19.5585 11.0411 19.3403 11.2593ZM19.6973 1H5.30273C3.2059 1 1.5 2.7059 1.5 4.80273V19.1973C1.5 21.2941 3.2059 23 5.30273 23H19.6973C21.7941 23 23.5 21.2941 23.5 19.1973V4.80273C23.5 2.7059 21.7941 1 19.6973 1V1ZM22.3828 19.1973C22.3828 20.6781 21.1781 21.8828 19.6973 21.8828H5.30273C3.8219 21.8828 2.61719 20.6781 2.61719 19.1973V4.80273C2.61719 3.3219 3.8219 2.11719 5.30273 2.11719H19.6973C21.1781 2.11719 22.3828 3.3219 22.3828 4.80273V19.1973Z" fill="#5E5B50"/>
</g>
<defs>
<clipPath id="clip0_1643_9573">
<rect width="22" height="22" fill="white" transform="translate(1.5 1)"/>
</clipPath>
</defs>
</svg>
