<svg width="36" height="36" viewBox="0 0 36 36" fill="none" xmlns="http://www.w3.org/2000/svg">
<g clip-path="url(#clip0_1832_10043)">
<path d="M8.84312 30.2886C5.81827 30.2886 2.60352 31.2894 2.60352 33.1441C2.60352 34.9988 5.81834 35.9997 8.84312 35.9997C11.8679 35.9997 15.0827 34.9988 15.0827 33.1441C15.0827 31.2894 11.8679 30.2886 8.84312 30.2886Z" fill="#FFDB56"/>
<path d="M8.84328 10.8213C3.97625 10.8213 0.0166016 14.7809 0.0166016 19.648C0.0166016 22.6698 1.45407 25.9188 4.28914 29.3048C6.37644 31.7977 8.43357 33.3997 8.52019 33.4667C8.61526 33.5403 8.7293 33.5771 8.84328 33.5771C8.95726 33.5771 9.07123 33.5403 9.16637 33.4667C9.25292 33.3997 11.3102 31.7977 13.3974 29.3048C16.2325 25.9188 17.67 22.6697 17.67 19.648C17.67 14.7809 13.7103 10.8213 8.84328 10.8213ZM12.1532 19.648C12.1532 21.476 10.6713 22.9579 8.84328 22.9579C7.0153 22.9579 5.53339 21.476 5.53339 19.648C5.53339 17.82 7.0153 16.338 8.84328 16.338C10.6713 16.338 12.1532 17.82 12.1532 19.648Z" fill="#FF4A4A"/>
<path d="M32.3804 15.5254C31.4895 15.1624 30.3163 14.9624 29.077 14.9624C27.8379 14.9624 26.6646 15.1624 25.7737 15.5254C24.7326 15.9497 24.1592 16.5726 24.1592 17.2793C24.1592 17.986 24.7325 18.6089 25.7737 19.0331C26.6646 19.3962 27.8377 19.5961 29.077 19.5961C30.3163 19.5961 31.4895 19.3962 32.3804 19.0331C33.4214 18.6089 33.9948 17.986 33.9948 17.2793C33.9948 16.5726 33.4214 15.9497 32.3804 15.5254Z" fill="#FFDB56"/>
<path d="M8.84312 34.6812C6.19895 34.6812 3.40972 33.9164 2.74955 32.4849C2.65456 32.6909 2.60352 32.9107 2.60352 33.1442C2.60352 34.999 5.81834 35.9998 8.84312 35.9998C11.8679 35.9998 15.0827 34.9989 15.0827 33.1442C15.0827 32.9108 15.0317 32.6909 14.9367 32.4849C14.2766 33.9164 11.4874 34.6812 8.84312 34.6812Z" fill="#FFBB24"/>
<path d="M32.3813 17.7142C31.4904 18.0772 30.3173 18.2772 29.078 18.2772C27.8387 18.2772 26.6655 18.0772 25.7746 17.7142C25.0724 17.4281 24.584 17.0513 24.3398 16.6196C24.222 16.828 24.1602 17.0488 24.1602 17.2789C24.1602 17.9857 24.7335 18.6086 25.7747 19.0328C26.6655 19.3958 27.8387 19.5958 29.078 19.5958C30.3173 19.5958 31.4904 19.3958 32.3814 19.0328C33.4224 18.6086 33.9958 17.9857 33.9958 17.2789C33.9958 17.049 33.9339 16.828 33.8161 16.6196C33.5719 17.0513 33.0834 17.4281 32.3813 17.7142Z" fill="#FFBB24"/>
<path d="M29.077 0C25.2689 0 22.1709 3.09811 22.1709 6.90609C22.1709 9.25805 23.2854 11.7815 25.4832 14.4065C27.0958 16.3325 28.687 17.5717 28.754 17.6235C28.8491 17.6971 28.9631 17.7339 29.0771 17.7339C29.191 17.7339 29.3049 17.6971 29.4001 17.6235C29.4671 17.5717 31.0584 16.3325 32.6709 14.4065C34.8688 11.7816 35.9832 9.25812 35.9832 6.90609C35.983 3.09811 32.885 0 29.077 0ZM31.621 6.90609C31.621 8.31108 30.482 9.45007 29.077 9.45007C27.672 9.45007 26.533 8.31108 26.533 6.90609C26.533 5.50111 27.672 4.36219 29.077 4.36219C30.482 4.36219 31.621 5.50111 31.621 6.90609Z" fill="#FF4A4A"/>
<path d="M8.84292 10.8213C8.50676 10.8213 8.17516 10.8408 7.8487 10.8776C12.2494 11.3732 15.6811 15.117 15.6811 19.648C15.6811 22.6698 14.2436 25.9188 11.4086 29.3048C10.0162 30.9677 8.63824 32.2331 7.84863 32.9121C8.2428 33.251 8.49101 33.4443 8.51984 33.4666C8.6149 33.5402 8.72895 33.577 8.84292 33.577C8.9569 33.577 9.07088 33.5402 9.16601 33.4666C9.25256 33.3996 11.3098 31.7976 13.3971 29.3047C16.2321 25.9187 17.6696 22.6697 17.6696 19.6479C17.6696 14.7809 13.71 10.8213 8.84292 10.8213Z" fill="#E7343F"/>
<path d="M29.0773 0C28.7397 0 28.4078 0.02475 28.083 0.0718594C31.4215 0.555328 33.9949 3.43568 33.9949 6.90609C33.9949 9.25805 32.8804 11.7815 30.6827 14.4065C29.6915 15.5903 28.7091 16.5139 28.083 17.0625C28.4756 17.4065 28.7284 17.6035 28.7542 17.6234C28.8493 17.697 28.9633 17.7338 29.0773 17.7338C29.1913 17.7338 29.3052 17.697 29.4004 17.6234C29.4673 17.5716 31.0586 16.3325 32.6712 14.4065C34.869 11.7815 35.9834 9.25805 35.9834 6.90602C35.9833 3.09811 32.8853 0 29.0773 0Z" fill="#E7343F"/>
<path d="M17.0317 33.6727C16.7414 33.6727 16.5052 33.438 16.5039 33.1472C16.5026 32.8556 16.7378 32.6182 17.0294 32.6169L17.7266 32.6137C17.7275 32.6137 17.7283 32.6137 17.7291 32.6137C18.0195 32.6137 18.2557 32.8484 18.2569 33.1393C18.2583 33.4308 18.023 33.6683 17.7314 33.6695L17.0342 33.6727C17.0334 33.6727 17.0325 33.6727 17.0317 33.6727ZM19.8207 33.6601C19.5303 33.6601 19.2942 33.4254 19.2929 33.1345C19.2915 32.843 19.5268 32.6055 19.8184 32.6042L20.5156 32.6011C20.5164 32.6011 20.5172 32.6011 20.5181 32.6011C20.8084 32.6011 21.0446 32.8358 21.0459 33.1266C21.0472 33.4182 20.812 33.6556 20.5204 33.6569L19.8232 33.6601C19.8223 33.6601 19.8215 33.6601 19.8207 33.6601ZM22.6097 33.6473C22.3193 33.6473 22.0832 33.4126 22.0819 33.1218C22.0805 32.8303 22.3158 32.5928 22.6074 32.5915L23.3045 32.5884C23.3054 32.5884 23.3062 32.5884 23.307 32.5884C23.5974 32.5884 23.8335 32.8231 23.8348 33.1139C23.8361 33.4055 23.6009 33.6429 23.3093 33.6442L22.6122 33.6473C22.6113 33.6473 22.6105 33.6473 22.6097 33.6473ZM25.3987 33.6347C25.1083 33.6347 24.8722 33.4 24.8709 33.1092C24.8696 32.8176 25.1048 32.5801 25.3964 32.5789L26.0936 32.5757C26.0945 32.5757 26.0952 32.5757 26.0961 32.5757C26.3865 32.5757 26.6226 32.8104 26.6239 33.1012C26.6252 33.3927 26.39 33.6302 26.0984 33.6315L25.4012 33.6347C25.4003 33.6347 25.3995 33.6347 25.3987 33.6347ZM28.1877 33.6221C27.8973 33.6221 27.6612 33.3874 27.6598 33.0966C27.6585 32.805 27.8938 32.5675 28.1854 32.5663L28.8826 32.5631C28.8834 32.5631 28.8842 32.5631 28.885 32.5631C29.1754 32.5631 29.4115 32.7978 29.4129 33.0886C29.4142 33.3802 29.1789 33.6177 28.8873 33.6189L28.1901 33.6221C28.1893 33.6221 28.1885 33.6221 28.1877 33.6221ZM30.9767 33.6094C30.6864 33.6094 30.4503 33.3748 30.4488 33.0841C30.4474 32.7925 30.6826 32.555 30.9742 32.5536L31.073 32.5531C31.2496 32.5524 31.4266 32.5398 31.5995 32.5159C31.8878 32.4757 32.1547 32.6778 32.1947 32.9666C32.2346 33.2554 32.0329 33.5219 31.744 33.5618C31.525 33.5921 31.3008 33.608 31.0779 33.6089L30.9793 33.6094C30.9784 33.6094 30.9775 33.6094 30.9767 33.6094ZM33.6029 32.8141C33.4357 32.8141 33.2711 32.7348 33.1686 32.5869C33.0026 32.3473 33.0621 32.0185 33.3017 31.8522C33.4699 31.7357 33.6301 31.605 33.7783 31.4639C33.9892 31.2628 34.3234 31.2708 34.5247 31.4819C34.7257 31.6929 34.7177 32.0271 34.5067 32.2283C34.3191 32.407 34.1161 32.5724 33.9034 32.7199C33.8115 32.7836 33.7067 32.8141 33.6029 32.8141ZM35.2724 30.6372C35.2136 30.6372 35.1537 30.6273 35.0951 30.6065C34.8205 30.5085 34.6773 30.2065 34.7751 29.9319C34.8437 29.7396 34.8976 29.5403 34.9354 29.3394C34.9894 29.0528 35.2657 28.8644 35.5518 28.9183C35.8383 28.9722 36.0269 29.2483 35.9729 29.5347C35.9249 29.7896 35.8565 30.0426 35.7695 30.2865C35.6926 30.5025 35.4893 30.6372 35.2724 30.6372ZM35.3579 27.8951C35.1284 27.8951 34.9171 27.7442 34.8508 27.5126C34.7944 27.3165 34.722 27.123 34.6355 26.9377C34.5123 26.6735 34.6265 26.3593 34.8907 26.236C35.1552 26.1129 35.4691 26.227 35.5924 26.4912C35.7022 26.7265 35.794 26.9721 35.8656 27.2213C35.946 27.5015 35.7841 27.794 35.5038 27.8744C35.4551 27.8884 35.4061 27.8951 35.3579 27.8951ZM33.8268 25.6177C33.7122 25.6177 33.597 25.5807 33.5 25.5042C33.3395 25.3773 33.1677 25.2623 32.9898 25.162C32.7358 25.019 32.6458 24.697 32.7889 24.443C32.932 24.189 33.2541 24.099 33.5079 24.2421C33.7334 24.3691 33.9508 24.5149 34.1542 24.6754C34.383 24.856 34.4221 25.188 34.2414 25.4168C34.1373 25.5489 33.9828 25.6177 33.8268 25.6177ZM31.257 24.6609C31.2491 24.6609 31.2412 24.6608 31.2333 24.6603C31.1743 24.6577 31.1148 24.6564 31.0552 24.6564H30.5595C30.2679 24.6564 30.0315 24.4201 30.0315 24.1285C30.0315 23.837 30.2678 23.6006 30.5595 23.6006H31.0552C31.1297 23.6006 31.2053 23.6022 31.2799 23.6056C31.5712 23.6184 31.7969 23.865 31.7839 24.1563C31.7715 24.4397 31.5378 24.6609 31.257 24.6609ZM28.4677 24.6565H27.7705C27.4789 24.6565 27.2426 24.4202 27.2426 24.1286C27.2426 23.837 27.4789 23.6007 27.7705 23.6007H28.4677C28.7593 23.6007 28.9956 23.837 28.9956 24.1286C28.9956 24.4201 28.7593 24.6565 28.4677 24.6565ZM25.6787 24.6565H24.9815C24.6899 24.6565 24.4536 24.4202 24.4536 24.1286C24.4536 23.837 24.6899 23.6007 24.9815 23.6007H25.6787C25.9703 23.6007 26.2066 23.837 26.2066 24.1286C26.2066 24.4201 25.9703 24.6565 25.6787 24.6565ZM22.8896 24.6565H22.1924C21.9008 24.6565 21.6645 24.4202 21.6645 24.1286C21.6645 23.837 21.9008 23.6007 22.1924 23.6007H22.8896C23.1812 23.6007 23.4175 23.837 23.4175 24.1286C23.4175 24.4201 23.1813 24.6565 22.8896 24.6565ZM20.2002 24.1314C20.104 24.1314 20.0065 24.1051 19.9191 24.05C19.6928 23.9072 19.4802 23.7405 19.287 23.5548C19.0769 23.3527 19.0703 23.0185 19.2725 22.8084C19.4744 22.5985 19.8087 22.5918 20.0188 22.794C20.1605 22.9302 20.3165 23.0524 20.4824 23.157C20.7291 23.3125 20.8029 23.6386 20.6473 23.8851C20.5468 24.0442 20.3754 24.1314 20.2002 24.1314ZM18.666 21.895C18.4183 21.895 18.1975 21.7201 18.1483 21.4681C18.0999 21.2197 18.0754 20.9646 18.0754 20.7097L18.0756 20.6681C18.079 20.3787 18.3147 20.1463 18.6034 20.1463C18.6055 20.1463 18.6076 20.1463 18.6096 20.1463C18.9012 20.1497 19.1348 20.3888 19.1314 20.6803L19.1312 20.7096C19.1312 20.8969 19.1492 21.0842 19.1846 21.2661C19.2404 21.5522 19.0537 21.8294 18.7675 21.8852C18.7334 21.8919 18.6993 21.895 18.666 21.895ZM19.2429 19.2456C19.1361 19.2456 19.0286 19.2134 18.9353 19.1464C18.6985 18.9763 18.6444 18.6465 18.8145 18.4097C18.9707 18.1921 19.1497 17.9899 19.3465 17.8084C19.561 17.6107 19.8948 17.6243 20.0925 17.8385C20.2902 18.0528 20.2767 18.3868 20.0624 18.5844C19.918 18.7176 19.7867 18.866 19.6721 19.0256C19.5689 19.1691 19.4071 19.2456 19.2429 19.2456ZM21.5668 17.8486C21.3063 17.8486 21.0796 17.6557 21.0442 17.3902C21.0057 17.1013 21.2089 16.8358 21.4979 16.7973C21.6704 16.7744 21.8467 16.7627 22.0222 16.7627H22.2633C22.5549 16.7627 22.7912 16.999 22.7912 17.2906C22.7912 17.5822 22.5549 17.8185 22.2633 17.8185H22.0222C21.8932 17.8185 21.7636 17.827 21.6371 17.8438C21.6135 17.8471 21.59 17.8486 21.5668 17.8486Z" fill="#1EA4E9"/>
</g>
<defs>
<clipPath id="clip0_1832_10043">
<rect width="36" height="36" fill="white"/>
</clipPath>
</defs>
</svg>
