<svg width="24" height="24" viewBox="0 0 24 24" fill="none" xmlns="http://www.w3.org/2000/svg">
<path d="M14.8156 8.49874L13.8756 9.525C13.07 10.4043 11.9776 10.8983 10.8385 10.8983C9.69123 10.8983 8.61253 10.4105 7.8013 9.5249L7.55844 9.2597C7.27921 8.95478 7.27921 8.46044 7.55854 8.15556L10.7919 4.62582C9.79909 3.94964 8.52769 3.92642 7.49629 4.62341C6.89853 5.02744 6.1317 4.92481 5.63158 4.37387L4.58954 3.22595C4.31696 2.92563 3.87263 2.92456 3.59879 3.2235L0.204728 6.9286C-0.068274 7.22662 -0.0682271 7.70976 0.204775 8.00778L11.7074 20.5636C12.2181 21.0292 12.8653 21.1292 13.4429 20.8301C13.9022 20.5923 14.3871 20.0392 14.3721 19.1991C14.3699 19.076 14.3918 18.9525 14.4411 18.8418C14.5754 18.5396 14.8582 18.3745 15.1454 18.4C15.5887 18.4397 16.0376 18.2542 16.3776 17.8912C16.7095 17.537 16.8849 17.0602 16.8589 16.5832C16.8357 16.1561 17.1461 15.7874 17.537 15.757C18.102 15.7129 18.5629 15.4198 18.9068 14.8856C19.1614 14.4902 19.3304 13.9829 19.3807 13.4824L14.8156 8.49874Z" fill="#282723"/>
<path d="M23.7967 7.01197L20.3979 3.3016C20.125 3.00363 19.6824 3.00363 19.4094 3.3016L18.1862 4.63698C17.6573 5.21437 16.8384 5.28611 16.239 4.80752C15.056 3.86303 13.384 4.00366 12.3498 5.13464L9.09375 8.68919C9.59208 9.10913 10.1999 9.33658 10.8398 9.33658C11.605 9.33658 12.3244 9.0113 12.8655 8.42057L14.3113 6.8423C14.4509 6.68986 14.634 6.61361 14.817 6.61361C15.0001 6.61361 15.1831 6.68986 15.3228 6.8423L20.1171 12.0762L23.7968 8.0911C24.0696 7.79308 24.0696 7.30994 23.7967 7.01197Z" fill="#282723"/>
</svg>
