<svg width="60" height="60" viewBox="0 0 60 60" fill="none" xmlns="http://www.w3.org/2000/svg">
<path fill-rule="evenodd" clip-rule="evenodd" d="M9.73703 6.24092C12.1024 3.7126 15.8213 3.125 20.55 3.125H39.45C44.1787 3.125 47.8976 3.7126 50.263 6.24092C52.5867 8.72476 53.125 12.5911 53.125 17.6V28.25C53.125 29.2855 52.2855 30.125 51.25 30.125C50.2145 30.125 49.375 29.2855 49.375 28.25V17.6C49.375 12.5339 48.7383 10.1002 47.5245 8.80283C46.3524 7.5499 44.1712 6.875 39.45 6.875H20.55C15.8287 6.875 13.6476 7.5499 12.4755 8.80283C11.2617 10.1002 10.625 12.5339 10.625 17.6V45.75C10.625 47.2614 10.8352 48.3462 11.1256 49.0584C11.4135 49.7643 11.7204 49.9761 11.8698 50.0404C12.0056 50.0989 12.3236 50.1715 12.9533 49.8997C13.6013 49.6199 14.454 49.0193 15.4531 47.9469C15.4681 47.9308 15.4835 47.9148 15.4991 47.8992L15.506 47.8924C18.3494 44.8995 22.8298 45.1448 25.3019 48.4525L27.8263 51.8268C28.4467 52.6559 28.2774 53.831 27.4482 54.4513C26.6191 55.0717 25.444 54.9024 24.8237 54.0732L22.2987 50.6982L22.2981 50.6975C21.2261 49.2631 19.4722 49.1516 18.2145 50.486C18.2018 50.4995 18.1889 50.5127 18.1759 50.5258L18.1737 50.5279C16.9674 51.8182 15.7124 52.793 14.4397 53.3425C13.1404 53.9035 11.7163 54.0573 10.3864 53.4846C9.07026 52.9177 8.18802 51.7857 7.65328 50.4745C7.12105 49.1694 6.875 47.5636 6.875 45.75V17.6C6.875 12.5911 7.4133 8.72476 9.73703 6.24092Z" fill="#CFCEC8"/>
<path fill-rule="evenodd" clip-rule="evenodd" d="M38.5173 38.5173C40.3692 36.6654 42.881 35.625 45.5 35.625C48.119 35.625 50.6308 36.6654 52.4827 38.5173C54.3346 40.3692 55.375 42.881 55.375 45.5C55.375 47.4888 54.775 49.4158 53.6754 51.0389C53.7273 51.0808 53.7776 51.1259 53.8258 51.1742L56.3258 53.6742C57.0581 54.4064 57.0581 55.5936 56.3258 56.3258C55.5936 57.0581 54.4064 57.0581 53.6742 56.3258L51.1742 53.8258C51.1259 53.7776 51.0808 53.7273 51.0389 53.6754C49.4158 54.775 47.4888 55.375 45.5 55.375C42.881 55.375 40.3692 54.3346 38.5173 52.4827C36.6654 50.6308 35.625 48.119 35.625 45.5C35.625 42.881 36.6654 40.3692 38.5173 38.5173ZM45.5 39.375C43.8756 39.375 42.3176 40.0203 41.169 41.169C40.0203 42.3176 39.375 43.8756 39.375 45.5C39.375 47.1245 40.0203 48.6824 41.169 49.831C42.3176 50.9797 43.8756 51.625 45.5 51.625C47.1245 51.625 48.6824 50.9797 49.831 49.831C50.9797 48.6824 51.625 47.1245 51.625 45.5C51.625 43.8756 50.9797 42.3176 49.831 41.169C48.6824 40.0203 47.1245 39.375 45.5 39.375Z" fill="#CFCEC8"/>
<path opacity="0.4" fill-rule="evenodd" clip-rule="evenodd" d="M18.125 17.5C18.125 16.4645 18.9645 15.625 20 15.625H40C41.0355 15.625 41.875 16.4645 41.875 17.5C41.875 18.5355 41.0355 19.375 40 19.375H20C18.9645 19.375 18.125 18.5355 18.125 17.5ZM20.625 27.5C20.625 26.4645 21.4645 25.625 22.5 25.625H37.5C38.5355 25.625 39.375 26.4645 39.375 27.5C39.375 28.5355 38.5355 29.375 37.5 29.375H22.5C21.4645 29.375 20.625 28.5355 20.625 27.5Z" fill="#CFCEC8"/>
</svg>
