<svg width="25" height="24" viewBox="0 0 25 24" fill="none" xmlns="http://www.w3.org/2000/svg">
<path d="M20.9375 8.90625H19.0625C18.6742 8.90625 18.3594 9.22106 18.3594 9.60938C18.3594 9.99769 18.6742 10.3125 19.0625 10.3125H19.2969V12.8906C19.2969 13.5368 18.7712 14.0625 18.125 14.0625H14.6094V12.6562H15.6592C16.2474 12.6562 16.8132 12.408 17.2115 11.9752C17.6097 11.5423 17.8101 10.9579 17.7613 10.3717L17.0582 1.9342C16.9677 0.849609 16.0444 0 14.9561 0H10.0439C8.95559 0 8.0322 0.849609 7.94183 1.9342L7.2387 10.3717C7.18986 10.9579 7.39025 11.5423 7.78855 11.9752C8.18684 12.408 8.75258 12.6562 9.34081 12.6562H10.3906V14.0625H6.875C6.22883 14.0625 5.70312 13.5368 5.70312 12.8906V10.3125H5.9375C6.32581 10.3125 6.64062 9.99769 6.64062 9.60938C6.64062 9.22106 6.32581 8.90625 5.9375 8.90625H4.0625C3.67419 8.90625 3.35938 9.22106 3.35938 9.60938C3.35938 9.99769 3.67419 10.3125 4.0625 10.3125H4.29688V12.8906C4.29688 14.3122 5.45342 15.4688 6.875 15.4688H7.57812V16.1719C7.57812 17.335 8.52439 18.2812 9.6875 18.2812H11.7969V19.9776L8.05892 21.2235C7.77177 21.3193 7.57812 21.588 7.57812 21.8906V23.2969C7.57812 23.6852 7.89294 24 8.28125 24C8.66956 24 8.98438 23.6852 8.98438 23.2969V22.3974L11.7969 21.4599V22.8281C11.7969 23.2164 12.1117 23.5312 12.5 23.5312C12.8883 23.5312 13.2031 23.2164 13.2031 22.8281V21.4599L16.0156 22.3974V23.2969C16.0156 23.6852 16.3304 24 16.7188 24C17.1071 24 17.4219 23.6852 17.4219 23.2969V21.8906C17.4219 21.588 17.2282 21.3193 16.9411 21.2236L13.2031 19.9776V18.2812H15.3125C16.4756 18.2812 17.4219 17.335 17.4219 16.1719V15.4688H18.125C19.5466 15.4688 20.7031 14.3122 20.7031 12.8906V10.3125H20.9375C21.3258 10.3125 21.6406 9.99769 21.6406 9.60938C21.6406 9.22106 21.3258 8.90625 20.9375 8.90625ZM9.34081 11.25C9.14188 11.25 8.95808 11.1694 8.82336 11.023C8.68864 10.8765 8.62358 10.6868 8.64008 10.4885L9.3432 2.05102C9.37334 1.68947 9.68117 1.40625 10.0439 1.40625H14.9561C15.3188 1.40625 15.6267 1.68947 15.6567 2.05097L16.3599 10.4885C16.3764 10.6867 16.3113 10.8765 16.1766 11.0229C16.0419 11.1693 15.8581 11.25 15.6591 11.25H9.34081V11.25ZM13.2031 12.6562V14.0625H11.7969V12.6562H13.2031ZM16.0156 16.1719C16.0156 16.5596 15.7002 16.875 15.3125 16.875H9.6875C9.2998 16.875 8.98438 16.5596 8.98438 16.1719V15.4688H16.0156V16.1719Z" fill="#5E5B50"/>
</svg>
