<svg width="24" height="24" viewBox="0 0 24 24" fill="none" xmlns="http://www.w3.org/2000/svg">
<path d="M4 21.191C4 21.755 4.45729 22.2123 5.02133 22.2123H18.6391C19.2031 22.2123 19.6604 21.755 19.6604 21.191V10.2967C19.6603 9.81144 19.3188 9.39321 18.8433 9.29619L19.976 4.31173C20.0354 4.0471 19.9872 3.7697 19.8419 3.5407C19.6966 3.3117 19.4662 3.14984 19.2015 3.09091L16.5317 2.4914C16.2691 2.43295 15.994 2.47999 15.7657 2.62246C15.5825 2.31546 15.2517 2.12707 14.8942 2.12608H13.0974C12.9767 1.9161 12.7533 1.78636 12.5111 1.78564H9.78752C9.54536 1.78636 9.32194 1.9161 9.20129 2.12608H7.40443C6.84034 2.12608 6.3831 2.58336 6.3831 3.14741V5.13593C5.99734 5.30489 5.6461 5.54371 5.34712 5.84029C5.34441 5.84301 5.3403 5.84368 5.33759 5.84676C5.33487 5.84983 5.33384 5.85358 5.33112 5.85629C4.40462 6.78586 4.09671 8.1661 4.54027 9.40135C4.20885 9.57737 4.0012 9.92147 4 10.2967V21.191ZM18.9795 10.2967V21.191C18.9795 21.379 18.8271 21.5314 18.6391 21.5314H5.02133C4.8333 21.5314 4.6809 21.379 4.6809 21.191V10.2967C4.6809 10.1087 4.83334 9.9563 5.02133 9.9563H18.6391C18.8271 9.9563 18.9795 10.1087 18.9795 10.2967ZM5.36176 7.91364H5.04479C5.10551 7.42946 5.29597 6.97074 5.59595 6.58591L5.81893 6.80888C5.90443 6.89737 6.03097 6.93288 6.15002 6.90172C6.26907 6.87056 6.36199 6.77761 6.39315 6.6586C6.42431 6.53955 6.3888 6.413 6.30031 6.3275L6.07733 6.10452C6.46205 5.80487 6.92053 5.61468 7.40439 5.55404V5.87101C7.40439 6.05904 7.55679 6.21144 7.74482 6.21144C7.93285 6.21144 8.08525 6.059 8.08525 5.87101V5.55404C8.56942 5.61476 9.02815 5.80522 9.41298 6.1052L9.19 6.32818C9.10151 6.41364 9.06601 6.54023 9.09717 6.65927C9.12832 6.77832 9.22128 6.87124 9.34029 6.9024C9.4593 6.93356 9.58589 6.89805 9.67139 6.80956L9.89436 6.58658C10.194 6.9713 10.3842 7.42978 10.4448 7.91364H10.1279C9.93984 7.91364 9.78744 8.06608 9.78744 8.25407C9.78744 8.4421 9.93988 8.5945 10.1279 8.5945H10.4455C10.415 8.82833 10.3542 9.05721 10.2648 9.2754H5.2256C5.13611 9.05721 5.07535 8.82833 5.04483 8.5945H5.36176C5.54979 8.5945 5.70219 8.44206 5.70219 8.25407C5.70219 8.06608 5.54979 7.91364 5.36176 7.91364ZM16.7486 9.2754H16.0442L16.4796 7.36619L17.1479 7.51532L16.7486 9.2754ZM16.3837 3.15595L19.0538 3.75546C19.2371 3.79643 19.3526 3.9782 19.3118 4.1616L18.1499 9.2754H17.4476L17.8125 7.66576C17.8522 7.48943 17.8201 7.30451 17.7234 7.15183C17.6266 6.99915 17.4732 6.89119 17.2967 6.85177L16.6305 6.70164C16.2631 6.61834 15.8976 6.84818 15.8134 7.21538L15.3453 9.2754H14.6399L15.9724 3.41192C15.993 3.32343 16.0479 3.24675 16.125 3.19871C16.2021 3.15072 16.2952 3.13532 16.3837 3.15595ZM15.2347 3.14741V3.58554L14.5538 6.58148V4.16874C14.5538 3.79268 14.2489 3.48784 13.8729 3.48784H13.1919V2.80698H14.8942C15.0822 2.80698 15.2347 2.95942 15.2347 3.14741ZM9.78752 2.46655H12.5111V3.82831H9.78752V2.46655ZM12.5111 4.50921C12.7533 4.50849 12.9767 4.37875 13.0973 4.16878H13.8729V9.27544H10.9869C11.3753 8.07067 11.0553 6.74984 10.1586 5.85637C10.1559 5.85366 10.1552 5.84955 10.1521 5.84684C10.1491 5.84412 10.1453 5.84309 10.1426 5.84037C9.67266 5.37184 9.07582 5.05111 8.42572 4.91778V4.16874H9.20125C9.3219 4.37871 9.54532 4.50845 9.78748 4.50917H12.5111V4.50921ZM7.064 3.14741C7.064 2.95938 7.2164 2.80698 7.40443 2.80698H9.10666V3.48788H8.42576C8.0497 3.48788 7.74486 3.79272 7.74486 4.16878V4.84964C7.51618 4.84936 7.28805 4.87218 7.06396 4.91774V3.14741H7.064Z" fill="#5E5B50"/>
<path d="M15.2351 10.6377H8.42622C7.67414 10.6377 7.06445 11.2474 7.06445 11.9995C7.06445 12.7515 7.67414 13.3612 8.42622 13.3612H15.2351C15.9872 13.3612 16.5969 12.7515 16.5969 11.9995C16.5969 11.2474 15.9872 10.6377 15.2351 10.6377ZM15.2351 12.6804H8.42622C8.05016 12.6804 7.74531 12.3755 7.74531 11.9995C7.74531 11.6234 8.05016 11.3186 8.42622 11.3186H15.2351C15.6112 11.3186 15.916 11.6234 15.916 11.9995C15.916 12.3755 15.6111 12.6804 15.2351 12.6804Z" fill="#5E5B50"/>
<path d="M8.08489 17.7861H6.38266C5.81861 17.7861 5.36133 18.2434 5.36133 18.8075V19.8288C5.36133 20.3928 5.81861 20.8501 6.38266 20.8501H8.08489C8.64894 20.8501 9.10623 20.3928 9.10623 19.8288V18.8075C9.10623 18.2434 8.64894 17.7861 8.08489 17.7861ZM8.42532 19.8288C8.42532 20.0168 8.27288 20.1692 8.08489 20.1692H6.38266C6.19463 20.1692 6.04223 20.0168 6.04223 19.8288V18.8075C6.04223 18.6194 6.19467 18.467 6.38266 18.467H8.08489C8.27292 18.467 8.42532 18.6194 8.42532 18.8075V19.8288Z" fill="#5E5B50"/>
<path d="M14.795 17.8858C14.662 17.7529 14.4465 17.7529 14.3136 17.8858L13.6327 18.5667C13.5037 18.7003 13.5055 18.9126 13.6368 19.0439C13.7682 19.1753 13.9805 19.1771 14.1141 19.0481L14.2138 18.9483V20.5096C14.2138 20.6977 14.3662 20.8501 14.5542 20.8501C14.7423 20.8501 14.8947 20.6976 14.8947 20.5096V18.9483L14.9944 19.0481C15.128 19.1771 15.3403 19.1753 15.4716 19.0439C15.603 18.9126 15.6048 18.7003 15.4758 18.5667L14.795 17.8858Z" fill="#5E5B50"/>
<path d="M17.5176 17.8858C17.3847 17.7529 17.1692 17.7529 17.0362 17.8858L16.3553 18.5667C16.2263 18.7003 16.2282 18.9126 16.3595 19.0439C16.4908 19.1753 16.7032 19.1771 16.8367 19.0481L16.9365 18.9483V20.5096C16.9365 20.6977 17.0889 20.8501 17.2769 20.8501C17.4649 20.8501 17.6173 20.6976 17.6173 20.5096V18.9483L17.7171 19.0481C17.8506 19.1771 18.063 19.1753 18.1943 19.0439C18.3256 18.9126 18.3275 18.7003 18.1984 18.5667L17.5176 17.8858Z" fill="#5E5B50"/>
<path d="M11.149 5.8708H12.8513C13.0393 5.8708 13.1917 5.71836 13.1917 5.53037C13.1917 5.34234 13.0393 5.18994 12.8513 5.18994H11.149C10.961 5.18994 10.8086 5.34238 10.8086 5.53037C10.8086 5.71836 10.961 5.8708 11.149 5.8708Z" fill="#5E5B50"/>
<path d="M12.852 6.55176H11.8307C11.6426 6.55176 11.4902 6.7042 11.4902 6.89219C11.4902 7.08022 11.6427 7.23262 11.8307 7.23262H12.852C13.04 7.23262 13.1924 7.08018 13.1924 6.89219C13.1925 6.70416 13.04 6.55176 12.852 6.55176Z" fill="#5E5B50"/>
<path d="M12.8514 7.91357H12.1705C11.9825 7.91357 11.8301 8.06602 11.8301 8.254C11.8301 8.44203 11.9825 8.59444 12.1705 8.59444H12.8514C13.0394 8.59444 13.1918 8.44199 13.1918 8.254C13.1919 8.06602 13.0394 7.91357 12.8514 7.91357Z" fill="#5E5B50"/>
<path d="M17.114 6.11263C17.6651 6.23683 18.213 5.89213 18.3396 5.34152C18.3992 5.07682 18.3511 4.79922 18.2058 4.57006C18.0605 4.3409 17.8299 4.17896 17.5651 4.12004C17.0138 3.99584 16.4659 4.34074 16.3395 4.8915C16.2798 5.15621 16.3279 5.4338 16.4732 5.66297C16.6185 5.89213 16.8491 6.05406 17.114 6.11299V6.11263ZM17.004 5.04123C17.0361 4.90626 17.1458 4.80361 17.2826 4.78059C17.4194 4.75757 17.5566 4.81865 17.6311 4.93566C17.6794 5.01147 17.6952 5.10343 17.675 5.191C17.6432 5.32616 17.5335 5.4291 17.3965 5.45216C17.2596 5.47522 17.1222 5.41386 17.0479 5.29656C17 5.22068 16.9842 5.1288 17.004 5.04123Z" fill="#5E5B50"/>
<path d="M7.74469 8.59428H8.42559C8.61362 8.59428 8.76602 8.44184 8.76602 8.25385C8.76602 8.06582 8.61358 7.91342 8.42559 7.91342H8.08516V7.23252C8.08516 7.04449 7.93272 6.89209 7.74473 6.89209C7.55674 6.89209 7.4043 7.04453 7.4043 7.23252V8.25385C7.40426 8.44184 7.5567 8.59428 7.74469 8.59428Z" fill="#5E5B50"/>
</svg>
