<svg width="40" height="40" viewBox="0 0 40 40" fill="none" xmlns="http://www.w3.org/2000/svg">
<path d="M9.71387 2H36.2853C37.2321 2 37.9996 2.76751 37.9996 3.71429V30.2857" stroke="#2C7AC1" stroke-width="2.5" stroke-linecap="round"/>
<path d="M30.2861 38H3.7147C2.76793 38 2.00042 37.2325 2.00042 36.2857V9.71429" stroke="#597DFF" stroke-width="2.5" stroke-linecap="round"/>
<path d="M22.04 16.1157C21.7471 16.4086 21.7471 16.8834 22.04 17.1763C22.3329 17.4692 22.8077 17.4692 23.1006 17.1763L22.04 16.1157ZM32.8234 7.14289C32.8234 6.72868 32.4876 6.39289 32.0734 6.39289L25.3234 6.39289C24.9092 6.39289 24.5734 6.72868 24.5734 7.14289C24.5734 7.5571 24.9092 7.89289 25.3234 7.89289H31.3234V13.8929C31.3234 14.3071 31.6592 14.6429 32.0734 14.6429C32.4876 14.6429 32.8234 14.3071 32.8234 13.8929L32.8234 7.14289ZM23.1006 17.1763L32.6037 7.67322L31.5431 6.61256L22.04 16.1157L23.1006 17.1763Z" fill="#FFC38C"/>
<path d="M18.462 23.1016C18.7549 22.8087 18.7549 22.3339 18.462 22.041C18.1691 21.7481 17.6942 21.7481 17.4013 22.041L18.462 23.1016ZM7.67853 32.0744C7.67853 32.4886 8.01432 32.8244 8.42853 32.8244L15.1785 32.8244C15.5927 32.8244 15.9285 32.4886 15.9285 32.0744C15.9285 31.6602 15.5927 31.3244 15.1785 31.3244H9.17853V25.3244C9.17853 24.9102 8.84275 24.5744 8.42853 24.5744C8.01432 24.5744 7.67853 24.9102 7.67853 25.3244L7.67853 32.0744ZM17.4013 22.041L7.8982 31.5441L8.95886 32.6047L18.462 23.1016L17.4013 22.041Z" fill="#FC8575"/>
</svg>
