<svg width="24" height="24" viewBox="0 0 24 24" fill="none" xmlns="http://www.w3.org/2000/svg">
<g clip-path="url(#clip0_5224_29946)">
<path d="M5.1422 10.123L2.83984 16.2642V16.2647C3.40325 18.5155 4.64161 20.5052 6.39463 22.0061L9.28336 20.9229C6.21506 18.1747 4.70062 14.1324 5.1422 10.123Z" fill="#282723"/>
<path d="M2.06082 18.3428L0.296079 23.0483C0.0851543 23.6103 0.634965 24.1662 1.20118 23.9534L4.92424 22.5575C3.67547 21.3455 2.70676 19.9011 2.06082 18.3428Z" fill="#282723"/>
<path d="M10.0774 9.55015L7.45306 6.92578C5.32525 11.7256 6.77993 17.2117 10.7946 20.3561L13.5957 19.3057C11.1356 16.7652 9.80506 13.2192 10.0774 9.55015Z" fill="#282723"/>
<path d="M11.4531 10.9233C11.5609 13.9068 12.8602 16.7261 15.0585 18.758H15.059L17.112 17.9884C17.5915 17.8084 17.7227 17.193 17.3623 16.8325L11.4531 10.9233Z" fill="#282723"/>
<path d="M16.5849 13.132C16.8594 13.4066 17.3046 13.4066 17.5792 13.132C20.2242 10.4869 22.7998 11.3047 22.8256 11.3132C23.1939 11.436 23.5921 11.2369 23.7149 10.8685C23.8378 10.5003 23.6386 10.102 23.2702 9.97919C23.1316 9.93302 19.8377 8.88487 16.5849 12.1377C16.3103 12.4122 16.3102 12.8575 16.5849 13.132Z" fill="#282723"/>
<path d="M12.1105 7.66311C15.3634 4.41065 14.3149 1.11647 14.2689 0.977731C14.1461 0.609316 13.7477 0.410578 13.3793 0.533383C13.0113 0.656188 12.8121 1.05413 12.9349 1.42255C12.9434 1.44833 13.7613 4.02395 11.1158 6.66895C10.843 6.94179 10.8402 7.38666 11.1158 7.66311C11.3919 7.93909 11.8366 7.93694 12.1105 7.66311Z" fill="#282723"/>
<path d="M13.6044 9.15477C13.3298 9.42934 13.3298 9.87449 13.6044 10.1491C13.8764 10.4212 14.3185 10.4247 14.5945 10.1532C14.9577 9.97226 16.0851 10.6511 16.7116 10.0248C17.3314 9.40492 16.6729 8.30047 16.8374 7.9134C17.225 7.74851 18.329 8.40734 18.9488 7.7876C19.5687 7.16776 18.9102 6.06331 19.0746 5.6762C19.4628 5.51125 20.5662 6.17018 21.186 5.55039C21.8059 4.93055 21.1474 3.8261 21.3118 3.43899C21.6977 3.27489 22.8039 3.93232 23.4233 3.31314C24.0495 2.68678 23.372 1.5574 23.5517 1.19606C23.8221 0.921202 23.8207 0.479151 23.5475 0.205933C23.273 -0.0686443 22.8278 -0.0686443 22.5532 0.205933C21.999 0.760102 22.1074 1.54245 22.2118 2.10177C21.6525 1.99739 20.8702 1.88897 20.316 2.44309C19.7619 2.99726 19.8703 3.77961 19.9747 4.33893C19.4153 4.2346 18.633 4.12609 18.0788 4.6803C17.5247 5.23447 17.6331 6.01682 17.7375 6.57614C17.1781 6.47176 16.3958 6.36329 15.8417 6.91746C15.2875 7.47163 15.3959 8.25398 15.5003 8.8133C14.9409 8.70901 14.1585 8.6006 13.6044 9.15477Z" fill="#282723"/>
<path d="M17.5791 3.189C17.8537 2.91442 17.8537 2.46928 17.5791 2.1947C17.3046 1.92013 16.8594 1.92013 16.5848 2.1947C16.3103 2.46928 16.3103 2.91442 16.5848 3.189C16.8594 3.46358 17.3046 3.46358 17.5791 3.189Z" fill="#282723"/>
<path d="M22.0546 8.36661C22.4429 8.36661 22.7577 8.05183 22.7577 7.66353C22.7577 7.27523 22.4429 6.96045 22.0546 6.96045C21.6663 6.96045 21.3516 7.27523 21.3516 7.66353C21.3516 8.05183 21.6663 8.36661 22.0546 8.36661Z" fill="#282723"/>
<path d="M20.5653 14.1263C20.2907 14.4009 20.2907 14.8461 20.5653 15.1206C20.8399 15.3952 21.285 15.3952 21.5596 15.1206C21.8342 14.8461 21.8342 14.4009 21.5596 14.1263C21.2851 13.8518 20.8399 13.8518 20.5653 14.1263Z" fill="#282723"/>
<path d="M10.6221 4.18314C10.8967 3.90857 10.8967 3.46342 10.6221 3.18884C10.3475 2.91427 9.90238 2.91427 9.62781 3.18884C9.35323 3.46337 9.35323 3.90857 9.62781 4.18314C9.90238 4.45772 10.3476 4.45772 10.6221 4.18314Z" fill="#282723"/>
</g>
<defs>
<clipPath id="clip0_5224_29946">
<rect width="24" height="24" fill="white"/>
</clipPath>
</defs>
</svg>
