<svg width="36" height="40" viewBox="0 0 36 40" fill="none" xmlns="http://www.w3.org/2000/svg">
<path d="M7.62075 11.0537L11.4475 7.22476C11.4365 7.19375 11.4254 7.16273 11.4165 7.12953C11.2793 6.61578 11.5848 6.08867 12.0964 5.9514C12.6101 5.81406 13.1372 6.1175 13.2745 6.63125C13.2878 6.68437 13.2966 6.73531 13.3033 6.78851L17.2872 8.11062C17.4068 7.97773 17.5663 7.87812 17.7501 7.82719C17.9538 7.77406 18.1619 7.78734 18.3436 7.8582L22.4826 3.71922C22.4715 3.6882 22.4605 3.65719 22.4516 3.62398C22.3143 3.11023 22.6199 2.58312 23.1315 2.44586C23.6452 2.30859 24.1723 2.61414 24.3096 3.1257C24.3361 3.22758 24.345 3.32726 24.3406 3.42687L28.1165 5.34914C28.2183 5.26719 28.3401 5.20297 28.4752 5.16758C28.679 5.11219 28.8849 5.12773 29.0687 5.19859L32.4615 1.80586L31.8303 1.8989C31.6154 1.92992 31.4184 1.78156 31.3874 1.5689C31.3564 1.35625 31.5025 1.15703 31.7174 1.12601L33.5134 0.862498C33.7283 0.831483 33.9253 0.979842 33.9563 1.1925C33.9629 1.23461 33.9629 1.27445 33.9563 1.31211L33.6928 3.10367C33.6618 3.31625 33.4647 3.46461 33.2499 3.4314C33.0373 3.40039 32.8911 3.20328 32.9222 2.9907L33.0129 2.35734L29.6202 5.75226C29.6335 5.78328 29.6423 5.8143 29.6512 5.8475C29.7885 6.36125 29.4851 6.88836 28.9714 7.02562C28.4598 7.16297 27.9328 6.85734 27.7954 6.34578C27.7689 6.2439 27.7578 6.14422 27.7622 6.04461L23.9864 4.12234C23.8845 4.2043 23.7649 4.26633 23.6298 4.3039C23.4261 4.35703 23.2201 4.34375 23.0363 4.27289L18.8972 8.41187C18.9083 8.44289 18.9193 8.4739 18.9283 8.50711C19.0655 9.02086 18.7622 9.54797 18.2484 9.68523C17.7347 9.8225 17.2076 9.51695 17.0703 9.00539C17.057 8.95226 17.0482 8.90133 17.0437 8.84812L13.0575 7.52601C12.9379 7.6589 12.7807 7.75851 12.5947 7.80945C12.3909 7.86258 12.185 7.84711 12.0011 7.77625L8.17216 11.6052C8.18544 11.6362 8.19653 11.6673 8.20536 11.7005C8.34263 12.2142 8.03708 12.7413 7.52552 12.8786C7.01177 13.0159 6.48466 12.7125 6.34739 12.1987C6.21013 11.685 6.51349 11.1579 7.02724 11.0206C7.23099 10.9675 7.43692 10.983 7.62075 11.0538V11.0537ZM12.9766 26.3231C12.9598 26.5737 13.1019 26.8623 13.3386 27.0584C14.5044 28.0237 15.5147 27.5306 16.7935 26.9058C17.6738 26.4758 18.6715 25.9883 19.8261 25.9815H19.8517C21.1306 25.9815 22.1147 26.5509 23.0667 27.1016L27.6572 29.752C27.6685 29.7584 27.6794 29.7655 27.69 29.7732C27.9356 29.9498 28.113 30.1219 28.2486 30.3146C28.2854 30.3669 28.3182 30.4208 28.3491 30.4753L32.1755 28.7049C32.0879 25.6121 30.8438 23.0259 28.4749 21.0143L27.5151 21.5481C26.0471 22.3646 24.477 22.5064 22.8488 21.9697C21.3693 21.4822 19.8208 21.762 18.1147 22.8257L13.3256 25.8116C13.1078 25.9475 12.9904 26.1196 12.9766 26.3234V26.3231ZM22.2211 16.7977H24.5014V6.84562H22.2211V16.7977ZM16.8592 16.7977H19.1395V11.6694H16.8592V16.7977ZM8.41583 14.6954H6.13552V16.7977H8.41583V14.6954ZM11.4974 16.7977H13.7777V10.103H11.4974V16.7977ZM27.5829 16.7977H29.8632V9.10633H27.5829V16.7977ZM32.9618 28.9221C32.9624 28.9873 32.9881 29.0344 33.0427 29.0701C33.0973 29.1059 33.1508 29.1106 33.2106 29.085L34.6386 28.4786C34.7875 28.4154 34.8793 28.303 34.9117 28.1447C35.5418 25.0612 34.0229 21.2647 31.3002 19.1172C31.2142 19.0494 31.1156 19.015 31.0154 19.015C30.9386 19.015 30.861 19.0352 30.7876 19.076L28.9664 20.089C28.9094 20.1205 28.8814 20.1635 28.8751 20.2281C28.8689 20.2927 28.8883 20.3403 28.9381 20.3822C31.5358 22.5692 32.9272 25.5223 32.9616 28.9221H32.9618ZM19.4561 35.9437C19.3808 35.6632 19.2022 35.4295 18.9531 35.2855C18.7044 35.142 18.4126 35.1045 18.1317 35.1796C17.8509 35.2548 17.6172 35.4331 17.4736 35.6817L16.4137 37.5175C16.1158 38.0347 16.2937 38.6979 16.8107 38.9964C17.3279 39.295 17.9918 39.1171 18.2904 38.5999L19.3496 36.7653C19.4935 36.5162 19.5312 36.2245 19.4561 35.9438V35.9437ZM10.6317 34.179L11.6913 32.3437C11.6913 32.3437 11.6913 32.3435 11.6913 32.3434C11.9897 31.8262 11.8118 31.1626 11.2947 30.864C10.7775 30.5653 10.1137 30.7432 9.81505 31.2605L8.75575 33.0951C8.61193 33.3442 8.57411 33.6359 8.64935 33.9166C8.7245 34.1971 8.90317 34.4309 9.15231 34.5748C9.40099 34.7184 9.69255 34.756 9.97364 34.6807C10.2543 34.6055 10.4878 34.4275 10.6314 34.1793L10.6316 34.1789L10.6317 34.179ZM21.1437 37.0103L20.4354 36.6014C20.3542 36.5545 20.2979 36.4822 20.2671 36.4009C20.2426 36.6641 20.1619 36.9209 20.0262 37.1559L19.4425 38.1669L19.9562 38.4557C20.4251 38.7264 20.8634 38.7691 21.1941 38.5782C21.4641 38.4223 21.6386 38.1164 21.6386 37.799C21.6386 37.4747 21.4628 37.1946 21.1437 37.0104V37.0103ZM16.7968 35.2914C16.9407 35.0423 16.9785 34.7505 16.9033 34.4698C16.8281 34.1893 16.6494 33.9555 16.4003 33.8116C16.1516 33.668 15.86 33.6305 15.579 33.7057C15.2984 33.7809 15.0648 33.9589 14.9212 34.207C14.921 34.2073 14.9208 34.2077 14.9206 34.2081L13.5027 36.6641C13.2057 37.181 13.3837 37.8435 13.9003 38.1418C14.1491 38.2854 14.4408 38.323 14.7217 38.2477C15.0027 38.1724 15.2365 37.994 15.3801 37.7453L15.6026 37.36L15.737 37.1272C15.7372 37.1268 15.7375 37.1264 15.7377 37.1259C15.7377 37.1259 15.7377 37.1259 15.7378 37.1258L16.7968 35.2915V35.2914ZM13.8475 32.3378C13.3307 32.0394 12.6675 32.2167 12.3686 32.733L11.2465 34.6765L10.6508 35.7084C10.5069 35.9577 10.4691 36.2494 10.5443 36.53C10.6195 36.8105 10.7982 37.0443 11.0473 37.1882C11.296 37.3319 11.5878 37.3695 11.8686 37.2941C12.1497 37.2188 12.3834 37.0404 12.527 36.7917L12.7557 36.3956L12.8272 36.2716C12.8272 36.2716 12.8272 36.2716 12.8272 36.2716L14.2443 33.817C14.5425 33.2998 14.3646 32.6364 13.8475 32.3379L13.8475 32.3378ZM3.82153 28.7823L7.51372 30.6856C7.55388 30.7063 7.59013 30.7338 7.62083 30.767L8.59364 31.8137L9.13857 30.8699C9.65255 29.9795 10.7951 29.6734 11.6855 30.1875C12.204 30.4869 12.5243 30.9995 12.6 31.5512C13.1157 31.3408 13.7197 31.362 14.2383 31.6613C14.7572 31.9609 15.0776 32.4741 15.1529 33.0262C15.2254 32.9969 15.3001 32.9718 15.3768 32.9512C15.8593 32.8219 16.3616 32.8873 16.791 33.1352C17.2209 33.3834 17.5288 33.7856 17.658 34.2678C17.6787 34.3449 17.6944 34.4226 17.7051 34.5004C17.7778 34.4709 17.8527 34.4457 17.9297 34.4252C18.4123 34.2959 18.9144 34.3612 19.3439 34.6091C19.7737 34.8573 20.0816 35.2595 20.2109 35.7416C20.244 35.865 20.2641 35.9897 20.2718 36.1141C20.2783 36.0985 20.284 36.0828 20.2926 36.0679C20.4004 35.8811 20.6393 35.8169 20.8262 35.9249L21.5344 36.3338L22.3747 36.8189C22.6068 36.953 22.8785 36.9882 23.14 36.9181C23.4015 36.8481 23.6193 36.6816 23.7533 36.4495C23.887 36.2178 23.9221 35.9461 23.8519 35.6843C23.7818 35.4226 23.6157 35.2048 23.3841 35.0711L21.5765 34.0275C21.3897 33.9196 21.3257 33.6808 21.4336 33.4939C21.5413 33.307 21.7803 33.243 21.9672 33.3509L23.7743 34.3944C23.7743 34.3944 23.7746 34.3945 23.7747 34.3945L24.2254 34.6548C24.7505 34.958 25.4247 34.7774 25.7279 34.2522C26.0311 33.727 25.8504 33.053 25.3253 32.7498C25.3253 32.7498 25.3253 32.7498 25.3251 32.7497L23.3979 31.637C23.2111 31.5291 23.1471 31.2903 23.255 31.1034C23.3627 30.9166 23.6017 30.8524 23.7886 30.9605L26.1668 32.3336C26.4197 32.4796 26.716 32.518 27.001 32.4417C27.2859 32.3654 27.5233 32.184 27.6693 31.931C27.881 31.5644 27.8583 31.1172 27.6098 30.7642C27.5285 30.6486 27.4136 30.5384 27.2493 30.4185L22.6757 27.778C21.7676 27.2527 20.9106 26.7575 19.8308 26.7629C18.8544 26.7687 17.9811 27.1953 17.1366 27.6079C15.7886 28.2663 14.3947 28.9473 12.8405 27.6602C12.4102 27.3037 12.1638 26.7715 12.1975 26.2709C12.2281 25.8155 12.482 25.417 12.9125 25.1486L16.8276 22.7076C15.6406 22.0508 14.5711 22.1434 13.3561 22.2487C11.8683 22.3777 10.1817 22.5241 8.00911 21.3022L7.51349 21.0234C5.13177 23.0505 3.89052 25.6601 3.82169 28.7826L3.82153 28.7823ZM1.087 28.1446C1.11935 28.303 1.2113 28.4153 1.36013 28.4785L2.7881 29.085C2.84833 29.1105 2.90161 29.1056 2.95614 29.07C3.0106 29.0344 3.0363 28.9873 3.03692 28.922C3.07138 25.5222 4.46271 22.5691 7.06044 20.3822C7.11021 20.3402 7.12958 20.2927 7.12341 20.228C7.11716 20.1634 7.08911 20.1205 7.03232 20.0889L5.21107 19.076C5.13771 19.0352 5.06005 19.015 4.98325 19.015C4.8831 19.015 4.78435 19.0494 4.69841 19.1172C1.97575 21.2647 0.456925 25.0612 1.087 28.1446Z" fill="white"/>
</svg>
