<svg width="20" height="20" viewBox="0 0 20 20" fill="none" xmlns="http://www.w3.org/2000/svg">
<path d="M17.9289 13.3094V13.8037L8.89114 19.0566L2.07227 15.1207L2.09491 6.19618L11.1326 0.943359L11.5666 1.19241L11.544 9.62261L17.9289 13.3094Z" fill="#DEDFFB"/>
<path d="M2.50781 14.8724L11.5442 9.62109L17.9286 13.3071L8.89221 18.5585L2.50781 14.8724Z" fill="#F3F1FC"/>
<path d="M8.89203 18.5599L17.9284 13.3086L17.927 13.806L8.89062 19.0574L8.89203 18.5599Z" fill="#E9E7FC"/>
<path d="M2.52861 6.44471L11.565 1.19336L11.5442 9.62182L2.50781 14.8732L2.52861 6.44471Z" fill="#E9E7FC"/>
<path d="M2.0957 6.19471L11.1321 0.943359L11.5649 1.19329L2.5286 6.44464L2.0957 6.19471Z" fill="#F3F1FC"/>
<path d="M2.52932 6.44525L2.50853 14.8737L8.89292 18.5597L8.89151 19.0572L2.07422 15.1212L2.09643 6.19531L2.52932 6.44525Z" fill="#DEDFFB"/>
<path d="M9.91016 14.3555L9.91079 14.578L10.0467 14.657L10.0461 14.4345L9.91016 14.3555Z" fill="#1D2943"/>
<path d="M8.77539 13.9196C8.79635 13.9074 8.82577 13.9093 8.85814 13.928C8.9225 13.9648 8.97398 14.0545 8.97398 14.1288C8.97362 14.1652 8.96074 14.191 8.94015 14.2031L9.04386 14.1428C9.06445 14.1307 9.07733 14.1049 9.07733 14.0685C9.07769 13.9942 9.02584 13.9045 8.96185 13.8677C8.92948 13.8489 8.90006 13.8471 8.8791 13.8592L8.77539 13.9196Z" fill="#C9CEE2"/>
<path d="M8.85903 13.9282C8.79446 13.8909 8.7424 13.9206 8.74219 13.9948C8.74198 14.0684 8.7937 14.158 8.85827 14.1953C8.92238 14.2323 8.97444 14.2027 8.97465 14.129C8.97486 14.0548 8.92313 13.9652 8.85903 13.9282Z" fill="#E3E7F0"/>
<path d="M8.89022 14.1403C8.90726 14.1403 8.91747 14.1259 8.91753 14.1019C8.91765 14.0603 8.88843 14.0096 8.85239 13.9887C8.84301 13.9833 8.83395 13.9805 8.82616 13.9805C8.80912 13.9805 8.7989 13.9949 8.79883 14.0192C8.79872 14.0605 8.82807 14.1112 8.86426 14.1321C8.87352 14.1375 8.8825 14.1403 8.89022 14.1403Z" fill="#9EA9C9"/>
<path d="M8.72656 13.7656L8.72719 13.9882L9.96814 14.7094L9.96751 14.4868L8.72656 13.7656Z" fill="#1D2943"/>
<path d="M9.9668 14.4872L9.96743 14.7098L10.1043 14.6308L10.1036 14.4082L9.9668 14.4872Z" fill="#111D33"/>
<path d="M8.72656 13.7665L9.96751 14.4877L10.1044 14.4087L8.86341 13.6875L8.72656 13.7665Z" fill="#4C5C75"/>
<path d="M9.66945 14.1155C9.48511 14.2219 9.48525 14.3944 9.66949 14.5014C9.85263 14.6079 10.1493 14.6079 10.3336 14.5014C10.5191 14.3944 10.5211 14.2219 10.338 14.1155C10.1538 14.0084 9.8549 14.0084 9.66945 14.1155Z" fill="#E3E7F0"/>
<path d="M9.91016 14.3555L9.91079 14.578L10.0467 14.657L10.0461 14.4345L9.91016 14.3555Z" fill="#1D2943"/>
<path d="M8.77539 13.9196C8.79635 13.9074 8.82577 13.9093 8.85814 13.928C8.9225 13.9648 8.97398 14.0545 8.97398 14.1288C8.97362 14.1652 8.96074 14.191 8.94015 14.2031L9.04386 14.1428C9.06445 14.1307 9.07733 14.1049 9.07733 14.0685C9.07769 13.9942 9.02584 13.9045 8.96185 13.8677C8.92948 13.8489 8.90006 13.8471 8.8791 13.8592L8.77539 13.9196Z" fill="#C9CEE2"/>
<path d="M8.85903 13.9282C8.79446 13.8909 8.7424 13.9206 8.74219 13.9948C8.74198 14.0684 8.7937 14.158 8.85827 14.1953C8.92238 14.2323 8.97444 14.2027 8.97465 14.129C8.97486 14.0548 8.92313 13.9652 8.85903 13.9282Z" fill="#E3E7F0"/>
<path d="M8.89022 14.1403C8.90726 14.1403 8.91747 14.1259 8.91753 14.1019C8.91765 14.0603 8.88843 14.0096 8.85239 13.9887C8.84301 13.9833 8.83395 13.9805 8.82616 13.9805C8.80912 13.9805 8.7989 13.9949 8.79883 14.0192C8.79872 14.0605 8.82807 14.1112 8.86426 14.1321C8.87352 14.1375 8.8825 14.1403 8.89022 14.1403Z" fill="#9EA9C9"/>
<path d="M8.72656 13.7656L8.72719 13.9882L9.96814 14.7094L9.96751 14.4868L8.72656 13.7656Z" fill="#1D2943"/>
<path d="M9.9668 14.4872L9.96743 14.7098L10.1043 14.6308L10.1036 14.4082L9.9668 14.4872Z" fill="#111D33"/>
<path d="M8.72656 13.7665L9.96751 14.4877L10.1044 14.4087L8.86341 13.6875L8.72656 13.7665Z" fill="#4C5C75"/>
<path d="M9.66945 14.1155C9.48511 14.2219 9.48525 14.3944 9.66949 14.5014C9.85263 14.6079 10.1493 14.6079 10.3336 14.5014C10.5191 14.3944 10.5211 14.2219 10.338 14.1155C10.1538 14.0084 9.8549 14.0084 9.66945 14.1155Z" fill="#E3E7F0"/>
<path d="M9.91016 14.3555L9.91079 14.578L10.0467 14.657L10.0461 14.4345L9.91016 14.3555Z" fill="#1D2943"/>
<path d="M8.77539 13.9196C8.79635 13.9074 8.82577 13.9093 8.85814 13.928C8.9225 13.9648 8.97398 14.0545 8.97398 14.1288C8.97362 14.1652 8.96074 14.191 8.94015 14.2031L9.04386 14.1428C9.06445 14.1307 9.07733 14.1049 9.07733 14.0685C9.07769 13.9942 9.02584 13.9045 8.96185 13.8677C8.92948 13.8489 8.90006 13.8471 8.8791 13.8592L8.77539 13.9196Z" fill="#C9CEE2"/>
<path d="M8.85903 13.9282C8.79446 13.8909 8.7424 13.9206 8.74219 13.9948C8.74198 14.0684 8.7937 14.158 8.85827 14.1953C8.92238 14.2323 8.97444 14.2027 8.97465 14.129C8.97486 14.0548 8.92313 13.9652 8.85903 13.9282Z" fill="#E3E7F0"/>
<path d="M8.89022 14.1403C8.90726 14.1403 8.91747 14.1259 8.91753 14.1019C8.91765 14.0603 8.88843 14.0096 8.85239 13.9887C8.84301 13.9833 8.83395 13.9805 8.82616 13.9805C8.80912 13.9805 8.7989 13.9949 8.79883 14.0192C8.79872 14.0605 8.82807 14.1112 8.86426 14.1321C8.87352 14.1375 8.8825 14.1403 8.89022 14.1403Z" fill="#9EA9C9"/>
<path d="M8.72656 13.7656L8.72719 13.9882L9.96814 14.7094L9.96751 14.4868L8.72656 13.7656Z" fill="#1D2943"/>
<path d="M9.9668 14.4872L9.96743 14.7098L10.1043 14.6308L10.1036 14.4082L9.9668 14.4872Z" fill="#111D33"/>
<path d="M8.72656 13.7665L9.96751 14.4877L10.1044 14.4087L8.86341 13.6875L8.72656 13.7665Z" fill="#4C5C75"/>
<path d="M9.91016 14.3555L9.91079 14.578L10.0467 14.657L10.0461 14.4345L9.91016 14.3555Z" fill="#1D2943"/>
<path d="M11.2148 14.0406C11.2148 14.1161 11.1619 14.2029 11.0978 14.2407C11.0638 14.2595 11.0374 14.2633 11.0147 14.2482L10.9129 14.1916C10.8902 14.1765 10.8789 14.1501 10.8789 14.1161C10.8789 14.0406 10.928 13.9501 10.9921 13.9161C11.0261 13.8973 11.0563 13.8935 11.0751 13.9048L11.177 13.9652C11.1997 13.9765 11.2148 14.0029 11.2148 14.0406Z" fill="#9EA9C9"/>
<path d="M8.96289 13.8668C9.02703 13.9046 9.07987 13.9951 9.07609 14.0668C9.07609 14.1046 9.06476 14.131 9.04589 14.1423L8.94022 14.2027C8.91758 14.2178 8.89119 14.214 8.85721 14.1951C8.79307 14.1574 8.74023 14.0668 8.74023 13.9951C8.74401 13.9574 8.75532 13.931 8.77421 13.9197C8.77796 13.9197 8.77796 13.9197 8.78174 13.9159L8.87986 13.8593C8.9025 13.848 8.92891 13.848 8.96289 13.8668Z" fill="#9EA9C9"/>
<path d="M11.1808 13.9664C11.1599 13.9543 11.1305 13.9561 11.0981 13.9749C11.0337 14.0117 10.9823 14.1014 10.9823 14.1757C10.9826 14.2121 10.9955 14.2378 11.0161 14.25L10.9124 14.1897C10.8918 14.1775 10.8789 14.1518 10.8789 14.1154C10.8785 14.0411 10.9304 13.9514 10.9944 13.9146C11.0268 13.8958 11.0562 13.894 11.0771 13.9061L11.1808 13.9664Z" fill="#C9CEE2"/>
<path d="M11.098 13.9751C11.1626 13.9378 11.2147 13.9675 11.2149 14.0417C11.2151 14.1153 11.1634 14.2049 11.0988 14.2422C11.0347 14.2792 10.9826 14.2495 10.9824 14.1759C10.9822 14.1017 11.0339 14.0121 11.098 13.9751Z" fill="#E3E7F0"/>
<path d="M11.0664 14.1872C11.0493 14.1872 11.0391 14.1728 11.0391 14.1487C11.0389 14.1072 11.0682 14.0564 11.1042 14.0356C11.1136 14.0302 11.1226 14.0273 11.1304 14.0273C11.1475 14.0273 11.1577 14.0418 11.1578 14.066C11.1579 14.1074 11.1285 14.1581 11.0923 14.179C11.0831 14.1844 11.0741 14.1872 11.0664 14.1872Z" fill="#9EA9C9"/>
<path d="M8.77539 13.9196C8.79635 13.9074 8.82577 13.9093 8.85814 13.928C8.9225 13.9648 8.97398 14.0545 8.97398 14.1288C8.97362 14.1652 8.96074 14.191 8.94015 14.2031L9.04386 14.1428C9.06445 14.1307 9.07733 14.1049 9.07733 14.0685C9.07769 13.9942 9.02584 13.9045 8.96185 13.8677C8.92948 13.8489 8.90006 13.8471 8.8791 13.8592L8.77539 13.9196Z" fill="#C9CEE2"/>
<path d="M8.85903 13.9282C8.79446 13.8909 8.7424 13.9206 8.74219 13.9948C8.74198 14.0684 8.7937 14.158 8.85827 14.1953C8.92238 14.2323 8.97444 14.2027 8.97465 14.129C8.97486 14.0548 8.92313 13.9652 8.85903 13.9282Z" fill="#E3E7F0"/>
<path d="M8.89022 14.1403C8.90726 14.1403 8.91747 14.1259 8.91753 14.1019C8.91765 14.0603 8.88843 14.0096 8.85239 13.9887C8.84301 13.9833 8.83395 13.9805 8.82616 13.9805C8.80912 13.9805 8.7989 13.9949 8.79883 14.0192C8.79872 14.0605 8.82807 14.1112 8.86426 14.1321C8.87352 14.1375 8.8825 14.1403 8.89022 14.1403Z" fill="#9EA9C9"/>
<path d="M9.9668 14.4872L9.96743 14.7098L10.1043 14.6308L10.1036 14.4082L9.9668 14.4872Z" fill="#111D33"/>
<path d="M11.2153 13.7609V13.9835L10.0455 14.6552V14.4439L9.96626 14.4892L9.97004 14.7118L8.72852 13.9873V13.7646L8.86438 13.6854L9.95871 14.3231L11.0795 13.6816L11.2153 13.7609Z" fill="#111D33"/>
<path d="M10.0469 14.4337L10.0475 14.6562L11.2148 13.9823L11.2141 13.7598L10.0469 14.4337Z" fill="#111D33"/>
<path d="M9.91016 14.3556L10.0461 14.4346L11.2134 13.7606L11.0774 13.6816L9.91016 14.3556Z" fill="#4C5C75"/>
<path d="M8.72656 13.7676L8.72719 13.9901L9.96814 14.7113L9.96751 14.4887L8.72656 13.7676Z" fill="#1D2943"/>
<path d="M8.72656 13.7665L9.96751 14.4877L10.1044 14.4087L8.86341 13.6875L8.72656 13.7665Z" fill="#4C5C75"/>
<path d="M10.2446 11.2746L10.2403 14.342C10.2402 14.3771 10.2171 14.4121 10.1709 14.4389C10.078 14.493 9.92745 14.4931 9.83415 14.4392C9.78708 14.412 9.76357 14.3764 9.76367 14.3409L9.76799 11.2734C9.76789 11.309 9.7914 11.3446 9.83847 11.3718C9.93177 11.4257 10.0823 11.4255 10.1753 11.3715C10.2214 11.3447 10.2445 11.3097 10.2446 11.2746Z" fill="#9EA9C9"/>
<mask id="mask0_5627_45374" style="mask-type:luminance" maskUnits="userSpaceOnUse" x="7" y="10" width="6" height="4">
<path d="M9.40806 13.187L12.3654 11.4683C12.049 11.1982 11.721 10.9651 11.3835 10.7702C10.9924 10.5445 10.5885 10.3699 10.1742 10.248L7.2168 11.9667C7.63109 12.0885 8.03505 12.2631 8.42614 12.4889C8.76368 12.6838 9.09164 12.9168 9.40806 13.187Z" fill="white"/>
</mask>
<g mask="url(#mask0_5627_45374)">
<path d="M10.1742 10.248C10.354 10.3009 10.5318 10.3637 10.7075 10.4363C10.9367 10.531 11.1621 10.6424 11.3835 10.7702C11.721 10.9651 12.049 11.1982 12.3654 11.4683L9.40805 13.187C9.09164 12.9168 8.76367 12.6838 8.42614 12.4889C8.20477 12.3611 7.97928 12.2497 7.75013 12.155C7.57443 12.0824 7.39658 12.0196 7.2168 11.9667L10.1742 10.248Z" fill="#4C5C75"/>
</g>
<mask id="mask1_5627_45374" style="mask-type:luminance" maskUnits="userSpaceOnUse" x="7" y="10" width="6" height="4">
<path d="M9.40806 13.187L12.3654 11.4683C12.049 11.1982 11.721 10.9651 11.3835 10.7702C10.9924 10.5445 10.5885 10.3699 10.1742 10.248L7.2168 11.9667C7.63109 12.0885 8.03505 12.2631 8.42614 12.4889C8.76368 12.6838 9.09164 12.9168 9.40806 13.187Z" fill="white"/>
</mask>
<g mask="url(#mask1_5627_45374)">
<path d="M10.1742 10.248C10.354 10.3009 10.5318 10.3637 10.7075 10.4363C10.9367 10.531 11.1621 10.6424 11.3835 10.7702C11.721 10.9651 12.049 11.1982 12.3654 11.4683L9.40805 13.187C9.09164 12.9168 8.76367 12.6838 8.42614 12.4889C8.20477 12.3611 7.97928 12.2497 7.75013 12.155C7.57443 12.0824 7.39658 12.0196 7.2168 11.9667L10.1742 10.248Z" fill="#4C5C75"/>
</g>
<mask id="mask2_5627_45374" style="mask-type:luminance" maskUnits="userSpaceOnUse" x="7" y="10" width="6" height="4">
<path d="M9.40806 13.187L12.3654 11.4683C12.049 11.1982 11.721 10.9651 11.3835 10.7702C10.9924 10.5445 10.5885 10.3699 10.1742 10.248L7.2168 11.9667C7.63109 12.0885 8.03505 12.2631 8.42614 12.4889C8.76368 12.6838 9.09164 12.9168 9.40806 13.187Z" fill="white"/>
</mask>
<g mask="url(#mask2_5627_45374)">
<path d="M10.1742 10.248C10.354 10.3009 10.5318 10.3637 10.7075 10.4363C10.9367 10.531 11.1621 10.6424 11.3835 10.7702C11.721 10.9651 12.049 11.1982 12.3654 11.4683L9.40805 13.187C9.09164 12.9168 8.76367 12.6838 8.42614 12.4889C8.20477 12.3611 7.97928 12.2497 7.75013 12.155C7.57443 12.0824 7.39658 12.0196 7.2168 11.9667L10.1742 10.248Z" fill="#7E5AF2"/>
</g>
<path d="M10.4746 14.3068V14.654C10.4746 14.7257 10.4294 14.7937 10.335 14.8502C10.1501 14.9559 9.852 14.9559 9.67087 14.8502C9.58031 14.7937 9.53125 14.7257 9.53125 14.6578V14.3068C9.53125 14.2352 9.58031 14.1672 9.67087 14.1144C9.85577 14.0087 10.1539 14.0087 10.3388 14.1144C10.4331 14.1672 10.4784 14.2389 10.4746 14.3068Z" fill="#C9CEE2"/>
<path d="M9.6714 14.1155C9.48706 14.2219 9.4872 14.3944 9.67144 14.5014C9.85459 14.6079 10.1512 14.6079 10.3356 14.5014C10.521 14.3944 10.5231 14.2219 10.34 14.1155C10.1557 14.0084 9.85685 14.0084 9.6714 14.1155Z" fill="#E3E7F0"/>
<path d="M10.2446 11.2746L10.2403 14.342C10.2402 14.3771 10.2171 14.4121 10.1709 14.4389C10.078 14.493 9.92745 14.4931 9.83415 14.4392C9.78708 14.412 9.76357 14.3764 9.76367 14.3409L9.76799 11.2734C9.76789 11.309 9.7914 11.3446 9.83847 11.3718C9.93177 11.4257 10.0823 11.4255 10.1753 11.3715C10.2214 11.3447 10.2445 11.3097 10.2446 11.2746Z" fill="#9EA9C9"/>
<path d="M9.5332 14.3093L9.5332 14.6575C9.5334 14.7272 9.57949 14.7969 9.67144 14.8503C9.85459 14.9568 10.1512 14.9568 10.3356 14.8504C10.4293 14.7962 10.4762 14.7254 10.476 14.6548L10.476 14.3066C10.4762 14.3772 10.4293 14.448 10.3356 14.5021C10.1512 14.6086 9.85459 14.6086 9.67144 14.5021C9.5795 14.4487 9.5334 14.379 9.5332 14.3093Z" fill="#C9CEE2"/>
<path d="M8.89178 15.3551C8.87082 15.343 8.8414 15.3448 8.80903 15.3636C8.74468 15.4003 8.69319 15.4901 8.69319 15.5644C8.69356 15.6008 8.70643 15.6265 8.72702 15.6387L8.62331 15.5783C8.60272 15.5662 8.58985 15.5405 8.58985 15.504C8.58948 15.4298 8.64133 15.34 8.70532 15.3032C8.73769 15.2845 8.76711 15.2827 8.78807 15.2948L8.89178 15.3551Z" fill="#C9CEE2"/>
<path d="M8.80897 15.3637C8.87355 15.3265 8.92561 15.3561 8.92582 15.4303C8.92603 15.504 8.8743 15.5936 8.80973 15.6309C8.74563 15.6679 8.69357 15.6382 8.69336 15.5645C8.69315 15.4903 8.74487 15.4008 8.80897 15.3637Z" fill="#E3E7F0"/>
<path d="M8.77731 15.5758C8.76027 15.5758 8.75006 15.5615 8.75 15.5374C8.74988 15.4959 8.77911 15.4451 8.81514 15.4243C8.82452 15.4189 8.83358 15.416 8.84137 15.416C8.85841 15.416 8.86863 15.4305 8.8687 15.4547C8.86881 15.4961 8.83947 15.5468 8.80327 15.5677C8.79402 15.573 8.78504 15.5758 8.77731 15.5758Z" fill="#9EA9C9"/>
<path d="M8.61133 15.1602L8.61196 15.3827L8.74791 15.4617L8.74728 15.2392L8.61133 15.1602Z" fill="#1D2943"/>
<path d="M8.74805 15.2383L8.74868 15.4608L9.80072 14.8534L9.80009 14.6309L8.74805 15.2383Z" fill="#111D33"/>
<path d="M8.89178 15.3551C8.87082 15.343 8.8414 15.3448 8.80903 15.3636C8.74468 15.4003 8.69319 15.4901 8.69319 15.5644C8.69356 15.6008 8.70643 15.6265 8.72702 15.6387L8.62331 15.5783C8.60272 15.5662 8.58985 15.5405 8.58985 15.504C8.58948 15.4298 8.64133 15.34 8.70532 15.3032C8.73769 15.2845 8.76711 15.2827 8.78807 15.2948L8.89178 15.3551Z" fill="#C9CEE2"/>
<path d="M8.80897 15.3637C8.87355 15.3265 8.92561 15.3561 8.92582 15.4303C8.92603 15.504 8.8743 15.5936 8.80973 15.6309C8.74563 15.6679 8.69357 15.6382 8.69336 15.5645C8.69315 15.4903 8.74487 15.4008 8.80897 15.3637Z" fill="#E3E7F0"/>
<path d="M8.77731 15.5758C8.76027 15.5758 8.75006 15.5615 8.75 15.5374C8.74988 15.4959 8.77911 15.4451 8.81514 15.4243C8.82452 15.4189 8.83358 15.416 8.84137 15.416C8.85841 15.416 8.86863 15.4305 8.8687 15.4547C8.86881 15.4961 8.83947 15.5468 8.80327 15.5677C8.79402 15.573 8.78504 15.5758 8.77731 15.5758Z" fill="#9EA9C9"/>
<path d="M8.61133 15.1602L8.61196 15.3827L8.74791 15.4617L8.74728 15.2392L8.61133 15.1602Z" fill="#1D2943"/>
<path d="M8.74805 15.2383L8.74868 15.4608L9.80072 14.8534L9.80009 14.6309L8.74805 15.2383Z" fill="#111D33"/>
<path d="M8.77731 15.5778C8.76027 15.5778 8.75006 15.5634 8.75 15.5394C8.74988 15.4978 8.77911 15.4471 8.81514 15.4262C8.82452 15.4208 8.83358 15.418 8.84137 15.418C8.85841 15.418 8.86863 15.4324 8.8687 15.4567C8.86881 15.498 8.83947 15.5487 8.80327 15.5696C8.79402 15.575 8.78504 15.5778 8.77731 15.5778Z" fill="#9EA9C9"/>
<path d="M8.88797 15.3539C8.91061 15.3652 8.9257 15.3916 8.9257 15.4293C8.9257 15.5048 8.87286 15.5916 8.80872 15.6293C8.77477 15.6482 8.74835 15.652 8.72571 15.6407L8.62382 15.5803C8.60118 15.5652 8.58984 15.5425 8.58984 15.5048C8.58984 15.4293 8.64268 15.3387 8.70682 15.3048C8.73702 15.2859 8.76721 15.2822 8.78608 15.2935L8.88797 15.3539Z" fill="#9EA9C9"/>
<path d="M11.4277 15.5048C11.4277 15.5425 11.4163 15.5652 11.3937 15.5803L11.2918 15.6407C11.2692 15.652 11.2427 15.6482 11.2088 15.6293C11.1446 15.5916 11.0918 15.5048 11.0918 15.4293C11.0918 15.3916 11.1069 15.3652 11.1295 15.3539L11.2314 15.2935C11.2503 15.2822 11.2805 15.2859 11.3107 15.3048C11.3748 15.3387 11.4277 15.4293 11.4277 15.5048Z" fill="#9EA9C9"/>
<path d="M8.89178 15.3571C8.87082 15.3449 8.8414 15.3468 8.80903 15.3655C8.74468 15.4023 8.69319 15.492 8.69319 15.5663C8.69356 15.6027 8.70643 15.6285 8.72702 15.6406L8.62331 15.5803C8.60272 15.5682 8.58985 15.5424 8.58985 15.506C8.58948 15.4317 8.64133 15.342 8.70532 15.3052C8.73769 15.2864 8.76711 15.2846 8.78807 15.2967L8.89178 15.3571Z" fill="#C9CEE2"/>
<path d="M8.80897 15.3637C8.87355 15.3265 8.92561 15.3561 8.92582 15.4303C8.92603 15.504 8.8743 15.5936 8.80973 15.6309C8.74563 15.6679 8.69357 15.6382 8.69336 15.5645C8.69315 15.4903 8.74487 15.4008 8.80897 15.3637Z" fill="#E3E7F0"/>
<path d="M8.77731 15.5778C8.76027 15.5778 8.75006 15.5634 8.75 15.5394C8.74988 15.4978 8.77911 15.4471 8.81514 15.4262C8.82452 15.4208 8.83358 15.418 8.84137 15.418C8.85841 15.418 8.86863 15.4324 8.8687 15.4567C8.86881 15.498 8.83947 15.5487 8.80327 15.5696C8.79402 15.575 8.78504 15.5778 8.77731 15.5778Z" fill="#9EA9C9"/>
<path d="M11.125 15.3571C11.146 15.3449 11.1754 15.3468 11.2077 15.3655C11.2721 15.4023 11.3236 15.492 11.3236 15.5663C11.3232 15.6027 11.3104 15.6285 11.2898 15.6406L11.3935 15.5803C11.4141 15.5682 11.4269 15.5424 11.4269 15.506C11.4273 15.4317 11.3754 15.342 11.3115 15.3052C11.2791 15.2864 11.2497 15.2846 11.2287 15.2967L11.125 15.3571Z" fill="#C9CEE2"/>
<path d="M11.2086 15.3657C11.1441 15.3284 11.092 15.3581 11.0918 15.4323C11.0916 15.5059 11.1433 15.5955 11.2079 15.6328C11.272 15.6698 11.324 15.6402 11.3243 15.5665C11.3245 15.4923 11.2727 15.4027 11.2086 15.3657Z" fill="#E3E7F0"/>
<path d="M11.2398 15.5778C11.2569 15.5778 11.2671 15.5634 11.2671 15.5394C11.2673 15.4978 11.238 15.4471 11.202 15.4262C11.1926 15.4208 11.1836 15.418 11.1758 15.418C11.1587 15.418 11.1485 15.4324 11.1484 15.4567C11.1483 15.498 11.1777 15.5487 11.2139 15.5696C11.2231 15.575 11.2321 15.5778 11.2398 15.5778Z" fill="#9EA9C9"/>
<path d="M11.2598 15.2392L11.2604 15.4617L11.3972 15.3827L11.3966 15.1602L11.2598 15.2392Z" fill="#111D33"/>
<path d="M11.2598 15.2392L11.2604 15.4617L11.3972 15.3827L11.3966 15.1602L11.2598 15.2392Z" fill="#111D33"/>
<path d="M11.2598 15.2392L11.2604 15.4617L11.3972 15.3827L11.3966 15.1602L11.2598 15.2392Z" fill="#111D33"/>
<path d="M11.396 15.1583V15.381L11.2601 15.4602L10.2148 14.8527V14.63L10.3507 14.5508L11.396 15.1583Z" fill="#111D33"/>
<path d="M9.66417 14.5547L9.80002 14.6339V14.8566L8.74719 15.4603L8.61133 15.3849V15.1622L9.66417 14.5547Z" fill="#111D33"/>
<path d="M8.61133 15.1601L8.74728 15.2391L9.79933 14.6317L9.66337 14.5527L8.61133 15.1601Z" fill="#4C5C75"/>
<path d="M8.61133 15.1602L8.61196 15.3827L8.74791 15.4617L8.74728 15.2392L8.61133 15.1602Z" fill="#1D2943"/>
<path d="M8.74805 15.2383L8.74868 15.4608L9.80072 14.8534L9.80009 14.6309L8.74805 15.2383Z" fill="#111D33"/>
<path d="M10.2148 14.6309L10.2155 14.8534L11.2607 15.4608L11.2601 15.2383L10.2148 14.6309Z" fill="#1D2943"/>
<path d="M10.2148 14.6317L11.2601 15.2391L11.3969 15.1601L10.3517 14.5527L10.2148 14.6317Z" fill="#4C5C75"/>
<path d="M11.2598 15.2392L11.2604 15.4617L11.3972 15.3827L11.3966 15.1602L11.2598 15.2392Z" fill="#111D33"/>
<path d="M9.32065 12.3911L9.31687 13.2892L9.13197 13.3949L9.01499 13.327V12.4326C9.01499 12.41 8.9999 12.3836 8.98104 12.3722L7.96972 11.7873V12.5081L7.7848 12.6175L7.66406 12.5496L7.66782 11.6553C7.66782 11.6024 7.6867 11.5684 7.7131 11.5571C7.71688 11.5571 7.71688 11.5534 7.72065 11.5534L7.89802 11.4477C7.92444 11.4326 7.96594 11.4326 8.00745 11.459L9.16594 12.127C9.25273 12.176 9.32065 12.2967 9.32065 12.3911Z" fill="#DEDFFB"/>
<path d="M6.03121 10.7949L6.01988 15.2327L5.69158 15.4213L5.36328 15.2327L5.37461 10.7949L5.70291 10.9836L6.03121 10.7949Z" fill="#B0B8CF"/>
<path d="M5.69549 13.6609L5.36719 13.4722L5.37474 10.793L5.70304 10.9816L6.03134 10.793L6.02379 13.4722L5.69549 13.6609Z" fill="#111D33"/>
<path d="M7.08047 15.7294L6.35595 16.1483L4.31445 14.9596V14.7823L5.03897 14.3672L7.07672 15.5521L7.08047 15.7294Z" fill="#111D33"/>
<path d="M6.02968 10.7956L5.70243 10.9858L5.37305 10.7956L5.7003 10.6055L6.02968 10.7956Z" fill="#989FB2"/>
<path d="M11.9844 7.33008L11.9769 11.7678L11.6486 11.9603L11.3203 11.7678L11.3278 7.33008L11.6599 7.52253L11.9844 7.33008Z" fill="#B0B8CF"/>
<path d="M6.02878 10.7949L6.01865 15.2317L5.69141 15.4219L5.70153 10.9851L6.02878 10.7949Z" fill="#E3E7F0"/>
<path d="M5.70279 10.9851L5.69267 15.4219L5.36328 15.2317L5.3734 10.7949L5.70279 10.9851Z" fill="#B0B8CF"/>
<path d="M11.9878 7.33203L11.9776 11.7688L11.6504 11.959L11.6605 7.52221L11.9878 7.33203Z" fill="#E3E7F0"/>
<path d="M11.6598 7.5222L11.6497 11.959L11.3203 11.7688L11.3304 7.33203L11.6598 7.5222Z" fill="#B0B8CF"/>
<path d="M11.6525 10.4564L11.3242 10.264L11.328 7.32812L11.6601 7.52058L11.9846 7.32812L11.9808 10.264L11.6525 10.4564Z" fill="#111D33"/>
<path d="M13.0338 12.0872V12.2646L12.313 12.6835L10.2715 11.4986V11.3212L10.996 10.9023L13.0338 12.0872Z" fill="#111D33"/>
<path d="M4.31445 14.7812L4.31496 14.9591L6.35456 16.1444L6.35406 15.9665L4.31445 14.7812Z" fill="#111D33"/>
<path d="M6.35352 15.9665L6.35402 16.1444L7.07751 15.7267L7.07701 15.5488L6.35352 15.9665Z" fill="#1D2943"/>
<path d="M4.31445 14.781L6.35406 15.9663L7.07755 15.5486L5.03794 14.3633L4.31445 14.781Z" fill="#4C5C75"/>
<path d="M6.02878 10.7949L6.01865 15.2317L5.69141 15.4219L5.70153 10.9851L6.02878 10.7949Z" fill="#E3E7F0"/>
<path d="M5.70279 10.9851L5.69267 15.4219L5.36328 15.2317L5.3734 10.7949L5.70279 10.9851Z" fill="#B0B8CF"/>
<path d="M6.02868 10.791L6.02256 13.4714L5.69531 13.6615L5.70143 10.9812L6.02868 10.791Z" fill="#4C5C75"/>
<path d="M5.70269 10.9812L5.69657 13.6615L5.36719 13.4714L5.3733 10.791L5.70269 10.9812Z" fill="#1D2943"/>
<path d="M10.2715 11.3184L10.272 11.4962L12.3116 12.6815L12.3111 12.5036L10.2715 11.3184Z" fill="#111D33"/>
<path d="M12.3105 12.5036L12.3111 12.6815L13.0345 12.2638L13.034 12.0859L12.3105 12.5036Z" fill="#1D2943"/>
<path d="M10.2715 11.3181L12.3111 12.5034L13.0346 12.0857L10.995 10.9004L10.2715 11.3181Z" fill="#4C5C75"/>
<path d="M11.9863 7.32812L11.9796 10.2634L11.6523 10.4536L11.659 7.5183L11.9863 7.32812Z" fill="#4C5C75"/>
<path d="M11.6603 7.5183L11.6536 10.4535L11.3242 10.2634L11.3309 7.32812L11.6603 7.5183Z" fill="#1D2943"/>
<path d="M11.9867 7.33275L11.6595 7.52293L11.3301 7.33275L11.6573 7.14258L11.9867 7.33275Z" fill="#989FB2"/>
<path d="M14.1703 8.13445V8.68915L7.1439 12.7722L3.18164 10.4816V9.9269L10.2043 5.84766L14.1703 8.13445Z" fill="#AA6256"/>
<path d="M14.1702 8.13672L14.1686 8.68982L7.14453 12.7718L7.1461 12.2187L14.1702 8.13672Z" fill="#BF7D5A"/>
<path d="M7.14587 12.2187L7.1443 12.7718L3.17969 10.4828L3.18126 9.92969L7.14587 12.2187Z" fill="#AA6256"/>
<path d="M14.1703 8.13663L7.14625 12.2186L3.18164 9.9296L10.2057 5.84766L14.1703 8.13663Z" fill="#DBA660"/>
<path d="M10.3008 7.16566L10.3011 7.28625C10.3014 7.37727 10.3612 7.46816 10.4807 7.5376C10.7213 7.67746 11.1128 7.67744 11.3549 7.53764C11.4768 7.46727 11.5377 7.37491 11.5374 7.28269L11.5371 7.16211C11.5373 7.25433 11.4765 7.34669 11.3546 7.41706C11.1124 7.55686 10.721 7.55688 10.4803 7.41702C10.3608 7.34758 10.301 7.25669 10.3008 7.16566Z" fill="#DF3260"/>
<path d="M10.4833 6.91154C10.2411 7.05133 10.2398 7.27806 10.4803 7.41786C10.721 7.55771 11.1124 7.55769 11.3546 7.4179C11.5968 7.27804 11.5981 7.05134 11.3574 6.91148C11.1168 6.77168 10.7255 6.77168 10.4833 6.91154Z" fill="#F45170"/>
<path d="M10.4707 7.20999L10.4708 7.26119C10.4709 7.28699 10.4878 7.31276 10.5217 7.33244C10.5899 7.37209 10.7009 7.37209 10.7695 7.33246C10.8041 7.31251 10.8213 7.28632 10.8213 7.26018L10.8212 7.20898C10.8212 7.23513 10.804 7.26131 10.7694 7.28126C10.7008 7.32089 10.5898 7.32089 10.5216 7.28125C10.4877 7.26156 10.4708 7.2358 10.4707 7.20999Z" fill="#E9E7FC"/>
<path d="M10.5224 7.13716C10.4538 7.17679 10.4534 7.24106 10.5216 7.28069C10.5898 7.32034 10.7008 7.32033 10.7694 7.2807C10.8381 7.24106 10.8385 7.17679 10.7702 7.13714C10.702 7.09751 10.5911 7.09751 10.5224 7.13716Z" fill="white"/>
<path d="M10.6699 4.63987C10.6794 4.65612 10.6943 4.66831 10.7125 4.67305C10.7315 4.67779 10.7505 4.67508 10.7667 4.6656L11.1168 4.4638C11.1446 4.44755 11.1703 4.44214 11.1825 4.45026C11.196 4.45703 11.2048 4.48141 11.2048 4.51256L11.2082 7.09876C11.2082 7.11231 11.2164 7.1245 11.2306 7.13262C11.2434 7.14007 11.2617 7.14413 11.2793 7.14413C11.2969 7.14413 11.3139 7.14007 11.3274 7.13262C11.3423 7.12382 11.3504 7.11163 11.3504 7.09944L11.3464 4.51256C11.3457 4.42792 11.3125 4.3602 11.2543 4.32702C11.1954 4.29316 11.1195 4.2979 11.0464 4.34056L10.6963 4.54236C10.6794 4.55184 10.6679 4.56741 10.6624 4.5857C10.6577 4.60398 10.6604 4.62362 10.6699 4.63987Z" fill="#1D2943"/>
<path d="M9.44727 4.96227L9.44762 5.25832C9.4478 5.31308 9.48379 5.36778 9.5557 5.40956C9.62804 5.45165 9.72308 5.47269 9.81825 5.47269C9.91336 5.47269 10.0087 5.45159 10.0815 5.40956L10.8183 4.98418C10.8916 4.9418 10.9283 4.88626 10.9281 4.83079L10.9277 4.53516C10.9277 4.59051 10.8911 4.64593 10.818 4.68813L10.0812 5.11351C10.0083 5.15554 9.913 5.17664 9.81789 5.17664C9.72272 5.17664 9.62768 5.1556 9.55528 5.11351C9.48343 5.07173 9.44744 5.01703 9.44727 4.96227Z" fill="#FFD06C"/>
<path d="M9.54213 4.80514C9.39288 4.8913 9.39213 5.03102 9.54037 5.11717C9.61453 5.16027 9.71188 5.18183 9.8094 5.18183C9.90683 5.18183 10.0045 5.16025 10.0791 5.11718L10.834 4.68134C10.9832 4.59517 10.984 4.45549 10.8357 4.3693C10.7616 4.32623 10.6643 4.30467 10.5668 4.30469C10.4693 4.30464 10.3716 4.32622 10.297 4.3693L9.54213 4.80514Z" fill="#F45170"/>
<path d="M10.9631 4.37289V4.59176C10.9631 4.64838 10.9253 4.70874 10.8461 4.75025L10.0763 5.19553C10.0008 5.24083 9.89892 5.26347 9.8008 5.26347C9.70268 5.26347 9.60079 5.24083 9.52534 5.19553C9.44986 5.15403 9.41211 5.09744 9.41211 5.03704V4.9012C9.41211 4.84459 9.44986 4.78422 9.52911 4.73894L9.89892 4.52762V4.44081L10.2989 4.21441C10.3744 4.16912 10.4725 4.14648 10.5744 4.14648C10.6725 4.14648 10.7744 4.16912 10.8499 4.21441C10.9253 4.25591 10.9631 4.3163 10.9631 4.37289Z" fill="#DF3260"/>
<path d="M9.41211 4.90009L9.41249 5.03777C9.41267 5.09508 9.45033 5.15232 9.52559 5.19604C9.60128 5.24008 9.70074 5.2621 9.80033 5.2621C9.89986 5.2621 9.99964 5.24002 10.0758 5.19604L10.8469 4.75089C10.9236 4.70654 10.9619 4.64843 10.9618 4.59037L10.9614 4.45312C10.9614 4.51105 10.923 4.56904 10.8465 4.61321L10.0755 5.05836C9.9992 5.10233 9.89948 5.12442 9.79996 5.12442C9.70037 5.12442 9.6009 5.1024 9.52515 5.05836C9.44996 5.01463 9.4123 4.95739 9.41211 4.90009Z" fill="#DF3260"/>
<path d="M9.52696 4.7397C9.37451 4.82771 9.37375 4.97043 9.52517 5.05842C9.60092 5.10244 9.70036 5.12447 9.79996 5.12447C9.89949 5.12447 9.99922 5.10242 10.0754 5.05843L10.8465 4.61324C10.999 4.52523 10.9998 4.38256 10.8483 4.29451C10.7726 4.25052 10.6731 4.22849 10.5736 4.22852C10.474 4.22847 10.3742 4.25051 10.298 4.29451L9.52696 4.7397Z" fill="#F45170"/>
<path d="M10.4492 4.76044L10.4496 4.84537L10.8484 4.6161C10.9251 4.57181 10.9634 4.51364 10.9632 4.45558L10.9628 4.37109C10.9628 4.42902 10.9245 4.48701 10.848 4.53118L10.4492 4.76044Z" fill="#DF3260"/>
<path d="M9.90039 4.44141L9.90078 4.52633L10.4492 4.84506L10.4489 4.76014L9.90039 4.44141Z" fill="#E93565"/>
<path d="M9.90039 4.44175L10.4489 4.76048L10.8476 4.53121C11.0001 4.44319 11.0009 4.30052 10.8494 4.21248C10.7738 4.16851 10.6743 4.14646 10.5747 4.14648C10.4751 4.14646 10.3754 4.16848 10.2992 4.21248L9.90039 4.44175Z" fill="#F45170"/>
<path d="M10.2184 4.86472C10.2536 4.86458 10.2821 4.84791 10.282 4.82749C10.2819 4.80706 10.2533 4.79062 10.2181 4.79076C10.1828 4.7909 10.1544 4.80757 10.1544 4.828C10.1545 4.84842 10.1831 4.86486 10.2184 4.86472Z" fill="#E93565"/>
<path d="M10.0426 4.96824C10.0778 4.9681 10.1063 4.95143 10.1062 4.931C10.1061 4.91058 10.0775 4.89414 10.0423 4.89428C10.0071 4.89442 9.97858 4.91109 9.97866 4.93151C9.97875 4.95194 10.0074 4.96838 10.0426 4.96824Z" fill="#E93565"/>
<path d="M9.66529 4.92294C9.64038 4.93732 9.64017 4.96069 9.66493 4.97507C9.68975 4.9895 9.7301 4.98946 9.75501 4.97507C9.78 4.96065 9.78013 4.93732 9.75531 4.92289C9.73055 4.90851 9.69028 4.90851 9.66529 4.92294Z" fill="#E93565"/>
<path d="M9.86453 4.62997C9.83957 4.64437 9.83941 4.66772 9.86416 4.6821C9.88899 4.69653 9.92929 4.69651 9.95424 4.6821C9.97923 4.66768 9.97937 4.64435 9.95454 4.62992C9.92978 4.61554 9.88952 4.61554 9.86453 4.62997Z" fill="#E93565"/>
<path d="M10.0169 4.71981C9.99192 4.73422 9.99175 4.75756 10.0165 4.77195C10.0413 4.78638 10.0816 4.78635 10.1066 4.77195C10.1316 4.75752 10.1317 4.7342 10.1069 4.71977C10.0821 4.70538 10.0419 4.70538 10.0169 4.71981Z" fill="#E93565"/>
<path d="M9.68873 4.73153C9.66382 4.74591 9.66361 4.76928 9.68836 4.78367C9.71319 4.79809 9.75353 4.79805 9.77845 4.78367C9.80344 4.76924 9.80357 4.74591 9.77874 4.73149C9.75399 4.7171 9.71372 4.7171 9.68873 4.73153Z" fill="#E93565"/>
<path d="M9.84108 4.82137C9.81616 4.83576 9.81596 4.85913 9.84071 4.87351C9.86554 4.88794 9.90588 4.8879 9.93079 4.87351C9.95578 4.85908 9.95591 4.83576 9.93109 4.82133C9.90633 4.80695 9.86607 4.80695 9.84108 4.82137Z" fill="#E93565"/>
<path d="M9.51295 4.83309C9.48804 4.84748 9.48783 4.87084 9.51258 4.88523C9.53741 4.89966 9.57775 4.89961 9.60267 4.88523C9.62766 4.8708 9.62779 4.84748 9.60296 4.83305C9.57821 4.81866 9.53794 4.81866 9.51295 4.83309Z" fill="#E93565"/>
<path d="M9.8668 5.0698C9.90202 5.06966 9.93051 5.05299 9.93043 5.03256C9.93035 5.01214 9.90173 4.9957 9.86651 4.99584C9.83129 4.99598 9.8028 5.01265 9.80288 5.03307C9.80296 5.0535 9.83158 5.06994 9.8668 5.0698Z" fill="#E93565"/>
<path d="M12.7733 10.5024C12.7846 10.5892 12.7922 10.6836 12.7922 10.7968C12.7922 11.0987 12.7394 11.2307 12.6941 11.3439C12.6488 11.4534 12.6111 11.5477 12.6073 11.7968V11.9892L9.65257 13.7062L9.4903 13.5628C9.15069 13.2534 8.7922 12.993 8.42615 12.7817C8.05257 12.5666 7.67143 12.4005 7.27521 12.2836L7.21484 11.9666C7.62993 12.0911 8.03371 12.2647 8.42615 12.4911C8.75445 12.6798 9.07522 12.9062 9.38465 13.1703C9.39219 13.1741 9.39974 13.1817 9.4073 13.1892C9.42238 13.0081 9.46389 12.9137 9.49786 12.8232C9.54314 12.7138 9.58087 12.6194 9.58087 12.3703C9.58464 12.1213 9.54692 11.9817 9.50164 11.8232C9.45635 11.6534 9.40352 11.4647 9.4073 11.1628C9.4073 10.8609 9.46011 10.7288 9.50539 10.6156C9.55069 10.5062 9.58842 10.4119 9.58842 10.1628C9.58842 9.91374 9.55069 9.7779 9.50917 9.61564C9.46389 9.4496 9.41105 9.25714 9.41105 8.95526L12.3696 7.23828L12.6224 7.38168C12.6224 7.4798 12.6262 7.55525 12.6375 7.62695C12.6413 7.67225 12.6488 7.71376 12.6563 7.75526C12.6714 7.81563 12.6865 7.87224 12.7016 7.93261C12.7205 7.993 12.7356 8.06092 12.7545 8.13262C12.762 8.18168 12.7733 8.23829 12.7809 8.29866C12.7922 8.38167 12.7997 8.47978 12.7997 8.58923C12.7997 8.89489 12.7469 9.02318 12.6979 9.13638C12.6563 9.24583 12.6148 9.34017 12.6148 9.58922C12.6148 9.68356 12.6186 9.76281 12.6299 9.83451C12.6299 9.85337 12.6337 9.86846 12.6375 9.88735C12.6526 9.95904 12.6828 10.0873 12.6941 10.1364C12.7129 10.2005 12.7318 10.2647 12.7469 10.3402C12.7582 10.3892 12.7658 10.4421 12.7733 10.5024Z" fill="#7E5AF2"/>
<path d="M10.1742 10.248C10.354 10.3009 10.5318 10.3637 10.7075 10.4363C10.9367 10.531 11.1621 10.6424 11.3835 10.7702C11.721 10.9651 12.049 11.1982 12.3654 11.4683L9.40805 13.187C9.09164 12.9168 8.76367 12.6838 8.42614 12.4889C8.20477 12.3611 7.97928 12.2497 7.75013 12.155C7.57443 12.0824 7.39658 12.0196 7.2168 11.9667L10.1742 10.248Z" fill="#986FF9"/>
<path d="M14.1703 8.13663L7.14625 12.2186L3.18164 9.9296L10.2057 5.84766L14.1703 8.13663Z" fill="#DBA660"/>
<path d="M9.41274 8.95508C9.41188 9.25733 9.46338 9.44684 9.50926 9.61442C9.55272 9.775 9.59054 9.9127 9.58983 10.1627C9.58913 10.4118 9.55064 10.5064 9.50642 10.6154C9.45975 10.7295 9.40734 10.859 9.40648 11.1613C9.40562 11.4635 9.45713 11.653 9.503 11.8206C9.54646 11.9812 9.58428 12.1198 9.58358 12.3689C9.58287 12.6189 9.54439 12.7135 9.50016 12.8225C9.46413 12.911 9.42401 13.0075 9.40806 13.187C9.09164 12.9169 8.76368 12.6838 8.42614 12.4889C8.03505 12.2631 7.63109 12.0886 7.2168 11.9667L7.27688 12.2836C7.67094 12.3997 8.05468 12.5654 8.42539 12.7794C8.79456 12.9926 9.15081 13.2536 9.49156 13.5613L9.65216 13.7064L9.6527 13.5142C9.65341 13.2651 9.6919 13.1705 9.73612 13.0615C9.78279 12.9464 9.8352 12.8169 9.83606 12.5147C9.83692 12.2124 9.78541 12.0229 9.73954 11.8553C9.69608 11.6948 9.65825 11.5571 9.65896 11.3071C9.65967 11.058 9.69815 10.9634 9.74237 10.8544C9.78905 10.7402 9.84146 10.6107 9.84231 10.3085C9.84317 10.0062 9.79167 9.81671 9.74579 9.64913C9.70233 9.48856 9.66451 9.34992 9.66522 9.10085L9.41274 8.95508Z" fill="#7E5AF2"/>
<path d="M9.3208 12.3957V13.29L9.13212 13.3995L9.01514 13.3278V12.4334C9.01514 12.4108 9.00006 12.3844 8.98117 12.373L7.97363 11.7919L7.96985 12.5127L7.78495 12.6183L7.66797 12.5504V11.6561C7.66797 11.607 7.68683 11.573 7.71325 11.558L7.89815 11.4485C7.92835 11.4334 7.96607 11.4372 8.0076 11.4598L9.16609 12.1278C9.25288 12.1768 9.3208 12.2976 9.3208 12.3957Z" fill="#DEDFFB"/>
<path d="M7.98174 11.5918C7.9748 11.5957 7.97094 11.6034 7.97094 11.615L7.96939 12.5099L7.7832 12.6183L7.78474 11.7226C7.78552 11.7118 7.78938 11.7041 7.79555 11.7002L7.98174 11.5918Z" fill="#E9E7FC"/>
<path d="M9.32076 12.3928L9.31876 13.2883L9.13293 13.3965L9.13426 12.501C9.13492 12.4038 9.06635 12.2846 8.9818 12.236L7.82207 11.5663C7.77947 11.5423 7.74085 11.5396 7.71289 11.5563L7.89872 11.4481C7.92668 11.4314 7.9653 11.4341 8.0079 11.4587L9.16764 12.1278C9.25218 12.177 9.32076 12.2956 9.32076 12.3928Z" fill="#F3F1FC"/>
<path d="M8.98127 12.2354C9.06586 12.2842 9.13449 12.4031 9.13421 12.5003L9.13246 13.3957L9.0143 13.3275L9.01605 12.4321C9.01611 12.4096 9.00044 12.3824 8.98088 12.3711L7.82133 11.7017C7.80178 11.6904 7.786 11.6994 7.78594 11.7218L7.78418 12.6172L7.66602 12.549L7.66777 11.6536C7.66804 11.5564 7.73713 11.5171 7.82171 11.5659L8.98127 12.2354Z" fill="#DEDFFB"/>
<path d="M14.1703 8.13663L7.14625 12.2186L3.18164 9.9296L10.2057 5.84766L14.1703 8.13663Z" fill="#DBA660"/>
<path d="M14.1702 8.13672L14.1686 8.68982L7.14453 12.7718L7.1461 12.2187L14.1702 8.13672Z" fill="#BF7D5A"/>
<path d="M9.65289 13.5148C9.6536 13.2657 9.69208 13.1711 9.7363 13.0621C9.78298 12.947 9.83539 12.8175 9.83624 12.5153C9.83656 12.4033 9.82969 12.3069 9.8186 12.2212C9.81089 12.1618 9.80115 12.1076 9.79035 12.0571C9.7747 11.9839 9.75682 11.9184 9.73972 11.8559C9.72353 11.7961 9.70814 11.7395 9.69521 11.6791C9.68665 11.639 9.67916 11.5972 9.67327 11.5518C9.66419 11.4817 9.65888 11.4028 9.65915 11.3077C9.65986 11.0586 9.69834 10.964 9.74256 10.855C9.78924 10.7408 9.84165 10.6113 9.8425 10.3091C9.84282 10.1971 9.83595 10.1006 9.82485 10.015C9.81715 9.95561 9.8074 9.90143 9.79661 9.85093C9.78096 9.77768 9.76308 9.71218 9.74598 9.64973C9.72985 9.59015 9.7145 9.53359 9.70161 9.47329C9.69299 9.43296 9.68547 9.39097 9.67955 9.34529C9.67046 9.27515 9.66513 9.19631 9.66541 9.10144L12.6228 7.38281C12.6225 7.47767 12.6278 7.55652 12.6369 7.62665C12.6428 7.67234 12.6504 7.71432 12.659 7.75465C12.6719 7.81495 12.6872 7.87151 12.7033 7.93109C12.7204 7.99354 12.7383 8.05904 12.754 8.13229C12.7648 8.18279 12.7745 8.23697 12.7822 8.29638C12.7933 8.382 12.8002 8.47849 12.7999 8.59043C12.799 8.89268 12.7466 9.0222 12.6999 9.13634C12.6557 9.24537 12.6172 9.33995 12.6165 9.58902C12.6162 9.68419 12.6216 9.76309 12.6307 9.83317C12.6365 9.87862 12.644 9.92036 12.6526 9.96042C12.6655 10.0209 12.6809 10.0775 12.6971 10.1373C12.7142 10.1998 12.7321 10.2653 12.7477 10.3385C12.7585 10.389 12.7683 10.4432 12.776 10.5026C12.7871 10.5882 12.7939 10.6847 12.7936 10.7966C12.7928 11.0989 12.7403 11.2284 12.6937 11.3435C12.6495 11.4525 12.611 11.5471 12.6103 11.7962L12.6097 11.9883L9.65234 13.707L9.65289 13.5148Z" fill="#986FF9"/>
<path d="M9.65289 13.5152C9.6536 13.2662 9.69208 13.1716 9.7363 13.0626C9.78298 12.9475 9.83539 12.818 9.83624 12.5157C9.83656 12.4038 9.82969 12.3073 9.8186 12.2217C9.81089 12.1623 9.80115 12.1081 9.79035 12.0576C9.7747 11.9843 9.75682 11.9188 9.73972 11.8564C9.72353 11.7966 9.70814 11.7399 9.69521 11.6795C9.68665 11.6394 9.67916 11.5977 9.67327 11.5523C9.66419 11.4822 12.6241 9.82003 12.6327 9.86009C12.6456 9.92053 12.6809 10.0779 12.6971 10.1377C12.7142 10.2002 12.7321 10.2657 12.7477 10.3389C12.7585 10.3894 12.7683 10.4436 12.776 10.503C12.7871 10.5887 12.7939 10.6851 12.7936 10.7971C12.7928 11.0993 12.7403 11.2288 12.6937 11.3439C12.6495 11.453 12.611 11.5475 12.6103 11.7966L12.6097 11.9888L9.65234 13.7074L9.65289 13.5152Z" fill="#B28AFD"/>
<path d="M9.66459 9.10073L12.622 7.3821L12.3695 7.23633L9.41211 8.95496L9.66459 9.10073Z" fill="#B28AFD"/>
<path d="M9.65935 11.3071C9.66005 11.058 9.69853 10.9634 9.74278 10.8544C9.78944 10.7403 9.84186 10.6107 9.84269 10.3085C9.84354 10.0062 9.79204 9.81671 9.74619 9.64913C9.70272 9.48857 9.66491 9.34994 9.6656 9.10087L9.41312 8.95508C9.41227 9.25735 9.46377 9.44684 9.50965 9.61442C9.55311 9.77502 9.59093 9.91271 9.59024 10.1627C9.5895 10.4118 9.55103 10.5064 9.50681 10.6154C9.46013 10.7295 9.40771 10.8591 9.40688 11.1613C9.40602 11.4636 9.45752 11.6531 9.5034 11.8206C9.54684 11.9812 9.58466 12.1199 9.58397 12.3689C9.58326 12.6189 9.54477 12.7135 9.50055 12.8225C9.46453 12.9111 9.4244 13.0075 9.40844 13.187C9.40068 13.1804 9.3926 13.1749 9.38477 13.1685V13.4012H9.45554V13.5142C9.46768 13.5242 9.48007 13.5332 9.49196 13.5439L9.65256 13.689L9.65309 13.5142C9.6538 13.2652 9.69227 13.1706 9.73651 13.0615C9.78318 12.9465 9.8356 12.8169 9.83645 12.5147C9.8373 12.2124 9.7858 12.0229 9.73992 11.8554C9.69646 11.6948 9.65864 11.5571 9.65935 11.3071Z" fill="#7E5AF2"/>
<path d="M9.17344 9.48047V9.49178C9.17344 9.49933 9.16966 9.51066 9.16211 9.51442C9.16966 9.50311 9.17344 9.49178 9.17344 9.48047Z" fill="#1D2943"/>
<path d="M9.17496 9.48047V9.49178C9.1757 9.48917 9.17356 9.48646 9.17386 9.48381C9.17393 9.4827 9.17496 9.48157 9.17496 9.48047Z" fill="#1D2943"/>
<path d="M9.1627 9.51356C9.17025 9.50981 9.17403 9.49848 9.17403 9.49092V9.71357C9.17403 9.73622 9.15892 9.75886 9.12873 9.77772L8.28345 10.2683C8.22308 10.306 8.12119 10.306 8.05704 10.2683L7.50231 9.95131C7.47214 9.93245 7.45703 9.90603 7.45703 9.88339V9.65321C7.45703 9.62679 7.47214 9.60415 7.50231 9.58526L8.34761 9.0947C8.41176 9.05697 8.50988 9.05697 8.57402 9.0947L9.12873 9.41547C9.16277 9.43249 9.17571 9.45861 9.17293 9.48295C9.17226 9.49316 9.16952 9.50336 9.1627 9.51356Z" fill="#1D2943"/>
<path d="M9.17344 9.48047V9.49178C9.17344 9.49933 9.16966 9.51066 9.16211 9.51442C9.16966 9.50311 9.17344 9.49178 9.17344 9.48047Z" fill="#1D2943"/>
<path d="M9.17469 9.48047L9.17474 9.71287C9.17474 9.73682 9.15958 9.75999 9.12924 9.77755L8.28221 10.2701C8.22073 10.306 8.11855 10.306 8.05627 10.2701L7.50223 9.94998C7.4703 9.93163 7.45512 9.90767 7.45512 9.88372L7.45508 9.65131C7.45508 9.67526 7.47024 9.69841 7.50218 9.71678L8.05623 10.0369C8.11849 10.0728 8.21988 10.0728 8.28215 10.0369L9.12839 9.54513C9.15952 9.52757 9.17469 9.50362 9.17469 9.48047Z" fill="#1D2943"/>
<path d="M9.12823 9.41362C9.19041 9.44953 9.19075 9.50838 9.12896 9.54429L8.28226 10.0363C8.22049 10.0722 8.11888 10.0722 8.05669 10.0363L7.50212 9.71615C7.43943 9.67995 7.43961 9.62139 7.50139 9.58549L8.34809 9.09344C8.40987 9.05754 8.51097 9.05725 8.57366 9.09344L9.12823 9.41362Z" fill="#4C5C75"/>
<path d="M8.59564 8.23565L8.59184 9.57465C8.59171 9.62071 8.56144 9.66664 8.50103 9.70176C8.37873 9.77282 8.18012 9.77315 8.05703 9.70208C7.99536 9.66648 7.96471 9.61991 7.96484 9.57338L7.96863 8.23438C7.9685 8.28091 7.99916 8.32748 8.06082 8.36308C8.18392 8.43414 8.38253 8.43382 8.50482 8.36276C8.56524 8.32764 8.59551 8.28171 8.59564 8.23565Z" fill="#F3F1FC"/>
<path d="M8.50295 8.10592C8.62603 8.17698 8.62668 8.29171 8.50494 8.36246C8.38265 8.43352 8.18404 8.43385 8.06094 8.36278C7.93785 8.29171 7.9383 8.17698 8.0606 8.10592C8.18235 8.03517 8.37986 8.03484 8.50295 8.10592Z" fill="#E9E7FC"/>
<path d="M9.70228 8.15806C9.70228 8.27126 9.62305 8.40711 9.52493 8.46372L7.0721 9.88259C7.00794 9.92032 6.95135 9.91277 6.92115 9.87126C6.92871 9.88259 6.93624 9.89012 6.94757 9.89768L6.67964 9.73919C6.64946 9.72409 6.62682 9.68258 6.62682 9.62599L6.62305 7.56561C6.62305 7.4524 6.70228 7.31278 6.80039 7.25617L9.25322 5.84107C9.30228 5.81088 9.34756 5.80713 9.37776 5.82599L9.63814 5.97692C9.67586 5.9958 9.6985 6.03731 9.6985 6.09768L9.70228 8.15806Z" fill="#111D33"/>
<path d="M6.625 7.56579C6.62437 7.45232 6.70443 7.31425 6.80278 7.25689L9.25288 5.83918C9.30268 5.81018 9.34745 5.80765 9.38022 5.82656L9.6469 5.98165C9.61411 5.96274 9.56936 5.96526 9.51955 5.99363L7.06945 7.41197C6.9711 7.4687 6.89104 7.6074 6.89167 7.72088L6.89545 9.78122C6.89608 9.83797 6.91563 9.87706 6.94778 9.89597L6.6811 9.74088C6.64895 9.72259 6.62941 9.68288 6.62941 9.62677L6.625 7.56579Z" fill="#4C5C75"/>
<path d="M9.51874 5.99517C9.61735 5.93823 9.69772 5.98402 9.69804 6.0978L9.70228 8.1582C9.70261 8.27151 9.62276 8.4098 9.52415 8.46673L7.07417 9.8848C6.97555 9.94174 6.89519 9.89594 6.89486 9.78263L6.89063 7.72223C6.8903 7.60845 6.97014 7.47016 7.06876 7.41322L9.51874 5.99517Z" fill="#111D33"/>
<path d="M8.29807 8.81339C8.34867 8.78417 8.38956 8.80746 8.38972 8.86561C8.38989 8.92376 8.34928 8.9941 8.29866 9.02331C8.24807 9.05253 8.20719 9.02924 8.20703 8.97109C8.20686 8.91294 8.24747 8.84259 8.29807 8.81339Z" fill="#1D2943"/>
<path d="M9.61468 7.88603L6.98114 9.41016L6.97852 7.72076C6.97765 7.63816 7.04113 7.52861 7.11242 7.48688L9.56252 6.06881C9.58251 6.05751 9.59468 6.05664 9.59902 6.05664C9.60425 6.05839 9.61121 6.06968 9.61121 6.09664L9.61468 7.88603Z" fill="white"/>
<path d="M9.70241 7.92773V8.15792C9.70241 8.27112 9.62318 8.40696 9.52506 8.46358L7.07223 9.88245C7.02317 9.91262 6.97789 9.91262 6.9477 9.89376L6.67977 9.74283C6.64959 9.72394 6.62695 9.68244 6.62695 9.62585V9.39942L6.89486 9.55415L9.70241 7.92773Z" fill="#9EA9C9"/>
<path d="M9.70241 7.92969V8.15701C9.70274 8.27032 9.62289 8.4086 9.52428 8.46554L7.0743 9.88361C6.97568 9.94054 6.89532 9.89475 6.89499 9.78144L6.89453 9.5533L9.70241 7.92969Z" fill="#C9CEE2"/>
<path d="M6.89507 9.77903L6.89533 9.55346L6.62891 9.39844L6.62939 9.6253C6.62793 9.68186 6.65051 9.72351 6.68244 9.74167L6.94704 9.89554C6.91511 9.87675 6.8957 9.83537 6.89507 9.77903Z" fill="#9EA9C9"/>
<path d="M6.47249 10.0537V10.1292L6.4574 10.1405V10.1895L6.16683 10.3594L5.59324 10.7895L5.4989 10.748L5.43853 10.782L4.98192 10.5178L4.02344 10.0876V10.0159L4.06494 9.982L4.03852 9.96689V9.89141L4.67248 9.52539L4.68004 9.52161L4.89891 9.35557L4.93664 9.37068L5.0574 9.30273L5.94796 9.81971L5.95173 9.82349L6.47249 10.0537Z" fill="#DEDFFB"/>
<path d="M4.02148 10.0156L4.02169 10.0898L5.5947 10.7898L5.59449 10.7156L4.02148 10.0156Z" fill="#DEDFFB"/>
<path d="M5.59375 10.7139L5.59396 10.7881L6.47206 10.127L6.47185 10.0527L5.59375 10.7139Z" fill="#E9E7FC"/>
<path d="M4.89958 9.35352L4.02148 10.0147L5.59449 10.7147L6.47259 10.0535L4.89958 9.35352Z" fill="#F3F1FC"/>
<path d="M5.81445 9.76172V10.549L6.47163 10.0542L5.81445 9.76172Z" fill="#DADCF2"/>
<path d="M5.28287 9.79367V9.8107H5.9264L4.899 9.35352L4.31445 9.79367H5.28287Z" fill="#E9E7FC"/>
<path d="M4.11133 10.0048L4.9062 9.40625L6.38405 10.0639L5.58917 10.6624L4.11133 10.0048Z" fill="white"/>
<path d="M4.03711 9.89062L4.03732 9.96485L5.43759 10.7786L5.43738 10.7044L4.03711 9.89062Z" fill="#E9E7FC"/>
<path d="M5.4375 10.7061L5.43771 10.7803L6.45765 10.1914L6.45744 10.1172L5.4375 10.7061Z" fill="#DEDFFB"/>
<path d="M4.03711 9.8916L5.43738 10.7053L6.45733 10.1165L5.05705 9.30273L4.03711 9.8916Z" fill="#F3F1FC"/>
<path d="M4.10156 9.89341L5.43744 10.6697L6.39286 10.1181L5.05698 9.3418L4.10156 9.89341Z" fill="white"/>
<path d="M5.07227 10.0916L5.23813 10.1766L5.35801 10.0987L5.19215 10.0137L5.07227 10.0916Z" fill="#FEBC1F"/>
<path d="M5.04297 9.83765L5.44309 10.0429L5.56297 9.96498L5.16285 9.75977L5.04297 9.83765Z" fill="#78E75A"/>
<path d="M5.37305 9.76734L5.64962 9.90918L5.7695 9.8313L5.49293 9.68945L5.37305 9.76734Z" fill="#57B3FE"/>
<path d="M4.66797 10.1248L5.03075 10.3108L5.15063 10.2329L4.78785 10.0469L4.66797 10.1248Z" fill="#B28AFD"/>
<path d="M4.73994 9.85547C4.72762 9.86348 4.72025 9.87295 4.71776 9.88256C4.71468 9.89441 4.719 9.90646 4.73057 9.91626C4.73411 9.91926 4.73831 9.92204 4.74319 9.92454C4.77702 9.94189 4.83038 9.93922 4.86253 9.91834C4.89445 9.8976 4.89288 9.86662 4.85905 9.84927C4.85571 9.84756 4.85219 9.84605 4.84851 9.84473C4.82722 9.83708 4.80087 9.83593 4.77711 9.84087C4.76337 9.84373 4.75049 9.84862 4.73994 9.85547Z" fill="#57B3FE"/>
<path d="M4.49023 9.9036C4.49186 9.90898 4.49192 9.91455 4.49038 9.92006C4.52326 9.92006 4.55613 9.91991 4.58897 9.91925C4.62706 9.91903 4.66512 9.91812 4.70306 9.91715C4.71258 9.91696 4.7221 9.91675 4.73163 9.91651C4.72006 9.90671 4.71574 9.89466 4.71881 9.88281C4.71309 9.88329 4.70736 9.88376 4.70164 9.88425C4.66367 9.88721 4.6256 9.89038 4.58779 9.89408C4.55516 9.89691 4.52272 9.90024 4.49023 9.9036Z" fill="#DEDFFB"/>
<path d="M4.74381 9.6094C4.71166 9.63028 4.71335 9.66118 4.74706 9.67847C4.754 9.68203 4.76175 9.68475 4.76996 9.68664C4.79305 9.69197 4.81978 9.69076 4.84249 9.68341C4.8512 9.68059 4.85931 9.67687 4.8664 9.67226C4.87517 9.66656 4.88143 9.66009 4.88519 9.65333C4.89213 9.64087 4.89057 9.62745 4.88057 9.61619C4.87627 9.61135 4.87043 9.60692 4.86303 9.60312C4.82932 9.58584 4.77573 9.58866 4.74381 9.6094Z" fill="#FEBC1F"/>
<path d="M5.17746 9.58595C5.16644 9.59311 5.15938 9.60144 5.15622 9.60999C5.15383 9.61646 5.15367 9.62306 5.15572 9.62937C5.15885 9.63906 5.16717 9.64809 5.18058 9.65496C5.21453 9.67238 5.26789 9.66971 5.30004 9.64882C5.33196 9.62808 5.33039 9.5971 5.29644 9.57969C5.26273 9.56241 5.20938 9.56521 5.17746 9.58595Z" fill="#F45170"/>
<path d="M4.88086 9.61481C4.89086 9.62607 4.89243 9.63949 4.88548 9.65195C4.90131 9.65084 4.91713 9.64968 4.93296 9.64841C4.97551 9.64487 5.01797 9.64181 5.06062 9.63779C5.09251 9.63495 5.1244 9.63196 5.15628 9.62876C5.15424 9.62244 5.15439 9.61585 5.15678 9.60938C5.12428 9.60953 5.0918 9.6099 5.05933 9.61043C5.01652 9.6109 4.97399 9.61231 4.93131 9.61326C4.91448 9.61368 4.89767 9.61422 4.88086 9.61481Z" fill="#DEDFFB"/>
<path d="M4.77267 9.76957C4.77379 9.79097 4.77504 9.81243 4.77687 9.8338C4.77705 9.83675 4.77727 9.8397 4.7775 9.84265C4.80127 9.83771 4.82762 9.83886 4.84891 9.84651C4.84888 9.84101 4.8488 9.83551 4.84863 9.83002C4.84822 9.80859 4.84757 9.78716 4.84668 9.76575C4.84547 9.73834 4.84406 9.71094 4.84206 9.68359C4.81936 9.69095 4.79262 9.69215 4.76953 9.68683C4.77013 9.71447 4.7713 9.74205 4.77267 9.76957Z" fill="#DEDFFB"/>
<path d="M4.34538 9.88481C4.31334 9.90562 4.31479 9.93654 4.34862 9.95389C4.38245 9.97124 4.43592 9.96849 4.46796 9.94768C4.47994 9.9399 4.48722 9.93066 4.48985 9.92124C4.49139 9.91573 4.49133 9.91016 4.4897 9.90478C4.48669 9.89485 4.4783 9.88557 4.46459 9.87854C4.43077 9.86119 4.3773 9.86407 4.34538 9.88481Z" fill="#F45170"/>
<path d="M5.16016 10.4071L5.18671 10.4207L5.66025 10.1131L5.63349 10.0996L5.16016 10.4071Z" fill="#DEDFFB"/>
<path d="M5.33984 10.4997L5.3664 10.5133L5.90712 10.1621L5.88056 10.1484L5.33984 10.4997Z" fill="#DEDFFB"/>
<path d="M5.25 10.4535L5.27655 10.4671L5.54774 10.291L5.52119 10.2773L5.25 10.4535Z" fill="#DEDFFB"/>
<path d="M5.42969 10.5453L5.45624 10.5589L5.72743 10.3828L5.70088 10.3691L5.42969 10.5453Z" fill="#DEDFFB"/>
<path d="M5.07031 10.3611L5.09687 10.3747L5.63759 10.0234L5.61103 10.0098L5.07031 10.3611Z" fill="#DEDFFB"/>
<path d="M9.12118 6.72266L9.29274 6.89598L9.18664 6.95724L9.1889 7.75309L9.05953 7.82778L9.05727 7.03193L8.95117 7.09319L9.12118 6.72266Z" fill="#F45170"/>
<path d="M8.69345 7.14844L8.865 7.32177L8.75891 7.38302L8.76066 8.00166L8.63129 8.07636L8.62954 7.45771L8.52344 7.51897L8.69345 7.14844Z" fill="#78E75A"/>
<path d="M8.26416 7.59961L8.43532 7.77362L8.32922 7.83487L8.33039 8.24821L8.20102 8.3229L8.19985 7.90957L8.09375 7.97082L8.26416 7.59961Z" fill="#DBA660"/>
<path d="M9.49281 7.70425L9.29043 7.66493L9.29077 7.79014L8.02875 8.51844L8.02587 7.38608V7.3836L8.13308 7.32169L7.99676 7.16797L7.86133 7.47858L7.97269 7.4143L7.97557 8.60257V8.61031L9.29096 7.85177L9.2913 7.97674L9.49281 7.70425Z" fill="#4C5C75"/>
<path d="M7.67756 7.4043V7.5119L7.09961 7.84778V7.74017L7.67756 7.4043Z" fill="#DEDFFB"/>
<path d="M7.81236 7.57617V7.68377L7.09961 8.09799V7.99038L7.81236 7.57617Z" fill="#DEDFFB"/>
<path d="M7.67756 7.90234V8.00994L7.09961 8.34583V8.23822L7.67756 7.90234Z" fill="#DEDFFB"/>
<path d="M7.81236 8.07422V8.18182L7.09961 8.59604V8.48843L7.81236 8.07422Z" fill="#DEDFFB"/>
<path d="M7.67756 8.40234V8.50994L7.09961 8.84583V8.73822L7.67756 8.40234Z" fill="#DEDFFB"/>
<path d="M7.81236 8.57227V8.67987L7.09961 9.09408V8.98647L7.81236 8.57227Z" fill="#DEDFFB"/>
</svg>
