<svg width="20" height="20" viewBox="0 0 20 20" fill="none" xmlns="http://www.w3.org/2000/svg">
<path opacity="0.4" d="M14.3328 20H5.66618C2.2769 20 0 17.6229 0 14.0843V5.91672C0 2.37811 2.2769 0 5.66618 0H14.3338C17.7231 0 20 2.37811 20 5.91672V14.0843C20 17.6229 17.7231 20 14.3328 20Z" fill="#282723"/>
<path fill-rule="evenodd" clip-rule="evenodd" d="M9.2451 6.67496C9.2451 8.04497 8.1301 9.15997 6.7601 9.15997C5.3891 9.15997 4.2751 8.04497 4.2751 6.67496C4.2751 5.30496 5.3891 4.18896 6.7601 4.18896C8.1301 4.18896 9.2451 5.30496 9.2451 6.67496ZM17.4005 12.0876C17.6335 12.3136 17.8005 12.5716 17.9105 12.8466C18.2435 13.6786 18.0705 14.6786 17.7145 15.5026C17.2925 16.4836 16.4845 17.2246 15.4665 17.5486C15.0145 17.6936 14.5405 17.7556 14.0675 17.7556H5.6865C4.8525 17.7556 4.1145 17.5616 3.5095 17.1976C3.1305 16.9696 3.0635 16.4446 3.3445 16.1026C3.8145 15.5326 4.2785 14.9606 4.7465 14.3836C5.6385 13.2796 6.2395 12.9596 6.9075 13.2406C7.1785 13.3566 7.4505 13.5316 7.7305 13.7156C8.4765 14.2096 9.5135 14.8876 10.8795 14.1516C11.8132 13.641 12.3552 12.7673 12.827 12.0069L12.8365 11.9916C12.8682 11.9407 12.8997 11.8898 12.9311 11.8391C13.0915 11.5799 13.2495 11.3246 13.4285 11.0896C13.6505 10.7986 14.4745 9.88857 15.5395 10.5366C16.2185 10.9446 16.7895 11.4966 17.4005 12.0876Z" fill="#282723"/>
</svg>
