<svg width="20" height="20" viewBox="0 0 20 20" fill="none" xmlns="http://www.w3.org/2000/svg">
<path d="M9.15039 9.42845L10.9633 8.37488L10.9698 5.83008L9.15686 6.88365L9.15039 9.42845Z" fill="#FEBC1F"/>
<path d="M9.1582 6.51084L10.9712 5.45727L10.9767 3.5L9.16375 4.55357L9.1582 6.51084Z" fill="#FEBC1F"/>
<path d="M9.16406 4.17835L10.977 3.12478L10.9816 1.50586L9.16865 2.55943L9.16406 4.17835Z" fill="#FEBC1F"/>
<path d="M15.8587 10.3791L17.6717 9.32557L10.9712 5.45703L9.1582 6.5106L15.8587 10.3791Z" fill="#FFD06C"/>
<path d="M15.8646 8.04711L17.6775 6.99354L10.977 3.125L9.16406 4.17857L15.8646 8.04711Z" fill="#FFD06C"/>
<path d="M16.177 13.485L15.8508 13.2968L15.8573 10.752L9.15681 6.88342L9.15034 9.42822L8.82422 9.23994L8.84401 1.99609L16.1968 6.2412L16.177 13.485ZM9.15787 6.51004L15.8584 10.3786L15.8639 8.42131L9.16342 4.55277L9.15787 6.51004ZM9.16448 4.17804L15.865 8.04658L15.8696 6.42765L9.16907 2.55912L9.16448 4.17804Z" fill="#F9A83D"/>
<path d="M5.05648 12.1093C5.04137 11.9395 4.92061 11.747 4.78099 11.664L3.2678 10.7923C3.19233 10.747 3.12063 10.7432 3.07157 10.7734L2.89798 10.8753C2.8942 10.8791 2.8942 10.8791 2.8942 10.8791C2.84892 10.9055 2.81875 10.9508 2.81119 11.0187L2.62251 13.2602C2.61496 13.347 2.6376 13.4527 2.69043 13.5508C2.74327 13.6527 2.81875 13.7357 2.89798 13.781L4.77724 14.864C4.85647 14.913 4.93194 14.9168 4.98478 14.8791L5.15835 14.781C5.16213 14.7772 5.16213 14.7734 5.1659 14.7734C5.22252 14.7357 5.24516 14.6602 5.2376 14.5621L5.05648 12.1093ZM3.08288 13.4149C3.06024 13.4036 3.04893 13.3847 3.04137 13.3734C3.0376 13.3621 3.02629 13.3395 3.03006 13.3168L3.20364 11.2263L4.59987 12.03C4.62628 12.0451 4.64892 12.0828 4.6527 12.113L4.81874 14.4187L3.08288 13.4149Z" fill="#111D33"/>
<path d="M4.99091 14.507L4.81539 14.6095C4.80899 14.6134 4.79618 14.6159 4.77824 14.6057L2.9013 13.5218C2.88081 13.509 2.86799 13.4898 2.86159 13.4795C2.85647 13.4667 2.8475 13.4462 2.85006 13.4244L3.03711 11.1827C3.03839 11.1699 3.04352 11.161 3.05248 11.1558L3.23313 11.0508C3.22416 11.0559 3.21904 11.0649 3.21776 11.0777L3.0307 13.3194C3.02814 13.3412 3.03711 13.3617 3.04224 13.3745C3.04864 13.3847 3.06145 13.4039 3.08196 13.4167L4.95889 14.5006C4.97298 14.5083 4.98323 14.5083 4.99091 14.507Z" fill="#1D2943"/>
<path d="M5.05603 14.6681C5.06559 14.765 5.03997 14.8425 4.98661 14.8804C4.93325 14.9183 4.85706 14.9139 4.7769 14.8676L2.8996 13.7837C2.82026 13.7379 2.74348 13.654 2.69051 13.5547C2.63754 13.4545 2.61325 13.3491 2.62333 13.2636L2.81063 11.0219C2.82826 10.8711 2.94804 10.8178 3.08955 10.8995L4.60119 11.7723C4.74189 11.8535 4.86097 12.0447 4.8777 12.2153L5.05603 14.6681ZM4.81696 14.6092C4.82271 14.605 4.83257 14.5937 4.83018 14.5688L4.65184 12.1169C4.64947 12.0854 4.62663 12.0487 4.60045 12.0336L3.08881 11.1608C3.06182 11.1453 3.03966 11.156 3.0363 11.1842L2.84901 13.425C2.84648 13.4471 2.85543 13.4682 2.86114 13.48C2.86685 13.4908 2.8799 13.5106 2.90034 13.5224L4.77764 14.6063C4.79809 14.6181 4.81121 14.6134 4.81696 14.6092Z" fill="#111D33"/>
<path d="M5.16728 14.7755C5.16344 14.7768 5.16088 14.7794 5.15704 14.782L4.98664 14.8806C5.04045 14.8422 5.06607 14.764 5.05582 14.6679L4.87774 12.2148C4.86109 12.0444 4.74193 11.8536 4.601 11.7716L3.08921 10.8991C3.01233 10.8542 2.94187 10.8504 2.89062 10.8798L3.07127 10.7748C3.12252 10.7453 3.19298 10.7492 3.26985 10.794L4.78165 11.6665C4.92258 11.7485 5.04173 11.9394 5.05839 12.1098L5.23647 14.5629C5.24672 14.6602 5.2211 14.7371 5.16728 14.7755Z" fill="#4C5C75"/>
<path d="M8.80732 12.2883L8.6318 12.3908C8.6254 12.3946 8.61259 12.3972 8.59465 12.3869L6.71771 11.3031C6.69721 11.2902 6.6844 11.271 6.67799 11.2608C6.67287 11.248 6.6639 11.2275 6.66647 11.2057L6.85351 8.96399C6.8548 8.95118 6.85993 8.94221 6.86889 8.93709L7.04954 8.83203C7.04057 8.83715 7.03545 8.84612 7.03417 8.85893L6.84711 11.1006C6.84455 11.1224 6.85351 11.1429 6.85864 11.1557C6.86505 11.166 6.87786 11.1852 6.89836 11.198L8.77529 12.2819C8.78939 12.2896 8.79963 12.2896 8.80732 12.2883Z" fill="#1D2943"/>
<path d="M8.87244 12.4494C8.88199 12.5462 8.85638 12.6237 8.80302 12.6616C8.74965 12.6995 8.67347 12.6951 8.5933 12.6488L6.71601 11.565C6.63667 11.5192 6.55989 11.4353 6.50692 11.336C6.45394 11.2357 6.42966 11.1304 6.43974 11.0449L6.62704 8.80314C6.64467 8.65232 6.76445 8.59909 6.90596 8.68079L8.4176 9.55354C8.5583 9.63477 8.67738 9.82591 8.69411 9.99656L8.87244 12.4494ZM8.63336 12.3905C8.63911 12.3862 8.64898 12.375 8.64659 12.3501L8.46825 9.89817C8.46588 9.86667 8.44304 9.82995 8.41686 9.81484L6.90522 8.94209C6.87822 8.9265 6.85606 8.93724 6.85271 8.96543L6.66542 11.2062C6.66289 11.2283 6.67184 11.2495 6.67755 11.2613C6.68325 11.2721 6.6963 11.2919 6.71675 11.3037L8.59405 12.3875C8.61449 12.3993 8.62762 12.3947 8.63336 12.3905Z" fill="#111D33"/>
<path d="M8.98369 12.5568C8.97985 12.5581 8.97729 12.5606 8.97345 12.5632L8.80305 12.6618C8.85685 12.6234 8.88248 12.5453 8.87223 12.4492L8.69414 9.9961C8.67749 9.8257 8.55834 9.6348 8.41741 9.5528L6.90561 8.68032C6.82874 8.63547 6.75827 8.63163 6.70703 8.6611L6.88767 8.55604C6.93893 8.52657 7.00939 8.53042 7.08626 8.57526L8.59805 9.44774C8.73899 9.52974 8.85814 9.72064 8.87479 9.89104L9.05288 12.3441C9.06312 12.4415 9.03751 12.5184 8.98369 12.5568Z" fill="#4C5C75"/>
<path d="M8.84875 9.59692C8.83742 9.60823 8.82611 9.61578 8.81478 9.62334L8.51289 9.79691C8.46006 9.83088 8.3846 9.82332 8.30157 9.77427L7.87138 9.529V9.32145L8.17328 9.14786L8.38083 9.26862L8.20723 8.41579C8.18837 8.34786 8.14309 8.28747 8.09403 8.2573L6.32422 7.23087V7.02711L6.62232 6.85352L8.39214 7.87994C8.51667 7.95164 8.62987 8.10635 8.67515 8.26861L8.8827 9.30257C8.91667 9.4271 8.90158 9.53653 8.84875 9.59692Z" fill="#DEDFFB"/>
<path d="M8.68829 9.40586L8.38968 9.57896C8.36636 9.59242 8.33586 9.58973 8.30268 9.57089L7.87305 9.32244L8.17165 9.14844L8.60128 9.39689C8.63537 9.41662 8.66587 9.41931 8.68829 9.40586Z" fill="#E9E7FC"/>
<path d="M8.84768 9.59776C8.83692 9.60762 8.82615 9.6166 8.81449 9.62377L8.51499 9.79778C8.52754 9.7906 8.53831 9.78163 8.54818 9.77086C8.60469 9.71167 8.61903 9.60224 8.58585 9.47757L8.37506 8.44132C8.33291 8.28077 8.2199 8.12471 8.09433 8.05206L6.32422 7.02752L6.62373 6.85352L8.39294 7.87894C8.51851 7.9507 8.63152 8.10767 8.67457 8.26732L8.88446 9.30357C8.91764 9.42824 8.90329 9.53856 8.84768 9.59776Z" fill="#F3F1FC"/>
<path d="M8.09439 8.05222C8.2198 8.12463 8.33293 8.2809 8.37549 8.44126L8.58605 9.47757C8.61896 9.60203 8.60489 9.71188 8.5485 9.77095C8.4927 9.831 8.40092 9.83272 8.30299 9.77618L7.87292 9.52788L7.8735 9.32323L8.30357 9.57153C8.34366 9.59468 8.3798 9.59379 8.40338 9.56984C8.4264 9.5449 8.43168 9.50181 8.41806 9.45045L8.20751 8.41413C8.19048 8.3496 8.14477 8.2863 8.09381 8.25687L6.32422 7.23199L6.3248 7.02734L8.09439 8.05222Z" fill="#DEDFFB"/>
<path d="M9.21096 10.3478L5.16189 12.7025C5.12039 12.7251 5.06377 12.7176 5.00718 12.6836C4.95435 12.6534 4.89773 12.5969 4.85623 12.5252L4.73547 12.3176C4.71283 12.2723 4.67888 12.2384 4.64113 12.2157L3.03358 11.2874L2.99963 11.2497C2.87132 11.1214 2.7619 10.9742 2.69397 10.8195C2.62605 10.6685 2.59963 10.5214 2.59963 10.4082C2.59963 10.295 2.62227 10.2082 2.65247 10.1365C2.67889 10.0648 2.71284 10.0082 2.74303 9.96288C2.75434 9.94779 2.7619 9.92515 2.7619 9.89874C2.7619 9.88743 2.7619 9.87232 2.75812 9.86101L1.99585 5.61573C1.97698 5.51005 2.00718 5.43458 2.06379 5.41194L6.10529 3.061C6.1317 3.04592 6.16568 3.04214 6.20718 3.05345C6.22604 3.061 6.24113 3.06856 6.25624 3.07609C6.35436 3.1327 6.44114 3.26101 6.46756 3.3893L7.22983 7.63836C7.24114 7.6912 7.24492 7.74401 7.24492 7.78931C7.24492 7.90252 7.2185 8.00063 7.16566 8.07233C7.1468 8.10251 7.12416 8.14025 7.10907 8.18176C7.09019 8.22326 7.08265 8.26854 7.08265 8.30252C7.08265 8.34024 7.08643 8.35911 7.09774 8.38552C7.10907 8.40439 7.12794 8.43836 7.17322 8.48742L8.69396 9.36667C8.84491 9.45345 8.98831 9.60441 9.09398 9.78553L9.21472 9.99685C9.29775 10.1403 9.29775 10.2987 9.21096 10.3478Z" fill="#497BFE"/>
<path d="M3.17889 9.99123L7.23043 7.63672C7.24036 7.69055 7.24487 7.74215 7.24473 7.79107C7.24441 7.90402 7.21855 8.00134 7.16795 8.07191C7.14616 8.1012 7.12357 8.13982 7.10795 8.18158C7.09155 8.22289 7.08289 8.26778 7.08279 8.30247L3.03125 10.657C3.03135 10.6223 3.04 10.5774 3.0564 10.5361C3.07203 10.4943 3.09462 10.4557 3.11641 10.4264C3.16701 10.3559 3.19287 10.2585 3.19319 10.1456C3.19332 10.0967 3.18882 10.0451 3.17889 9.99123Z" fill="#5094FF"/>
<path d="M9.21346 10.3467L5.16247 12.7013C5.24612 12.6529 5.24612 12.4965 5.16247 12.3522L5.04245 12.1425C4.93577 11.9594 4.79272 11.8091 4.64361 11.723L3.12096 10.8441C3.0761 10.7932 3.05792 10.7605 3.04822 10.7398C3.03732 10.7144 3.03125 10.695 3.03125 10.6574L7.08224 8.30273C7.08345 8.34031 7.0883 8.35972 7.09921 8.38518C7.10891 8.40578 7.12709 8.43851 7.17316 8.48943L8.6958 9.36835C8.84492 9.45442 8.98797 9.60475 9.09344 9.7878L9.21467 9.99753C9.29832 10.1418 9.29711 10.2994 9.21346 10.3467Z" fill="#57B3FE"/>
<path d="M7.22995 7.63632L3.17896 9.991L2.41522 5.7419C2.39218 5.61581 2.30368 5.48731 2.20548 5.43034C2.18972 5.42185 2.17276 5.41458 2.157 5.40852C2.11578 5.39639 2.08062 5.40003 2.05273 5.41579L6.10494 3.06112C6.13161 3.04535 6.16677 3.04172 6.20799 3.05506C6.22495 3.0599 6.24071 3.06718 6.25769 3.07688C6.35467 3.13264 6.44317 3.26115 6.46621 3.38844L7.22995 7.63632Z" fill="#57B3FE"/>
<path d="M2.20597 5.42992C2.30349 5.48622 2.39197 5.61445 2.41488 5.7415L3.17889 9.99011C3.18881 10.0439 3.19332 10.0955 3.19318 10.1445C3.19286 10.2574 3.167 10.3547 3.11641 10.4253C3.09462 10.4546 3.07202 10.4932 3.0564 10.535C3.04 10.5763 3.03135 10.6212 3.03125 10.6559C3.03192 10.6928 3.03729 10.7128 3.04807 10.7377C3.05768 10.7588 3.07585 10.7916 3.12122 10.8423L4.64391 11.7214C4.79329 11.8077 4.93629 11.958 5.04198 12.141L5.16311 12.3508C5.24643 12.4951 5.24598 12.6517 5.16212 12.6995C5.1198 12.7236 5.06458 12.716 5.00953 12.6842C4.95448 12.6524 4.89959 12.5964 4.85793 12.5238L4.73681 12.3149C4.71212 12.2713 4.67811 12.2356 4.64251 12.2151L3.03566 11.2873L2.99933 11.2503C2.87022 11.1206 2.76443 10.9731 2.69586 10.8195C2.62575 10.6658 2.60058 10.5203 2.60167 10.4078C2.602 10.294 2.62473 10.2065 2.65207 10.134C2.68018 10.0621 2.71446 10.0053 2.74481 9.96221C2.75649 9.94579 2.76275 9.92357 2.76283 9.896C2.76286 9.88443 2.76212 9.87243 2.75983 9.85863L1.99582 5.6127C1.96911 5.46454 2.04069 5.37224 2.15688 5.40814C2.17332 5.41319 2.18977 5.42056 2.20597 5.42992Z" fill="#497BFE"/>
<path d="M4.86047 11.9133C4.84916 11.9246 4.83783 11.9322 4.82649 11.9397L4.54348 12.102L4.52839 12.1133C4.4718 12.1473 4.39632 12.1397 4.31329 12.0944L3.8831 11.8454L3.88688 11.6416L4.185 11.4643L4.39255 11.585L4.21895 10.7322C4.20387 10.668 4.15481 10.6039 4.10575 10.5737L2.33594 9.54728V9.34352L2.63404 9.16992L4.40385 10.1963C4.53217 10.268 4.64159 10.4228 4.68687 10.585L4.89819 11.619C4.92839 11.7435 4.9133 11.8567 4.86047 11.9133Z" fill="#DEDFFB"/>
<path d="M4.70001 11.7223L4.4014 11.8954C4.37808 11.9088 4.34758 11.9061 4.31439 11.8873L3.88477 11.6388L4.18337 11.4648L4.613 11.7133C4.64709 11.733 4.67759 11.7357 4.70001 11.7223Z" fill="#E9E7FC"/>
<path d="M4.8594 11.9142C4.84863 11.924 4.83787 11.933 4.82621 11.9402L4.52671 12.1142C4.53926 12.107 4.55003 12.098 4.5599 12.0873C4.6164 12.0281 4.63075 11.9186 4.59757 11.794L4.38678 10.7577C4.34463 10.5972 4.23162 10.4411 4.10605 10.3685L2.33594 9.34393L2.63544 9.16992L4.40466 10.1954C4.53022 10.2671 4.64324 10.4241 4.68629 10.5837L4.89617 11.62C4.92936 11.7446 4.91501 11.855 4.8594 11.9142Z" fill="#F3F1FC"/>
<path d="M4.1061 10.3686C4.23152 10.441 4.34465 10.5973 4.38721 10.7577L4.59776 11.794C4.63068 11.9184 4.61661 12.0283 4.56022 12.0874C4.50442 12.1474 4.41263 12.1491 4.31471 12.0926L3.88464 11.8443L3.88522 11.6396L4.31529 11.8879C4.35538 11.9111 4.39152 11.9102 4.4151 11.8862C4.43812 11.8613 4.4434 11.8182 4.42978 11.7669L4.21923 10.7305C4.2022 10.666 4.15649 10.6027 4.10552 10.5733L2.33594 9.5484L2.33652 9.34375L4.1061 10.3686Z" fill="#DEDFFB"/>
<path d="M7.17371 13.9861L6.92466 18.8616L6.58881 19.0578L6.25673 18.8616L6.00766 13.9861L6.00391 13.9823L6.58503 13.6465L7.17371 13.9861Z" fill="#B0B8CF"/>
<path d="M3.87881 12.0721L3.62974 16.9513L3.29389 17.1438L2.95805 16.9513L2.96183 16.9475L2.71276 12.0758L2.70898 12.0721L3.29013 11.7324L3.87881 12.0721Z" fill="#B0B8CF"/>
<path d="M14.4219 9.76346L14.1728 14.6389L13.8408 14.8352L13.5049 14.6389L13.2559 9.76346L13.837 9.42383L14.4219 9.76346Z" fill="#B0B8CF"/>
<path d="M11.1307 7.8533L10.8779 12.7288L10.5458 12.925L10.21 12.7288L9.96094 7.8533V7.84953L10.5421 7.51367L11.1307 7.8533Z" fill="#B0B8CF"/>
<path d="M7.17141 13.9836L6.58919 14.3219L6.00195 13.9829L6.58417 13.6445L7.17141 13.9836Z" fill="#A56C4E"/>
<path d="M6.92277 18.8605L6.5888 19.0546L6.25195 18.8601L6.58592 18.666L6.92277 18.8605Z" fill="#A56C4E"/>
<path d="M6.92186 18.8618L6.58789 19.0559L6.58896 14.3227L7.17118 13.9844L6.92186 18.8618Z" fill="#E3E7F0"/>
<path d="M6.25322 18.8618L6.58719 19.0559L6.58612 14.3227L6.00391 13.9844L6.25322 18.8618Z" fill="#B0B8CF"/>
<path d="M3.87844 12.0734L3.29622 12.4118L2.70898 12.0727L3.2912 11.7344L3.87844 12.0734Z" fill="#A56C4E"/>
<path d="M3.6298 16.9503L3.29583 17.1444L2.95898 16.9499L3.29295 16.7559L3.6298 16.9503Z" fill="#A56C4E"/>
<path d="M3.62889 16.9516L3.29492 17.1457L3.29599 12.4126L3.87821 12.0742L3.62889 16.9516Z" fill="#E3E7F0"/>
<path d="M2.96026 16.9516L3.29422 17.1457L3.29315 12.4126L2.71094 12.0742L2.96026 16.9516Z" fill="#B0B8CF"/>
<path d="M14.4234 9.76287L13.8411 10.1012L13.2539 9.76217L13.8361 9.42383L14.4234 9.76287Z" fill="#A56C4E"/>
<path d="M14.1747 14.6398L13.8408 14.8339L13.5039 14.6394L13.8379 14.4453L14.1747 14.6398Z" fill="#A56C4E"/>
<path d="M14.1738 14.6411L13.8398 14.8351L13.8409 10.102L14.4231 9.76367L14.1738 14.6411Z" fill="#E3E7F0"/>
<path d="M13.5052 14.6411L13.8391 14.8351L13.8381 10.102L13.2559 9.76367L13.5052 14.6411Z" fill="#B0B8CF"/>
<path d="M11.1304 7.85271L10.5482 8.19106L9.96094 7.85202L10.5432 7.51367L11.1304 7.85271Z" fill="#A56C4E"/>
<path d="M10.8818 12.7296L10.5478 12.9237L10.2109 12.7292L10.5449 12.5352L10.8818 12.7296Z" fill="#A56C4E"/>
<path d="M10.8808 12.7309L10.5469 12.925L10.5479 8.19186L11.1302 7.85352L10.8808 12.7309Z" fill="#E3E7F0"/>
<path d="M10.2122 12.7309L10.5462 12.925L10.5451 8.19186L9.96289 7.85352L10.2122 12.7309Z" fill="#B0B8CF"/>
<g opacity="0.6">
<path d="M15.8638 8.42066L15.8563 10.3792L9.1582 6.51123L9.16198 4.55273L15.8638 8.42066Z" fill="#E3E7F0"/>
</g>
<g opacity="0.3">
<path d="M12.3054 8.33014L11.7997 8.03581L11.3809 5.83203L11.8865 6.12638L12.3054 8.33014Z" fill="white"/>
<path d="M13.6422 9.10049L12.8837 8.66274L12.4648 6.45898L13.2233 6.89671L13.6422 9.10049Z" fill="white"/>
</g>
<path d="M14.8841 9.29658L14.8803 10.1041L6.49541 14.9796L2.25391 12.5268V11.7192L10.6388 6.84375L14.8841 9.29658Z" fill="#BF7D5A"/>
<path d="M14.8825 9.29492L14.8802 10.1047L6.49609 14.977L6.49839 14.1673L14.8825 9.29492Z" fill="#BF7D5A"/>
<path d="M6.49871 14.1673L6.49642 14.9771L2.25195 12.5266L2.25425 11.7168L6.49871 14.1673Z" fill="#AA6256"/>
<path d="M14.8825 9.29625L6.49837 14.1686L2.25391 11.718L10.6381 6.8457L14.8825 9.29625Z" fill="#DBA660"/>
<path d="M9.60762 9.14712C9.60762 9.27918 9.51706 9.44144 9.40008 9.50939L6.54347 11.1622C6.48308 11.1962 6.42649 11.1962 6.38874 11.166L5.95855 10.9207C5.92082 10.9018 5.89818 10.8528 5.89818 10.7886V10.532L5.89062 8.38862C5.89062 8.25656 5.98496 8.09429 6.09819 8.02635L8.95477 6.37354C9.01516 6.34335 9.06422 6.33957 9.10573 6.36221L9.5397 6.61126C9.57742 6.63767 9.60384 6.68295 9.60384 6.74712L9.60762 9.14712Z" fill="#1D2943"/>
<path d="M9.54271 6.61178C9.50384 6.59234 9.452 6.59557 9.3937 6.62797L6.53681 8.2799C6.42345 8.34793 6.32952 8.50989 6.32952 8.63946L6.33599 10.7773V11.0429C6.33599 11.1077 6.35866 11.153 6.39753 11.1757L5.95865 10.9229C5.91977 10.9035 5.89711 10.8549 5.89711 10.7901V10.531L5.89062 8.38995C5.89062 8.25715 5.98455 8.0952 6.09793 8.02717L8.95482 6.37524C9.01313 6.34283 9.06494 6.33961 9.10381 6.36227L9.54271 6.61178Z" fill="#1D2943"/>
<path d="M9.3955 6.62812C9.51046 6.56176 9.60413 6.61514 9.6045 6.74777L9.60945 9.14947C9.60982 9.28156 9.51676 9.44275 9.4018 9.50912L6.54598 11.1621C6.43103 11.2285 6.33735 11.1751 6.33698 11.043L6.33203 8.64128C6.33166 8.50866 6.42471 8.34746 6.53967 8.2811L9.3955 6.62812Z" fill="#4C5C75"/>
<path d="M9.14031 10.9026V11.1667L8.00068 11.8271L7.24219 11.3856V11.1252L8.38182 10.4648L9.14031 10.9026Z" fill="#111D33"/>
<path d="M9.13994 10.9043L9.1392 11.1672L8.00195 11.828L8.0027 11.5652L9.13994 10.9043Z" fill="#1D2943"/>
<path d="M8.00262 11.5636L8.00188 11.8265L7.24219 11.3879L7.24293 11.125L8.00262 11.5636Z" fill="#111D33"/>
<path d="M9.13912 10.9035L8.00188 11.5643L7.24219 11.1257L8.37943 10.4648L9.13912 10.9035Z" fill="#4C5C75"/>
<path d="M7.64453 9.17607L8.30476 8.79239L8.28023 8.70508L7.67759 9.05519L7.64453 9.17607Z" fill="#C9CEE2"/>
<path d="M8.57842 10.9523L7.97843 11.2995L7.73692 11.1599L7.81995 9.47683L7.64258 9.17873L7.67655 9.05797V9.05419L8.28031 8.70703L8.48408 9.05419L8.50672 9.0957V9.14098L8.57842 10.9523Z" fill="#B0B8CF"/>
<path d="M8.57855 10.9505L7.97728 11.301L7.90547 9.48992L7.90234 9.4462L8.50673 9.0957V9.13942L8.57855 10.9505Z" fill="#C9CEE2"/>
<path d="M8.50696 9.0954L7.90257 9.44589L7.87758 9.4053L7.67773 9.05558L8.279 8.70508L8.48197 9.0548L8.50696 9.0954Z" fill="#E3E7F0"/>
<path d="M7.67759 9.05664L7.88029 9.40542L7.90414 9.44672L7.906 9.4914L7.97876 11.3002L7.73875 11.1617L7.81975 9.47902L7.64453 9.17752L7.67759 9.05664Z" fill="#B0B8CF"/>
<path d="M4.52539 11.0779C4.63132 11.0186 4.75397 10.9488 4.89714 10.8662C4.94224 10.8402 4.98787 10.8138 5.03356 10.7871L5.03558 11.1827C4.927 11.2471 4.80694 11.3173 4.68259 11.389C4.62793 11.4205 4.57619 11.4502 4.52716 11.4782L4.52539 11.0779Z" fill="#497BFE"/>
<path d="M4.54533 11.6127C4.53712 11.6127 4.52914 11.6084 4.52472 11.6008C4.51809 11.5894 4.52198 11.5749 4.53335 11.5683L5.00354 11.2923C5.01479 11.2857 5.02942 11.2895 5.03608 11.301C5.0427 11.3123 5.03882 11.3269 5.02745 11.3335L4.55726 11.6094C4.55352 11.6116 4.5494 11.6127 4.54533 11.6127Z" fill="#497BFE"/>
<path d="M4.54533 11.7455C4.53712 11.7455 4.52914 11.7412 4.52472 11.7336C4.51809 11.7222 4.52198 11.7077 4.53335 11.7011L5.00354 11.4251C5.01479 11.4185 5.02942 11.4223 5.03608 11.4338C5.0427 11.4451 5.03882 11.4597 5.02745 11.4663L4.55726 11.7422C4.55352 11.7444 4.5494 11.7455 4.54533 11.7455Z" fill="#497BFE"/>
<path d="M5.6366 11.9113C5.50831 11.9868 5.36113 12.0736 5.21774 12.1566C5.07434 12.2396 4.93094 12.3188 4.80263 12.3905L4.78377 12.4019L4.75735 12.3981C4.60264 12.3868 4.50452 12.3302 4.47433 12.2358L4.47057 12.2207L4.4668 10.9339C5.03264 10.608 5.18835 10.5184 5.31963 10.4434L5.39131 10.4849V10.5679L5.48565 10.6207C5.50831 10.6094 5.5347 10.5943 5.55735 10.5792L5.63282 10.6245L5.6366 11.9113Z" fill="#5EC363"/>
<path d="M4.58008 10.9535L4.58373 12.2407C4.69857 12.1741 4.82676 12.0999 4.95674 12.0248C5.10686 11.9382 5.25938 11.8503 5.3967 11.7715L5.39305 10.4844C5.25574 10.5632 5.10321 10.651 4.95309 10.7377C4.82311 10.8127 4.69492 10.8869 4.58008 10.9535Z" fill="#72D561"/>
<path d="M4.78255 12.4016L4.75732 12.3992C4.60201 12.3854 4.50424 12.3291 4.47547 12.236L4.47034 12.2207L4.4668 10.9336L4.47153 10.949C4.5007 11.042 4.59846 11.0984 4.75378 11.1122L4.77901 11.1141L4.78255 12.4016Z" fill="#5EC363"/>
<path d="M4.70773 11.0931L4.56445 11.0097L5.36214 10.5488L5.48817 10.6228L4.70773 11.0931Z" fill="#F3F1FC"/>
<path d="M4.89816 10.684C4.75407 10.7672 4.61155 10.8497 4.4862 10.9225L4.4668 10.9337L4.47183 10.9492C4.50088 11.0421 4.5984 11.0986 4.75379 11.1124L4.77918 11.1146L4.79782 11.1043C4.92601 11.0331 5.06999 10.9513 5.21437 10.868C5.35855 10.7847 5.50312 10.6999 5.63229 10.6225L5.55745 10.5806C5.42806 10.6581 5.28329 10.7431 5.13888 10.8265C5.00302 10.9049 4.86748 10.9819 4.74523 11.0499C4.65656 11.0381 4.60346 11.007 4.57988 10.9534C4.69472 10.8868 4.82291 10.8126 4.95289 10.7376C5.10301 10.6509 5.25553 10.563 5.39285 10.4842L5.31953 10.4414C5.1879 10.517 5.04225 10.6008 4.89816 10.684Z" fill="#78E75A"/>
<path d="M4.59007 10.9727L4.51172 11.019C4.56362 11.0733 4.64457 11.1025 4.74886 11.1119L4.74476 11.05C4.66505 11.0394 4.61426 11.0132 4.59007 10.9727Z" fill="#78E75A"/>
<path d="M5.63629 11.9101C5.507 11.9878 5.36232 12.0725 5.21805 12.1557C5.07377 12.2389 4.92988 12.3209 4.80177 12.3918L4.78285 12.4025L4.7793 11.115L4.79782 11.1048C4.92633 11.0338 5.07022 10.9518 5.2145 10.8686C5.35878 10.7855 5.50345 10.7003 5.63235 10.623L5.63629 11.9101Z" fill="#72D561"/>
<path d="M4.95312 11.324C5.05905 11.2647 5.1817 11.1948 5.32487 11.1123C5.36997 11.0863 5.4156 11.0599 5.46129 11.0332L5.46332 11.4288C5.35473 11.4932 5.23468 11.5634 5.11032 11.6351C5.05567 11.6666 5.00393 11.6963 4.95489 11.7243L4.95312 11.324Z" fill="#72D561"/>
<path d="M4.97306 11.8588C4.96485 11.8588 4.95687 11.8545 4.95246 11.8469C4.94583 11.8355 4.94971 11.821 4.96108 11.8144L5.43127 11.5384C5.44253 11.5318 5.45716 11.5356 5.46381 11.547C5.47044 11.5584 5.46655 11.573 5.45518 11.5796L4.985 11.8555C4.98125 11.8577 4.97713 11.8588 4.97306 11.8588Z" fill="#72D561"/>
<path d="M4.97306 11.9916C4.96485 11.9916 4.95687 11.9873 4.95246 11.9797C4.94583 11.9683 4.94971 11.9538 4.96108 11.9472L5.43127 11.6712C5.44253 11.6646 5.45716 11.6684 5.46381 11.6799C5.47044 11.6912 5.46655 11.7058 5.45518 11.7124L4.985 11.9883C4.98125 11.9905 4.97713 11.9916 4.97306 11.9916Z" fill="#72D561"/>
<path d="M6.06434 12.1554C5.93603 12.2347 5.79266 12.3177 5.64548 12.4007C5.50208 12.4837 5.35869 12.5667 5.23037 12.6384L5.21151 12.6497L5.18509 12.646C5.03039 12.6309 4.93227 12.5743 4.90585 12.4837L4.8983 12.4686C4.89809 12.397 4.8943 11.0954 4.89454 11.1781C5.81479 10.6481 5.70953 10.7091 5.74735 10.6875L5.82283 10.729V10.812L5.91717 10.8686C5.93981 10.8535 5.96245 10.8384 5.98509 10.8271L6.06057 10.8686L6.06434 12.1554Z" fill="#DF3260"/>
<path d="M5.00781 11.2016L5.01146 12.4887C5.1263 12.4221 5.2545 12.3479 5.38448 12.2729C5.5346 12.1862 5.68712 12.0984 5.82444 12.0196L5.82079 10.7324C5.68347 10.8112 5.53095 10.8991 5.38083 10.9857C5.25085 11.0608 5.12265 11.135 5.00781 11.2016Z" fill="#DF3260"/>
<path d="M5.21029 12.6497L5.18506 12.6473C5.02974 12.6335 4.93198 12.5771 4.9032 12.4841L4.89808 12.4687L4.89453 11.1816L4.89926 11.197C4.92843 11.29 5.02619 11.3464 5.18151 11.3602L5.20674 11.3622L5.21029 12.6497Z" fill="#E93565"/>
<path d="M5.13546 11.3411L4.99219 11.2577L5.78988 10.7969L5.91591 10.8708L5.13546 11.3411Z" fill="#F3F1FC"/>
<path d="M5.32589 10.9321C5.18181 11.0153 5.03929 11.0978 4.91393 11.1706L4.89453 11.1818L4.89956 11.1973C4.92862 11.2902 5.02613 11.3466 5.18152 11.3605L5.20692 11.3627L5.22555 11.3523C5.35374 11.2812 5.49773 11.1994 5.6421 11.116C5.78628 11.0328 5.93085 10.948 6.06002 10.8706L5.98518 10.8286C5.85579 10.9061 5.71102 10.9911 5.56661 11.0745C5.43075 11.1529 5.29521 11.2299 5.17296 11.298C5.0843 11.2861 5.0312 11.255 5.00761 11.2014C5.12245 11.1348 5.25064 11.0607 5.38063 10.9856C5.53075 10.8989 5.68327 10.8111 5.82058 10.7323L5.74726 10.6895C5.61564 10.765 5.46998 10.8489 5.32589 10.9321Z" fill="#F45170"/>
<path d="M5.01781 11.2207L4.93945 11.2671C4.99135 11.3213 5.07231 11.3505 5.17659 11.36L5.1725 11.2981C5.09278 11.2875 5.042 11.2613 5.01781 11.2207Z" fill="#F45170"/>
<path d="M6.06403 12.1582C5.93473 12.2358 5.79006 12.3206 5.64578 12.4038C5.5015 12.4869 5.35762 12.5689 5.2295 12.6399L5.21058 12.6505L5.20703 11.3631L5.22556 11.3528C5.35407 11.2819 5.49795 11.1999 5.64223 11.1167C5.78651 11.0335 5.93118 10.9484 6.06009 10.8711L6.06403 12.1582Z" fill="#DF3260"/>
<path d="M5.38086 11.572C5.48678 11.5127 5.60944 11.4429 5.75261 11.3604C5.7977 11.3344 5.84333 11.3079 5.88903 11.2812L5.89105 11.6769C5.78247 11.7413 5.66241 11.8114 5.53805 11.8831C5.4834 11.9146 5.43166 11.9443 5.38263 11.9723L5.38086 11.572Z" fill="#E93565"/>
<path d="M5.4008 12.1068C5.39259 12.1068 5.38461 12.1026 5.38019 12.0949C5.37356 12.0836 5.37745 12.069 5.38882 12.0624L5.85901 11.7865C5.87026 11.7798 5.88489 11.7837 5.89154 11.7951C5.89817 11.8065 5.89429 11.821 5.88292 11.8276L5.41273 12.1036C5.40898 12.1058 5.40487 12.1068 5.4008 12.1068Z" fill="#E93565"/>
<path d="M5.4008 12.2396C5.39259 12.2396 5.38461 12.2354 5.38019 12.2278C5.37356 12.2164 5.37745 12.2018 5.38882 12.1952L5.85901 11.9193C5.87026 11.9126 5.88489 11.9165 5.89154 11.9279C5.89817 11.9393 5.89429 11.9538 5.88292 11.9604L5.41273 12.2364C5.40898 12.2386 5.40487 12.2396 5.4008 12.2396Z" fill="#E93565"/>
<path d="M6.63783 11.6506L6.63405 12.545L5.5397 13.1789L3.72461 12.1299V11.2355L4.81896 10.6016L4.98877 10.6997L4.985 11.3978L5.86423 11.9035L6.46424 11.5525L6.63783 11.6506Z" fill="#B0B8CF"/>
<path d="M4.52539 11.0779C4.63132 11.0186 4.75397 10.9488 4.89714 10.8662C4.94224 10.8402 4.98787 10.8138 5.03356 10.7871L5.03558 11.1827C4.927 11.2471 4.80694 11.3173 4.68259 11.389C4.62793 11.4205 4.57619 11.4502 4.52716 11.4782L4.52539 11.0779Z" fill="#497BFE"/>
<path d="M4.54533 11.6127C4.53712 11.6127 4.52914 11.6084 4.52472 11.6008C4.51809 11.5894 4.52198 11.5749 4.53335 11.5683L5.00354 11.2923C5.01479 11.2857 5.02942 11.2895 5.03608 11.301C5.0427 11.3123 5.03882 11.3269 5.02745 11.3335L4.55726 11.6094C4.55352 11.6116 4.5494 11.6127 4.54533 11.6127Z" fill="#497BFE"/>
<path d="M4.54533 11.7455C4.53712 11.7455 4.52914 11.7412 4.52472 11.7336C4.51809 11.7222 4.52198 11.7077 4.53335 11.7011L5.00354 11.4251C5.01479 11.4185 5.02942 11.4223 5.03608 11.4338C5.0427 11.4451 5.03882 11.4597 5.02745 11.4663L4.55726 11.7422C4.55352 11.7444 4.5494 11.7455 4.54533 11.7455Z" fill="#497BFE"/>
<path d="M5.63855 11.9113C5.51026 11.9868 5.36309 12.0736 5.21969 12.1566C5.07629 12.2396 4.93289 12.3188 4.80458 12.3905L4.78572 12.4019L4.7593 12.3981C4.60459 12.3868 4.50648 12.3302 4.47628 12.2358L4.47253 12.2207L4.46875 10.9339C5.0346 10.608 5.1903 10.5184 5.32158 10.4434L5.39326 10.4849V10.5679L5.4876 10.6207C5.51026 10.6094 5.53666 10.5943 5.5593 10.5792L5.63477 10.6245L5.63855 11.9113Z" fill="#5EC363"/>
<path d="M5.63662 11.9093C5.50831 11.9848 5.36113 12.0716 5.21776 12.1546C5.07436 12.2376 4.93096 12.3206 4.80265 12.3923L4.78379 12.3999H4.75737C4.60266 12.3848 4.50455 12.3282 4.47813 12.2376L4.47057 12.2188L4.4668 10.932L4.48568 10.9207C4.61397 10.849 4.75359 10.7659 4.90077 10.6829C5.04417 10.5999 5.18756 10.5169 5.31963 10.4414L5.39511 10.4829V10.5659L5.48945 10.6225C5.51209 10.6074 5.53473 10.5924 5.55737 10.581L5.63284 10.6225L5.63662 11.9093Z" fill="#5EC363"/>
<path d="M4.58008 10.9535L4.58373 12.2407C4.69857 12.1741 4.82676 12.0999 4.95674 12.0248C5.10686 11.9382 5.25938 11.8503 5.3967 11.7715L5.39305 10.4844C5.25574 10.5632 5.10321 10.651 4.95309 10.7377C4.82311 10.8127 4.69492 10.8869 4.58008 10.9535Z" fill="#72D561"/>
<path d="M4.78255 12.4016L4.75732 12.3992C4.60201 12.3854 4.50424 12.3291 4.47547 12.236L4.47034 12.2207L4.4668 10.9336L4.47153 10.949C4.5007 11.042 4.59846 11.0984 4.75378 11.1122L4.77901 11.1141L4.78255 12.4016Z" fill="#5EC363"/>
<path d="M4.70773 11.0931L4.56445 11.0097L5.36214 10.5488L5.48817 10.6228L4.70773 11.0931Z" fill="#F3F1FC"/>
<path d="M4.89816 10.684C4.75407 10.7672 4.61155 10.8497 4.4862 10.9225L4.4668 10.9337L4.47183 10.9492C4.50088 11.0421 4.5984 11.0986 4.75379 11.1124L4.77918 11.1146L4.79782 11.1043C4.92601 11.0331 5.06999 10.9513 5.21437 10.868C5.35855 10.7847 5.50312 10.6999 5.63229 10.6225L5.55745 10.5806C5.42806 10.6581 5.28329 10.7431 5.13888 10.8265C5.00302 10.9049 4.86748 10.9819 4.74523 11.0499C4.65656 11.0381 4.60346 11.007 4.57988 10.9534C4.69472 10.8868 4.82291 10.8126 4.95289 10.7376C5.10301 10.6509 5.25553 10.563 5.39285 10.4842L5.31953 10.4414C5.1879 10.517 5.04225 10.6008 4.89816 10.684Z" fill="#78E75A"/>
<path d="M4.59007 10.9727L4.51172 11.019C4.56362 11.0733 4.64457 11.1025 4.74886 11.1119L4.74476 11.05C4.66505 11.0394 4.61426 11.0132 4.59007 10.9727Z" fill="#78E75A"/>
<path d="M5.63629 11.9101C5.507 11.9878 5.36232 12.0725 5.21805 12.1557C5.07377 12.2389 4.92988 12.3209 4.80177 12.3918L4.78285 12.4025L4.7793 11.115L4.79782 11.1048C4.92633 11.0338 5.07022 10.9518 5.2145 10.8686C5.35878 10.7855 5.50345 10.7003 5.63235 10.623L5.63629 11.9101Z" fill="#72D561"/>
<path d="M4.95312 11.324C5.05905 11.2647 5.1817 11.1948 5.32487 11.1123C5.36997 11.0863 5.4156 11.0599 5.46129 11.0332L5.46332 11.4288C5.35473 11.4932 5.23468 11.5634 5.11032 11.6351C5.05567 11.6666 5.00393 11.6963 4.95489 11.7243L4.95312 11.324Z" fill="#72D561"/>
<path d="M4.97306 11.8588C4.96485 11.8588 4.95687 11.8545 4.95246 11.8469C4.94583 11.8355 4.94971 11.821 4.96108 11.8144L5.43127 11.5384C5.44253 11.5318 5.45716 11.5356 5.46381 11.547C5.47044 11.5584 5.46655 11.573 5.45518 11.5796L4.985 11.8555C4.98125 11.8577 4.97713 11.8588 4.97306 11.8588Z" fill="#72D561"/>
<path d="M4.97306 11.9916C4.96485 11.9916 4.95687 11.9873 4.95246 11.9797C4.94583 11.9683 4.94971 11.9538 4.96108 11.9472L5.43127 11.6712C5.44253 11.6646 5.45716 11.6684 5.46381 11.6799C5.47044 11.6912 5.46655 11.7058 5.45518 11.7124L4.985 11.9883C4.98125 11.9905 4.97713 11.9916 4.97306 11.9916Z" fill="#72D561"/>
<path d="M6.06434 12.1554C5.93603 12.2347 5.79266 12.3177 5.64548 12.4007C5.50208 12.4837 5.35869 12.5667 5.23037 12.6384L5.21151 12.6497L5.18509 12.646C5.03039 12.6309 4.93227 12.5743 4.90585 12.4837L4.8983 12.4686C4.89809 12.397 4.8943 11.0954 4.89454 11.1781C5.81479 10.6481 5.70953 10.7091 5.74735 10.6875L5.82283 10.729V10.812L5.91717 10.8686C5.93981 10.8535 5.96245 10.8384 5.98509 10.8271L6.06057 10.8686L6.06434 12.1554Z" fill="#DF3260"/>
<path d="M6.06631 12.1554C5.93422 12.2347 5.79082 12.3177 5.64742 12.4007C5.50027 12.4875 5.35687 12.5667 5.22856 12.6384L5.2097 12.6498L5.18706 12.646C5.03233 12.6347 4.93423 12.5781 4.90404 12.4837L4.90026 12.4686L4.89648 11.1818L4.91535 11.1705C5.03988 11.0988 5.18328 11.0158 5.32668 10.9328C5.47008 10.8498 5.61725 10.763 5.74932 10.6875L5.82102 10.7328V10.8158L5.91536 10.8686C5.94177 10.8535 5.96442 10.8422 5.98706 10.8271L6.05876 10.8686V10.8724L6.06631 12.1554Z" fill="#DF3260"/>
<path d="M5.00977 11.2016L5.01341 12.4887C5.12825 12.4221 5.25645 12.3479 5.38643 12.2729C5.53655 12.1862 5.68907 12.0984 5.82639 12.0196L5.82274 10.7324C5.68542 10.8112 5.5329 10.8991 5.38278 10.9857C5.2528 11.0608 5.12461 11.135 5.00977 11.2016Z" fill="#DF3260"/>
<path d="M5.21224 12.6497L5.18701 12.6473C5.0317 12.6335 4.93393 12.5771 4.90516 12.4841L4.90003 12.4687L4.89648 11.1816L4.90121 11.197C4.93039 11.29 5.02815 11.3464 5.18346 11.3602L5.20869 11.3622L5.21224 12.6497Z" fill="#E93565"/>
<path d="M5.13742 11.3411L4.99414 11.2577L5.79183 10.7969L5.91786 10.8708L5.13742 11.3411Z" fill="#F3F1FC"/>
<path d="M5.32785 10.9321C5.18376 11.0153 5.04124 11.0978 4.91589 11.1706L4.89648 11.1818L4.90152 11.1973C4.93057 11.2902 5.02808 11.3466 5.18348 11.3605L5.20887 11.3627L5.22751 11.3523C5.3557 11.2812 5.49968 11.1994 5.64405 11.116C5.78824 11.0328 5.93281 10.948 6.06198 10.8706L5.98713 10.8286C5.85775 10.9061 5.71298 10.9911 5.56856 11.0745C5.4327 11.1529 5.29717 11.2299 5.17492 11.298C5.08625 11.2861 5.03315 11.255 5.00956 11.2014C5.1244 11.1348 5.2526 11.0607 5.38258 10.9856C5.5327 10.8989 5.68522 10.8111 5.82254 10.7323L5.74921 10.6895C5.61759 10.765 5.47193 10.8489 5.32785 10.9321Z" fill="#F45170"/>
<path d="M5.01976 11.2207L4.94141 11.2671C4.9933 11.3213 5.07426 11.3505 5.17855 11.36L5.17445 11.2981C5.09473 11.2875 5.04395 11.2613 5.01976 11.2207Z" fill="#F45170"/>
<path d="M6.06598 12.1582C5.93668 12.2358 5.79201 12.3206 5.64773 12.4038C5.50345 12.4869 5.35957 12.5689 5.23145 12.6399L5.21253 12.6505L5.20898 11.3631L5.22751 11.3528C5.35602 11.2819 5.49991 11.1999 5.64418 11.1167C5.78846 11.0335 5.93314 10.9484 6.06204 10.8711L6.06598 12.1582Z" fill="#DF3260"/>
<path d="M5.38281 11.572C5.48874 11.5127 5.61139 11.4429 5.75456 11.3604C5.79966 11.3344 5.84529 11.3079 5.89098 11.2812L5.893 11.6769C5.78442 11.7413 5.66436 11.8114 5.54001 11.8831C5.48535 11.9146 5.43361 11.9443 5.38458 11.9723L5.38281 11.572Z" fill="#E93565"/>
<path d="M5.40275 12.1068C5.39454 12.1068 5.38656 12.1026 5.38214 12.0949C5.37551 12.0836 5.3794 12.069 5.39077 12.0624L5.86096 11.7865C5.87222 11.7798 5.88685 11.7837 5.8935 11.7951C5.90013 11.8065 5.89624 11.821 5.88487 11.8276L5.41468 12.1036C5.41094 12.1058 5.40682 12.1068 5.40275 12.1068Z" fill="#E93565"/>
<path d="M5.40275 12.2396C5.39454 12.2396 5.38656 12.2354 5.38214 12.2278C5.37551 12.2164 5.3794 12.2018 5.39077 12.1952L5.86096 11.9193C5.87222 11.9126 5.88685 11.9165 5.8935 11.9279C5.90013 11.9393 5.89624 11.9538 5.88487 11.9604L5.41468 12.2364C5.41094 12.2386 5.40682 12.2396 5.40275 12.2396Z" fill="#E93565"/>
<path d="M6.63719 11.6489L6.63343 12.5432L5.54286 13.1772V12.2866L5.37305 12.1847L6.4674 11.5508L6.63719 11.6489Z" fill="#C9CEE2"/>
<path d="M5.37305 12.1876L6.46547 11.5527L6.6363 11.6514L5.54387 12.2862L5.37305 12.1876Z" fill="#E3E7F0"/>
<path d="M5.54377 12.2852L6.6362 11.6504L6.63344 12.5432L5.54102 13.1781L5.54377 12.2852Z" fill="#C9CEE2"/>
<path d="M6.46228 12.2487L5.54153 12.7845V13.177L3.72266 12.1279L3.72643 11.2336L4.81701 10.5996L4.9868 10.6977V11.3959L6.46228 12.2487Z" fill="#B0B8CF"/>
<path d="M3.89478 11.3341L4.98721 10.6992L4.985 11.3958L3.89258 12.0306L3.89478 11.3341Z" fill="#C9CEE2"/>
<path d="M3.72461 11.2364L4.81704 10.6016L4.98786 10.7002L3.89544 11.335L3.72461 11.2364Z" fill="#E3E7F0"/>
<path d="M3.89258 12.0313L4.985 11.3965L6.4614 12.2489L5.36898 12.8837L3.89258 12.0313Z" fill="#E3E7F0"/>
<path d="M5.37109 12.1876L6.46352 11.5527L6.63435 11.6514L5.54192 12.2862L5.37109 12.1876Z" fill="#E3E7F0"/>
<path d="M4.52344 11.0779C4.62936 11.0186 4.75201 10.9488 4.89518 10.8662C4.94028 10.8402 4.98591 10.8138 5.03161 10.7871L5.03363 11.1827C4.92504 11.2471 4.80499 11.3173 4.68063 11.389C4.62598 11.4205 4.57424 11.4502 4.5252 11.4782L4.52344 11.0779Z" fill="#497BFE"/>
<path d="M4.54338 11.6127C4.53517 11.6127 4.52719 11.6084 4.52277 11.6008C4.51614 11.5894 4.52002 11.5749 4.5314 11.5683L5.00158 11.2923C5.01284 11.2857 5.02747 11.2895 5.03412 11.301C5.04075 11.3123 5.03687 11.3269 5.02549 11.3335L4.55531 11.6094C4.55156 11.6116 4.54745 11.6127 4.54338 11.6127Z" fill="#497BFE"/>
<path d="M4.54338 11.7455C4.53517 11.7455 4.52719 11.7412 4.52277 11.7336C4.51614 11.7222 4.52002 11.7077 4.5314 11.7011L5.00158 11.4251C5.01284 11.4185 5.02747 11.4223 5.03412 11.4338C5.04075 11.4451 5.03687 11.4597 5.02549 11.4663L4.55531 11.7422C4.55156 11.7444 4.54745 11.7455 4.54338 11.7455Z" fill="#497BFE"/>
<path d="M5.6366 11.9113C5.50831 11.9868 5.36113 12.0736 5.21774 12.1566C5.07434 12.2396 4.93094 12.3188 4.80263 12.3905L4.78377 12.4019L4.75735 12.3981C4.60264 12.3868 4.50452 12.3302 4.47433 12.2358L4.47057 12.2207L4.4668 10.9339C5.03264 10.608 5.18835 10.5184 5.31963 10.4434L5.39131 10.4849V10.5679L5.48565 10.6207C5.50831 10.6094 5.5347 10.5943 5.55735 10.5792L5.63282 10.6245L5.6366 11.9113Z" fill="#5EC363"/>
<path d="M5.63467 11.9093C5.50636 11.9848 5.35918 12.0716 5.21581 12.1546C5.07241 12.2376 4.92901 12.3206 4.8007 12.3923L4.78183 12.3999H4.75542C4.60071 12.3848 4.50259 12.3282 4.47618 12.2376L4.46862 12.2188L4.46484 10.932L4.48373 10.9207C4.61202 10.849 4.75164 10.7659 4.89882 10.6829C5.04221 10.5999 5.18561 10.5169 5.31768 10.4414L5.39315 10.4829V10.5659L5.48749 10.6225C5.51013 10.6074 5.53277 10.5924 5.55542 10.581L5.63089 10.6225L5.63467 11.9093Z" fill="#5EC363"/>
<path d="M4.57812 10.9535L4.58177 12.2407C4.69661 12.1741 4.82481 12.0999 4.95479 12.0248C5.10491 11.9382 5.25743 11.8503 5.39475 11.7715L5.3911 10.4844C5.25378 10.5632 5.10126 10.651 4.95114 10.7377C4.82116 10.8127 4.69297 10.8869 4.57812 10.9535Z" fill="#72D561"/>
<path d="M4.7806 12.4016L4.75537 12.3992C4.60005 12.3854 4.50229 12.3291 4.47351 12.236L4.46839 12.2207L4.46484 10.9336L4.46957 10.949C4.49874 11.042 4.59651 11.0984 4.75182 11.1122L4.77705 11.1141L4.7806 12.4016Z" fill="#5EC363"/>
<path d="M4.70578 11.0931L4.5625 11.0097L5.36019 10.5488L5.48622 10.6228L4.70578 11.0931Z" fill="#F3F1FC"/>
<path d="M4.89621 10.684C4.75212 10.7672 4.6096 10.8497 4.48425 10.9225L4.46484 10.9337L4.46988 10.9492C4.49893 11.0421 4.59644 11.0986 4.75184 11.1124L4.77723 11.1146L4.79587 11.1043C4.92405 11.0331 5.06804 10.9513 5.21241 10.868C5.35659 10.7847 5.50116 10.6999 5.63034 10.6225L5.55549 10.5806C5.4261 10.6581 5.28134 10.7431 5.13692 10.8265C5.00106 10.9049 4.86553 10.9819 4.74328 11.0499C4.65461 11.0381 4.60151 11.007 4.57792 10.9534C4.69276 10.8868 4.82096 10.8126 4.95094 10.7376C5.10106 10.6509 5.25358 10.563 5.3909 10.4842L5.31757 10.4414C5.18595 10.517 5.04029 10.6008 4.89621 10.684Z" fill="#78E75A"/>
<path d="M4.58812 10.9727L4.50977 11.019C4.56166 11.0733 4.64262 11.1025 4.74691 11.1119L4.74281 11.05C4.66309 11.0394 4.61231 11.0132 4.58812 10.9727Z" fill="#78E75A"/>
<path d="M5.63434 11.9101C5.50504 11.9878 5.36037 12.0725 5.21609 12.1557C5.07181 12.2389 4.92793 12.3209 4.79981 12.3918L4.78089 12.4025L4.77734 11.115L4.79587 11.1048C4.92438 11.0338 5.06827 10.9518 5.21254 10.8686C5.35682 10.7855 5.50149 10.7003 5.6304 10.623L5.63434 11.9101Z" fill="#72D561"/>
<path d="M4.95117 11.324C5.0571 11.2647 5.17975 11.1948 5.32292 11.1123C5.36802 11.0863 5.41365 11.0599 5.45934 11.0332L5.46136 11.4288C5.35278 11.4932 5.23272 11.5634 5.10837 11.6351C5.05371 11.6666 5.00197 11.6963 4.95294 11.7243L4.95117 11.324Z" fill="#72D561"/>
<path d="M4.97111 11.8588C4.9629 11.8588 4.95492 11.8545 4.9505 11.8469C4.94387 11.8355 4.94776 11.821 4.95913 11.8144L5.42932 11.5384C5.44057 11.5318 5.4552 11.5356 5.46186 11.547C5.46849 11.5584 5.4646 11.573 5.45323 11.5796L4.98304 11.8555C4.9793 11.8577 4.97518 11.8588 4.97111 11.8588Z" fill="#72D561"/>
<path d="M4.97111 11.9916C4.9629 11.9916 4.95492 11.9873 4.9505 11.9797C4.94387 11.9683 4.94776 11.9538 4.95913 11.9472L5.42932 11.6712C5.44057 11.6646 5.4552 11.6684 5.46186 11.6799C5.46849 11.6912 5.4646 11.7058 5.45323 11.7124L4.98304 11.9883C4.9793 11.9905 4.97518 11.9916 4.97111 11.9916Z" fill="#72D561"/>
<path d="M6.06239 12.1554C5.93408 12.2347 5.7907 12.3177 5.64353 12.4007C5.50013 12.4837 5.35673 12.5667 5.22842 12.6384L5.20956 12.6497L5.18314 12.646C5.02843 12.6309 4.93032 12.5743 4.9039 12.4837L4.89634 12.4686C4.89613 12.397 4.89235 11.0954 4.89259 11.1781C5.81284 10.6481 5.70757 10.7091 5.7454 10.6875L5.82088 10.729V10.812L5.91522 10.8686C5.93786 10.8535 5.9605 10.8384 5.98314 10.8271L6.05861 10.8686L6.06239 12.1554Z" fill="#DF3260"/>
<path d="M6.06436 12.1554C5.93227 12.2347 5.78887 12.3177 5.64547 12.4007C5.49832 12.4875 5.35492 12.5667 5.22661 12.6384L5.20775 12.6498L5.1851 12.646C5.03037 12.6347 4.93228 12.5781 4.90209 12.4837L4.89831 12.4686L4.89453 11.1818L4.91339 11.1705C5.03793 11.0988 5.18133 11.0158 5.32473 10.9328C5.46812 10.8498 5.6153 10.763 5.74737 10.6875L5.81906 10.7328V10.8158L5.9134 10.8686C5.93982 10.8535 5.96246 10.8422 5.9851 10.8271L6.0568 10.8686V10.8724L6.06436 12.1554Z" fill="#DF3260"/>
<path d="M5.00781 11.2016L5.01146 12.4887C5.1263 12.4221 5.2545 12.3479 5.38448 12.2729C5.5346 12.1862 5.68712 12.0984 5.82444 12.0196L5.82079 10.7324C5.68347 10.8112 5.53095 10.8991 5.38083 10.9857C5.25085 11.0608 5.12265 11.135 5.00781 11.2016Z" fill="#DF3260"/>
<path d="M5.21029 12.6497L5.18506 12.6473C5.02974 12.6335 4.93198 12.5771 4.9032 12.4841L4.89808 12.4687L4.89453 11.1816L4.89926 11.197C4.92843 11.29 5.02619 11.3464 5.18151 11.3602L5.20674 11.3622L5.21029 12.6497Z" fill="#E93565"/>
<path d="M5.13546 11.3411L4.99219 11.2577L5.78988 10.7969L5.91591 10.8708L5.13546 11.3411Z" fill="#F3F1FC"/>
<path d="M5.32589 10.9321C5.18181 11.0153 5.03929 11.0978 4.91393 11.1706L4.89453 11.1818L4.89956 11.1973C4.92862 11.2902 5.02613 11.3466 5.18152 11.3605L5.20692 11.3627L5.22555 11.3523C5.35374 11.2812 5.49773 11.1994 5.6421 11.116C5.78628 11.0328 5.93085 10.948 6.06002 10.8706L5.98518 10.8286C5.85579 10.9061 5.71102 10.9911 5.56661 11.0745C5.43075 11.1529 5.29521 11.2299 5.17296 11.298C5.0843 11.2861 5.0312 11.255 5.00761 11.2014C5.12245 11.1348 5.25064 11.0607 5.38063 10.9856C5.53075 10.8989 5.68327 10.8111 5.82058 10.7323L5.74726 10.6895C5.61564 10.765 5.46998 10.8489 5.32589 10.9321Z" fill="#F45170"/>
<path d="M5.01781 11.2207L4.93945 11.2671C4.99135 11.3213 5.07231 11.3505 5.17659 11.36L5.1725 11.2981C5.09278 11.2875 5.042 11.2613 5.01781 11.2207Z" fill="#F45170"/>
<path d="M6.06403 12.1582C5.93473 12.2358 5.79006 12.3206 5.64578 12.4038C5.5015 12.4869 5.35762 12.5689 5.2295 12.6399L5.21058 12.6505L5.20703 11.3631L5.22556 11.3528C5.35407 11.2819 5.49795 11.1999 5.64223 11.1167C5.78651 11.0335 5.93118 10.9484 6.06009 10.8711L6.06403 12.1582Z" fill="#DF3260"/>
<path d="M5.38086 11.572C5.48678 11.5127 5.60944 11.4429 5.75261 11.3604C5.7977 11.3344 5.84333 11.3079 5.88903 11.2812L5.89105 11.6769C5.78247 11.7413 5.66241 11.8114 5.53805 11.8831C5.4834 11.9146 5.43166 11.9443 5.38263 11.9723L5.38086 11.572Z" fill="#E93565"/>
<path d="M5.4008 12.1068C5.39259 12.1068 5.38461 12.1026 5.38019 12.0949C5.37356 12.0836 5.37745 12.069 5.38882 12.0624L5.85901 11.7865C5.87026 11.7798 5.88489 11.7837 5.89154 11.7951C5.89817 11.8065 5.89429 11.821 5.88292 11.8276L5.41273 12.1036C5.40898 12.1058 5.40487 12.1068 5.4008 12.1068Z" fill="#E93565"/>
<path d="M5.4008 12.2396C5.39259 12.2396 5.38461 12.2354 5.38019 12.2278C5.37356 12.2164 5.37745 12.2018 5.38882 12.1952L5.85901 11.9193C5.87026 11.9126 5.88489 11.9165 5.89154 11.9279C5.89817 11.9393 5.89429 11.9538 5.88292 11.9604L5.41273 12.2364C5.40898 12.2386 5.40487 12.2396 5.4008 12.2396Z" fill="#E93565"/>
<path d="M5.54182 12.2852L6.63425 11.6504L6.63149 12.5432L5.53906 13.1781L5.54182 12.2852Z" fill="#C9CEE2"/>
<path d="M5.37305 12.1876L6.46547 11.5527L6.6363 11.6514L5.54387 12.2862L5.37305 12.1876Z" fill="#E3E7F0"/>
<path d="M5.54347 12.286L5.54071 13.1788L3.72266 12.1292L3.72542 11.2363L3.89624 11.335L3.89404 12.0315L5.37044 12.8839L5.37264 12.1874L5.54347 12.286Z" fill="#B0B8CF"/>
<path d="M11.4648 8.59816L10.7452 9.0136L9.82585 8.47952L9.82422 7.91739L10.5438 7.50195L11.4631 8.03644L11.4648 8.59816Z" fill="#F45170"/>
<path d="M11.4639 8.03597V8.59823L10.7469 9.01334L9.82617 8.48125V7.91899L10.5432 7.50391L11.4639 8.03597Z" fill="#DF3260"/>
<path d="M9.82606 8.47965C9.82142 7.22175 9.82741 8.94342 9.82436 7.91797L10.7435 8.45241C10.7436 8.49041 10.7453 9.05209 10.7452 9.01409L9.82606 8.47965Z" fill="#DF3260"/>
<path d="M11.4658 8.59768L10.7458 9.01299C10.7456 8.94712 10.744 8.40471 10.7441 8.45131L11.4641 8.03516C11.4643 8.10102 11.4659 8.64428 11.4658 8.59768Z" fill="#E93565"/>
<path d="M9.82422 7.91737L10.7436 8.45166L11.4631 8.03624L10.5437 7.50195L9.82422 7.91737Z" fill="#F45170"/>
<path d="M10.5483 8.43339C10.5483 8.46557 10.5715 8.50585 10.5995 8.52202L10.5988 8.77139C10.5708 8.75522 10.5474 8.76857 10.5473 8.80074L10.0199 8.49626C10.02 8.46408 9.99675 8.4238 9.96875 8.40763L9.96946 8.15826C9.99746 8.17442 10.0209 8.16108 10.021 8.12891L10.5483 8.43339Z" fill="#E93565"/>
<path d="M10.323 7.78974C10.2624 7.82468 10.2621 7.88127 10.3222 7.91622L10.7458 8.16167C10.8059 8.19662 10.9036 8.19662 10.9642 8.16167C11.0244 8.12689 11.0247 8.07031 10.9646 8.03536L10.541 7.7899C10.4809 7.75496 10.3832 7.75496 10.323 7.78974Z" fill="#DF3260"/>
<path d="M10.2969 7.85384C10.2969 7.86173 10.2995 7.86999 10.3051 7.87751C10.3112 7.88577 10.3202 7.89366 10.3322 7.9008L10.7556 8.14614C10.7819 8.16154 10.8176 8.16981 10.8556 8.16981C10.8935 8.16981 10.9288 8.16154 10.9555 8.14614C10.9675 8.139 10.9769 8.13073 10.9829 8.12247C10.9886 8.11496 10.9912 8.10706 10.9912 8.09918C10.9912 8.08227 10.9788 8.06574 10.9559 8.05221L10.5321 7.80687C10.5058 7.79147 10.4705 7.7832 10.4325 7.7832C10.3946 7.7832 10.3592 7.79147 10.3329 7.80687C10.3096 7.82002 10.2969 7.83693 10.2969 7.85384Z" fill="#4C5C75"/>
<path d="M10.445 7.78389C10.4408 7.78368 10.4368 7.7832 10.4325 7.7832C10.3946 7.7832 10.3592 7.79147 10.3329 7.80687C10.3096 7.82002 10.2969 7.83693 10.2969 7.85384C10.2969 7.86173 10.2995 7.86999 10.3051 7.87751C10.3112 7.88577 10.3202 7.89366 10.3322 7.9008L10.445 7.96617V7.78389Z" fill="#1D2943"/>
<path d="M11.0933 7.62874C11.0633 7.7501 10.9663 7.84816 10.9337 7.96989C10.9243 8.0052 10.9205 8.04202 10.9201 8.07884C10.9194 8.10514 10.9205 8.13182 10.9224 8.15812V8.16C10.9021 8.16638 10.8788 8.16977 10.8548 8.16977C10.8288 8.16977 10.8037 8.16601 10.7822 8.1585C10.7766 8.15661 10.7713 8.15436 10.7665 8.15211C10.7623 8.15023 10.7586 8.14835 10.7548 8.1461L10.6624 8.09275L10.6459 8.08298L10.5253 8.01309L10.5084 8.00333L10.3314 7.90076C10.3269 7.89813 10.3228 7.89512 10.319 7.89212C10.3378 7.87558 10.3562 7.8583 10.3705 7.83801C10.3731 7.83426 10.3757 7.83012 10.3784 7.82599C10.4028 7.78466 10.4084 7.73507 10.4133 7.68735C10.4159 7.66068 10.4186 7.634 10.4174 7.60733C10.4122 7.49837 10.3427 7.40294 10.3096 7.29962C10.3032 7.27896 10.3288 7.2643 10.3438 7.28009C10.4227 7.36612 10.5223 7.43375 10.632 7.4747C10.6699 7.48898 10.709 7.49987 10.7481 7.51115L11.0791 7.60507C11.0896 7.60808 11.096 7.6186 11.0933 7.62874Z" fill="#F3F1FC"/>
<path d="M10.9028 7.70117C10.8716 7.75039 10.8517 7.80487 10.8351 7.85972C10.8205 7.90894 10.81 7.95928 10.8017 8.00963C10.8006 8.01602 10.7998 8.02203 10.7987 8.02841C10.7912 8.07087 10.7859 8.11408 10.7814 8.15728C10.7758 8.1554 10.7705 8.15315 10.7656 8.1509C10.769 8.10882 10.7739 8.06711 10.7803 8.02541C10.7818 8.01677 10.7833 8.0085 10.7848 7.99986C10.7938 7.95102 10.8047 7.90255 10.8212 7.85521C10.8408 7.80036 10.8652 7.74588 10.9028 7.70117Z" fill="#DEDFFB"/>
<path d="M10.7062 7.60547C10.7006 7.71668 10.6904 7.82751 10.6795 7.93797C10.6765 7.96765 10.6735 7.99696 10.6705 8.02664C10.6679 8.04843 10.6656 8.06984 10.663 8.09164L10.6465 8.08187C10.6484 8.06271 10.6502 8.04392 10.6521 8.02476C10.6559 7.99283 10.6593 7.96051 10.663 7.92858C10.6754 7.82075 10.6886 7.71254 10.7062 7.60547Z" fill="#DEDFFB"/>
<path d="M10.5253 7.8918C10.5256 7.93238 10.526 7.97258 10.5253 8.01278L10.5084 8.00301C10.5084 7.96619 10.5076 7.92937 10.5065 7.89255C10.5065 7.87564 10.5057 7.85874 10.5053 7.84183C10.5035 7.78698 10.4993 7.7325 10.4941 7.6784C10.4869 7.60739 10.4775 7.53638 10.4531 7.46875C10.4847 7.53375 10.4986 7.60588 10.5087 7.67689C10.5166 7.734 10.5211 7.79186 10.5234 7.84934C10.5241 7.86362 10.5249 7.87752 10.5253 7.8918Z" fill="#DEDFFB"/>
<path d="M9.55078 3.0334C9.65687 2.97401 9.77971 2.90408 9.9231 2.82144C9.96826 2.79539 10.014 2.7689 10.0597 2.74219L10.0618 3.1384C9.953 3.20292 9.83276 3.27317 9.70822 3.34496C9.65348 3.37653 9.60166 3.40627 9.55255 3.43434L9.55078 3.0334Z" fill="#497BFE"/>
<path d="M9.57076 3.56824C9.56253 3.56824 9.55454 3.564 9.55012 3.55636C9.54348 3.54497 9.54737 3.53039 9.55876 3.52377L10.0297 3.24741C10.0409 3.24075 10.0556 3.24459 10.0623 3.25605C10.0689 3.26744 10.065 3.28202 10.0536 3.28864L9.58271 3.565C9.57896 3.56719 9.57483 3.56824 9.57076 3.56824Z" fill="#497BFE"/>
<path d="M9.57076 3.70105C9.56253 3.70105 9.55454 3.69681 9.55012 3.68917C9.54348 3.67778 9.54737 3.6632 9.55876 3.65658L10.0297 3.38022C10.0409 3.37356 10.0556 3.3774 10.0623 3.38886C10.0689 3.40025 10.065 3.41484 10.0536 3.42145L9.58271 3.69782C9.57896 3.70001 9.57483 3.70105 9.57076 3.70105Z" fill="#497BFE"/>
<path d="M10.664 3.86819C10.5357 3.94367 10.3885 4.03045 10.2451 4.11346C10.1017 4.19649 9.95453 4.2795 9.82622 4.3512L9.80735 4.35875H9.78471C9.63001 4.34367 9.53189 4.28705 9.5017 4.19271L9.49792 4.17763L9.49414 2.89082L9.513 2.87951C9.63754 2.80404 9.78094 2.72103 9.92433 2.638C10.0677 2.55499 10.2149 2.47196 10.347 2.39648L10.4187 2.43801V2.52102L10.5168 2.57763C10.5394 2.56252 10.5621 2.55121 10.5847 2.53611L10.6602 2.57763L10.664 3.86819Z" fill="#E93565"/>
<path d="M9.60547 2.90932L9.60912 4.19843C9.72414 4.13172 9.85253 4.05743 9.98271 3.98227C10.1331 3.89547 10.2858 3.80749 10.4233 3.72856L10.4197 2.43945C10.2822 2.51838 10.1294 2.60636 9.97906 2.69316C9.84887 2.76832 9.72048 2.84261 9.60547 2.90932Z" fill="#DF3260"/>
<path d="M9.80843 4.35893L9.78316 4.35656C9.62761 4.34274 9.52969 4.28629 9.50087 4.19311L9.49574 4.17772L9.49219 2.88867L9.49692 2.90407C9.52614 2.99724 9.62405 3.0537 9.7796 3.06752L9.80487 3.06949L9.80843 4.35893Z" fill="#E93565"/>
<path d="M9.73334 3.04896L9.58984 2.96545L10.3888 2.50391L10.515 2.57795L9.73334 3.04896Z" fill="#F3F1FC"/>
<path d="M9.92421 2.63948C9.7799 2.72279 9.63716 2.80542 9.51162 2.87834L9.49219 2.88956L9.49723 2.90507C9.52633 2.99812 9.62399 3.05466 9.77962 3.06852L9.80505 3.07072L9.82372 3.06038C9.9521 2.9891 10.0963 2.90716 10.2409 2.82368C10.3853 2.74031 10.5301 2.6554 10.6595 2.57786L10.5845 2.53584C10.4549 2.61348 10.3099 2.69862 10.1653 2.78212C10.0292 2.86068 9.89348 2.93779 9.77105 3.00593C9.68225 2.99405 9.62906 2.96292 9.60544 2.90925C9.72045 2.84254 9.84884 2.76825 9.97903 2.69309C10.1294 2.60629 10.2821 2.51831 10.4197 2.43938L10.3462 2.39648C10.2144 2.47216 10.0685 2.55616 9.92421 2.63948Z" fill="#F45170"/>
<path d="M9.61558 2.92773L9.53711 2.97417C9.58909 3.02853 9.67017 3.05778 9.77461 3.06722L9.77051 3.00522C9.69067 2.9946 9.63981 2.96835 9.61558 2.92773Z" fill="#F45170"/>
<path d="M10.663 3.86717C10.5335 3.94494 10.3886 4.02983 10.2441 4.11313C10.0996 4.19644 9.9555 4.27856 9.82719 4.34962L9.80824 4.36028L9.80469 3.07084L9.82324 3.06058C9.95195 2.98951 10.0961 2.90739 10.2406 2.82409C10.3851 2.74078 10.5299 2.65551 10.659 2.57812L10.663 3.86717Z" fill="#DF3260"/>
<path d="M9.97852 3.27949C10.0846 3.22011 10.2074 3.15017 10.3508 3.06753C10.396 3.04148 10.4417 3.01499 10.4875 2.98828L10.4895 3.38449C10.3807 3.44901 10.2605 3.51927 10.136 3.59106C10.0812 3.62263 10.0294 3.65236 9.98028 3.68043L9.97852 3.27949Z" fill="#F3F1FC"/>
<path d="M9.99849 3.81434C9.99027 3.81434 9.98228 3.8101 9.97785 3.80246C9.97121 3.79106 9.9751 3.77648 9.98649 3.76987L10.4574 3.4935C10.4687 3.48684 10.4833 3.49068 10.49 3.50214C10.4966 3.51354 10.4927 3.52812 10.4813 3.53473L10.0104 3.8111C10.0067 3.81329 10.0026 3.81434 9.99849 3.81434Z" fill="#F3F1FC"/>
<path d="M9.99849 3.94715C9.99027 3.94715 9.98228 3.94291 9.97785 3.93527C9.97121 3.92388 9.9751 3.90929 9.98649 3.90268L10.4574 3.62631C10.4687 3.61965 10.4833 3.6235 10.49 3.63496C10.4966 3.64635 10.4927 3.66093 10.4813 3.66755L10.0104 3.94391C10.0067 3.9461 10.0026 3.94715 9.99849 3.94715Z" fill="#F3F1FC"/>
<path d="M11.0935 4.11439C10.9614 4.19365 10.818 4.27668 10.6746 4.35968C10.5275 4.44647 10.3841 4.52572 10.2558 4.59742L10.2369 4.60875L10.2105 4.60498C10.0558 4.59364 9.95767 4.53705 9.93125 4.44271L9.9237 4.42761L9.91992 3.13705L9.93879 3.12571C10.0671 3.05401 10.2067 2.97101 10.3539 2.88798C10.4973 2.80497 10.6444 2.72196 10.7765 2.64648L10.8482 2.68799V2.771L10.9426 2.82761C10.969 2.81252 10.9916 2.80119 11.0143 2.78611L11.086 2.82761V2.83139L11.0935 4.11439Z" fill="#5EC363"/>
<path d="M10.0332 3.15737L10.0369 4.44648C10.1519 4.37977 10.2803 4.30548 10.4104 4.23032C10.5608 4.14351 10.7135 4.05554 10.8511 3.97661L10.8474 2.6875C10.7099 2.76643 10.5571 2.85441 10.4068 2.94121C10.2766 3.01637 10.1482 3.09066 10.0332 3.15737Z" fill="#5EC363"/>
<path d="M10.2362 4.60893L10.2109 4.60656C10.0553 4.59274 9.95743 4.53629 9.92861 4.44311L9.92347 4.42772L9.91992 3.13867L9.92466 3.15407C9.95387 3.24724 10.0518 3.3037 10.2073 3.31752L10.2326 3.31949L10.2362 4.60893Z" fill="#5EC363"/>
<path d="M10.1611 3.29701L10.0176 3.2135L10.8165 2.75195L10.9427 2.826L10.1611 3.29701Z" fill="#F3F1FC"/>
<path d="M10.3519 2.88752C10.2076 2.97084 10.0649 3.05347 9.93935 3.12639L9.91992 3.13761L9.92496 3.15312C9.95406 3.24617 10.0517 3.3027 10.2074 3.31656L10.2328 3.31876L10.2515 3.30842C10.3798 3.23715 10.524 3.15521 10.6686 3.07173C10.813 2.98836 10.9578 2.90345 11.0872 2.82591L11.0122 2.78389C10.8827 2.86153 10.7377 2.94667 10.593 3.03017C10.457 3.10873 10.3212 3.18584 10.1988 3.25398C10.11 3.2421 10.0568 3.21097 10.0332 3.1573C10.1482 3.09059 10.2766 3.0163 10.4068 2.94114C10.5571 2.85433 10.7099 2.76636 10.8474 2.68743L10.774 2.64453C10.6421 2.7202 10.4963 2.80421 10.3519 2.88752Z" fill="#78E75A"/>
<path d="M10.0433 3.17578L9.96484 3.22221C10.0168 3.27658 10.0979 3.30582 10.2023 3.31526L10.1982 3.25327C10.1184 3.24264 10.0675 3.21639 10.0433 3.17578Z" fill="#78E75A"/>
<path d="M11.0907 4.11521C10.9612 4.19299 10.8163 4.27788 10.6718 4.36118C10.5273 4.44448 10.3832 4.5266 10.2549 4.59767L10.236 4.60833L10.2324 3.31889L10.251 3.30862C10.3797 3.23756 10.5238 3.15544 10.6683 3.07214C10.8128 2.98883 10.9577 2.90355 11.0868 2.82617L11.0907 4.11521Z" fill="#72D561"/>
<path d="M10.4062 3.52949C10.5123 3.47011 10.6352 3.40017 10.7786 3.31753C10.8237 3.29148 10.8694 3.26499 10.9152 3.23828L10.9172 3.63449C10.8085 3.69901 10.6882 3.76927 10.5637 3.84106C10.5089 3.87263 10.4571 3.90236 10.408 3.93043L10.4062 3.52949Z" fill="#5EC363"/>
<path d="M10.4262 4.06434C10.418 4.06434 10.41 4.0601 10.4056 4.05246C10.3989 4.04106 10.4028 4.02648 10.4142 4.01987L10.8851 3.7435C10.8964 3.73684 10.9111 3.74068 10.9177 3.75214C10.9244 3.76354 10.9205 3.77812 10.9091 3.78473L10.4382 4.0611C10.4344 4.06329 10.4303 4.06434 10.4262 4.06434Z" fill="#5EC363"/>
<path d="M10.4262 4.19715C10.418 4.19715 10.41 4.19291 10.4056 4.18527C10.3989 4.17388 10.4028 4.15929 10.4142 4.15268L10.8851 3.87631C10.8964 3.86965 10.9111 3.8735 10.9177 3.88496C10.9244 3.89635 10.9205 3.91093 10.9091 3.91755L10.4382 4.19391C10.4344 4.1961 10.4303 4.19715 10.4262 4.19715Z" fill="#5EC363"/>
<path d="M10.6191 3.65059C10.7252 3.5912 10.8481 3.52126 10.9915 3.43863C11.0366 3.41258 11.0823 3.38608 11.1281 3.35938L11.1301 3.75558C11.0214 3.82011 10.9011 3.89036 10.7766 3.96215C10.7218 3.99372 10.67 4.02346 10.6209 4.05153L10.6191 3.65059Z" fill="#497BFE"/>
<path d="M10.6391 4.18543C10.6309 4.18543 10.6229 4.18119 10.6185 4.17355C10.6118 4.16216 10.6157 4.14758 10.6271 4.14096L11.098 3.8646C11.1093 3.85793 11.124 3.86178 11.1306 3.87324C11.1373 3.88463 11.1334 3.89921 11.122 3.90583L10.6511 4.18219C10.6473 4.18438 10.6432 4.18543 10.6391 4.18543Z" fill="#497BFE"/>
<path d="M10.6391 4.31824C10.6309 4.31824 10.6229 4.314 10.6185 4.30636C10.6118 4.29497 10.6157 4.28039 10.6271 4.27377L11.098 3.99741C11.1093 3.99075 11.124 3.99459 11.1306 4.00605C11.1373 4.01744 11.1334 4.03202 11.122 4.03864L10.6511 4.315C10.6473 4.31719 10.6432 4.31824 10.6391 4.31824Z" fill="#497BFE"/>
<path d="M11.7323 4.48343C11.604 4.56266 11.4568 4.64569 11.3134 4.7287C11.17 4.81173 11.0266 4.89473 10.8984 4.96643L10.8795 4.97776L10.8531 4.97399C10.6983 4.9589 10.6002 4.90607 10.5701 4.81173L10.5663 4.79664L10.5625 3.50606L10.5814 3.49475C10.7059 3.42305 10.8493 3.34002 10.9927 3.25701C11.1361 3.17398 11.2832 3.09097 11.4153 3.01172L11.487 3.057V3.14003L11.5851 3.19287C11.6078 3.17776 11.6304 3.16645 11.6531 3.15134L11.7285 3.19662L11.7323 4.48343Z" fill="#E93565"/>
<path d="M10.6738 3.52651L10.6775 4.81562C10.7925 4.74891 10.9209 4.67462 11.0511 4.59946C11.2014 4.51265 11.3542 4.42468 11.4917 4.34575L11.488 3.05664C11.3505 3.13557 11.1978 3.22355 11.0474 3.31035C10.9172 3.38551 10.7888 3.4598 10.6738 3.52651Z" fill="#DF3260"/>
<path d="M10.8768 4.97807L10.8515 4.9757C10.696 4.96188 10.5981 4.90543 10.5692 4.81225L10.5641 4.79686L10.5605 3.50781L10.5653 3.52321C10.5945 3.61638 10.6924 3.67284 10.848 3.68666L10.8732 3.68863L10.8768 4.97807Z" fill="#E93565"/>
<path d="M10.8017 3.66615L10.6582 3.58264L11.4571 3.12109L11.5833 3.19514L10.8017 3.66615Z" fill="#F3F1FC"/>
<path d="M10.9926 3.25666C10.8483 3.33998 10.7055 3.42261 10.58 3.49553L10.5605 3.50675L10.5656 3.52226C10.5947 3.61531 10.6923 3.67184 10.848 3.6857L10.8734 3.6879L10.8921 3.67756C11.0205 3.60629 11.1647 3.52435 11.3093 3.44087C11.4537 3.3575 11.5985 3.27259 11.7278 3.19505L11.6529 3.15303C11.5233 3.23067 11.3783 3.31581 11.2337 3.39931C11.0976 3.47787 10.9618 3.55498 10.8394 3.62312C10.7506 3.61124 10.6974 3.58011 10.6738 3.52644C10.7888 3.45973 10.9172 3.38544 11.0474 3.31028C11.1977 3.22347 11.3505 3.1355 11.488 3.05657L11.4146 3.01367C11.2828 3.08934 11.1369 3.17335 10.9926 3.25666Z" fill="#F45170"/>
<path d="M10.6839 3.54492L10.6055 3.59135C10.6574 3.64572 10.7385 3.67496 10.843 3.6844L10.8389 3.62241C10.759 3.61178 10.7082 3.58554 10.6839 3.54492Z" fill="#F45170"/>
<path d="M11.7314 4.48435C11.6019 4.56213 11.457 4.64702 11.3125 4.73032C11.168 4.81362 11.0239 4.89574 10.8956 4.96681L10.8766 4.97747L10.873 3.68803L10.8916 3.67776C11.0203 3.6067 11.1644 3.52458 11.3089 3.44128C11.4534 3.35797 11.5983 3.27269 11.7274 3.19531L11.7314 4.48435Z" fill="#DF3260"/>
<path d="M11.0469 3.89863C11.153 3.83925 11.2758 3.76931 11.4192 3.68667C11.4644 3.66063 11.5101 3.63413 11.5558 3.60742L11.5578 4.00363C11.4491 4.06815 11.3289 4.13841 11.2043 4.2102C11.1496 4.24177 11.0978 4.2715 11.0486 4.29957L11.0469 3.89863Z" fill="#F3F1FC"/>
<path d="M11.0668 4.43348C11.0586 4.43348 11.0506 4.42924 11.0462 4.4216C11.0396 4.4102 11.0435 4.39562 11.0549 4.38901L11.5258 4.11264C11.537 4.10598 11.5517 4.10982 11.5583 4.12128C11.565 4.13268 11.5611 4.14726 11.5497 4.15387L11.0788 4.43024C11.075 4.43243 11.0709 4.43348 11.0668 4.43348Z" fill="#F3F1FC"/>
<path d="M11.0668 4.56629C11.0586 4.56629 11.0506 4.56205 11.0462 4.55441C11.0396 4.54302 11.0435 4.52843 11.0549 4.52182L11.5258 4.24545C11.537 4.23879 11.5517 4.24264 11.5583 4.2541C11.565 4.26549 11.5611 4.28007 11.5497 4.28669L11.0788 4.56305C11.075 4.56524 11.0709 4.56629 11.0668 4.56629Z" fill="#F3F1FC"/>
<path d="M12.1619 4.7334C12.0298 4.80888 11.8864 4.89566 11.743 4.9787C11.5958 5.0617 11.4524 5.14473 11.3241 5.21643L11.3052 5.22396H11.2789C11.1241 5.20888 11.026 5.15227 10.9996 5.05793L10.9921 5.04284L10.9883 3.75606L11.0071 3.74473C11.1355 3.66925 11.2789 3.59002 11.4223 3.50321C11.5656 3.4202 11.7128 3.33717 11.8449 3.26172L11.9166 3.30322V3.38623L12.0109 3.44284C12.0373 3.42776 12.06 3.41643 12.0826 3.40134L12.1581 3.44284L12.1619 4.7334Z" fill="#5EC363"/>
<path d="M11.1016 3.77456L11.1052 5.06366C11.2202 4.99695 11.3486 4.92267 11.4788 4.84751C11.6292 4.7607 11.7819 4.67273 11.9194 4.59379L11.9158 3.30469C11.7783 3.38362 11.6255 3.47159 11.4751 3.5584C11.345 3.63356 11.2166 3.70785 11.1016 3.77456Z" fill="#5EC363"/>
<path d="M11.3045 5.22612L11.2793 5.22375C11.1237 5.20993 11.0258 5.15347 10.997 5.0603L10.9918 5.0449L10.9883 3.75586L10.993 3.77126C11.0222 3.86443 11.1201 3.92089 11.2757 3.93471L11.301 3.93668L11.3045 5.22612Z" fill="#5EC363"/>
<path d="M11.2294 3.9142L11.0859 3.83069L11.8848 3.36914L12.0111 3.44319L11.2294 3.9142Z" fill="#F3F1FC"/>
<path d="M11.4203 3.50471C11.276 3.58803 11.1333 3.67066 11.0077 3.74358L10.9883 3.7548L10.9933 3.7703C11.0224 3.86336 11.1201 3.91989 11.2757 3.93375L11.3011 3.93595L11.3198 3.92561C11.4482 3.85434 11.5924 3.7724 11.737 3.68892C11.8814 3.60554 12.0262 3.52063 12.1556 3.44309L12.0806 3.40108C11.951 3.47872 11.806 3.56385 11.6614 3.64736C11.5253 3.72592 11.3896 3.80303 11.2671 3.87117C11.1783 3.85929 11.1252 3.82816 11.1015 3.77448C11.2165 3.70778 11.3449 3.63349 11.4751 3.55833C11.6255 3.47152 11.7782 3.38355 11.9158 3.30462L11.8423 3.26172C11.7105 3.33739 11.5646 3.42139 11.4203 3.50471Z" fill="#78E75A"/>
<path d="M11.1117 3.79297L11.0332 3.8394C11.0852 3.89377 11.1663 3.92301 11.2707 3.93245L11.2666 3.87046C11.1868 3.85983 11.1359 3.83358 11.1117 3.79297Z" fill="#78E75A"/>
<path d="M12.1591 4.7324C12.0296 4.81018 11.8847 4.89506 11.7402 4.97837C11.5957 5.06167 11.4516 5.14379 11.3233 5.21486L11.3043 5.22552L11.3008 3.93608L11.3193 3.92581C11.448 3.85475 11.5921 3.77263 11.7366 3.68932C11.8811 3.60602 12.026 3.52074 12.1551 3.44336L12.1591 4.7324Z" fill="#72D561"/>
<path d="M11.4746 4.14668C11.5807 4.08729 11.7035 4.01736 11.8469 3.93472C11.8921 3.90867 11.9378 3.88218 11.9836 3.85547L11.9856 4.25168C11.8768 4.3162 11.7566 4.38646 11.632 4.45825C11.5773 4.48981 11.5255 4.51955 11.4764 4.54762L11.4746 4.14668Z" fill="#5EC363"/>
<path d="M11.4946 4.68152C11.4864 4.68152 11.4784 4.67728 11.4739 4.66964C11.4673 4.65825 11.4712 4.64367 11.4826 4.63705L11.9535 4.36069C11.9648 4.35403 11.9794 4.35787 11.9861 4.36933C11.9927 4.38072 11.9888 4.39531 11.9774 4.40192L11.5065 4.67829C11.5028 4.68047 11.4987 4.68152 11.4946 4.68152Z" fill="#5EC363"/>
<path d="M11.4946 4.81434C11.4864 4.81434 11.4784 4.8101 11.4739 4.80246C11.4673 4.79106 11.4712 4.77648 11.4826 4.76987L11.9535 4.4935C11.9648 4.48684 11.9794 4.49068 11.9861 4.50214C11.9927 4.51354 11.9888 4.52812 11.9774 4.53473L11.5065 4.8111C11.5028 4.81329 11.4987 4.81434 11.4946 4.81434Z" fill="#5EC363"/>
<path d="M11.6875 4.26777C11.7936 4.20839 11.9164 4.13845 12.0598 4.05581C12.105 4.02977 12.1507 4.00327 12.1964 3.97656L12.1985 4.37277C12.0897 4.43729 11.9695 4.50755 11.8449 4.57934C11.7902 4.61091 11.7384 4.64064 11.6893 4.66871L11.6875 4.26777Z" fill="#497BFE"/>
<path d="M11.7075 4.80262C11.6993 4.80262 11.6913 4.79838 11.6868 4.79074C11.6802 4.77935 11.6841 4.76476 11.6955 4.75815L12.1664 4.48178C12.1777 4.47512 12.1923 4.47896 12.199 4.49043C12.2056 4.50182 12.2017 4.5164 12.1903 4.52302L11.7194 4.79938C11.7157 4.80157 11.7116 4.80262 11.7075 4.80262Z" fill="#497BFE"/>
<path d="M11.7075 4.93543C11.6993 4.93543 11.6913 4.93119 11.6868 4.92355C11.6802 4.91216 11.6841 4.89758 11.6955 4.89096L12.1664 4.6146C12.1777 4.60793 12.1923 4.61178 12.199 4.62324C12.2056 4.63463 12.2017 4.64921 12.1903 4.65583L11.7194 4.93219C11.7157 4.93438 11.7116 4.93543 11.7075 4.93543Z" fill="#497BFE"/>
<path d="M12.7987 5.10257C12.6704 5.17802 12.5232 5.26483 12.3798 5.34784C12.2364 5.43087 12.093 5.51387 11.9647 5.5818L11.9459 5.59313H11.9195C11.7647 5.57802 11.6666 5.52143 11.6364 5.42709L11.6327 5.41198L11.6289 4.1252L11.6478 4.11387C11.7723 4.03841 11.9157 3.95538 12.0591 3.87237C12.2025 3.78934 12.3497 3.70634 12.4817 3.63086L12.5572 3.67236V3.75539L12.6515 3.81198C12.6742 3.7969 12.6968 3.78181 12.7195 3.77048L12.7949 3.81198L12.7987 5.10257Z" fill="#E93565"/>
<path d="M11.7422 4.1437L11.7458 5.4328C11.8609 5.3661 11.9892 5.29181 12.1194 5.21665C12.2698 5.12984 12.4225 5.04187 12.5601 4.96294L12.5564 3.67383C12.4189 3.75276 12.2661 3.84073 12.1158 3.92754C11.9856 4.0027 11.8572 4.07699 11.7422 4.1437Z" fill="#DF3260"/>
<path d="M11.9451 5.59526L11.9199 5.59289C11.7643 5.57907 11.6664 5.52262 11.6376 5.42944L11.6325 5.41404L11.6289 4.125L11.6336 4.1404C11.6629 4.23357 11.7608 4.29003 11.9163 4.30385L11.9416 4.30582L11.9451 5.59526Z" fill="#E93565"/>
<path d="M11.8701 4.28334L11.7266 4.19983L12.5255 3.73828L12.6517 3.81233L11.8701 4.28334Z" fill="#F3F1FC"/>
<path d="M12.0609 3.87385C11.9166 3.95717 11.7739 4.0398 11.6483 4.11272L11.6289 4.12394L11.6339 4.13945C11.663 4.2325 11.7607 4.28903 11.9163 4.30289L11.9418 4.30509L11.9604 4.29475C12.0888 4.22348 12.233 4.14154 12.3776 4.05806C12.522 3.97469 12.6668 3.88977 12.7962 3.81223L12.7212 3.77022C12.5916 3.84786 12.4466 3.93299 12.302 4.0165C12.1659 4.09506 12.0302 4.17217 11.9078 4.24031C11.819 4.22843 11.7658 4.1973 11.7422 4.14363C11.8572 4.07692 11.9856 4.00263 12.1157 3.92747C12.2661 3.84066 12.4188 3.75269 12.5564 3.67376L12.4829 3.63086C12.3511 3.70653 12.2052 3.79054 12.0609 3.87385Z" fill="#F45170"/>
<path d="M11.7523 4.16211L11.6738 4.20854C11.7258 4.26291 11.8069 4.29215 11.9113 4.30159L11.9072 4.2396C11.8274 4.22897 11.7765 4.20272 11.7523 4.16211Z" fill="#F45170"/>
<path d="M12.7997 5.10154C12.6702 5.17932 12.5253 5.2642 12.3808 5.34751C12.2363 5.43081 12.0922 5.51293 11.9639 5.584L11.945 5.59466L11.9414 4.30522L11.96 4.29495C12.0887 4.22389 12.2328 4.14177 12.3773 4.05846C12.5218 3.97516 12.6667 3.88988 12.7958 3.8125L12.7997 5.10154Z" fill="#DF3260"/>
<path d="M12.1152 4.51582C12.2213 4.45644 12.3442 4.3865 12.4876 4.30386C12.5327 4.27781 12.5784 4.25132 12.6242 4.22461L12.6262 4.62082C12.5175 4.68534 12.3972 4.7556 12.2727 4.82739C12.2179 4.85895 12.1661 4.88869 12.117 4.91676L12.1152 4.51582Z" fill="#F3F1FC"/>
<path d="M12.1352 5.05066C12.127 5.05066 12.119 5.04642 12.1146 5.03878C12.1079 5.02739 12.1118 5.01281 12.1232 5.00619L12.5941 4.72983C12.6054 4.72317 12.62 4.72701 12.6267 4.73847C12.6333 4.74986 12.6295 4.76445 12.6181 4.77106L12.1472 5.04743C12.1434 5.04962 12.1393 5.05066 12.1352 5.05066Z" fill="#F3F1FC"/>
<path d="M12.1352 5.18348C12.127 5.18348 12.119 5.17924 12.1146 5.1716C12.1079 5.1602 12.1118 5.14562 12.1232 5.13901L12.5941 4.86264C12.6054 4.85598 12.62 4.85982 12.6267 4.87128C12.6333 4.88268 12.6295 4.89726 12.6181 4.90387L12.1472 5.18024C12.1434 5.18243 12.1393 5.18348 12.1352 5.18348Z" fill="#F3F1FC"/>
<path d="M13.2302 5.34864C13.0981 5.42789 12.9548 5.5109 12.8114 5.59393C12.6642 5.67694 12.5208 5.75997 12.3925 5.83167L12.3736 5.84298L12.3472 5.8392C12.1925 5.82789 12.0944 5.77128 12.0679 5.67694L12.0604 5.66185L12.0566 4.37129L12.0793 4.35996C12.2038 4.28826 12.3472 4.20525 12.4906 4.12222C12.634 4.03921 12.7812 3.95618 12.9132 3.87695L12.9849 3.92223V4.00524L13.0793 4.05808C13.1057 4.04299 13.1283 4.03166 13.151 4.01657L13.2264 4.06186L13.2302 5.34864Z" fill="#5EC363"/>
<path d="M12.1699 4.39174L12.1736 5.68085C12.2886 5.61414 12.417 5.53985 12.5472 5.46469C12.6975 5.37789 12.8503 5.28991 12.9878 5.21098L12.9841 3.92188C12.8466 4.00081 12.6939 4.08878 12.5435 4.17559C12.4133 4.25075 12.2849 4.32503 12.1699 4.39174Z" fill="#5EC363"/>
<path d="M12.3729 5.84331L12.3476 5.84094C12.1921 5.82712 12.0941 5.77066 12.0653 5.67749L12.0602 5.66209L12.0566 4.37305L12.0614 4.38844C12.0906 4.48162 12.1885 4.53808 12.3441 4.5519L12.3693 4.55387L12.3729 5.84331Z" fill="#5EC363"/>
<path d="M12.2978 4.53139L12.1543 4.44787L12.9532 3.98633L13.0794 4.06037L12.2978 4.53139Z" fill="#F3F1FC"/>
<path d="M12.4887 4.1219C12.3444 4.20521 12.2016 4.28784 12.0761 4.36076L12.0566 4.37198L12.0617 4.38749C12.0908 4.48054 12.1884 4.53708 12.3441 4.55094L12.3695 4.55314L12.3882 4.5428C12.5166 4.47153 12.6608 4.38958 12.8054 4.3061C12.9498 4.22273 13.0945 4.13782 13.2239 4.06028L13.149 4.01826C13.0194 4.09591 12.8744 4.18104 12.7297 4.26455C12.5937 4.3431 12.4579 4.42022 12.3355 4.48835C12.2467 4.47647 12.1935 4.44535 12.1699 4.39167C12.2849 4.32496 12.4133 4.25067 12.5435 4.17551C12.6938 4.08871 12.8466 4.00073 12.9841 3.9218L12.9107 3.87891C12.7788 3.95458 12.633 4.03858 12.4887 4.1219Z" fill="#78E75A"/>
<path d="M12.18 4.41016L12.1016 4.45659C12.1535 4.51095 12.2346 4.5402 12.3391 4.54964L12.335 4.48764C12.2551 4.47702 12.2043 4.45077 12.18 4.41016Z" fill="#78E75A"/>
<path d="M13.2274 5.34959C13.098 5.42737 12.9531 5.51225 12.8086 5.59555C12.6641 5.67886 12.52 5.76098 12.3916 5.83204L12.3727 5.8427L12.3691 4.55326L12.3877 4.543C12.5164 4.47193 12.6605 4.38981 12.805 4.30651C12.9495 4.22321 13.0944 4.13793 13.2235 4.06055L13.2274 5.34959Z" fill="#72D561"/>
<path d="M12.543 4.76387C12.6491 4.70448 12.7719 4.63455 12.9153 4.55191C12.9605 4.52586 13.0062 4.49936 13.0519 4.47266L13.0539 4.86887C12.9452 4.93339 12.8249 5.00364 12.7004 5.07543C12.6457 5.107 12.5938 5.13674 12.5447 5.16481L12.543 4.76387Z" fill="#5EC363"/>
<path d="M12.5629 5.29871C12.5547 5.29871 12.5467 5.29447 12.5423 5.28683C12.5357 5.27544 12.5396 5.26086 12.5509 5.25424L13.0219 4.97788C13.0331 4.97121 13.0478 4.97506 13.0544 4.98652C13.0611 4.99791 13.0572 5.01249 13.0458 5.01911L12.5749 5.29547C12.5711 5.29766 12.567 5.29871 12.5629 5.29871Z" fill="#5EC363"/>
<path d="M12.5629 5.43152C12.5547 5.43152 12.5467 5.42728 12.5423 5.41964C12.5357 5.40825 12.5396 5.39367 12.5509 5.38705L13.0219 5.11069C13.0331 5.10403 13.0478 5.10787 13.0544 5.11933C13.0611 5.13072 13.0572 5.14531 13.0458 5.15192L12.5749 5.42829C12.5711 5.43047 12.567 5.43152 12.5629 5.43152Z" fill="#5EC363"/>
<path d="M12.7559 4.88301C12.8619 4.82362 12.9848 4.75369 13.1282 4.67105C13.1733 4.645 13.219 4.6185 13.2648 4.5918L13.2668 4.98801C13.1581 5.05253 13.0378 5.12278 12.9133 5.19457C12.8586 5.22614 12.8067 5.25588 12.7576 5.28395L12.7559 4.88301Z" fill="#497BFE"/>
<path d="M12.7758 5.41785C12.7676 5.41785 12.7596 5.41361 12.7552 5.40597C12.7486 5.39458 12.7524 5.38 12.7638 5.37338L13.2347 5.09702C13.246 5.09036 13.2607 5.0942 13.2673 5.10566C13.274 5.11705 13.2701 5.13163 13.2587 5.13825L12.7878 5.41461C12.784 5.4168 12.7799 5.41785 12.7758 5.41785Z" fill="#497BFE"/>
<path d="M12.7758 5.55066C12.7676 5.55066 12.7596 5.54642 12.7552 5.53878C12.7486 5.52739 12.7524 5.51281 12.7638 5.50619L13.2347 5.22983C13.246 5.22317 13.2607 5.22701 13.2673 5.23847C13.274 5.24986 13.2701 5.26445 13.2587 5.27106L12.7878 5.54743C12.784 5.54962 12.7799 5.55066 12.7758 5.55066Z" fill="#497BFE"/>
<path d="M13.8671 5.71778C13.7388 5.79703 13.5916 5.88006 13.4482 5.96307C13.3048 6.0461 13.1614 6.12911 13.0331 6.20081L13.0143 6.21214L12.9878 6.20836C12.8331 6.19325 12.735 6.13666 12.7048 6.0461L12.701 6.03099L12.6973 4.74043L12.7162 4.7291C12.8407 4.6574 12.9841 4.57439 13.1275 4.49136C13.2746 4.40836 13.418 4.32157 13.5501 4.24609L13.6256 4.29137V4.37438L13.7199 4.42722C13.7426 4.41213 13.7652 4.4008 13.7878 4.38571L13.8633 4.42722L13.8671 5.71778Z" fill="#E93565"/>
<path d="M12.8105 4.76088L12.8142 6.04999C12.9292 5.98328 13.0576 5.90899 13.1878 5.83383C13.3381 5.74703 13.4909 5.65905 13.6284 5.58012L13.6248 4.29102C13.4872 4.36995 13.3345 4.45792 13.1841 4.54473C13.054 4.61989 12.9256 4.69418 12.8105 4.76088Z" fill="#DF3260"/>
<path d="M13.0135 6.21245L12.9882 6.21008C12.8327 6.19626 12.7348 6.1398 12.706 6.04663L12.7008 6.03123L12.6973 4.74219L12.702 4.75759C12.7312 4.85076 12.8291 4.90722 12.9847 4.92104L13.01 4.92301L13.0135 6.21245Z" fill="#E93565"/>
<path d="M12.9384 4.90053L12.7949 4.81701L13.5938 4.35547L13.7201 4.42952L12.9384 4.90053Z" fill="#F3F1FC"/>
<path d="M13.1293 4.49104C12.985 4.57435 12.8422 4.65698 12.7167 4.72991L12.6973 4.74112L12.7023 4.75663C12.7314 4.84968 12.8291 4.90622 12.9847 4.92008L13.0101 4.92228L13.0288 4.91194C13.1572 4.84067 13.3014 4.75873 13.446 4.67524C13.5904 4.59187 13.7352 4.50696 13.8645 4.42942L13.7896 4.3874C13.66 4.46505 13.515 4.55018 13.3704 4.63369C13.2343 4.71224 13.0986 4.78936 12.9761 4.85749C12.8873 4.84561 12.8341 4.81449 12.8105 4.76081C12.9255 4.6941 13.0539 4.61981 13.1841 4.54465C13.3345 4.45785 13.4872 4.36987 13.6247 4.29094L13.5513 4.24805C13.4195 4.32372 13.2736 4.40772 13.1293 4.49104Z" fill="#F45170"/>
<path d="M12.8207 4.7793L12.7422 4.82573C12.7942 4.8801 12.8752 4.90934 12.9797 4.91878L12.9756 4.85678C12.8957 4.84616 12.8449 4.81991 12.8207 4.7793Z" fill="#F45170"/>
<path d="M13.8681 5.71873C13.7386 5.79651 13.5937 5.88139 13.4492 5.96469C13.3047 6.048 13.1606 6.13012 13.0323 6.20118L13.0133 6.21184L13.0098 4.9224L13.0283 4.91214C13.157 4.84107 13.3011 4.75895 13.4456 4.67565C13.5901 4.59235 13.735 4.50707 13.8641 4.42969L13.8681 5.71873Z" fill="#DF3260"/>
<path d="M13.1836 5.13301C13.2897 5.07362 13.4125 5.00369 13.5559 4.92105C13.6011 4.895 13.6468 4.86851 13.6925 4.8418L13.6946 5.23801C13.5858 5.30253 13.4656 5.37278 13.341 5.44457C13.2863 5.47614 13.2345 5.50588 13.1854 5.53395L13.1836 5.13301Z" fill="#F3F1FC"/>
<path d="M13.2036 5.66785C13.1953 5.66785 13.1874 5.66361 13.1829 5.65597C13.1763 5.64458 13.1802 5.63 13.1916 5.62338L13.6625 5.34702C13.6738 5.34036 13.6884 5.3442 13.6951 5.35566C13.7017 5.36705 13.6978 5.38163 13.6864 5.38825L13.2155 5.66461C13.2118 5.6668 13.2076 5.66785 13.2036 5.66785Z" fill="#F3F1FC"/>
<path d="M13.2036 5.80066C13.1953 5.80066 13.1874 5.79642 13.1829 5.78878C13.1763 5.77739 13.1802 5.76281 13.1916 5.75619L13.6625 5.47983C13.6738 5.47317 13.6884 5.47701 13.6951 5.48847C13.7017 5.49986 13.6978 5.51445 13.6864 5.52106L13.2155 5.79743C13.2118 5.79962 13.2076 5.80066 13.2036 5.80066Z" fill="#F3F1FC"/>
<path d="M14.2986 5.9678C14.1665 6.04328 14.0231 6.13006 13.8797 6.21309C13.7325 6.2961 13.5891 6.37911 13.4609 6.44705L13.442 6.45836H13.4194C13.2608 6.44328 13.1627 6.38666 13.1363 6.29232L13.1288 6.27724L13.125 4.99043L13.1476 4.97912C13.2722 4.90365 13.4156 4.82064 13.559 4.73761C13.7024 4.6546 13.8495 4.57157 13.9816 4.49609L14.0533 4.53762V4.62063L14.1476 4.67724C14.1703 4.66213 14.1967 4.65082 14.2193 4.63571L14.2948 4.67724L14.2986 5.9678Z" fill="#5EC363"/>
<path d="M13.2383 5.00698L13.2419 6.29609C13.357 6.22938 13.4853 6.15509 13.6155 6.07993C13.7659 5.99312 13.9186 5.90515 14.0562 5.82622L14.0525 4.53711C13.915 4.61604 13.7622 4.70401 13.6119 4.79082C13.4817 4.86598 13.3533 4.94027 13.2383 5.00698Z" fill="#5EC363"/>
<path d="M13.4412 6.45854L13.416 6.45617C13.2604 6.44235 13.1625 6.3859 13.1337 6.29272L13.1286 6.27733L13.125 4.98828L13.1297 5.00368C13.159 5.09685 13.2569 5.15331 13.4124 5.16713L13.4377 5.1691L13.4412 6.45854Z" fill="#5EC363"/>
<path d="M13.3662 5.14662L13.2227 5.06311L14.0216 4.60156L14.1478 4.67561L13.3662 5.14662Z" fill="#F3F1FC"/>
<path d="M13.557 4.73713C13.4127 4.82045 13.27 4.90308 13.1444 4.976L13.125 4.98722L13.13 5.00273C13.1591 5.09578 13.2568 5.15231 13.4124 5.16617L13.4379 5.16837L13.4565 5.15803C13.5849 5.08676 13.7291 5.00482 13.8737 4.92134C14.0181 4.83797 14.1629 4.75306 14.2923 4.67551L14.2173 4.6335C14.0877 4.71114 13.9427 4.79628 13.7981 4.87978C13.662 4.95834 13.5263 5.03545 13.4039 5.10359C13.3151 5.09171 13.2619 5.06058 13.2383 5.00691C13.3533 4.9402 13.4817 4.86591 13.6118 4.79075C13.7622 4.70394 13.9149 4.61597 14.0525 4.53704L13.979 4.49414C13.8472 4.56981 13.7013 4.65382 13.557 4.73713Z" fill="#78E75A"/>
<path d="M13.2484 5.02539L13.1699 5.07182C13.2219 5.12619 13.303 5.15543 13.4074 5.16487L13.4033 5.10288C13.3235 5.09225 13.2726 5.066 13.2484 5.02539Z" fill="#78E75A"/>
<path d="M14.2958 5.96482C14.1663 6.0426 14.0214 6.12748 13.8769 6.21079C13.7324 6.29409 13.5883 6.37621 13.46 6.44728L13.4411 6.45794L13.4375 5.1685L13.4561 5.15823C13.5848 5.08717 13.7289 5.00505 13.8734 4.92175C14.0179 4.83844 14.1628 4.75316 14.2919 4.67578L14.2958 5.96482Z" fill="#72D561"/>
<path d="M13.6113 5.3791C13.7174 5.31972 13.8403 5.24978 13.9836 5.16714C14.0288 5.14109 14.0745 5.1146 14.1203 5.08789L14.1223 5.4841C14.0135 5.54862 13.8933 5.61888 13.7688 5.69067C13.714 5.72224 13.6622 5.75197 13.6131 5.78004L13.6113 5.3791Z" fill="#5EC363"/>
<path d="M13.6313 5.91395C13.6231 5.91395 13.6151 5.90971 13.6107 5.90206C13.604 5.89067 13.6079 5.87609 13.6193 5.86948L14.0902 5.59311C14.1015 5.58645 14.1161 5.59029 14.1228 5.60175C14.1294 5.61314 14.1255 5.62773 14.1142 5.63434L13.6433 5.91071C13.6395 5.9129 13.6354 5.91395 13.6313 5.91395Z" fill="#5EC363"/>
<path d="M13.6313 6.04676C13.6231 6.04676 13.6151 6.04252 13.6107 6.03488C13.604 6.02349 13.6079 6.0089 13.6193 6.00229L14.0902 5.72592C14.1015 5.71926 14.1161 5.7231 14.1228 5.73457C14.1294 5.74596 14.1255 5.76054 14.1142 5.76716L13.6433 6.04352C13.6395 6.04571 13.6354 6.04676 13.6313 6.04676Z" fill="#5EC363"/>
<path d="M13.8359 5.52363C13.942 5.46425 14.0649 5.39431 14.2083 5.31167C14.2534 5.28563 14.2991 5.25913 14.3449 5.23242L14.3469 5.62863C14.2382 5.69315 14.1179 5.76341 13.9934 5.8352C13.9386 5.86677 13.8868 5.8965 13.8377 5.92457L13.8359 5.52363Z" fill="#497BFE"/>
<path d="M13.8559 6.05848C13.8477 6.05848 13.8397 6.05424 13.8353 6.0466C13.8286 6.0352 13.8325 6.02062 13.8439 6.01401L14.3148 5.73764C14.3261 5.73098 14.3407 5.73482 14.3474 5.74628C14.354 5.75768 14.3502 5.77226 14.3388 5.77887L13.8679 6.05524C13.8641 6.05743 13.86 6.05848 13.8559 6.05848Z" fill="#497BFE"/>
<path d="M13.8559 6.19129C13.8477 6.19129 13.8397 6.18705 13.8353 6.17941C13.8286 6.16802 13.8325 6.15343 13.8439 6.14682L14.3148 5.87045C14.3261 5.86379 14.3407 5.86764 14.3474 5.8791C14.354 5.89049 14.3502 5.90507 14.3388 5.91169L13.8679 6.18805C13.8641 6.19024 13.86 6.19129 13.8559 6.19129Z" fill="#497BFE"/>
<path d="M14.9472 6.35463C14.8189 6.43388 14.6755 6.52066 14.5283 6.6037C14.3849 6.6867 14.2415 6.76596 14.1132 6.83766L14.0943 6.84896L14.0679 6.84521C13.9132 6.83388 13.8151 6.77729 13.7849 6.68295L13.7811 6.66784L13.7773 5.38106V5.37728L13.7962 5.36595C13.9207 5.29425 14.0641 5.21124 14.2113 5.12821C14.3547 5.0452 14.4981 4.96217 14.6302 4.88672L14.7057 4.92822V5.01123L14.8 5.06784C14.8264 5.05276 14.8491 5.04143 14.8717 5.02634L14.9434 5.06784L14.9472 6.35463Z" fill="#E93565"/>
<path d="M13.8906 5.39956L13.8943 6.68866C14.0093 6.62195 14.1377 6.54767 14.2679 6.47251C14.4182 6.3857 14.571 6.29773 14.7085 6.21879L14.7048 4.92969C14.5673 5.00862 14.4146 5.09659 14.2642 5.1834C14.134 5.25856 14.0056 5.33285 13.8906 5.39956Z" fill="#DF3260"/>
<path d="M14.0936 6.85112L14.0683 6.84875C13.9128 6.83493 13.8148 6.77847 13.786 6.6853L13.7809 6.6699L13.7773 5.38086L13.7821 5.39626C13.8113 5.48943 13.9092 5.54589 14.0648 5.55971L14.09 5.56168L14.0936 6.85112Z" fill="#E93565"/>
<path d="M14.0185 5.5392L13.875 5.45568L14.6739 4.99414L14.8001 5.06819L14.0185 5.5392Z" fill="#F3F1FC"/>
<path d="M14.2094 5.12971C14.0651 5.21303 13.9223 5.29566 13.7968 5.36858L13.7773 5.3798L13.7824 5.3953C13.8115 5.48836 13.9091 5.54489 14.0648 5.55875L14.0902 5.56095L14.1089 5.55061C14.2373 5.47934 14.3815 5.3974 14.5261 5.31392C14.6705 5.23054 14.8152 5.14563 14.9446 5.06809L14.8697 5.02608C14.7401 5.10372 14.5951 5.18885 14.4505 5.27236C14.3144 5.35092 14.1786 5.42803 14.0562 5.49617C13.9674 5.48429 13.9142 5.45316 13.8906 5.39948C14.0056 5.33278 14.134 5.25849 14.2642 5.18333C14.4145 5.09652 14.5673 5.00855 14.7048 4.92962L14.6314 4.88672C14.4996 4.96239 14.3537 5.04639 14.2094 5.12971Z" fill="#F45170"/>
<path d="M13.9007 5.41797L13.8223 5.4644C13.8742 5.51877 13.9553 5.54801 14.0598 5.55745L14.0557 5.49546C13.9758 5.48483 13.925 5.45858 13.9007 5.41797Z" fill="#F45170"/>
<path d="M14.9482 6.3574C14.8187 6.43518 14.6738 6.52006 14.5293 6.60337C14.3848 6.68667 14.2407 6.76879 14.1123 6.83985L14.0934 6.85052L14.0898 5.56108L14.1084 5.55081C14.2371 5.47975 14.3812 5.39763 14.5257 5.31432C14.6702 5.23102 14.8151 5.14574 14.9442 5.06836L14.9482 6.3574Z" fill="#DF3260"/>
<path d="M14.2637 5.77168C14.3698 5.71229 14.4926 5.64236 14.636 5.55972C14.6812 5.53367 14.7269 5.50718 14.7726 5.48047L14.7746 5.87668C14.6659 5.9412 14.5457 6.01146 14.4211 6.08325C14.3664 6.11481 14.3146 6.14455 14.2654 6.17262L14.2637 5.77168Z" fill="#F3F1FC"/>
<path d="M14.2836 6.30652C14.2754 6.30652 14.2674 6.30228 14.263 6.29464C14.2564 6.28325 14.2603 6.26867 14.2717 6.26205L14.7426 5.98569C14.7538 5.97903 14.7685 5.98287 14.7751 5.99433C14.7818 6.00572 14.7779 6.02031 14.7665 6.02692L14.2956 6.30329C14.2918 6.30547 14.2877 6.30652 14.2836 6.30652Z" fill="#F3F1FC"/>
<path d="M14.2836 6.43934C14.2754 6.43934 14.2674 6.4351 14.263 6.42746C14.2564 6.41606 14.2603 6.40148 14.2717 6.39487L14.7426 6.1185C14.7538 6.11184 14.7685 6.11568 14.7751 6.12714C14.7818 6.13854 14.7779 6.15312 14.7665 6.15973L14.2956 6.4361C14.2918 6.43829 14.2877 6.43934 14.2836 6.43934Z" fill="#F3F1FC"/>
<path d="M15.3769 6.60452C15.2485 6.68377 15.1014 6.76678 14.958 6.84979C14.8146 6.93282 14.6712 7.01583 14.5429 7.08753L14.5202 7.09886L14.4976 7.09508C14.3429 7.08 14.2448 7.02338 14.2146 6.93282L14.2108 6.91773L14.207 5.62715L14.2259 5.61584C14.3504 5.54414 14.4938 5.46111 14.6372 5.3781C14.7806 5.29507 14.9278 5.20829 15.0599 5.13281L15.1316 5.17809V5.26112L15.2297 5.31396C15.2523 5.29885 15.275 5.28754 15.2976 5.27243L15.3731 5.31396L15.3769 6.60452Z" fill="#5EC363"/>
<path d="M14.3203 5.6476L14.324 6.93671C14.439 6.87 14.5674 6.79571 14.6976 6.72055C14.8479 6.63375 15.0007 6.54577 15.1382 6.46684L15.1345 5.17773C14.997 5.25667 14.8442 5.34464 14.6939 5.43144C14.5637 5.5066 14.4353 5.58089 14.3203 5.6476Z" fill="#5EC363"/>
<path d="M14.5233 7.09917L14.498 7.0968C14.3424 7.08298 14.2445 7.02652 14.2157 6.93335L14.2106 6.91795L14.207 5.62891L14.2118 5.6443C14.241 5.73748 14.3389 5.79394 14.4944 5.80775L14.5197 5.80973L14.5233 7.09917Z" fill="#5EC363"/>
<path d="M14.4482 5.78725L14.3047 5.70373L15.1036 5.24219L15.2298 5.31623L14.4482 5.78725Z" fill="#F3F1FC"/>
<path d="M14.6391 5.37776C14.4947 5.46107 14.352 5.5437 14.2265 5.61662L14.207 5.62784L14.2121 5.64335C14.2412 5.7364 14.3388 5.79294 14.4945 5.8068L14.5199 5.809L14.5386 5.79866C14.6669 5.72738 14.8111 5.64544 14.9557 5.56196C15.1001 5.47859 15.2449 5.39368 15.3743 5.31614L15.2993 5.27412C15.1698 5.35176 15.0248 5.4369 14.8801 5.52041C14.7441 5.59896 14.6083 5.67608 14.4859 5.74421C14.3971 5.73233 14.3439 5.70121 14.3203 5.64753C14.4353 5.58082 14.5637 5.50653 14.6939 5.43137C14.8442 5.34457 14.997 5.25659 15.1345 5.17766L15.0611 5.13477C14.9292 5.21044 14.7834 5.29444 14.6391 5.37776Z" fill="#78E75A"/>
<path d="M14.3304 5.66602L14.252 5.71245C14.3039 5.76681 14.385 5.79606 14.4895 5.8055L14.4854 5.7435C14.4055 5.73288 14.3547 5.70663 14.3304 5.66602Z" fill="#78E75A"/>
<path d="M15.3778 6.60545C15.2483 6.68323 15.1034 6.76811 14.9589 6.85141C14.8145 6.93472 14.6703 7.01684 14.542 7.0879L14.5231 7.09856L14.5195 5.80912L14.5381 5.79886C14.6668 5.72779 14.8109 5.64567 14.9554 5.56237C15.0999 5.47907 15.2448 5.39379 15.3739 5.31641L15.3778 6.60545Z" fill="#72D561"/>
<path d="M14.6934 6.01973C14.7994 5.96034 14.9223 5.89041 15.0657 5.80777C15.1108 5.78172 15.1565 5.75522 15.2023 5.72852L15.2043 6.12473C15.0956 6.18925 14.9753 6.2595 14.8508 6.33129C14.7961 6.36286 14.7442 6.3926 14.6951 6.42067L14.6934 6.01973Z" fill="#5EC363"/>
<path d="M14.7133 6.55457C14.7051 6.55457 14.6971 6.55033 14.6927 6.54269C14.6861 6.5313 14.6899 6.51672 14.7013 6.5101L15.1722 6.23374C15.1835 6.22707 15.1982 6.23092 15.2048 6.24238C15.2115 6.25377 15.2076 6.26835 15.1962 6.27497L14.7253 6.55133C14.7215 6.55352 14.7174 6.55457 14.7133 6.55457Z" fill="#5EC363"/>
<path d="M14.7133 6.68738C14.7051 6.68738 14.6971 6.68314 14.6927 6.6755C14.6861 6.66411 14.6899 6.64953 14.7013 6.64291L15.1722 6.36655C15.1835 6.35989 15.1982 6.36373 15.2048 6.37519C15.2115 6.38658 15.2076 6.40117 15.1962 6.40778L14.7253 6.68414C14.7215 6.68633 14.7174 6.68738 14.7133 6.68738Z" fill="#5EC363"/>
<path d="M14.9043 6.13887C15.0104 6.07948 15.1332 6.00955 15.2766 5.92691C15.3218 5.90086 15.3675 5.87436 15.4132 5.84766L15.4153 6.24387C15.3065 6.30839 15.1863 6.37864 15.0617 6.45043C15.007 6.482 14.9552 6.51174 14.9061 6.53981L14.9043 6.13887Z" fill="#497BFE"/>
<path d="M14.9243 6.67371C14.916 6.67371 14.9081 6.66947 14.9036 6.66183C14.897 6.65044 14.9009 6.63586 14.9123 6.62924L15.3832 6.35288C15.3945 6.34621 15.4091 6.35006 15.4158 6.36152C15.4224 6.37291 15.4185 6.38749 15.4071 6.39411L14.9362 6.67047C14.9325 6.67266 14.9283 6.67371 14.9243 6.67371Z" fill="#497BFE"/>
<path d="M14.9243 6.80652C14.916 6.80652 14.9081 6.80228 14.9036 6.79464C14.897 6.78325 14.9009 6.76867 14.9123 6.76205L15.3832 6.48569C15.3945 6.47903 15.4091 6.48287 15.4158 6.49433C15.4224 6.50572 15.4185 6.52031 15.4071 6.52692L14.9362 6.80328C14.9325 6.80548 14.9283 6.80652 14.9243 6.80652Z" fill="#497BFE"/>
<path d="M16.0155 6.97364C15.8872 7.04911 15.7438 7.1359 15.5966 7.21893C15.4532 7.30194 15.3098 7.38497 15.1816 7.45667L15.1627 7.46798L15.1363 7.4642C14.9815 7.44911 14.8835 7.3925 14.8533 7.30194L14.8495 7.28685L14.8457 5.99629L14.8646 5.98496C14.9929 5.91326 15.1325 5.83025 15.2797 5.74722C15.4231 5.66421 15.5702 5.57741 15.6985 5.50195L15.774 5.54723V5.63024L15.8684 5.68308C15.8948 5.66799 15.9174 5.65666 15.9401 5.64157L16.0118 5.68308L16.0155 6.97364Z" fill="#E93565"/>
<path d="M14.959 6.01479L14.9626 7.3039C15.0777 7.23719 15.206 7.1629 15.3362 7.08774C15.4866 7.00093 15.6393 6.91296 15.7769 6.83403L15.7732 5.54492C15.6357 5.62385 15.4829 5.71183 15.3326 5.79863C15.2024 5.87379 15.074 5.94808 14.959 6.01479Z" fill="#DF3260"/>
<path d="M15.1619 7.46635L15.1367 7.46399C14.9811 7.45017 14.8832 7.39371 14.8544 7.30054L14.8493 7.28514L14.8457 5.99609L14.8504 6.01149C14.8797 6.10467 14.9776 6.16112 15.1331 6.17494L15.1584 6.17692L15.1619 7.46635Z" fill="#E93565"/>
<path d="M15.0869 6.15443L14.9434 6.07092L15.7423 5.60938L15.8685 5.68342L15.0869 6.15443Z" fill="#F3F1FC"/>
<path d="M15.2777 5.74495C15.1334 5.82826 14.9907 5.91089 14.8651 5.98381L14.8457 5.99503L14.8507 6.01054C14.8798 6.10359 14.9775 6.16012 15.1331 6.17398L15.1586 6.17618L15.1772 6.16585C15.3056 6.09457 15.4498 6.01263 15.5944 5.92915C15.7388 5.84578 15.8836 5.76087 16.013 5.68333L15.938 5.64131C15.8084 5.71895 15.6634 5.80409 15.5188 5.88759C15.3827 5.96615 15.247 6.04326 15.1246 6.1114C15.0358 6.09952 14.9826 6.06839 14.959 6.01472C15.074 5.94801 15.2024 5.87372 15.3325 5.79856C15.4829 5.71176 15.6356 5.62378 15.7732 5.54485L15.6997 5.50195C15.5679 5.57763 15.422 5.66163 15.2777 5.74495Z" fill="#F45170"/>
<path d="M14.9691 6.0332L14.8906 6.07963C14.9426 6.134 15.0237 6.16325 15.1281 6.17268L15.124 6.11069C15.0442 6.10007 14.9933 6.07382 14.9691 6.0332Z" fill="#F45170"/>
<path d="M16.0165 6.97263C15.887 7.05041 15.7421 7.1353 15.5976 7.2186C15.4531 7.3019 15.309 7.38402 15.1807 7.45509L15.1618 7.46575L15.1582 6.17631L15.1768 6.16605C15.3055 6.09498 15.4496 6.01286 15.5941 5.92956C15.7386 5.84625 15.8835 5.76097 16.0126 5.68359L16.0165 6.97263Z" fill="#DF3260"/>
<path d="M15.332 6.38691C15.4381 6.32753 15.561 6.25759 15.7043 6.17495C15.7495 6.14891 15.7952 6.12241 15.841 6.0957L15.843 6.49191C15.7343 6.55644 15.614 6.62669 15.4895 6.69848C15.4347 6.73005 15.3829 6.75978 15.3338 6.78786L15.332 6.38691Z" fill="#F3F1FC"/>
<path d="M15.352 6.92176C15.3438 6.92176 15.3358 6.91752 15.3314 6.90988C15.3247 6.89849 15.3286 6.8839 15.34 6.87729L15.8109 6.60092C15.8222 6.59426 15.8368 6.5981 15.8435 6.60957C15.8501 6.62096 15.8463 6.63554 15.8349 6.64216L15.364 6.91852C15.3602 6.92071 15.3561 6.92176 15.352 6.92176Z" fill="#F3F1FC"/>
<path d="M15.352 7.05457C15.3438 7.05457 15.3358 7.05033 15.3314 7.04269C15.3247 7.0313 15.3286 7.01672 15.34 7.0101L15.8109 6.73374C15.8222 6.72707 15.8368 6.73092 15.8435 6.74238C15.8501 6.75377 15.8463 6.76835 15.8349 6.77497L15.364 7.05133C15.3602 7.05352 15.3561 7.05457 15.352 7.05457Z" fill="#F3F1FC"/>
<path d="M16.4452 7.21988C16.3169 7.29911 16.1697 7.38592 16.0263 7.46893C15.8829 7.55196 15.7395 7.63119 15.6112 7.70289L15.5924 7.71422H15.566C15.4112 7.69911 15.3131 7.64252 15.2829 7.54818L15.2792 7.5331L15.2754 6.24629V6.24251L15.2943 6.23498C15.4188 6.15951 15.5622 6.07648 15.7056 5.99347C15.849 5.91044 15.9961 5.82743 16.1282 5.75195L16.2037 5.79346V5.87649L16.298 5.93308C16.3207 5.91799 16.3433 5.90291 16.366 5.89157L16.4414 5.93308L16.4452 7.21988Z" fill="#5EC363"/>
<path d="M15.3887 6.26284L15.3923 7.55195C15.5073 7.48524 15.6357 7.41095 15.7659 7.33579C15.9163 7.24898 16.069 7.16101 16.2065 7.08208L16.2029 5.79297C16.0654 5.8719 15.9126 5.95987 15.7623 6.04668C15.6321 6.12184 15.5037 6.19613 15.3887 6.26284Z" fill="#5EC363"/>
<path d="M15.5916 7.7144L15.5664 7.71203C15.4108 7.69821 15.3129 7.64176 15.2841 7.54858L15.2789 7.53318L15.2754 6.24414L15.2801 6.25954C15.3093 6.35271 15.4073 6.40917 15.5628 6.42299L15.5881 6.42496L15.5916 7.7144Z" fill="#5EC363"/>
<path d="M15.5165 6.40248L15.373 6.31897L16.172 5.85742L16.2982 5.93147L15.5165 6.40248Z" fill="#F3F1FC"/>
<path d="M15.7074 5.99299C15.5631 6.07631 15.4204 6.15894 15.2948 6.23186L15.2754 6.24308L15.2804 6.25859C15.3095 6.35164 15.4072 6.40817 15.5628 6.42203L15.5883 6.42423L15.6069 6.41389C15.7353 6.34262 15.8795 6.26068 16.0241 6.1772C16.1685 6.09383 16.3133 6.00892 16.4427 5.93137L16.3677 5.88936C16.2381 5.967 16.0931 6.05214 15.9485 6.13564C15.8124 6.2142 15.6767 6.29131 15.5542 6.35945C15.4654 6.34757 15.4123 6.31644 15.3886 6.26277C15.5037 6.19606 15.632 6.12177 15.7622 6.04661C15.9126 5.9598 16.0653 5.87183 16.2029 5.7929L16.1294 5.75C15.9976 5.82567 15.8517 5.90968 15.7074 5.99299Z" fill="#78E75A"/>
<path d="M15.3988 6.28125L15.3203 6.32768C15.3723 6.38205 15.4534 6.41129 15.5578 6.42073L15.5537 6.35874C15.4739 6.34811 15.423 6.32186 15.3988 6.28125Z" fill="#78E75A"/>
<path d="M16.4462 7.22068C16.3167 7.29846 16.1718 7.38334 16.0273 7.46665C15.8828 7.54995 15.7387 7.63207 15.6104 7.70314L15.5914 7.7138L15.5879 6.42436L15.6064 6.41409C15.7352 6.34303 15.8793 6.26091 16.0238 6.1776C16.1683 6.0943 16.3131 6.00902 16.4423 5.93164L16.4462 7.22068Z" fill="#72D561"/>
<path d="M15.7617 6.63496C15.8678 6.57558 15.9906 6.50564 16.134 6.423C16.1792 6.39695 16.2249 6.37046 16.2707 6.34375L16.2727 6.73996C16.1639 6.80448 16.0437 6.87474 15.9192 6.94653C15.8644 6.9781 15.8126 7.00783 15.7635 7.0359L15.7617 6.63496Z" fill="#5EC363"/>
<path d="M15.7817 7.1698C15.7735 7.1698 15.7655 7.16556 15.7611 7.15792C15.7544 7.14653 15.7583 7.13195 15.7697 7.12533L16.2406 6.84897C16.2519 6.84231 16.2665 6.84615 16.2732 6.85761C16.2798 6.869 16.2759 6.88359 16.2645 6.8902L15.7936 7.16657C15.7899 7.16876 15.7858 7.1698 15.7817 7.1698Z" fill="#5EC363"/>
<path d="M15.7817 7.30262C15.7735 7.30262 15.7655 7.29838 15.7611 7.29074C15.7544 7.27935 15.7583 7.26476 15.7697 7.25815L16.2406 6.98178C16.2519 6.97512 16.2665 6.97896 16.2732 6.99043C16.2798 7.00182 16.2759 7.0164 16.2645 7.02302L15.7936 7.29938C15.7899 7.30157 15.7858 7.30262 15.7817 7.30262Z" fill="#5EC363"/>
<path d="M8.84356 1.99609L8.83789 4.06562H9.16435L9.16861 2.55911L15.8691 6.42764L15.8655 7.6977H16.1923L16.1963 6.24119L8.84356 1.99609Z" fill="#F9A83D"/>
<path d="M10.6567 0.943359L8.84375 1.99694L16.1965 6.24204L16.1767 13.4859L17.9896 12.4323L18.0094 5.18848L10.6567 0.943359Z" fill="#FEBC1F"/>
<path d="M16.1965 6.24204L18.0094 5.18847L10.6567 0.943359L8.84375 1.99693L16.1965 6.24204Z" fill="#FFD06C"/>
<path d="M9.2207 1.99716L10.6577 1.16211L17.6335 5.18979L16.1967 6.02484L9.2207 1.99716Z" fill="#FEBC1F"/>
<path d="M16.1758 13.4849L17.9887 12.4313L18.0085 5.1875L16.1956 6.24107L16.1758 13.4849Z" fill="#FEBC1F"/>
</svg>
