<svg width="24" height="24" viewBox="0 0 24 24" fill="none" xmlns="http://www.w3.org/2000/svg">
<g clip-path="url(#clip0_5224_29939)">
<path d="M22.243 9.95883C22.1769 6.51352 21.6969 3.97242 21.7035 3.97008C21.5038 3.58055 21.1537 3.25477 20.7252 3.08836C17.9127 1.99758 15.1471 0.956484 12.4508 0.0682031C12.1752 -0.0227344 11.8846 -0.0227344 11.6094 0.0682031C8.91366 0.954141 6.1485 1.99336 3.33647 3.08273C2.95819 3.22945 2.64085 3.50086 2.43413 3.83086C2.45007 3.83273 1.85616 5.68664 1.75491 9.78117C1.69491 13.8762 2.20491 15.1029 2.18804 15.1043C2.46413 16.0043 2.98069 16.9198 3.72085 17.8507C4.54819 18.8904 5.66616 19.9643 7.01663 21.0199C9.2521 22.7745 11.3441 23.823 11.4318 23.8601C11.6216 23.9529 11.8227 24.0002 12.0299 23.9998C12.2376 23.9998 12.4387 23.9524 12.628 23.8591C12.7162 23.8221 14.8105 22.7702 17.0451 21.0162C18.396 19.9596 19.514 18.8857 20.3418 17.8465C21.1349 16.8495 21.6712 15.8712 21.9304 14.9102C21.9201 14.9088 22.2951 13.4051 22.243 9.9593V9.95883ZM13.1427 12.6462V14.8291C13.1427 15.4441 12.6444 15.9424 12.0294 15.9429C11.4144 15.9429 10.9157 15.4446 10.9157 14.8296V12.6771C10.1132 12.2782 9.561 11.4504 9.561 10.4937C9.561 9.14742 10.6523 8.0557 11.9985 8.0557C13.3448 8.0557 14.436 9.14695 14.4365 10.4932C14.4365 11.426 13.9124 12.2365 13.1427 12.6462Z" fill="#282723"/>
</g>
<defs>
<clipPath id="clip0_5224_29939">
<rect width="24" height="24" fill="white"/>
</clipPath>
</defs>
</svg>
