<svg width="24" height="24" viewBox="0 0 24 24" fill="none" xmlns="http://www.w3.org/2000/svg">
<path d="M21.6774 3.66663C21.763 3.66663 21.845 3.63152 21.9055 3.569C21.966 3.50649 22 3.42171 22 3.33331V2.33333C22 2.24492 21.966 2.16014 21.9055 2.09763C21.845 2.03512 21.763 2 21.6774 2H2.32258C2.23703 2 2.15498 2.03512 2.09448 2.09763C2.03399 2.16014 2 2.24492 2 2.33333V3.33331C2 3.42171 2.03399 3.50649 2.09448 3.569C2.15498 3.63152 2.23703 3.66663 2.32258 3.66663H2.64516V17.6664H2.32258C2.23703 17.6664 2.15498 17.7015 2.09448 17.764C2.03399 17.8265 2 17.9113 2 17.9997V18.9997C2 19.0881 2.03399 19.1729 2.09448 19.2354C2.15498 19.2979 2.23703 19.333 2.32258 19.333H11.6774V19.9996C11.6776 20.0184 11.6792 20.037 11.6823 20.0555C11.4662 20.1331 11.2837 20.2872 11.1672 20.4906C11.0507 20.694 11.0077 20.9335 11.0458 21.1665C11.0838 21.3996 11.2006 21.6111 11.3753 21.7637C11.5499 21.9163 11.7713 22 12 22C12.2287 22 12.4501 21.9163 12.6247 21.7637C12.7994 21.6111 12.9162 21.3996 12.9542 21.1665C12.9923 20.9335 12.9493 20.694 12.8328 20.4906C12.7163 20.2872 12.5338 20.1331 12.3177 20.0555C12.3208 20.037 12.3224 20.0184 12.3226 19.9996V19.333H21.6774C21.763 19.333 21.845 19.2979 21.9055 19.2354C21.966 19.1729 22 19.0881 22 18.9997V17.9997C22 17.9113 21.966 17.8265 21.9055 17.764C21.845 17.7015 21.763 17.6664 21.6774 17.6664H21.3548V3.66663H21.6774ZM12.3226 20.9996C12.3226 21.0656 12.3037 21.13 12.2682 21.1848C12.2328 21.2396 12.1824 21.2824 12.1234 21.3076C12.0645 21.3328 11.9996 21.3394 11.9371 21.3265C11.8745 21.3137 11.817 21.2819 11.7719 21.2353C11.7268 21.1887 11.6961 21.1293 11.6836 21.0647C11.6712 21 11.6776 20.933 11.702 20.8721C11.7264 20.8112 11.7677 20.7591 11.8208 20.7225C11.8738 20.6858 11.9362 20.6663 12 20.6663C12.0855 20.6664 12.1675 20.7016 12.228 20.7641C12.2884 20.8265 12.3225 20.9113 12.3226 20.9996ZM21.3548 18.6663H2.64516V18.333H21.3548V18.6663ZM3.29032 17.6664V3.66663H20.7097V17.6664H3.29032ZM2.64516 2.99998V2.66665H21.3548V2.99998H2.64516Z" fill="#5E5B50"/>
</svg>
