<svg width="47" height="31" viewBox="0 0 47 31" fill="none" xmlns="http://www.w3.org/2000/svg">
<path d="M23.0964 31L22.5376 29.6387C23.9036 26.5862 25.4971 23.3686 27.3184 19.986C29.181 16.5622 31.1264 13.1384 33.1546 9.71457C35.2241 6.29075 37.2523 3.05256 39.2391 0H47C45.5099 3.30007 43.9577 6.78576 42.3435 10.4571C40.7706 14.1284 39.2805 17.7379 37.8732 21.2854C36.4659 24.833 35.2448 28.0712 34.21 31H23.0964ZM0.43461 31L0 29.6387C1.36592 26.5862 2.93879 23.3686 4.71863 19.986C6.53985 16.5622 8.44386 13.1384 10.4306 9.71457C12.4588 6.29075 14.4663 3.05256 16.4531 0H24.3382C23.2206 2.47505 22.0616 5.07385 20.8613 7.79641C19.7023 10.4777 18.5641 13.1796 17.4465 15.9022C16.3289 18.6248 15.2528 21.2854 14.218 23.8842C13.2246 26.4418 12.3347 28.8137 11.5482 31H0.43461Z" fill="#ABABAB" fill-opacity="0.5"/>
</svg>
