<svg width="21" height="20" viewBox="0 0 21 20" fill="none" xmlns="http://www.w3.org/2000/svg">
<path d="M17.6601 2.9932C15.8467 1.17926 13.244 0 10.503 0C8.14547 0 5.83719 0.866328 4.05422 2.40152L3.18102 0.945859C3.05285 0.733008 2.80449 0.626562 2.56305 0.67293C2.3193 0.722148 2.13391 0.918984 2.0984 1.16445L1.26984 6.96488C1.21332 7.35676 1.55383 7.68199 1.93246 7.62809L7.73234 6.79953C7.9784 6.76406 8.17523 6.57867 8.22445 6.33547C8.27367 6.09227 8.16379 5.84453 7.95094 5.71691L6.56848 4.88723C8.45824 3.40625 10.4414 3.53582 10.559 3.51562C12.7483 3.51562 14.2028 4.50898 15.0371 5.34383C16.2605 6.56719 16.9883 8.29297 16.9837 9.95922C16.9837 10.2913 17.2519 10.5469 17.5697 10.5469H19.9134C20.2362 10.5469 20.4982 10.2859 20.4994 9.96324C20.5097 7.27043 19.5278 4.86031 17.6601 2.9932Z" fill="url(#paint0_linear_1795_9959)"/>
<path d="M19.0681 12.3771L13.2682 13.2057C13.0222 13.2411 12.8254 13.4265 12.7761 13.6697C12.7269 13.9129 12.8368 14.1607 13.0497 14.2883L14.4275 15.1157C13.3037 15.9957 11.8675 16.4884 10.4598 16.4844C8.25344 16.5136 6.80004 15.4934 5.96231 14.6562C4.73899 13.4328 4.01114 11.707 4.01571 10.0408C4.01571 9.70871 3.74754 9.45312 3.42977 9.45312H1.08602C0.763284 9.45312 0.501213 9.71406 0.50008 10.0368C0.489768 12.7296 1.47168 15.1397 3.33938 17.0068C5.14157 18.8095 7.58043 19.9306 10.4965 20C12.854 20 15.1611 19.1337 16.9441 17.5996L17.8196 19.0593C17.9478 19.2721 18.195 19.3797 18.4376 19.3322C18.6813 19.283 18.8667 19.0862 18.9022 18.8407L19.7308 13.0403C19.7873 12.648 19.443 12.3189 19.0681 12.3771Z" fill="url(#paint1_linear_1795_9959)"/>
<defs>
<linearGradient id="paint0_linear_1795_9959" x1="10.8816" y1="0" x2="10.8816" y2="10.5469" gradientUnits="userSpaceOnUse">
<stop stop-color="#7AD3FF"/>
<stop offset="1" stop-color="#4FBAF0"/>
</linearGradient>
<linearGradient id="paint1_linear_1795_9959" x1="10.1184" y1="9.45312" x2="10.1184" y2="20" gradientUnits="userSpaceOnUse">
<stop stop-color="#7AD3FF"/>
<stop offset="1" stop-color="#4FBAF0"/>
</linearGradient>
</defs>
</svg>
