<svg width="80" height="76" viewBox="0 0 80 76" fill="none" xmlns="http://www.w3.org/2000/svg">
<path d="M61.0595 60.6399C60.4938 58.6253 58.4027 57.4501 56.387 58.0162L54.8628 58.4442L51.768 62.8349C49.3197 66.3087 45.3084 68.3349 41.1359 68.3349C40.9723 68.3349 40.8084 68.3306 40.6445 68.3243C41.7111 68.5042 42.7966 68.5954 43.8927 68.5954C45.777 68.5954 47.692 68.3292 49.5914 67.7957L58.4359 65.3123C60.4505 64.7467 61.6253 62.6548 61.0595 60.6399Z" fill="url(#paint0_linear_4082_22620)"/>
<path d="M61.0595 60.6399C60.4938 58.6253 58.4027 57.4501 56.387 58.0162L54.8628 58.4442L51.768 62.8349C49.3197 66.3087 45.3084 68.3349 41.1359 68.3349C40.9723 68.3349 40.8084 68.3306 40.6445 68.3243C41.7111 68.5042 42.7966 68.5954 43.8927 68.5954C45.777 68.5954 47.692 68.3292 49.5914 67.7957L58.4359 65.3123C60.4505 64.7467 61.6253 62.6548 61.0595 60.6399Z" fill="url(#paint1_linear_4082_22620)"/>
<path d="M41.4481 70.0624C40.7105 70.0551 39.9694 69.9845 39.231 69.8473C37.1733 69.4652 35.815 67.4874 36.1972 65.4299C36.5792 63.3726 38.5574 62.0137 40.6144 62.3962C42.6617 62.7762 44.7683 61.9301 45.9844 60.2413L51.0253 53.2391C52.2481 51.5407 54.6161 51.1552 56.3144 52.3779C58.0127 53.6005 58.3983 55.9685 57.1756 57.667L52.1347 64.6691C49.6516 68.1182 45.6203 70.1041 41.4481 70.0624Z" fill="url(#paint2_linear_4082_22620)"/>
<path d="M51.2794 53.8853L48.7044 56.4603L45.9827 60.2409C45.2089 61.3154 44.0744 62.0468 42.8244 62.3403L36.8398 68.3248C37.3898 69.0942 38.2261 69.6604 39.2294 69.8468C39.9678 69.9838 40.7091 70.0545 41.4466 70.062C45.6187 70.1037 49.65 68.1176 52.133 64.6685L56.2894 58.8951L51.2794 53.8853Z" fill="url(#paint3_linear_4082_22620)"/>
<path d="M51.2794 53.8853L48.7044 56.4603L45.9827 60.2409C45.2089 61.3154 44.0744 62.0468 42.8244 62.3403L36.8398 68.3248C37.3898 69.0942 38.2261 69.6604 39.2294 69.8468C39.9678 69.9838 40.7091 70.0545 41.4466 70.062C45.6187 70.1037 49.65 68.1176 52.133 64.6685L56.2894 58.8951L51.2794 53.8853Z" fill="url(#paint4_linear_4082_22620)"/>
<path d="M34.4638 71.398C34.3729 71.3867 34.2826 71.3746 34.1916 71.3614L27.2016 70.3453C25.1307 70.0444 23.6959 68.1214 23.9969 66.0505C24.294 64.0071 26.1705 62.5828 28.2098 62.8349C28.2371 62.8383 28.2643 62.8419 28.2918 62.846L35.2818 63.8619C37.3365 64.1605 39.4141 63.2335 40.5632 61.498L45.3255 54.3036C46.4807 52.5586 48.8315 52.0802 50.5769 53.2355C52.3218 54.3906 52.8001 56.7417 51.6451 58.4867L46.8826 65.6813C44.1727 69.7746 39.3223 71.9983 34.4638 71.398Z" fill="url(#paint5_linear_4082_22620)"/>
<path d="M45.6377 55.7764L41.8322 59.5818L40.5639 61.4978C39.8928 62.5114 38.9038 63.2465 37.7886 63.6254L30.5781 70.8359L34.1923 71.3612C34.2833 71.3745 34.3736 71.3867 34.4645 71.3978C39.323 71.9981 44.1733 69.7743 46.8833 65.6811L50.3322 60.4709L45.6377 55.7764Z" fill="url(#paint6_linear_4082_22620)"/>
<path d="M45.6377 55.7764L41.8322 59.5818L40.5639 61.4978C39.8928 62.5114 38.9038 63.2465 37.7886 63.6254L30.5781 70.8359L34.1923 71.3612C34.2833 71.3745 34.3736 71.3867 34.4645 71.3978C39.323 71.9981 44.1733 69.7743 46.8833 65.6811L50.3322 60.4709L45.6377 55.7764Z" fill="url(#paint7_linear_4082_22620)"/>
<path d="M45.1022 55.2505C43.4872 53.9217 41.0991 54.1541 39.7686 55.7708L37.4783 58.5545C35.7756 57.6603 34.2533 56.4461 32.933 54.9203L32.4984 54.4202C34.6558 53.1016 36.7391 51.6683 38.738 50.1206C40.6477 48.642 40.9492 45.8717 39.415 44.0073C39.2381 43.7917 39.0445 43.5999 38.8391 43.4297C37.4092 42.2424 35.3345 42.0977 33.7295 43.1586C30.5466 45.2655 26.9511 46.6952 23.1719 47.3436C22.5319 47.4547 21.8802 47.4969 21.2317 47.4884C19.0105 47.4631 13.3603 47.4328 11.5178 47.773C11.5009 47.7764 11.2552 47.8234 11.1506 47.847C8.89734 48.337 6.88984 49.6136 5.41797 51.3903L2.77734 54.5716V73.4134H5.67047C8.88234 73.4134 12.06 72.7548 15.0073 71.4784C16.2805 70.8822 17.707 70.6314 19.1469 70.7795C19.1469 70.7795 29.0359 71.9786 30.0884 71.9786C33.9197 71.9786 37.6483 70.2777 40.1408 67.248L45.6208 60.5841C46.9512 58.9691 46.7189 56.5809 45.1022 55.2505Z" fill="url(#paint8_linear_4082_22620)"/>
<path d="M23.3064 47.3188C23.2614 47.3268 23.2169 47.336 23.1719 47.3437C22.5319 47.4548 21.8802 47.497 21.2317 47.4885C19.0105 47.4632 13.3603 47.4329 11.5178 47.7731C11.5009 47.7765 11.2552 47.8235 11.1506 47.8471C8.89734 48.3371 6.88984 49.6137 5.41797 51.3904L2.77734 54.5717V73.4135H5.67047C8.88234 73.4135 12.06 72.7549 15.0073 71.4785C16.2805 70.8823 17.707 70.6315 19.1469 70.7796C19.1469 70.7796 21.0678 71.0126 23.3064 71.2731V47.3188Z" fill="url(#paint9_linear_4082_22620)"/>
<path d="M38.7367 50.1207C36.7377 51.6684 34.6545 53.1017 32.4972 54.4203L32.9317 54.9204C34.252 56.4462 35.7745 57.6604 37.477 58.5546L34.2856 62.4331C34.0128 62.7648 33.7047 63.0579 33.3695 63.3104C30.6286 56.4365 25.1061 51.154 9.73828 52.5945C7.78156 52.7779 5.85141 52.7714 3.99219 53.1064L5.41688 51.3903C6.88875 49.6135 8.89625 48.337 11.1495 47.847C11.2539 47.8234 11.4998 47.7762 11.5167 47.7729C13.3591 47.4328 19.0092 47.4631 21.2306 47.4884C21.8791 47.4968 22.5308 47.4546 23.1708 47.3435C26.9498 46.6951 30.5455 45.2654 33.7284 43.1585C35.3334 42.0976 37.4081 42.2425 38.838 43.4296C39.0434 43.5998 39.237 43.7917 39.4139 44.0073C40.9478 45.8718 40.6464 48.6421 38.7367 50.1207Z" fill="url(#paint10_linear_4082_22620)"/>
<path d="M30.0905 71.9782C29.0376 71.9782 27.9771 71.8498 26.9319 71.5853L18.3563 69.4142C16.3276 68.9006 15.0993 66.8396 15.6129 64.8109C16.1266 62.7821 18.1879 61.5542 20.2162 62.0675L28.7918 64.2386C30.8094 64.7493 32.9673 64.0409 34.2893 62.4336L39.7705 55.7703C41.1001 54.154 43.4882 53.9218 45.1041 55.2511C46.7204 56.5804 46.9527 58.9684 45.6234 60.5846L40.1421 67.2479C37.6501 70.2775 33.9219 71.9782 30.0905 71.9782Z" fill="url(#paint11_linear_4082_22620)"/>
<path d="M38.8377 43.4307C37.4073 42.2432 35.3319 42.0987 33.727 43.1595C30.5445 45.2664 26.9492 46.6951 23.1706 47.3432C22.53 47.455 21.8789 47.4967 21.2292 47.4893C20.2961 47.4781 18.7563 47.4664 17.1484 47.4818V62.6112C18.0139 62.0215 19.118 61.7906 20.2127 62.0676L28.7883 64.2387C30.8059 64.7495 32.9637 64.0411 34.2858 62.4337L37.4766 58.5548C35.7744 57.6604 34.2508 56.4456 32.9306 54.9214L32.4961 54.4198C34.653 53.102 36.7373 51.6681 38.7361 50.1206C40.6463 48.6426 40.9472 45.8712 39.4125 44.0073C39.237 43.7928 39.0433 43.6006 38.8377 43.4307Z" fill="url(#paint12_linear_4082_22620)"/>
<path d="M38.7367 50.1206C36.7377 51.6682 34.6545 53.1015 32.4972 54.4201L19.038 61.9581L19.0363 61.9598C18.3542 62.0018 17.7025 62.2343 17.1484 62.6115V47.4817C18.7567 47.4665 20.2977 47.4782 21.2306 47.4884C21.8791 47.4968 22.5308 47.4546 23.1708 47.3435C26.9498 46.6951 30.5455 45.2654 33.7284 43.1585C35.3334 42.0976 37.4081 42.2425 38.838 43.4296C39.0434 43.5998 39.237 43.7917 39.4139 44.0073C40.9478 45.8717 40.6464 48.642 38.7367 50.1206Z" fill="url(#paint13_linear_4082_22620)"/>
<path d="M38.7367 50.1206C36.7377 51.6682 34.6545 53.1015 32.4972 54.4201L19.038 61.9581L19.0363 61.9598C18.3542 62.0018 17.7025 62.2343 17.1484 62.6115V47.4817C18.7567 47.4665 20.2977 47.4782 21.2306 47.4884C21.8791 47.4968 22.5308 47.4546 23.1708 47.3435C26.9498 46.6951 30.5455 45.2654 33.7284 43.1585C35.3334 42.0976 37.4081 42.2425 38.838 43.4296C39.0434 43.5998 39.237 43.7917 39.4139 44.0073C40.9478 45.8717 40.6464 48.642 38.7367 50.1206Z" fill="url(#paint14_linear_4082_22620)"/>
<path d="M11.3636 75.3103H2.48359C1.11188 75.3103 0 74.1982 0 72.8267V44.9274C0 43.5559 1.11188 42.4438 2.48359 42.4438H11.3636C12.7352 42.4438 13.8472 43.5557 13.8472 44.9274V72.8265C13.847 74.1982 12.7352 75.3103 11.3636 75.3103Z" fill="url(#paint15_linear_4082_22620)"/>
<path d="M13.847 72.8265V53.9199H0V72.8265C0 74.1982 1.11188 75.3101 2.48359 75.3101H11.3636C12.7352 75.3101 13.847 74.198 13.847 72.8265Z" fill="url(#paint16_linear_4082_22620)"/>
<path d="M54.7968 47.3515L65.6815 50.7591C68.5921 51.6704 71.5574 49.516 71.5902 46.4662L71.7129 35.0612C71.7229 34.1338 72.016 33.2316 72.553 32.4755L79.1574 23.1766C80.9235 20.6901 79.7909 17.2041 76.9005 16.2305L66.0916 12.5896C65.2127 12.2935 64.4454 11.736 63.8923 10.9916L57.0893 1.83695C55.2702 -0.611016 51.6048 -0.611016 49.7857 1.83695L42.9827 10.9916C42.4296 11.736 41.6623 12.2935 40.7834 12.5896L29.9744 16.2305C27.0841 17.2041 25.9515 20.6901 27.7176 23.1766L34.3219 32.4755C34.859 33.2316 35.1521 34.1338 35.1621 35.0612L35.2848 46.4662C35.3176 49.5159 38.2829 51.6704 41.1935 50.7591L52.0782 47.3515C52.9632 47.0745 53.9116 47.0745 54.7968 47.3515Z" fill="url(#paint17_linear_4082_22620)"/>
<path d="M27.329 18.5669C26.6457 19.9896 26.7016 21.748 27.7166 23.1771L34.321 32.476C34.858 33.2321 35.1511 34.1342 35.1611 35.0614L35.2838 46.4664C35.3166 49.5161 38.2819 51.6706 41.1925 50.7594L52.0772 47.3517C52.9622 47.0747 53.9108 47.0747 54.7958 47.3517L65.6805 50.7594C68.5911 51.6706 71.5565 49.5163 71.5893 46.4664L71.7119 35.0614C71.7168 34.6147 71.7888 34.1744 71.9207 33.7528L27.329 18.5669Z" fill="url(#paint18_linear_4082_22620)"/>
<path d="M79.5448 18.5669C80.2281 19.9896 80.1722 21.748 79.1572 23.1771L72.5528 32.476C72.0158 33.2321 71.7227 34.1342 71.7127 35.0614L71.59 46.4664C71.5572 49.5161 68.5919 51.6706 65.6813 50.7594L54.7966 47.3517C53.9116 47.0747 52.963 47.0747 52.078 47.3517L41.1933 50.7594C38.2827 51.6706 35.3173 49.5163 35.2845 46.4664L35.1619 35.0614C35.157 34.6147 35.085 34.1744 34.9531 33.7528L79.5448 18.5669Z" fill="url(#paint19_linear_4082_22620)"/>
<path d="M76.9005 16.2308L66.0916 12.5897C65.2127 12.2936 64.4453 11.7361 63.8922 10.9918L57.0892 1.83707C56.1797 0.613008 54.8086 0.000976562 53.4375 0.000976562V47.1438C53.8959 47.1438 54.3544 47.213 54.7969 47.3516L65.6816 50.7593C68.5922 51.6705 71.5575 49.5161 71.5903 46.4663L71.713 35.0613C71.723 34.1339 72.0161 33.2319 72.5531 32.4758L79.1575 23.1769C80.9234 20.6904 79.7909 17.2044 76.9005 16.2308Z" fill="url(#paint20_linear_4082_22620)"/>
<path d="M76.9005 16.2308L66.0916 12.5897C65.2127 12.2936 64.4453 11.7361 63.8922 10.9918L57.0892 1.83707C56.1797 0.613008 54.8086 0.000976562 53.4375 0.000976562V47.1438C53.8959 47.1438 54.3544 47.213 54.7969 47.3516L65.6816 50.7593C68.5922 51.6705 71.5575 49.5161 71.5903 46.4663L71.713 35.0613C71.723 34.1339 72.0161 33.2319 72.5531 32.4758L79.1575 23.1769C80.9234 20.6904 79.7909 17.2044 76.9005 16.2308Z" fill="url(#paint21_linear_4082_22620)"/>
<path d="M34.9727 33.8237C35.0906 34.2237 35.1567 34.6395 35.1613 35.0612L35.2839 46.4662C35.3167 49.5159 38.282 51.6705 41.1927 50.7592L52.0773 47.3515C52.9623 47.0745 53.9109 47.0745 54.7959 47.3515L65.6806 50.7592C68.5913 51.6705 71.5566 49.5161 71.5894 46.4662L71.712 35.0612C71.7166 34.6395 71.7825 34.2237 71.9006 33.8237H34.9727Z" fill="url(#paint22_linear_4082_22620)"/>
<path d="M54.2194 38.065L60.4812 40.0254C62.1558 40.5497 63.8616 39.3103 63.8805 37.5558L63.9511 30.9945C63.9569 30.4611 64.1255 29.942 64.4344 29.507L68.2339 24.1575C69.2498 22.727 68.5983 20.7215 66.9355 20.1614L60.7172 18.0667C60.2116 17.8964 59.7702 17.5756 59.4519 17.1475L55.5383 11.8809C54.4917 10.4726 52.3831 10.4726 51.3366 11.8809L47.423 17.1475C47.1047 17.5758 46.6633 17.8964 46.1576 18.0667L39.9394 20.1614C38.2766 20.7215 37.625 22.7269 38.6409 24.1575L42.4405 29.507C42.7494 29.942 42.918 30.4609 42.9237 30.9945L42.9944 37.5558C43.0133 39.3103 44.7192 40.5497 46.3936 40.0254L52.6555 38.065C53.1645 37.9054 53.7101 37.9054 54.2194 38.065Z" fill="url(#paint23_linear_4082_22620)"/>
<defs>
<linearGradient id="paint0_linear_4082_22620" x1="49.8642" y1="61.3304" x2="51.785" y2="67.4532" gradientUnits="userSpaceOnUse">
<stop stop-color="#FFDFCF"/>
<stop offset="1" stop-color="#FFA78F"/>
</linearGradient>
<linearGradient id="paint1_linear_4082_22620" x1="56.4922" y1="66.4732" x2="51.57" y2="64.1121" gradientUnits="userSpaceOnUse">
<stop stop-color="#F89580" stop-opacity="0"/>
<stop offset="0.2859" stop-color="#EE8E79" stop-opacity="0.287"/>
<stop offset="0.7624" stop-color="#D57B65" stop-opacity="0.765"/>
<stop offset="0.9972" stop-color="#C5715A"/>
</linearGradient>
<linearGradient id="paint2_linear_4082_22620" x1="46.2966" y1="60.0362" x2="51.0388" y2="65.0184" gradientUnits="userSpaceOnUse">
<stop stop-color="#FFDFCF"/>
<stop offset="1" stop-color="#FFA78F"/>
</linearGradient>
<linearGradient id="paint3_linear_4082_22620" x1="52.7541" y1="66.8617" x2="44.9205" y2="61.8193" gradientUnits="userSpaceOnUse">
<stop stop-color="#F89580" stop-opacity="0"/>
<stop offset="0.2859" stop-color="#EE8E79" stop-opacity="0.287"/>
<stop offset="0.7624" stop-color="#D57B65" stop-opacity="0.765"/>
<stop offset="0.9972" stop-color="#C5715A"/>
</linearGradient>
<linearGradient id="paint4_linear_4082_22620" x1="46.3694" y1="62.8853" x2="48.0502" y2="69.1281" gradientUnits="userSpaceOnUse">
<stop stop-color="#F89580" stop-opacity="0"/>
<stop offset="0.2859" stop-color="#EE8E79" stop-opacity="0.287"/>
<stop offset="0.7624" stop-color="#D57B65" stop-opacity="0.765"/>
<stop offset="0.9972" stop-color="#C5715A"/>
</linearGradient>
<linearGradient id="paint5_linear_4082_22620" x1="38.2971" y1="61.6758" x2="44.3598" y2="67.7386" gradientUnits="userSpaceOnUse">
<stop stop-color="#FFDFCF"/>
<stop offset="1" stop-color="#FFA78F"/>
</linearGradient>
<linearGradient id="paint6_linear_4082_22620" x1="44.0289" y1="68.0264" x2="38.3062" y2="63.4642" gradientUnits="userSpaceOnUse">
<stop stop-color="#F89580" stop-opacity="0"/>
<stop offset="0.2859" stop-color="#EE8E79" stop-opacity="0.287"/>
<stop offset="0.7624" stop-color="#D57B65" stop-opacity="0.765"/>
<stop offset="0.9972" stop-color="#C5715A"/>
</linearGradient>
<linearGradient id="paint7_linear_4082_22620" x1="40.2902" y1="64.5053" x2="41.2506" y2="71.1884" gradientUnits="userSpaceOnUse">
<stop stop-color="#F89580" stop-opacity="0"/>
<stop offset="0.2859" stop-color="#EE8E79" stop-opacity="0.287"/>
<stop offset="0.7624" stop-color="#D57B65" stop-opacity="0.765"/>
<stop offset="0.9972" stop-color="#C5715A"/>
</linearGradient>
<linearGradient id="paint8_linear_4082_22620" x1="20.3739" y1="52.8502" x2="27.8172" y2="74.9398" gradientUnits="userSpaceOnUse">
<stop stop-color="#FFDFCF"/>
<stop offset="1" stop-color="#FFA78F"/>
</linearGradient>
<linearGradient id="paint9_linear_4082_22620" x1="17.7839" y1="60.3662" x2="9.85937" y2="60.3662" gradientUnits="userSpaceOnUse">
<stop stop-color="#F89580" stop-opacity="0"/>
<stop offset="0.2859" stop-color="#EE8E79" stop-opacity="0.287"/>
<stop offset="0.7624" stop-color="#D57B65" stop-opacity="0.765"/>
<stop offset="0.9972" stop-color="#C5715A"/>
</linearGradient>
<linearGradient id="paint10_linear_4082_22620" x1="22.2613" y1="51.3015" x2="18.6595" y2="61.9862" gradientUnits="userSpaceOnUse">
<stop stop-color="#F89580" stop-opacity="0"/>
<stop offset="0.2859" stop-color="#EE8E79" stop-opacity="0.287"/>
<stop offset="0.7624" stop-color="#D57B65" stop-opacity="0.765"/>
<stop offset="0.9972" stop-color="#C5715A"/>
</linearGradient>
<linearGradient id="paint11_linear_4082_22620" x1="33.831" y1="64.7539" x2="38.8734" y2="69.7161" gradientUnits="userSpaceOnUse">
<stop stop-color="#F89580" stop-opacity="0"/>
<stop offset="0.2859" stop-color="#EE8E79" stop-opacity="0.287"/>
<stop offset="0.7624" stop-color="#D57B65" stop-opacity="0.765"/>
<stop offset="0.9972" stop-color="#C5715A"/>
</linearGradient>
<linearGradient id="paint12_linear_4082_22620" x1="29.1513" y1="53.7739" x2="39.8359" y2="60.8572" gradientUnits="userSpaceOnUse">
<stop stop-color="#F89580" stop-opacity="0"/>
<stop offset="0.2859" stop-color="#EE8E79" stop-opacity="0.287"/>
<stop offset="0.7624" stop-color="#D57B65" stop-opacity="0.765"/>
<stop offset="0.9972" stop-color="#C5715A"/>
</linearGradient>
<linearGradient id="paint13_linear_4082_22620" x1="30.5097" y1="54.481" x2="36.9925" y2="58.3228" gradientUnits="userSpaceOnUse">
<stop stop-color="#F89580" stop-opacity="0"/>
<stop offset="0.2859" stop-color="#EE8E79" stop-opacity="0.287"/>
<stop offset="0.7624" stop-color="#D57B65" stop-opacity="0.765"/>
<stop offset="0.9972" stop-color="#C5715A"/>
</linearGradient>
<linearGradient id="paint14_linear_4082_22620" x1="29.8556" y1="49.8915" x2="36.91" y2="46.9954" gradientUnits="userSpaceOnUse">
<stop stop-color="#F89580" stop-opacity="0"/>
<stop offset="0.2859" stop-color="#EE8E79" stop-opacity="0.287"/>
<stop offset="0.7624" stop-color="#D57B65" stop-opacity="0.765"/>
<stop offset="0.9972" stop-color="#C5715A"/>
</linearGradient>
<linearGradient id="paint15_linear_4082_22620" x1="1.88891" y1="58.8771" x2="13.0969" y2="58.8771" gradientUnits="userSpaceOnUse">
<stop stop-color="#B3DAFE"/>
<stop offset="1" stop-color="#0182FC"/>
</linearGradient>
<linearGradient id="paint16_linear_4082_22620" x1="6.92359" y1="67.5177" x2="6.92359" y2="75.8984" gradientUnits="userSpaceOnUse">
<stop stop-color="#314DC9" stop-opacity="0"/>
<stop offset="0.2761" stop-color="#304BC4" stop-opacity="0.276"/>
<stop offset="0.5628" stop-color="#2B45B8" stop-opacity="0.563"/>
<stop offset="0.8535" stop-color="#243BA3" stop-opacity="0.854"/>
<stop offset="1" stop-color="#1F3596"/>
</linearGradient>
<linearGradient id="paint17_linear_4082_22620" x1="44.9971" y1="20.8338" x2="73.644" y2="49.4809" gradientUnits="userSpaceOnUse">
<stop stop-color="#FEF0AE"/>
<stop offset="1" stop-color="#FAC600"/>
</linearGradient>
<linearGradient id="paint18_linear_4082_22620" x1="49.8432" y1="32.0524" x2="54.0268" y2="22.2208" gradientUnits="userSpaceOnUse">
<stop stop-color="#FE9738" stop-opacity="0"/>
<stop offset="1" stop-color="#FE9738"/>
</linearGradient>
<linearGradient id="paint19_linear_4082_22620" x1="56.6845" y1="30.4994" x2="54.3345" y2="23.1553" gradientUnits="userSpaceOnUse">
<stop stop-color="#FE9738" stop-opacity="0"/>
<stop offset="1" stop-color="#FE9738"/>
</linearGradient>
<linearGradient id="paint20_linear_4082_22620" x1="57.4328" y1="25.5796" x2="48.522" y2="25.8733" gradientUnits="userSpaceOnUse">
<stop stop-color="#FE9738" stop-opacity="0"/>
<stop offset="1" stop-color="#FE9738"/>
</linearGradient>
<linearGradient id="paint21_linear_4082_22620" x1="70.462" y1="28.9477" x2="76.9467" y2="31.0394" gradientUnits="userSpaceOnUse">
<stop stop-color="#FE9738" stop-opacity="0"/>
<stop offset="1" stop-color="#FE9738"/>
</linearGradient>
<linearGradient id="paint22_linear_4082_22620" x1="53.4366" y1="42.0865" x2="53.4366" y2="50.3253" gradientUnits="userSpaceOnUse">
<stop stop-color="#FE9738" stop-opacity="0"/>
<stop offset="1" stop-color="#FE9738"/>
</linearGradient>
<linearGradient id="paint23_linear_4082_22620" x1="63.2159" y1="37.4437" x2="38.2816" y2="12.5094" gradientUnits="userSpaceOnUse">
<stop stop-color="#FEF0AE"/>
<stop offset="1" stop-color="#FAC600"/>
</linearGradient>
</defs>
</svg>
