<svg width="28" height="28" viewBox="0 0 28 28" fill="none" xmlns="http://www.w3.org/2000/svg">
<path d="M11 0.125C17.0061 0.125 21.875 4.99391 21.875 11C21.875 13.5978 20.9641 15.9828 19.4443 17.8532L26.7955 25.2045C27.2348 25.6439 27.2348 26.3561 26.7955 26.7955C26.3962 27.1949 25.7711 27.2312 25.3307 26.9044L25.2045 26.7955L17.8532 19.4443C15.9828 20.9641 13.5978 21.875 11 21.875C4.99391 21.875 0.125 17.0061 0.125 11C0.125 4.99391 4.99391 0.125 11 0.125ZM11 2.375C6.23654 2.375 2.375 6.23654 2.375 11C2.375 15.7634 6.23654 19.625 11 19.625C15.7634 19.625 19.625 15.7634 19.625 11C19.625 6.23654 15.7634 2.375 11 2.375Z" fill="white"/>
</svg>
