<svg width="24" height="24" viewBox="0 0 24 24" fill="none" xmlns="http://www.w3.org/2000/svg">
<path d="M15.8672 20.293C15.63 20.293 15.4375 20.4855 15.4375 20.7227C15.4375 20.9598 15.63 21.1523 15.8672 21.1523C16.1044 21.1523 16.2969 20.9598 16.2969 20.7227C16.2969 20.4855 16.1044 20.293 15.8672 20.293Z" fill="#5E5B50"/>
<path d="M19.9246 16.4595C19.487 15.8157 18.873 15.324 18.1491 15.0375L14.997 13.7901C15.8213 12.9882 16.2968 11.8828 16.2968 10.7109C16.2968 10.2476 16.2244 9.79633 16.0814 9.36424C16.2126 9.2887 16.2968 9.14793 16.2968 8.99217V7.67565L17.0467 6.17575L17.778 5.81013C17.9236 5.73734 18.0156 5.58854 18.0156 5.42582V4.13671C18.0156 3.95178 17.8972 3.78759 17.7217 3.72907L16.4998 3.32177L13.5484 1.0871C13.4737 1.03059 13.3826 1 13.289 1H10.7109C10.6172 1 10.5262 1.03059 10.4515 1.0871L7.50009 3.32173L6.27815 3.72903C6.10266 3.78751 5.98433 3.95173 5.98433 4.13667V5.42573C5.98433 5.5885 6.07628 5.73725 6.22186 5.81004L6.95314 6.17566L7.70307 7.67557V8.99217C7.70307 9.14793 7.78716 9.28866 7.91843 9.36424C7.77539 9.7962 7.70307 10.2474 7.70307 10.7109C7.70307 11.8828 8.17857 12.9881 9.00253 13.7897L5.85022 15.0375C5.12641 15.324 4.51256 15.8157 4.07501 16.4595C3.63746 17.1032 3.40625 17.8548 3.40625 18.6331V22.5703C3.40625 22.8076 3.59866 23 3.83594 23H11.5697C11.5701 23 11.5704 23 11.5707 23C11.571 23 11.5714 23 11.5717 23H12.4283C12.4286 23 12.429 23 12.4293 23C12.4296 23 12.4299 23 12.4303 23H20.1641C20.4013 23 20.5938 22.8076 20.5938 22.5703V18.6335C20.5937 17.8551 20.3623 17.1033 19.9246 16.4595ZM16.3473 15.2486L13.7187 19.6033V18.3022C13.7187 18.0247 13.627 17.7499 13.4609 17.5288L12.7024 16.5174C13.0552 16.2872 13.289 15.8892 13.289 15.4375V14.8103C13.6091 14.7099 13.915 14.5729 14.2032 14.4001L16.3473 15.2486ZM7.6577 5.6633C7.61611 5.58016 7.54869 5.5127 7.4655 5.47115L6.84366 5.16023V4.44643L7.8389 4.11467C7.88333 4.09985 7.92505 4.07789 7.96239 4.04962L10.8552 1.85937H13.1447L16.0374 4.04962C16.0747 4.07789 16.1165 4.09985 16.1609 4.11467L17.1561 4.44643V5.16023L16.5343 5.47115C16.4511 5.51274 16.3837 5.58016 16.3421 5.6633L15.6015 7.14452H8.39831L7.6577 5.6633ZM8.56245 8.00389H15.4374V8.68099L14.3138 9.05057C13.5637 9.29695 12.7836 9.42186 11.9952 9.42186C11.6001 9.42186 11.2026 9.39002 10.8137 9.32724C10.4256 9.26459 10.038 9.16985 9.66206 9.04575L8.83212 8.7711C8.79517 8.728 8.7491 8.69148 8.69483 8.66497C8.65195 8.64404 8.60731 8.63124 8.56245 8.62531V8.00389ZM8.56245 10.7109C8.56245 10.3432 8.61955 9.98548 8.73179 9.64306L9.39239 9.86173C9.81176 10.0001 10.2439 10.1057 10.6768 10.1757C11.1107 10.2457 11.5544 10.2813 11.9952 10.2813C12.8749 10.2813 13.7452 10.1419 14.5821 9.86701L15.2679 9.64156C15.3804 9.98449 15.4375 10.3428 15.4375 10.711C15.4375 11.8514 14.8745 12.9134 13.9306 13.5553C13.9239 13.5595 13.9175 13.564 13.9111 13.5686C13.5611 13.8035 13.1754 13.9701 12.7642 14.0633C12.2665 14.1764 11.7336 14.1764 11.2357 14.0633C10.8222 13.9696 10.4339 13.8015 10.0813 13.5636C9.13024 12.9229 8.56245 11.8565 8.56245 10.7109ZM12.4296 14.9861V15.4375C12.4296 15.6744 12.2368 15.8672 11.9999 15.8672C11.8853 15.8672 11.7774 15.8224 11.6962 15.7412C11.615 15.66 11.5703 15.5521 11.5703 15.4375V14.9861C11.7128 15.0003 11.8562 15.0078 11.9999 15.0078C12.1437 15.0078 12.2871 15.0003 12.4296 14.9861ZM9.79629 14.3997C10.0849 14.5727 10.3909 14.7099 10.7109 14.8102V15.4375C10.7109 15.7817 10.845 16.1053 11.0886 16.3489C11.1528 16.4131 11.2227 16.4695 11.297 16.518L10.5392 17.5285C10.3728 17.7499 10.2812 18.0247 10.2812 18.3022V19.6035L7.65263 15.2483L9.79629 14.3997ZM4.26558 22.1406V18.6331C4.26558 17.3913 5.01173 16.2936 6.16647 15.8366L6.84241 15.569L10.3074 21.3099L10.8089 22.1406H4.26558ZM12.8593 21.027L12.1871 22.1406H11.8127L11.1405 21.0273V18.3022C11.1405 18.2097 11.1709 18.1182 11.2265 18.0444L11.9999 17.013L12.7735 18.0447C12.8288 18.1182 12.8593 18.2097 12.8593 18.3022V21.027ZM13.1909 22.1406L17.1575 15.5693L17.8329 15.8366C18.988 16.2938 19.7343 17.3916 19.7343 18.6335V22.1406H13.1909Z" fill="#5E5B50"/>
<path d="M12 2.84766C11.0523 2.84766 10.2812 3.61869 10.2812 4.5664C10.2812 5.51412 11.0523 6.28515 12 6.28515C12.9477 6.28515 13.7187 5.51412 13.7187 4.5664C13.7187 3.61869 12.9477 2.84766 12 2.84766ZM12 5.42578C11.5261 5.42578 11.1406 5.04026 11.1406 4.5664C11.1406 4.09254 11.5261 3.70703 12 3.70703C12.4739 3.70703 12.8594 4.09254 12.8594 4.5664C12.8594 5.04026 12.4739 5.42578 12 5.42578Z" fill="#5E5B50"/>
<path d="M18.4453 20.293H17.5859C17.3487 20.293 17.1562 20.4853 17.1562 20.7227C17.1562 20.96 17.3487 21.1523 17.5859 21.1523H18.4453C18.6826 21.1523 18.875 20.96 18.875 20.7227C18.875 20.4853 18.6826 20.293 18.4453 20.293Z" fill="#5E5B50"/>
</svg>
