<svg width="24" height="24" viewBox="0 0 24 24" fill="none" xmlns="http://www.w3.org/2000/svg">
<path fill-rule="evenodd" clip-rule="evenodd" d="M16.9218 10.2C16.5078 10.2 16.1718 9.86401 16.1718 9.45001V7.30301C16.1718 5.20701 14.4668 3.50201 12.3708 3.50201H12.3548C11.3418 3.50201 10.3928 3.89201 9.67578 4.60301C8.95378 5.31701 8.55478 6.27001 8.55078 7.28601V9.45001C8.55078 9.86401 8.21478 10.2 7.80078 10.2C7.38678 10.2 7.05078 9.86401 7.05078 9.45001V7.30301C7.05678 5.86301 7.61378 4.53401 8.61878 3.53801C9.62478 2.54101 10.9528 1.96401 12.3738 2.00201C15.2938 2.00201 17.6718 4.38001 17.6718 7.30301V9.45001C17.6718 9.86401 17.3358 10.2 16.9218 10.2Z" fill="#5E5B50"/>
<path fill-rule="evenodd" clip-rule="evenodd" d="M8.542 10.1289C6.864 10.1289 5.5 11.4929 5.5 13.1709V17.4599C5.5 19.1379 6.864 20.5019 8.542 20.5019H16.183C17.86 20.5019 19.225 19.1379 19.225 17.4599V13.1709C19.225 11.4929 17.86 10.1289 16.183 10.1289H8.542ZM16.183 22.0019H8.542C6.037 22.0019 4 19.9649 4 17.4599V13.1709C4 10.6659 6.037 8.62891 8.542 8.62891H16.183C18.688 8.62891 20.725 10.6659 20.725 13.1709V17.4599C20.725 19.9649 18.688 22.0019 16.183 22.0019Z" fill="#5E5B50"/>
<path fill-rule="evenodd" clip-rule="evenodd" d="M12.3633 17.1756C11.9493 17.1756 11.6133 16.8396 11.6133 16.4256V14.2046C11.6133 13.7906 11.9493 13.4546 12.3633 13.4546C12.7773 13.4546 13.1133 13.7906 13.1133 14.2046V16.4256C13.1133 16.8396 12.7773 17.1756 12.3633 17.1756Z" fill="#5E5B50"/>
</svg>
