<svg fill="none" height="512" viewBox="0 0 24 24" width="512" xmlns="http://www.w3.org/2000/svg"><path clip-rule="evenodd" d="m4.51436 6.15877c-.31747.17637-.51436.511-.51436.87416v4.63867c0 3.6317 1.96892 6.9779 5.14357 8.7416l2.37083 1.3171c.302.1678.6692.1678.9712 0l2.3708-1.3171c3.1747-1.7637 5.1436-5.1099 5.1436-8.7416v-4.63867c0-.36317-.1969-.69779-.5144-.87416l-7-3.88888c-.302-.16779-.6692-.16779-.9712 0zm6.45534 8.37163c.2929.2929.7677.2929 1.0606 0l4-4c.2929-.2929.2929-.76775 0-1.06065-.2929-.29289-.7677-.29289-1.0606 0l-3.4697 3.46965-1.4697-1.4696c-.29286-.2929-.76774-.2929-1.06063 0-.29289.2928-.29289.7677 0 1.0606z" fill="rgb(0,0,0)" fill-rule="evenodd"/></svg>