<svg fill="none" height="512" viewBox="0 0 24 24" width="512" xmlns="http://www.w3.org/2000/svg"><path d="m11 21.7c-.3 0-.7-.1-.9-.3-.50001-.3-.80001-.9-.80001-1.5v-6.2c0-.1 0-.2-.1-.2l-4.4-3.50001c-.4-.4-.6-.8-.5-1.3v-2.6c0-1.5 1.2-2.8 2.7-2.8h10.00001c1.5 0 2.8 1.3 2.8 2.8v2.7c0 .5-.2.9-.5 1.2l-4.5 3.60001v.1 5.2c0 .7-.4 1.3-1 1.6l-2 1c-.3.2-.5.2-.8.2zm6-16.90001h-10.00001c-.7 0-1.3.5-1.2 1.2v2.7c0 .1 0 .2.1.2l4.30001 3.50001c.4.4.6.8.6 1.3v6.3c0 .1 0 .2.1.2s.2.1.2 0l2-1c.1 0 .1-.1.1-.3v-5.2c0-.5.2-.9.5-1.2l4.5-3.60001v-.1-2.7c.1-.8-.5-1.3-1.2-1.3z" fill="rgb(0,0,0)"/></svg>