<svg width="36" height="36" viewBox="0 0 36 36" fill="none" xmlns="http://www.w3.org/2000/svg">
<g clip-path="url(#clip0_1832_10093)">
<path d="M21.6162 3.47448L19.5817 3.17448L18.6762 1.33085C18.4035 0.774483 17.6071 0.774483 17.3344 1.33085L16.4289 3.17448L14.3944 3.46903C13.778 3.5563 13.5326 4.31448 13.9798 4.74539L15.4526 6.17994L15.1035 8.20903C14.9998 8.81994 15.638 9.28357 16.1889 8.99448L17.9998 8.03994L19.8217 8.99994C20.3726 9.28903 21.0107 8.81994 20.9071 8.21448L20.558 6.18539L22.0307 4.75085C22.478 4.31994 22.2326 3.56176 21.6162 3.47448Z" fill="url(#paint0_linear_1832_10093)"/>
<path d="M30.4201 5.00199L28.9419 4.78926L28.2819 3.44744C28.0801 3.03835 27.5019 3.03835 27.3001 3.44744L26.6401 4.78926L25.1619 5.00199C24.7146 5.06744 24.5401 5.61835 24.8564 5.92926L25.9255 6.97653L25.6746 8.45472C25.5983 8.90199 26.0673 9.24017 26.471 9.02744L27.791 8.32926L29.111 9.02744C29.5146 9.23472 29.9783 8.90199 29.9074 8.45472L29.6564 6.97653L30.7255 5.92926C31.0419 5.61835 30.8619 5.06744 30.4201 5.00199Z" fill="url(#paint1_linear_1832_10093)"/>
<path d="M10.8488 5.00199L9.37061 4.78926L8.71061 3.44744C8.50879 3.03835 7.93061 3.03835 7.72879 3.44744L7.06879 4.78926L5.59061 5.00199C5.14333 5.06744 4.96879 5.61835 5.28515 5.92926L6.35424 6.97653L6.10333 8.45472C6.02697 8.90199 6.49606 9.24017 6.8997 9.02744L8.2197 8.32926L9.5397 9.02744C9.94333 9.23472 10.407 8.90199 10.3361 8.45472L10.0852 6.97653L11.1542 5.92926C11.4761 5.61835 11.3015 5.06744 10.8488 5.00199Z" fill="url(#paint2_linear_1832_10093)"/>
<path d="M34.3415 20.231H29.1433H6.85602H1.65783C1.24874 20.231 0.916016 20.5637 0.916016 20.9728V34.3419C0.916016 34.751 1.24874 35.0837 1.65783 35.0837H34.336C34.7451 35.0837 35.0778 34.751 35.0778 34.3419V20.9728C35.0833 20.5637 34.7506 20.231 34.3415 20.231Z" fill="url(#paint3_linear_1832_10093)"/>
<path d="M24.6873 11.3184H11.3127C10.4946 11.3184 9.8291 11.9893 9.8291 12.802V35.0838H26.1709V12.802C26.1709 11.9838 25.5 11.3184 24.6873 11.3184Z" fill="url(#paint4_linear_1832_10093)"/>
<path d="M6.11413 23.1982H4.63049C4.2214 23.1982 3.88867 23.531 3.88867 23.9401V25.4237C3.88867 25.8328 4.2214 26.1655 4.63049 26.1655H6.11413C6.52322 26.1655 6.85594 25.8328 6.85594 25.4237V23.9455C6.85594 23.5364 6.52322 23.1982 6.11413 23.1982Z" fill="url(#paint5_linear_1832_10093)"/>
<path d="M6.11413 29.1436H4.63049C4.2214 29.1436 3.88867 29.4763 3.88867 29.8854V31.369C3.88867 31.7781 4.2214 32.1108 4.63049 32.1108H6.11413C6.52322 32.1108 6.85594 31.7781 6.85594 31.369V29.8854C6.85594 29.4763 6.52322 29.1436 6.11413 29.1436Z" fill="url(#paint6_linear_1832_10093)"/>
<path d="M14.285 14.2852H12.8014C12.3923 14.2852 12.0596 14.6179 12.0596 15.027V16.5106C12.0596 16.9197 12.3923 17.2524 12.8014 17.2524H14.285C14.6941 17.2524 15.0268 16.9197 15.0268 16.5106V15.027C15.0268 14.6233 14.6941 14.2852 14.285 14.2852Z" fill="url(#paint7_linear_1832_10093)"/>
<path d="M14.285 19.4893H12.8014C12.3923 19.4893 12.0596 19.822 12.0596 20.2311V21.7147C12.0596 22.1238 12.3923 22.4565 12.8014 22.4565H14.285C14.6941 22.4565 15.0268 22.1238 15.0268 21.7147V20.2311C15.0268 19.822 14.6941 19.4893 14.285 19.4893Z" fill="url(#paint8_linear_1832_10093)"/>
<path d="M18.7411 14.2852H17.2574C16.8484 14.2852 16.5156 14.6179 16.5156 15.027V16.5106C16.5156 16.9197 16.8484 17.2524 17.2574 17.2524H18.7411C19.1502 17.2524 19.4829 16.9197 19.4829 16.5106V15.027C19.4829 14.6233 19.1502 14.2852 18.7411 14.2852Z" fill="url(#paint9_linear_1832_10093)"/>
<path d="M18.7411 19.4893H17.2574C16.8484 19.4893 16.5156 19.822 16.5156 20.2311V21.7147C16.5156 22.1238 16.8484 22.4565 17.2574 22.4565H18.7411C19.1502 22.4565 19.4829 22.1238 19.4829 21.7147V20.2311C19.4829 19.822 19.1502 19.4893 18.7411 19.4893Z" fill="url(#paint10_linear_1832_10093)"/>
<path d="M23.1981 14.2852H21.7145C21.3054 14.2852 20.9727 14.6179 20.9727 15.027V16.5106C20.9727 16.9197 21.3054 17.2524 21.7145 17.2524H23.1981C23.6072 17.2524 23.9399 16.9197 23.9399 16.5106V15.027C23.9399 14.6233 23.6072 14.2852 23.1981 14.2852Z" fill="url(#paint11_linear_1832_10093)"/>
<path d="M23.1981 19.4893H21.7145C21.3054 19.4893 20.9727 19.822 20.9727 20.2311V21.7147C20.9727 22.1238 21.3054 22.4565 21.7145 22.4565H23.1981C23.6072 22.4565 23.9399 22.1238 23.9399 21.7147V20.2311C23.9399 19.822 23.6072 19.4893 23.1981 19.4893Z" fill="url(#paint12_linear_1832_10093)"/>
<path d="M31.369 23.1982H29.8854C29.4763 23.1982 29.1436 23.531 29.1436 23.9401V25.4237C29.1436 25.8328 29.4763 26.1655 29.8854 26.1655H31.369C31.7781 26.1655 32.1108 25.8328 32.1108 25.4237V23.9455C32.1108 23.5364 31.7781 23.1982 31.369 23.1982Z" fill="url(#paint13_linear_1832_10093)"/>
<path d="M31.369 29.1436H29.8854C29.4763 29.1436 29.1436 29.4763 29.1436 29.8854V31.369C29.1436 31.7781 29.4763 32.1108 29.8854 32.1108H31.369C31.7781 32.1108 32.1108 31.7781 32.1108 31.369V29.8854C32.1108 29.4763 31.7781 29.1436 31.369 29.1436Z" fill="url(#paint14_linear_1832_10093)"/>
<path d="M20.2255 26.1709H15.7692C15.3601 26.1709 15.0273 26.5036 15.0273 26.9127V35.0836H20.9673V26.9127C20.9728 26.5036 20.6346 26.1709 20.2255 26.1709Z" fill="url(#paint15_linear_1832_10093)"/>
</g>
<defs>
<linearGradient id="paint0_linear_1832_10093" x1="18.0026" y1="0.915756" x2="18.0026" y2="9.08667" gradientUnits="userSpaceOnUse">
<stop stop-color="#FFC63A"/>
<stop offset="1" stop-color="#ED971F"/>
</linearGradient>
<linearGradient id="paint1_linear_1832_10093" x1="27.7893" y1="3.13653" x2="27.7893" y2="9.09508" gradientUnits="userSpaceOnUse">
<stop stop-color="#FFC63A"/>
<stop offset="1" stop-color="#ED971F"/>
</linearGradient>
<linearGradient id="paint2_linear_1832_10093" x1="8.22024" y1="3.13653" x2="8.22024" y2="9.09508" gradientUnits="userSpaceOnUse">
<stop stop-color="#FFC63A"/>
<stop offset="1" stop-color="#ED971F"/>
</linearGradient>
<linearGradient id="paint3_linear_1832_10093" x1="17.9997" y1="20.2293" x2="17.9997" y2="35.0842" gradientUnits="userSpaceOnUse">
<stop stop-color="#7394C1"/>
<stop offset="1" stop-color="#3D65AB"/>
</linearGradient>
<linearGradient id="paint4_linear_1832_10093" x1="18" y1="11.3162" x2="18" y2="35.0844" gradientUnits="userSpaceOnUse">
<stop stop-color="#5D51C3"/>
<stop offset="1" stop-color="#0E272D"/>
</linearGradient>
<linearGradient id="paint5_linear_1832_10093" x1="5.37285" y1="23.2004" x2="5.37285" y2="26.171" gradientUnits="userSpaceOnUse">
<stop stop-color="#D5EEF6"/>
<stop offset="1" stop-color="#9DC7DE"/>
</linearGradient>
<linearGradient id="paint6_linear_1832_10093" x1="5.37285" y1="29.1419" x2="5.37285" y2="32.113" gradientUnits="userSpaceOnUse">
<stop stop-color="#D5EEF6"/>
<stop offset="1" stop-color="#9DC7DE"/>
</linearGradient>
<linearGradient id="paint7_linear_1832_10093" x1="13.5432" y1="14.2868" x2="13.5432" y2="17.2579" gradientUnits="userSpaceOnUse">
<stop stop-color="#D5EEF6"/>
<stop offset="1" stop-color="#9DC7DE"/>
</linearGradient>
<linearGradient id="paint8_linear_1832_10093" x1="13.5432" y1="19.4865" x2="13.5432" y2="22.4576" gradientUnits="userSpaceOnUse">
<stop stop-color="#D5EEF6"/>
<stop offset="1" stop-color="#9DC7DE"/>
</linearGradient>
<linearGradient id="paint9_linear_1832_10093" x1="17.9993" y1="14.2868" x2="17.9993" y2="17.2579" gradientUnits="userSpaceOnUse">
<stop stop-color="#D5EEF6"/>
<stop offset="1" stop-color="#9DC7DE"/>
</linearGradient>
<linearGradient id="paint10_linear_1832_10093" x1="17.9993" y1="19.4865" x2="17.9993" y2="22.4576" gradientUnits="userSpaceOnUse">
<stop stop-color="#D5EEF6"/>
<stop offset="1" stop-color="#9DC7DE"/>
</linearGradient>
<linearGradient id="paint11_linear_1832_10093" x1="22.4563" y1="14.2868" x2="22.4563" y2="17.2579" gradientUnits="userSpaceOnUse">
<stop stop-color="#D5EEF6"/>
<stop offset="1" stop-color="#9DC7DE"/>
</linearGradient>
<linearGradient id="paint12_linear_1832_10093" x1="22.4563" y1="19.4865" x2="22.4563" y2="22.4576" gradientUnits="userSpaceOnUse">
<stop stop-color="#D5EEF6"/>
<stop offset="1" stop-color="#9DC7DE"/>
</linearGradient>
<linearGradient id="paint13_linear_1832_10093" x1="30.6266" y1="23.2004" x2="30.6266" y2="26.171" gradientUnits="userSpaceOnUse">
<stop stop-color="#D5EEF6"/>
<stop offset="1" stop-color="#9DC7DE"/>
</linearGradient>
<linearGradient id="paint14_linear_1832_10093" x1="30.6266" y1="29.1419" x2="30.6266" y2="32.113" gradientUnits="userSpaceOnUse">
<stop stop-color="#D5EEF6"/>
<stop offset="1" stop-color="#9DC7DE"/>
</linearGradient>
<linearGradient id="paint15_linear_1832_10093" x1="18.0001" y1="26.1709" x2="18.0001" y2="35.0842" gradientUnits="userSpaceOnUse">
<stop stop-color="#FFC63A"/>
<stop offset="1" stop-color="#ED971F"/>
</linearGradient>
<clipPath id="clip0_1832_10093">
<rect width="36" height="36" fill="white"/>
</clipPath>
</defs>
</svg>
