<svg width="28" height="26" viewBox="0 0 28 26" fill="none" xmlns="http://www.w3.org/2000/svg">
<path d="M13.0489 0.92717C13.3483 0.00585895 14.6517 0.00586192 14.9511 0.927173L17.3677 8.36487C17.5016 8.77689 17.8855 9.05585 18.3188 9.05585H26.1392C27.1079 9.05585 27.5107 10.2955 26.727 10.8649L20.4001 15.4616C20.0496 15.7163 19.903 16.1676 20.0369 16.5796L22.4535 24.0173C22.7529 24.9386 21.6984 25.7048 20.9147 25.1354L14.5878 20.5386C14.2373 20.284 13.7627 20.284 13.4122 20.5386L7.08533 25.1354C6.30162 25.7048 5.24714 24.9387 5.54649 24.0173L7.96315 16.5796C8.09702 16.1676 7.95036 15.7163 7.59987 15.4616L1.27299 10.8649C0.489277 10.2955 0.892056 9.05585 1.86078 9.05585H9.68123C10.1145 9.05585 10.4984 8.77689 10.6323 8.36487L13.0489 0.92717Z" fill="#FFC700"/>
</svg>
