<svg width="22" height="21" viewBox="0 0 22 21" fill="none" xmlns="http://www.w3.org/2000/svg">
<path d="M10.0812 2.34919C10.3805 1.42788 11.6839 1.42787 11.9833 2.34919L13.5019 7.02295C13.6358 7.43497 14.0197 7.71393 14.4529 7.71393H19.3672C20.3359 7.71393 20.7387 8.95355 19.955 9.52295L15.9793 12.4115C15.6288 12.6661 15.4821 13.1175 15.616 13.5295L17.1346 18.2033C17.4339 19.1246 16.3795 19.8907 15.5957 19.3213L11.62 16.4328C11.2695 16.1781 10.7949 16.1781 10.4444 16.4328L6.4687 19.3213C5.68499 19.8907 4.6305 19.1246 4.92986 18.2033L6.44845 13.5295C6.58233 13.1175 6.43567 12.6661 6.08518 12.4115L2.10944 9.52295C1.32573 8.95355 1.72851 7.71393 2.69723 7.71393H7.61151C8.04474 7.71393 8.42869 7.43497 8.56257 7.02295L10.0812 2.34919Z" fill="#F3F3F3"/>
<path d="M12.4588 2.19468C12.0098 0.812709 10.0547 0.812714 9.60564 2.19468L8.08704 6.86844C8.0201 7.07445 7.82813 7.21393 7.61151 7.21393H2.69723C1.24414 7.21393 0.639982 9.07336 1.81555 9.92746L5.79129 12.816C5.96653 12.9433 6.03986 13.169 5.97293 13.375L4.45433 18.0488C4.0053 19.4307 5.58702 20.5799 6.76259 19.7258L10.7383 16.8373C10.9136 16.71 11.1509 16.71 11.3261 16.8373L15.3019 19.7258C16.4774 20.5799 18.0591 19.4307 17.6101 18.0488L16.0915 13.375C16.0246 13.169 16.0979 12.9433 16.2732 12.816L20.2489 9.92746C21.4245 9.07335 20.8203 7.21393 19.3672 7.21393H14.4529C14.2363 7.21393 14.0443 7.07445 13.9774 6.86844L12.4588 2.19468Z" stroke="#C7C7C7" stroke-opacity="0.5"/>
</svg>
