<svg width="32" height="32" viewBox="0 0 32 32" fill="none" xmlns="http://www.w3.org/2000/svg">
<path d="M8 2H28.2857C29.2325 2 30 2.76751 30 3.71429V24" stroke="#2C7AC1" stroke-width="2.5" stroke-linecap="round"/>
<path d="M24 30H3.71429C2.76751 30 2 29.2325 2 28.2857V8" stroke="#597DFF" stroke-width="2.5" stroke-linecap="round"/>
<path d="M17.4697 12.861C17.1768 13.1539 17.1768 13.6288 17.4697 13.9217C17.7626 14.2146 18.2374 14.2146 18.5303 13.9217L17.4697 12.861ZM26.1413 6.00005C26.1413 5.58584 25.8055 5.25005 25.3913 5.25005H18.6413C18.2271 5.25005 17.8913 5.58584 17.8913 6.00005C17.8913 6.41427 18.2271 6.75005 18.6413 6.75005H24.6413V12.7501C24.6413 13.1643 24.9771 13.5001 25.3913 13.5001C25.8055 13.5001 26.1413 13.1643 26.1413 12.7501V6.00005ZM18.5303 13.9217L25.9216 6.53038L24.861 5.46972L17.4697 12.861L18.5303 13.9217Z" fill="#FFC38C"/>
<path d="M14.921 18.5303C15.2138 18.2374 15.2138 17.7626 14.921 17.4697C14.6281 17.1768 14.1532 17.1768 13.8603 17.4697L14.921 18.5303ZM6.24932 25.3913C6.24932 25.8055 6.58511 26.1413 6.99932 26.1413H13.7493C14.1635 26.1413 14.4993 25.8055 14.4993 25.3913C14.4993 24.9771 14.1635 24.6413 13.7493 24.6413H7.74932V18.6413C7.74932 18.2271 7.41353 17.8913 6.99932 17.8913C6.58511 17.8913 6.24932 18.2271 6.24932 18.6413V25.3913ZM13.8603 17.4697L6.46899 24.861L7.52965 25.9216L14.921 18.5303L13.8603 17.4697Z" fill="#FC8575"/>
</svg>
