<svg width="22" height="17" viewBox="0 0 22 17" fill="none" xmlns="http://www.w3.org/2000/svg">
<path fill-rule="evenodd" clip-rule="evenodd" d="M16.886 8.14651C16.518 8.14651 16.197 7.87551 16.144 7.50051C16.087 7.08951 16.372 6.71051 16.783 6.65351C17.823 6.50751 18.608 5.60551 18.61 4.55351C18.61 3.51051 17.862 2.62851 16.831 2.45951C16.423 2.39251 16.146 2.00651 16.213 1.59751C16.281 1.18851 16.664 0.914506 17.075 0.979506C18.833 1.26851 20.11 2.77251 20.11 4.55551C20.106 6.35051 18.765 7.89051 16.99 8.13951C16.955 8.14451 16.92 8.14651 16.886 8.14651Z" fill="#5E5B50"/>
<mask id="mask0_2212_5279" style="mask-type:alpha" maskUnits="userSpaceOnUse" x="17" y="10" width="5" height="5">
<path fill-rule="evenodd" clip-rule="evenodd" d="M17.9785 10.0017H21.7725V14.5313H17.9785V10.0017Z" fill="white"/>
</mask>
<g mask="url(#mask0_2212_5279)">
<path fill-rule="evenodd" clip-rule="evenodd" d="M19.8618 14.5313C19.5598 14.5313 19.2748 14.3473 19.1608 14.0483C19.0128 13.6613 19.2078 13.2273 19.5948 13.0803C20.2728 12.8223 20.2728 12.5373 20.2728 12.4003C20.2728 11.9623 19.7158 11.6563 18.6178 11.4923C18.2088 11.4303 17.9258 11.0493 17.9868 10.6383C18.0478 10.2283 18.4278 9.95528 18.8408 10.0083C21.2638 10.3713 21.7728 11.5093 21.7728 12.4003C21.7728 12.9443 21.5588 13.9373 20.1288 14.4823C20.0408 14.5153 19.9508 14.5313 19.8618 14.5313Z" fill="#5E5B50"/>
</g>
<path fill-rule="evenodd" clip-rule="evenodd" d="M10.8867 11.9141C8.51073 11.9141 5.67773 12.2061 5.67773 13.5961C5.67773 14.9971 8.51073 15.2911 10.8867 15.2911C13.2627 15.2911 16.0947 15.0001 16.0947 13.6131C16.0947 12.2091 13.2627 11.9141 10.8867 11.9141ZM10.8867 16.7911C9.22773 16.7911 4.17773 16.7911 4.17773 13.5961C4.17773 10.4141 9.22773 10.4141 10.8867 10.4141C12.5457 10.4141 17.5947 10.4141 17.5947 13.6131C17.5947 16.7911 12.7217 16.7911 10.8867 16.7911Z" fill="#5E5B50"/>
<path fill-rule="evenodd" clip-rule="evenodd" d="M10.8864 1.5C9.1944 1.5 7.8184 2.877 7.8184 4.569C7.8154 5.389 8.1294 6.156 8.7044 6.735C9.2794 7.314 10.0454 7.635 10.8614 7.638L10.8864 8.388V7.638C12.5784 7.638 13.9554 6.262 13.9554 4.569C13.9554 2.877 12.5784 1.5 10.8864 1.5ZM10.8864 9.138H10.8594C9.6394 9.134 8.4964 8.656 7.6404 7.792C6.7824 6.929 6.3134 5.783 6.3184 4.566C6.3184 2.05 8.3674 0 10.8864 0C13.4064 0 15.4554 2.05 15.4554 4.569C15.4554 7.088 13.4064 9.138 10.8864 9.138Z" fill="#5E5B50"/>
<path fill-rule="evenodd" clip-rule="evenodd" d="M4.88511 8.14645C4.85111 8.14645 4.81611 8.14445 4.78111 8.13945C3.00611 7.89045 1.66611 6.35045 1.66211 4.55745C1.66211 2.77245 2.93911 1.26845 4.69711 0.97945C5.11811 0.91345 5.49111 1.19045 5.55911 1.59745C5.62611 2.00645 5.34911 2.39245 4.94111 2.45945C3.91011 2.62845 3.16211 3.51045 3.16211 4.55545C3.16411 5.60545 3.94911 6.50845 4.98811 6.65345C5.39911 6.71045 5.68411 7.08945 5.62711 7.50045C5.57411 7.87545 5.25311 8.14645 4.88511 8.14645Z" fill="#5E5B50"/>
<path fill-rule="evenodd" clip-rule="evenodd" d="M1.912 14.5313C1.823 14.5313 1.733 14.5153 1.645 14.4823C0.214 13.9363 0 12.9433 0 12.4003C0 11.5103 0.509 10.3713 2.933 10.0083C3.346 9.95631 3.724 10.2283 3.786 10.6383C3.847 11.0493 3.564 11.4303 3.155 11.4923C2.057 11.6563 1.5 11.9623 1.5 12.4003C1.5 12.5373 1.5 12.8213 2.179 13.0803C2.566 13.2273 2.761 13.6613 2.613 14.0483C2.499 14.3473 2.214 14.5313 1.912 14.5313Z" fill="#5E5B50"/>
</svg>
