<svg width="36" height="36" viewBox="0 0 36 36" fill="none" xmlns="http://www.w3.org/2000/svg">
<g clip-path="url(#clip0_1832_9981)">
<path d="M0.800198 35.8801C0.74768 35.8277 0.708857 35.7603 0.691069 35.6825C0.640669 35.4624 0.778245 35.2432 0.998339 35.1928L1.71326 35.029C3.13349 34.7037 4.22563 33.5159 4.43076 32.0734C4.64556 30.5628 5.65279 29.2574 7.05933 28.6664L10.322 27.2952C10.5302 27.2077 10.7698 27.3056 10.8573 27.5137C10.9447 27.7219 10.8469 27.9615 10.6388 28.049L7.37613 29.42C6.23323 29.9003 5.41483 30.961 5.24027 32.1884C4.98778 33.9637 3.6437 35.4255 1.8958 35.8259L1.18088 35.9897C1.03843 36.0224 0.89641 35.9763 0.800198 35.8801V35.8801Z" fill="url(#paint0_linear_1832_9981)"/>
<path d="M4.13179 32.5465C4.47019 31.5166 5.02375 29.9137 5.78525 27.972C5.95544 27.5381 6.20659 27.3696 6.39746 26.9044C6.57203 26.479 6.68455 25.7594 6.87626 25.3121C7.20838 24.5371 7.56619 23.7322 7.94935 22.9078C8.12045 22.5397 8.50833 22.3795 8.68953 22.0044C8.90236 21.564 8.91034 20.9076 9.13692 20.4605C9.49862 19.7468 9.87789 19.0265 10.2745 18.3056C10.4679 17.9542 10.8065 17.8143 11.0081 17.4634C11.2317 17.0742 11.3191 16.4739 11.5527 16.0872C11.9403 15.4454 12.3417 14.8082 12.7568 14.1801C13.1797 13.54 13.6875 12.9799 14.1387 12.3633L25.2433 23.4681C24.3249 24.1402 23.3753 24.781 22.4099 25.3903C22.1067 25.5816 21.802 25.5581 21.4961 25.7431C21.2429 25.8964 20.9889 26.2593 20.7344 26.4083C20.2183 26.7104 19.7002 27.0037 19.1825 27.288C18.9097 27.4378 18.4959 27.444 18.2237 27.5887C17.9225 27.7489 17.7632 28.0472 17.4635 28.2012C16.9346 28.4731 16.4087 28.7355 15.8883 28.9882C15.5887 29.1337 15.2908 29.0643 14.9953 29.2034C14.7068 29.3392 14.4205 29.6837 14.1368 29.8133C13.592 30.0623 13.0568 30.3 12.5344 30.5262C12.2341 30.6562 11.9379 30.5707 11.6466 30.6933C11.3465 30.8194 11.0516 31.1534 10.7623 31.2715C10.1963 31.5026 9.65215 31.7182 9.13473 31.9181C8.82041 32.0396 8.51603 31.9435 8.22252 32.0534C7.91441 32.1689 7.61836 32.4896 7.33551 32.5922C6.38906 32.9354 5.59156 33.2067 4.98965 33.4044C4.45989 33.5784 3.95779 33.0763 4.13179 32.5465V32.5465Z" fill="url(#paint1_linear_1832_9981)"/>
<path d="M9.13585 31.9177C8.49067 32.1667 7.8875 32.3919 7.33465 32.5922L5.78418 27.9728C6.11672 27.125 6.48914 26.2131 6.89976 25.2559L9.13585 31.9177Z" fill="url(#paint2_linear_1832_9981)"/>
<path d="M12.5353 30.5254C11.9239 30.7904 11.3301 31.0394 10.7585 31.2724L7.9502 22.9046C8.32537 22.0973 8.7249 21.2711 9.14935 20.436L12.5353 30.5254Z" fill="url(#paint3_linear_1832_9981)"/>
<path d="M15.8877 28.988C15.2956 29.2757 14.7107 29.5507 14.1369 29.813L10.2744 18.3054C10.6833 17.5628 11.1105 16.8191 11.556 16.082L15.8877 28.988Z" fill="url(#paint4_linear_1832_9981)"/>
<path d="M19.1835 27.2872C18.6086 27.6031 18.0337 27.9081 17.4626 28.2008L12.7568 14.1804C13.179 13.5402 13.6167 12.9093 14.0677 12.293L14.1928 12.4181L19.1835 27.2872Z" fill="url(#paint5_linear_1832_9981)"/>
<path d="M22.414 25.3874C21.8568 25.7394 21.2945 26.0808 20.7295 26.4106L16.9629 15.1875L20.0146 18.2392L22.414 25.3874Z" fill="url(#paint6_linear_1832_9981)"/>
<path d="M25.2433 23.4679C25.8985 22.8128 23.9279 19.7801 20.8419 16.6941C17.756 13.6081 14.7232 11.6376 14.0681 12.2927C13.413 12.9478 15.3835 15.9806 18.4695 19.0666C21.5554 22.1525 24.5882 24.1231 25.2433 23.4679Z" fill="url(#paint7_linear_1832_9981)"/>
<path d="M5.90249 31.6332C6.32023 32.051 6.77941 32.3831 7.24762 32.6233C6.33915 32.9519 5.57277 33.2126 4.98936 33.4039C4.4596 33.5779 3.95786 33.0761 4.13179 32.5463C4.32308 31.9629 4.58383 31.1965 4.91242 30.2881C5.15263 30.7564 5.48475 31.2155 5.90249 31.6332V31.6332Z" fill="url(#paint8_linear_1832_9981)"/>
<path d="M24.1111 10.0229L21.1513 8.99206C20.0847 8.62062 19.7736 7.26187 20.5722 6.46331L21.4326 5.60291C21.7756 5.25985 22.2847 5.14324 22.7429 5.30284L25.7027 6.33371C26.7692 6.70514 27.0804 8.06389 26.2818 8.86246L25.4214 9.72286C25.0784 10.0659 24.5693 10.1825 24.1111 10.0229Z" fill="url(#paint9_linear_1832_9981)"/>
<path d="M19.4076 14.9896L18.4978 10.8216C18.2428 9.65325 18.5999 8.43532 19.4456 7.58974L21.4328 5.60254C21.1354 5.89986 21.0099 6.32797 21.0996 6.73873L21.9993 10.8606C22.2543 12.029 21.8972 13.2469 21.0516 14.0925L19.9852 15.1588C19.7934 15.3506 19.4655 15.2545 19.4076 14.9896V14.9896Z" fill="url(#paint10_linear_1832_9981)"/>
<path d="M27.5124 0.270045L28.4222 4.438C28.6773 5.60638 28.3201 6.8243 27.4745 7.66988L25.4873 9.65708C25.7846 9.35977 25.9101 8.93165 25.8205 8.52089L24.9207 4.39903C24.6657 3.23066 25.0228 2.01273 25.8684 1.16715L26.9348 0.100775C27.1266 -0.091084 27.4545 0.00512773 27.5124 0.270045V0.270045Z" fill="url(#paint11_linear_1832_9981)"/>
<path d="M32.8984 18.5993C32.4224 17.8688 31.7954 17.2456 31.0619 16.7736C30.8969 16.6674 30.8974 16.4225 31.0628 16.317C31.7979 15.8477 32.4272 15.2267 32.9059 14.498C33.0121 14.3363 33.2537 14.3367 33.3594 14.4988C33.8355 15.2293 34.4624 15.8525 35.1959 16.3244C35.3609 16.4306 35.3604 16.6756 35.1951 16.7811C34.4599 17.2504 33.8306 17.8714 33.3519 18.6001C33.2457 18.7619 33.0041 18.7614 32.8984 18.5993V18.5993Z" fill="url(#paint12_linear_1832_9981)"/>
<path d="M16.4986 4.51551C16.016 4.82998 15.6043 5.24426 15.2924 5.72885C15.2223 5.83784 15.0605 5.83756 14.9907 5.72829C14.6807 5.24257 14.2704 4.8268 13.789 4.51057C13.6821 4.4404 13.6824 4.28073 13.7895 4.21092C14.2721 3.89645 14.6839 3.48217 14.9957 2.99758C15.0658 2.88859 15.2276 2.88887 15.2974 2.99815C15.6075 3.48386 16.0177 3.89963 16.4991 4.21586C16.606 4.28603 16.6057 4.4457 16.4986 4.51551Z" fill="url(#paint13_linear_1832_9981)"/>
<path d="M22.1784 2.27863C21.4909 2.72666 20.9043 3.31684 20.46 4.00727C20.3601 4.16249 20.1295 4.16207 20.0302 4.00649C19.5884 3.31444 19.0039 2.72221 18.318 2.27164C18.1658 2.17162 18.1662 1.94426 18.3188 1.8448C19.0063 1.39677 19.593 0.806586 20.0372 0.116162C20.1371 -0.0390613 20.3676 -0.0386378 20.467 0.116939C20.9088 0.808986 21.4932 1.40122 22.1791 1.85179C22.3315 1.95181 22.3311 2.17917 22.1784 2.27863V2.27863Z" fill="url(#paint14_linear_1832_9981)"/>
<path d="M33.2588 22.963C32.9443 22.4804 32.53 22.0686 32.0454 21.7568C31.9364 21.6867 31.9367 21.5248 32.046 21.4551C32.5317 21.1451 32.9475 20.7348 33.2637 20.2533C33.334 20.1464 33.4935 20.1467 33.5634 20.2539C33.8778 20.7365 34.2921 21.1482 34.7767 21.46C34.8857 21.5301 34.8854 21.692 34.7761 21.7617C34.2904 22.0718 33.8747 22.4821 33.5584 22.9635C33.4882 23.0704 33.3286 23.0701 33.2588 22.963V22.963Z" fill="url(#paint15_linear_1832_9981)"/>
<path d="M31.5029 3.46033V4.65786C31.5029 4.87182 31.6366 5.06106 31.8362 5.13822C32.4221 5.36466 32.8908 5.82779 33.1249 6.40979C33.2036 6.60546 33.3913 6.73535 33.6022 6.73535H34.8045C35.1408 6.73535 35.389 6.41643 35.3007 6.09186C34.886 4.56539 33.6745 3.3637 32.1424 2.96304C31.8187 2.87833 31.5029 3.12575 31.5029 3.46033V3.46033Z" fill="url(#paint16_linear_1832_9981)"/>
<path d="M23.2598 11.0982V12.1824C23.2598 12.3761 23.3808 12.5474 23.5615 12.6173C24.0919 12.8223 24.5162 13.2415 24.7283 13.7685C24.7996 13.9457 24.9695 14.0632 25.1604 14.0632H26.2489C26.5534 14.0632 26.778 13.7744 26.6982 13.4806C26.3227 12.0986 25.2259 11.0107 23.8388 10.648C23.5456 10.5713 23.2598 10.7953 23.2598 11.0982V11.0982Z" fill="url(#paint17_linear_1832_9981)"/>
<path d="M13.0875 7.08936H14.4604C14.7058 7.08936 14.9227 7.24267 15.0112 7.47145C15.2708 8.1431 15.8017 8.68049 16.469 8.94893C16.6933 9.03921 16.8422 9.25437 16.8422 9.4962V10.8746C16.8422 11.2602 16.4766 11.5447 16.1044 11.4435C14.3543 10.968 12.9766 9.57907 12.5172 7.82241C12.4202 7.4514 12.7038 7.08936 13.0875 7.08936Z" fill="url(#paint18_linear_1832_9981)"/>
<path d="M30.839 21.2824C30.3191 22.0309 29.5019 22.522 28.597 22.6296C27.6921 22.7373 26.7825 22.4518 26.1013 21.846L26.0233 21.7766C25.2137 21.0568 24.8412 20.0075 24.9498 18.9885C24.8387 19.0441 24.7295 19.1041 24.6224 19.1684C24.5211 19.2292 24.3903 19.2007 24.3253 19.1022L23.2844 17.5256C23.2162 17.4224 23.2467 17.2827 23.3521 17.2178C24.283 16.6444 25.3275 16.2932 26.3998 16.1791L28.4046 13.2431C28.5008 13.1022 28.693 13.066 28.8339 13.1622L30.2451 14.1258C30.386 14.222 30.4222 14.4143 30.326 14.5552L29.0725 16.3909C30.0505 16.6621 30.8426 17.3831 31.2028 18.3359C31.341 18.7015 31.4089 19.0833 31.4089 19.4634C31.4089 20.1047 31.2152 20.7407 30.839 21.2824V21.2824ZM27.4186 18.813C27.1544 19.1999 27.2192 19.7266 27.5695 20.038L27.6475 20.1074C27.8996 20.3315 28.1783 20.3363 28.3221 20.3192C28.4658 20.3021 28.7357 20.232 28.9281 19.9551C29.1615 19.619 29.0746 19.2862 29.0264 19.1586C28.9782 19.0311 28.8232 18.724 28.4258 18.6264L28.3422 18.6059C28.1106 18.549 27.8763 18.5094 27.6414 18.4869L27.4186 18.813Z" fill="url(#paint19_linear_1832_9981)"/>
<path d="M26.1015 21.8461L26.0235 21.7767C25.214 21.0569 24.8415 20.0076 24.9501 18.9886C25.9799 18.2713 27.6416 18.4869 27.6416 18.4869L27.4189 18.8131C27.1547 19.2 27.2196 19.7267 27.5698 20.0381L27.6416 20.102V22.5979C27.075 22.4932 26.5407 22.2367 26.1015 21.8461V21.8461Z" fill="url(#paint20_linear_1832_9981)"/>
<path d="M28.4042 13.2431C28.5004 13.1022 28.6926 13.066 28.8335 13.1622L30.2448 14.1258C30.3857 14.222 30.4219 14.4143 30.3257 14.5552L29.0722 16.3909C27.6841 16.0231 26.3994 16.1791 26.3994 16.1791L28.4042 13.2431Z" fill="url(#paint21_linear_1832_9981)"/>
<path d="M33.4788 10.0128C33.8799 9.30505 33.9199 8.44705 33.5842 7.70312C33.455 7.4178 33.2774 7.16256 33.0618 6.94698C32.6984 6.58359 32.2279 6.33272 31.708 6.23919C30.9887 6.10959 30.2472 6.29467 29.6734 6.74644C29.4003 6.96166 29.1768 7.22799 29.0135 7.52679C28.9992 7.55213 28.9862 7.5779 28.9731 7.60366C28.9603 7.629 28.9477 7.65519 28.9354 7.68096C28.8867 7.78521 28.8454 7.893 28.8118 8.00432C28.7943 8.05903 28.7793 8.11528 28.7662 8.17197C28.7595 8.20013 28.7535 8.22823 28.7475 8.25639V8.25717C28.7424 8.28449 28.7376 8.31145 28.7328 8.33841C28.7313 8.3495 28.7293 8.36023 28.7277 8.37131C28.7201 8.42009 28.7146 8.46844 28.7098 8.51757C28.7071 8.54651 28.7047 8.5758 28.7031 8.60517L28.6979 8.68881C28.6468 9.55557 29.0308 10.3613 29.6696 10.8773C29.5753 10.909 29.4794 10.9367 29.3823 10.9609C29.2904 10.9839 29.2325 11.0743 29.2515 11.167L29.5547 12.6504C29.5749 12.7475 29.6712 12.8097 29.7679 12.7867C30.6204 12.5842 31.4115 12.191 32.0839 11.6477L33.2179 11.8615C33.3617 11.8886 33.5095 11.843 33.6129 11.7396L34.7897 10.5627C34.8978 10.4547 34.8407 10.2697 34.6905 10.2414L33.4788 10.0128ZM30.5599 8.79738L30.5643 8.72086L30.5647 8.71416C30.581 8.4443 30.7359 8.28378 30.8271 8.21164C30.9183 8.14027 31.1109 8.02698 31.3772 8.07449C31.6998 8.13314 31.8389 8.37053 31.8841 8.47041C31.9289 8.56987 32.0157 8.83183 31.8453 9.11241L31.8096 9.17107C31.7105 9.33512 31.6 9.49013 31.4799 9.63632L31.1688 9.57724C30.7997 9.50799 30.5381 9.1727 30.5599 8.79738Z" fill="url(#paint22_linear_1832_9981)"/>
<path d="M28.7027 8.60526L28.6979 8.68876C28.647 9.55559 29.0305 10.3614 29.6697 10.8774C30.66 10.7003 31.4795 9.6362 31.4795 9.6362L31.1684 9.57754C30.7994 9.50801 30.5377 9.17279 30.5597 8.79768L30.5642 8.72081L29.1496 7.30615C28.8877 7.68676 28.7303 8.135 28.7027 8.60526Z" fill="url(#paint23_linear_1832_9981)"/>
<path d="M34.7898 10.5625L33.6129 11.7394C33.5095 11.8428 33.3617 11.8884 33.218 11.8613L32.084 11.6474C32.084 11.6474 32.9004 11.0078 33.4786 10.0127L34.6906 10.2413C34.8407 10.2695 34.8978 10.4544 34.7898 10.5625V10.5625Z" fill="url(#paint24_linear_1832_9981)"/>
</g>
<defs>
<linearGradient id="paint0_linear_1832_9981" x1="5.69996" y1="36.0823" x2="5.87757" y2="27.163" gradientUnits="userSpaceOnUse">
<stop stop-color="#9B62CD"/>
<stop offset="0.3003" stop-color="#985DCB"/>
<stop offset="0.6716" stop-color="#8F4EC7"/>
<stop offset="1" stop-color="#833AC1"/>
</linearGradient>
<linearGradient id="paint1_linear_1832_9981" x1="9.06056" y1="21.7621" x2="15.4879" y2="29.2083" gradientUnits="userSpaceOnUse">
<stop stop-color="#FFD945"/>
<stop offset="0.3043" stop-color="#FFCD3E"/>
<stop offset="0.8558" stop-color="#FFAD2B"/>
<stop offset="1" stop-color="#FFA325"/>
</linearGradient>
<linearGradient id="paint2_linear_1832_9981" x1="6.75011" y1="28.362" x2="8.52081" y2="31.0734" gradientUnits="userSpaceOnUse">
<stop stop-color="#F8F6FB"/>
<stop offset="1" stop-color="#EFDCFB"/>
</linearGradient>
<linearGradient id="paint3_linear_1832_9981" x1="10.1439" y1="26.1452" x2="11.9147" y2="28.8566" gradientUnits="userSpaceOnUse">
<stop stop-color="#F8F6FB"/>
<stop offset="1" stop-color="#EFDCFB"/>
</linearGradient>
<linearGradient id="paint4_linear_1832_9981" x1="13.5025" y1="23.9522" x2="15.2732" y2="26.6636" gradientUnits="userSpaceOnUse">
<stop stop-color="#F8F6FB"/>
<stop offset="1" stop-color="#EFDCFB"/>
</linearGradient>
<linearGradient id="paint5_linear_1832_9981" x1="16.8002" y1="21.7985" x2="18.5709" y2="24.5099" gradientUnits="userSpaceOnUse">
<stop stop-color="#F8F6FB"/>
<stop offset="1" stop-color="#EFDCFB"/>
</linearGradient>
<linearGradient id="paint6_linear_1832_9981" x1="19.0633" y1="20.3207" x2="20.8341" y2="23.0322" gradientUnits="userSpaceOnUse">
<stop stop-color="#F8F6FB"/>
<stop offset="1" stop-color="#EFDCFB"/>
</linearGradient>
<linearGradient id="paint7_linear_1832_9981" x1="22.8176" y1="14.7277" x2="18.2256" y2="19.3197" gradientUnits="userSpaceOnUse">
<stop stop-color="#FF7044"/>
<stop offset="1" stop-color="#F82814"/>
</linearGradient>
<linearGradient id="paint8_linear_1832_9981" x1="4.81939" y1="31.9785" x2="6.00506" y2="33.1641" gradientUnits="userSpaceOnUse">
<stop stop-color="#92F37F"/>
<stop offset="1" stop-color="#4AB272"/>
</linearGradient>
<linearGradient id="paint9_linear_1832_9981" x1="25.1516" y1="7.58472" x2="22.2577" y2="7.70424" gradientUnits="userSpaceOnUse">
<stop stop-color="#9B62CD"/>
<stop offset="0.3003" stop-color="#985DCB"/>
<stop offset="0.6716" stop-color="#8F4EC7"/>
<stop offset="1" stop-color="#833AC1"/>
</linearGradient>
<linearGradient id="paint10_linear_1832_9981" x1="21.2937" y1="10.2183" x2="18.2085" y2="11.1511" gradientUnits="userSpaceOnUse">
<stop stop-color="#FF819C"/>
<stop offset="0.2594" stop-color="#FF7E9A"/>
<stop offset="0.4757" stop-color="#FE7396"/>
<stop offset="0.6765" stop-color="#FC628E"/>
<stop offset="0.8668" stop-color="#FA4A83"/>
<stop offset="1" stop-color="#F83479"/>
</linearGradient>
<linearGradient id="paint11_linear_1832_9981" x1="28.0407" y1="4.52484" x2="24.9196" y2="5.06297" gradientUnits="userSpaceOnUse">
<stop stop-color="#FF819C"/>
<stop offset="0.2594" stop-color="#FF7E9A"/>
<stop offset="0.4757" stop-color="#FE7396"/>
<stop offset="0.6765" stop-color="#FC628E"/>
<stop offset="0.8668" stop-color="#FA4A83"/>
<stop offset="1" stop-color="#F83479"/>
</linearGradient>
<linearGradient id="paint12_linear_1832_9981" x1="34.0643" y1="15.8343" x2="30.9872" y2="18.1325" gradientUnits="userSpaceOnUse">
<stop stop-color="#FFD945"/>
<stop offset="0.3043" stop-color="#FFCD3E"/>
<stop offset="0.8558" stop-color="#FFAD2B"/>
<stop offset="1" stop-color="#FFA325"/>
</linearGradient>
<linearGradient id="paint13_linear_1832_9981" x1="14.6761" y1="3.73891" x2="16.1945" y2="5.77186" gradientUnits="userSpaceOnUse">
<stop stop-color="#FFD945"/>
<stop offset="0.3043" stop-color="#FFCD3E"/>
<stop offset="0.8558" stop-color="#FFAD2B"/>
<stop offset="1" stop-color="#FFA325"/>
</linearGradient>
<linearGradient id="paint14_linear_1832_9981" x1="19.5837" y1="1.17092" x2="21.7469" y2="4.06725" gradientUnits="userSpaceOnUse">
<stop stop-color="#00ADFB"/>
<stop offset="1" stop-color="#3F3CED"/>
</linearGradient>
<linearGradient id="paint15_linear_1832_9981" x1="34.0237" y1="21.1339" x2="31.9907" y2="22.6523" gradientUnits="userSpaceOnUse">
<stop stop-color="#FF7044"/>
<stop offset="1" stop-color="#F82814"/>
</linearGradient>
<linearGradient id="paint16_linear_1832_9981" x1="32.7749" y1="5.42205" x2="34.9086" y2="3.4717" gradientUnits="userSpaceOnUse">
<stop stop-color="#92F37F"/>
<stop offset="1" stop-color="#4AB272"/>
</linearGradient>
<linearGradient id="paint17_linear_1832_9981" x1="24.4113" y1="12.8743" x2="26.3431" y2="11.1085" gradientUnits="userSpaceOnUse">
<stop stop-color="#92F37F"/>
<stop offset="1" stop-color="#4AB272"/>
</linearGradient>
<linearGradient id="paint18_linear_1832_9981" x1="15.3366" y1="8.54757" x2="13.1005" y2="10.9939" gradientUnits="userSpaceOnUse">
<stop stop-color="#92F37F"/>
<stop offset="1" stop-color="#4AB272"/>
</linearGradient>
<linearGradient id="paint19_linear_1832_9981" x1="23.9646" y1="16.4365" x2="32.1599" y2="19.2285" gradientUnits="userSpaceOnUse">
<stop stop-color="#00ADFB"/>
<stop offset="1" stop-color="#3F3CED"/>
</linearGradient>
<linearGradient id="paint20_linear_1832_9981" x1="26.4073" y1="19.9233" x2="26.0799" y2="17.4759" gradientUnits="userSpaceOnUse">
<stop stop-color="#3F3CED" stop-opacity="0"/>
<stop offset="1" stop-color="#2F43BB"/>
</linearGradient>
<linearGradient id="paint21_linear_1832_9981" x1="28.4782" y1="14.9106" x2="27.8578" y2="17.6165" gradientUnits="userSpaceOnUse">
<stop stop-color="#3F3CED" stop-opacity="0"/>
<stop offset="1" stop-color="#2F43BB"/>
</linearGradient>
<linearGradient id="paint22_linear_1832_9981" x1="32.8873" y1="7.04051" x2="29.8252" y2="13.2672" gradientUnits="userSpaceOnUse">
<stop stop-color="#FF7044"/>
<stop offset="1" stop-color="#F82814"/>
</linearGradient>
<linearGradient id="paint23_linear_1832_9981" x1="29.9826" y1="9.5436" x2="30.7949" y2="10.5937" gradientUnits="userSpaceOnUse">
<stop stop-color="#F82814" stop-opacity="0"/>
<stop offset="1" stop-color="#C0272D"/>
</linearGradient>
<linearGradient id="paint24_linear_1832_9981" x1="33.845" y1="11.0909" x2="32.8478" y2="10.7541" gradientUnits="userSpaceOnUse">
<stop stop-color="#F82814" stop-opacity="0"/>
<stop offset="1" stop-color="#C0272D"/>
</linearGradient>
<clipPath id="clip0_1832_9981">
<rect width="36" height="36" fill="white"/>
</clipPath>
</defs>
</svg>
