<svg width="14" height="14" viewBox="0 0 14 14" fill="none" xmlns="http://www.w3.org/2000/svg">
<g clip-path="url(#clip0_1818_11968)">
<path d="M11.375 8.09375H10.9375V9.84375H11.8125V8.53125C11.8125 8.41522 11.7664 8.30394 11.6844 8.22189C11.6023 8.13984 11.491 8.09375 11.375 8.09375Z" fill="#485270"/>
<path d="M3.0625 0.65625H10.9375V4.15625H3.0625V0.65625Z" fill="#FFEB99"/>
<path d="M13.3437 5.03125V8.96875C13.3437 9.20081 13.2516 9.42337 13.0875 9.58747C12.9234 9.75156 12.7008 9.84375 12.4687 9.84375H11.8125V8.53125C11.8122 8.41532 11.7659 8.30425 11.684 8.22227C11.602 8.1403 11.4909 8.0941 11.375 8.09375H2.625C2.50907 8.0941 2.398 8.1403 2.31602 8.22227C2.23405 8.30425 2.18785 8.41532 2.1875 8.53125V9.84375H1.53125C1.29919 9.84375 1.07663 9.75156 0.912532 9.58747C0.748437 9.42337 0.65625 9.20081 0.65625 8.96875V5.03125C0.65625 4.79919 0.748437 4.57663 0.912532 4.41253C1.07663 4.24844 1.29919 4.15625 1.53125 4.15625H12.4687C12.7008 4.15625 12.9234 4.24844 13.0875 4.41253C13.2516 4.57663 13.3437 4.79919 13.3437 5.03125Z" fill="#478CF7"/>
<path d="M12.4688 4.15625H1.53125C1.29919 4.15625 1.07663 4.24844 0.912532 4.41253C0.748437 4.57663 0.65625 4.79919 0.65625 5.03125V5.46875C0.65625 5.23669 0.748437 5.01413 0.912532 4.85003C1.07663 4.68594 1.29919 4.59375 1.53125 4.59375H12.4688C12.7008 4.59375 12.9234 4.68594 13.0875 4.85003C13.2516 5.01413 13.3438 5.23669 13.3438 5.46875V5.03125C13.3438 4.79919 13.2516 4.57663 13.0875 4.41253C12.9234 4.24844 12.7008 4.15625 12.4688 4.15625Z" fill="#006DF0"/>
<path d="M3.0625 8.09375H10.9375V13.3438H3.0625V8.09375Z" fill="#FFEB99"/>
<path d="M5.6875 13.3438H10.9375V8.09375C10.9375 9.48614 10.3844 10.8215 9.39981 11.8061C8.41524 12.7906 7.07989 13.3438 5.6875 13.3438Z" fill="#FFE477"/>
<path d="M2.625 8.09375C2.50897 8.09375 2.39769 8.13984 2.31564 8.22189C2.23359 8.30394 2.1875 8.41522 2.1875 8.53125V9.84375H3.0625V8.09375H2.625Z" fill="#485270"/>
<path d="M10.0625 5.46875H3.9375C3.82147 5.46875 3.71019 5.51484 3.62814 5.59689C3.54609 5.67894 3.5 5.79022 3.5 5.90625C3.5 6.02228 3.54609 6.13356 3.62814 6.21561C3.71019 6.29766 3.82147 6.34375 3.9375 6.34375H10.0625C10.1785 6.34375 10.2898 6.29766 10.3719 6.21561C10.4539 6.13356 10.5 6.02228 10.5 5.90625C10.5 5.79022 10.4539 5.67894 10.3719 5.59689C10.2898 5.51484 10.1785 5.46875 10.0625 5.46875Z" fill="#FF8A00"/>
<path d="M3.0625 2.40625H2.625C2.50897 2.40625 2.39769 2.45234 2.31564 2.53439C2.23359 2.61644 2.1875 2.72772 2.1875 2.84375V4.15625H3.0625V2.40625Z" fill="#97A8C1"/>
<path d="M11.8125 4.15625V2.84375C11.8125 2.72772 11.7664 2.61644 11.6844 2.53439C11.6023 2.45234 11.491 2.40625 11.375 2.40625H10.9375V4.15625H11.8125Z" fill="#97A8C1"/>
<path d="M10.0625 12.6875H6.5625C6.50448 12.6875 6.44884 12.6645 6.40782 12.6234C6.3668 12.5824 6.34375 12.5268 6.34375 12.4688C6.34375 12.4107 6.3668 12.3551 6.40782 12.3141C6.44884 12.273 6.50448 12.25 6.5625 12.25H10.0625C10.1205 12.25 10.1762 12.273 10.2172 12.3141C10.2582 12.3551 10.2812 12.4107 10.2812 12.4688C10.2812 12.5268 10.2582 12.5824 10.2172 12.6234C10.1762 12.6645 10.1205 12.6875 10.0625 12.6875Z" fill="#B8A65F"/>
<path d="M5.6875 12.6875H3.9375C3.87948 12.6875 3.82384 12.6645 3.78282 12.6234C3.7418 12.5824 3.71875 12.5268 3.71875 12.4688C3.71875 12.4107 3.7418 12.3551 3.78282 12.3141C3.82384 12.273 3.87948 12.25 3.9375 12.25H5.6875C5.74552 12.25 5.80116 12.273 5.84218 12.3141C5.8832 12.3551 5.90625 12.4107 5.90625 12.4688C5.90625 12.5268 5.8832 12.5824 5.84218 12.6234C5.80116 12.6645 5.74552 12.6875 5.6875 12.6875Z" fill="#B8A65F"/>
<path d="M3.9375 9.1875H8.3125C8.37052 9.1875 8.42616 9.16445 8.46718 9.12343C8.5082 9.08241 8.53125 9.02677 8.53125 8.96875C8.53125 8.91073 8.5082 8.85509 8.46718 8.81407C8.42616 8.77305 8.37052 8.75 8.3125 8.75H3.9375C3.87948 8.75 3.82384 8.77305 3.78282 8.81407C3.7418 8.85509 3.71875 8.91073 3.71875 8.96875C3.71875 9.02677 3.7418 9.08241 3.78282 9.12343C3.82384 9.16445 3.87948 9.1875 3.9375 9.1875Z" fill="#B8A65F"/>
<path d="M10.0625 8.75H9.1875C9.12948 8.75 9.07384 8.77305 9.03282 8.81407C8.9918 8.85509 8.96875 8.91073 8.96875 8.96875C8.96875 9.02677 8.9918 9.08241 9.03282 9.12343C9.07384 9.16445 9.12948 9.1875 9.1875 9.1875H10.0625C10.1205 9.1875 10.1762 9.16445 10.2172 9.12343C10.2582 9.08241 10.2812 9.02677 10.2812 8.96875C10.2812 8.91073 10.2582 8.85509 10.2172 8.81407C10.1762 8.77305 10.1205 8.75 10.0625 8.75Z" fill="#B8A65F"/>
<path d="M3.9375 10.0625H5.6875C5.74552 10.0625 5.80116 10.0395 5.84218 9.99843C5.8832 9.95741 5.90625 9.90177 5.90625 9.84375C5.90625 9.78573 5.8832 9.73009 5.84218 9.68907C5.80116 9.64805 5.74552 9.625 5.6875 9.625H3.9375C3.87948 9.625 3.82384 9.64805 3.78282 9.68907C3.7418 9.73009 3.71875 9.78573 3.71875 9.84375C3.71875 9.90177 3.7418 9.95741 3.78282 9.99843C3.82384 10.0395 3.87948 10.0625 3.9375 10.0625Z" fill="#B8A65F"/>
<path d="M10.0625 9.625H6.5625C6.50448 9.625 6.44884 9.64805 6.40782 9.68907C6.3668 9.73009 6.34375 9.78573 6.34375 9.84375C6.34375 9.90177 6.3668 9.95741 6.40782 9.99843C6.44884 10.0395 6.50448 10.0625 6.5625 10.0625H10.0625C10.1205 10.0625 10.1762 10.0395 10.2172 9.99843C10.2582 9.95741 10.2812 9.90177 10.2812 9.84375C10.2812 9.78573 10.2582 9.73009 10.2172 9.68907C10.1762 9.64805 10.1205 9.625 10.0625 9.625Z" fill="#B8A65F"/>
<path d="M10.0625 10.5H8.3125C8.25448 10.5 8.19884 10.523 8.15782 10.5641C8.1168 10.6051 8.09375 10.6607 8.09375 10.7188C8.09375 10.7768 8.1168 10.8324 8.15782 10.8734C8.19884 10.9145 8.25448 10.9375 8.3125 10.9375H10.0625C10.1205 10.9375 10.1762 10.9145 10.2172 10.8734C10.2582 10.8324 10.2812 10.7768 10.2812 10.7188C10.2812 10.6607 10.2582 10.6051 10.2172 10.5641C10.1762 10.523 10.1205 10.5 10.0625 10.5Z" fill="#B8A65F"/>
<path d="M3.9375 10.9375H7.4375C7.49552 10.9375 7.55116 10.9145 7.59218 10.8734C7.6332 10.8324 7.65625 10.7768 7.65625 10.7188C7.65625 10.6607 7.6332 10.6051 7.59218 10.5641C7.55116 10.523 7.49552 10.5 7.4375 10.5H3.9375C3.87948 10.5 3.82384 10.523 3.78282 10.5641C3.7418 10.6051 3.71875 10.6607 3.71875 10.7188C3.71875 10.7768 3.7418 10.8324 3.78282 10.8734C3.82384 10.9145 3.87948 10.9375 3.9375 10.9375Z" fill="#B8A65F"/>
<path d="M10.0625 11.375H9.1875C9.12948 11.375 9.07384 11.398 9.03282 11.4391C8.9918 11.4801 8.96875 11.5357 8.96875 11.5938C8.96875 11.6518 8.9918 11.7074 9.03282 11.7484C9.07384 11.7895 9.12948 11.8125 9.1875 11.8125H10.0625C10.1205 11.8125 10.1762 11.7895 10.2172 11.7484C10.2582 11.7074 10.2812 11.6518 10.2812 11.5938C10.2812 11.5357 10.2582 11.4801 10.2172 11.4391C10.1762 11.398 10.1205 11.375 10.0625 11.375Z" fill="#B8A65F"/>
<path d="M8.3125 11.375H3.9375C3.87948 11.375 3.82384 11.398 3.78282 11.4391C3.7418 11.4801 3.71875 11.5357 3.71875 11.5938C3.71875 11.6518 3.7418 11.7074 3.78282 11.7484C3.82384 11.7895 3.87948 11.8125 3.9375 11.8125H8.3125C8.37052 11.8125 8.42616 11.7895 8.46718 11.7484C8.5082 11.7074 8.53125 11.6518 8.53125 11.5938C8.53125 11.5357 8.5082 11.4801 8.46718 11.4391C8.42616 11.398 8.37052 11.375 8.3125 11.375Z" fill="#B8A65F"/>
<path d="M11.5938 5.6875H11.375C11.317 5.6875 11.2613 5.71055 11.2203 5.75157C11.1793 5.79259 11.1562 5.84823 11.1562 5.90625C11.1562 5.96427 11.1793 6.01991 11.2203 6.06093C11.2613 6.10195 11.317 6.125 11.375 6.125H11.5938C11.6518 6.125 11.7074 6.10195 11.7484 6.06093C11.7895 6.01991 11.8125 5.96427 11.8125 5.90625C11.8125 5.84823 11.7895 5.79259 11.7484 5.75157C11.7074 5.71055 11.6518 5.6875 11.5938 5.6875Z" fill="#005ECE"/>
<path d="M12.4688 5.6875H12.25C12.192 5.6875 12.1363 5.71055 12.0953 5.75157C12.0543 5.79259 12.0312 5.84823 12.0312 5.90625C12.0312 5.96427 12.0543 6.01991 12.0953 6.06093C12.1363 6.10195 12.192 6.125 12.25 6.125H12.4688C12.5268 6.125 12.5824 6.10195 12.6234 6.06093C12.6645 6.01991 12.6875 5.96427 12.6875 5.90625C12.6875 5.84823 12.6645 5.79259 12.6234 5.75157C12.5824 5.71055 12.5268 5.6875 12.4688 5.6875Z" fill="#005ECE"/>
<path d="M1.75 5.6875H1.53125C1.47323 5.6875 1.41759 5.71055 1.37657 5.75157C1.33555 5.79259 1.3125 5.84823 1.3125 5.90625C1.3125 5.96427 1.33555 6.01991 1.37657 6.06093C1.41759 6.10195 1.47323 6.125 1.53125 6.125H1.75C1.80802 6.125 1.86366 6.10195 1.90468 6.06093C1.9457 6.01991 1.96875 5.96427 1.96875 5.90625C1.96875 5.84823 1.9457 5.79259 1.90468 5.75157C1.86366 5.71055 1.80802 5.6875 1.75 5.6875V5.6875Z" fill="#005ECE"/>
<path d="M2.625 5.6875H2.40625C2.34823 5.6875 2.29259 5.71055 2.25157 5.75157C2.21055 5.79259 2.1875 5.84823 2.1875 5.90625C2.1875 5.96427 2.21055 6.01991 2.25157 6.06093C2.29259 6.10195 2.34823 6.125 2.40625 6.125H2.625C2.68302 6.125 2.73866 6.10195 2.77968 6.06093C2.8207 6.01991 2.84375 5.96427 2.84375 5.90625C2.84375 5.84823 2.8207 5.79259 2.77968 5.75157C2.73866 5.71055 2.68302 5.6875 2.625 5.6875Z" fill="#005ECE"/>
</g>
<defs>
<clipPath id="clip0_1818_11968">
<rect width="14" height="14" fill="white"/>
</clipPath>
</defs>
</svg>
