<svg width="24" height="24" viewBox="0 0 24 24" fill="none" xmlns="http://www.w3.org/2000/svg">
<path d="M20.1821 5.63641H13.5501L15.4002 3.78639C15.4772 3.80733 15.5567 3.81803 15.6365 3.81823C16.1386 3.81823 16.5457 3.41119 16.5457 2.90911C16.5457 2.40704 16.1386 2 15.6365 2C15.1345 2 14.7274 2.40704 14.7274 2.90911C14.728 2.98743 14.7387 3.06537 14.7593 3.14095L12.2683 5.63645H11.732L9.24103 3.14095C9.26158 3.06537 9.27228 2.98743 9.27287 2.90911C9.27283 2.40704 8.86579 2 8.36371 2C7.86164 2 7.4546 2.40704 7.4546 2.90911C7.4546 3.41119 7.86164 3.81823 8.36371 3.81823C8.44204 3.81764 8.51997 3.80694 8.59555 3.78639L10.4501 5.63641H3.81819C2.81403 5.63641 2 6.45045 2 7.4546V18.3638C2 19.368 2.81403 20.182 3.81819 20.182H5.63637V21.5457C5.63637 21.7967 5.83989 22.0002 6.09091 22.0002C6.34197 22.0002 6.54545 21.7967 6.54545 21.5457V21.0911H17.4547V21.5457C17.4547 21.7967 17.6582 22.0002 17.9092 22.0002C18.1603 22.0002 18.3638 21.7967 18.3638 21.5457V20.182H20.182C21.1861 20.182 22.0001 19.368 22.0001 18.3638V7.4546C22.0003 6.45045 21.1862 5.63641 20.1821 5.63641ZM21.0911 18.3638C21.0911 18.8659 20.6841 19.273 20.182 19.273H3.81819C3.31611 19.273 2.90907 18.8659 2.90907 18.3638V7.4546C2.90907 6.95253 3.31611 6.54549 3.81819 6.54549H20.182C20.6841 6.54549 21.0911 6.95253 21.0911 7.4546V18.3638Z" fill="#5E5B50"/>
</svg>
