<svg width="43" height="36" viewBox="0 0 43 36" fill="none" xmlns="http://www.w3.org/2000/svg">
<path d="M13.9973 35.6405C9.142 35.6405 4.61607 34.2079 0.806641 31.736C4.04097 31.9483 9.74884 31.4399 13.2991 28.0044C7.95833 27.7557 5.54974 23.6002 5.23557 21.8244C5.68936 22.002 7.85361 22.2151 9.07536 21.7178C2.9317 20.1551 1.98921 14.6854 2.19865 13.0161C3.35058 13.833 5.30538 14.1171 6.07334 14.0461C0.348569 9.89059 2.40809 3.63957 3.4204 2.28991C7.5287 8.06412 13.6858 11.3071 21.3029 11.4875C21.1593 10.8485 21.0834 10.1832 21.0834 9.4999C21.0834 4.596 24.9905 0.620605 29.8102 0.620605C32.3284 0.620605 34.5975 1.70585 36.1903 3.44175C37.8731 3.04171 40.4057 2.10525 41.6437 1.29543C41.0197 3.56853 39.0768 5.46476 37.9016 6.16758C37.9114 6.19149 37.8921 6.14356 37.9016 6.16758C38.9339 6.00916 41.7271 5.46458 42.8306 4.70508C42.2849 5.98208 40.2251 8.10532 38.5347 9.29401C38.8492 23.3654 28.237 35.6405 13.9973 35.6405Z" fill="#47ACDF"/>
</svg>
