<svg width="24" height="24" viewBox="0 0 24 24" fill="none" xmlns="http://www.w3.org/2000/svg">
<path fill-rule="evenodd" clip-rule="evenodd" d="M7.93429 2.93414C9.01263 1.8558 10.4752 1.25 12.0002 1.25C13.5252 1.25 14.9877 1.8558 16.066 2.93414C17.1444 4.01247 17.7502 5.47501 17.7502 7C17.7502 8.52499 17.1444 9.98753 16.066 11.0659C14.9877 12.1442 13.5252 12.75 12.0002 12.75C10.4752 12.75 9.01263 12.1442 7.93429 11.0659C6.85596 9.98753 6.25016 8.52499 6.25016 7C6.25016 5.47501 6.85596 4.01247 7.93429 2.93414ZM12.0002 11.25C13.1273 11.25 14.2083 10.8022 15.0054 10.0052C15.8024 9.20817 16.2502 8.12717 16.2502 7C16.2502 5.87283 15.8024 4.79183 15.0054 3.9948C14.2083 3.19777 13.1273 2.75 12.0002 2.75C10.873 2.75 9.79198 3.19777 8.99495 3.9948C8.19792 4.79183 7.75016 5.87283 7.75016 7C7.75016 8.12717 8.19792 9.20817 8.99495 10.0052C9.79198 10.8022 10.873 11.25 12.0002 11.25ZM2.66016 22C2.66016 17.5791 6.99728 14.25 12.0002 14.25C17.003 14.25 21.3402 17.5791 21.3402 22C21.3402 22.4142 21.0044 22.75 20.5902 22.75C20.1759 22.75 19.8402 22.4142 19.8402 22C19.8402 18.6809 16.4773 15.75 12.0002 15.75C7.52303 15.75 4.16016 18.6809 4.16016 22C4.16016 22.4142 3.82437 22.75 3.41016 22.75C2.99594 22.75 2.66016 22.4142 2.66016 22Z" fill="#3D3D46"/>
</svg>
