<svg width="24" height="24" viewBox="0 0 24 24" fill="none" xmlns="http://www.w3.org/2000/svg">
<g clip-path="url(#clip0_5224_30157)">
<path d="M9 10C11.7614 10 14 7.76142 14 5C14 2.23858 11.7614 0 9 0C6.23858 0 4 2.23858 4 5C4 7.76142 6.23858 10 9 10Z" fill="#FF955A"/>
<path d="M11.534 20.8C11.013 19.898 11.117 18.787 11.737 18C11.117 17.213 11.013 16.103 11.534 15.2L12.343 13.8C12.788 13.029 13.618 12.55 14.509 12.55C14.631 12.55 14.751 12.559 14.87 12.576C14.903 12.494 14.945 12.417 14.986 12.339C14.446 12.126 13.863 12 13.25 12H4.75C2.131 12 0 14.131 0 16.75V20.25C0 20.664 0.336 21 0.75 21H11.649L11.534 20.8Z" fill="#FF955A"/>
<path d="M21.7033 18.469C21.7233 18.314 21.7503 18.16 21.7503 18C21.7503 17.839 21.7223 17.686 21.7033 17.531L22.6043 16.849C22.8053 16.697 22.8613 16.419 22.7353 16.2L21.9263 14.8C21.8003 14.582 21.5313 14.491 21.2993 14.589L20.2623 15.026C20.0093 14.833 19.7403 14.663 19.4433 14.539L19.3053 13.438C19.2733 13.188 19.0613 13 18.8093 13H17.1923C16.9403 13 16.7273 13.188 16.6963 13.438L16.5583 14.539C16.2613 14.663 15.9913 14.834 15.7393 15.026L14.7023 14.589C14.4703 14.491 14.2013 14.581 14.0753 14.8L13.2663 16.2C13.1403 16.418 13.1963 16.696 13.3973 16.849L14.2983 17.531C14.2783 17.686 14.2513 17.84 14.2513 18C14.2513 18.161 14.2793 18.314 14.2983 18.469L13.3973 19.151C13.1963 19.303 13.1403 19.581 13.2663 19.8L14.0753 21.201C14.2013 21.419 14.4703 21.51 14.7023 21.412L15.7393 20.974C15.9923 21.167 16.2613 21.337 16.5583 21.461L16.6963 22.562C16.7273 22.812 16.9393 23 17.1913 23H18.8083C19.0603 23 19.2733 22.812 19.3043 22.562L19.4423 21.461C19.7393 21.337 20.0093 21.166 20.2613 20.974L21.2983 21.411C21.5303 21.509 21.7993 21.419 21.9253 21.2L22.7343 19.799C22.8603 19.581 22.8043 19.303 22.6033 19.15L21.7033 18.469ZM18.0003 20C16.8953 20 16.0003 19.105 16.0003 18C16.0003 16.895 16.8953 16 18.0003 16C19.1053 16 20.0003 16.895 20.0003 18C20.0003 19.105 19.1053 20 18.0003 20Z" fill="#FF955A"/>
</g>
<defs>
<clipPath id="clip0_5224_30157">
<rect width="24" height="24" fill="white"/>
</clipPath>
</defs>
</svg>
