<svg width="52" height="52" viewBox="0 0 52 52" fill="none" xmlns="http://www.w3.org/2000/svg">
<g filter="url(#filter0_d_1981_11038)">
<rect x="6" y="3" width="40" height="40" rx="20" fill="white" shape-rendering="crispEdges"/>
<path d="M35.3 21.8401C35.69 21.8401 36 21.5301 36 21.1401V20.2101C36 16.1101 34.75 14.8601 30.65 14.8601H21.35C17.25 14.8601 16 16.1101 16 20.2101V20.6801C16 21.0701 16.31 21.3801 16.7 21.3801C17.6 21.3801 18.33 22.1101 18.33 23.0101C18.33 23.9101 17.6 24.6301 16.7 24.6301C16.31 24.6301 16 24.9401 16 25.3301V25.8001C16 29.9001 17.25 31.1501 21.35 31.1501H30.65C34.75 31.1501 36 29.9001 36 25.8001C36 25.4101 35.69 25.1001 35.3 25.1001C34.8677 25.1001 34.4531 24.9284 34.1474 24.6227C33.8417 24.317 33.67 23.9024 33.67 23.4701C33.67 23.0378 33.8417 22.6232 34.1474 22.3175C34.4531 22.0118 34.8677 21.8401 35.3 21.8401ZM23 19.8801C23.55 19.8801 24 20.3301 24 20.8801C24 21.4301 23.56 21.8801 23 21.8801C22.45 21.8801 22 21.4301 22 20.8801C22 20.3301 22.44 19.8801 23 19.8801ZM29 26.8801C28.44 26.8801 27.99 26.4301 27.99 25.8801C27.99 25.3301 28.44 24.8801 28.99 24.8801C29.54 24.8801 29.99 25.3301 29.99 25.8801C29.99 26.4301 29.56 26.8801 29 26.8801ZM29.9 20.4801L23.17 27.2101C23.02 27.3601 22.83 27.4301 22.64 27.4301C22.45 27.4301 22.26 27.3601 22.11 27.2101C21.9705 27.069 21.8923 26.8785 21.8923 26.6801C21.8923 26.4817 21.9705 26.2912 22.11 26.1501L28.84 19.4201C29.13 19.1301 29.61 19.1301 29.9 19.4201C30.19 19.7101 30.19 20.1901 29.9 20.4801Z" fill="#A7A7A7"/>
</g>
<defs>
<filter id="filter0_d_1981_11038" x="0" y="0" width="52" height="52" filterUnits="userSpaceOnUse" color-interpolation-filters="sRGB">
<feFlood flood-opacity="0" result="BackgroundImageFix"/>
<feColorMatrix in="SourceAlpha" type="matrix" values="0 0 0 0 0 0 0 0 0 0 0 0 0 0 0 0 0 0 127 0" result="hardAlpha"/>
<feOffset dy="3"/>
<feGaussianBlur stdDeviation="3"/>
<feComposite in2="hardAlpha" operator="out"/>
<feColorMatrix type="matrix" values="0 0 0 0 0 0 0 0 0 0 0 0 0 0 0 0 0 0 0.02 0"/>
<feBlend mode="normal" in2="BackgroundImageFix" result="effect1_dropShadow_1981_11038"/>
<feBlend mode="normal" in="SourceGraphic" in2="effect1_dropShadow_1981_11038" result="shape"/>
</filter>
</defs>
</svg>
