<svg width="24" height="24" viewBox="0 0 24 24" fill="none" xmlns="http://www.w3.org/2000/svg">
<path d="M14.0537 3.33809C13.5405 2.5833 13.0876 1.8889 12.6649 1.25488C12.6045 1.16431 12.514 1.07374 12.4234 1.01335C12.0611 0.771823 11.578 0.892588 11.3365 1.25488C10.944 1.8889 10.4911 2.55311 9.9477 3.33809C7.56258 6.84028 4 12.1238 4 15.1429C4 17.3469 4.90574 19.3395 6.35493 20.7887C7.80411 22.2077 9.79674 23.1134 12.0007 23.1134C14.2047 23.1134 16.1973 22.2077 17.6465 20.7585C19.0957 19.3093 20.0014 17.3167 20.0014 15.1127C20.0014 12.0936 16.4388 6.84028 14.0537 3.33809ZM16.5596 19.6716C15.3821 20.8491 13.782 21.5435 12.0007 21.5435C10.2194 21.5435 8.61928 20.8189 7.44181 19.6716C6.26435 18.4941 5.56995 16.894 5.56995 15.1127C5.56995 12.5766 8.98157 7.53469 11.2459 4.18345C11.5176 3.79096 11.7592 3.39847 12.0007 3.06637C12.2422 3.39847 12.4838 3.79096 12.7555 4.18345C15.0198 7.56488 18.4315 12.5766 18.4315 15.1127C18.4315 16.894 17.7069 18.4941 16.5596 19.6716Z" fill="#5E5B50"/>
<path d="M16.68 14.5683C16.2573 14.5381 15.895 14.8702 15.8649 15.2929C15.8347 15.9571 15.6233 16.5911 15.2912 17.1346C14.9591 17.678 14.4761 18.1611 13.9024 18.463C13.5401 18.6743 13.3892 19.1574 13.6005 19.5197C13.842 19.9424 14.3251 20.0631 14.6874 19.8518C15.5026 19.3989 16.1668 18.7347 16.6196 17.9799C17.1027 17.2252 17.3744 16.3194 17.4046 15.3835C17.4348 14.9608 17.1027 14.5985 16.68 14.5683Z" fill="#5E5B50"/>
</svg>
