<svg width="24" height="24" viewBox="0 0 24 24" fill="none" xmlns="http://www.w3.org/2000/svg">
<path d="M17.7444 10.7506C18.3352 11.3414 18.8467 12.058 19.2364 12.8199C19.425 13.1886 19.279 13.6405 18.9102 13.8291C18.5414 14.0177 18.0895 13.8717 17.9009 13.5029C17.5806 12.8766 17.1603 12.2878 16.6838 11.8112C14.1211 9.24857 9.96625 9.24857 7.4036 11.8112C6.90578 12.309 6.50137 12.8688 6.19001 13.4844C6.00305 13.854 5.55185 14.0021 5.18223 13.8151C4.81261 13.6281 4.66454 13.1769 4.85149 12.8073C5.2343 12.0505 5.73234 11.3612 6.34294 10.7506C9.49138 7.60212 14.596 7.60212 17.7444 10.7506ZM15.6426 13.8194C16.0902 14.267 16.4584 14.8167 16.7147 15.4016C16.8809 15.781 16.7082 16.2233 16.3288 16.3895C15.9494 16.5558 15.5071 16.383 15.3408 16.0036C15.1577 15.5858 14.8941 15.1922 14.5819 14.8801C13.1792 13.4773 10.9049 13.4773 9.50217 14.8801C9.19165 15.1906 8.93955 15.5688 8.75497 15.9906C8.58892 16.3701 8.14669 16.5431 7.76722 16.3771C7.38774 16.211 7.21472 15.7688 7.38076 15.3893C7.63821 14.8009 7.9946 14.2663 8.44151 13.8194C10.43 11.8309 13.6541 11.8309 15.6426 13.8194ZM20.4476 8.27868C20.9566 8.78773 21.4373 9.3693 21.8557 9.97556C22.091 10.3165 22.0054 10.7836 21.6645 11.0188C21.3236 11.2541 20.8565 11.1685 20.6212 10.8276C20.2532 10.2944 19.8303 9.78273 19.3869 9.33934C15.3069 5.25928 8.69182 5.25928 4.61176 9.33934C4.18989 9.76121 3.77147 10.2728 3.38973 10.8231C3.15363 11.1634 2.68634 11.2479 2.346 11.0118C2.00566 10.7757 1.92117 10.3084 2.15727 9.9681C2.58743 9.34803 3.06184 8.76794 3.5511 8.27868C8.21694 3.61284 15.7818 3.61284 20.4476 8.27868ZM13.0601 16.4391C13.646 17.0249 13.646 17.9748 13.0601 18.5607C12.4743 19.1465 11.5244 19.1465 10.9386 18.5607C10.3527 17.9748 10.3527 17.0249 10.9386 16.4391C11.5244 15.8532 12.4743 15.8532 13.0601 16.4391Z" fill="#5E5B50"/>
</svg>
