<svg width="24" height="24" viewBox="0 0 24 24" fill="none" xmlns="http://www.w3.org/2000/svg">
<path d="M2 2V22H22V2H2ZM21.3548 18.7742H20.1548L20.4774 17.4839H19.7335C19.9384 17.2135 20.0645 16.8806 20.0645 16.5161V15.871C20.0645 14.9816 19.341 14.2581 18.4516 14.2581C18.3226 14.2581 18.1929 14.2816 18.0635 14.3158C17.9845 14.2794 17.8994 14.2581 17.8065 14.2581C17.7135 14.2581 17.6284 14.2794 17.5494 14.3158C17.42 14.2816 17.2903 14.2581 17.1613 14.2581C16.2719 14.2581 15.5484 14.9816 15.5484 15.871V16.5161C15.5484 16.8806 15.6745 17.2135 15.8794 17.4839H15.1355L15.4581 18.7742H7.87258L6.59355 14.169C6.92742 14.0165 7.16129 13.681 7.16129 13.2903C7.16129 13.1187 7.11258 12.9597 7.03387 12.8197C7.61387 12.0871 8.05806 11.2639 8.35161 10.3871H12.3552C12.5052 11.1223 13.1565 11.6774 13.9355 11.6774H19.0968C19.9861 11.6774 20.7097 10.9539 20.7097 10.0645C20.7097 9.17516 19.9861 8.45161 19.0968 8.45161C18.9471 8.45161 18.7987 8.47323 18.6532 8.51645C18.2877 8.06774 17.7471 7.80645 17.1613 7.80645C17.0123 7.80645 16.8648 7.82387 16.72 7.85903C16.4816 7.25742 15.8932 6.83871 15.2258 6.83871C14.9858 6.83871 14.76 6.89484 14.5552 6.98935C14.2639 6.73774 13.9045 6.57742 13.5219 6.53129C13.2468 5.57419 12.3745 4.90323 11.3548 4.90323C11.1545 4.90323 10.9577 4.92935 10.7665 4.98129C10.3226 4.0129 9.38194 3.37065 8.31161 3.30355C8.2271 3.08 8.13258 2.86 8.02581 2.64516H21.3548V18.7742ZM19.4194 16.5161C19.4194 17.0145 19.039 17.4213 18.5542 17.4735C18.7026 17.111 18.7742 16.6445 18.7742 16.1935C18.7742 15.7413 18.7023 15.2735 18.5529 14.9103C19.0365 14.9545 19.4194 15.3723 19.4194 15.871V16.5161ZM18.129 16.1935C18.129 16.951 17.9119 17.3929 17.8065 17.4758C17.701 17.3929 17.4839 16.951 17.4839 16.1935C17.4839 15.4361 17.701 14.9942 17.8065 14.9113C17.9119 14.9942 18.129 15.4361 18.129 16.1935ZM17.0587 17.4735C16.5739 17.4213 16.1935 17.0145 16.1935 16.5161V15.871C16.1935 15.3723 16.5768 14.9545 17.06 14.9103C16.9106 15.2732 16.8387 15.7413 16.8387 16.1935C16.8387 16.6445 16.9103 17.111 17.0587 17.4735ZM19.6516 18.129L19.2287 19.82C19.1926 19.9639 19.0639 20.0645 18.9155 20.0645H16.6971C16.5487 20.0645 16.4203 19.9639 16.3839 19.8203L15.9613 18.129H19.6516ZM2.64516 14.2581H5.94839L7.47516 19.7542C7.48097 19.7755 7.48387 19.7971 7.48387 19.8194C7.48387 19.9545 7.37387 20.0645 7.23871 20.0645H7.16129C6.90419 20.0645 6.79065 19.9671 6.61806 19.8194C6.41032 19.6413 6.15129 19.4194 5.65548 19.4194C5.15968 19.4194 4.90065 19.6413 4.6929 19.8194C4.52032 19.9671 4.40677 20.0645 4.14968 20.0645C3.8929 20.0645 3.77935 19.9671 3.60742 19.8197C3.39968 19.6413 3.14065 19.4194 2.64516 19.4194V14.2581ZM6.51613 13.2903C6.51613 13.4684 6.37161 13.6129 6.19355 13.6129H2.64516V12.9677H6.19355C6.37161 12.9677 6.51613 13.1123 6.51613 13.2903ZM8.52968 3.97387C9.33516 4.11839 10.011 4.68968 10.2735 5.48903L10.3845 5.82613L10.7097 5.68387C10.9145 5.59387 11.1316 5.54839 11.3548 5.54839C12.031 5.54839 12.6142 5.96258 12.8523 6.56806C11.9955 6.76742 11.3548 7.53516 11.3548 8.45161H12C12 7.74 12.5787 7.16129 13.2903 7.16129C13.5539 7.16129 13.8065 7.24516 14.0197 7.39194C13.7697 7.67613 13.6129 8.04419 13.6129 8.45161C13.6129 8.46226 13.6129 8.47323 13.6132 8.48387C12.9823 8.61226 12.4868 9.11129 12.3581 9.74194H8.53871C8.69 9.12226 8.77419 8.48452 8.77419 7.83903V5.81645C8.77419 5.19129 8.69 4.57226 8.52968 3.97387ZM14.2945 8.69645C14.2697 8.60194 14.2581 8.52419 14.2581 8.45161C14.2581 7.91806 14.6923 7.48387 15.2258 7.48387C15.7032 7.48387 16.1129 7.8429 16.1787 8.31903L16.2377 8.7471L16.6313 8.56903C17.2326 8.29645 17.9277 8.52871 18.26 9.07548L18.4129 9.32645L18.6768 9.19774C18.8142 9.13064 18.9558 9.09677 19.0968 9.09677C19.6303 9.09677 20.0645 9.53097 20.0645 10.0645C20.0645 10.5981 19.6303 11.0323 19.0968 11.0323H13.9355C13.4019 11.0323 12.9677 10.5981 12.9677 10.0645C12.9677 9.53097 13.4019 9.09677 13.9155 9.09613L14.4058 9.11839L14.2945 8.69645ZM7.29419 2.64516C7.83871 3.6129 8.12903 4.70452 8.12903 5.81645V7.83903C8.12903 9.49194 7.56613 11.0955 6.54968 12.3926C6.43903 12.3484 6.31935 12.3226 6.19355 12.3226H2.64516V2.64516H7.29419ZM2.64516 21.3548V20.0645C2.90194 20.0645 3.01548 20.1619 3.18742 20.3094C3.39516 20.4877 3.65419 20.7097 4.14968 20.7097C4.64548 20.7097 4.90452 20.4877 5.11226 20.3097C5.28452 20.1619 5.39839 20.0645 5.65548 20.0645C5.91258 20.0645 6.02613 20.1619 6.19871 20.3097C6.40645 20.4881 6.66548 20.7097 7.16129 20.7097H7.23871C7.72935 20.7097 8.12903 20.3103 8.12903 19.8194C8.12903 19.7381 8.11806 19.6577 8.09645 19.581L8.05161 19.4194H15.619L15.7584 19.9771C15.8661 20.4081 16.2526 20.7097 16.6974 20.7097H18.9158C19.3606 20.7097 19.7468 20.4081 19.8545 19.9768L19.9935 19.4194H21.3548V21.3548H2.64516Z" fill="#5E5B50"/>
<path d="M7.48384 7.19403V6.83887H6.83868V7.19403C6.83868 8.74403 6.36223 10.2295 5.46094 11.4902L5.98578 11.8653C6.96578 10.4947 7.48384 8.87919 7.48384 7.19403Z" fill="#5E5B50"/>
<path d="M6.83789 5.54834H7.48305V6.1935H6.83789V5.54834Z" fill="#5E5B50"/>
<path d="M3.29102 3.29053H3.93618V7.16149H3.29102V3.29053Z" fill="#5E5B50"/>
<path d="M4.58008 5.87109H5.22524V9.74206H4.58008V5.87109Z" fill="#5E5B50"/>
<path d="M18.7734 7.16149C19.8408 7.16149 20.7089 6.29343 20.7089 5.22601C20.7089 4.15859 19.8408 3.29053 18.7734 3.29053C17.706 3.29053 16.8379 4.15859 16.8379 5.22601C16.8379 6.29343 17.706 7.16149 18.7734 7.16149ZM18.7734 3.93569C19.485 3.93569 20.0637 4.5144 20.0637 5.22601C20.0637 5.93762 19.485 6.51633 18.7734 6.51633C18.0618 6.51633 17.4831 5.93762 17.4831 5.22601C17.4831 4.5144 18.0618 3.93569 18.7734 3.93569Z" fill="#5E5B50"/>
</svg>
