<svg width="49" height="48" viewBox="0 0 49 48" fill="none" xmlns="http://www.w3.org/2000/svg">
<path d="M3.86892 14.9117C4.06183 11.9435 6.44955 9.61735 9.42202 9.47017C13.7264 9.25704 19.8785 9 24.5139 9C29.1494 9 35.3015 9.25704 39.6058 9.47017C42.5783 9.61735 44.966 11.9435 45.1589 14.9117C45.3437 17.7554 45.5259 21.2545 45.5259 24C45.5259 26.7455 45.3437 30.2446 45.1589 33.0883C44.966 36.0565 42.5783 38.3827 39.6058 38.5298C35.3015 38.743 29.1494 39 24.5139 39C19.8785 39 13.7264 38.743 9.42202 38.5298C6.44955 38.3827 4.06183 36.0565 3.86892 33.0883C3.6841 30.2446 3.50195 26.7455 3.50195 24C3.50195 21.2545 3.6841 17.7554 3.86892 14.9117Z" fill="#FC0D1B"/>
<path d="M20.0107 18V30L32.0176 24L20.0107 18Z" fill="white"/>
</svg>
